<?xml version="1.0" encoding="UTF-8" standalone="no"?>
<!DOCTYPE svg PUBLIC "-//W3C//DTD SVG 1.1//EN"
 "http://www.w3.org/Graphics/SVG/1.1/DTD/svg11.dtd">
<!-- Generated by graphviz version 3.0.0 (20220413.0242)
 -->
<!-- Title: ee/kernel/src/alarm.c Pages: 1 -->
<svg width="351pt" height="252pt"
 viewBox="0.00 0.00 351.00 252.00" xmlns="http://www.w3.org/2000/svg" xmlns:xlink="http://www.w3.org/1999/xlink">
<g id="graph0" class="graph" transform="scale(1 1) rotate(0) translate(4 248)">
<title>ee/kernel/src/alarm.c</title>
<polygon fill="white" stroke="transparent" points="-4,4 -4,-248 347,-248 347,4 -4,4"/>
<!-- Node1 -->
<g id="node1" class="node">
<title>Node1</title>
<g id="a_node1"><a xlink:title=" ">
<polygon fill="#bfbfbf" stroke="black" points="84.5,-224.5 84.5,-243.5 191.5,-243.5 191.5,-224.5 84.5,-224.5"/>
<text text-anchor="middle" x="138" y="-231.5" font-family="Helvetica,sans-Serif" font-size="10.00">ee/kernel/src/alarm.c</text>
</a>
</g>
</g>
<!-- Node2 -->
<g id="node2" class="node">
<title>Node2</title>
<g id="a_node2"><a xlink:href="kernel_8h.html" target="_top" xlink:title=" ">
<polygon fill="white" stroke="black" points="113,-168.5 113,-187.5 163,-187.5 163,-168.5 113,-168.5"/>
<text text-anchor="middle" x="138" y="-175.5" font-family="Helvetica,sans-Serif" font-size="10.00">kernel.h</text>
</a>
</g>
</g>
<!-- Node1&#45;&gt;Node2 -->
<g id="edge1" class="edge">
<title>Node1&#45;&gt;Node2</title>
<path fill="none" stroke="midnightblue" d="M138,-224.08C138,-217.01 138,-206.86 138,-197.99"/>
<polygon fill="midnightblue" stroke="midnightblue" points="141.5,-197.75 138,-187.75 134.5,-197.75 141.5,-197.75"/>
</g>
<!-- Node7 -->
<g id="node7" class="node">
<title>Node7</title>
<g id="a_node7"><a xlink:href="timer_8h.html" target="_top" xlink:title=" ">
<polygon fill="white" stroke="black" points="297,-56.5 297,-75.5 343,-75.5 343,-56.5 297,-56.5"/>
<text text-anchor="middle" x="320" y="-63.5" font-family="Helvetica,sans-Serif" font-size="10.00">timer.h</text>
</a>
</g>
</g>
<!-- Node1&#45;&gt;Node7 -->
<g id="edge6" class="edge">
<title>Node1&#45;&gt;Node7</title>
<path fill="none" stroke="midnightblue" d="M147.79,-224.08C177.3,-197.15 265.71,-116.51 303.06,-82.45"/>
<polygon fill="midnightblue" stroke="midnightblue" points="305.58,-84.89 310.61,-75.57 300.86,-79.72 305.58,-84.89"/>
</g>
<!-- Node8 -->
<g id="node8" class="node">
<title>Node8</title>
<g id="a_node8"><a xlink:href="stdio_8h.html" target="_top" xlink:title=" ">
<polygon fill="white" stroke="black" points="49.5,-168.5 49.5,-187.5 94.5,-187.5 94.5,-168.5 49.5,-168.5"/>
<text text-anchor="middle" x="72" y="-175.5" font-family="Helvetica,sans-Serif" font-size="10.00">stdio.h</text>
</a>
</g>
</g>
<!-- Node1&#45;&gt;Node8 -->
<g id="edge8" class="edge">
<title>Node1&#45;&gt;Node8</title>
<path fill="none" stroke="midnightblue" d="M127.4,-224.32C117.54,-216.26 102.65,-204.08 90.78,-194.37"/>
<polygon fill="midnightblue" stroke="midnightblue" points="92.75,-191.46 82.8,-187.83 88.32,-196.88 92.75,-191.46"/>
</g>
<!-- Node3 -->
<g id="node3" class="node">
<title>Node3</title>
<g id="a_node3"><a xlink:title=" ">
<polygon fill="white" stroke="#bfbfbf" points="128.5,-0.5 128.5,-19.5 179.5,-19.5 179.5,-0.5 128.5,-0.5"/>
<text text-anchor="middle" x="154" y="-7.5" font-family="Helvetica,sans-Serif" font-size="10.00">stddef.h</text>
</a>
</g>
</g>
<!-- Node2&#45;&gt;Node3 -->
<g id="edge2" class="edge">
<title>Node2&#45;&gt;Node3</title>
<path fill="none" stroke="midnightblue" d="M138.86,-168.08C141.38,-141.95 148.77,-65.21 152.21,-29.58"/>
<polygon fill="midnightblue" stroke="midnightblue" points="155.7,-29.86 153.17,-19.57 148.73,-29.19 155.7,-29.86"/>
</g>
<!-- Node4 -->
<g id="node4" class="node">
<title>Node4</title>
<g id="a_node4"><a xlink:title=" ">
<polygon fill="white" stroke="#bfbfbf" points="52.5,-112.5 52.5,-131.5 103.5,-131.5 103.5,-112.5 52.5,-112.5"/>
<text text-anchor="middle" x="78" y="-119.5" font-family="Helvetica,sans-Serif" font-size="10.00">stdarg.h</text>
</a>
</g>
</g>
<!-- Node2&#45;&gt;Node4 -->
<g id="edge3" class="edge">
<title>Node2&#45;&gt;Node4</title>
<path fill="none" stroke="midnightblue" d="M128.36,-168.32C119.49,-160.34 106.13,-148.31 95.39,-138.65"/>
<polygon fill="midnightblue" stroke="midnightblue" points="97.59,-135.92 87.82,-131.83 92.91,-141.13 97.59,-135.92"/>
</g>
<!-- Node5 -->
<g id="node5" class="node">
<title>Node5</title>
<g id="a_node5"><a xlink:href="sifdma_8h.html" target="_top" xlink:title=" ">
<polygon fill="white" stroke="black" points="225.5,-56.5 225.5,-75.5 278.5,-75.5 278.5,-56.5 225.5,-56.5"/>
<text text-anchor="middle" x="252" y="-63.5" font-family="Helvetica,sans-Serif" font-size="10.00">sifdma.h</text>
</a>
</g>
</g>
<!-- Node2&#45;&gt;Node5 -->
<g id="edge4" class="edge">
<title>Node2&#45;&gt;Node5</title>
<path fill="none" stroke="midnightblue" d="M146.95,-168.37C166.09,-149.89 211.28,-106.29 235.68,-82.74"/>
<polygon fill="midnightblue" stroke="midnightblue" points="238.33,-85.05 243.1,-75.59 233.47,-80.02 238.33,-85.05"/>
</g>
<!-- Node6 -->
<g id="node6" class="node">
<title>Node6</title>
<g id="a_node6"><a xlink:href="tamtypes_8h.html" target="_top" xlink:title=" ">
<polygon fill="white" stroke="black" points="220,-0.5 220,-19.5 284,-19.5 284,-0.5 220,-0.5"/>
<text text-anchor="middle" x="252" y="-7.5" font-family="Helvetica,sans-Serif" font-size="10.00">tamtypes.h</text>
</a>
</g>
</g>
<!-- Node5&#45;&gt;Node6 -->
<g id="edge5" class="edge">
<title>Node5&#45;&gt;Node6</title>
<path fill="none" stroke="midnightblue" d="M252,-56.08C252,-49.01 252,-38.86 252,-29.99"/>
<polygon fill="midnightblue" stroke="midnightblue" points="255.5,-29.75 252,-19.75 248.5,-29.75 255.5,-29.75"/>
</g>
<!-- Node7&#45;&gt;Node6 -->
<g id="edge7" class="edge">
<title>Node7&#45;&gt;Node6</title>
<path fill="none" stroke="midnightblue" d="M309.07,-56.32C298.83,-48.18 283.28,-35.84 271,-26.09"/>
<polygon fill="midnightblue" stroke="midnightblue" points="273.13,-23.31 263.12,-19.83 268.78,-28.79 273.13,-23.31"/>
</g>
<!-- Node8&#45;&gt;Node4 -->
<g id="edge9" class="edge">
<title>Node8&#45;&gt;Node4</title>
<path fill="none" stroke="midnightblue" d="M72.99,-168.08C73.79,-160.93 74.93,-150.64 75.92,-141.69"/>
<polygon fill="midnightblue" stroke="midnightblue" points="79.4,-142.08 77.03,-131.75 72.44,-141.3 79.4,-142.08"/>
</g>
<!-- Node9 -->
<g id="node9" class="node">
<title>Node9</title>
<g id="a_node9"><a xlink:href="irx_8h.html" target="_top" xlink:title=" ">
<polygon fill="white" stroke="black" points="0,-112.5 0,-131.5 34,-131.5 34,-112.5 0,-112.5"/>
<text text-anchor="middle" x="17" y="-119.5" font-family="Helvetica,sans-Serif" font-size="10.00">irx.h</text>
</a>
</g>
</g>
<!-- Node8&#45;&gt;Node9 -->
<g id="edge10" class="edge">
<title>Node8&#45;&gt;Node9</title>
<path fill="none" stroke="midnightblue" d="M62.92,-168.08C54.83,-160.14 42.8,-148.34 33.09,-138.8"/>
<polygon fill="midnightblue" stroke="midnightblue" points="35.5,-136.26 25.91,-131.75 30.6,-141.25 35.5,-136.26"/>
</g>
<!-- Node10 -->
<g id="node10" class="node">
<title>Node10</title>
<g id="a_node10"><a xlink:href="types_8h_source.html" target="_top" xlink:title=" ">
<polygon fill="white" stroke="black" points="160.5,-56.5 160.5,-75.5 207.5,-75.5 207.5,-56.5 160.5,-56.5"/>
<text text-anchor="middle" x="184" y="-63.5" font-family="Helvetica,sans-Serif" font-size="10.00">types.h</text>
</a>
</g>
</g>
<!-- Node9&#45;&gt;Node10 -->
<g id="edge11" class="edge">
<title>Node9&#45;&gt;Node10</title>
<path fill="none" stroke="midnightblue" d="M34.04,-115.03C37.02,-114.01 40.1,-112.96 43,-112 79.7,-99.79 121.99,-86.39 150.6,-77.41"/>
<polygon fill="midnightblue" stroke="midnightblue" points="151.99,-80.64 160.49,-74.31 149.9,-73.96 151.99,-80.64"/>
</g>
<!-- Node10&#45;&gt;Node3 -->
<g id="edge12" class="edge">
<title>Node10&#45;&gt;Node3</title>
<path fill="none" stroke="midnightblue" d="M179.05,-56.08C174.9,-48.61 168.85,-37.72 163.73,-28.52"/>
<polygon fill="midnightblue" stroke="midnightblue" points="166.78,-26.79 158.86,-19.75 160.66,-30.19 166.78,-26.79"/>
</g>
<!-- Node10&#45;&gt;Node6 -->
<g id="edge13" class="edge">
<title>Node10&#45;&gt;Node6</title>
<path fill="none" stroke="midnightblue" d="M194.93,-56.32C205.17,-48.18 220.72,-35.84 233,-26.09"/>
<polygon fill="midnightblue" stroke="midnightblue" points="235.22,-28.79 240.88,-19.83 230.87,-23.31 235.22,-28.79"/>
</g>
</g>
</svg>
