<?xml version="1.0" encoding="UTF-8" standalone="no"?>
<!DOCTYPE svg PUBLIC "-//W3C//DTD SVG 1.1//EN"
 "http://www.w3.org/Graphics/SVG/1.1/DTD/svg11.dtd">
<!-- Generated by graphviz version 3.0.0 (20220413.0242)
 -->
<!-- Title: iop/fs/libbdm/include/bd_defrag.h Pages: 1 -->
<svg width="199pt" height="263pt"
 viewBox="0.00 0.00 198.52 263.00" xmlns="http://www.w3.org/2000/svg" xmlns:xlink="http://www.w3.org/1999/xlink">
<g id="graph0" class="graph" transform="scale(1 1) rotate(0) translate(4 259)">
<title>iop/fs/libbdm/include/bd_defrag.h</title>
<polygon fill="white" stroke="transparent" points="-4,4 -4,-259 194.52,-259 194.52,4 -4,4"/>
<!-- Node1 -->
<g id="node1" class="node">
<title>Node1</title>
<g id="a_node1"><a xlink:title=" ">
<polygon fill="#bfbfbf" stroke="black" points="1.02,-224.5 1.02,-254.5 107.02,-254.5 107.02,-224.5 1.02,-224.5"/>
<text text-anchor="start" x="9.02" y="-242.5" font-family="Helvetica,sans-Serif" font-size="10.00">iop/fs/libbdm/include</text>
<text text-anchor="middle" x="54.02" y="-231.5" font-family="Helvetica,sans-Serif" font-size="10.00">/bd_defrag.h</text>
</a>
</g>
</g>
<!-- Node2 -->
<g id="node2" class="node">
<title>Node2</title>
<g id="a_node2"><a xlink:href="tamtypes_8h.html" target="_top" xlink:title=" ">
<polygon fill="white" stroke="black" points="39.02,-0.5 39.02,-19.5 103.02,-19.5 103.02,-0.5 39.02,-0.5"/>
<text text-anchor="middle" x="71.02" y="-7.5" font-family="Helvetica,sans-Serif" font-size="10.00">tamtypes.h</text>
</a>
</g>
</g>
<!-- Node1&#45;&gt;Node2 -->
<g id="edge1" class="edge">
<title>Node1&#45;&gt;Node2</title>
<path fill="none" stroke="midnightblue" d="M44.4,-224.47C24.02,-192.85 -19.37,-114.19 10.02,-56 16.82,-42.52 29.78,-32.08 42.01,-24.67"/>
<polygon fill="midnightblue" stroke="midnightblue" points="44.09,-27.52 51.11,-19.59 40.67,-21.41 44.09,-27.52"/>
</g>
<!-- Node3 -->
<g id="node3" class="node">
<title>Node3</title>
<g id="a_node3"><a xlink:href="bdm_8h.html" target="_top" xlink:title=" ">
<polygon fill="white" stroke="black" points="84.52,-168.5 84.52,-187.5 127.52,-187.5 127.52,-168.5 84.52,-168.5"/>
<text text-anchor="middle" x="106.02" y="-175.5" font-family="Helvetica,sans-Serif" font-size="10.00">bdm.h</text>
</a>
</g>
</g>
<!-- Node1&#45;&gt;Node3 -->
<g id="edge2" class="edge">
<title>Node1&#45;&gt;Node3</title>
<path fill="none" stroke="midnightblue" d="M66.34,-224.4C73.97,-215.66 83.81,-204.41 91.77,-195.3"/>
<polygon fill="midnightblue" stroke="midnightblue" points="94.5,-197.49 98.45,-187.66 89.23,-192.88 94.5,-197.49"/>
</g>
<!-- Node8 -->
<g id="node8" class="node">
<title>Node8</title>
<g id="a_node8"><a xlink:href="usbhdfsd-common_8h.html" target="_top" xlink:title=" ">
<polygon fill="white" stroke="black" points="19.02,-56.5 19.02,-75.5 123.02,-75.5 123.02,-56.5 19.02,-56.5"/>
<text text-anchor="middle" x="71.02" y="-63.5" font-family="Helvetica,sans-Serif" font-size="10.00">usbhdfsd&#45;common.h</text>
</a>
</g>
</g>
<!-- Node1&#45;&gt;Node8 -->
<g id="edge8" class="edge">
<title>Node1&#45;&gt;Node8</title>
<path fill="none" stroke="midnightblue" d="M55.41,-224.47C58.46,-193.7 65.73,-120.33 69.16,-85.7"/>
<polygon fill="midnightblue" stroke="midnightblue" points="72.66,-85.86 70.17,-75.56 65.7,-85.17 72.66,-85.86"/>
</g>
<!-- Node4 -->
<g id="node4" class="node">
<title>Node4</title>
<g id="a_node4"><a xlink:href="irx_8h.html" target="_top" xlink:title=" ">
<polygon fill="white" stroke="black" points="148.02,-112.5 148.02,-131.5 182.02,-131.5 182.02,-112.5 148.02,-112.5"/>
<text text-anchor="middle" x="165.02" y="-119.5" font-family="Helvetica,sans-Serif" font-size="10.00">irx.h</text>
</a>
</g>
</g>
<!-- Node3&#45;&gt;Node4 -->
<g id="edge3" class="edge">
<title>Node3&#45;&gt;Node4</title>
<path fill="none" stroke="midnightblue" d="M115.5,-168.32C124.22,-160.34 137.36,-148.31 147.91,-138.65"/>
<polygon fill="midnightblue" stroke="midnightblue" points="150.35,-141.17 155.36,-131.83 145.62,-136 150.35,-141.17"/>
</g>
<!-- Node7 -->
<g id="node7" class="node">
<title>Node7</title>
<g id="a_node7"><a xlink:title=" ">
<polygon fill="white" stroke="#bfbfbf" points="82.52,-112.5 82.52,-131.5 129.52,-131.5 129.52,-112.5 82.52,-112.5"/>
<text text-anchor="middle" x="106.02" y="-119.5" font-family="Helvetica,sans-Serif" font-size="10.00">types.h</text>
</a>
</g>
</g>
<!-- Node3&#45;&gt;Node7 -->
<g id="edge7" class="edge">
<title>Node3&#45;&gt;Node7</title>
<path fill="none" stroke="midnightblue" d="M106.02,-168.08C106.02,-161.01 106.02,-150.86 106.02,-141.99"/>
<polygon fill="midnightblue" stroke="midnightblue" points="109.52,-141.75 106.02,-131.75 102.52,-141.75 109.52,-141.75"/>
</g>
<!-- Node5 -->
<g id="node5" class="node">
<title>Node5</title>
<g id="a_node5"><a xlink:href="types_8h_source.html" target="_top" xlink:title=" ">
<polygon fill="white" stroke="black" points="141.52,-56.5 141.52,-75.5 188.52,-75.5 188.52,-56.5 141.52,-56.5"/>
<text text-anchor="middle" x="165.02" y="-63.5" font-family="Helvetica,sans-Serif" font-size="10.00">types.h</text>
</a>
</g>
</g>
<!-- Node4&#45;&gt;Node5 -->
<g id="edge4" class="edge">
<title>Node4&#45;&gt;Node5</title>
<path fill="none" stroke="midnightblue" d="M165.02,-112.08C165.02,-105.01 165.02,-94.86 165.02,-85.99"/>
<polygon fill="midnightblue" stroke="midnightblue" points="168.52,-85.75 165.02,-75.75 161.52,-85.75 168.52,-85.75"/>
</g>
<!-- Node5&#45;&gt;Node2 -->
<g id="edge6" class="edge">
<title>Node5&#45;&gt;Node2</title>
<path fill="none" stroke="midnightblue" d="M149.91,-56.32C135.11,-47.82 112.32,-34.73 95.03,-24.8"/>
<polygon fill="midnightblue" stroke="midnightblue" points="96.5,-21.6 86.08,-19.65 93.01,-27.67 96.5,-21.6"/>
</g>
<!-- Node6 -->
<g id="node6" class="node">
<title>Node6</title>
<g id="a_node6"><a xlink:title=" ">
<polygon fill="white" stroke="#bfbfbf" points="139.52,-0.5 139.52,-19.5 190.52,-19.5 190.52,-0.5 139.52,-0.5"/>
<text text-anchor="middle" x="165.02" y="-7.5" font-family="Helvetica,sans-Serif" font-size="10.00">stddef.h</text>
</a>
</g>
</g>
<!-- Node5&#45;&gt;Node6 -->
<g id="edge5" class="edge">
<title>Node5&#45;&gt;Node6</title>
<path fill="none" stroke="midnightblue" d="M165.02,-56.08C165.02,-49.01 165.02,-38.86 165.02,-29.99"/>
<polygon fill="midnightblue" stroke="midnightblue" points="168.52,-29.75 165.02,-19.75 161.52,-29.75 168.52,-29.75"/>
</g>
<!-- Node8&#45;&gt;Node2 -->
<g id="edge9" class="edge">
<title>Node8&#45;&gt;Node2</title>
<path fill="none" stroke="midnightblue" d="M71.02,-56.08C71.02,-49.01 71.02,-38.86 71.02,-29.99"/>
<polygon fill="midnightblue" stroke="midnightblue" points="74.52,-29.75 71.02,-19.75 67.52,-29.75 74.52,-29.75"/>
</g>
</g>
</svg>
