<?xml version="1.0" encoding="UTF-8" standalone="no"?>
<!DOCTYPE svg PUBLIC "-//W3C//DTD SVG 1.1//EN"
 "http://www.w3.org/Graphics/SVG/1.1/DTD/svg11.dtd">
<!-- Generated by graphviz version 3.0.0 (20220413.0242)
 -->
<!-- Title: iop/kernel/include/cdvdman.h Pages: 1 -->
<svg width="2828pt" height="173pt"
 viewBox="0.00 0.00 2828.00 173.00" xmlns="http://www.w3.org/2000/svg" xmlns:xlink="http://www.w3.org/1999/xlink">
<g id="graph0" class="graph" transform="scale(1 1) rotate(0) translate(4 169)">
<title>iop/kernel/include/cdvdman.h</title>
<polygon fill="white" stroke="transparent" points="-4,4 -4,-169 2824,-169 2824,4 -4,4"/>
<!-- Node1 -->
<g id="node1" class="node">
<title>Node1</title>
<g id="a_node1"><a xlink:title=" ">
<polygon fill="#bfbfbf" stroke="black" points="1328.5,-134.5 1328.5,-164.5 1420.5,-164.5 1420.5,-134.5 1328.5,-134.5"/>
<text text-anchor="start" x="1336.5" y="-152.5" font-family="Helvetica,sans-Serif" font-size="10.00">iop/kernel/include</text>
<text text-anchor="middle" x="1374.5" y="-141.5" font-family="Helvetica,sans-Serif" font-size="10.00">/cdvdman.h</text>
</a>
</g>
</g>
<!-- Node2 -->
<g id="node2" class="node">
<title>Node2</title>
<g id="a_node2"><a xlink:href="common_2sbus_2src_2irx__imports_8h_source.html" target="_top" xlink:title=" ">
<polygon fill="white" stroke="black" points="0,-67.5 0,-97.5 107,-97.5 107,-67.5 0,-67.5"/>
<text text-anchor="start" x="8" y="-85.5" font-family="Helvetica,sans-Serif" font-size="10.00">common/sbus/src/irx</text>
<text text-anchor="middle" x="53.5" y="-74.5" font-family="Helvetica,sans-Serif" font-size="10.00">_imports.h</text>
</a>
</g>
</g>
<!-- Node1&#45;&gt;Node2 -->
<g id="edge1" class="edge">
<title>Node1&#45;&gt;Node2</title>
<path fill="none" stroke="midnightblue" d="M1317.92,-147.63C1105.22,-144.13 353.65,-129.77 116.5,-98 113.5,-97.6 110.43,-97.12 107.34,-96.58"/>
<polygon fill="midnightblue" stroke="midnightblue" points="1318.17,-151.13 1328.23,-147.8 1318.28,-144.13 1318.17,-151.13"/>
</g>
<!-- Node3 -->
<g id="node3" class="node">
<title>Node3</title>
<g id="a_node3"><a xlink:href="iop_2cdvd_2cdfs_2src_2irx__imports_8h_source.html" target="_top" xlink:title=" ">
<polygon fill="white" stroke="black" points="125.5,-67.5 125.5,-97.5 229.5,-97.5 229.5,-67.5 125.5,-67.5"/>
<text text-anchor="start" x="133.5" y="-85.5" font-family="Helvetica,sans-Serif" font-size="10.00">iop/cdvd/cdfs/src/irx</text>
<text text-anchor="middle" x="177.5" y="-74.5" font-family="Helvetica,sans-Serif" font-size="10.00">_imports.h</text>
</a>
</g>
</g>
<!-- Node1&#45;&gt;Node3 -->
<g id="edge2" class="edge">
<title>Node1&#45;&gt;Node3</title>
<path fill="none" stroke="midnightblue" d="M1318.19,-147.41C1119.33,-143.32 450.63,-127.66 238.5,-98 235.59,-97.59 232.61,-97.11 229.62,-96.57"/>
<polygon fill="midnightblue" stroke="midnightblue" points="1318.34,-150.91 1328.41,-147.61 1318.48,-143.91 1318.34,-150.91"/>
</g>
<!-- Node4 -->
<g id="node4" class="node">
<title>Node4</title>
<g id="a_node4"><a xlink:href="iop_2debug_2iop__sbusdbg_2src_2irx__imports_8h_source.html" target="_top" xlink:title=" ">
<polygon fill="white" stroke="black" points="247.5,-67.5 247.5,-97.5 363.5,-97.5 363.5,-67.5 247.5,-67.5"/>
<text text-anchor="start" x="255.5" y="-85.5" font-family="Helvetica,sans-Serif" font-size="10.00">iop/debug/iop_sbusdbg</text>
<text text-anchor="middle" x="305.5" y="-74.5" font-family="Helvetica,sans-Serif" font-size="10.00">/src/irx_imports.h</text>
</a>
</g>
</g>
<!-- Node1&#45;&gt;Node4 -->
<g id="edge3" class="edge">
<title>Node1&#45;&gt;Node4</title>
<path fill="none" stroke="midnightblue" d="M1318.24,-148.86C1165.46,-149.16 730.34,-145.42 372.5,-98 369.55,-97.61 366.54,-97.16 363.5,-96.66"/>
<polygon fill="midnightblue" stroke="midnightblue" points="1318.33,-152.36 1328.32,-148.84 1318.31,-145.36 1318.33,-152.36"/>
</g>
<!-- Node5 -->
<g id="node5" class="node">
<title>Node5</title>
<g id="a_node5"><a xlink:href="iop_2debug_2iopdebug_2src_2irx__imports_8h_source.html" target="_top" xlink:title=" ">
<polygon fill="white" stroke="black" points="382,-67.5 382,-97.5 483,-97.5 483,-67.5 382,-67.5"/>
<text text-anchor="start" x="390" y="-85.5" font-family="Helvetica,sans-Serif" font-size="10.00">iop/debug/iopdebug</text>
<text text-anchor="middle" x="432.5" y="-74.5" font-family="Helvetica,sans-Serif" font-size="10.00">/src/irx_imports.h</text>
</a>
</g>
</g>
<!-- Node1&#45;&gt;Node5 -->
<g id="edge4" class="edge">
<title>Node1&#45;&gt;Node5</title>
<path fill="none" stroke="midnightblue" d="M1318.13,-148.85C1177.68,-148.96 801.11,-144.49 491.5,-98 488.79,-97.59 486.02,-97.12 483.23,-96.6"/>
<polygon fill="midnightblue" stroke="midnightblue" points="1318.24,-152.35 1328.23,-148.84 1318.23,-145.35 1318.24,-152.35"/>
</g>
<!-- Node6 -->
<g id="node6" class="node">
<title>Node6</title>
<g id="a_node6"><a xlink:href="diskio_8c_source.html" target="_top" xlink:title=" ">
<polygon fill="white" stroke="black" points="501,-67.5 501,-97.5 596,-97.5 596,-67.5 501,-67.5"/>
<text text-anchor="start" x="509" y="-85.5" font-family="Helvetica,sans-Serif" font-size="10.00">iop/fs/bdmfs_fatfs</text>
<text text-anchor="middle" x="548.5" y="-74.5" font-family="Helvetica,sans-Serif" font-size="10.00">/src/diskio.c</text>
</a>
</g>
</g>
<!-- Node1&#45;&gt;Node6 -->
<g id="edge5" class="edge">
<title>Node1&#45;&gt;Node6</title>
<path fill="none" stroke="midnightblue" d="M1317.83,-148.41C1189.82,-147.42 868.88,-140.51 604.5,-98 601.72,-97.55 598.88,-97.03 596.03,-96.46"/>
<polygon fill="midnightblue" stroke="midnightblue" points="1318.14,-151.91 1328.16,-148.48 1318.19,-144.91 1318.14,-151.91"/>
</g>
<!-- Node7 -->
<g id="node7" class="node">
<title>Node7</title>
<g id="a_node7"><a xlink:href="iop_2fs_2bdmfs__fatfs_2src_2irx__imports_8h_source.html" target="_top" xlink:title=" ">
<polygon fill="white" stroke="black" points="614,-67.5 614,-97.5 709,-97.5 709,-67.5 614,-67.5"/>
<text text-anchor="start" x="622" y="-85.5" font-family="Helvetica,sans-Serif" font-size="10.00">iop/fs/bdmfs_fatfs</text>
<text text-anchor="middle" x="661.5" y="-74.5" font-family="Helvetica,sans-Serif" font-size="10.00">/src/irx_imports.h</text>
</a>
</g>
</g>
<!-- Node1&#45;&gt;Node7 -->
<g id="edge6" class="edge">
<title>Node1&#45;&gt;Node7</title>
<path fill="none" stroke="midnightblue" d="M1318.13,-147.51C1204,-144.78 937.72,-134.68 717.5,-98 714.73,-97.54 711.89,-97 709.04,-96.42"/>
<polygon fill="midnightblue" stroke="midnightblue" points="1318.29,-151.02 1328.36,-147.75 1318.45,-144.02 1318.29,-151.02"/>
</g>
<!-- Node8 -->
<g id="node8" class="node">
<title>Node8</title>
<g id="a_node8"><a xlink:href="iop_2fs_2bdmfs__fatfs_2src_2main_8c_source.html" target="_top" xlink:title=" ">
<polygon fill="white" stroke="black" points="727,-67.5 727,-97.5 822,-97.5 822,-67.5 727,-67.5"/>
<text text-anchor="start" x="735" y="-85.5" font-family="Helvetica,sans-Serif" font-size="10.00">iop/fs/bdmfs_fatfs</text>
<text text-anchor="middle" x="774.5" y="-74.5" font-family="Helvetica,sans-Serif" font-size="10.00">/src/main.c</text>
</a>
</g>
</g>
<!-- Node1&#45;&gt;Node8 -->
<g id="edge7" class="edge">
<title>Node1&#45;&gt;Node8</title>
<path fill="none" stroke="midnightblue" d="M1318.22,-146.26C1219.04,-141.65 1006.92,-128.82 830.5,-98 827.73,-97.52 824.9,-96.96 822.05,-96.37"/>
<polygon fill="midnightblue" stroke="midnightblue" points="1318.17,-149.76 1328.32,-146.72 1318.49,-142.77 1318.17,-149.76"/>
</g>
<!-- Node9 -->
<g id="node9" class="node">
<title>Node9</title>
<g id="a_node9"><a xlink:href="fs_2bdmfs__vfat_2src_2fat__write_8c_source.html" target="_top" xlink:title=" ">
<polygon fill="white" stroke="black" points="840,-67.5 840,-97.5 949,-97.5 949,-67.5 840,-67.5"/>
<text text-anchor="start" x="848" y="-85.5" font-family="Helvetica,sans-Serif" font-size="10.00">iop/fs/bdmfs_vfat/src</text>
<text text-anchor="middle" x="894.5" y="-74.5" font-family="Helvetica,sans-Serif" font-size="10.00">/fat_write.c</text>
</a>
</g>
</g>
<!-- Node1&#45;&gt;Node9 -->
<g id="edge8" class="edge">
<title>Node1&#45;&gt;Node9</title>
<path fill="none" stroke="midnightblue" d="M1317.9,-143.56C1237.44,-136.1 1085.54,-120.42 957.5,-98 954.74,-97.52 951.91,-96.99 949.06,-96.43"/>
<polygon fill="midnightblue" stroke="midnightblue" points="1318.02,-147.09 1328.3,-144.51 1318.66,-140.11 1318.02,-147.09"/>
</g>
<!-- Node10 -->
<g id="node10" class="node">
<title>Node10</title>
<g id="a_node10"><a xlink:href="iop_2fs_2bdmfs__vfat_2src_2irx__imports_8h_source.html" target="_top" xlink:title=" ">
<polygon fill="white" stroke="black" points="967,-67.5 967,-97.5 1076,-97.5 1076,-67.5 967,-67.5"/>
<text text-anchor="start" x="975" y="-85.5" font-family="Helvetica,sans-Serif" font-size="10.00">iop/fs/bdmfs_vfat/src</text>
<text text-anchor="middle" x="1021.5" y="-74.5" font-family="Helvetica,sans-Serif" font-size="10.00">/irx_imports.h</text>
</a>
</g>
</g>
<!-- Node1&#45;&gt;Node10 -->
<g id="edge9" class="edge">
<title>Node1&#45;&gt;Node10</title>
<path fill="none" stroke="midnightblue" d="M1318.2,-139.51C1259.85,-130 1166.06,-114.15 1085.5,-98 1082.48,-97.4 1079.39,-96.76 1076.27,-96.1"/>
<polygon fill="midnightblue" stroke="midnightblue" points="1317.89,-143.01 1328.32,-141.16 1319.01,-136.1 1317.89,-143.01"/>
</g>
<!-- Node11 -->
<g id="node11" class="node">
<title>Node11</title>
<g id="a_node11"><a xlink:href="iop_2hdd_2apa_2src_2irx__imports_8h_source.html" target="_top" xlink:title=" ">
<polygon fill="white" stroke="black" points="1094.5,-67.5 1094.5,-97.5 1190.5,-97.5 1190.5,-67.5 1094.5,-67.5"/>
<text text-anchor="start" x="1102.5" y="-85.5" font-family="Helvetica,sans-Serif" font-size="10.00">iop/hdd/apa/src/irx</text>
<text text-anchor="middle" x="1142.5" y="-74.5" font-family="Helvetica,sans-Serif" font-size="10.00">_imports.h</text>
</a>
</g>
</g>
<!-- Node1&#45;&gt;Node11 -->
<g id="edge10" class="edge">
<title>Node1&#45;&gt;Node11</title>
<path fill="none" stroke="midnightblue" d="M1318.73,-132.87C1279.6,-121.91 1227.82,-107.4 1190.52,-96.95"/>
<polygon fill="midnightblue" stroke="midnightblue" points="1317.81,-136.25 1328.39,-135.58 1319.7,-129.51 1317.81,-136.25"/>
</g>
<!-- Node12 -->
<g id="node12" class="node">
<title>Node12</title>
<g id="a_node12"><a xlink:href="iop_2hdd_2pfs_2src_2irx__imports_8h_source.html" target="_top" xlink:title=" ">
<polygon fill="white" stroke="black" points="1208.5,-67.5 1208.5,-97.5 1302.5,-97.5 1302.5,-67.5 1208.5,-67.5"/>
<text text-anchor="start" x="1216.5" y="-85.5" font-family="Helvetica,sans-Serif" font-size="10.00">iop/hdd/pfs/src/irx</text>
<text text-anchor="middle" x="1255.5" y="-74.5" font-family="Helvetica,sans-Serif" font-size="10.00">_imports.h</text>
</a>
</g>
</g>
<!-- Node1&#45;&gt;Node12 -->
<g id="edge11" class="edge">
<title>Node1&#45;&gt;Node12</title>
<path fill="none" stroke="midnightblue" d="M1339.85,-129.57C1321.13,-119.35 1298.41,-106.94 1281.27,-97.58"/>
<polygon fill="midnightblue" stroke="midnightblue" points="1338.22,-132.67 1348.68,-134.4 1341.58,-126.53 1338.22,-132.67"/>
</g>
<!-- Node13 -->
<g id="node13" class="node">
<title>Node13</title>
<g id="a_node13"><a xlink:href="iop_2i_link_2_i_e_e_e1394__bd_2src_2irx__imports_8h_source.html" target="_top" xlink:title=" ">
<polygon fill="white" stroke="black" points="1321,-67.5 1321,-97.5 1428,-97.5 1428,-67.5 1321,-67.5"/>
<text text-anchor="start" x="1329" y="-85.5" font-family="Helvetica,sans-Serif" font-size="10.00">iop/iLink/IEEE1394</text>
<text text-anchor="middle" x="1374.5" y="-74.5" font-family="Helvetica,sans-Serif" font-size="10.00">_bd/src/irx_imports.h</text>
</a>
</g>
</g>
<!-- Node1&#45;&gt;Node13 -->
<g id="edge12" class="edge">
<title>Node1&#45;&gt;Node13</title>
<path fill="none" stroke="midnightblue" d="M1374.5,-124.11C1374.5,-115.15 1374.5,-105.32 1374.5,-97.58"/>
<polygon fill="midnightblue" stroke="midnightblue" points="1371,-124.4 1374.5,-134.4 1378,-124.4 1371,-124.4"/>
</g>
<!-- Node14 -->
<g id="node14" class="node">
<title>Node14</title>
<g id="a_node14"><a xlink:href="i_link_2_i_e_e_e1394__disk_2src_2fat__write_8c_source.html" target="_top" xlink:title=" ">
<polygon fill="white" stroke="black" points="1446.5,-67.5 1446.5,-97.5 1550.5,-97.5 1550.5,-67.5 1446.5,-67.5"/>
<text text-anchor="start" x="1454.5" y="-85.5" font-family="Helvetica,sans-Serif" font-size="10.00">iop/iLink/IEEE1394</text>
<text text-anchor="middle" x="1498.5" y="-74.5" font-family="Helvetica,sans-Serif" font-size="10.00">_disk/src/fat_write.c</text>
</a>
</g>
</g>
<!-- Node1&#45;&gt;Node14 -->
<g id="edge13" class="edge">
<title>Node1&#45;&gt;Node14</title>
<path fill="none" stroke="midnightblue" d="M1410.34,-129.71C1429.89,-119.46 1453.7,-106.98 1471.65,-97.58"/>
<polygon fill="midnightblue" stroke="midnightblue" points="1408.64,-126.65 1401.41,-134.4 1411.89,-132.85 1408.64,-126.65"/>
</g>
<!-- Node15 -->
<g id="node15" class="node">
<title>Node15</title>
<g id="a_node15"><a xlink:href="iop_2i_link_2_i_e_e_e1394__disk_2src_2irx__imports_8h_source.html" target="_top" xlink:title=" ">
<polygon fill="white" stroke="black" points="1568.5,-67.5 1568.5,-97.5 1682.5,-97.5 1682.5,-67.5 1568.5,-67.5"/>
<text text-anchor="start" x="1576.5" y="-85.5" font-family="Helvetica,sans-Serif" font-size="10.00">iop/iLink/IEEE1394</text>
<text text-anchor="middle" x="1625.5" y="-74.5" font-family="Helvetica,sans-Serif" font-size="10.00">_disk/src/irx_imports.h</text>
</a>
</g>
</g>
<!-- Node1&#45;&gt;Node15 -->
<g id="edge14" class="edge">
<title>Node1&#45;&gt;Node15</title>
<path fill="none" stroke="midnightblue" d="M1430.32,-134.05C1472.26,-123.18 1529.4,-108.39 1571.02,-97.61"/>
<polygon fill="midnightblue" stroke="midnightblue" points="1429.34,-130.68 1420.54,-136.58 1431.1,-137.46 1429.34,-130.68"/>
</g>
<!-- Node16 -->
<g id="node16" class="node">
<title>Node16</title>
<g id="a_node16"><a xlink:href="i_link__internal_8c_source.html" target="_top" xlink:title=" ">
<polygon fill="white" stroke="black" points="1701,-67.5 1701,-97.5 1802,-97.5 1802,-67.5 1701,-67.5"/>
<text text-anchor="start" x="1709" y="-85.5" font-family="Helvetica,sans-Serif" font-size="10.00">iop/iLink/iLinkman</text>
<text text-anchor="middle" x="1751.5" y="-74.5" font-family="Helvetica,sans-Serif" font-size="10.00">/src/iLink_internal.c</text>
</a>
</g>
</g>
<!-- Node1&#45;&gt;Node16 -->
<g id="edge15" class="edge">
<title>Node1&#45;&gt;Node16</title>
<path fill="none" stroke="midnightblue" d="M1430.85,-140.9C1494.42,-132 1600.79,-116.16 1691.5,-98 1694.55,-97.39 1697.67,-96.73 1700.82,-96.05"/>
<polygon fill="midnightblue" stroke="midnightblue" points="1430.06,-137.47 1420.64,-142.32 1431.03,-144.41 1430.06,-137.47"/>
</g>
<!-- Node17 -->
<g id="node17" class="node">
<title>Node17</title>
<g id="a_node17"><a xlink:href="iop_2i_link_2i_linkman_2src_2irx__imports_8h_source.html" target="_top" xlink:title=" ">
<polygon fill="white" stroke="black" points="1820.5,-67.5 1820.5,-97.5 1916.5,-97.5 1916.5,-67.5 1820.5,-67.5"/>
<text text-anchor="start" x="1828.5" y="-85.5" font-family="Helvetica,sans-Serif" font-size="10.00">iop/iLink/iLinkman</text>
<text text-anchor="middle" x="1868.5" y="-74.5" font-family="Helvetica,sans-Serif" font-size="10.00">/src/irx_imports.h</text>
</a>
</g>
</g>
<!-- Node1&#45;&gt;Node17 -->
<g id="edge16" class="edge">
<title>Node1&#45;&gt;Node17</title>
<path fill="none" stroke="midnightblue" d="M1430.63,-144.34C1513.98,-137.64 1675.2,-122.64 1810.5,-98 1813.77,-97.4 1817.12,-96.73 1820.5,-96.01"/>
<polygon fill="midnightblue" stroke="midnightblue" points="1430.3,-140.86 1420.61,-145.14 1430.86,-147.83 1430.3,-140.86"/>
</g>
<!-- Node18 -->
<g id="node18" class="node">
<title>Node18</title>
<g id="a_node18"><a xlink:href="iop_2memorycard_2mcman_2src_2irx__imports_8h_source.html" target="_top" xlink:title=" ">
<polygon fill="white" stroke="black" points="1935,-67.5 1935,-97.5 2056,-97.5 2056,-67.5 1935,-67.5"/>
<text text-anchor="start" x="1943" y="-85.5" font-family="Helvetica,sans-Serif" font-size="10.00">iop/memorycard/mcman</text>
<text text-anchor="middle" x="1995.5" y="-74.5" font-family="Helvetica,sans-Serif" font-size="10.00">/src/irx_imports.h</text>
</a>
</g>
</g>
<!-- Node1&#45;&gt;Node18 -->
<g id="edge17" class="edge">
<title>Node1&#45;&gt;Node18</title>
<path fill="none" stroke="midnightblue" d="M1430.97,-145.43C1531.04,-139.53 1745.87,-124.75 1925.5,-98 1928.57,-97.54 1931.71,-97.04 1934.87,-96.5"/>
<polygon fill="midnightblue" stroke="midnightblue" points="1430.57,-141.95 1420.79,-146.03 1430.98,-148.94 1430.57,-141.95"/>
</g>
<!-- Node19 -->
<g id="node19" class="node">
<title>Node19</title>
<g id="a_node19"><a xlink:href="mcman-internal_8h_source.html" target="_top" xlink:title=" ">
<polygon fill="white" stroke="black" points="2074,-67.5 2074,-97.5 2195,-97.5 2195,-67.5 2074,-67.5"/>
<text text-anchor="start" x="2082" y="-85.5" font-family="Helvetica,sans-Serif" font-size="10.00">iop/memorycard/mcman</text>
<text text-anchor="middle" x="2134.5" y="-74.5" font-family="Helvetica,sans-Serif" font-size="10.00">/src/mcman&#45;internal.h</text>
</a>
</g>
</g>
<!-- Node1&#45;&gt;Node19 -->
<g id="edge18" class="edge">
<title>Node1&#45;&gt;Node19</title>
<path fill="none" stroke="midnightblue" d="M1431.08,-146.93C1549.39,-143.1 1831.37,-131 2065.5,-98 2068.29,-97.61 2071.13,-97.17 2074,-96.69"/>
<polygon fill="midnightblue" stroke="midnightblue" points="1430.71,-143.44 1420.82,-147.26 1430.93,-150.44 1430.71,-143.44"/>
</g>
<!-- Node25 -->
<g id="node25" class="node">
<title>Node25</title>
<g id="a_node25"><a xlink:href="cdrom_8c.html" target="_top" xlink:title=" ">
<polygon fill="white" stroke="black" points="2213,-67.5 2213,-97.5 2320,-97.5 2320,-67.5 2213,-67.5"/>
<text text-anchor="start" x="2221" y="-85.5" font-family="Helvetica,sans-Serif" font-size="10.00">iop/sound/audsrv/src</text>
<text text-anchor="middle" x="2266.5" y="-74.5" font-family="Helvetica,sans-Serif" font-size="10.00">/cdrom.c</text>
</a>
</g>
</g>
<!-- Node1&#45;&gt;Node25 -->
<g id="edge24" class="edge">
<title>Node1&#45;&gt;Node25</title>
<path fill="none" stroke="midnightblue" d="M1430.73,-148.35C1565.19,-147.27 1915.63,-140.26 2204.5,-98 2207.23,-97.6 2210.03,-97.14 2212.84,-96.64"/>
<polygon fill="midnightblue" stroke="midnightblue" points="1430.64,-144.85 1420.67,-148.42 1430.69,-151.85 1430.64,-144.85"/>
</g>
<!-- Node26 -->
<g id="node26" class="node">
<title>Node26</title>
<g id="a_node26"><a xlink:href="iop_2sound_2audsrv_2src_2irx__imports_8h_source.html" target="_top" xlink:title=" ">
<polygon fill="white" stroke="black" points="2338,-67.5 2338,-97.5 2445,-97.5 2445,-67.5 2338,-67.5"/>
<text text-anchor="start" x="2346" y="-85.5" font-family="Helvetica,sans-Serif" font-size="10.00">iop/sound/audsrv/src</text>
<text text-anchor="middle" x="2391.5" y="-74.5" font-family="Helvetica,sans-Serif" font-size="10.00">/irx_imports.h</text>
</a>
</g>
</g>
<!-- Node1&#45;&gt;Node26 -->
<g id="edge25" class="edge">
<title>Node1&#45;&gt;Node26</title>
<path fill="none" stroke="midnightblue" d="M1430.69,-148.98C1578.63,-149.52 1990.8,-146.18 2329.5,-98 2332.24,-97.61 2335.03,-97.16 2337.84,-96.66"/>
<polygon fill="midnightblue" stroke="midnightblue" points="1430.52,-145.48 1420.5,-148.94 1430.49,-152.48 1430.52,-145.48"/>
</g>
<!-- Node27 -->
<g id="node27" class="node">
<title>Node27</title>
<g id="a_node27"><a xlink:href="api_8c_source.html" target="_top" xlink:title=" ">
<polygon fill="white" stroke="black" points="2463,-67.5 2463,-97.5 2570,-97.5 2570,-67.5 2463,-67.5"/>
<text text-anchor="start" x="2471" y="-85.5" font-family="Helvetica,sans-Serif" font-size="10.00">iop/usb/usbhdfsd/src</text>
<text text-anchor="middle" x="2516.5" y="-74.5" font-family="Helvetica,sans-Serif" font-size="10.00">/api.c</text>
</a>
</g>
</g>
<!-- Node1&#45;&gt;Node27 -->
<g id="edge26" class="edge">
<title>Node1&#45;&gt;Node27</title>
<path fill="none" stroke="midnightblue" d="M1430.92,-147.23C1623.46,-142.67 2253.8,-125.92 2454.5,-98 2457.24,-97.62 2460.03,-97.17 2462.84,-96.68"/>
<polygon fill="midnightblue" stroke="midnightblue" points="1430.65,-143.73 1420.74,-147.47 1430.82,-150.73 1430.65,-143.73"/>
</g>
<!-- Node28 -->
<g id="node28" class="node">
<title>Node28</title>
<g id="a_node28"><a xlink:href="usb_2usbhdfsd_2src_2fat__write_8c_source.html" target="_top" xlink:title=" ">
<polygon fill="white" stroke="black" points="2588,-67.5 2588,-97.5 2695,-97.5 2695,-67.5 2588,-67.5"/>
<text text-anchor="start" x="2596" y="-85.5" font-family="Helvetica,sans-Serif" font-size="10.00">iop/usb/usbhdfsd/src</text>
<text text-anchor="middle" x="2641.5" y="-74.5" font-family="Helvetica,sans-Serif" font-size="10.00">/fat_write.c</text>
</a>
</g>
</g>
<!-- Node1&#45;&gt;Node28 -->
<g id="edge27" class="edge">
<title>Node1&#45;&gt;Node28</title>
<path fill="none" stroke="midnightblue" d="M1430.78,-147.54C1637.3,-143.82 2353.17,-128.93 2579.5,-98 2582.24,-97.63 2585.03,-97.19 2587.85,-96.7"/>
<polygon fill="midnightblue" stroke="midnightblue" points="1430.69,-144.05 1420.76,-147.72 1430.82,-151.04 1430.69,-144.05"/>
</g>
<!-- Node29 -->
<g id="node29" class="node">
<title>Node29</title>
<g id="a_node29"><a xlink:href="iop_2usb_2usbhdfsd_2src_2irx__imports_8h_source.html" target="_top" xlink:title=" ">
<polygon fill="white" stroke="black" points="2713,-67.5 2713,-97.5 2820,-97.5 2820,-67.5 2713,-67.5"/>
<text text-anchor="start" x="2721" y="-85.5" font-family="Helvetica,sans-Serif" font-size="10.00">iop/usb/usbhdfsd/src</text>
<text text-anchor="middle" x="2766.5" y="-74.5" font-family="Helvetica,sans-Serif" font-size="10.00">/irx_imports.h</text>
</a>
</g>
</g>
<!-- Node1&#45;&gt;Node29 -->
<g id="edge28" class="edge">
<title>Node1&#45;&gt;Node29</title>
<path fill="none" stroke="midnightblue" d="M1430.67,-147.8C1650.46,-144.85 2452.45,-131.94 2704.5,-98 2707.24,-97.63 2710.03,-97.2 2712.85,-96.71"/>
<polygon fill="midnightblue" stroke="midnightblue" points="1430.6,-144.3 1420.65,-147.94 1430.69,-151.3 1430.6,-144.3"/>
</g>
<!-- Node20 -->
<g id="node20" class="node">
<title>Node20</title>
<g id="a_node20"><a xlink:href="iop_2memorycard_2mcman_2src_2main_8c_source.html" target="_top" xlink:title=" ">
<polygon fill="white" stroke="black" points="1796,-0.5 1796,-30.5 1917,-30.5 1917,-0.5 1796,-0.5"/>
<text text-anchor="start" x="1804" y="-18.5" font-family="Helvetica,sans-Serif" font-size="10.00">iop/memorycard/mcman</text>
<text text-anchor="middle" x="1856.5" y="-7.5" font-family="Helvetica,sans-Serif" font-size="10.00">/src/main.c</text>
</a>
</g>
</g>
<!-- Node19&#45;&gt;Node20 -->
<g id="edge19" class="edge">
<title>Node19&#45;&gt;Node20</title>
<path fill="none" stroke="midnightblue" d="M2064.72,-65.19C2019.2,-54.54 1960.36,-40.78 1916.85,-30.61"/>
<polygon fill="midnightblue" stroke="midnightblue" points="2063.99,-68.61 2074.52,-67.48 2065.58,-61.79 2063.99,-68.61"/>
</g>
<!-- Node21 -->
<g id="node21" class="node">
<title>Node21</title>
<g id="a_node21"><a xlink:href="mcdev_8c_source.html" target="_top" xlink:title=" ">
<polygon fill="white" stroke="black" points="1935,-0.5 1935,-30.5 2056,-30.5 2056,-0.5 1935,-0.5"/>
<text text-anchor="start" x="1943" y="-18.5" font-family="Helvetica,sans-Serif" font-size="10.00">iop/memorycard/mcman</text>
<text text-anchor="middle" x="1995.5" y="-7.5" font-family="Helvetica,sans-Serif" font-size="10.00">/src/mcdev.c</text>
</a>
</g>
</g>
<!-- Node19&#45;&gt;Node21 -->
<g id="edge20" class="edge">
<title>Node19&#45;&gt;Node21</title>
<path fill="none" stroke="midnightblue" d="M2095.22,-63.13C2073.13,-52.8 2045.99,-40.11 2025.6,-30.58"/>
<polygon fill="midnightblue" stroke="midnightblue" points="2093.8,-66.33 2104.34,-67.4 2096.76,-59.99 2093.8,-66.33"/>
</g>
<!-- Node22 -->
<g id="node22" class="node">
<title>Node22</title>
<g id="a_node22"><a xlink:href="mcsio2_8c_source.html" target="_top" xlink:title=" ">
<polygon fill="white" stroke="black" points="2074,-0.5 2074,-30.5 2195,-30.5 2195,-0.5 2074,-0.5"/>
<text text-anchor="start" x="2082" y="-18.5" font-family="Helvetica,sans-Serif" font-size="10.00">iop/memorycard/mcman</text>
<text text-anchor="middle" x="2134.5" y="-7.5" font-family="Helvetica,sans-Serif" font-size="10.00">/src/mcsio2.c</text>
</a>
</g>
</g>
<!-- Node19&#45;&gt;Node22 -->
<g id="edge21" class="edge">
<title>Node19&#45;&gt;Node22</title>
<path fill="none" stroke="midnightblue" d="M2134.5,-57.11C2134.5,-48.15 2134.5,-38.32 2134.5,-30.58"/>
<polygon fill="midnightblue" stroke="midnightblue" points="2131,-57.4 2134.5,-67.4 2138,-57.4 2131,-57.4"/>
</g>
<!-- Node23 -->
<g id="node23" class="node">
<title>Node23</title>
<g id="a_node23"><a xlink:href="ps1mc__fio_8c_source.html" target="_top" xlink:title=" ">
<polygon fill="white" stroke="black" points="2213,-0.5 2213,-30.5 2334,-30.5 2334,-0.5 2213,-0.5"/>
<text text-anchor="start" x="2221" y="-18.5" font-family="Helvetica,sans-Serif" font-size="10.00">iop/memorycard/mcman</text>
<text text-anchor="middle" x="2273.5" y="-7.5" font-family="Helvetica,sans-Serif" font-size="10.00">/src/ps1mc_fio.c</text>
</a>
</g>
</g>
<!-- Node19&#45;&gt;Node23 -->
<g id="edge22" class="edge">
<title>Node19&#45;&gt;Node23</title>
<path fill="none" stroke="midnightblue" d="M2173.78,-63.13C2195.87,-52.8 2223.01,-40.11 2243.4,-30.58"/>
<polygon fill="midnightblue" stroke="midnightblue" points="2172.24,-59.99 2164.66,-67.4 2175.2,-66.33 2172.24,-59.99"/>
</g>
<!-- Node24 -->
<g id="node24" class="node">
<title>Node24</title>
<g id="a_node24"><a xlink:href="ps2mc__fio_8c_source.html" target="_top" xlink:title=" ">
<polygon fill="white" stroke="black" points="2352,-0.5 2352,-30.5 2473,-30.5 2473,-0.5 2352,-0.5"/>
<text text-anchor="start" x="2360" y="-18.5" font-family="Helvetica,sans-Serif" font-size="10.00">iop/memorycard/mcman</text>
<text text-anchor="middle" x="2412.5" y="-7.5" font-family="Helvetica,sans-Serif" font-size="10.00">/src/ps2mc_fio.c</text>
</a>
</g>
</g>
<!-- Node19&#45;&gt;Node24 -->
<g id="edge23" class="edge">
<title>Node19&#45;&gt;Node24</title>
<path fill="none" stroke="midnightblue" d="M2204.28,-65.19C2249.8,-54.54 2308.64,-40.78 2352.15,-30.61"/>
<polygon fill="midnightblue" stroke="midnightblue" points="2203.42,-61.79 2194.48,-67.48 2205.01,-68.61 2203.42,-61.79"/>
</g>
</g>
</svg>
