<?xml version="1.0" encoding="UTF-8" standalone="no"?>
<!DOCTYPE svg PUBLIC "-//W3C//DTD SVG 1.1//EN"
 "http://www.w3.org/Graphics/SVG/1.1/DTD/svg11.dtd">
<!-- Generated by graphviz version 3.0.0 (20220413.0242)
 -->
<!-- Title: iop/fs/bdmfs_fatfs Pages: 1 -->
<svg width="322pt" height="175pt"
 viewBox="0.00 0.00 322.00 175.00" xmlns="http://www.w3.org/2000/svg" xmlns:xlink="http://www.w3.org/1999/xlink">
<g id="graph0" class="graph" transform="scale(1 1) rotate(0) translate(4 171)">
<title>iop/fs/bdmfs_fatfs</title>
<polygon fill="white" stroke="transparent" points="-4,4 -4,-171 318,-171 318,4 -4,4"/>
<g id="clust1" class="cluster">
<title>clusterdir_f24daea2522ffa8b6dc5fa9cdf5b8f5c</title>
<g id="a_clust1"><a xlink:href="dir_f24daea2522ffa8b6dc5fa9cdf5b8f5c.html" target="_top" xlink:title="fs">
<polygon fill="#deebf9" stroke="#7f7f7f" stroke-dasharray="5,2" points="8,-8 8,-159 180,-159 180,-8 8,-8"/>
<text text-anchor="middle" x="94" y="-147" font-family="Helvetica,sans-Serif" font-size="10.00">fs</text>
</a>
</g>
</g>
<g id="clust2" class="cluster">
<title>clusterdir_ca4e6ad4571d2d160c85f86efebac72d</title>
<g id="a_clust2"><a xlink:href="dir_ca4e6ad4571d2d160c85f86efebac72d.html" target="_top">
<polygon fill="#deebf9" stroke="#404040" stroke-width="2" points="16,-80 16,-132 172,-132 172,-80 16,-80"/>
</a>
</g>
</g>
<!-- dir_0134b0376fbe77322088b496fb368f9b -->
<g id="node1" class="node">
<title>dir_0134b0376fbe77322088b496fb368f9b</title>
<g id="a_node1"><a xlink:href="dir_0134b0376fbe77322088b496fb368f9b.html" target="_top" xlink:title="bdm">
<polygon fill="#60a2e3" stroke="red" points="78,-52 24,-52 24,-16 78,-16 78,-52"/>
<text text-anchor="middle" x="51" y="-31.5" font-family="Helvetica,sans-Serif" font-size="10.00">bdm</text>
</a>
</g>
</g>
<!-- dir_ca4e6ad4571d2d160c85f86efebac72d -->
<g id="node2" class="node">
<title>dir_ca4e6ad4571d2d160c85f86efebac72d</title>
<text text-anchor="middle" x="130" y="-103.5" font-family="Helvetica,sans-Serif" font-size="10.00">bdmfs_fatfs</text>
</g>
<!-- dir_f6d409efb8c225447b4f5511042ceaec -->
<g id="node3" class="node">
<title>dir_f6d409efb8c225447b4f5511042ceaec</title>
<g id="a_node3"><a xlink:href="dir_f6d409efb8c225447b4f5511042ceaec.html" target="_top" xlink:title="src">
<polygon fill="#60a2e3" stroke="#404040" points="78,-124 24,-124 24,-88 78,-88 78,-124"/>
<text text-anchor="middle" x="51" y="-103.5" font-family="Helvetica,sans-Serif" font-size="10.00">src</text>
</a>
</g>
</g>
<!-- dir_f6d409efb8c225447b4f5511042ceaec&#45;&gt;dir_0134b0376fbe77322088b496fb368f9b -->
<g id="edge1" class="edge">
<title>dir_f6d409efb8c225447b4f5511042ceaec&#45;&gt;dir_0134b0376fbe77322088b496fb368f9b</title>
<path fill="none" stroke="black" d="M51,-87.7C51,-79.98 51,-70.71 51,-62.11"/>
<polygon fill="black" stroke="black" points="54.5,-62.1 51,-52.1 47.5,-62.1 54.5,-62.1"/>
<g id="a_edge1&#45;headlabel"><a xlink:href="dir_000282_000011.html" target="_top" xlink:title="5">
<text text-anchor="middle" x="57.34" y="-63.2" font-family="Helvetica,sans-Serif" font-size="10.00">5</text>
</a>
</g>
</g>
<!-- dir_9be0baa3d4a3e9f480a9ee70594037fa -->
<g id="node4" class="node">
<title>dir_9be0baa3d4a3e9f480a9ee70594037fa</title>
<g id="a_node4"><a xlink:href="dir_9be0baa3d4a3e9f480a9ee70594037fa.html" target="_top" xlink:title="kernel">
<polygon fill="none" stroke="red" stroke-dasharray="5,2" points="242,-52 188,-52 188,-16 242,-16 242,-52"/>
<text text-anchor="middle" x="215" y="-31.5" font-family="Helvetica,sans-Serif" font-size="10.00">kernel</text>
</a>
</g>
</g>
<!-- dir_f6d409efb8c225447b4f5511042ceaec&#45;&gt;dir_9be0baa3d4a3e9f480a9ee70594037fa -->
<g id="edge2" class="edge">
<title>dir_f6d409efb8c225447b4f5511042ceaec&#45;&gt;dir_9be0baa3d4a3e9f480a9ee70594037fa</title>
<path fill="none" stroke="black" d="M73.17,-87.95C77.6,-85.03 82.33,-82.22 87,-80 124.51,-62.16 140.15,-68.02 178.18,-54.1"/>
<polygon fill="black" stroke="black" points="179.74,-57.25 187.78,-50.35 177.19,-50.73 179.74,-57.25"/>
<g id="a_edge2&#45;headlabel"><a xlink:href="dir_000282_000158.html" target="_top" xlink:title="21">
<text text-anchor="middle" x="177.42" y="-58.71" font-family="Helvetica,sans-Serif" font-size="10.00">21</text>
</a>
</g>
</g>
<!-- dir_bdd9a5d540de89e9fe90efdfc6973a4f -->
<g id="node5" class="node">
<title>dir_bdd9a5d540de89e9fe90efdfc6973a4f</title>
<g id="a_node5"><a xlink:href="dir_bdd9a5d540de89e9fe90efdfc6973a4f.html" target="_top" xlink:title="common">
<polygon fill="none" stroke="red" points="314,-52 260,-52 260,-16 314,-16 314,-52"/>
<text text-anchor="middle" x="287" y="-31.5" font-family="Helvetica,sans-Serif" font-size="10.00">common</text>
</a>
</g>
</g>
<!-- dir_f6d409efb8c225447b4f5511042ceaec&#45;&gt;dir_bdd9a5d540de89e9fe90efdfc6973a4f -->
<g id="edge3" class="edge">
<title>dir_f6d409efb8c225447b4f5511042ceaec&#45;&gt;dir_bdd9a5d540de89e9fe90efdfc6973a4f</title>
<path fill="none" stroke="black" d="M72.59,-87.78C77.14,-84.8 82.07,-82.02 87,-80 152.5,-53.22 178.24,-72.4 249.86,-51.81"/>
<polygon fill="black" stroke="black" points="251.24,-55.05 259.79,-48.79 249.21,-48.35 251.24,-55.05"/>
<g id="a_edge3&#45;headlabel"><a xlink:href="dir_000282_000022.html" target="_top" xlink:title="2">
<text text-anchor="middle" x="248.63" y="-56.31" font-family="Helvetica,sans-Serif" font-size="10.00">2</text>
</a>
</g>
</g>
</g>
</svg>
