<?xml version="1.0" encoding="UTF-8" standalone="no"?>
<!DOCTYPE svg PUBLIC "-//W3C//DTD SVG 1.1//EN"
 "http://www.w3.org/Graphics/SVG/1.1/DTD/svg11.dtd">
<!-- Generated by graphviz version 3.0.0 (20220413.0242)
 -->
<!-- Title: iop/fs/bdmfs_fatfs/src Pages: 1 -->
<svg width="230pt" height="159pt"
 viewBox="0.00 0.00 230.00 159.00" xmlns="http://www.w3.org/2000/svg" xmlns:xlink="http://www.w3.org/1999/xlink">
<g id="graph0" class="graph" transform="scale(1 1) rotate(0) translate(4 155)">
<title>iop/fs/bdmfs_fatfs/src</title>
<polygon fill="white" stroke="transparent" points="-4,4 -4,-155 226,-155 226,4 -4,4"/>
<g id="clust1" class="cluster">
<title>clusterdir_ca4e6ad4571d2d160c85f86efebac72d</title>
<g id="a_clust1"><a xlink:href="dir_ca4e6ad4571d2d160c85f86efebac72d.html" target="_top" xlink:title="bdmfs_fatfs">
<polygon fill="#deebf9" stroke="#7f7f7f" stroke-dasharray="5,2" points="8,-56 8,-143 166,-143 166,-56 8,-56"/>
<text text-anchor="middle" x="87" y="-131" font-family="Helvetica,sans-Serif" font-size="10.00">bdmfs_fatfs</text>
</a>
</g>
</g>
<g id="clust2" class="cluster">
<title>clusterdir_f6d409efb8c225447b4f5511042ceaec</title>
<g id="a_clust2"><a xlink:href="dir_f6d409efb8c225447b4f5511042ceaec.html" target="_top">
<polygon fill="#deebf9" stroke="#404040" stroke-width="2" points="16,-64 16,-116 158,-116 158,-64 16,-64"/>
</a>
</g>
</g>
<!-- dir_f6d409efb8c225447b4f5511042ceaec -->
<g id="node1" class="node">
<title>dir_f6d409efb8c225447b4f5511042ceaec</title>
<text text-anchor="middle" x="123" y="-87.5" font-family="Helvetica,sans-Serif" font-size="10.00">src</text>
</g>
<!-- dir_0134b0376fbe77322088b496fb368f9b -->
<g id="node3" class="node">
<title>dir_0134b0376fbe77322088b496fb368f9b</title>
<g id="a_node3"><a xlink:href="dir_0134b0376fbe77322088b496fb368f9b.html" target="_top" xlink:title="bdm">
<polygon fill="none" stroke="red" stroke-dasharray="5,2" points="78,-36 24,-36 24,0 78,0 78,-36"/>
<text text-anchor="middle" x="51" y="-15.5" font-family="Helvetica,sans-Serif" font-size="10.00">bdm</text>
</a>
</g>
</g>
<!-- dir_f6d409efb8c225447b4f5511042ceaec&#45;&gt;dir_0134b0376fbe77322088b496fb368f9b -->
<g id="edge1" class="edge">
<title>dir_f6d409efb8c225447b4f5511042ceaec&#45;&gt;dir_0134b0376fbe77322088b496fb368f9b</title>
<path fill="none" stroke="black" d="M105.2,-71.7C96.4,-63.14 85.62,-52.66 76,-43.3"/>
<polygon fill="black" stroke="black" points="78.2,-40.57 68.59,-36.1 73.32,-45.58 78.2,-40.57"/>
<g id="a_edge1&#45;headlabel"><a xlink:href="dir_000282_000011.html" target="_top" xlink:title="5">
<text text-anchor="middle" x="82.76" y="-38.54" font-family="Helvetica,sans-Serif" font-size="10.00">5</text>
</a>
</g>
</g>
<!-- dir_9be0baa3d4a3e9f480a9ee70594037fa -->
<g id="node4" class="node">
<title>dir_9be0baa3d4a3e9f480a9ee70594037fa</title>
<g id="a_node4"><a xlink:href="dir_9be0baa3d4a3e9f480a9ee70594037fa.html" target="_top" xlink:title="kernel">
<polygon fill="none" stroke="red" stroke-dasharray="5,2" points="150,-36 96,-36 96,0 150,0 150,-36"/>
<text text-anchor="middle" x="123" y="-15.5" font-family="Helvetica,sans-Serif" font-size="10.00">kernel</text>
</a>
</g>
</g>
<!-- dir_f6d409efb8c225447b4f5511042ceaec&#45;&gt;dir_9be0baa3d4a3e9f480a9ee70594037fa -->
<g id="edge2" class="edge">
<title>dir_f6d409efb8c225447b4f5511042ceaec&#45;&gt;dir_9be0baa3d4a3e9f480a9ee70594037fa</title>
<path fill="none" stroke="black" d="M123,-71.7C123,-63.98 123,-54.71 123,-46.11"/>
<polygon fill="black" stroke="black" points="126.5,-46.1 123,-36.1 119.5,-46.1 126.5,-46.1"/>
<g id="a_edge2&#45;headlabel"><a xlink:href="dir_000282_000158.html" target="_top" xlink:title="21">
<text text-anchor="middle" x="129.34" y="-47.2" font-family="Helvetica,sans-Serif" font-size="10.00">21</text>
</a>
</g>
</g>
<!-- dir_bdd9a5d540de89e9fe90efdfc6973a4f -->
<g id="node5" class="node">
<title>dir_bdd9a5d540de89e9fe90efdfc6973a4f</title>
<g id="a_node5"><a xlink:href="dir_bdd9a5d540de89e9fe90efdfc6973a4f.html" target="_top" xlink:title="common">
<polygon fill="none" stroke="red" points="222,-36 168,-36 168,0 222,0 222,-36"/>
<text text-anchor="middle" x="195" y="-15.5" font-family="Helvetica,sans-Serif" font-size="10.00">common</text>
</a>
</g>
</g>
<!-- dir_f6d409efb8c225447b4f5511042ceaec&#45;&gt;dir_bdd9a5d540de89e9fe90efdfc6973a4f -->
<g id="edge3" class="edge">
<title>dir_f6d409efb8c225447b4f5511042ceaec&#45;&gt;dir_bdd9a5d540de89e9fe90efdfc6973a4f</title>
<path fill="none" stroke="black" d="M140.8,-71.7C149.6,-63.14 160.38,-52.66 170,-43.3"/>
<polygon fill="black" stroke="black" points="172.68,-45.58 177.41,-36.1 167.8,-40.57 172.68,-45.58"/>
<g id="a_edge3&#45;headlabel"><a xlink:href="dir_000282_000022.html" target="_top" xlink:title="2">
<text text-anchor="middle" x="172.08" y="-47.63" font-family="Helvetica,sans-Serif" font-size="10.00">2</text>
</a>
</g>
</g>
<!-- dir_20e91a8bae2e1f802bcb7f8435cbf723 -->
<g id="node2" class="node">
<title>dir_20e91a8bae2e1f802bcb7f8435cbf723</title>
<g id="a_node2"><a xlink:href="dir_20e91a8bae2e1f802bcb7f8435cbf723.html" target="_top" xlink:title="include">
<polygon fill="#60a2e3" stroke="#404040" points="78,-108 24,-108 24,-72 78,-72 78,-108"/>
<text text-anchor="middle" x="51" y="-87.5" font-family="Helvetica,sans-Serif" font-size="10.00">include</text>
</a>
</g>
</g>
<!-- dir_20e91a8bae2e1f802bcb7f8435cbf723&#45;&gt;dir_0134b0376fbe77322088b496fb368f9b -->
<g id="edge4" class="edge">
<title>dir_20e91a8bae2e1f802bcb7f8435cbf723&#45;&gt;dir_0134b0376fbe77322088b496fb368f9b</title>
<path fill="none" stroke="black" d="M51,-71.7C51,-63.98 51,-54.71 51,-46.11"/>
<polygon fill="black" stroke="black" points="54.5,-46.1 51,-36.1 47.5,-46.1 54.5,-46.1"/>
<g id="a_edge4&#45;headlabel"><a xlink:href="dir_000112_000011.html" target="_top" xlink:title="1">
<text text-anchor="middle" x="57.34" y="-47.2" font-family="Helvetica,sans-Serif" font-size="10.00">1</text>
</a>
</g>
</g>
</g>
</svg>
