<?xml version="1.0" encoding="UTF-8" standalone="no"?>
<!DOCTYPE svg PUBLIC "-//W3C//DTD SVG 1.1//EN"
 "http://www.w3.org/Graphics/SVG/1.1/DTD/svg11.dtd">
<!-- Generated by graphviz version 3.0.0 (20220413.0242)
 -->
<!-- Title: ee/libgs Pages: 1 -->
<svg width="410pt" height="231pt"
 viewBox="0.00 0.00 410.00 231.00" xmlns="http://www.w3.org/2000/svg" xmlns:xlink="http://www.w3.org/1999/xlink">
<g id="graph0" class="graph" transform="scale(1 1) rotate(0) translate(4 227)">
<title>ee/libgs</title>
<polygon fill="white" stroke="transparent" points="-4,4 -4,-227 406,-227 406,4 -4,4"/>
<g id="clust1" class="cluster">
<title>clusterdir_049738f1909e8dc3e45fe1f6b3faa109</title>
<g id="a_clust1"><a xlink:href="dir_049738f1909e8dc3e45fe1f6b3faa109.html" target="_top" xlink:title="ee">
<polygon fill="#deebf9" stroke="#404040" stroke-dasharray="5,2" points="8,-56 8,-215 300,-215 300,-56 8,-56"/>
<text text-anchor="middle" x="154" y="-203" font-family="Helvetica,sans-Serif" font-size="10.00">ee</text>
</a>
</g>
</g>
<g id="clust2" class="cluster">
<title>clusterdir_b6bcbdb02df18226d1f2b0d9af42cc14</title>
<g id="a_clust2"><a xlink:href="dir_b6bcbdb02df18226d1f2b0d9af42cc14.html" target="_top">
<polygon fill="#deebf9" stroke="#404040" stroke-width="2" points="16,-64 16,-188 158,-188 158,-64 16,-64"/>
</a>
</g>
</g>
<!-- dir_694ec83a64f58cbdefbefce65cd1011c -->
<g id="node1" class="node">
<title>dir_694ec83a64f58cbdefbefce65cd1011c</title>
<g id="a_node1"><a xlink:href="dir_694ec83a64f58cbdefbefce65cd1011c.html" target="_top" xlink:title="kernel">
<polygon fill="#60a2e3" stroke="red" points="220,-108 166,-108 166,-72 220,-72 220,-108"/>
<text text-anchor="middle" x="193" y="-87.5" font-family="Helvetica,sans-Serif" font-size="10.00">kernel</text>
</a>
</g>
</g>
<!-- dir_a0a8ac7efb6662b749c1285408048e6d -->
<g id="node2" class="node">
<title>dir_a0a8ac7efb6662b749c1285408048e6d</title>
<g id="a_node2"><a xlink:href="dir_a0a8ac7efb6662b749c1285408048e6d.html" target="_top" xlink:title="erl">
<polygon fill="#60a2e3" stroke="red" points="292,-108 238,-108 238,-72 292,-72 292,-108"/>
<text text-anchor="middle" x="265" y="-87.5" font-family="Helvetica,sans-Serif" font-size="10.00">erl</text>
</a>
</g>
</g>
<!-- dir_b6bcbdb02df18226d1f2b0d9af42cc14 -->
<g id="node3" class="node">
<title>dir_b6bcbdb02df18226d1f2b0d9af42cc14</title>
<text text-anchor="middle" x="123" y="-159.5" font-family="Helvetica,sans-Serif" font-size="10.00">libgs</text>
</g>
<!-- dir_bcd2c58d4ad7915f6bedffda715c21a5 -->
<g id="node4" class="node">
<title>dir_bcd2c58d4ad7915f6bedffda715c21a5</title>
<g id="a_node4"><a xlink:href="dir_bcd2c58d4ad7915f6bedffda715c21a5.html" target="_top" xlink:title="include">
<polygon fill="#60a2e3" stroke="#404040" points="113,-108 59,-108 59,-72 113,-72 113,-108"/>
<text text-anchor="middle" x="86" y="-87.5" font-family="Helvetica,sans-Serif" font-size="10.00">include</text>
</a>
</g>
</g>
<!-- dir_bdd9a5d540de89e9fe90efdfc6973a4f -->
<g id="node6" class="node">
<title>dir_bdd9a5d540de89e9fe90efdfc6973a4f</title>
<g id="a_node6"><a xlink:href="dir_bdd9a5d540de89e9fe90efdfc6973a4f.html" target="_top" xlink:title="common">
<polygon fill="none" stroke="red" points="230,-36 176,-36 176,0 230,0 230,-36"/>
<text text-anchor="middle" x="203" y="-15.5" font-family="Helvetica,sans-Serif" font-size="10.00">common</text>
</a>
</g>
</g>
<!-- dir_bcd2c58d4ad7915f6bedffda715c21a5&#45;&gt;dir_bdd9a5d540de89e9fe90efdfc6973a4f -->
<g id="edge1" class="edge">
<title>dir_bcd2c58d4ad7915f6bedffda715c21a5&#45;&gt;dir_bdd9a5d540de89e9fe90efdfc6973a4f</title>
<path fill="none" stroke="black" d="M99.64,-71.86C104.67,-66.29 110.69,-60.42 117,-56 131.99,-45.49 150.43,-37.07 166.39,-30.93"/>
<polygon fill="black" stroke="black" points="167.79,-34.15 175.96,-27.4 165.36,-27.58 167.79,-34.15"/>
<g id="a_edge1&#45;headlabel"><a xlink:href="dir_000076_000022.html" target="_top" xlink:title="1">
<text text-anchor="middle" x="165.39" y="-35.55" font-family="Helvetica,sans-Serif" font-size="10.00">1</text>
</a>
</g>
</g>
<!-- dir_697e079727c0d4c73a79472c13971083 -->
<g id="node5" class="node">
<title>dir_697e079727c0d4c73a79472c13971083</title>
<g id="a_node5"><a xlink:href="dir_697e079727c0d4c73a79472c13971083.html" target="_top" xlink:title="src">
<polygon fill="#60a2e3" stroke="#404040" points="78,-180 24,-180 24,-144 78,-144 78,-180"/>
<text text-anchor="middle" x="51" y="-159.5" font-family="Helvetica,sans-Serif" font-size="10.00">src</text>
</a>
</g>
</g>
<!-- dir_697e079727c0d4c73a79472c13971083&#45;&gt;dir_694ec83a64f58cbdefbefce65cd1011c -->
<g id="edge3" class="edge">
<title>dir_697e079727c0d4c73a79472c13971083&#45;&gt;dir_694ec83a64f58cbdefbefce65cd1011c</title>
<path fill="none" stroke="black" d="M78.23,-148.1C103.13,-136.28 138.45,-119.49 156.82,-110.49"/>
<polygon fill="black" stroke="black" points="158.61,-113.52 166,-105.92 155.48,-107.25 158.61,-113.52"/>
<g id="a_edge3&#45;headlabel"><a xlink:href="dir_000239_000157.html" target="_top" xlink:title="10">
<text text-anchor="middle" x="156.65" y="-115.16" font-family="Helvetica,sans-Serif" font-size="10.00">10</text>
</a>
</g>
</g>
<!-- dir_697e079727c0d4c73a79472c13971083&#45;&gt;dir_a0a8ac7efb6662b749c1285408048e6d -->
<g id="edge4" class="edge">
<title>dir_697e079727c0d4c73a79472c13971083&#45;&gt;dir_a0a8ac7efb6662b749c1285408048e6d</title>
<path fill="none" stroke="black" d="M78.29,-147.45C81.2,-146.2 84.14,-145.03 87,-144 145.4,-123.03 165.81,-129.32 228.19,-107.92"/>
<polygon fill="black" stroke="black" points="229.45,-111.18 237.71,-104.55 227.12,-104.58 229.45,-111.18"/>
<g id="a_edge4&#45;headlabel"><a xlink:href="dir_000239_000042.html" target="_top" xlink:title="1">
<text text-anchor="middle" x="227.01" y="-112.56" font-family="Helvetica,sans-Serif" font-size="10.00">1</text>
</a>
</g>
</g>
<!-- dir_697e079727c0d4c73a79472c13971083&#45;&gt;dir_bcd2c58d4ad7915f6bedffda715c21a5 -->
<g id="edge5" class="edge">
<title>dir_697e079727c0d4c73a79472c13971083&#45;&gt;dir_bcd2c58d4ad7915f6bedffda715c21a5</title>
<path fill="none" stroke="black" d="M59.65,-143.7C63.64,-135.73 68.45,-126.1 72.87,-117.26"/>
<polygon fill="black" stroke="black" points="76.11,-118.61 77.45,-108.1 69.85,-115.48 76.11,-118.61"/>
<g id="a_edge5&#45;headlabel"><a xlink:href="dir_000239_000076.html" target="_top" xlink:title="10">
<text text-anchor="middle" x="77.04" y="-120.6" font-family="Helvetica,sans-Serif" font-size="10.00">10</text>
</a>
</g>
</g>
<!-- dir_697e079727c0d4c73a79472c13971083&#45;&gt;dir_bdd9a5d540de89e9fe90efdfc6973a4f -->
<g id="edge6" class="edge">
<title>dir_697e079727c0d4c73a79472c13971083&#45;&gt;dir_bdd9a5d540de89e9fe90efdfc6973a4f</title>
<path fill="none" stroke="black" d="M78.2,-147.2C81.13,-146 84.1,-144.91 87,-144 133.66,-129.42 272.39,-145.29 304,-108 318.95,-90.37 317.24,-74.95 304,-56 289.62,-35.42 262.5,-26.25 239.98,-22.19"/>
<polygon fill="black" stroke="black" points="240.43,-18.71 230.02,-20.65 239.37,-25.63 240.43,-18.71"/>
<g id="a_edge6&#45;headlabel"><a xlink:href="dir_000239_000022.html" target="_top" xlink:title="10">
<text text-anchor="middle" x="244.42" y="-13.96" font-family="Helvetica,sans-Serif" font-size="10.00">10</text>
</a>
</g>
</g>
<!-- dir_0981ace215aa2029f526b70c145b9fbe -->
<g id="node7" class="node">
<title>dir_0981ace215aa2029f526b70c145b9fbe</title>
<g id="a_node7"><a xlink:href="dir_0981ace215aa2029f526b70c145b9fbe.html" target="_top" xlink:title="iop">
<polygon fill="none" stroke="red" points="402,-108 348,-108 348,-72 402,-72 402,-108"/>
<text text-anchor="middle" x="375" y="-87.5" font-family="Helvetica,sans-Serif" font-size="10.00">iop</text>
</a>
</g>
</g>
<!-- dir_697e079727c0d4c73a79472c13971083&#45;&gt;dir_0981ace215aa2029f526b70c145b9fbe -->
<g id="edge2" class="edge">
<title>dir_697e079727c0d4c73a79472c13971083&#45;&gt;dir_0981ace215aa2029f526b70c145b9fbe</title>
<path fill="none" stroke="black" d="M78.18,-147.14C81.11,-145.96 84.09,-144.88 87,-144 193.21,-111.96 227.05,-137.47 334,-108 335.44,-107.6 336.9,-107.17 338.36,-106.71"/>
<polygon fill="black" stroke="black" points="339.72,-109.94 347.98,-103.3 337.39,-103.34 339.72,-109.94"/>
<g id="a_edge2&#45;headlabel"><a xlink:href="dir_000239_000151.html" target="_top" xlink:title="10">
<text text-anchor="middle" x="337.28" y="-111.31" font-family="Helvetica,sans-Serif" font-size="10.00">10</text>
</a>
</g>
</g>
</g>
</svg>
