<?xml version="1.0" encoding="UTF-8" standalone="no"?>
<!DOCTYPE svg PUBLIC "-//W3C//DTD SVG 1.1//EN"
 "http://www.w3.org/Graphics/SVG/1.1/DTD/svg11.dtd">
<!-- Generated by graphviz version 3.0.0 (20220413.0242)
 -->
<!-- Title: iop/dvrp Pages: 1 -->
<svg width="596pt" height="175pt"
 viewBox="0.00 0.00 596.00 175.00" xmlns="http://www.w3.org/2000/svg" xmlns:xlink="http://www.w3.org/1999/xlink">
<g id="graph0" class="graph" transform="scale(1 1) rotate(0) translate(4 171)">
<title>iop/dvrp</title>
<polygon fill="white" stroke="transparent" points="-4,4 -4,-171 592,-171 592,4 -4,4"/>
<g id="clust1" class="cluster">
<title>clusterdir_0981ace215aa2029f526b70c145b9fbe</title>
<g id="a_clust1"><a xlink:href="dir_0981ace215aa2029f526b70c145b9fbe.html" target="_top" xlink:title="iop">
<polygon fill="#deebf9" stroke="#404040" stroke-dasharray="5,2" points="8,-8 8,-159 526,-159 526,-8 8,-8"/>
<text text-anchor="middle" x="267" y="-147" font-family="Helvetica,sans-Serif" font-size="10.00">iop</text>
</a>
</g>
</g>
<g id="clust2" class="cluster">
<title>clusterdir_a16ad4cba4b1f15056f2b7b0b5931815</title>
<g id="a_clust2"><a xlink:href="dir_a16ad4cba4b1f15056f2b7b0b5931815.html" target="_top">
<polygon fill="#deebf9" stroke="#404040" stroke-width="2" points="16,-80 16,-132 518,-132 518,-80 16,-80"/>
</a>
</g>
</g>
<!-- dir_9be0baa3d4a3e9f480a9ee70594037fa -->
<g id="node1" class="node">
<title>dir_9be0baa3d4a3e9f480a9ee70594037fa</title>
<g id="a_node1"><a xlink:href="dir_9be0baa3d4a3e9f480a9ee70594037fa.html" target="_top" xlink:title="kernel">
<polygon fill="#60a2e3" stroke="red" points="222,-52 168,-52 168,-16 222,-16 222,-52"/>
<text text-anchor="middle" x="195" y="-31.5" font-family="Helvetica,sans-Serif" font-size="10.00">kernel</text>
</a>
</g>
</g>
<!-- dir_6f16cad81de2453a6f48c5e272ba4a18 -->
<g id="node2" class="node">
<title>dir_6f16cad81de2453a6f48c5e272ba4a18</title>
<g id="a_node2"><a xlink:href="dir_6f16cad81de2453a6f48c5e272ba4a18.html" target="_top" xlink:title="dev9">
<polygon fill="#60a2e3" stroke="red" points="294,-52 240,-52 240,-16 294,-16 294,-52"/>
<text text-anchor="middle" x="267" y="-31.5" font-family="Helvetica,sans-Serif" font-size="10.00">dev9</text>
</a>
</g>
</g>
<!-- dir_a16ad4cba4b1f15056f2b7b0b5931815 -->
<g id="node3" class="node">
<title>dir_a16ad4cba4b1f15056f2b7b0b5931815</title>
<text text-anchor="middle" x="483" y="-103.5" font-family="Helvetica,sans-Serif" font-size="10.00">dvrp</text>
</g>
<!-- dir_8d816be76444126f1148a76612486d4b -->
<g id="node4" class="node">
<title>dir_8d816be76444126f1148a76612486d4b</title>
<g id="a_node4"><a xlink:href="dir_8d816be76444126f1148a76612486d4b.html" target="_top" xlink:title="dvr">
<polygon fill="#60a2e3" stroke="#404040" points="294,-124 240,-124 240,-88 294,-88 294,-124"/>
<text text-anchor="middle" x="267" y="-103.5" font-family="Helvetica,sans-Serif" font-size="10.00">dvr</text>
</a>
</g>
</g>
<!-- dir_8d816be76444126f1148a76612486d4b&#45;&gt;dir_9be0baa3d4a3e9f480a9ee70594037fa -->
<g id="edge1" class="edge">
<title>dir_8d816be76444126f1148a76612486d4b&#45;&gt;dir_9be0baa3d4a3e9f480a9ee70594037fa</title>
<path fill="none" stroke="black" d="M249.2,-87.7C240.4,-79.14 229.62,-68.66 220,-59.3"/>
<polygon fill="black" stroke="black" points="222.2,-56.57 212.59,-52.1 217.32,-61.58 222.2,-56.57"/>
<g id="a_edge1&#45;headlabel"><a xlink:href="dir_000031_000158.html" target="_top" xlink:title="11">
<text text-anchor="middle" x="226.76" y="-54.54" font-family="Helvetica,sans-Serif" font-size="10.00">11</text>
</a>
</g>
</g>
<!-- dir_8d816be76444126f1148a76612486d4b&#45;&gt;dir_6f16cad81de2453a6f48c5e272ba4a18 -->
<g id="edge2" class="edge">
<title>dir_8d816be76444126f1148a76612486d4b&#45;&gt;dir_6f16cad81de2453a6f48c5e272ba4a18</title>
<path fill="none" stroke="black" d="M267,-87.7C267,-79.98 267,-70.71 267,-62.11"/>
<polygon fill="black" stroke="black" points="270.5,-62.1 267,-52.1 263.5,-62.1 270.5,-62.1"/>
<g id="a_edge2&#45;headlabel"><a xlink:href="dir_000031_000026.html" target="_top" xlink:title="2">
<text text-anchor="middle" x="273.34" y="-63.2" font-family="Helvetica,sans-Serif" font-size="10.00">2</text>
</a>
</g>
</g>
<!-- dir_bdd9a5d540de89e9fe90efdfc6973a4f -->
<g id="node10" class="node">
<title>dir_bdd9a5d540de89e9fe90efdfc6973a4f</title>
<g id="a_node10"><a xlink:href="dir_bdd9a5d540de89e9fe90efdfc6973a4f.html" target="_top" xlink:title="common">
<polygon fill="none" stroke="red" points="588,-52 534,-52 534,-16 588,-16 588,-52"/>
<text text-anchor="middle" x="561" y="-31.5" font-family="Helvetica,sans-Serif" font-size="10.00">common</text>
</a>
</g>
</g>
<!-- dir_8d816be76444126f1148a76612486d4b&#45;&gt;dir_bdd9a5d540de89e9fe90efdfc6973a4f -->
<g id="edge3" class="edge">
<title>dir_8d816be76444126f1148a76612486d4b&#45;&gt;dir_bdd9a5d540de89e9fe90efdfc6973a4f</title>
<path fill="none" stroke="black" d="M288.13,-87.85C292.8,-84.79 297.88,-81.95 303,-80 394.81,-44.93 430.85,-80.68 524.06,-53.62"/>
<polygon fill="black" stroke="black" points="525.34,-56.89 533.87,-50.61 523.28,-50.2 525.34,-56.89"/>
<g id="a_edge3&#45;headlabel"><a xlink:href="dir_000031_000022.html" target="_top" xlink:title="2">
<text text-anchor="middle" x="522.74" y="-58.16" font-family="Helvetica,sans-Serif" font-size="10.00">2</text>
</a>
</g>
</g>
<!-- dir_f7741f78ef7687a58b2e9b3b36050a7e -->
<g id="node5" class="node">
<title>dir_f7741f78ef7687a58b2e9b3b36050a7e</title>
<g id="a_node5"><a xlink:href="dir_f7741f78ef7687a58b2e9b3b36050a7e.html" target="_top" xlink:title="dvrav">
<polygon fill="#60a2e3" stroke="#404040" points="222,-124 168,-124 168,-88 222,-88 222,-124"/>
<text text-anchor="middle" x="195" y="-103.5" font-family="Helvetica,sans-Serif" font-size="10.00">dvrav</text>
</a>
</g>
</g>
<!-- dir_f7741f78ef7687a58b2e9b3b36050a7e&#45;&gt;dir_9be0baa3d4a3e9f480a9ee70594037fa -->
<g id="edge4" class="edge">
<title>dir_f7741f78ef7687a58b2e9b3b36050a7e&#45;&gt;dir_9be0baa3d4a3e9f480a9ee70594037fa</title>
<path fill="none" stroke="black" d="M195,-87.7C195,-79.98 195,-70.71 195,-62.11"/>
<polygon fill="black" stroke="black" points="198.5,-62.1 195,-52.1 191.5,-62.1 198.5,-62.1"/>
<g id="a_edge4&#45;headlabel"><a xlink:href="dir_000032_000158.html" target="_top" xlink:title="10">
<text text-anchor="middle" x="201.34" y="-63.2" font-family="Helvetica,sans-Serif" font-size="10.00">10</text>
</a>
</g>
</g>
<!-- dir_f7741f78ef7687a58b2e9b3b36050a7e&#45;&gt;dir_6f16cad81de2453a6f48c5e272ba4a18 -->
<g id="edge5" class="edge">
<title>dir_f7741f78ef7687a58b2e9b3b36050a7e&#45;&gt;dir_6f16cad81de2453a6f48c5e272ba4a18</title>
<path fill="none" stroke="black" d="M212.8,-87.7C221.6,-79.14 232.38,-68.66 242,-59.3"/>
<polygon fill="black" stroke="black" points="244.68,-61.58 249.41,-52.1 239.8,-56.57 244.68,-61.58"/>
<g id="a_edge5&#45;headlabel"><a xlink:href="dir_000032_000026.html" target="_top" xlink:title="2">
<text text-anchor="middle" x="244.08" y="-63.63" font-family="Helvetica,sans-Serif" font-size="10.00">2</text>
</a>
</g>
</g>
<!-- dir_f7741f78ef7687a58b2e9b3b36050a7e&#45;&gt;dir_bdd9a5d540de89e9fe90efdfc6973a4f -->
<g id="edge6" class="edge">
<title>dir_f7741f78ef7687a58b2e9b3b36050a7e&#45;&gt;dir_bdd9a5d540de89e9fe90efdfc6973a4f</title>
<path fill="none" stroke="black" d="M215.7,-87.99C220.47,-84.84 225.71,-81.93 231,-80 353.19,-35.37 400,-88.3 524.03,-53.55"/>
<polygon fill="black" stroke="black" points="525.28,-56.83 533.88,-50.65 523.3,-50.12 525.28,-56.83"/>
<g id="a_edge6&#45;headlabel"><a xlink:href="dir_000032_000022.html" target="_top" xlink:title="2">
<text text-anchor="middle" x="522.63" y="-58.07" font-family="Helvetica,sans-Serif" font-size="10.00">2</text>
</a>
</g>
</g>
<!-- dir_afbf9061e6cd2939a0cc5b3ca7d5328d -->
<g id="node6" class="node">
<title>dir_afbf9061e6cd2939a0cc5b3ca7d5328d</title>
<g id="a_node6"><a xlink:href="dir_afbf9061e6cd2939a0cc5b3ca7d5328d.html" target="_top" xlink:title="dvrdv">
<polygon fill="#60a2e3" stroke="#404040" points="150,-124 96,-124 96,-88 150,-88 150,-124"/>
<text text-anchor="middle" x="123" y="-103.5" font-family="Helvetica,sans-Serif" font-size="10.00">dvrdv</text>
</a>
</g>
</g>
<!-- dir_afbf9061e6cd2939a0cc5b3ca7d5328d&#45;&gt;dir_9be0baa3d4a3e9f480a9ee70594037fa -->
<g id="edge7" class="edge">
<title>dir_afbf9061e6cd2939a0cc5b3ca7d5328d&#45;&gt;dir_9be0baa3d4a3e9f480a9ee70594037fa</title>
<path fill="none" stroke="black" d="M140.8,-87.7C149.6,-79.14 160.38,-68.66 170,-59.3"/>
<polygon fill="black" stroke="black" points="172.68,-61.58 177.41,-52.1 167.8,-56.57 172.68,-61.58"/>
<g id="a_edge7&#45;headlabel"><a xlink:href="dir_000033_000158.html" target="_top" xlink:title="9">
<text text-anchor="middle" x="172.08" y="-63.63" font-family="Helvetica,sans-Serif" font-size="10.00">9</text>
</a>
</g>
</g>
<!-- dir_afbf9061e6cd2939a0cc5b3ca7d5328d&#45;&gt;dir_6f16cad81de2453a6f48c5e272ba4a18 -->
<g id="edge8" class="edge">
<title>dir_afbf9061e6cd2939a0cc5b3ca7d5328d&#45;&gt;dir_6f16cad81de2453a6f48c5e272ba4a18</title>
<path fill="none" stroke="black" d="M146.12,-87.77C150.3,-84.99 154.7,-82.29 159,-80 186.83,-65.2 197.66,-65.4 230.58,-51.97"/>
<polygon fill="black" stroke="black" points="232.11,-55.12 239.97,-48.02 229.39,-48.67 232.11,-55.12"/>
<g id="a_edge8&#45;headlabel"><a xlink:href="dir_000033_000026.html" target="_top" xlink:title="2">
<text text-anchor="middle" x="229.9" y="-56.63" font-family="Helvetica,sans-Serif" font-size="10.00">2</text>
</a>
</g>
</g>
<!-- dir_afbf9061e6cd2939a0cc5b3ca7d5328d&#45;&gt;dir_bdd9a5d540de89e9fe90efdfc6973a4f -->
<g id="edge9" class="edge">
<title>dir_afbf9061e6cd2939a0cc5b3ca7d5328d&#45;&gt;dir_bdd9a5d540de89e9fe90efdfc6973a4f</title>
<path fill="none" stroke="black" d="M143.67,-87.92C148.45,-84.77 153.69,-81.88 159,-80 311.63,-25.81 369.11,-96.05 524.03,-53.5"/>
<polygon fill="black" stroke="black" points="525.24,-56.8 533.89,-50.68 523.32,-50.07 525.24,-56.8"/>
<g id="a_edge9&#45;headlabel"><a xlink:href="dir_000033_000022.html" target="_top" xlink:title="2">
<text text-anchor="middle" x="522.57" y="-58.02" font-family="Helvetica,sans-Serif" font-size="10.00">2</text>
</a>
</g>
</g>
<!-- dir_90fe12cfe0c184e93ce162881a1343e2 -->
<g id="node7" class="node">
<title>dir_90fe12cfe0c184e93ce162881a1343e2</title>
<g id="a_node7"><a xlink:href="dir_90fe12cfe0c184e93ce162881a1343e2.html" target="_top" xlink:title="dvrfile">
<polygon fill="#60a2e3" stroke="#404040" points="78,-124 24,-124 24,-88 78,-88 78,-124"/>
<text text-anchor="middle" x="51" y="-103.5" font-family="Helvetica,sans-Serif" font-size="10.00">dvrfile</text>
</a>
</g>
</g>
<!-- dir_90fe12cfe0c184e93ce162881a1343e2&#45;&gt;dir_9be0baa3d4a3e9f480a9ee70594037fa -->
<g id="edge10" class="edge">
<title>dir_90fe12cfe0c184e93ce162881a1343e2&#45;&gt;dir_9be0baa3d4a3e9f480a9ee70594037fa</title>
<path fill="none" stroke="black" d="M74.17,-87.85C78.34,-85.07 82.73,-82.34 87,-80 109.76,-67.54 136.71,-56.31 157.99,-48.18"/>
<polygon fill="black" stroke="black" points="159.5,-51.35 167.63,-44.56 157.04,-44.8 159.5,-51.35"/>
<g id="a_edge10&#45;headlabel"><a xlink:href="dir_000034_000158.html" target="_top" xlink:title="11">
<text text-anchor="middle" x="157.13" y="-52.77" font-family="Helvetica,sans-Serif" font-size="10.00">11</text>
</a>
</g>
</g>
<!-- dir_90fe12cfe0c184e93ce162881a1343e2&#45;&gt;dir_6f16cad81de2453a6f48c5e272ba4a18 -->
<g id="edge11" class="edge">
<title>dir_90fe12cfe0c184e93ce162881a1343e2&#45;&gt;dir_6f16cad81de2453a6f48c5e272ba4a18</title>
<path fill="none" stroke="black" d="M72.63,-87.87C77.18,-84.88 82.09,-82.07 87,-80 144.25,-55.83 166.9,-70.74 230.14,-51.77"/>
<polygon fill="black" stroke="black" points="231.3,-55.08 239.77,-48.72 229.18,-48.4 231.3,-55.08"/>
<g id="a_edge11&#45;headlabel"><a xlink:href="dir_000034_000026.html" target="_top" xlink:title="2">
<text text-anchor="middle" x="228.73" y="-56.37" font-family="Helvetica,sans-Serif" font-size="10.00">2</text>
</a>
</g>
</g>
<!-- dir_90fe12cfe0c184e93ce162881a1343e2&#45;&gt;dir_bdd9a5d540de89e9fe90efdfc6973a4f -->
<g id="edge12" class="edge">
<title>dir_90fe12cfe0c184e93ce162881a1343e2&#45;&gt;dir_bdd9a5d540de89e9fe90efdfc6973a4f</title>
<path fill="none" stroke="black" d="M71.65,-87.87C76.43,-84.72 81.68,-81.85 87,-80 270.13,-16.24 338.2,-103.87 524.09,-53.46"/>
<polygon fill="black" stroke="black" points="525.22,-56.78 533.9,-50.7 523.32,-50.04 525.22,-56.78"/>
<g id="a_edge12&#45;headlabel"><a xlink:href="dir_000034_000022.html" target="_top" xlink:title="2">
<text text-anchor="middle" x="522.53" y="-57.98" font-family="Helvetica,sans-Serif" font-size="10.00">2</text>
</a>
</g>
</g>
<!-- dir_55b81c7b0811889843fb7d99073d4918 -->
<g id="node8" class="node">
<title>dir_55b81c7b0811889843fb7d99073d4918</title>
<g id="a_node8"><a xlink:href="dir_55b81c7b0811889843fb7d99073d4918.html" target="_top" xlink:title="dvripl">
<polygon fill="#60a2e3" stroke="#404040" points="438,-124 384,-124 384,-88 438,-88 438,-124"/>
<text text-anchor="middle" x="411" y="-103.5" font-family="Helvetica,sans-Serif" font-size="10.00">dvripl</text>
</a>
</g>
</g>
<!-- dir_55b81c7b0811889843fb7d99073d4918&#45;&gt;dir_9be0baa3d4a3e9f480a9ee70594037fa -->
<g id="edge13" class="edge">
<title>dir_55b81c7b0811889843fb7d99073d4918&#45;&gt;dir_9be0baa3d4a3e9f480a9ee70594037fa</title>
<path fill="none" stroke="black" d="M389.37,-87.87C384.82,-84.88 379.91,-82.07 375,-80 317.75,-55.83 295.1,-70.74 231.86,-51.77"/>
<polygon fill="black" stroke="black" points="232.82,-48.4 222.23,-48.72 230.7,-55.08 232.82,-48.4"/>
<g id="a_edge13&#45;headlabel"><a xlink:href="dir_000035_000158.html" target="_top" xlink:title="13">
<text text-anchor="middle" x="237.1" y="-44.28" font-family="Helvetica,sans-Serif" font-size="10.00">13</text>
</a>
</g>
</g>
<!-- dir_55b81c7b0811889843fb7d99073d4918&#45;&gt;dir_6f16cad81de2453a6f48c5e272ba4a18 -->
<g id="edge14" class="edge">
<title>dir_55b81c7b0811889843fb7d99073d4918&#45;&gt;dir_6f16cad81de2453a6f48c5e272ba4a18</title>
<path fill="none" stroke="black" d="M387.83,-87.85C383.66,-85.07 379.27,-82.34 375,-80 352.24,-67.54 325.29,-56.31 304.01,-48.18"/>
<polygon fill="black" stroke="black" points="304.96,-44.8 294.37,-44.56 302.5,-51.35 304.96,-44.8"/>
<g id="a_edge14&#45;headlabel"><a xlink:href="dir_000035_000026.html" target="_top" xlink:title="2">
<text text-anchor="middle" x="309.32" y="-40.9" font-family="Helvetica,sans-Serif" font-size="10.00">2</text>
</a>
</g>
</g>
<!-- dir_55b81c7b0811889843fb7d99073d4918&#45;&gt;dir_bdd9a5d540de89e9fe90efdfc6973a4f -->
<g id="edge15" class="edge">
<title>dir_55b81c7b0811889843fb7d99073d4918&#45;&gt;dir_bdd9a5d540de89e9fe90efdfc6973a4f</title>
<path fill="none" stroke="black" d="M433.64,-87.86C437.95,-85.01 442.51,-82.26 447,-80 478.79,-64.01 492.02,-66.93 524.15,-54.29"/>
<polygon fill="black" stroke="black" points="525.87,-57.37 533.75,-50.28 523.17,-50.91 525.87,-57.37"/>
<g id="a_edge15&#45;headlabel"><a xlink:href="dir_000035_000022.html" target="_top" xlink:title="2">
<text text-anchor="middle" x="523.64" y="-58.87" font-family="Helvetica,sans-Serif" font-size="10.00">2</text>
</a>
</g>
</g>
<!-- dir_14f5f0f9fe610eb1d19d953c1b59d5ca -->
<g id="node9" class="node">
<title>dir_14f5f0f9fe610eb1d19d953c1b59d5ca</title>
<g id="a_node9"><a xlink:href="dir_14f5f0f9fe610eb1d19d953c1b59d5ca.html" target="_top" xlink:title="dvrmisc">
<polygon fill="#60a2e3" stroke="#404040" points="366,-124 312,-124 312,-88 366,-88 366,-124"/>
<text text-anchor="middle" x="339" y="-103.5" font-family="Helvetica,sans-Serif" font-size="10.00">dvrmisc</text>
</a>
</g>
</g>
<!-- dir_14f5f0f9fe610eb1d19d953c1b59d5ca&#45;&gt;dir_9be0baa3d4a3e9f480a9ee70594037fa -->
<g id="edge16" class="edge">
<title>dir_14f5f0f9fe610eb1d19d953c1b59d5ca&#45;&gt;dir_9be0baa3d4a3e9f480a9ee70594037fa</title>
<path fill="none" stroke="black" d="M315.88,-87.77C311.7,-84.99 307.3,-82.29 303,-80 275.17,-65.2 264.34,-65.4 231.42,-51.97"/>
<polygon fill="black" stroke="black" points="232.61,-48.67 222.03,-48.02 229.89,-55.12 232.61,-48.67"/>
<g id="a_edge16&#45;headlabel"><a xlink:href="dir_000036_000158.html" target="_top" xlink:title="11">
<text text-anchor="middle" x="237.02" y="-44.95" font-family="Helvetica,sans-Serif" font-size="10.00">11</text>
</a>
</g>
</g>
<!-- dir_14f5f0f9fe610eb1d19d953c1b59d5ca&#45;&gt;dir_6f16cad81de2453a6f48c5e272ba4a18 -->
<g id="edge17" class="edge">
<title>dir_14f5f0f9fe610eb1d19d953c1b59d5ca&#45;&gt;dir_6f16cad81de2453a6f48c5e272ba4a18</title>
<path fill="none" stroke="black" d="M321.2,-87.7C312.4,-79.14 301.62,-68.66 292,-59.3"/>
<polygon fill="black" stroke="black" points="294.2,-56.57 284.59,-52.1 289.32,-61.58 294.2,-56.57"/>
<g id="a_edge17&#45;headlabel"><a xlink:href="dir_000036_000026.html" target="_top" xlink:title="2">
<text text-anchor="middle" x="298.76" y="-54.54" font-family="Helvetica,sans-Serif" font-size="10.00">2</text>
</a>
</g>
</g>
<!-- dir_14f5f0f9fe610eb1d19d953c1b59d5ca&#45;&gt;dir_bdd9a5d540de89e9fe90efdfc6973a4f -->
<g id="edge18" class="edge">
<title>dir_14f5f0f9fe610eb1d19d953c1b59d5ca&#45;&gt;dir_bdd9a5d540de89e9fe90efdfc6973a4f</title>
<path fill="none" stroke="black" d="M360.6,-87.81C365.16,-84.83 370.08,-82.04 375,-80 436.64,-54.46 461.64,-73.39 524.31,-53.71"/>
<polygon fill="black" stroke="black" points="525.47,-57.01 533.84,-50.52 523.24,-50.37 525.47,-57.01"/>
<g id="a_edge18&#45;headlabel"><a xlink:href="dir_000036_000022.html" target="_top" xlink:title="2">
<text text-anchor="middle" x="522.96" y="-58.35" font-family="Helvetica,sans-Serif" font-size="10.00">2</text>
</a>
</g>
</g>
</g>
</svg>
