<?xml version="1.0" encoding="UTF-8" standalone="no"?>
<!DOCTYPE svg PUBLIC "-//W3C//DTD SVG 1.1//EN"
 "http://www.w3.org/Graphics/SVG/1.1/DTD/svg11.dtd">
<!-- Generated by graphviz version 3.0.0 (20220413.0242)
 -->
<!-- Title: iop/system/sysclib/src/embeddedartistry_libc Pages: 1 -->
<svg width="239pt" height="159pt"
 viewBox="0.00 0.00 239.00 159.00" xmlns="http://www.w3.org/2000/svg" xmlns:xlink="http://www.w3.org/1999/xlink">
<g id="graph0" class="graph" transform="scale(1 1) rotate(0) translate(4 155)">
<title>iop/system/sysclib/src/embeddedartistry_libc</title>
<polygon fill="white" stroke="transparent" points="-4,4 -4,-155 235,-155 235,4 -4,4"/>
<g id="clust1" class="cluster">
<title>clusterdir_6b3a3a5d267f0fea31b7a7f9b7d2beaf</title>
<g id="a_clust1"><a xlink:href="dir_6b3a3a5d267f0fea31b7a7f9b7d2beaf.html" target="_top" xlink:title="src">
<polygon fill="#deebf9" stroke="#7f7f7f" stroke-dasharray="5,2" points="8,-56 8,-143 223,-143 223,-56 8,-56"/>
<text text-anchor="middle" x="115.5" y="-131" font-family="Helvetica,sans-Serif" font-size="10.00">src</text>
</a>
</g>
</g>
<g id="clust2" class="cluster">
<title>clusterdir_76f6712385aad5f71054d252dc76d79e</title>
<g id="a_clust2"><a xlink:href="dir_76f6712385aad5f71054d252dc76d79e.html" target="_top">
<polygon fill="#deebf9" stroke="#404040" stroke-width="2" points="16,-64 16,-116 215,-116 215,-64 16,-64"/>
</a>
</g>
</g>
<!-- dir_76f6712385aad5f71054d252dc76d79e -->
<g id="node1" class="node">
<title>dir_76f6712385aad5f71054d252dc76d79e</title>
<text text-anchor="middle" x="152" y="-87.5" font-family="Helvetica,sans-Serif" font-size="10.00">embeddedartistry_libc</text>
</g>
<!-- dir_91f668bae3b63b2f0c696a752c6e3e8b -->
<g id="node2" class="node">
<title>dir_91f668bae3b63b2f0c696a752c6e3e8b</title>
<g id="a_node2"><a xlink:href="dir_91f668bae3b63b2f0c696a752c6e3e8b.html" target="_top" xlink:title="stdlib">
<polygon fill="#60a2e3" stroke="#404040" points="78,-108 24,-108 24,-72 78,-72 78,-108"/>
<text text-anchor="middle" x="51" y="-87.5" font-family="Helvetica,sans-Serif" font-size="10.00">stdlib</text>
</a>
</g>
</g>
<!-- dir_9be0baa3d4a3e9f480a9ee70594037fa -->
<g id="node3" class="node">
<title>dir_9be0baa3d4a3e9f480a9ee70594037fa</title>
<g id="a_node3"><a xlink:href="dir_9be0baa3d4a3e9f480a9ee70594037fa.html" target="_top" xlink:title="kernel">
<polygon fill="none" stroke="red" stroke-dasharray="5,2" points="78,-36 24,-36 24,0 78,0 78,-36"/>
<text text-anchor="middle" x="51" y="-15.5" font-family="Helvetica,sans-Serif" font-size="10.00">kernel</text>
</a>
</g>
</g>
<!-- dir_91f668bae3b63b2f0c696a752c6e3e8b&#45;&gt;dir_9be0baa3d4a3e9f480a9ee70594037fa -->
<g id="edge1" class="edge">
<title>dir_91f668bae3b63b2f0c696a752c6e3e8b&#45;&gt;dir_9be0baa3d4a3e9f480a9ee70594037fa</title>
<path fill="none" stroke="black" d="M51,-71.7C51,-63.98 51,-54.71 51,-46.11"/>
<polygon fill="black" stroke="black" points="54.5,-46.1 51,-36.1 47.5,-46.1 54.5,-46.1"/>
<g id="a_edge1&#45;headlabel"><a xlink:href="dir_000335_000158.html" target="_top" xlink:title="8">
<text text-anchor="middle" x="57.34" y="-47.2" font-family="Helvetica,sans-Serif" font-size="10.00">8</text>
</a>
</g>
</g>
</g>
</svg>
