<?xml version="1.0" encoding="UTF-8" standalone="no"?>
<!DOCTYPE svg PUBLIC "-//W3C//DTD SVG 1.1//EN"
 "http://www.w3.org/Graphics/SVG/1.1/DTD/svg11.dtd">
<!-- Generated by graphviz version 3.0.0 (20220413.0242)
 -->
<!-- Title: ee/graph Pages: 1 -->
<svg width="444pt" height="183pt"
 viewBox="0.00 0.00 444.00 183.00" xmlns="http://www.w3.org/2000/svg" xmlns:xlink="http://www.w3.org/1999/xlink">
<g id="graph0" class="graph" transform="scale(1 1) rotate(0) translate(4 179)">
<title>ee/graph</title>
<polygon fill="white" stroke="transparent" points="-4,4 -4,-179 440,-179 440,4 -4,4"/>
<g id="clust1" class="cluster">
<title>clusterdir_049738f1909e8dc3e45fe1f6b3faa109</title>
<g id="a_clust1"><a xlink:href="dir_049738f1909e8dc3e45fe1f6b3faa109.html" target="_top" xlink:title="ee">
<polygon fill="#deebf9" stroke="#404040" stroke-dasharray="5,2" points="8,-8 8,-167 300,-167 300,-8 8,-8"/>
<text text-anchor="middle" x="154" y="-155" font-family="Helvetica,sans-Serif" font-size="10.00">ee</text>
</a>
</g>
</g>
<g id="clust2" class="cluster">
<title>clusterdir_933591e1cd95ed33f946db8a4302cbd1</title>
<g id="a_clust2"><a xlink:href="dir_933591e1cd95ed33f946db8a4302cbd1.html" target="_top">
<polygon fill="#deebf9" stroke="#404040" stroke-width="2" points="16,-16 16,-140 158,-140 158,-16 16,-16"/>
</a>
</g>
</g>
<!-- dir_a0a8ac7efb6662b749c1285408048e6d -->
<g id="node1" class="node">
<title>dir_a0a8ac7efb6662b749c1285408048e6d</title>
<g id="a_node1"><a xlink:href="dir_a0a8ac7efb6662b749c1285408048e6d.html" target="_top" xlink:title="erl">
<polygon fill="#60a2e3" stroke="red" points="220,-60 166,-60 166,-24 220,-24 220,-60"/>
<text text-anchor="middle" x="193" y="-39.5" font-family="Helvetica,sans-Serif" font-size="10.00">erl</text>
</a>
</g>
</g>
<!-- dir_694ec83a64f58cbdefbefce65cd1011c -->
<g id="node2" class="node">
<title>dir_694ec83a64f58cbdefbefce65cd1011c</title>
<g id="a_node2"><a xlink:href="dir_694ec83a64f58cbdefbefce65cd1011c.html" target="_top" xlink:title="kernel">
<polygon fill="#60a2e3" stroke="red" points="292,-60 238,-60 238,-24 292,-24 292,-60"/>
<text text-anchor="middle" x="265" y="-39.5" font-family="Helvetica,sans-Serif" font-size="10.00">kernel</text>
</a>
</g>
</g>
<!-- dir_933591e1cd95ed33f946db8a4302cbd1 -->
<g id="node3" class="node">
<title>dir_933591e1cd95ed33f946db8a4302cbd1</title>
<text text-anchor="middle" x="123" y="-111.5" font-family="Helvetica,sans-Serif" font-size="10.00">graph</text>
</g>
<!-- dir_587f58ae6bff4b1360d4911800bd5f72 -->
<g id="node4" class="node">
<title>dir_587f58ae6bff4b1360d4911800bd5f72</title>
<g id="a_node4"><a xlink:href="dir_587f58ae6bff4b1360d4911800bd5f72.html" target="_top" xlink:title="include">
<polygon fill="#60a2e3" stroke="#404040" points="78,-60 24,-60 24,-24 78,-24 78,-60"/>
<text text-anchor="middle" x="51" y="-39.5" font-family="Helvetica,sans-Serif" font-size="10.00">include</text>
</a>
</g>
</g>
<!-- dir_1a15d16f9d67565cc9b389bcd85d26fc -->
<g id="node5" class="node">
<title>dir_1a15d16f9d67565cc9b389bcd85d26fc</title>
<g id="a_node5"><a xlink:href="dir_1a15d16f9d67565cc9b389bcd85d26fc.html" target="_top" xlink:title="src">
<polygon fill="#60a2e3" stroke="#404040" points="78,-132 24,-132 24,-96 78,-96 78,-132"/>
<text text-anchor="middle" x="51" y="-111.5" font-family="Helvetica,sans-Serif" font-size="10.00">src</text>
</a>
</g>
</g>
<!-- dir_1a15d16f9d67565cc9b389bcd85d26fc&#45;&gt;dir_a0a8ac7efb6662b749c1285408048e6d -->
<g id="edge4" class="edge">
<title>dir_1a15d16f9d67565cc9b389bcd85d26fc&#45;&gt;dir_a0a8ac7efb6662b749c1285408048e6d</title>
<path fill="none" stroke="black" d="M78.23,-100.1C103.13,-88.28 138.45,-71.49 156.82,-62.49"/>
<polygon fill="black" stroke="black" points="158.61,-65.52 166,-57.92 155.48,-59.25 158.61,-65.52"/>
<g id="a_edge4&#45;headlabel"><a xlink:href="dir_000230_000042.html" target="_top" xlink:title="1">
<text text-anchor="middle" x="156.65" y="-67.16" font-family="Helvetica,sans-Serif" font-size="10.00">1</text>
</a>
</g>
</g>
<!-- dir_1a15d16f9d67565cc9b389bcd85d26fc&#45;&gt;dir_694ec83a64f58cbdefbefce65cd1011c -->
<g id="edge3" class="edge">
<title>dir_1a15d16f9d67565cc9b389bcd85d26fc&#45;&gt;dir_694ec83a64f58cbdefbefce65cd1011c</title>
<path fill="none" stroke="black" d="M78.29,-99.45C81.2,-98.2 84.14,-97.03 87,-96 145.4,-75.03 165.81,-81.32 228.19,-59.92"/>
<polygon fill="black" stroke="black" points="229.45,-63.18 237.71,-56.55 227.12,-56.58 229.45,-63.18"/>
<g id="a_edge3&#45;headlabel"><a xlink:href="dir_000230_000157.html" target="_top" xlink:title="4">
<text text-anchor="middle" x="227.01" y="-64.56" font-family="Helvetica,sans-Serif" font-size="10.00">4</text>
</a>
</g>
</g>
<!-- dir_1a15d16f9d67565cc9b389bcd85d26fc&#45;&gt;dir_587f58ae6bff4b1360d4911800bd5f72 -->
<g id="edge2" class="edge">
<title>dir_1a15d16f9d67565cc9b389bcd85d26fc&#45;&gt;dir_587f58ae6bff4b1360d4911800bd5f72</title>
<path fill="none" stroke="black" d="M51,-95.7C51,-87.98 51,-78.71 51,-70.11"/>
<polygon fill="black" stroke="black" points="54.5,-70.1 51,-60.1 47.5,-70.1 54.5,-70.1"/>
<g id="a_edge2&#45;headlabel"><a xlink:href="dir_000230_000071.html" target="_top" xlink:title="6">
<text text-anchor="middle" x="57.34" y="-71.2" font-family="Helvetica,sans-Serif" font-size="10.00">6</text>
</a>
</g>
</g>
<!-- dir_bdd9a5d540de89e9fe90efdfc6973a4f -->
<g id="node6" class="node">
<title>dir_bdd9a5d540de89e9fe90efdfc6973a4f</title>
<g id="a_node6"><a xlink:href="dir_bdd9a5d540de89e9fe90efdfc6973a4f.html" target="_top" xlink:title="common">
<polygon fill="none" stroke="red" points="364,-60 310,-60 310,-24 364,-24 364,-60"/>
<text text-anchor="middle" x="337" y="-39.5" font-family="Helvetica,sans-Serif" font-size="10.00">common</text>
</a>
</g>
</g>
<!-- dir_1a15d16f9d67565cc9b389bcd85d26fc&#45;&gt;dir_bdd9a5d540de89e9fe90efdfc6973a4f -->
<g id="edge5" class="edge">
<title>dir_1a15d16f9d67565cc9b389bcd85d26fc&#45;&gt;dir_bdd9a5d540de89e9fe90efdfc6973a4f</title>
<path fill="none" stroke="black" d="M78.2,-99.2C81.13,-98 84.1,-96.91 87,-96 177.22,-67.82 209.08,-89.23 300.3,-60.88"/>
<polygon fill="black" stroke="black" points="301.47,-64.18 309.91,-57.78 299.32,-57.52 301.47,-64.18"/>
<g id="a_edge5&#45;headlabel"><a xlink:href="dir_000230_000022.html" target="_top" xlink:title="4">
<text text-anchor="middle" x="298.92" y="-65.49" font-family="Helvetica,sans-Serif" font-size="10.00">4</text>
</a>
</g>
</g>
<!-- dir_0981ace215aa2029f526b70c145b9fbe -->
<g id="node7" class="node">
<title>dir_0981ace215aa2029f526b70c145b9fbe</title>
<g id="a_node7"><a xlink:href="dir_0981ace215aa2029f526b70c145b9fbe.html" target="_top" xlink:title="iop">
<polygon fill="none" stroke="red" points="436,-60 382,-60 382,-24 436,-24 436,-60"/>
<text text-anchor="middle" x="409" y="-39.5" font-family="Helvetica,sans-Serif" font-size="10.00">iop</text>
</a>
</g>
</g>
<!-- dir_1a15d16f9d67565cc9b389bcd85d26fc&#45;&gt;dir_0981ace215aa2029f526b70c145b9fbe -->
<g id="edge1" class="edge">
<title>dir_1a15d16f9d67565cc9b389bcd85d26fc&#45;&gt;dir_0981ace215aa2029f526b70c145b9fbe</title>
<path fill="none" stroke="black" d="M78.17,-99.08C81.1,-97.91 84.08,-96.85 87,-96 206.89,-61.11 247.91,-94.04 371.96,-59.74"/>
<polygon fill="black" stroke="black" points="373.18,-63.03 381.83,-56.92 371.26,-56.3 373.18,-63.03"/>
<g id="a_edge1&#45;headlabel"><a xlink:href="dir_000230_000151.html" target="_top" xlink:title="1">
<text text-anchor="middle" x="370.5" y="-64.25" font-family="Helvetica,sans-Serif" font-size="10.00">1</text>
</a>
</g>
</g>
</g>
</svg>
