<?xml version="1.0" encoding="UTF-8" standalone="no"?>
<!DOCTYPE svg PUBLIC "-//W3C//DTD SVG 1.1//EN"
 "http://www.w3.org/Graphics/SVG/1.1/DTD/svg11.dtd">
<!-- Generated by graphviz version 3.0.0 (20220413.0242)
 -->
<!-- Title: iop/usb/usbhdfsd Pages: 1 -->
<svg width="251pt" height="231pt"
 viewBox="0.00 0.00 250.86 231.00" xmlns="http://www.w3.org/2000/svg" xmlns:xlink="http://www.w3.org/1999/xlink">
<g id="graph0" class="graph" transform="scale(1 1) rotate(0) translate(4 227)">
<title>iop/usb/usbhdfsd</title>
<polygon fill="white" stroke="transparent" points="-4,4 -4,-227 246.86,-227 246.86,4 -4,4"/>
<g id="clust1" class="cluster">
<title>clusterdir_b6c875632944d243a548db157cd77ec2</title>
<g id="a_clust1"><a xlink:href="dir_b6c875632944d243a548db157cd77ec2.html" target="_top" xlink:title="usb">
<polygon fill="#deebf9" stroke="#7f7f7f" stroke-dasharray="5,2" points="8,-56 8,-215 230,-215 230,-56 8,-56"/>
<text text-anchor="middle" x="119" y="-203" font-family="Helvetica,sans-Serif" font-size="10.00">usb</text>
</a>
</g>
</g>
<g id="clust2" class="cluster">
<title>clusterdir_b8874c233d466218401f983297aca89b</title>
<g id="a_clust2"><a xlink:href="dir_b8874c233d466218401f983297aca89b.html" target="_top">
<polygon fill="#deebf9" stroke="#404040" stroke-width="2" points="16,-64 16,-188 160,-188 160,-64 16,-64"/>
</a>
</g>
</g>
<!-- dir_8f550b51c304fe10978bfd792866fae2 -->
<g id="node1" class="node">
<title>dir_8f550b51c304fe10978bfd792866fae2</title>
<g id="a_node1"><a xlink:href="dir_8f550b51c304fe10978bfd792866fae2.html" target="_top" xlink:title="usbd">
<polygon fill="#60a2e3" stroke="red" points="222,-108 168,-108 168,-72 222,-72 222,-108"/>
<text text-anchor="middle" x="195" y="-87.5" font-family="Helvetica,sans-Serif" font-size="10.00">usbd</text>
</a>
</g>
</g>
<!-- dir_b8874c233d466218401f983297aca89b -->
<g id="node2" class="node">
<title>dir_b8874c233d466218401f983297aca89b</title>
<text text-anchor="middle" x="124" y="-159.5" font-family="Helvetica,sans-Serif" font-size="10.00">usbhdfsd</text>
</g>
<!-- dir_535a26643990b2aae7c4085335cb5fe3 -->
<g id="node3" class="node">
<title>dir_535a26643990b2aae7c4085335cb5fe3</title>
<g id="a_node3"><a xlink:href="dir_535a26643990b2aae7c4085335cb5fe3.html" target="_top" xlink:title="include">
<polygon fill="#60a2e3" stroke="#404040" points="133,-108 79,-108 79,-72 133,-72 133,-108"/>
<text text-anchor="middle" x="106" y="-87.5" font-family="Helvetica,sans-Serif" font-size="10.00">include</text>
</a>
</g>
</g>
<!-- dir_9be0baa3d4a3e9f480a9ee70594037fa -->
<g id="node5" class="node">
<title>dir_9be0baa3d4a3e9f480a9ee70594037fa</title>
<g id="a_node5"><a xlink:href="dir_9be0baa3d4a3e9f480a9ee70594037fa.html" target="_top" xlink:title="kernel">
<polygon fill="none" stroke="red" stroke-dasharray="5,2" points="105,-36 51,-36 51,0 105,0 105,-36"/>
<text text-anchor="middle" x="78" y="-15.5" font-family="Helvetica,sans-Serif" font-size="10.00">kernel</text>
</a>
</g>
</g>
<!-- dir_535a26643990b2aae7c4085335cb5fe3&#45;&gt;dir_9be0baa3d4a3e9f480a9ee70594037fa -->
<g id="edge1" class="edge">
<title>dir_535a26643990b2aae7c4085335cb5fe3&#45;&gt;dir_9be0baa3d4a3e9f480a9ee70594037fa</title>
<path fill="none" stroke="black" d="M99.08,-71.7C95.93,-63.81 92.12,-54.3 88.62,-45.55"/>
<polygon fill="black" stroke="black" points="91.81,-44.09 84.84,-36.1 85.31,-46.69 91.81,-44.09"/>
<g id="a_edge1&#45;headlabel"><a xlink:href="dir_000146_000158.html" target="_top" xlink:title="1">
<text text-anchor="middle" x="95.78" y="-43.87" font-family="Helvetica,sans-Serif" font-size="10.00">1</text>
</a>
</g>
</g>
<!-- dir_bdd9a5d540de89e9fe90efdfc6973a4f -->
<g id="node6" class="node">
<title>dir_bdd9a5d540de89e9fe90efdfc6973a4f</title>
<g id="a_node6"><a xlink:href="dir_bdd9a5d540de89e9fe90efdfc6973a4f.html" target="_top" xlink:title="common">
<polygon fill="none" stroke="red" points="227,-36 173,-36 173,0 227,0 227,-36"/>
<text text-anchor="middle" x="200" y="-15.5" font-family="Helvetica,sans-Serif" font-size="10.00">common</text>
</a>
</g>
</g>
<!-- dir_535a26643990b2aae7c4085335cb5fe3&#45;&gt;dir_bdd9a5d540de89e9fe90efdfc6973a4f -->
<g id="edge2" class="edge">
<title>dir_535a26643990b2aae7c4085335cb5fe3&#45;&gt;dir_bdd9a5d540de89e9fe90efdfc6973a4f</title>
<path fill="none" stroke="black" d="M120.28,-71.96C125.27,-66.53 131.1,-60.71 137,-56 145.25,-49.41 154.8,-43.19 163.93,-37.81"/>
<polygon fill="black" stroke="black" points="165.9,-40.71 172.85,-32.71 162.43,-34.63 165.9,-40.71"/>
<g id="a_edge2&#45;headlabel"><a xlink:href="dir_000146_000022.html" target="_top" xlink:title="1">
<text text-anchor="middle" x="164.19" y="-42.46" font-family="Helvetica,sans-Serif" font-size="10.00">1</text>
</a>
</g>
</g>
<!-- dir_35e4cd4c6b68d708ba33184e89b685ac -->
<g id="node4" class="node">
<title>dir_35e4cd4c6b68d708ba33184e89b685ac</title>
<g id="a_node4"><a xlink:href="dir_35e4cd4c6b68d708ba33184e89b685ac.html" target="_top" xlink:title="src">
<polygon fill="#60a2e3" stroke="#404040" points="78,-180 24,-180 24,-144 78,-144 78,-180"/>
<text text-anchor="middle" x="51" y="-159.5" font-family="Helvetica,sans-Serif" font-size="10.00">src</text>
</a>
</g>
</g>
<!-- dir_35e4cd4c6b68d708ba33184e89b685ac&#45;&gt;dir_8f550b51c304fe10978bfd792866fae2 -->
<g id="edge4" class="edge">
<title>dir_35e4cd4c6b68d708ba33184e89b685ac&#45;&gt;dir_8f550b51c304fe10978bfd792866fae2</title>
<path fill="none" stroke="black" d="M78.12,-148.18C81.12,-146.77 84.12,-145.35 87,-144 118.25,-129.31 128.56,-125.68 158.63,-110.67"/>
<polygon fill="black" stroke="black" points="160.31,-113.74 167.67,-106.11 157.16,-107.49 160.31,-113.74"/>
<g id="a_edge4&#45;headlabel"><a xlink:href="dir_000326_000353.html" target="_top" xlink:title="3">
<text text-anchor="middle" x="158.38" y="-115.39" font-family="Helvetica,sans-Serif" font-size="10.00">3</text>
</a>
</g>
</g>
<!-- dir_35e4cd4c6b68d708ba33184e89b685ac&#45;&gt;dir_535a26643990b2aae7c4085335cb5fe3 -->
<g id="edge3" class="edge">
<title>dir_35e4cd4c6b68d708ba33184e89b685ac&#45;&gt;dir_535a26643990b2aae7c4085335cb5fe3</title>
<path fill="none" stroke="black" d="M64.6,-143.7C71.12,-135.39 79.07,-125.28 86.25,-116.14"/>
<polygon fill="black" stroke="black" points="89.13,-118.13 92.56,-108.1 83.63,-113.81 89.13,-118.13"/>
<g id="a_edge3&#45;headlabel"><a xlink:href="dir_000326_000146.html" target="_top" xlink:title="8">
<text text-anchor="middle" x="89.15" y="-120.21" font-family="Helvetica,sans-Serif" font-size="10.00">8</text>
</a>
</g>
</g>
<!-- dir_35e4cd4c6b68d708ba33184e89b685ac&#45;&gt;dir_9be0baa3d4a3e9f480a9ee70594037fa -->
<g id="edge5" class="edge">
<title>dir_35e4cd4c6b68d708ba33184e89b685ac&#45;&gt;dir_9be0baa3d4a3e9f480a9ee70594037fa</title>
<path fill="none" stroke="black" d="M53.92,-143.87C57.5,-123.06 63.87,-86.89 70,-56 70.62,-52.88 71.29,-49.61 71.97,-46.37"/>
<polygon fill="black" stroke="black" points="75.46,-46.8 74.13,-36.29 68.62,-45.34 75.46,-46.8"/>
<g id="a_edge5&#45;headlabel"><a xlink:href="dir_000326_000158.html" target="_top" xlink:title="39">
<text text-anchor="middle" x="77.48" y="-48.41" font-family="Helvetica,sans-Serif" font-size="10.00">39</text>
</a>
</g>
</g>
<!-- dir_35e4cd4c6b68d708ba33184e89b685ac&#45;&gt;dir_bdd9a5d540de89e9fe90efdfc6973a4f -->
<g id="edge6" class="edge">
<title>dir_35e4cd4c6b68d708ba33184e89b685ac&#45;&gt;dir_bdd9a5d540de89e9fe90efdfc6973a4f</title>
<path fill="none" stroke="black" d="M78.28,-147.42C81.19,-146.19 84.13,-145.02 87,-144 150.4,-121.53 192.48,-160.92 234,-108 248.27,-89.82 242.39,-77.53 234,-56 232.35,-51.77 229.97,-47.73 227.22,-43.98"/>
<polygon fill="black" stroke="black" points="229.86,-41.68 220.75,-36.27 224.49,-46.18 229.86,-41.68"/>
<g id="a_edge6&#45;headlabel"><a xlink:href="dir_000326_000022.html" target="_top" xlink:title="7">
<text text-anchor="middle" x="234.34" y="-40.11" font-family="Helvetica,sans-Serif" font-size="10.00">7</text>
</a>
</g>
</g>
</g>
</svg>
