<?xml version="1.0" encoding="UTF-8" standalone="no"?>
<!DOCTYPE svg PUBLIC "-//W3C//DTD SVG 1.1//EN"
 "http://www.w3.org/Graphics/SVG/1.1/DTD/svg11.dtd">
<!-- Generated by graphviz version 3.0.0 (20220413.0242)
 -->
<!-- Title: common/sbus/src Pages: 1 -->
<svg width="294pt" height="167pt"
 viewBox="0.00 0.00 294.00 167.00" xmlns="http://www.w3.org/2000/svg" xmlns:xlink="http://www.w3.org/1999/xlink">
<g id="graph0" class="graph" transform="scale(1 1) rotate(0) translate(4 163)">
<title>common/sbus/src</title>
<polygon fill="white" stroke="transparent" points="-4,4 -4,-163 290,-163 290,4 -4,4"/>
<g id="clust1" class="cluster">
<title>clusterdir_58a8fc8f1a03774579661b06bb97dd1a</title>
<g id="a_clust1"><a xlink:href="dir_58a8fc8f1a03774579661b06bb97dd1a.html" target="_top" xlink:title="sbus">
<polygon fill="#deebf9" stroke="#7f7f7f" stroke-dasharray="5,2" points="8,-8 8,-151 78,-151 78,-8 8,-8"/>
<text text-anchor="middle" x="43" y="-139" font-family="Helvetica,sans-Serif" font-size="10.00">sbus</text>
</a>
</g>
</g>
<!-- dir_71fde4f0207fc0e816aa54ff3c3cace1 -->
<g id="node1" class="node">
<title>dir_71fde4f0207fc0e816aa54ff3c3cace1</title>
<g id="a_node1"><a xlink:href="dir_71fde4f0207fc0e816aa54ff3c3cace1.html" target="_top" xlink:title="include">
<polygon fill="#60a2e3" stroke="#404040" points="70,-52 16,-52 16,-16 70,-16 70,-52"/>
<text text-anchor="middle" x="43" y="-31.5" font-family="Helvetica,sans-Serif" font-size="10.00">include</text>
</a>
</g>
</g>
<!-- dir_b86d8e8cc4ff73a3835f86acf7570149 -->
<g id="node2" class="node">
<title>dir_b86d8e8cc4ff73a3835f86acf7570149</title>
<g id="a_node2"><a xlink:href="dir_b86d8e8cc4ff73a3835f86acf7570149.html" target="_top" xlink:title="src">
<polygon fill="#deebf9" stroke="#404040" stroke-width="2" points="70,-124 16,-124 16,-88 70,-88 70,-124"/>
<text text-anchor="middle" x="43" y="-103.5" font-family="Helvetica,sans-Serif" font-size="10.00">src</text>
</a>
</g>
</g>
<!-- dir_b86d8e8cc4ff73a3835f86acf7570149&#45;&gt;dir_71fde4f0207fc0e816aa54ff3c3cace1 -->
<g id="edge4" class="edge">
<title>dir_b86d8e8cc4ff73a3835f86acf7570149&#45;&gt;dir_71fde4f0207fc0e816aa54ff3c3cace1</title>
<path fill="none" stroke="black" d="M43,-87.7C43,-79.98 43,-70.71 43,-62.11"/>
<polygon fill="black" stroke="black" points="46.5,-62.1 43,-52.1 39.5,-62.1 46.5,-62.1"/>
<g id="a_edge4&#45;headlabel"><a xlink:href="dir_000221_000063.html" target="_top" xlink:title="8">
<text text-anchor="middle" x="49.34" y="-63.2" font-family="Helvetica,sans-Serif" font-size="10.00">8</text>
</a>
</g>
</g>
<!-- dir_049738f1909e8dc3e45fe1f6b3faa109 -->
<g id="node3" class="node">
<title>dir_049738f1909e8dc3e45fe1f6b3faa109</title>
<g id="a_node3"><a xlink:href="dir_049738f1909e8dc3e45fe1f6b3faa109.html" target="_top" xlink:title="ee">
<polygon fill="none" stroke="red" points="142,-52 88,-52 88,-16 142,-16 142,-52"/>
<text text-anchor="middle" x="115" y="-31.5" font-family="Helvetica,sans-Serif" font-size="10.00">ee</text>
</a>
</g>
</g>
<!-- dir_b86d8e8cc4ff73a3835f86acf7570149&#45;&gt;dir_049738f1909e8dc3e45fe1f6b3faa109 -->
<g id="edge1" class="edge">
<title>dir_b86d8e8cc4ff73a3835f86acf7570149&#45;&gt;dir_049738f1909e8dc3e45fe1f6b3faa109</title>
<path fill="none" stroke="black" d="M60.8,-87.7C69.6,-79.14 80.38,-68.66 90,-59.3"/>
<polygon fill="black" stroke="black" points="92.68,-61.58 97.41,-52.1 87.8,-56.57 92.68,-61.58"/>
<g id="a_edge1&#45;headlabel"><a xlink:href="dir_000221_000038.html" target="_top" xlink:title="1">
<text text-anchor="middle" x="92.08" y="-63.63" font-family="Helvetica,sans-Serif" font-size="10.00">1</text>
</a>
</g>
</g>
<!-- dir_0981ace215aa2029f526b70c145b9fbe -->
<g id="node4" class="node">
<title>dir_0981ace215aa2029f526b70c145b9fbe</title>
<g id="a_node4"><a xlink:href="dir_0981ace215aa2029f526b70c145b9fbe.html" target="_top" xlink:title="iop">
<polygon fill="none" stroke="red" points="214,-52 160,-52 160,-16 214,-16 214,-52"/>
<text text-anchor="middle" x="187" y="-31.5" font-family="Helvetica,sans-Serif" font-size="10.00">iop</text>
</a>
</g>
</g>
<!-- dir_b86d8e8cc4ff73a3835f86acf7570149&#45;&gt;dir_0981ace215aa2029f526b70c145b9fbe -->
<g id="edge2" class="edge">
<title>dir_b86d8e8cc4ff73a3835f86acf7570149&#45;&gt;dir_0981ace215aa2029f526b70c145b9fbe</title>
<path fill="none" stroke="black" d="M70.09,-91.83C92.77,-80.81 125.36,-64.97 150.37,-52.81"/>
<polygon fill="black" stroke="black" points="152.08,-55.87 159.55,-48.35 149.02,-49.57 152.08,-55.87"/>
<g id="a_edge2&#45;headlabel"><a xlink:href="dir_000221_000151.html" target="_top" xlink:title="18">
<text text-anchor="middle" x="150.09" y="-57.49" font-family="Helvetica,sans-Serif" font-size="10.00">18</text>
</a>
</g>
</g>
<!-- dir_11fbc4217d50ab21044e5ad6614aede5 -->
<g id="node5" class="node">
<title>dir_11fbc4217d50ab21044e5ad6614aede5</title>
<g id="a_node5"><a xlink:href="dir_11fbc4217d50ab21044e5ad6614aede5.html" target="_top" xlink:title="include">
<polygon fill="none" stroke="red" stroke-dasharray="5,2" points="286,-52 232,-52 232,-16 286,-16 286,-52"/>
<text text-anchor="middle" x="259" y="-31.5" font-family="Helvetica,sans-Serif" font-size="10.00">include</text>
</a>
</g>
</g>
<!-- dir_b86d8e8cc4ff73a3835f86acf7570149&#45;&gt;dir_11fbc4217d50ab21044e5ad6614aede5 -->
<g id="edge3" class="edge">
<title>dir_b86d8e8cc4ff73a3835f86acf7570149&#45;&gt;dir_11fbc4217d50ab21044e5ad6614aede5</title>
<path fill="none" stroke="black" d="M70.27,-98.38C104.1,-89.86 163.59,-73.9 222.27,-52"/>
<polygon fill="black" stroke="black" points="223.56,-55.26 231.67,-48.44 221.08,-48.71 223.56,-55.26"/>
<g id="a_edge3&#45;headlabel"><a xlink:href="dir_000221_000062.html" target="_top" xlink:title="18">
<text text-anchor="middle" x="221.21" y="-56.68" font-family="Helvetica,sans-Serif" font-size="10.00">18</text>
</a>
</g>
</g>
</g>
</svg>
