<?xml version="1.0" encoding="UTF-8" standalone="no"?>
<!DOCTYPE svg PUBLIC "-//W3C//DTD SVG 1.1//EN"
 "http://www.w3.org/Graphics/SVG/1.1/DTD/svg11.dtd">
<!-- Generated by graphviz version 3.0.0 (20220413.0242)
 -->
<!-- Title: ee/rpc/hdd/src Pages: 1 -->
<svg width="438pt" height="167pt"
 viewBox="0.00 0.00 438.00 167.00" xmlns="http://www.w3.org/2000/svg" xmlns:xlink="http://www.w3.org/1999/xlink">
<g id="graph0" class="graph" transform="scale(1 1) rotate(0) translate(4 163)">
<title>ee/rpc/hdd/src</title>
<polygon fill="white" stroke="transparent" points="-4,4 -4,-163 434,-163 434,4 -4,4"/>
<g id="clust1" class="cluster">
<title>clusterdir_221acb9d8828939c8c28e19ee4eb114c</title>
<g id="a_clust1"><a xlink:href="dir_221acb9d8828939c8c28e19ee4eb114c.html" target="_top" xlink:title="hdd">
<polygon fill="#deebf9" stroke="#7f7f7f" stroke-dasharray="5,2" points="8,-8 8,-151 78,-151 78,-8 8,-8"/>
<text text-anchor="middle" x="43" y="-139" font-family="Helvetica,sans-Serif" font-size="10.00">hdd</text>
</a>
</g>
</g>
<!-- dir_889111e6013952a2fadab5588c28433a -->
<g id="node1" class="node">
<title>dir_889111e6013952a2fadab5588c28433a</title>
<g id="a_node1"><a xlink:href="dir_889111e6013952a2fadab5588c28433a.html" target="_top" xlink:title="include">
<polygon fill="#60a2e3" stroke="#404040" points="70,-52 16,-52 16,-16 70,-16 70,-52"/>
<text text-anchor="middle" x="43" y="-31.5" font-family="Helvetica,sans-Serif" font-size="10.00">include</text>
</a>
</g>
</g>
<!-- dir_649ece9c59c1ccd3cc9fc0658b53f87d -->
<g id="node2" class="node">
<title>dir_649ece9c59c1ccd3cc9fc0658b53f87d</title>
<g id="a_node2"><a xlink:href="dir_649ece9c59c1ccd3cc9fc0658b53f87d.html" target="_top" xlink:title="src">
<polygon fill="#deebf9" stroke="#404040" stroke-width="2" points="70,-124 16,-124 16,-88 70,-88 70,-124"/>
<text text-anchor="middle" x="43" y="-103.5" font-family="Helvetica,sans-Serif" font-size="10.00">src</text>
</a>
</g>
</g>
<!-- dir_649ece9c59c1ccd3cc9fc0658b53f87d&#45;&gt;dir_889111e6013952a2fadab5588c28433a -->
<g id="edge4" class="edge">
<title>dir_649ece9c59c1ccd3cc9fc0658b53f87d&#45;&gt;dir_889111e6013952a2fadab5588c28433a</title>
<path fill="none" stroke="black" d="M43,-87.7C43,-79.98 43,-70.71 43,-62.11"/>
<polygon fill="black" stroke="black" points="46.5,-62.1 43,-52.1 39.5,-62.1 46.5,-62.1"/>
<g id="a_edge4&#45;headlabel"><a xlink:href="dir_000252_000090.html" target="_top" xlink:title="1">
<text text-anchor="middle" x="49.34" y="-63.2" font-family="Helvetica,sans-Serif" font-size="10.00">1</text>
</a>
</g>
</g>
<!-- dir_0981ace215aa2029f526b70c145b9fbe -->
<g id="node3" class="node">
<title>dir_0981ace215aa2029f526b70c145b9fbe</title>
<g id="a_node3"><a xlink:href="dir_0981ace215aa2029f526b70c145b9fbe.html" target="_top" xlink:title="iop">
<polygon fill="none" stroke="red" points="142,-52 88,-52 88,-16 142,-16 142,-52"/>
<text text-anchor="middle" x="115" y="-31.5" font-family="Helvetica,sans-Serif" font-size="10.00">iop</text>
</a>
</g>
</g>
<!-- dir_649ece9c59c1ccd3cc9fc0658b53f87d&#45;&gt;dir_0981ace215aa2029f526b70c145b9fbe -->
<g id="edge1" class="edge">
<title>dir_649ece9c59c1ccd3cc9fc0658b53f87d&#45;&gt;dir_0981ace215aa2029f526b70c145b9fbe</title>
<path fill="none" stroke="black" d="M60.8,-87.7C69.6,-79.14 80.38,-68.66 90,-59.3"/>
<polygon fill="black" stroke="black" points="92.68,-61.58 97.41,-52.1 87.8,-56.57 92.68,-61.58"/>
<g id="a_edge1&#45;headlabel"><a xlink:href="dir_000252_000151.html" target="_top" xlink:title="1">
<text text-anchor="middle" x="92.08" y="-63.63" font-family="Helvetica,sans-Serif" font-size="10.00">1</text>
</a>
</g>
</g>
<!-- dir_694ec83a64f58cbdefbefce65cd1011c -->
<g id="node4" class="node">
<title>dir_694ec83a64f58cbdefbefce65cd1011c</title>
<g id="a_node4"><a xlink:href="dir_694ec83a64f58cbdefbefce65cd1011c.html" target="_top" xlink:title="kernel">
<polygon fill="none" stroke="red" stroke-dasharray="5,2" points="214,-52 160,-52 160,-16 214,-16 214,-52"/>
<text text-anchor="middle" x="187" y="-31.5" font-family="Helvetica,sans-Serif" font-size="10.00">kernel</text>
</a>
</g>
</g>
<!-- dir_649ece9c59c1ccd3cc9fc0658b53f87d&#45;&gt;dir_694ec83a64f58cbdefbefce65cd1011c -->
<g id="edge2" class="edge">
<title>dir_649ece9c59c1ccd3cc9fc0658b53f87d&#45;&gt;dir_694ec83a64f58cbdefbefce65cd1011c</title>
<path fill="none" stroke="black" d="M70.09,-91.83C92.77,-80.81 125.36,-64.97 150.37,-52.81"/>
<polygon fill="black" stroke="black" points="152.08,-55.87 159.55,-48.35 149.02,-49.57 152.08,-55.87"/>
<g id="a_edge2&#45;headlabel"><a xlink:href="dir_000252_000157.html" target="_top" xlink:title="3">
<text text-anchor="middle" x="150.09" y="-57.49" font-family="Helvetica,sans-Serif" font-size="10.00">3</text>
</a>
</g>
</g>
<!-- dir_6b1fe306776c19ae02b5b1275d4c63ec -->
<g id="node5" class="node">
<title>dir_6b1fe306776c19ae02b5b1275d4c63ec</title>
<g id="a_node5"><a xlink:href="dir_6b1fe306776c19ae02b5b1275d4c63ec.html" target="_top" xlink:title="filexio">
<polygon fill="none" stroke="red" stroke-dasharray="5,2" points="286,-52 232,-52 232,-16 286,-16 286,-52"/>
<text text-anchor="middle" x="259" y="-31.5" font-family="Helvetica,sans-Serif" font-size="10.00">filexio</text>
</a>
</g>
</g>
<!-- dir_649ece9c59c1ccd3cc9fc0658b53f87d&#45;&gt;dir_6b1fe306776c19ae02b5b1275d4c63ec -->
<g id="edge3" class="edge">
<title>dir_649ece9c59c1ccd3cc9fc0658b53f87d&#45;&gt;dir_6b1fe306776c19ae02b5b1275d4c63ec</title>
<path fill="none" stroke="black" d="M70.27,-98.38C104.1,-89.86 163.59,-73.9 222.27,-52"/>
<polygon fill="black" stroke="black" points="223.56,-55.26 231.67,-48.44 221.08,-48.71 223.56,-55.26"/>
<g id="a_edge3&#45;headlabel"><a xlink:href="dir_000252_000047.html" target="_top" xlink:title="1">
<text text-anchor="middle" x="221.21" y="-56.68" font-family="Helvetica,sans-Serif" font-size="10.00">1</text>
</a>
</g>
</g>
<!-- dir_a0a8ac7efb6662b749c1285408048e6d -->
<g id="node6" class="node">
<title>dir_a0a8ac7efb6662b749c1285408048e6d</title>
<g id="a_node6"><a xlink:href="dir_a0a8ac7efb6662b749c1285408048e6d.html" target="_top" xlink:title="erl">
<polygon fill="none" stroke="red" stroke-dasharray="5,2" points="358,-52 304,-52 304,-16 358,-16 358,-52"/>
<text text-anchor="middle" x="331" y="-31.5" font-family="Helvetica,sans-Serif" font-size="10.00">erl</text>
</a>
</g>
</g>
<!-- dir_649ece9c59c1ccd3cc9fc0658b53f87d&#45;&gt;dir_a0a8ac7efb6662b749c1285408048e6d -->
<g id="edge5" class="edge">
<title>dir_649ece9c59c1ccd3cc9fc0658b53f87d&#45;&gt;dir_a0a8ac7efb6662b749c1285408048e6d</title>
<path fill="none" stroke="black" d="M70.03,-101.44C115.08,-95.05 208.28,-79.92 294.13,-51.88"/>
<polygon fill="black" stroke="black" points="295.38,-55.16 303.76,-48.67 293.16,-48.52 295.38,-55.16"/>
<g id="a_edge5&#45;headlabel"><a xlink:href="dir_000252_000042.html" target="_top" xlink:title="1">
<text text-anchor="middle" x="292.86" y="-56.49" font-family="Helvetica,sans-Serif" font-size="10.00">1</text>
</a>
</g>
</g>
<!-- dir_bdd9a5d540de89e9fe90efdfc6973a4f -->
<g id="node7" class="node">
<title>dir_bdd9a5d540de89e9fe90efdfc6973a4f</title>
<g id="a_node7"><a xlink:href="dir_bdd9a5d540de89e9fe90efdfc6973a4f.html" target="_top" xlink:title="common">
<polygon fill="none" stroke="red" points="430,-52 376,-52 376,-16 430,-16 430,-52"/>
<text text-anchor="middle" x="403" y="-31.5" font-family="Helvetica,sans-Serif" font-size="10.00">common</text>
</a>
</g>
</g>
<!-- dir_649ece9c59c1ccd3cc9fc0658b53f87d&#45;&gt;dir_bdd9a5d540de89e9fe90efdfc6973a4f -->
<g id="edge6" class="edge">
<title>dir_649ece9c59c1ccd3cc9fc0658b53f87d&#45;&gt;dir_bdd9a5d540de89e9fe90efdfc6973a4f</title>
<path fill="none" stroke="black" d="M70.04,-103.13C124.8,-98.82 252.55,-86.03 365.92,-51.85"/>
<polygon fill="black" stroke="black" points="367.27,-55.1 375.8,-48.81 365.21,-48.41 367.27,-55.1"/>
<g id="a_edge6&#45;headlabel"><a xlink:href="dir_000252_000022.html" target="_top" xlink:title="4">
<text text-anchor="middle" x="364.67" y="-56.37" font-family="Helvetica,sans-Serif" font-size="10.00">4</text>
</a>
</g>
</g>
</g>
</svg>
