<?xml version="1.0" encoding="UTF-8" standalone="no"?>
<!DOCTYPE svg PUBLIC "-//W3C//DTD SVG 1.1//EN"
 "http://www.w3.org/Graphics/SVG/1.1/DTD/svg11.dtd">
<!-- Generated by graphviz version 3.0.0 (20220413.0242)
 -->
<!-- Title: ee/rpc/hdd Pages: 1 -->
<svg width="482pt" height="247pt"
 viewBox="0.00 0.00 482.00 247.00" xmlns="http://www.w3.org/2000/svg" xmlns:xlink="http://www.w3.org/1999/xlink">
<g id="graph0" class="graph" transform="scale(1 1) rotate(0) translate(4 243)">
<title>ee/rpc/hdd</title>
<polygon fill="white" stroke="transparent" points="-4,4 -4,-243 478,-243 478,4 -4,4"/>
<g id="clust1" class="cluster">
<title>clusterdir_5b119dc963fa9b25ef41951231899460</title>
<g id="a_clust1"><a xlink:href="dir_5b119dc963fa9b25ef41951231899460.html" target="_top" xlink:title="rpc">
<polygon fill="#deebf9" stroke="#7f7f7f" stroke-dasharray="5,2" points="8,-8 8,-231 228,-231 228,-8 8,-8"/>
<text text-anchor="middle" x="118" y="-219" font-family="Helvetica,sans-Serif" font-size="10.00">rpc</text>
</a>
</g>
</g>
<g id="clust2" class="cluster">
<title>clusterdir_221acb9d8828939c8c28e19ee4eb114c</title>
<g id="a_clust2"><a xlink:href="dir_221acb9d8828939c8c28e19ee4eb114c.html" target="_top">
<polygon fill="#deebf9" stroke="#404040" stroke-width="2" points="16,-80 16,-204 158,-204 158,-80 16,-80"/>
</a>
</g>
</g>
<!-- dir_b4755258f2e93c4a8a26138734da4ea3 -->
<g id="node1" class="node">
<title>dir_b4755258f2e93c4a8a26138734da4ea3</title>
<g id="a_node1"><a xlink:href="dir_b4755258f2e93c4a8a26138734da4ea3.html" target="_top" xlink:title="poweroff">
<polygon fill="#60a2e3" stroke="red" points="113,-52 59,-52 59,-16 113,-16 113,-52"/>
<text text-anchor="middle" x="86" y="-31.5" font-family="Helvetica,sans-Serif" font-size="10.00">poweroff</text>
</a>
</g>
</g>
<!-- dir_6b1fe306776c19ae02b5b1275d4c63ec -->
<g id="node2" class="node">
<title>dir_6b1fe306776c19ae02b5b1275d4c63ec</title>
<g id="a_node2"><a xlink:href="dir_6b1fe306776c19ae02b5b1275d4c63ec.html" target="_top" xlink:title="filexio">
<polygon fill="#60a2e3" stroke="red" points="220,-124 166,-124 166,-88 220,-88 220,-124"/>
<text text-anchor="middle" x="193" y="-103.5" font-family="Helvetica,sans-Serif" font-size="10.00">filexio</text>
</a>
</g>
</g>
<!-- dir_221acb9d8828939c8c28e19ee4eb114c -->
<g id="node3" class="node">
<title>dir_221acb9d8828939c8c28e19ee4eb114c</title>
<text text-anchor="middle" x="123" y="-175.5" font-family="Helvetica,sans-Serif" font-size="10.00">hdd</text>
</g>
<!-- dir_889111e6013952a2fadab5588c28433a -->
<g id="node4" class="node">
<title>dir_889111e6013952a2fadab5588c28433a</title>
<g id="a_node4"><a xlink:href="dir_889111e6013952a2fadab5588c28433a.html" target="_top" xlink:title="include">
<polygon fill="#60a2e3" stroke="#404040" points="113,-124 59,-124 59,-88 113,-88 113,-124"/>
<text text-anchor="middle" x="86" y="-103.5" font-family="Helvetica,sans-Serif" font-size="10.00">include</text>
</a>
</g>
</g>
<!-- dir_889111e6013952a2fadab5588c28433a&#45;&gt;dir_b4755258f2e93c4a8a26138734da4ea3 -->
<g id="edge1" class="edge">
<title>dir_889111e6013952a2fadab5588c28433a&#45;&gt;dir_b4755258f2e93c4a8a26138734da4ea3</title>
<path fill="none" stroke="black" d="M86,-87.7C86,-79.98 86,-70.71 86,-62.11"/>
<polygon fill="black" stroke="black" points="89.5,-62.1 86,-52.1 82.5,-62.1 89.5,-62.1"/>
<g id="a_edge1&#45;headlabel"><a xlink:href="dir_000090_000199.html" target="_top" xlink:title="1">
<text text-anchor="middle" x="92.34" y="-63.2" font-family="Helvetica,sans-Serif" font-size="10.00">1</text>
</a>
</g>
</g>
<!-- dir_bdd9a5d540de89e9fe90efdfc6973a4f -->
<g id="node6" class="node">
<title>dir_bdd9a5d540de89e9fe90efdfc6973a4f</title>
<g id="a_node6"><a xlink:href="dir_bdd9a5d540de89e9fe90efdfc6973a4f.html" target="_top" xlink:title="common">
<polygon fill="none" stroke="red" points="290,-52 236,-52 236,-16 290,-16 290,-52"/>
<text text-anchor="middle" x="263" y="-31.5" font-family="Helvetica,sans-Serif" font-size="10.00">common</text>
</a>
</g>
</g>
<!-- dir_889111e6013952a2fadab5588c28433a&#45;&gt;dir_bdd9a5d540de89e9fe90efdfc6973a4f -->
<g id="edge2" class="edge">
<title>dir_889111e6013952a2fadab5588c28433a&#45;&gt;dir_bdd9a5d540de89e9fe90efdfc6973a4f</title>
<path fill="none" stroke="black" d="M104.44,-87.98C108.38,-84.98 112.66,-82.14 117,-80 161.22,-58.16 180.5,-69.39 226.28,-53.89"/>
<polygon fill="black" stroke="black" points="227.61,-57.13 235.8,-50.42 225.21,-50.56 227.61,-57.13"/>
<g id="a_edge2&#45;headlabel"><a xlink:href="dir_000090_000022.html" target="_top" xlink:title="2">
<text text-anchor="middle" x="225.2" y="-58.53" font-family="Helvetica,sans-Serif" font-size="10.00">2</text>
</a>
</g>
</g>
<!-- dir_649ece9c59c1ccd3cc9fc0658b53f87d -->
<g id="node5" class="node">
<title>dir_649ece9c59c1ccd3cc9fc0658b53f87d</title>
<g id="a_node5"><a xlink:href="dir_649ece9c59c1ccd3cc9fc0658b53f87d.html" target="_top" xlink:title="src">
<polygon fill="#60a2e3" stroke="#404040" points="78,-196 24,-196 24,-160 78,-160 78,-196"/>
<text text-anchor="middle" x="51" y="-175.5" font-family="Helvetica,sans-Serif" font-size="10.00">src</text>
</a>
</g>
</g>
<!-- dir_649ece9c59c1ccd3cc9fc0658b53f87d&#45;&gt;dir_6b1fe306776c19ae02b5b1275d4c63ec -->
<g id="edge5" class="edge">
<title>dir_649ece9c59c1ccd3cc9fc0658b53f87d&#45;&gt;dir_6b1fe306776c19ae02b5b1275d4c63ec</title>
<path fill="none" stroke="black" d="M78.23,-164.1C103.13,-152.28 138.45,-135.49 156.82,-126.49"/>
<polygon fill="black" stroke="black" points="158.61,-129.52 166,-121.92 155.48,-123.25 158.61,-129.52"/>
<g id="a_edge5&#45;headlabel"><a xlink:href="dir_000252_000047.html" target="_top" xlink:title="1">
<text text-anchor="middle" x="156.65" y="-131.16" font-family="Helvetica,sans-Serif" font-size="10.00">1</text>
</a>
</g>
</g>
<!-- dir_649ece9c59c1ccd3cc9fc0658b53f87d&#45;&gt;dir_889111e6013952a2fadab5588c28433a -->
<g id="edge6" class="edge">
<title>dir_649ece9c59c1ccd3cc9fc0658b53f87d&#45;&gt;dir_889111e6013952a2fadab5588c28433a</title>
<path fill="none" stroke="black" d="M59.65,-159.7C63.64,-151.73 68.45,-142.1 72.87,-133.26"/>
<polygon fill="black" stroke="black" points="76.11,-134.61 77.45,-124.1 69.85,-131.48 76.11,-134.61"/>
<g id="a_edge6&#45;headlabel"><a xlink:href="dir_000252_000090.html" target="_top" xlink:title="1">
<text text-anchor="middle" x="77.04" y="-136.6" font-family="Helvetica,sans-Serif" font-size="10.00">1</text>
</a>
</g>
</g>
<!-- dir_649ece9c59c1ccd3cc9fc0658b53f87d&#45;&gt;dir_bdd9a5d540de89e9fe90efdfc6973a4f -->
<g id="edge8" class="edge">
<title>dir_649ece9c59c1ccd3cc9fc0658b53f87d&#45;&gt;dir_bdd9a5d540de89e9fe90efdfc6973a4f</title>
<path fill="none" stroke="black" d="M78.28,-163.43C81.19,-162.19 84.14,-161.02 87,-160 149.55,-137.71 182.94,-168.75 232,-124 249.42,-108.11 257.05,-81.91 260.39,-62.04"/>
<polygon fill="black" stroke="black" points="263.87,-62.43 261.81,-52.04 256.94,-61.45 263.87,-62.43"/>
<g id="a_edge8&#45;headlabel"><a xlink:href="dir_000252_000022.html" target="_top" xlink:title="4">
<text text-anchor="middle" x="266.18" y="-63.89" font-family="Helvetica,sans-Serif" font-size="10.00">4</text>
</a>
</g>
</g>
<!-- dir_a0a8ac7efb6662b749c1285408048e6d -->
<g id="node7" class="node">
<title>dir_a0a8ac7efb6662b749c1285408048e6d</title>
<g id="a_node7"><a xlink:href="dir_a0a8ac7efb6662b749c1285408048e6d.html" target="_top" xlink:title="erl">
<polygon fill="none" stroke="red" stroke-dasharray="5,2" points="330,-124 276,-124 276,-88 330,-88 330,-124"/>
<text text-anchor="middle" x="303" y="-103.5" font-family="Helvetica,sans-Serif" font-size="10.00">erl</text>
</a>
</g>
</g>
<!-- dir_649ece9c59c1ccd3cc9fc0658b53f87d&#45;&gt;dir_a0a8ac7efb6662b749c1285408048e6d -->
<g id="edge7" class="edge">
<title>dir_649ece9c59c1ccd3cc9fc0658b53f87d&#45;&gt;dir_a0a8ac7efb6662b749c1285408048e6d</title>
<path fill="none" stroke="black" d="M78.24,-163.31C81.16,-162.1 84.12,-160.96 87,-160 162.32,-134.87 186.09,-147.31 262,-124 263.43,-123.56 264.87,-123.09 266.33,-122.6"/>
<polygon fill="black" stroke="black" points="267.74,-125.81 275.92,-119.08 265.32,-119.24 267.74,-125.81"/>
<g id="a_edge7&#45;headlabel"><a xlink:href="dir_000252_000042.html" target="_top" xlink:title="1">
<text text-anchor="middle" x="265.34" y="-127.21" font-family="Helvetica,sans-Serif" font-size="10.00">1</text>
</a>
</g>
</g>
<!-- dir_0981ace215aa2029f526b70c145b9fbe -->
<g id="node8" class="node">
<title>dir_0981ace215aa2029f526b70c145b9fbe</title>
<g id="a_node8"><a xlink:href="dir_0981ace215aa2029f526b70c145b9fbe.html" target="_top" xlink:title="iop">
<polygon fill="none" stroke="red" points="402,-124 348,-124 348,-88 402,-88 402,-124"/>
<text text-anchor="middle" x="375" y="-103.5" font-family="Helvetica,sans-Serif" font-size="10.00">iop</text>
</a>
</g>
</g>
<!-- dir_649ece9c59c1ccd3cc9fc0658b53f87d&#45;&gt;dir_0981ace215aa2029f526b70c145b9fbe -->
<g id="edge3" class="edge">
<title>dir_649ece9c59c1ccd3cc9fc0658b53f87d&#45;&gt;dir_0981ace215aa2029f526b70c145b9fbe</title>
<path fill="none" stroke="black" d="M78.18,-163.13C81.11,-161.95 84.09,-160.87 87,-160 192.29,-128.4 228.58,-154.92 338.06,-123.74"/>
<polygon fill="black" stroke="black" points="339.21,-127.05 347.82,-120.87 337.24,-120.34 339.21,-127.05"/>
<g id="a_edge3&#45;headlabel"><a xlink:href="dir_000252_000151.html" target="_top" xlink:title="1">
<text text-anchor="middle" x="336.57" y="-128.29" font-family="Helvetica,sans-Serif" font-size="10.00">1</text>
</a>
</g>
</g>
<!-- dir_694ec83a64f58cbdefbefce65cd1011c -->
<g id="node9" class="node">
<title>dir_694ec83a64f58cbdefbefce65cd1011c</title>
<g id="a_node9"><a xlink:href="dir_694ec83a64f58cbdefbefce65cd1011c.html" target="_top" xlink:title="kernel">
<polygon fill="none" stroke="red" stroke-dasharray="5,2" points="474,-124 420,-124 420,-88 474,-88 474,-124"/>
<text text-anchor="middle" x="447" y="-103.5" font-family="Helvetica,sans-Serif" font-size="10.00">kernel</text>
</a>
</g>
</g>
<!-- dir_649ece9c59c1ccd3cc9fc0658b53f87d&#45;&gt;dir_694ec83a64f58cbdefbefce65cd1011c -->
<g id="edge4" class="edge">
<title>dir_649ece9c59c1ccd3cc9fc0658b53f87d&#45;&gt;dir_694ec83a64f58cbdefbefce65cd1011c</title>
<path fill="none" stroke="black" d="M78.15,-163.04C81.09,-161.87 84.07,-160.83 87,-160 223.27,-121.42 269.52,-161.58 410.01,-123.7"/>
<polygon fill="black" stroke="black" points="411.15,-127.01 419.85,-120.96 409.27,-120.27 411.15,-127.01"/>
<g id="a_edge4&#45;headlabel"><a xlink:href="dir_000252_000157.html" target="_top" xlink:title="3">
<text text-anchor="middle" x="408.45" y="-128.21" font-family="Helvetica,sans-Serif" font-size="10.00">3</text>
</a>
</g>
</g>
</g>
</svg>
