<?xml version="1.0" encoding="UTF-8" standalone="no"?>
<!DOCTYPE svg PUBLIC "-//W3C//DTD SVG 1.1//EN"
 "http://www.w3.org/Graphics/SVG/1.1/DTD/svg11.dtd">
<!-- Generated by graphviz version 3.0.0 (20220413.0242)
 -->
<!-- Title: iop/tcpip Pages: 1 -->
<svg width="480pt" height="175pt"
 viewBox="0.00 0.00 480.00 175.00" xmlns="http://www.w3.org/2000/svg" xmlns:xlink="http://www.w3.org/1999/xlink">
<g id="graph0" class="graph" transform="scale(1 1) rotate(0) translate(4 171)">
<title>iop/tcpip</title>
<polygon fill="white" stroke="transparent" points="-4,4 -4,-171 476,-171 476,4 -4,4"/>
<g id="clust1" class="cluster">
<title>clusterdir_0981ace215aa2029f526b70c145b9fbe</title>
<g id="a_clust1"><a xlink:href="dir_0981ace215aa2029f526b70c145b9fbe.html" target="_top" xlink:title="iop">
<polygon fill="#deebf9" stroke="#404040" stroke-dasharray="5,2" points="8,-8 8,-159 410,-159 410,-8 8,-8"/>
<text text-anchor="middle" x="209" y="-147" font-family="Helvetica,sans-Serif" font-size="10.00">iop</text>
</a>
</g>
</g>
<g id="clust2" class="cluster">
<title>clusterdir_cb38d55d28446d14702541320714f23c</title>
<g id="a_clust2"><a xlink:href="dir_cb38d55d28446d14702541320714f23c.html" target="_top">
<polygon fill="#deebf9" stroke="#404040" stroke-width="2" points="16,-80 16,-132 402,-132 402,-80 16,-80"/>
</a>
</g>
</g>
<!-- dir_9be0baa3d4a3e9f480a9ee70594037fa -->
<g id="node1" class="node">
<title>dir_9be0baa3d4a3e9f480a9ee70594037fa</title>
<g id="a_node1"><a xlink:href="dir_9be0baa3d4a3e9f480a9ee70594037fa.html" target="_top" xlink:title="kernel">
<polygon fill="#60a2e3" stroke="red" points="203,-52 149,-52 149,-16 203,-16 203,-52"/>
<text text-anchor="middle" x="176" y="-31.5" font-family="Helvetica,sans-Serif" font-size="10.00">kernel</text>
</a>
</g>
</g>
<!-- dir_cb38d55d28446d14702541320714f23c -->
<g id="node2" class="node">
<title>dir_cb38d55d28446d14702541320714f23c</title>
<text text-anchor="middle" x="367" y="-103.5" font-family="Helvetica,sans-Serif" font-size="10.00">tcpip</text>
</g>
<!-- dir_1e6823be46b3bf5bb635c8394bb31ba4 -->
<g id="node3" class="node">
<title>dir_1e6823be46b3bf5bb635c8394bb31ba4</title>
<g id="a_node3"><a xlink:href="dir_1e6823be46b3bf5bb635c8394bb31ba4.html" target="_top" xlink:title="tcpip">
<polygon fill="#60a2e3" stroke="#404040" points="322,-124 268,-124 268,-88 322,-88 322,-124"/>
<text text-anchor="middle" x="295" y="-103.5" font-family="Helvetica,sans-Serif" font-size="10.00">tcpip</text>
</a>
</g>
</g>
<!-- dir_1e6823be46b3bf5bb635c8394bb31ba4&#45;&gt;dir_9be0baa3d4a3e9f480a9ee70594037fa -->
<g id="edge1" class="edge">
<title>dir_1e6823be46b3bf5bb635c8394bb31ba4&#45;&gt;dir_9be0baa3d4a3e9f480a9ee70594037fa</title>
<path fill="none" stroke="black" d="M271.23,-87.95C267.2,-85.22 263.02,-82.47 259,-80 244.12,-70.84 227.23,-61.5 212.59,-53.72"/>
<polygon fill="black" stroke="black" points="213.82,-50.41 203.34,-48.85 210.56,-56.61 213.82,-50.41"/>
<g id="a_edge1&#45;headlabel"><a xlink:href="dir_000343_000158.html" target="_top" xlink:title="18">
<text text-anchor="middle" x="218.32" y="-47.07" font-family="Helvetica,sans-Serif" font-size="10.00">18</text>
</a>
</g>
</g>
<!-- dir_bdd9a5d540de89e9fe90efdfc6973a4f -->
<g id="node7" class="node">
<title>dir_bdd9a5d540de89e9fe90efdfc6973a4f</title>
<g id="a_node7"><a xlink:href="dir_bdd9a5d540de89e9fe90efdfc6973a4f.html" target="_top" xlink:title="common">
<polygon fill="none" stroke="red" points="472,-52 418,-52 418,-16 472,-16 472,-52"/>
<text text-anchor="middle" x="445" y="-31.5" font-family="Helvetica,sans-Serif" font-size="10.00">common</text>
</a>
</g>
</g>
<!-- dir_1e6823be46b3bf5bb635c8394bb31ba4&#45;&gt;dir_bdd9a5d540de89e9fe90efdfc6973a4f -->
<g id="edge2" class="edge">
<title>dir_1e6823be46b3bf5bb635c8394bb31ba4&#45;&gt;dir_bdd9a5d540de89e9fe90efdfc6973a4f</title>
<path fill="none" stroke="black" d="M317.64,-87.86C321.95,-85.01 326.51,-82.26 331,-80 362.79,-64.01 376.02,-66.93 408.15,-54.29"/>
<polygon fill="black" stroke="black" points="409.87,-57.37 417.75,-50.28 407.17,-50.91 409.87,-57.37"/>
<g id="a_edge2&#45;headlabel"><a xlink:href="dir_000343_000022.html" target="_top" xlink:title="1">
<text text-anchor="middle" x="407.64" y="-58.87" font-family="Helvetica,sans-Serif" font-size="10.00">1</text>
</a>
</g>
</g>
<!-- dir_ab0c940ac9afa06c331831ae52f4280f -->
<g id="node4" class="node">
<title>dir_ab0c940ac9afa06c331831ae52f4280f</title>
<g id="a_node4"><a xlink:href="dir_ab0c940ac9afa06c331831ae52f4280f.html" target="_top" xlink:title="tcpip&#45;base">
<polygon fill="#60a2e3" stroke="#404040" points="250,-124 188,-124 188,-88 250,-88 250,-124"/>
<text text-anchor="middle" x="219" y="-103.5" font-family="Helvetica,sans-Serif" font-size="10.00">tcpip&#45;base</text>
</a>
</g>
</g>
<!-- dir_ab0c940ac9afa06c331831ae52f4280f&#45;&gt;dir_9be0baa3d4a3e9f480a9ee70594037fa -->
<g id="edge3" class="edge">
<title>dir_ab0c940ac9afa06c331831ae52f4280f&#45;&gt;dir_9be0baa3d4a3e9f480a9ee70594037fa</title>
<path fill="none" stroke="black" d="M208.37,-87.7C203.37,-79.56 197.31,-69.69 191.79,-60.7"/>
<polygon fill="black" stroke="black" points="194.72,-58.79 186.51,-52.1 188.76,-62.46 194.72,-58.79"/>
<g id="a_edge3&#45;headlabel"><a xlink:href="dir_000344_000158.html" target="_top" xlink:title="7">
<text text-anchor="middle" x="199.02" y="-57.87" font-family="Helvetica,sans-Serif" font-size="10.00">7</text>
</a>
</g>
</g>
<!-- dir_ab0c940ac9afa06c331831ae52f4280f&#45;&gt;dir_bdd9a5d540de89e9fe90efdfc6973a4f -->
<g id="edge4" class="edge">
<title>dir_ab0c940ac9afa06c331831ae52f4280f&#45;&gt;dir_bdd9a5d540de89e9fe90efdfc6973a4f</title>
<path fill="none" stroke="black" d="M243.19,-87.86C248.24,-84.87 253.65,-82.07 259,-80 321.24,-55.96 345.69,-73.53 408.31,-53.72"/>
<polygon fill="black" stroke="black" points="409.48,-57.02 417.84,-50.52 407.24,-50.39 409.48,-57.02"/>
<g id="a_edge4&#45;headlabel"><a xlink:href="dir_000344_000022.html" target="_top" xlink:title="1">
<text text-anchor="middle" x="406.97" y="-58.36" font-family="Helvetica,sans-Serif" font-size="10.00">1</text>
</a>
</g>
</g>
<!-- dir_9df346544416700849519ab7a98decca -->
<g id="node5" class="node">
<title>dir_9df346544416700849519ab7a98decca</title>
<g id="a_node5"><a xlink:href="dir_9df346544416700849519ab7a98decca.html" target="_top" xlink:title="tcpip&#45;netman">
<polygon fill="#60a2e3" stroke="#404040" points="169.5,-124 96.5,-124 96.5,-88 169.5,-88 169.5,-124"/>
<text text-anchor="middle" x="133" y="-103.5" font-family="Helvetica,sans-Serif" font-size="10.00">tcpip&#45;netman</text>
</a>
</g>
</g>
<!-- dir_9df346544416700849519ab7a98decca&#45;&gt;dir_9be0baa3d4a3e9f480a9ee70594037fa -->
<g id="edge5" class="edge">
<title>dir_9df346544416700849519ab7a98decca&#45;&gt;dir_9be0baa3d4a3e9f480a9ee70594037fa</title>
<path fill="none" stroke="black" d="M143.63,-87.7C148.63,-79.56 154.69,-69.69 160.21,-60.7"/>
<polygon fill="black" stroke="black" points="163.24,-62.46 165.49,-52.1 157.28,-58.79 163.24,-62.46"/>
<g id="a_edge5&#45;headlabel"><a xlink:href="dir_000345_000158.html" target="_top" xlink:title="16">
<text text-anchor="middle" x="163.78" y="-64.51" font-family="Helvetica,sans-Serif" font-size="10.00">16</text>
</a>
</g>
</g>
<!-- dir_9df346544416700849519ab7a98decca&#45;&gt;dir_bdd9a5d540de89e9fe90efdfc6973a4f -->
<g id="edge6" class="edge">
<title>dir_9df346544416700849519ab7a98decca&#45;&gt;dir_bdd9a5d540de89e9fe90efdfc6973a4f</title>
<path fill="none" stroke="black" d="M160.47,-87.9C166.4,-84.83 172.76,-81.99 179,-80 276,-49.12 311.53,-81.85 408.02,-53.64"/>
<polygon fill="black" stroke="black" points="409.34,-56.89 417.87,-50.61 407.28,-50.2 409.34,-56.89"/>
<g id="a_edge6&#45;headlabel"><a xlink:href="dir_000345_000022.html" target="_top" xlink:title="2">
<text text-anchor="middle" x="406.74" y="-58.16" font-family="Helvetica,sans-Serif" font-size="10.00">2</text>
</a>
</g>
</g>
<!-- dir_1cfecee880be5098a90e1a8a26e46a3f -->
<g id="node6" class="node">
<title>dir_1cfecee880be5098a90e1a8a26e46a3f</title>
<g id="a_node6"><a xlink:href="dir_1cfecee880be5098a90e1a8a26e46a3f.html" target="_top" xlink:title="tcpips">
<polygon fill="#60a2e3" stroke="#404040" points="78,-124 24,-124 24,-88 78,-88 78,-124"/>
<text text-anchor="middle" x="51" y="-103.5" font-family="Helvetica,sans-Serif" font-size="10.00">tcpips</text>
</a>
</g>
</g>
<!-- dir_1cfecee880be5098a90e1a8a26e46a3f&#45;&gt;dir_9be0baa3d4a3e9f480a9ee70594037fa -->
<g id="edge7" class="edge">
<title>dir_1cfecee880be5098a90e1a8a26e46a3f&#45;&gt;dir_9be0baa3d4a3e9f480a9ee70594037fa</title>
<path fill="none" stroke="black" d="M75.41,-87.9C79.56,-85.17 83.86,-82.44 88,-80 104.67,-70.15 123.75,-60.24 139.87,-52.24"/>
<polygon fill="black" stroke="black" points="141.54,-55.31 148.97,-47.76 138.46,-49.03 141.54,-55.31"/>
<g id="a_edge7&#45;headlabel"><a xlink:href="dir_000347_000158.html" target="_top" xlink:title="12">
<text text-anchor="middle" x="139.57" y="-56.95" font-family="Helvetica,sans-Serif" font-size="10.00">12</text>
</a>
</g>
</g>
<!-- dir_1cfecee880be5098a90e1a8a26e46a3f&#45;&gt;dir_bdd9a5d540de89e9fe90efdfc6973a4f -->
<g id="edge8" class="edge">
<title>dir_1cfecee880be5098a90e1a8a26e46a3f&#45;&gt;dir_bdd9a5d540de89e9fe90efdfc6973a4f</title>
<path fill="none" stroke="black" d="M72.31,-87.96C77.22,-84.81 82.59,-81.91 88,-80 221.89,-32.65 272.42,-91.22 407.98,-53.55"/>
<polygon fill="black" stroke="black" points="409.26,-56.82 417.89,-50.67 407.31,-50.1 409.26,-56.82"/>
<g id="a_edge8&#45;headlabel"><a xlink:href="dir_000347_000022.html" target="_top" xlink:title="1">
<text text-anchor="middle" x="406.6" y="-58.05" font-family="Helvetica,sans-Serif" font-size="10.00">1</text>
</a>
</g>
</g>
</g>
</svg>
