<?xml version="1.0" encoding="UTF-8" standalone="no"?>
<!DOCTYPE svg PUBLIC "-//W3C//DTD SVG 1.1//EN"
 "http://www.w3.org/Graphics/SVG/1.1/DTD/svg11.dtd">
<!-- Generated by graphviz version 3.0.0 (20220413.0242)
 -->
<!-- Title: iop/debug Pages: 1 -->
<svg width="398pt" height="247pt"
 viewBox="0.00 0.00 398.00 247.00" xmlns="http://www.w3.org/2000/svg" xmlns:xlink="http://www.w3.org/1999/xlink">
<g id="graph0" class="graph" transform="scale(1 1) rotate(0) translate(4 243)">
<title>iop/debug</title>
<polygon fill="white" stroke="transparent" points="-4,4 -4,-243 394,-243 394,4 -4,4"/>
<g id="clust1" class="cluster">
<title>clusterdir_0981ace215aa2029f526b70c145b9fbe</title>
<g id="a_clust1"><a xlink:href="dir_0981ace215aa2029f526b70c145b9fbe.html" target="_top" xlink:title="iop">
<polygon fill="#deebf9" stroke="#404040" stroke-dasharray="5,2" points="8,-8 8,-231 328,-231 328,-8 8,-8"/>
<text text-anchor="middle" x="168" y="-219" font-family="Helvetica,sans-Serif" font-size="10.00">iop</text>
</a>
</g>
</g>
<g id="clust2" class="cluster">
<title>clusterdir_8494d76ae2586079db82d45fe3dd6aec</title>
<g id="a_clust2"><a xlink:href="dir_8494d76ae2586079db82d45fe3dd6aec.html" target="_top">
<polygon fill="#deebf9" stroke="#404040" stroke-width="2" points="16,-80 16,-204 320,-204 320,-80 16,-80"/>
</a>
</g>
</g>
<!-- dir_9be0baa3d4a3e9f480a9ee70594037fa -->
<g id="node1" class="node">
<title>dir_9be0baa3d4a3e9f480a9ee70594037fa</title>
<g id="a_node1"><a xlink:href="dir_9be0baa3d4a3e9f480a9ee70594037fa.html" target="_top" xlink:title="kernel">
<polygon fill="#60a2e3" stroke="red" points="169,-52 115,-52 115,-16 169,-16 169,-52"/>
<text text-anchor="middle" x="142" y="-31.5" font-family="Helvetica,sans-Serif" font-size="10.00">kernel</text>
</a>
</g>
</g>
<!-- dir_8494d76ae2586079db82d45fe3dd6aec -->
<g id="node2" class="node">
<title>dir_8494d76ae2586079db82d45fe3dd6aec</title>
<text text-anchor="middle" x="285" y="-175.5" font-family="Helvetica,sans-Serif" font-size="10.00">debug</text>
</g>
<!-- dir_2f080771f6205bbf07c3b5e6545bd3fa -->
<g id="node3" class="node">
<title>dir_2f080771f6205bbf07c3b5e6545bd3fa</title>
<g id="a_node3"><a xlink:href="dir_2f080771f6205bbf07c3b5e6545bd3fa.html" target="_top" xlink:title="iop_sbusdbg">
<polygon fill="#60a2e3" stroke="#404040" points="167.5,-196 96.5,-196 96.5,-160 167.5,-160 167.5,-196"/>
<text text-anchor="middle" x="132" y="-175.5" font-family="Helvetica,sans-Serif" font-size="10.00">iop_sbusdbg</text>
</a>
</g>
</g>
<!-- dir_2f080771f6205bbf07c3b5e6545bd3fa&#45;&gt;dir_9be0baa3d4a3e9f480a9ee70594037fa -->
<g id="edge2" class="edge">
<title>dir_2f080771f6205bbf07c3b5e6545bd3fa&#45;&gt;dir_9be0baa3d4a3e9f480a9ee70594037fa</title>
<path fill="none" stroke="black" d="M133.21,-159.87C134.91,-135.67 138.04,-91.21 140.07,-62.39"/>
<polygon fill="black" stroke="black" points="143.58,-62.41 140.79,-52.19 136.6,-61.92 143.58,-62.41"/>
<g id="a_edge2&#45;headlabel"><a xlink:href="dir_000152_000158.html" target="_top" xlink:title="30">
<text text-anchor="middle" x="146.16" y="-63.7" font-family="Helvetica,sans-Serif" font-size="10.00">30</text>
</a>
</g>
</g>
<!-- dir_b128a11f24e38182ade4e9889f6c5833 -->
<g id="node4" class="node">
<title>dir_b128a11f24e38182ade4e9889f6c5833</title>
<g id="a_node4"><a xlink:href="dir_b128a11f24e38182ade4e9889f6c5833.html" target="_top" xlink:title="iopdebug">
<polygon fill="#60a2e3" stroke="#404040" points="227,-124 171,-124 171,-88 227,-88 227,-124"/>
<text text-anchor="middle" x="199" y="-103.5" font-family="Helvetica,sans-Serif" font-size="10.00">iopdebug</text>
</a>
</g>
</g>
<!-- dir_2f080771f6205bbf07c3b5e6545bd3fa&#45;&gt;dir_b128a11f24e38182ade4e9889f6c5833 -->
<g id="edge3" class="edge">
<title>dir_2f080771f6205bbf07c3b5e6545bd3fa&#45;&gt;dir_b128a11f24e38182ade4e9889f6c5833</title>
<path fill="none" stroke="black" d="M148.56,-159.7C156.68,-151.22 166.59,-140.86 175.47,-131.58"/>
<polygon fill="black" stroke="black" points="178.24,-133.75 182.63,-124.1 173.19,-128.91 178.24,-133.75"/>
<g id="a_edge3&#45;headlabel"><a xlink:href="dir_000152_000153.html" target="_top" xlink:title="4">
<text text-anchor="middle" x="177.81" y="-135.81" font-family="Helvetica,sans-Serif" font-size="10.00">4</text>
</a>
</g>
</g>
<!-- dir_bdd9a5d540de89e9fe90efdfc6973a4f -->
<g id="node7" class="node">
<title>dir_bdd9a5d540de89e9fe90efdfc6973a4f</title>
<g id="a_node7"><a xlink:href="dir_bdd9a5d540de89e9fe90efdfc6973a4f.html" target="_top" xlink:title="common">
<polygon fill="none" stroke="red" points="390,-52 336,-52 336,-16 390,-16 390,-52"/>
<text text-anchor="middle" x="363" y="-31.5" font-family="Helvetica,sans-Serif" font-size="10.00">common</text>
</a>
</g>
</g>
<!-- dir_2f080771f6205bbf07c3b5e6545bd3fa&#45;&gt;dir_bdd9a5d540de89e9fe90efdfc6973a4f -->
<g id="edge1" class="edge">
<title>dir_2f080771f6205bbf07c3b5e6545bd3fa&#45;&gt;dir_bdd9a5d540de89e9fe90efdfc6973a4f</title>
<path fill="none" stroke="black" d="M167.81,-160.29C188.17,-150.41 213.94,-137.26 236,-124 270.21,-103.44 307.38,-76.84 332.62,-58.1"/>
<polygon fill="black" stroke="black" points="334.78,-60.85 340.7,-52.07 330.59,-55.25 334.78,-60.85"/>
<g id="a_edge1&#45;headlabel"><a xlink:href="dir_000152_000022.html" target="_top" xlink:title="13">
<text text-anchor="middle" x="333.6" y="-62.78" font-family="Helvetica,sans-Serif" font-size="10.00">13</text>
</a>
</g>
</g>
<!-- dir_b128a11f24e38182ade4e9889f6c5833&#45;&gt;dir_9be0baa3d4a3e9f480a9ee70594037fa -->
<g id="edge4" class="edge">
<title>dir_b128a11f24e38182ade4e9889f6c5833&#45;&gt;dir_9be0baa3d4a3e9f480a9ee70594037fa</title>
<path fill="none" stroke="black" d="M184.91,-87.7C178.08,-79.3 169.74,-69.07 162.24,-59.86"/>
<polygon fill="black" stroke="black" points="164.96,-57.65 155.93,-52.1 159.53,-62.07 164.96,-57.65"/>
<g id="a_edge4&#45;headlabel"><a xlink:href="dir_000153_000158.html" target="_top" xlink:title="18">
<text text-anchor="middle" x="169.43" y="-56.14" font-family="Helvetica,sans-Serif" font-size="10.00">18</text>
</a>
</g>
</g>
<!-- dir_b128a11f24e38182ade4e9889f6c5833&#45;&gt;dir_bdd9a5d540de89e9fe90efdfc6973a4f -->
<g id="edge5" class="edge">
<title>dir_b128a11f24e38182ade4e9889f6c5833&#45;&gt;dir_bdd9a5d540de89e9fe90efdfc6973a4f</title>
<path fill="none" stroke="black" d="M227.19,-94.91C252.28,-85.69 290.09,-71.18 326.49,-54.49"/>
<polygon fill="black" stroke="black" points="328.12,-57.59 335.71,-50.2 325.17,-51.25 328.12,-57.59"/>
<g id="a_edge5&#45;headlabel"><a xlink:href="dir_000153_000022.html" target="_top" xlink:title="7">
<text text-anchor="middle" x="326.06" y="-59.19" font-family="Helvetica,sans-Serif" font-size="10.00">7</text>
</a>
</g>
</g>
<!-- dir_43255a50c3a5642889795edf08bb8408 -->
<g id="node5" class="node">
<title>dir_43255a50c3a5642889795edf08bb8408</title>
<g id="a_node5"><a xlink:href="dir_43255a50c3a5642889795edf08bb8408.html" target="_top" xlink:title="ioptrap">
<polygon fill="#60a2e3" stroke="#404040" points="78,-196 24,-196 24,-160 78,-160 78,-196"/>
<text text-anchor="middle" x="51" y="-175.5" font-family="Helvetica,sans-Serif" font-size="10.00">ioptrap</text>
</a>
</g>
</g>
<!-- dir_43255a50c3a5642889795edf08bb8408&#45;&gt;dir_9be0baa3d4a3e9f480a9ee70594037fa -->
<g id="edge6" class="edge">
<title>dir_43255a50c3a5642889795edf08bb8408&#45;&gt;dir_9be0baa3d4a3e9f480a9ee70594037fa</title>
<path fill="none" stroke="black" d="M61.98,-159.87C77.76,-135.24 106.99,-89.64 125.41,-60.88"/>
<polygon fill="black" stroke="black" points="128.54,-62.5 130.98,-52.19 122.64,-58.72 128.54,-62.5"/>
<g id="a_edge6&#45;headlabel"><a xlink:href="dir_000156_000158.html" target="_top" xlink:title="17">
<text text-anchor="middle" x="128.99" y="-64.56" font-family="Helvetica,sans-Serif" font-size="10.00">17</text>
</a>
</g>
</g>
<!-- dir_1019ee746f7ebb462d4ffdfca40dcd8c -->
<g id="node6" class="node">
<title>dir_1019ee746f7ebb462d4ffdfca40dcd8c</title>
<g id="a_node6"><a xlink:href="dir_1019ee746f7ebb462d4ffdfca40dcd8c.html" target="_top" xlink:title="sior">
<polygon fill="#60a2e3" stroke="#404040" points="240,-196 186,-196 186,-160 240,-160 240,-196"/>
<text text-anchor="middle" x="213" y="-175.5" font-family="Helvetica,sans-Serif" font-size="10.00">sior</text>
</a>
</g>
</g>
<!-- dir_1019ee746f7ebb462d4ffdfca40dcd8c&#45;&gt;dir_9be0baa3d4a3e9f480a9ee70594037fa -->
<g id="edge7" class="edge">
<title>dir_1019ee746f7ebb462d4ffdfca40dcd8c&#45;&gt;dir_9be0baa3d4a3e9f480a9ee70594037fa</title>
<path fill="none" stroke="black" d="M191.78,-159.91C181.31,-150.4 169.38,-137.72 162,-124 151.65,-104.76 146.65,-80.42 144.23,-62.06"/>
<polygon fill="black" stroke="black" points="147.7,-61.56 143.09,-52.02 140.75,-62.35 147.7,-61.56"/>
<g id="a_edge7&#45;headlabel"><a xlink:href="dir_000216_000158.html" target="_top" xlink:title="11">
<text text-anchor="middle" x="150.93" y="-62.31" font-family="Helvetica,sans-Serif" font-size="10.00">11</text>
</a>
</g>
</g>
<!-- dir_1019ee746f7ebb462d4ffdfca40dcd8c&#45;&gt;dir_bdd9a5d540de89e9fe90efdfc6973a4f -->
<g id="edge8" class="edge">
<title>dir_1019ee746f7ebb462d4ffdfca40dcd8c&#45;&gt;dir_bdd9a5d540de89e9fe90efdfc6973a4f</title>
<path fill="none" stroke="black" d="M240.4,-162.83C263.31,-150.66 293.83,-133.6 304,-124 323.26,-105.82 339.4,-80.22 349.9,-61.13"/>
<polygon fill="black" stroke="black" points="353.11,-62.56 354.73,-52.09 346.93,-59.26 353.11,-62.56"/>
<g id="a_edge8&#45;headlabel"><a xlink:href="dir_000216_000022.html" target="_top" xlink:title="2">
<text text-anchor="middle" x="353.92" y="-64.57" font-family="Helvetica,sans-Serif" font-size="10.00">2</text>
</a>
</g>
</g>
</g>
</svg>
