<?xml version="1.0" encoding="UTF-8" standalone="no"?>
<!DOCTYPE svg PUBLIC "-//W3C//DTD SVG 1.1//EN"
 "http://www.w3.org/Graphics/SVG/1.1/DTD/svg11.dtd">
<!-- Generated by graphviz version 3.0.0 (20220413.0242)
 -->
<!-- Title: common/sbus Pages: 1 -->
<svg width="308pt" height="247pt"
 viewBox="0.00 0.00 308.00 247.00" xmlns="http://www.w3.org/2000/svg" xmlns:xlink="http://www.w3.org/1999/xlink">
<g id="graph0" class="graph" transform="scale(1 1) rotate(0) translate(4 243)">
<title>common/sbus</title>
<polygon fill="white" stroke="transparent" points="-4,4 -4,-243 304,-243 304,4 -4,4"/>
<g id="clust1" class="cluster">
<title>clusterdir_bdd9a5d540de89e9fe90efdfc6973a4f</title>
<g id="a_clust1"><a xlink:href="dir_bdd9a5d540de89e9fe90efdfc6973a4f.html" target="_top" xlink:title="common">
<polygon fill="#deebf9" stroke="#404040" stroke-dasharray="5,2" points="8,-8 8,-231 166,-231 166,-8 8,-8"/>
<text text-anchor="middle" x="87" y="-219" font-family="Helvetica,sans-Serif" font-size="10.00">common</text>
</a>
</g>
</g>
<g id="clust2" class="cluster">
<title>clusterdir_58a8fc8f1a03774579661b06bb97dd1a</title>
<g id="a_clust2"><a xlink:href="dir_58a8fc8f1a03774579661b06bb97dd1a.html" target="_top">
<polygon fill="#deebf9" stroke="#404040" stroke-width="2" points="16,-80 16,-204 158,-204 158,-80 16,-80"/>
</a>
</g>
</g>
<!-- dir_11fbc4217d50ab21044e5ad6614aede5 -->
<g id="node1" class="node">
<title>dir_11fbc4217d50ab21044e5ad6614aede5</title>
<g id="a_node1"><a xlink:href="dir_11fbc4217d50ab21044e5ad6614aede5.html" target="_top" xlink:title="include">
<polygon fill="#60a2e3" stroke="red" points="101,-52 47,-52 47,-16 101,-16 101,-52"/>
<text text-anchor="middle" x="74" y="-31.5" font-family="Helvetica,sans-Serif" font-size="10.00">include</text>
</a>
</g>
</g>
<!-- dir_58a8fc8f1a03774579661b06bb97dd1a -->
<g id="node2" class="node">
<title>dir_58a8fc8f1a03774579661b06bb97dd1a</title>
<text text-anchor="middle" x="123" y="-175.5" font-family="Helvetica,sans-Serif" font-size="10.00">sbus</text>
</g>
<!-- dir_71fde4f0207fc0e816aa54ff3c3cace1 -->
<g id="node3" class="node">
<title>dir_71fde4f0207fc0e816aa54ff3c3cace1</title>
<g id="a_node3"><a xlink:href="dir_71fde4f0207fc0e816aa54ff3c3cace1.html" target="_top" xlink:title="include">
<polygon fill="#60a2e3" stroke="#404040" points="78,-124 24,-124 24,-88 78,-88 78,-124"/>
<text text-anchor="middle" x="51" y="-103.5" font-family="Helvetica,sans-Serif" font-size="10.00">include</text>
</a>
</g>
</g>
<!-- dir_71fde4f0207fc0e816aa54ff3c3cace1&#45;&gt;dir_11fbc4217d50ab21044e5ad6614aede5 -->
<g id="edge1" class="edge">
<title>dir_71fde4f0207fc0e816aa54ff3c3cace1&#45;&gt;dir_11fbc4217d50ab21044e5ad6614aede5</title>
<path fill="none" stroke="black" d="M56.69,-87.7C59.25,-79.9 62.33,-70.51 65.18,-61.83"/>
<polygon fill="black" stroke="black" points="68.58,-62.7 68.38,-52.1 61.93,-60.51 68.58,-62.7"/>
<g id="a_edge1&#45;headlabel"><a xlink:href="dir_000063_000062.html" target="_top" xlink:title="2">
<text text-anchor="middle" x="70.16" y="-64.5" font-family="Helvetica,sans-Serif" font-size="10.00">2</text>
</a>
</g>
</g>
<!-- dir_b86d8e8cc4ff73a3835f86acf7570149 -->
<g id="node4" class="node">
<title>dir_b86d8e8cc4ff73a3835f86acf7570149</title>
<g id="a_node4"><a xlink:href="dir_b86d8e8cc4ff73a3835f86acf7570149.html" target="_top" xlink:title="src">
<polygon fill="#60a2e3" stroke="#404040" points="78,-196 24,-196 24,-160 78,-160 78,-196"/>
<text text-anchor="middle" x="51" y="-175.5" font-family="Helvetica,sans-Serif" font-size="10.00">src</text>
</a>
</g>
</g>
<!-- dir_b86d8e8cc4ff73a3835f86acf7570149&#45;&gt;dir_11fbc4217d50ab21044e5ad6614aede5 -->
<g id="edge4" class="edge">
<title>dir_b86d8e8cc4ff73a3835f86acf7570149&#45;&gt;dir_11fbc4217d50ab21044e5ad6614aede5</title>
<path fill="none" stroke="black" d="M66.61,-159.77C74.37,-150.03 82.95,-137.18 87,-124 93.28,-103.57 89.13,-79.54 83.9,-61.6"/>
<polygon fill="black" stroke="black" points="87.24,-60.53 80.86,-52.07 80.57,-62.66 87.24,-60.53"/>
<g id="a_edge4&#45;headlabel"><a xlink:href="dir_000221_000062.html" target="_top" xlink:title="18">
<text text-anchor="middle" x="91.03" y="-60.59" font-family="Helvetica,sans-Serif" font-size="10.00">18</text>
</a>
</g>
</g>
<!-- dir_b86d8e8cc4ff73a3835f86acf7570149&#45;&gt;dir_71fde4f0207fc0e816aa54ff3c3cace1 -->
<g id="edge5" class="edge">
<title>dir_b86d8e8cc4ff73a3835f86acf7570149&#45;&gt;dir_71fde4f0207fc0e816aa54ff3c3cace1</title>
<path fill="none" stroke="black" d="M51,-159.7C51,-151.98 51,-142.71 51,-134.11"/>
<polygon fill="black" stroke="black" points="54.5,-134.1 51,-124.1 47.5,-134.1 54.5,-134.1"/>
<g id="a_edge5&#45;headlabel"><a xlink:href="dir_000221_000063.html" target="_top" xlink:title="8">
<text text-anchor="middle" x="57.34" y="-135.2" font-family="Helvetica,sans-Serif" font-size="10.00">8</text>
</a>
</g>
</g>
<!-- dir_049738f1909e8dc3e45fe1f6b3faa109 -->
<g id="node5" class="node">
<title>dir_049738f1909e8dc3e45fe1f6b3faa109</title>
<g id="a_node5"><a xlink:href="dir_049738f1909e8dc3e45fe1f6b3faa109.html" target="_top" xlink:title="ee">
<polygon fill="none" stroke="red" points="228,-124 174,-124 174,-88 228,-88 228,-124"/>
<text text-anchor="middle" x="201" y="-103.5" font-family="Helvetica,sans-Serif" font-size="10.00">ee</text>
</a>
</g>
</g>
<!-- dir_b86d8e8cc4ff73a3835f86acf7570149&#45;&gt;dir_049738f1909e8dc3e45fe1f6b3faa109 -->
<g id="edge2" class="edge">
<title>dir_b86d8e8cc4ff73a3835f86acf7570149&#45;&gt;dir_049738f1909e8dc3e45fe1f6b3faa109</title>
<path fill="none" stroke="black" d="M78.12,-164.17C81.11,-162.76 84.12,-161.35 87,-160 112.94,-147.85 142.25,-134.22 164.65,-123.83"/>
<polygon fill="black" stroke="black" points="166.2,-126.97 173.8,-119.59 163.25,-120.62 166.2,-126.97"/>
<g id="a_edge2&#45;headlabel"><a xlink:href="dir_000221_000038.html" target="_top" xlink:title="1">
<text text-anchor="middle" x="164.13" y="-128.56" font-family="Helvetica,sans-Serif" font-size="10.00">1</text>
</a>
</g>
</g>
<!-- dir_0981ace215aa2029f526b70c145b9fbe -->
<g id="node6" class="node">
<title>dir_0981ace215aa2029f526b70c145b9fbe</title>
<g id="a_node6"><a xlink:href="dir_0981ace215aa2029f526b70c145b9fbe.html" target="_top" xlink:title="iop">
<polygon fill="none" stroke="red" points="300,-124 246,-124 246,-88 300,-88 300,-124"/>
<text text-anchor="middle" x="273" y="-103.5" font-family="Helvetica,sans-Serif" font-size="10.00">iop</text>
</a>
</g>
</g>
<!-- dir_b86d8e8cc4ff73a3835f86acf7570149&#45;&gt;dir_0981ace215aa2029f526b70c145b9fbe -->
<g id="edge3" class="edge">
<title>dir_b86d8e8cc4ff73a3835f86acf7570149&#45;&gt;dir_0981ace215aa2029f526b70c145b9fbe</title>
<path fill="none" stroke="black" d="M78.27,-163.41C81.19,-162.17 84.13,-161.01 87,-160 148.77,-138.26 170.38,-145.97 236.15,-123.91"/>
<polygon fill="black" stroke="black" points="237.42,-127.17 245.73,-120.59 235.13,-120.55 237.42,-127.17"/>
<g id="a_edge3&#45;headlabel"><a xlink:href="dir_000221_000151.html" target="_top" xlink:title="18">
<text text-anchor="middle" x="234.95" y="-128.53" font-family="Helvetica,sans-Serif" font-size="10.00">18</text>
</a>
</g>
</g>
</g>
</svg>
