<?xml version="1.0" encoding="UTF-8" standalone="no"?>
<!DOCTYPE svg PUBLIC "-//W3C//DTD SVG 1.1//EN"
 "http://www.w3.org/Graphics/SVG/1.1/DTD/svg11.dtd">
<!-- Generated by graphviz version 3.0.0 (20220413.0242)
 -->
<!-- Title: ee/elf&#45;loader/src Pages: 1 -->
<svg width="230pt" height="159pt"
 viewBox="0.00 0.00 230.00 159.00" xmlns="http://www.w3.org/2000/svg" xmlns:xlink="http://www.w3.org/1999/xlink">
<g id="graph0" class="graph" transform="scale(1 1) rotate(0) translate(4 155)">
<title>ee/elf&#45;loader/src</title>
<polygon fill="white" stroke="transparent" points="-4,4 -4,-155 226,-155 226,4 -4,4"/>
<g id="clust1" class="cluster">
<title>clusterdir_e299e00cada893e7503c7ad35bb90f27</title>
<g id="a_clust1"><a xlink:href="dir_e299e00cada893e7503c7ad35bb90f27.html" target="_top" xlink:title="elf&#45;loader">
<polygon fill="#deebf9" stroke="#7f7f7f" stroke-dasharray="5,2" points="8,-56 8,-143 166,-143 166,-56 8,-56"/>
<text text-anchor="middle" x="87" y="-131" font-family="Helvetica,sans-Serif" font-size="10.00">elf&#45;loader</text>
</a>
</g>
</g>
<g id="clust2" class="cluster">
<title>clusterdir_c2745311b335edcded8abb10f5a23735</title>
<g id="a_clust2"><a xlink:href="dir_c2745311b335edcded8abb10f5a23735.html" target="_top">
<polygon fill="#deebf9" stroke="#404040" stroke-width="2" points="16,-64 16,-116 158,-116 158,-64 16,-64"/>
</a>
</g>
</g>
<!-- dir_c2745311b335edcded8abb10f5a23735 -->
<g id="node1" class="node">
<title>dir_c2745311b335edcded8abb10f5a23735</title>
<text text-anchor="middle" x="51" y="-87.5" font-family="Helvetica,sans-Serif" font-size="10.00">src</text>
</g>
<!-- dir_694ec83a64f58cbdefbefce65cd1011c -->
<g id="node4" class="node">
<title>dir_694ec83a64f58cbdefbefce65cd1011c</title>
<g id="a_node4"><a xlink:href="dir_694ec83a64f58cbdefbefce65cd1011c.html" target="_top" xlink:title="kernel">
<polygon fill="none" stroke="red" stroke-dasharray="5,2" points="78,-36 24,-36 24,0 78,0 78,-36"/>
<text text-anchor="middle" x="51" y="-15.5" font-family="Helvetica,sans-Serif" font-size="10.00">kernel</text>
</a>
</g>
</g>
<!-- dir_c2745311b335edcded8abb10f5a23735&#45;&gt;dir_694ec83a64f58cbdefbefce65cd1011c -->
<g id="edge1" class="edge">
<title>dir_c2745311b335edcded8abb10f5a23735&#45;&gt;dir_694ec83a64f58cbdefbefce65cd1011c</title>
<path fill="none" stroke="black" d="M51,-71.7C51,-63.98 51,-54.71 51,-46.11"/>
<polygon fill="black" stroke="black" points="54.5,-46.1 51,-36.1 47.5,-46.1 54.5,-46.1"/>
<g id="a_edge1&#45;headlabel"><a xlink:href="dir_000226_000157.html" target="_top" xlink:title="4">
<text text-anchor="middle" x="57.34" y="-47.2" font-family="Helvetica,sans-Serif" font-size="10.00">4</text>
</a>
</g>
</g>
<!-- dir_bdd9a5d540de89e9fe90efdfc6973a4f -->
<g id="node5" class="node">
<title>dir_bdd9a5d540de89e9fe90efdfc6973a4f</title>
<g id="a_node5"><a xlink:href="dir_bdd9a5d540de89e9fe90efdfc6973a4f.html" target="_top" xlink:title="common">
<polygon fill="none" stroke="red" points="150,-36 96,-36 96,0 150,0 150,-36"/>
<text text-anchor="middle" x="123" y="-15.5" font-family="Helvetica,sans-Serif" font-size="10.00">common</text>
</a>
</g>
</g>
<!-- dir_c2745311b335edcded8abb10f5a23735&#45;&gt;dir_bdd9a5d540de89e9fe90efdfc6973a4f -->
<g id="edge2" class="edge">
<title>dir_c2745311b335edcded8abb10f5a23735&#45;&gt;dir_bdd9a5d540de89e9fe90efdfc6973a4f</title>
<path fill="none" stroke="black" d="M68.8,-71.7C77.6,-63.14 88.38,-52.66 98,-43.3"/>
<polygon fill="black" stroke="black" points="100.68,-45.58 105.41,-36.1 95.8,-40.57 100.68,-45.58"/>
<g id="a_edge2&#45;headlabel"><a xlink:href="dir_000226_000022.html" target="_top" xlink:title="2">
<text text-anchor="middle" x="100.08" y="-47.63" font-family="Helvetica,sans-Serif" font-size="10.00">2</text>
</a>
</g>
</g>
<!-- dir_a823facde94c6bc1001721fbc16ab82f -->
<g id="node2" class="node">
<title>dir_a823facde94c6bc1001721fbc16ab82f</title>
<g id="a_node2"><a xlink:href="dir_a823facde94c6bc1001721fbc16ab82f.html" target="_top" xlink:title="loader">
<polygon fill="#60a2e3" stroke="#404040" points="150,-108 96,-108 96,-72 150,-72 150,-108"/>
<text text-anchor="middle" x="123" y="-87.5" font-family="Helvetica,sans-Serif" font-size="10.00">loader</text>
</a>
</g>
</g>
<!-- dir_0981ace215aa2029f526b70c145b9fbe -->
<g id="node3" class="node">
<title>dir_0981ace215aa2029f526b70c145b9fbe</title>
<g id="a_node3"><a xlink:href="dir_0981ace215aa2029f526b70c145b9fbe.html" target="_top" xlink:title="iop">
<polygon fill="none" stroke="red" points="222,-36 168,-36 168,0 222,0 222,-36"/>
<text text-anchor="middle" x="195" y="-15.5" font-family="Helvetica,sans-Serif" font-size="10.00">iop</text>
</a>
</g>
</g>
<!-- dir_a823facde94c6bc1001721fbc16ab82f&#45;&gt;dir_0981ace215aa2029f526b70c145b9fbe -->
<g id="edge3" class="edge">
<title>dir_a823facde94c6bc1001721fbc16ab82f&#45;&gt;dir_0981ace215aa2029f526b70c145b9fbe</title>
<path fill="none" stroke="black" d="M140.8,-71.7C149.6,-63.14 160.38,-52.66 170,-43.3"/>
<polygon fill="black" stroke="black" points="172.68,-45.58 177.41,-36.1 167.8,-40.57 172.68,-45.58"/>
<g id="a_edge3&#45;headlabel"><a xlink:href="dir_000169_000151.html" target="_top" xlink:title="1">
<text text-anchor="middle" x="172.08" y="-47.63" font-family="Helvetica,sans-Serif" font-size="10.00">1</text>
</a>
</g>
</g>
<!-- dir_a823facde94c6bc1001721fbc16ab82f&#45;&gt;dir_694ec83a64f58cbdefbefce65cd1011c -->
<g id="edge4" class="edge">
<title>dir_a823facde94c6bc1001721fbc16ab82f&#45;&gt;dir_694ec83a64f58cbdefbefce65cd1011c</title>
<path fill="none" stroke="black" d="M105.2,-71.7C96.4,-63.14 85.62,-52.66 76,-43.3"/>
<polygon fill="black" stroke="black" points="78.2,-40.57 68.59,-36.1 73.32,-45.58 78.2,-40.57"/>
<g id="a_edge4&#45;headlabel"><a xlink:href="dir_000169_000157.html" target="_top" xlink:title="3">
<text text-anchor="middle" x="82.76" y="-38.54" font-family="Helvetica,sans-Serif" font-size="10.00">3</text>
</a>
</g>
</g>
<!-- dir_a823facde94c6bc1001721fbc16ab82f&#45;&gt;dir_bdd9a5d540de89e9fe90efdfc6973a4f -->
<g id="edge5" class="edge">
<title>dir_a823facde94c6bc1001721fbc16ab82f&#45;&gt;dir_bdd9a5d540de89e9fe90efdfc6973a4f</title>
<path fill="none" stroke="black" d="M123,-71.7C123,-63.98 123,-54.71 123,-46.11"/>
<polygon fill="black" stroke="black" points="126.5,-46.1 123,-36.1 119.5,-46.1 126.5,-46.1"/>
<g id="a_edge5&#45;headlabel"><a xlink:href="dir_000169_000022.html" target="_top" xlink:title="1">
<text text-anchor="middle" x="129.34" y="-47.2" font-family="Helvetica,sans-Serif" font-size="10.00">1</text>
</a>
</g>
</g>
</g>
</svg>
