<?xml version="1.0" encoding="UTF-8" standalone="no"?>
<!DOCTYPE svg PUBLIC "-//W3C//DTD SVG 1.1//EN"
 "http://www.w3.org/Graphics/SVG/1.1/DTD/svg11.dtd">
<!-- Generated by graphviz version 3.0.0 (20220413.0242)
 -->
<!-- Title: iop/fs/libbdm Pages: 1 -->
<svg width="236pt" height="247pt"
 viewBox="0.00 0.00 236.00 247.00" xmlns="http://www.w3.org/2000/svg" xmlns:xlink="http://www.w3.org/1999/xlink">
<g id="graph0" class="graph" transform="scale(1 1) rotate(0) translate(4 243)">
<title>iop/fs/libbdm</title>
<polygon fill="white" stroke="transparent" points="-4,4 -4,-243 232,-243 232,4 -4,4"/>
<g id="clust1" class="cluster">
<title>clusterdir_f24daea2522ffa8b6dc5fa9cdf5b8f5c</title>
<g id="a_clust1"><a xlink:href="dir_f24daea2522ffa8b6dc5fa9cdf5b8f5c.html" target="_top" xlink:title="fs">
<polygon fill="#deebf9" stroke="#7f7f7f" stroke-dasharray="5,2" points="8,-8 8,-231 166,-231 166,-8 8,-8"/>
<text text-anchor="middle" x="87" y="-219" font-family="Helvetica,sans-Serif" font-size="10.00">fs</text>
</a>
</g>
</g>
<g id="clust2" class="cluster">
<title>clusterdir_10cce8191a2d4629e92aaca1231c0797</title>
<g id="a_clust2"><a xlink:href="dir_10cce8191a2d4629e92aaca1231c0797.html" target="_top">
<polygon fill="#deebf9" stroke="#404040" stroke-width="2" points="16,-80 16,-204 158,-204 158,-80 16,-80"/>
</a>
</g>
</g>
<!-- dir_0134b0376fbe77322088b496fb368f9b -->
<g id="node1" class="node">
<title>dir_0134b0376fbe77322088b496fb368f9b</title>
<g id="a_node1"><a xlink:href="dir_0134b0376fbe77322088b496fb368f9b.html" target="_top" xlink:title="bdm">
<polygon fill="#60a2e3" stroke="red" points="114,-52 60,-52 60,-16 114,-16 114,-52"/>
<text text-anchor="middle" x="87" y="-31.5" font-family="Helvetica,sans-Serif" font-size="10.00">bdm</text>
</a>
</g>
</g>
<!-- dir_10cce8191a2d4629e92aaca1231c0797 -->
<g id="node2" class="node">
<title>dir_10cce8191a2d4629e92aaca1231c0797</title>
<text text-anchor="middle" x="123" y="-175.5" font-family="Helvetica,sans-Serif" font-size="10.00">libbdm</text>
</g>
<!-- dir_79cc41b78d650d94271256f66f3b3a8f -->
<g id="node3" class="node">
<title>dir_79cc41b78d650d94271256f66f3b3a8f</title>
<g id="a_node3"><a xlink:href="dir_79cc41b78d650d94271256f66f3b3a8f.html" target="_top" xlink:title="include">
<polygon fill="#60a2e3" stroke="#404040" points="114,-124 60,-124 60,-88 114,-88 114,-124"/>
<text text-anchor="middle" x="87" y="-103.5" font-family="Helvetica,sans-Serif" font-size="10.00">include</text>
</a>
</g>
</g>
<!-- dir_79cc41b78d650d94271256f66f3b3a8f&#45;&gt;dir_0134b0376fbe77322088b496fb368f9b -->
<g id="edge1" class="edge">
<title>dir_79cc41b78d650d94271256f66f3b3a8f&#45;&gt;dir_0134b0376fbe77322088b496fb368f9b</title>
<path fill="none" stroke="black" d="M87,-87.7C87,-79.98 87,-70.71 87,-62.11"/>
<polygon fill="black" stroke="black" points="90.5,-62.1 87,-52.1 83.5,-62.1 90.5,-62.1"/>
<g id="a_edge1&#45;headlabel"><a xlink:href="dir_000115_000011.html" target="_top" xlink:title="1">
<text text-anchor="middle" x="93.34" y="-63.2" font-family="Helvetica,sans-Serif" font-size="10.00">1</text>
</a>
</g>
</g>
<!-- dir_bdd9a5d540de89e9fe90efdfc6973a4f -->
<g id="node6" class="node">
<title>dir_bdd9a5d540de89e9fe90efdfc6973a4f</title>
<g id="a_node6"><a xlink:href="dir_bdd9a5d540de89e9fe90efdfc6973a4f.html" target="_top" xlink:title="common">
<polygon fill="none" stroke="red" points="228,-52 174,-52 174,-16 228,-16 228,-52"/>
<text text-anchor="middle" x="201" y="-31.5" font-family="Helvetica,sans-Serif" font-size="10.00">common</text>
</a>
</g>
</g>
<!-- dir_79cc41b78d650d94271256f66f3b3a8f&#45;&gt;dir_bdd9a5d540de89e9fe90efdfc6973a4f -->
<g id="edge2" class="edge">
<title>dir_79cc41b78d650d94271256f66f3b3a8f&#45;&gt;dir_bdd9a5d540de89e9fe90efdfc6973a4f</title>
<path fill="none" stroke="black" d="M114.02,-88.41C129.24,-79.06 148.45,-67.27 164.94,-57.14"/>
<polygon fill="black" stroke="black" points="167.09,-59.93 173.78,-51.71 163.43,-53.96 167.09,-59.93"/>
<g id="a_edge2&#45;headlabel"><a xlink:href="dir_000115_000022.html" target="_top" xlink:title="2">
<text text-anchor="middle" x="165.51" y="-61.73" font-family="Helvetica,sans-Serif" font-size="10.00">2</text>
</a>
</g>
</g>
<!-- dir_180e179e842835315c1a0a2fde604530 -->
<g id="node4" class="node">
<title>dir_180e179e842835315c1a0a2fde604530</title>
<g id="a_node4"><a xlink:href="dir_180e179e842835315c1a0a2fde604530.html" target="_top" xlink:title="src">
<polygon fill="#60a2e3" stroke="#404040" points="78,-196 24,-196 24,-160 78,-160 78,-196"/>
<text text-anchor="middle" x="51" y="-175.5" font-family="Helvetica,sans-Serif" font-size="10.00">src</text>
</a>
</g>
</g>
<!-- dir_180e179e842835315c1a0a2fde604530&#45;&gt;dir_79cc41b78d650d94271256f66f3b3a8f -->
<g id="edge3" class="edge">
<title>dir_180e179e842835315c1a0a2fde604530&#45;&gt;dir_79cc41b78d650d94271256f66f3b3a8f</title>
<path fill="none" stroke="black" d="M59.9,-159.7C64,-151.73 68.95,-142.1 73.49,-133.26"/>
<polygon fill="black" stroke="black" points="76.74,-134.6 78.2,-124.1 70.52,-131.4 76.74,-134.6"/>
<g id="a_edge3&#45;headlabel"><a xlink:href="dir_000288_000115.html" target="_top" xlink:title="1">
<text text-anchor="middle" x="77.62" y="-136.59" font-family="Helvetica,sans-Serif" font-size="10.00">1</text>
</a>
</g>
</g>
<!-- dir_9be0baa3d4a3e9f480a9ee70594037fa -->
<g id="node5" class="node">
<title>dir_9be0baa3d4a3e9f480a9ee70594037fa</title>
<g id="a_node5"><a xlink:href="dir_9be0baa3d4a3e9f480a9ee70594037fa.html" target="_top" xlink:title="kernel">
<polygon fill="none" stroke="red" stroke-dasharray="5,2" points="228,-124 174,-124 174,-88 228,-88 228,-124"/>
<text text-anchor="middle" x="201" y="-103.5" font-family="Helvetica,sans-Serif" font-size="10.00">kernel</text>
</a>
</g>
</g>
<!-- dir_180e179e842835315c1a0a2fde604530&#45;&gt;dir_9be0baa3d4a3e9f480a9ee70594037fa -->
<g id="edge4" class="edge">
<title>dir_180e179e842835315c1a0a2fde604530&#45;&gt;dir_9be0baa3d4a3e9f480a9ee70594037fa</title>
<path fill="none" stroke="black" d="M78.12,-164.17C81.11,-162.76 84.12,-161.35 87,-160 112.94,-147.85 142.25,-134.22 164.65,-123.83"/>
<polygon fill="black" stroke="black" points="166.2,-126.97 173.8,-119.59 163.25,-120.62 166.2,-126.97"/>
<g id="a_edge4&#45;headlabel"><a xlink:href="dir_000288_000158.html" target="_top" xlink:title="1">
<text text-anchor="middle" x="164.13" y="-128.56" font-family="Helvetica,sans-Serif" font-size="10.00">1</text>
</a>
</g>
</g>
</g>
</svg>
