<?xml version="1.0" encoding="UTF-8" standalone="no"?>
<!DOCTYPE svg PUBLIC "-//W3C//DTD SVG 1.1//EN"
 "http://www.w3.org/Graphics/SVG/1.1/DTD/svg11.dtd">
<!-- Generated by graphviz version 3.0.0 (20220413.0242)
 -->
<!-- Title: iop Pages: 1 -->
<svg width="883pt" height="292pt"
 viewBox="0.00 0.00 882.64 292.00" xmlns="http://www.w3.org/2000/svg" xmlns:xlink="http://www.w3.org/1999/xlink">
<g id="graph0" class="graph" transform="scale(1 1) rotate(0) translate(4 288)">
<title>iop</title>
<polygon fill="white" stroke="transparent" points="-4,4 -4,-288 878.64,-288 878.64,4 -4,4"/>
<g id="clust1" class="cluster">
<title>clusterdir_0981ace215aa2029f526b70c145b9fbe</title>
<g id="a_clust1"><a xlink:href="dir_0981ace215aa2029f526b70c145b9fbe.html" target="_top">
<polygon fill="#deebf9" stroke="#404040" stroke-width="2" points="8,-8 8,-276 666,-276 666,-8 8,-8"/>
</a>
</g>
</g>
<!-- dir_0981ace215aa2029f526b70c145b9fbe -->
<g id="node1" class="node">
<title>dir_0981ace215aa2029f526b70c145b9fbe</title>
<text text-anchor="middle" x="578" y="-247.5" font-family="Helvetica,sans-Serif" font-size="10.00">iop</text>
</g>
<!-- dir_a12d8da7b0731a57c6a388326ad5e612 -->
<g id="node2" class="node">
<title>dir_a12d8da7b0731a57c6a388326ad5e612</title>
<g id="a_node2"><a xlink:href="dir_a12d8da7b0731a57c6a388326ad5e612.html" target="_top" xlink:title="cdvd">
<polygon fill="#60a2e3" stroke="#404040" points="586,-196 532,-196 532,-160 586,-160 586,-196"/>
<text text-anchor="middle" x="559" y="-175.5" font-family="Helvetica,sans-Serif" font-size="10.00">cdvd</text>
</a>
</g>
</g>
<!-- dir_9be0baa3d4a3e9f480a9ee70594037fa -->
<g id="node9" class="node">
<title>dir_9be0baa3d4a3e9f480a9ee70594037fa</title>
<g id="a_node9"><a xlink:href="dir_9be0baa3d4a3e9f480a9ee70594037fa.html" target="_top" xlink:title="kernel">
<polygon fill="#60a2e3" stroke="#404040" points="285,-124 231,-124 231,-88 285,-88 285,-124"/>
<text text-anchor="middle" x="258" y="-103.5" font-family="Helvetica,sans-Serif" font-size="10.00">kernel</text>
</a>
</g>
</g>
<!-- dir_a12d8da7b0731a57c6a388326ad5e612&#45;&gt;dir_9be0baa3d4a3e9f480a9ee70594037fa -->
<g id="edge1" class="edge">
<title>dir_a12d8da7b0731a57c6a388326ad5e612&#45;&gt;dir_9be0baa3d4a3e9f480a9ee70594037fa</title>
<path fill="none" stroke="black" d="M531.77,-163.3C528.85,-162.08 525.89,-160.95 523,-160 444.02,-133.89 347.34,-118.53 295.35,-111.55"/>
<polygon fill="black" stroke="black" points="295.64,-108.05 285.27,-110.22 294.73,-114.99 295.64,-108.05"/>
<g id="a_edge1&#45;headlabel"><a xlink:href="dir_000021_000158.html" target="_top" xlink:title="15">
<text text-anchor="middle" x="299.57" y="-103.21" font-family="Helvetica,sans-Serif" font-size="10.00">15</text>
</a>
</g>
</g>
<!-- dir_bdd9a5d540de89e9fe90efdfc6973a4f -->
<g id="node17" class="node">
<title>dir_bdd9a5d540de89e9fe90efdfc6973a4f</title>
<g id="a_node17"><a xlink:href="dir_bdd9a5d540de89e9fe90efdfc6973a4f.html" target="_top" xlink:title="common">
<polygon fill="none" stroke="red" points="728,-52 674,-52 674,-16 728,-16 728,-52"/>
<text text-anchor="middle" x="701" y="-31.5" font-family="Helvetica,sans-Serif" font-size="10.00">common</text>
</a>
</g>
</g>
<!-- dir_a12d8da7b0731a57c6a388326ad5e612&#45;&gt;dir_bdd9a5d540de89e9fe90efdfc6973a4f -->
<g id="edge2" class="edge">
<title>dir_a12d8da7b0731a57c6a388326ad5e612&#45;&gt;dir_bdd9a5d540de89e9fe90efdfc6973a4f</title>
<path fill="none" stroke="black" d="M576.13,-159.87C601.18,-134.82 647.95,-88.05 676.59,-59.41"/>
<polygon fill="black" stroke="black" points="679.21,-61.74 683.81,-52.19 674.26,-56.79 679.21,-61.74"/>
<g id="a_edge2&#45;headlabel"><a xlink:href="dir_000021_000022.html" target="_top" xlink:title="2">
<text text-anchor="middle" x="678.68" y="-63.78" font-family="Helvetica,sans-Serif" font-size="10.00">2</text>
</a>
</g>
</g>
<!-- dir_8494d76ae2586079db82d45fe3dd6aec -->
<g id="node3" class="node">
<title>dir_8494d76ae2586079db82d45fe3dd6aec</title>
<g id="a_node3"><a xlink:href="dir_8494d76ae2586079db82d45fe3dd6aec.html" target="_top" xlink:title="debug">
<polygon fill="#60a2e3" stroke="#404040" points="658,-196 604,-196 604,-160 658,-160 658,-196"/>
<text text-anchor="middle" x="631" y="-175.5" font-family="Helvetica,sans-Serif" font-size="10.00">debug</text>
</a>
</g>
</g>
<!-- dir_8494d76ae2586079db82d45fe3dd6aec&#45;&gt;dir_9be0baa3d4a3e9f480a9ee70594037fa -->
<g id="edge4" class="edge">
<title>dir_8494d76ae2586079db82d45fe3dd6aec&#45;&gt;dir_9be0baa3d4a3e9f480a9ee70594037fa</title>
<path fill="none" stroke="black" d="M603.8,-163.17C600.88,-161.98 597.91,-160.89 595,-160 489.32,-127.47 358.54,-114.2 295.48,-109.4"/>
<polygon fill="black" stroke="black" points="295.47,-105.89 285.24,-108.65 294.95,-112.87 295.47,-105.89"/>
<g id="a_edge4&#45;headlabel"><a xlink:href="dir_000025_000158.html" target="_top" xlink:title="76">
<text text-anchor="middle" x="299.26" y="-100.82" font-family="Helvetica,sans-Serif" font-size="10.00">76</text>
</a>
</g>
</g>
<!-- dir_8494d76ae2586079db82d45fe3dd6aec&#45;&gt;dir_bdd9a5d540de89e9fe90efdfc6973a4f -->
<g id="edge3" class="edge">
<title>dir_8494d76ae2586079db82d45fe3dd6aec&#45;&gt;dir_bdd9a5d540de89e9fe90efdfc6973a4f</title>
<path fill="none" stroke="black" d="M638.51,-159.77C646.48,-141.72 659.61,-112.62 672,-88 676.5,-79.06 681.68,-69.41 686.4,-60.83"/>
<polygon fill="black" stroke="black" points="689.5,-62.47 691.29,-52.03 683.38,-59.07 689.5,-62.47"/>
<g id="a_edge3&#45;headlabel"><a xlink:href="dir_000025_000022.html" target="_top" xlink:title="22">
<text text-anchor="middle" x="690.23" y="-64.49" font-family="Helvetica,sans-Serif" font-size="10.00">22</text>
</a>
</g>
</g>
<!-- dir_6f16cad81de2453a6f48c5e272ba4a18 -->
<g id="node4" class="node">
<title>dir_6f16cad81de2453a6f48c5e272ba4a18</title>
<g id="a_node4"><a xlink:href="dir_6f16cad81de2453a6f48c5e272ba4a18.html" target="_top" xlink:title="dev9">
<polygon fill="#60a2e3" stroke="#404040" points="350,-196 296,-196 296,-160 350,-160 350,-196"/>
<text text-anchor="middle" x="323" y="-175.5" font-family="Helvetica,sans-Serif" font-size="10.00">dev9</text>
</a>
</g>
</g>
<!-- dir_6f16cad81de2453a6f48c5e272ba4a18&#45;&gt;dir_9be0baa3d4a3e9f480a9ee70594037fa -->
<g id="edge5" class="edge">
<title>dir_6f16cad81de2453a6f48c5e272ba4a18&#45;&gt;dir_9be0baa3d4a3e9f480a9ee70594037fa</title>
<path fill="none" stroke="black" d="M306.93,-159.7C299.06,-151.22 289.44,-140.86 280.83,-131.58"/>
<polygon fill="black" stroke="black" points="283.25,-129.05 273.88,-124.1 278.12,-133.81 283.25,-129.05"/>
<g id="a_edge5&#45;headlabel"><a xlink:href="dir_000026_000158.html" target="_top" xlink:title="97">
<text text-anchor="middle" x="287.78" y="-127.25" font-family="Helvetica,sans-Serif" font-size="10.00">97</text>
</a>
</g>
</g>
<!-- dir_6f16cad81de2453a6f48c5e272ba4a18&#45;&gt;dir_bdd9a5d540de89e9fe90efdfc6973a4f -->
<g id="edge6" class="edge">
<title>dir_6f16cad81de2453a6f48c5e272ba4a18&#45;&gt;dir_bdd9a5d540de89e9fe90efdfc6973a4f</title>
<path fill="none" stroke="black" d="M348.37,-159.92C379.48,-139.75 434.45,-106.61 486,-88 561.16,-60.86 589.33,-78.76 663.99,-53.92"/>
<polygon fill="black" stroke="black" points="665.54,-57.09 673.83,-50.49 663.24,-50.48 665.54,-57.09"/>
<g id="a_edge6&#45;headlabel"><a xlink:href="dir_000026_000022.html" target="_top" xlink:title="13">
<text text-anchor="middle" x="663.08" y="-58.45" font-family="Helvetica,sans-Serif" font-size="10.00">13</text>
</a>
</g>
</g>
<!-- dir_a16ad4cba4b1f15056f2b7b0b5931815 -->
<g id="node5" class="node">
<title>dir_a16ad4cba4b1f15056f2b7b0b5931815</title>
<g id="a_node5"><a xlink:href="dir_a16ad4cba4b1f15056f2b7b0b5931815.html" target="_top" xlink:title="dvrp">
<polygon fill="#60a2e3" stroke="#404040" points="408,-268 354,-268 354,-232 408,-232 408,-268"/>
<text text-anchor="middle" x="381" y="-247.5" font-family="Helvetica,sans-Serif" font-size="10.00">dvrp</text>
</a>
</g>
</g>
<!-- dir_a16ad4cba4b1f15056f2b7b0b5931815&#45;&gt;dir_6f16cad81de2453a6f48c5e272ba4a18 -->
<g id="edge8" class="edge">
<title>dir_a16ad4cba4b1f15056f2b7b0b5931815&#45;&gt;dir_6f16cad81de2453a6f48c5e272ba4a18</title>
<path fill="none" stroke="black" d="M366.66,-231.7C359.71,-223.3 351.23,-213.07 343.6,-203.86"/>
<polygon fill="black" stroke="black" points="346.25,-201.57 337.17,-196.1 340.86,-206.04 346.25,-201.57"/>
<g id="a_edge8&#45;headlabel"><a xlink:href="dir_000037_000026.html" target="_top" xlink:title="12">
<text text-anchor="middle" x="350.73" y="-200.03" font-family="Helvetica,sans-Serif" font-size="10.00">12</text>
</a>
</g>
</g>
<!-- dir_a16ad4cba4b1f15056f2b7b0b5931815&#45;&gt;dir_9be0baa3d4a3e9f480a9ee70594037fa -->
<g id="edge7" class="edge">
<title>dir_a16ad4cba4b1f15056f2b7b0b5931815&#45;&gt;dir_9be0baa3d4a3e9f480a9ee70594037fa</title>
<path fill="none" stroke="black" d="M353.75,-234.93C327.73,-221.29 291.78,-201.83 287,-196 282.95,-191.05 272.9,-158.5 265.78,-134.19"/>
<polygon fill="black" stroke="black" points="269.08,-133.01 262.93,-124.38 262.35,-134.96 269.08,-133.01"/>
<g id="a_edge7&#45;headlabel"><a xlink:href="dir_000037_000158.html" target="_top" xlink:title="65">
<text text-anchor="middle" x="272.81" y="-133.16" font-family="Helvetica,sans-Serif" font-size="10.00">65</text>
</a>
</g>
</g>
<!-- dir_a16ad4cba4b1f15056f2b7b0b5931815&#45;&gt;dir_bdd9a5d540de89e9fe90efdfc6973a4f -->
<g id="edge9" class="edge">
<title>dir_a16ad4cba4b1f15056f2b7b0b5931815&#45;&gt;dir_bdd9a5d540de89e9fe90efdfc6973a4f</title>
<path fill="none" stroke="black" d="M408.14,-234.98C411.08,-233.83 414.07,-232.8 417,-232 502.47,-208.73 754.26,-261.41 814,-196 846.37,-160.56 839.75,-128.51 814,-88 797.43,-61.93 764.27,-48.46 738.13,-41.64"/>
<polygon fill="black" stroke="black" points="738.69,-38.17 728.15,-39.26 737.07,-44.98 738.69,-38.17"/>
<g id="a_edge9&#45;headlabel"><a xlink:href="dir_000037_000022.html" target="_top" xlink:title="12">
<text text-anchor="middle" x="742.85" y="-33.74" font-family="Helvetica,sans-Serif" font-size="10.00">12</text>
</a>
</g>
</g>
<!-- dir_f24daea2522ffa8b6dc5fa9cdf5b8f5c -->
<g id="node6" class="node">
<title>dir_f24daea2522ffa8b6dc5fa9cdf5b8f5c</title>
<g id="a_node6"><a xlink:href="dir_f24daea2522ffa8b6dc5fa9cdf5b8f5c.html" target="_top" xlink:title="fs">
<polygon fill="#60a2e3" stroke="#404040" points="218,-196 164,-196 164,-160 218,-160 218,-196"/>
<text text-anchor="middle" x="191" y="-175.5" font-family="Helvetica,sans-Serif" font-size="10.00">fs</text>
</a>
</g>
</g>
<!-- dir_f24daea2522ffa8b6dc5fa9cdf5b8f5c&#45;&gt;dir_9be0baa3d4a3e9f480a9ee70594037fa -->
<g id="edge10" class="edge">
<title>dir_f24daea2522ffa8b6dc5fa9cdf5b8f5c&#45;&gt;dir_9be0baa3d4a3e9f480a9ee70594037fa</title>
<path fill="none" stroke="black" d="M207.56,-159.7C215.68,-151.22 225.59,-140.86 234.47,-131.58"/>
<polygon fill="black" stroke="black" points="237.24,-133.75 241.63,-124.1 232.19,-128.91 237.24,-133.75"/>
<g id="a_edge10&#45;headlabel"><a xlink:href="dir_000050_000158.html" target="_top" xlink:title="167">
<text text-anchor="middle" x="236.81" y="-135.81" font-family="Helvetica,sans-Serif" font-size="10.00">167</text>
</a>
</g>
</g>
<!-- dir_40ac35421bc63b72c26b6c69b1517fd6 -->
<g id="node14" class="node">
<title>dir_40ac35421bc63b72c26b6c69b1517fd6</title>
<g id="a_node14"><a xlink:href="dir_40ac35421bc63b72c26b6c69b1517fd6.html" target="_top" xlink:title="system">
<polygon fill="#60a2e3" stroke="#404040" points="261,-52 207,-52 207,-16 261,-16 261,-52"/>
<text text-anchor="middle" x="234" y="-31.5" font-family="Helvetica,sans-Serif" font-size="10.00">system</text>
</a>
</g>
</g>
<!-- dir_f24daea2522ffa8b6dc5fa9cdf5b8f5c&#45;&gt;dir_40ac35421bc63b72c26b6c69b1517fd6 -->
<g id="edge12" class="edge">
<title>dir_f24daea2522ffa8b6dc5fa9cdf5b8f5c&#45;&gt;dir_40ac35421bc63b72c26b6c69b1517fd6</title>
<path fill="none" stroke="black" d="M196.19,-159.87C203.55,-135.56 217.1,-90.82 225.82,-62.01"/>
<polygon fill="black" stroke="black" points="229.25,-62.77 228.79,-52.19 222.55,-60.75 229.25,-62.77"/>
<g id="a_edge12&#45;headlabel"><a xlink:href="dir_000050_000340.html" target="_top" xlink:title="3">
<text text-anchor="middle" x="230.92" y="-64.54" font-family="Helvetica,sans-Serif" font-size="10.00">3</text>
</a>
</g>
</g>
<!-- dir_f24daea2522ffa8b6dc5fa9cdf5b8f5c&#45;&gt;dir_bdd9a5d540de89e9fe90efdfc6973a4f -->
<g id="edge11" class="edge">
<title>dir_f24daea2522ffa8b6dc5fa9cdf5b8f5c&#45;&gt;dir_bdd9a5d540de89e9fe90efdfc6973a4f</title>
<path fill="none" stroke="black" d="M218.18,-170.39C251.04,-161.88 307.57,-145.6 353,-124 379.72,-111.3 381.25,-98.26 409,-88 515.72,-48.54 556.5,-86.48 664.26,-53.64"/>
<polygon fill="black" stroke="black" points="665.39,-56.95 673.86,-50.58 663.27,-50.28 665.39,-56.95"/>
<g id="a_edge11&#45;headlabel"><a xlink:href="dir_000050_000022.html" target="_top" xlink:title="13">
<text text-anchor="middle" x="662.83" y="-58.25" font-family="Helvetica,sans-Serif" font-size="10.00">13</text>
</a>
</g>
</g>
<!-- dir_b6763ea08a8f9364194ebe3565e6b1f0 -->
<g id="node7" class="node">
<title>dir_b6763ea08a8f9364194ebe3565e6b1f0</title>
<g id="a_node7"><a xlink:href="dir_b6763ea08a8f9364194ebe3565e6b1f0.html" target="_top" xlink:title="hdd">
<polygon fill="#60a2e3" stroke="#404040" points="336,-268 282,-268 282,-232 336,-232 336,-268"/>
<text text-anchor="middle" x="309" y="-247.5" font-family="Helvetica,sans-Serif" font-size="10.00">hdd</text>
</a>
</g>
</g>
<!-- dir_b6763ea08a8f9364194ebe3565e6b1f0&#45;&gt;dir_6f16cad81de2453a6f48c5e272ba4a18 -->
<g id="edge15" class="edge">
<title>dir_b6763ea08a8f9364194ebe3565e6b1f0&#45;&gt;dir_6f16cad81de2453a6f48c5e272ba4a18</title>
<path fill="none" stroke="black" d="M312.46,-231.7C314,-223.98 315.86,-214.71 317.58,-206.11"/>
<polygon fill="black" stroke="black" points="321.05,-206.6 319.58,-196.1 314.19,-205.22 321.05,-206.6"/>
<g id="a_edge15&#45;headlabel"><a xlink:href="dir_000054_000026.html" target="_top" xlink:title="10">
<text text-anchor="middle" x="323.13" y="-208.18" font-family="Helvetica,sans-Serif" font-size="10.00">10</text>
</a>
</g>
</g>
<!-- dir_b6763ea08a8f9364194ebe3565e6b1f0&#45;&gt;dir_9be0baa3d4a3e9f480a9ee70594037fa -->
<g id="edge14" class="edge">
<title>dir_b6763ea08a8f9364194ebe3565e6b1f0&#45;&gt;dir_9be0baa3d4a3e9f480a9ee70594037fa</title>
<path fill="none" stroke="black" d="M293.78,-231.55C286.04,-221.75 277.2,-208.91 272,-196 264.03,-176.2 260.58,-152.22 259.09,-134.15"/>
<polygon fill="black" stroke="black" points="262.57,-133.75 258.41,-124 255.59,-134.21 262.57,-133.75"/>
<g id="a_edge14&#45;headlabel"><a xlink:href="dir_000054_000158.html" target="_top" xlink:title="62">
<text text-anchor="middle" x="265.65" y="-134.64" font-family="Helvetica,sans-Serif" font-size="10.00">62</text>
</a>
</g>
</g>
<!-- dir_b6763ea08a8f9364194ebe3565e6b1f0&#45;&gt;dir_bdd9a5d540de89e9fe90efdfc6973a4f -->
<g id="edge13" class="edge">
<title>dir_b6763ea08a8f9364194ebe3565e6b1f0&#45;&gt;dir_bdd9a5d540de89e9fe90efdfc6973a4f</title>
<path fill="none" stroke="black" d="M336.13,-234.96C339.07,-233.81 342.06,-232.79 345,-232 391.41,-219.54 743.46,-231.37 776,-196 808.5,-160.67 798.07,-130.62 776,-88 767.68,-71.94 752.01,-59.7 737.13,-51.06"/>
<polygon fill="black" stroke="black" points="738.5,-47.82 728.04,-46.14 735.17,-53.98 738.5,-47.82"/>
<g id="a_edge13&#45;headlabel"><a xlink:href="dir_000054_000022.html" target="_top" xlink:title="36">
<text text-anchor="middle" x="743.01" y="-44.53" font-family="Helvetica,sans-Serif" font-size="10.00">36</text>
</a>
</g>
</g>
<!-- dir_fc941b9cdd19bfc53379effb1dbc42b0 -->
<g id="node8" class="node">
<title>dir_fc941b9cdd19bfc53379effb1dbc42b0</title>
<g id="a_node8"><a xlink:href="dir_fc941b9cdd19bfc53379effb1dbc42b0.html" target="_top" xlink:title="iLink">
<polygon fill="#60a2e3" stroke="#404040" points="264,-268 210,-268 210,-232 264,-232 264,-268"/>
<text text-anchor="middle" x="237" y="-247.5" font-family="Helvetica,sans-Serif" font-size="10.00">iLink</text>
</a>
</g>
</g>
<!-- dir_fc941b9cdd19bfc53379effb1dbc42b0&#45;&gt;dir_f24daea2522ffa8b6dc5fa9cdf5b8f5c -->
<g id="edge18" class="edge">
<title>dir_fc941b9cdd19bfc53379effb1dbc42b0&#45;&gt;dir_f24daea2522ffa8b6dc5fa9cdf5b8f5c</title>
<path fill="none" stroke="black" d="M225.63,-231.7C220.28,-223.56 213.8,-213.69 207.89,-204.7"/>
<polygon fill="black" stroke="black" points="210.66,-202.54 202.24,-196.1 204.81,-206.38 210.66,-202.54"/>
<g id="a_edge18&#45;headlabel"><a xlink:href="dir_000059_000050.html" target="_top" xlink:title="2">
<text text-anchor="middle" x="215" y="-201.48" font-family="Helvetica,sans-Serif" font-size="10.00">2</text>
</a>
</g>
</g>
<!-- dir_fc941b9cdd19bfc53379effb1dbc42b0&#45;&gt;dir_9be0baa3d4a3e9f480a9ee70594037fa -->
<g id="edge17" class="edge">
<title>dir_fc941b9cdd19bfc53379effb1dbc42b0&#45;&gt;dir_9be0baa3d4a3e9f480a9ee70594037fa</title>
<path fill="none" stroke="black" d="M239.53,-231.87C243.11,-207.67 249.69,-163.21 253.95,-134.39"/>
<polygon fill="black" stroke="black" points="257.46,-134.59 255.46,-124.19 250.53,-133.57 257.46,-134.59"/>
<g id="a_edge17&#45;headlabel"><a xlink:href="dir_000059_000158.html" target="_top" xlink:title="117">
<text text-anchor="middle" x="259.74" y="-136.07" font-family="Helvetica,sans-Serif" font-size="10.00">117</text>
</a>
</g>
</g>
<!-- dir_fc941b9cdd19bfc53379effb1dbc42b0&#45;&gt;dir_bdd9a5d540de89e9fe90efdfc6973a4f -->
<g id="edge16" class="edge">
<title>dir_fc941b9cdd19bfc53379effb1dbc42b0&#45;&gt;dir_bdd9a5d540de89e9fe90efdfc6973a4f</title>
<path fill="none" stroke="black" d="M264.13,-234.94C267.07,-233.79 270.06,-232.78 273,-232 323.09,-218.72 702.8,-234.03 738,-196 770.6,-160.77 752.4,-133.79 738,-88 734.9,-78.15 729.25,-68.53 723.28,-60.25"/>
<polygon fill="black" stroke="black" points="725.91,-57.94 717.04,-52.15 720.37,-62.21 725.91,-57.94"/>
<g id="a_edge16&#45;headlabel"><a xlink:href="dir_000059_000022.html" target="_top" xlink:title="12">
<text text-anchor="middle" x="730.36" y="-56.55" font-family="Helvetica,sans-Serif" font-size="10.00">12</text>
</a>
</g>
</g>
<!-- dir_9be0baa3d4a3e9f480a9ee70594037fa&#45;&gt;dir_40ac35421bc63b72c26b6c69b1517fd6 -->
<g id="edge19" class="edge">
<title>dir_9be0baa3d4a3e9f480a9ee70594037fa&#45;&gt;dir_40ac35421bc63b72c26b6c69b1517fd6</title>
<path fill="none" stroke="black" d="M246.15,-87.7C242.67,-79.9 239.23,-70.51 236.61,-61.83"/>
<polygon fill="black" stroke="black" points="239.97,-60.83 233.97,-52.1 233.22,-62.67 239.97,-60.83"/>
<g id="a_edge19&#45;headlabel"><a xlink:href="dir_000158_000340.html" target="_top" xlink:title="2">
<text text-anchor="middle" x="243.65" y="-61.06" font-family="Helvetica,sans-Serif" font-size="10.00">2</text>
</a>
</g>
</g>
<!-- dir_9be0baa3d4a3e9f480a9ee70594037fa&#45;&gt;dir_bdd9a5d540de89e9fe90efdfc6973a4f -->
<g id="edge20" class="edge">
<title>dir_9be0baa3d4a3e9f480a9ee70594037fa&#45;&gt;dir_bdd9a5d540de89e9fe90efdfc6973a4f</title>
<path fill="none" stroke="black" d="M285.19,-97.15C297.29,-93.9 311.77,-90.36 325,-88 473.52,-61.55 520.82,-96.41 664.29,-53.57"/>
<polygon fill="black" stroke="black" points="665.34,-56.91 673.88,-50.64 663.29,-50.22 665.34,-56.91"/>
<g id="a_edge20&#45;headlabel"><a xlink:href="dir_000158_000022.html" target="_top" xlink:title="12">
<text text-anchor="middle" x="662.73" y="-58.18" font-family="Helvetica,sans-Serif" font-size="10.00">12</text>
</a>
</g>
</g>
<!-- dir_5805bfcfbe100e4767f47461b3e6402b -->
<g id="node10" class="node">
<title>dir_5805bfcfbe100e4767f47461b3e6402b</title>
<g id="a_node10"><a xlink:href="dir_5805bfcfbe100e4767f47461b3e6402b.html" target="_top" xlink:title="memorycard">
<polygon fill="#60a2e3" stroke="#404040" points="126,-196 56,-196 56,-160 126,-160 126,-196"/>
<text text-anchor="middle" x="91" y="-175.5" font-family="Helvetica,sans-Serif" font-size="10.00">memorycard</text>
</a>
</g>
</g>
<!-- dir_5805bfcfbe100e4767f47461b3e6402b&#45;&gt;dir_9be0baa3d4a3e9f480a9ee70594037fa -->
<g id="edge21" class="edge">
<title>dir_5805bfcfbe100e4767f47461b3e6402b&#45;&gt;dir_9be0baa3d4a3e9f480a9ee70594037fa</title>
<path fill="none" stroke="black" d="M126.01,-162.33C153.9,-150.63 192.84,-134.31 221.19,-122.43"/>
<polygon fill="black" stroke="black" points="222.87,-125.52 230.74,-118.43 220.17,-119.06 222.87,-125.52"/>
<g id="a_edge21&#45;headlabel"><a xlink:href="dir_000176_000158.html" target="_top" xlink:title="39">
<text text-anchor="middle" x="220.66" y="-127.03" font-family="Helvetica,sans-Serif" font-size="10.00">39</text>
</a>
</g>
</g>
<!-- dir_5805bfcfbe100e4767f47461b3e6402b&#45;&gt;dir_40ac35421bc63b72c26b6c69b1517fd6 -->
<g id="edge23" class="edge">
<title>dir_5805bfcfbe100e4767f47461b3e6402b&#45;&gt;dir_40ac35421bc63b72c26b6c69b1517fd6</title>
<path fill="none" stroke="black" d="M108.25,-159.87C133.48,-134.82 180.57,-88.05 209.42,-59.41"/>
<polygon fill="black" stroke="black" points="212.06,-61.72 216.69,-52.19 207.13,-56.75 212.06,-61.72"/>
<g id="a_edge23&#45;headlabel"><a xlink:href="dir_000176_000340.html" target="_top" xlink:title="1">
<text text-anchor="middle" x="211.51" y="-63.77" font-family="Helvetica,sans-Serif" font-size="10.00">1</text>
</a>
</g>
</g>
<!-- dir_5805bfcfbe100e4767f47461b3e6402b&#45;&gt;dir_bdd9a5d540de89e9fe90efdfc6973a4f -->
<g id="edge22" class="edge">
<title>dir_5805bfcfbe100e4767f47461b3e6402b&#45;&gt;dir_bdd9a5d540de89e9fe90efdfc6973a4f</title>
<path fill="none" stroke="black" d="M126.2,-167.61C135.56,-165.12 145.66,-162.45 155,-160 216.73,-143.81 235.24,-148.89 294,-124 322.29,-112.02 323.94,-97.97 353,-88 483.98,-43.07 532.57,-92.47 664.25,-53.58"/>
<polygon fill="black" stroke="black" points="665.34,-56.9 673.87,-50.62 663.29,-50.21 665.34,-56.9"/>
<g id="a_edge22&#45;headlabel"><a xlink:href="dir_000176_000022.html" target="_top" xlink:title="3">
<text text-anchor="middle" x="662.74" y="-58.17" font-family="Helvetica,sans-Serif" font-size="10.00">3</text>
</a>
</g>
</g>
<!-- dir_f89050b4b7ba0179c2c7efd2300413d9 -->
<g id="node11" class="node">
<title>dir_f89050b4b7ba0179c2c7efd2300413d9</title>
<g id="a_node11"><a xlink:href="dir_f89050b4b7ba0179c2c7efd2300413d9.html" target="_top" xlink:title="network">
<polygon fill="#60a2e3" stroke="#404040" points="480,-268 426,-268 426,-232 480,-232 480,-268"/>
<text text-anchor="middle" x="453" y="-247.5" font-family="Helvetica,sans-Serif" font-size="10.00">network</text>
</a>
</g>
</g>
<!-- dir_f89050b4b7ba0179c2c7efd2300413d9&#45;&gt;dir_6f16cad81de2453a6f48c5e272ba4a18 -->
<g id="edge24" class="edge">
<title>dir_f89050b4b7ba0179c2c7efd2300413d9&#45;&gt;dir_6f16cad81de2453a6f48c5e272ba4a18</title>
<path fill="none" stroke="black" d="M425.75,-234.33C406.42,-223.92 380.28,-209.84 359.2,-198.49"/>
<polygon fill="black" stroke="black" points="360.68,-195.31 350.22,-193.65 357.36,-201.48 360.68,-195.31"/>
<g id="a_edge24&#45;headlabel"><a xlink:href="dir_000190_000026.html" target="_top" xlink:title="3">
<text text-anchor="middle" x="365.19" y="-192.02" font-family="Helvetica,sans-Serif" font-size="10.00">3</text>
</a>
</g>
</g>
<!-- dir_f89050b4b7ba0179c2c7efd2300413d9&#45;&gt;dir_9be0baa3d4a3e9f480a9ee70594037fa -->
<g id="edge25" class="edge">
<title>dir_f89050b4b7ba0179c2c7efd2300413d9&#45;&gt;dir_9be0baa3d4a3e9f480a9ee70594037fa</title>
<path fill="none" stroke="black" d="M425.74,-233.6C410.67,-224.14 392.36,-210.98 379,-196 366.82,-182.34 372.1,-172.79 359,-160 340.78,-142.2 315.37,-128.91 294.59,-120.09"/>
<polygon fill="black" stroke="black" points="295.7,-116.76 285.12,-116.23 293.06,-123.25 295.7,-116.76"/>
<g id="a_edge25&#45;headlabel"><a xlink:href="dir_000190_000158.html" target="_top" xlink:title="123">
<text text-anchor="middle" x="300.1" y="-112.99" font-family="Helvetica,sans-Serif" font-size="10.00">123</text>
</a>
</g>
</g>
<!-- dir_f89050b4b7ba0179c2c7efd2300413d9&#45;&gt;dir_bdd9a5d540de89e9fe90efdfc6973a4f -->
<g id="edge26" class="edge">
<title>dir_f89050b4b7ba0179c2c7efd2300413d9&#45;&gt;dir_bdd9a5d540de89e9fe90efdfc6973a4f</title>
<path fill="none" stroke="black" d="M480.18,-243.27C497.76,-239.7 521.16,-235.2 542,-232 610.55,-221.49 805.88,-247.79 852,-196 883.92,-160.15 879.76,-127.16 852,-88 826.34,-51.79 773.91,-40.14 738.11,-36.49"/>
<polygon fill="black" stroke="black" points="738.3,-32.99 728.04,-35.63 737.7,-39.97 738.3,-32.99"/>
<g id="a_edge26&#45;headlabel"><a xlink:href="dir_000190_000022.html" target="_top" xlink:title="27">
<text text-anchor="middle" x="742.12" y="-27.97" font-family="Helvetica,sans-Serif" font-size="10.00">27</text>
</a>
</g>
</g>
<!-- dir_6133ef156cce03413acfdeebec722ba1 -->
<g id="node12" class="node">
<title>dir_6133ef156cce03413acfdeebec722ba1</title>
<g id="a_node12"><a xlink:href="dir_6133ef156cce03413acfdeebec722ba1.html" target="_top" xlink:title="sio">
<polygon fill="#60a2e3" stroke="#404040" points="95,-268 41,-268 41,-232 95,-232 95,-268"/>
<text text-anchor="middle" x="68" y="-247.5" font-family="Helvetica,sans-Serif" font-size="10.00">sio</text>
</a>
</g>
</g>
<!-- dir_6133ef156cce03413acfdeebec722ba1&#45;&gt;dir_f24daea2522ffa8b6dc5fa9cdf5b8f5c -->
<g id="edge28" class="edge">
<title>dir_6133ef156cce03413acfdeebec722ba1&#45;&gt;dir_f24daea2522ffa8b6dc5fa9cdf5b8f5c</title>
<path fill="none" stroke="black" d="M95.3,-233.46C112.89,-223.45 135.97,-210.32 155.05,-199.46"/>
<polygon fill="black" stroke="black" points="156.82,-202.48 163.78,-194.49 153.36,-196.4 156.82,-202.48"/>
<g id="a_edge28&#45;headlabel"><a xlink:href="dir_000213_000050.html" target="_top" xlink:title="2">
<text text-anchor="middle" x="155.1" y="-204.23" font-family="Helvetica,sans-Serif" font-size="10.00">2</text>
</a>
</g>
</g>
<!-- dir_6133ef156cce03413acfdeebec722ba1&#45;&gt;dir_9be0baa3d4a3e9f480a9ee70594037fa -->
<g id="edge27" class="edge">
<title>dir_6133ef156cce03413acfdeebec722ba1&#45;&gt;dir_9be0baa3d4a3e9f480a9ee70594037fa</title>
<path fill="none" stroke="black" d="M56.24,-231.79C44.6,-212.41 30.7,-180.91 47,-160 68.17,-132.86 166.14,-117.5 220.83,-110.9"/>
<polygon fill="black" stroke="black" points="221.3,-114.37 230.83,-109.74 220.49,-107.42 221.3,-114.37"/>
<g id="a_edge27&#45;headlabel"><a xlink:href="dir_000213_000158.html" target="_top" xlink:title="23">
<text text-anchor="middle" x="218.06" y="-115.11" font-family="Helvetica,sans-Serif" font-size="10.00">23</text>
</a>
</g>
</g>
<!-- dir_6133ef156cce03413acfdeebec722ba1&#45;&gt;dir_40ac35421bc63b72c26b6c69b1517fd6 -->
<g id="edge29" class="edge">
<title>dir_6133ef156cce03413acfdeebec722ba1&#45;&gt;dir_40ac35421bc63b72c26b6c69b1517fd6</title>
<path fill="none" stroke="black" d="M53.69,-232C40.07,-213.63 23.4,-183.8 36,-160 69.31,-97.11 149.64,-61.78 197.12,-45.73"/>
<polygon fill="black" stroke="black" points="198.3,-49.02 206.72,-42.59 196.13,-42.37 198.3,-49.02"/>
<g id="a_edge29&#45;headlabel"><a xlink:href="dir_000213_000340.html" target="_top" xlink:title="1">
<text text-anchor="middle" x="195.77" y="-50.34" font-family="Helvetica,sans-Serif" font-size="10.00">1</text>
</a>
</g>
</g>
<!-- dir_6133ef156cce03413acfdeebec722ba1&#45;&gt;dir_bdd9a5d540de89e9fe90efdfc6973a4f -->
<g id="edge30" class="edge">
<title>dir_6133ef156cce03413acfdeebec722ba1&#45;&gt;dir_bdd9a5d540de89e9fe90efdfc6973a4f</title>
<path fill="none" stroke="black" d="M95.06,-240.17C105.55,-237.09 117.73,-233.93 129,-232 188.05,-221.91 621.75,-235.27 667,-196 705.03,-163 706.81,-99.11 704.23,-62.52"/>
<polygon fill="black" stroke="black" points="707.68,-61.76 703.32,-52.11 700.7,-62.37 707.68,-61.76"/>
<g id="a_edge30&#45;headlabel"><a xlink:href="dir_000213_000022.html" target="_top" xlink:title="2">
<text text-anchor="middle" x="710.82" y="-62.6" font-family="Helvetica,sans-Serif" font-size="10.00">2</text>
</a>
</g>
</g>
<!-- dir_838e88315325ec0d843359dcae22d639 -->
<g id="node13" class="node">
<title>dir_838e88315325ec0d843359dcae22d639</title>
<g id="a_node13"><a xlink:href="dir_838e88315325ec0d843359dcae22d639.html" target="_top" xlink:title="sound">
<polygon fill="#60a2e3" stroke="#404040" points="442,-196 388,-196 388,-160 442,-160 442,-196"/>
<text text-anchor="middle" x="415" y="-175.5" font-family="Helvetica,sans-Serif" font-size="10.00">sound</text>
</a>
</g>
</g>
<!-- dir_838e88315325ec0d843359dcae22d639&#45;&gt;dir_9be0baa3d4a3e9f480a9ee70594037fa -->
<g id="edge31" class="edge">
<title>dir_838e88315325ec0d843359dcae22d639&#45;&gt;dir_9be0baa3d4a3e9f480a9ee70594037fa</title>
<path fill="none" stroke="black" d="M387.65,-164.81C361.76,-153.26 322.73,-135.86 294.25,-123.16"/>
<polygon fill="black" stroke="black" points="295.59,-119.93 285.03,-119.05 292.74,-126.32 295.59,-119.93"/>
<g id="a_edge31&#45;headlabel"><a xlink:href="dir_000220_000158.html" target="_top" xlink:title="105">
<text text-anchor="middle" x="300.03" y="-116.3" font-family="Helvetica,sans-Serif" font-size="10.00">105</text>
</a>
</g>
</g>
<!-- dir_838e88315325ec0d843359dcae22d639&#45;&gt;dir_bdd9a5d540de89e9fe90efdfc6973a4f -->
<g id="edge32" class="edge">
<title>dir_838e88315325ec0d843359dcae22d639&#45;&gt;dir_bdd9a5d540de89e9fe90efdfc6973a4f</title>
<path fill="none" stroke="black" d="M437.32,-159.85C463.72,-140.22 509.58,-108.21 553,-88 599.34,-66.43 617.65,-72.32 664.36,-54.15"/>
<polygon fill="black" stroke="black" points="665.82,-57.34 673.76,-50.33 663.18,-50.85 665.82,-57.34"/>
<g id="a_edge32&#45;headlabel"><a xlink:href="dir_000220_000022.html" target="_top" xlink:title="2">
<text text-anchor="middle" x="663.56" y="-58.82" font-family="Helvetica,sans-Serif" font-size="10.00">2</text>
</a>
</g>
</g>
<!-- dir_40ac35421bc63b72c26b6c69b1517fd6&#45;&gt;dir_9be0baa3d4a3e9f480a9ee70594037fa -->
<g id="edge33" class="edge">
<title>dir_40ac35421bc63b72c26b6c69b1517fd6&#45;&gt;dir_9be0baa3d4a3e9f480a9ee70594037fa</title>
<path fill="none" stroke="black" d="M245.76,-52.1C249.24,-59.88 252.69,-69.26 255.32,-77.95"/>
<polygon fill="black" stroke="black" points="251.97,-78.97 257.98,-87.7 258.72,-77.13 251.97,-78.97"/>
<g id="a_edge33&#45;headlabel"><a xlink:href="dir_000340_000158.html" target="_top" xlink:title="271">
<text text-anchor="middle" x="248.28" y="-73.76" font-family="Helvetica,sans-Serif" font-size="10.00">271</text>
</a>
</g>
</g>
<!-- dir_40ac35421bc63b72c26b6c69b1517fd6&#45;&gt;dir_bdd9a5d540de89e9fe90efdfc6973a4f -->
<g id="edge34" class="edge">
<title>dir_40ac35421bc63b72c26b6c69b1517fd6&#45;&gt;dir_bdd9a5d540de89e9fe90efdfc6973a4f</title>
<path fill="none" stroke="black" d="M261.36,-34C395.54,-34 529.71,-34 663.88,-34"/>
<polygon fill="black" stroke="black" points="663.95,-37.5 673.95,-34 663.95,-30.5 663.95,-37.5"/>
<g id="a_edge34&#45;headlabel"><a xlink:href="dir_000340_000022.html" target="_top" xlink:title="4">
<text text-anchor="middle" x="660.36" y="-37.84" font-family="Helvetica,sans-Serif" font-size="10.00">4</text>
</a>
</g>
</g>
<!-- dir_cb38d55d28446d14702541320714f23c -->
<g id="node15" class="node">
<title>dir_cb38d55d28446d14702541320714f23c</title>
<g id="a_node15"><a xlink:href="dir_cb38d55d28446d14702541320714f23c.html" target="_top" xlink:title="tcpip">
<polygon fill="#60a2e3" stroke="#404040" points="514,-196 460,-196 460,-160 514,-160 514,-196"/>
<text text-anchor="middle" x="487" y="-175.5" font-family="Helvetica,sans-Serif" font-size="10.00">tcpip</text>
</a>
</g>
</g>
<!-- dir_cb38d55d28446d14702541320714f23c&#45;&gt;dir_9be0baa3d4a3e9f480a9ee70594037fa -->
<g id="edge35" class="edge">
<title>dir_cb38d55d28446d14702541320714f23c&#45;&gt;dir_9be0baa3d4a3e9f480a9ee70594037fa</title>
<path fill="none" stroke="black" d="M459.69,-163.51C456.79,-162.25 453.85,-161.06 451,-160 398.05,-140.4 334.57,-124.33 295.25,-115.2"/>
<polygon fill="black" stroke="black" points="295.85,-111.75 285.32,-112.93 294.28,-118.57 295.85,-111.75"/>
<g id="a_edge35&#45;headlabel"><a xlink:href="dir_000342_000158.html" target="_top" xlink:title="53">
<text text-anchor="middle" x="299.98" y="-107.28" font-family="Helvetica,sans-Serif" font-size="10.00">53</text>
</a>
</g>
</g>
<!-- dir_cb38d55d28446d14702541320714f23c&#45;&gt;dir_bdd9a5d540de89e9fe90efdfc6973a4f -->
<g id="edge36" class="edge">
<title>dir_cb38d55d28446d14702541320714f23c&#45;&gt;dir_bdd9a5d540de89e9fe90efdfc6973a4f</title>
<path fill="none" stroke="black" d="M508.98,-159.86C533.02,-141.37 572.95,-111.44 609,-88 619.28,-81.32 643.71,-67.27 664.81,-55.32"/>
<polygon fill="black" stroke="black" points="666.62,-58.32 673.6,-50.35 663.17,-52.23 666.62,-58.32"/>
<g id="a_edge36&#45;headlabel"><a xlink:href="dir_000342_000022.html" target="_top" xlink:title="5">
<text text-anchor="middle" x="664.88" y="-60.06" font-family="Helvetica,sans-Serif" font-size="10.00">5</text>
</a>
</g>
</g>
<!-- dir_b6c875632944d243a548db157cd77ec2 -->
<g id="node16" class="node">
<title>dir_b6c875632944d243a548db157cd77ec2</title>
<g id="a_node16"><a xlink:href="dir_b6c875632944d243a548db157cd77ec2.html" target="_top" xlink:title="usb">
<polygon fill="#60a2e3" stroke="#404040" points="192,-268 138,-268 138,-232 192,-232 192,-268"/>
<text text-anchor="middle" x="165" y="-247.5" font-family="Helvetica,sans-Serif" font-size="10.00">usb</text>
</a>
</g>
</g>
<!-- dir_b6c875632944d243a548db157cd77ec2&#45;&gt;dir_f24daea2522ffa8b6dc5fa9cdf5b8f5c -->
<g id="edge39" class="edge">
<title>dir_b6c875632944d243a548db157cd77ec2&#45;&gt;dir_f24daea2522ffa8b6dc5fa9cdf5b8f5c</title>
<path fill="none" stroke="black" d="M171.43,-231.7C174.36,-223.81 177.89,-214.3 181.14,-205.55"/>
<polygon fill="black" stroke="black" points="184.45,-206.7 184.65,-196.1 177.88,-204.26 184.45,-206.7"/>
<g id="a_edge39&#45;headlabel"><a xlink:href="dir_000352_000050.html" target="_top" xlink:title="2">
<text text-anchor="middle" x="185.86" y="-208.56" font-family="Helvetica,sans-Serif" font-size="10.00">2</text>
</a>
</g>
</g>
<!-- dir_b6c875632944d243a548db157cd77ec2&#45;&gt;dir_9be0baa3d4a3e9f480a9ee70594037fa -->
<g id="edge37" class="edge">
<title>dir_b6c875632944d243a548db157cd77ec2&#45;&gt;dir_9be0baa3d4a3e9f480a9ee70594037fa</title>
<path fill="none" stroke="black" d="M157.18,-231.9C149.75,-212.91 141.56,-182.03 155,-160 169.3,-136.57 197.63,-123.05 220.97,-115.55"/>
<polygon fill="black" stroke="black" points="222.02,-118.88 230.61,-112.68 220.03,-112.17 222.02,-118.88"/>
<g id="a_edge37&#45;headlabel"><a xlink:href="dir_000352_000158.html" target="_top" xlink:title="149">
<text text-anchor="middle" x="219.38" y="-120.13" font-family="Helvetica,sans-Serif" font-size="10.00">149</text>
</a>
</g>
</g>
<!-- dir_b6c875632944d243a548db157cd77ec2&#45;&gt;dir_bdd9a5d540de89e9fe90efdfc6973a4f -->
<g id="edge38" class="edge">
<title>dir_b6c875632944d243a548db157cd77ec2&#45;&gt;dir_bdd9a5d540de89e9fe90efdfc6973a4f</title>
<path fill="none" stroke="black" d="M192.12,-234.92C195.06,-233.78 198.06,-232.77 201,-232 254.77,-217.89 662.01,-236.58 700,-196 733.65,-160.06 721.47,-97.38 710.6,-61.75"/>
<polygon fill="black" stroke="black" points="713.87,-60.48 707.46,-52.04 707.21,-62.64 713.87,-60.48"/>
<g id="a_edge38&#45;headlabel"><a xlink:href="dir_000352_000022.html" target="_top" xlink:title="12">
<text text-anchor="middle" x="717.67" y="-60.53" font-family="Helvetica,sans-Serif" font-size="10.00">12</text>
</a>
</g>
</g>
</g>
</svg>
