<?xml version="1.0" encoding="UTF-8" standalone="no"?>
<!DOCTYPE svg PUBLIC "-//W3C//DTD SVG 1.1//EN"
 "http://www.w3.org/Graphics/SVG/1.1/DTD/svg11.dtd">
<!-- Generated by graphviz version 3.0.0 (20220413.0242)
 -->
<!-- Title: ee/rpc/filexio Pages: 1 -->
<svg width="380pt" height="231pt"
 viewBox="0.00 0.00 380.00 231.00" xmlns="http://www.w3.org/2000/svg" xmlns:xlink="http://www.w3.org/1999/xlink">
<g id="graph0" class="graph" transform="scale(1 1) rotate(0) translate(4 227)">
<title>ee/rpc/filexio</title>
<polygon fill="white" stroke="transparent" points="-4,4 -4,-227 376,-227 376,4 -4,4"/>
<g id="clust1" class="cluster">
<title>clusterdir_5b119dc963fa9b25ef41951231899460</title>
<g id="a_clust1"><a xlink:href="dir_5b119dc963fa9b25ef41951231899460.html" target="_top" xlink:title="rpc">
<polygon fill="#deebf9" stroke="#7f7f7f" stroke-dasharray="5,2" points="8,-56 8,-215 166,-215 166,-56 8,-56"/>
<text text-anchor="middle" x="87" y="-203" font-family="Helvetica,sans-Serif" font-size="10.00">rpc</text>
</a>
</g>
</g>
<g id="clust2" class="cluster">
<title>clusterdir_6b1fe306776c19ae02b5b1275d4c63ec</title>
<g id="a_clust2"><a xlink:href="dir_6b1fe306776c19ae02b5b1275d4c63ec.html" target="_top">
<polygon fill="#deebf9" stroke="#404040" stroke-width="2" points="16,-64 16,-188 158,-188 158,-64 16,-64"/>
</a>
</g>
</g>
<!-- dir_6b1fe306776c19ae02b5b1275d4c63ec -->
<g id="node1" class="node">
<title>dir_6b1fe306776c19ae02b5b1275d4c63ec</title>
<text text-anchor="middle" x="123" y="-159.5" font-family="Helvetica,sans-Serif" font-size="10.00">filexio</text>
</g>
<!-- dir_21af483e535eeeda1b3e0ebbd7a8a7a3 -->
<g id="node2" class="node">
<title>dir_21af483e535eeeda1b3e0ebbd7a8a7a3</title>
<g id="a_node2"><a xlink:href="dir_21af483e535eeeda1b3e0ebbd7a8a7a3.html" target="_top" xlink:title="include">
<polygon fill="#60a2e3" stroke="#404040" points="78,-108 24,-108 24,-72 78,-72 78,-108"/>
<text text-anchor="middle" x="51" y="-87.5" font-family="Helvetica,sans-Serif" font-size="10.00">include</text>
</a>
</g>
</g>
<!-- dir_bdd9a5d540de89e9fe90efdfc6973a4f -->
<g id="node4" class="node">
<title>dir_bdd9a5d540de89e9fe90efdfc6973a4f</title>
<g id="a_node4"><a xlink:href="dir_bdd9a5d540de89e9fe90efdfc6973a4f.html" target="_top" xlink:title="common">
<polygon fill="none" stroke="red" points="105,-36 51,-36 51,0 105,0 105,-36"/>
<text text-anchor="middle" x="78" y="-15.5" font-family="Helvetica,sans-Serif" font-size="10.00">common</text>
</a>
</g>
</g>
<!-- dir_21af483e535eeeda1b3e0ebbd7a8a7a3&#45;&gt;dir_bdd9a5d540de89e9fe90efdfc6973a4f -->
<g id="edge1" class="edge">
<title>dir_21af483e535eeeda1b3e0ebbd7a8a7a3&#45;&gt;dir_bdd9a5d540de89e9fe90efdfc6973a4f</title>
<path fill="none" stroke="black" d="M57.67,-71.7C60.71,-63.81 64.38,-54.3 67.76,-45.55"/>
<polygon fill="black" stroke="black" points="71.07,-46.69 71.4,-36.1 64.54,-44.17 71.07,-46.69"/>
<g id="a_edge1&#45;headlabel"><a xlink:href="dir_000089_000022.html" target="_top" xlink:title="1">
<text text-anchor="middle" x="72.42" y="-48.57" font-family="Helvetica,sans-Serif" font-size="10.00">1</text>
</a>
</g>
</g>
<!-- dir_2e51deef12334dd084da5d9140b29b47 -->
<g id="node3" class="node">
<title>dir_2e51deef12334dd084da5d9140b29b47</title>
<g id="a_node3"><a xlink:href="dir_2e51deef12334dd084da5d9140b29b47.html" target="_top" xlink:title="src">
<polygon fill="#60a2e3" stroke="#404040" points="78,-180 24,-180 24,-144 78,-144 78,-180"/>
<text text-anchor="middle" x="51" y="-159.5" font-family="Helvetica,sans-Serif" font-size="10.00">src</text>
</a>
</g>
</g>
<!-- dir_2e51deef12334dd084da5d9140b29b47&#45;&gt;dir_21af483e535eeeda1b3e0ebbd7a8a7a3 -->
<g id="edge3" class="edge">
<title>dir_2e51deef12334dd084da5d9140b29b47&#45;&gt;dir_21af483e535eeeda1b3e0ebbd7a8a7a3</title>
<path fill="none" stroke="black" d="M51,-143.7C51,-135.98 51,-126.71 51,-118.11"/>
<polygon fill="black" stroke="black" points="54.5,-118.1 51,-108.1 47.5,-118.1 54.5,-118.1"/>
<g id="a_edge3&#45;headlabel"><a xlink:href="dir_000251_000089.html" target="_top" xlink:title="1">
<text text-anchor="middle" x="57.34" y="-119.2" font-family="Helvetica,sans-Serif" font-size="10.00">1</text>
</a>
</g>
</g>
<!-- dir_2e51deef12334dd084da5d9140b29b47&#45;&gt;dir_bdd9a5d540de89e9fe90efdfc6973a4f -->
<g id="edge6" class="edge">
<title>dir_2e51deef12334dd084da5d9140b29b47&#45;&gt;dir_bdd9a5d540de89e9fe90efdfc6973a4f</title>
<path fill="none" stroke="black" d="M66.61,-143.77C74.37,-134.03 82.95,-121.18 87,-108 93.22,-87.77 90.27,-63.87 86.15,-45.92"/>
<polygon fill="black" stroke="black" points="89.51,-44.95 83.65,-36.12 82.73,-46.68 89.51,-44.95"/>
<g id="a_edge6&#45;headlabel"><a xlink:href="dir_000251_000022.html" target="_top" xlink:title="2">
<text text-anchor="middle" x="93.15" y="-45.23" font-family="Helvetica,sans-Serif" font-size="10.00">2</text>
</a>
</g>
</g>
<!-- dir_a0a8ac7efb6662b749c1285408048e6d -->
<g id="node5" class="node">
<title>dir_a0a8ac7efb6662b749c1285408048e6d</title>
<g id="a_node5"><a xlink:href="dir_a0a8ac7efb6662b749c1285408048e6d.html" target="_top" xlink:title="erl">
<polygon fill="none" stroke="red" stroke-dasharray="5,2" points="228,-108 174,-108 174,-72 228,-72 228,-108"/>
<text text-anchor="middle" x="201" y="-87.5" font-family="Helvetica,sans-Serif" font-size="10.00">erl</text>
</a>
</g>
</g>
<!-- dir_2e51deef12334dd084da5d9140b29b47&#45;&gt;dir_a0a8ac7efb6662b749c1285408048e6d -->
<g id="edge5" class="edge">
<title>dir_2e51deef12334dd084da5d9140b29b47&#45;&gt;dir_a0a8ac7efb6662b749c1285408048e6d</title>
<path fill="none" stroke="black" d="M78.12,-148.17C81.11,-146.76 84.12,-145.35 87,-144 112.94,-131.85 142.25,-118.22 164.65,-107.83"/>
<polygon fill="black" stroke="black" points="166.2,-110.97 173.8,-103.59 163.25,-104.62 166.2,-110.97"/>
<g id="a_edge5&#45;headlabel"><a xlink:href="dir_000251_000042.html" target="_top" xlink:title="1">
<text text-anchor="middle" x="164.13" y="-112.56" font-family="Helvetica,sans-Serif" font-size="10.00">1</text>
</a>
</g>
</g>
<!-- dir_694ec83a64f58cbdefbefce65cd1011c -->
<g id="node6" class="node">
<title>dir_694ec83a64f58cbdefbefce65cd1011c</title>
<g id="a_node6"><a xlink:href="dir_694ec83a64f58cbdefbefce65cd1011c.html" target="_top" xlink:title="kernel">
<polygon fill="none" stroke="red" stroke-dasharray="5,2" points="300,-108 246,-108 246,-72 300,-72 300,-108"/>
<text text-anchor="middle" x="273" y="-87.5" font-family="Helvetica,sans-Serif" font-size="10.00">kernel</text>
</a>
</g>
</g>
<!-- dir_2e51deef12334dd084da5d9140b29b47&#45;&gt;dir_694ec83a64f58cbdefbefce65cd1011c -->
<g id="edge4" class="edge">
<title>dir_2e51deef12334dd084da5d9140b29b47&#45;&gt;dir_694ec83a64f58cbdefbefce65cd1011c</title>
<path fill="none" stroke="black" d="M78.27,-147.41C81.19,-146.17 84.13,-145.01 87,-144 148.77,-122.26 170.38,-129.97 236.15,-107.91"/>
<polygon fill="black" stroke="black" points="237.42,-111.17 245.73,-104.59 235.13,-104.55 237.42,-111.17"/>
<g id="a_edge4&#45;headlabel"><a xlink:href="dir_000251_000157.html" target="_top" xlink:title="1">
<text text-anchor="middle" x="234.95" y="-112.53" font-family="Helvetica,sans-Serif" font-size="10.00">1</text>
</a>
</g>
</g>
<!-- dir_0981ace215aa2029f526b70c145b9fbe -->
<g id="node7" class="node">
<title>dir_0981ace215aa2029f526b70c145b9fbe</title>
<g id="a_node7"><a xlink:href="dir_0981ace215aa2029f526b70c145b9fbe.html" target="_top" xlink:title="iop">
<polygon fill="none" stroke="red" points="372,-108 318,-108 318,-72 372,-72 372,-108"/>
<text text-anchor="middle" x="345" y="-87.5" font-family="Helvetica,sans-Serif" font-size="10.00">iop</text>
</a>
</g>
</g>
<!-- dir_2e51deef12334dd084da5d9140b29b47&#45;&gt;dir_0981ace215aa2029f526b70c145b9fbe -->
<g id="edge2" class="edge">
<title>dir_2e51deef12334dd084da5d9140b29b47&#45;&gt;dir_0981ace215aa2029f526b70c145b9fbe</title>
<path fill="none" stroke="black" d="M78.2,-147.19C81.13,-146 84.1,-144.9 87,-144 179.39,-115.32 211.47,-136.19 307.94,-107.81"/>
<polygon fill="black" stroke="black" points="309.25,-111.07 317.8,-104.81 307.21,-104.38 309.25,-111.07"/>
<g id="a_edge2&#45;headlabel"><a xlink:href="dir_000251_000151.html" target="_top" xlink:title="1">
<text text-anchor="middle" x="306.64" y="-112.34" font-family="Helvetica,sans-Serif" font-size="10.00">1</text>
</a>
</g>
</g>
</g>
</svg>
