<?xml version="1.0" encoding="UTF-8" standalone="no"?>
<!DOCTYPE svg PUBLIC "-//W3C//DTD SVG 1.1//EN"
 "http://www.w3.org/Graphics/SVG/1.1/DTD/svg11.dtd">
<!-- Generated by graphviz version 3.0.0 (20220413.0242)
 -->
<!-- Title: iop/usb/usbmass_bd Pages: 1 -->
<svg width="398pt" height="175pt"
 viewBox="0.00 0.00 398.00 175.00" xmlns="http://www.w3.org/2000/svg" xmlns:xlink="http://www.w3.org/1999/xlink">
<g id="graph0" class="graph" transform="scale(1 1) rotate(0) translate(4 171)">
<title>iop/usb/usbmass_bd</title>
<polygon fill="white" stroke="transparent" points="-4,4 -4,-171 394,-171 394,4 -4,4"/>
<g id="clust1" class="cluster">
<title>clusterdir_b6c875632944d243a548db157cd77ec2</title>
<g id="a_clust1"><a xlink:href="dir_b6c875632944d243a548db157cd77ec2.html" target="_top" xlink:title="usb">
<polygon fill="#deebf9" stroke="#7f7f7f" stroke-dasharray="5,2" points="8,-8 8,-159 184,-159 184,-8 8,-8"/>
<text text-anchor="middle" x="96" y="-147" font-family="Helvetica,sans-Serif" font-size="10.00">usb</text>
</a>
</g>
</g>
<g id="clust2" class="cluster">
<title>clusterdir_b21605a940872bbf5de5d8b063daf48d</title>
<g id="a_clust2"><a xlink:href="dir_b21605a940872bbf5de5d8b063daf48d.html" target="_top">
<polygon fill="#deebf9" stroke="#404040" stroke-width="2" points="16,-80 16,-132 176,-132 176,-80 16,-80"/>
</a>
</g>
</g>
<!-- dir_8f550b51c304fe10978bfd792866fae2 -->
<g id="node1" class="node">
<title>dir_8f550b51c304fe10978bfd792866fae2</title>
<g id="a_node1"><a xlink:href="dir_8f550b51c304fe10978bfd792866fae2.html" target="_top" xlink:title="usbd">
<polygon fill="#60a2e3" stroke="red" points="78,-52 24,-52 24,-16 78,-16 78,-52"/>
<text text-anchor="middle" x="51" y="-31.5" font-family="Helvetica,sans-Serif" font-size="10.00">usbd</text>
</a>
</g>
</g>
<!-- dir_b21605a940872bbf5de5d8b063daf48d -->
<g id="node2" class="node">
<title>dir_b21605a940872bbf5de5d8b063daf48d</title>
<text text-anchor="middle" x="132" y="-103.5" font-family="Helvetica,sans-Serif" font-size="10.00">usbmass_bd</text>
</g>
<!-- dir_972b40c78cb4e5b6d65cc6bc53c22b1f -->
<g id="node3" class="node">
<title>dir_972b40c78cb4e5b6d65cc6bc53c22b1f</title>
<g id="a_node3"><a xlink:href="dir_972b40c78cb4e5b6d65cc6bc53c22b1f.html" target="_top" xlink:title="src">
<polygon fill="#60a2e3" stroke="#404040" points="78,-124 24,-124 24,-88 78,-88 78,-124"/>
<text text-anchor="middle" x="51" y="-103.5" font-family="Helvetica,sans-Serif" font-size="10.00">src</text>
</a>
</g>
</g>
<!-- dir_972b40c78cb4e5b6d65cc6bc53c22b1f&#45;&gt;dir_8f550b51c304fe10978bfd792866fae2 -->
<g id="edge1" class="edge">
<title>dir_972b40c78cb4e5b6d65cc6bc53c22b1f&#45;&gt;dir_8f550b51c304fe10978bfd792866fae2</title>
<path fill="none" stroke="black" d="M51,-87.7C51,-79.98 51,-70.71 51,-62.11"/>
<polygon fill="black" stroke="black" points="54.5,-62.1 51,-52.1 47.5,-62.1 54.5,-62.1"/>
<g id="a_edge1&#45;headlabel"><a xlink:href="dir_000327_000353.html" target="_top" xlink:title="3">
<text text-anchor="middle" x="57.34" y="-63.2" font-family="Helvetica,sans-Serif" font-size="10.00">3</text>
</a>
</g>
</g>
<!-- dir_9be0baa3d4a3e9f480a9ee70594037fa -->
<g id="node4" class="node">
<title>dir_9be0baa3d4a3e9f480a9ee70594037fa</title>
<g id="a_node4"><a xlink:href="dir_9be0baa3d4a3e9f480a9ee70594037fa.html" target="_top" xlink:title="kernel">
<polygon fill="none" stroke="red" stroke-dasharray="5,2" points="246,-52 192,-52 192,-16 246,-16 246,-52"/>
<text text-anchor="middle" x="219" y="-31.5" font-family="Helvetica,sans-Serif" font-size="10.00">kernel</text>
</a>
</g>
</g>
<!-- dir_972b40c78cb4e5b6d65cc6bc53c22b1f&#45;&gt;dir_9be0baa3d4a3e9f480a9ee70594037fa -->
<g id="edge2" class="edge">
<title>dir_972b40c78cb4e5b6d65cc6bc53c22b1f&#45;&gt;dir_9be0baa3d4a3e9f480a9ee70594037fa</title>
<path fill="none" stroke="black" d="M73.15,-87.91C77.58,-84.99 82.32,-82.2 87,-80 126.21,-61.6 142.51,-68.37 182.33,-54.01"/>
<polygon fill="black" stroke="black" points="183.71,-57.23 191.78,-50.37 181.19,-50.7 183.71,-57.23"/>
<g id="a_edge2&#45;headlabel"><a xlink:href="dir_000327_000158.html" target="_top" xlink:title="15">
<text text-anchor="middle" x="181.37" y="-58.67" font-family="Helvetica,sans-Serif" font-size="10.00">15</text>
</a>
</g>
</g>
<!-- dir_bdd9a5d540de89e9fe90efdfc6973a4f -->
<g id="node5" class="node">
<title>dir_bdd9a5d540de89e9fe90efdfc6973a4f</title>
<g id="a_node5"><a xlink:href="dir_bdd9a5d540de89e9fe90efdfc6973a4f.html" target="_top" xlink:title="common">
<polygon fill="none" stroke="red" points="318,-52 264,-52 264,-16 318,-16 318,-52"/>
<text text-anchor="middle" x="291" y="-31.5" font-family="Helvetica,sans-Serif" font-size="10.00">common</text>
</a>
</g>
</g>
<!-- dir_972b40c78cb4e5b6d65cc6bc53c22b1f&#45;&gt;dir_bdd9a5d540de89e9fe90efdfc6973a4f -->
<g id="edge3" class="edge">
<title>dir_972b40c78cb4e5b6d65cc6bc53c22b1f&#45;&gt;dir_bdd9a5d540de89e9fe90efdfc6973a4f</title>
<path fill="none" stroke="black" d="M72.58,-87.76C77.14,-84.78 82.07,-82.01 87,-80 154.25,-52.67 180.58,-72.79 254.1,-51.73"/>
<polygon fill="black" stroke="black" points="255.24,-55.04 263.8,-48.8 253.21,-48.34 255.24,-55.04"/>
<g id="a_edge3&#45;headlabel"><a xlink:href="dir_000327_000022.html" target="_top" xlink:title="3">
<text text-anchor="middle" x="252.62" y="-56.3" font-family="Helvetica,sans-Serif" font-size="10.00">3</text>
</a>
</g>
</g>
<!-- dir_f24daea2522ffa8b6dc5fa9cdf5b8f5c -->
<g id="node6" class="node">
<title>dir_f24daea2522ffa8b6dc5fa9cdf5b8f5c</title>
<g id="a_node6"><a xlink:href="dir_f24daea2522ffa8b6dc5fa9cdf5b8f5c.html" target="_top" xlink:title="fs">
<polygon fill="none" stroke="red" stroke-dasharray="5,2" points="390,-52 336,-52 336,-16 390,-16 390,-52"/>
<text text-anchor="middle" x="363" y="-31.5" font-family="Helvetica,sans-Serif" font-size="10.00">fs</text>
</a>
</g>
</g>
<!-- dir_972b40c78cb4e5b6d65cc6bc53c22b1f&#45;&gt;dir_f24daea2522ffa8b6dc5fa9cdf5b8f5c -->
<g id="edge4" class="edge">
<title>dir_972b40c78cb4e5b6d65cc6bc53c22b1f&#45;&gt;dir_f24daea2522ffa8b6dc5fa9cdf5b8f5c</title>
<path fill="none" stroke="black" d="M72.12,-87.82C76.79,-84.76 81.88,-81.94 87,-80 184.5,-43.12 221.57,-79.29 326.18,-51.63"/>
<polygon fill="black" stroke="black" points="327.14,-54.99 335.84,-48.94 325.27,-48.25 327.14,-54.99"/>
<g id="a_edge4&#45;headlabel"><a xlink:href="dir_000327_000050.html" target="_top" xlink:title="2">
<text text-anchor="middle" x="324.44" y="-56.19" font-family="Helvetica,sans-Serif" font-size="10.00">2</text>
</a>
</g>
</g>
</g>
</svg>
