<?xml version="1.0" encoding="UTF-8" standalone="no"?>
<!DOCTYPE svg PUBLIC "-//W3C//DTD SVG 1.1//EN"
 "http://www.w3.org/Graphics/SVG/1.1/DTD/svg11.dtd">
<!-- Generated by graphviz version 3.0.0 (20220413.0242)
 -->
<!-- Title: ee/kernel Pages: 1 -->
<svg width="338pt" height="247pt"
 viewBox="0.00 0.00 338.00 247.00" xmlns="http://www.w3.org/2000/svg" xmlns:xlink="http://www.w3.org/1999/xlink">
<g id="graph0" class="graph" transform="scale(1 1) rotate(0) translate(4 243)">
<title>ee/kernel</title>
<polygon fill="white" stroke="transparent" points="-4,4 -4,-243 334,-243 334,4 -4,4"/>
<g id="clust1" class="cluster">
<title>clusterdir_049738f1909e8dc3e45fe1f6b3faa109</title>
<g id="a_clust1"><a xlink:href="dir_049738f1909e8dc3e45fe1f6b3faa109.html" target="_top" xlink:title="ee">
<polygon fill="#deebf9" stroke="#404040" stroke-dasharray="5,2" points="8,-8 8,-231 228,-231 228,-8 8,-8"/>
<text text-anchor="middle" x="118" y="-219" font-family="Helvetica,sans-Serif" font-size="10.00">ee</text>
</a>
</g>
</g>
<g id="clust2" class="cluster">
<title>clusterdir_694ec83a64f58cbdefbefce65cd1011c</title>
<g id="a_clust2"><a xlink:href="dir_694ec83a64f58cbdefbefce65cd1011c.html" target="_top">
<polygon fill="#deebf9" stroke="#404040" stroke-width="2" points="16,-80 16,-204 158,-204 158,-80 16,-80"/>
</a>
</g>
</g>
<!-- dir_5b119dc963fa9b25ef41951231899460 -->
<g id="node1" class="node">
<title>dir_5b119dc963fa9b25ef41951231899460</title>
<g id="a_node1"><a xlink:href="dir_5b119dc963fa9b25ef41951231899460.html" target="_top" xlink:title="rpc">
<polygon fill="#60a2e3" stroke="red" points="113,-52 59,-52 59,-16 113,-16 113,-52"/>
<text text-anchor="middle" x="86" y="-31.5" font-family="Helvetica,sans-Serif" font-size="10.00">rpc</text>
</a>
</g>
</g>
<!-- dir_a0a8ac7efb6662b749c1285408048e6d -->
<g id="node2" class="node">
<title>dir_a0a8ac7efb6662b749c1285408048e6d</title>
<g id="a_node2"><a xlink:href="dir_a0a8ac7efb6662b749c1285408048e6d.html" target="_top" xlink:title="erl">
<polygon fill="#60a2e3" stroke="red" points="220,-124 166,-124 166,-88 220,-88 220,-124"/>
<text text-anchor="middle" x="193" y="-103.5" font-family="Helvetica,sans-Serif" font-size="10.00">erl</text>
</a>
</g>
</g>
<!-- dir_694ec83a64f58cbdefbefce65cd1011c -->
<g id="node3" class="node">
<title>dir_694ec83a64f58cbdefbefce65cd1011c</title>
<text text-anchor="middle" x="123" y="-175.5" font-family="Helvetica,sans-Serif" font-size="10.00">kernel</text>
</g>
<!-- dir_8a6a67431f985d69787ebf051412922f -->
<g id="node4" class="node">
<title>dir_8a6a67431f985d69787ebf051412922f</title>
<g id="a_node4"><a xlink:href="dir_8a6a67431f985d69787ebf051412922f.html" target="_top" xlink:title="include">
<polygon fill="#60a2e3" stroke="#404040" points="113,-124 59,-124 59,-88 113,-88 113,-124"/>
<text text-anchor="middle" x="86" y="-103.5" font-family="Helvetica,sans-Serif" font-size="10.00">include</text>
</a>
</g>
</g>
<!-- dir_8a6a67431f985d69787ebf051412922f&#45;&gt;dir_5b119dc963fa9b25ef41951231899460 -->
<g id="edge1" class="edge">
<title>dir_8a6a67431f985d69787ebf051412922f&#45;&gt;dir_5b119dc963fa9b25ef41951231899460</title>
<path fill="none" stroke="black" d="M86,-87.7C86,-79.98 86,-70.71 86,-62.11"/>
<polygon fill="black" stroke="black" points="89.5,-62.1 86,-52.1 82.5,-62.1 89.5,-62.1"/>
<g id="a_edge1&#45;headlabel"><a xlink:href="dir_000074_000207.html" target="_top" xlink:title="1">
<text text-anchor="middle" x="92.34" y="-63.2" font-family="Helvetica,sans-Serif" font-size="10.00">1</text>
</a>
</g>
</g>
<!-- dir_bdd9a5d540de89e9fe90efdfc6973a4f -->
<g id="node6" class="node">
<title>dir_bdd9a5d540de89e9fe90efdfc6973a4f</title>
<g id="a_node6"><a xlink:href="dir_bdd9a5d540de89e9fe90efdfc6973a4f.html" target="_top" xlink:title="common">
<polygon fill="none" stroke="red" points="290,-52 236,-52 236,-16 290,-16 290,-52"/>
<text text-anchor="middle" x="263" y="-31.5" font-family="Helvetica,sans-Serif" font-size="10.00">common</text>
</a>
</g>
</g>
<!-- dir_8a6a67431f985d69787ebf051412922f&#45;&gt;dir_bdd9a5d540de89e9fe90efdfc6973a4f -->
<g id="edge2" class="edge">
<title>dir_8a6a67431f985d69787ebf051412922f&#45;&gt;dir_bdd9a5d540de89e9fe90efdfc6973a4f</title>
<path fill="none" stroke="black" d="M104.44,-87.98C108.38,-84.98 112.66,-82.14 117,-80 161.22,-58.16 180.5,-69.39 226.28,-53.89"/>
<polygon fill="black" stroke="black" points="227.61,-57.13 235.8,-50.42 225.21,-50.56 227.61,-57.13"/>
<g id="a_edge2&#45;headlabel"><a xlink:href="dir_000074_000022.html" target="_top" xlink:title="8">
<text text-anchor="middle" x="225.2" y="-58.53" font-family="Helvetica,sans-Serif" font-size="10.00">8</text>
</a>
</g>
</g>
<!-- dir_a493926c6e9678712bca5b1e822bb94f -->
<g id="node5" class="node">
<title>dir_a493926c6e9678712bca5b1e822bb94f</title>
<g id="a_node5"><a xlink:href="dir_a493926c6e9678712bca5b1e822bb94f.html" target="_top" xlink:title="src">
<polygon fill="#60a2e3" stroke="#404040" points="78,-196 24,-196 24,-160 78,-160 78,-196"/>
<text text-anchor="middle" x="51" y="-175.5" font-family="Helvetica,sans-Serif" font-size="10.00">src</text>
</a>
</g>
</g>
<!-- dir_a493926c6e9678712bca5b1e822bb94f&#45;&gt;dir_a0a8ac7efb6662b749c1285408048e6d -->
<g id="edge5" class="edge">
<title>dir_a493926c6e9678712bca5b1e822bb94f&#45;&gt;dir_a0a8ac7efb6662b749c1285408048e6d</title>
<path fill="none" stroke="black" d="M78.23,-164.1C103.13,-152.28 138.45,-135.49 156.82,-126.49"/>
<polygon fill="black" stroke="black" points="158.61,-129.52 166,-121.92 155.48,-123.25 158.61,-129.52"/>
<g id="a_edge5&#45;headlabel"><a xlink:href="dir_000234_000042.html" target="_top" xlink:title="1">
<text text-anchor="middle" x="156.65" y="-131.16" font-family="Helvetica,sans-Serif" font-size="10.00">1</text>
</a>
</g>
</g>
<!-- dir_a493926c6e9678712bca5b1e822bb94f&#45;&gt;dir_8a6a67431f985d69787ebf051412922f -->
<g id="edge4" class="edge">
<title>dir_a493926c6e9678712bca5b1e822bb94f&#45;&gt;dir_8a6a67431f985d69787ebf051412922f</title>
<path fill="none" stroke="black" d="M59.65,-159.7C63.64,-151.73 68.45,-142.1 72.87,-133.26"/>
<polygon fill="black" stroke="black" points="76.11,-134.61 77.45,-124.1 69.85,-131.48 76.11,-134.61"/>
<g id="a_edge4&#45;headlabel"><a xlink:href="dir_000234_000074.html" target="_top" xlink:title="49">
<text text-anchor="middle" x="77.04" y="-136.6" font-family="Helvetica,sans-Serif" font-size="10.00">49</text>
</a>
</g>
</g>
<!-- dir_a493926c6e9678712bca5b1e822bb94f&#45;&gt;dir_bdd9a5d540de89e9fe90efdfc6973a4f -->
<g id="edge6" class="edge">
<title>dir_a493926c6e9678712bca5b1e822bb94f&#45;&gt;dir_bdd9a5d540de89e9fe90efdfc6973a4f</title>
<path fill="none" stroke="black" d="M78.28,-163.43C81.19,-162.19 84.14,-161.02 87,-160 149.55,-137.71 182.94,-168.75 232,-124 249.42,-108.11 257.05,-81.91 260.39,-62.04"/>
<polygon fill="black" stroke="black" points="263.87,-62.43 261.81,-52.04 256.94,-61.45 263.87,-62.43"/>
<g id="a_edge6&#45;headlabel"><a xlink:href="dir_000234_000022.html" target="_top" xlink:title="17">
<text text-anchor="middle" x="266.18" y="-63.89" font-family="Helvetica,sans-Serif" font-size="10.00">17</text>
</a>
</g>
</g>
<!-- dir_0981ace215aa2029f526b70c145b9fbe -->
<g id="node7" class="node">
<title>dir_0981ace215aa2029f526b70c145b9fbe</title>
<g id="a_node7"><a xlink:href="dir_0981ace215aa2029f526b70c145b9fbe.html" target="_top" xlink:title="iop">
<polygon fill="none" stroke="red" points="330,-124 276,-124 276,-88 330,-88 330,-124"/>
<text text-anchor="middle" x="303" y="-103.5" font-family="Helvetica,sans-Serif" font-size="10.00">iop</text>
</a>
</g>
</g>
<!-- dir_a493926c6e9678712bca5b1e822bb94f&#45;&gt;dir_0981ace215aa2029f526b70c145b9fbe -->
<g id="edge3" class="edge">
<title>dir_a493926c6e9678712bca5b1e822bb94f&#45;&gt;dir_0981ace215aa2029f526b70c145b9fbe</title>
<path fill="none" stroke="black" d="M78.24,-163.31C81.16,-162.1 84.12,-160.96 87,-160 162.32,-134.87 186.09,-147.31 262,-124 263.43,-123.56 264.87,-123.09 266.33,-122.6"/>
<polygon fill="black" stroke="black" points="267.74,-125.81 275.92,-119.08 265.32,-119.24 267.74,-125.81"/>
<g id="a_edge3&#45;headlabel"><a xlink:href="dir_000234_000151.html" target="_top" xlink:title="5">
<text text-anchor="middle" x="265.34" y="-127.21" font-family="Helvetica,sans-Serif" font-size="10.00">5</text>
</a>
</g>
</g>
</g>
</svg>
