<?xml version="1.0" encoding="UTF-8" standalone="no"?>
<!DOCTYPE svg PUBLIC "-//W3C//DTD SVG 1.1//EN"
 "http://www.w3.org/Graphics/SVG/1.1/DTD/svg11.dtd">
<!-- Generated by graphviz version 3.0.0 (20220413.0242)
 -->
<!-- Title: ee/font/include Pages: 1 -->
<svg width="134pt" height="151pt"
 viewBox="0.00 0.00 134.00 151.00" xmlns="http://www.w3.org/2000/svg" xmlns:xlink="http://www.w3.org/1999/xlink">
<g id="graph0" class="graph" transform="scale(1 1) rotate(0) translate(4 147)">
<title>ee/font/include</title>
<polygon fill="white" stroke="transparent" points="-4,4 -4,-147 130,-147 130,4 -4,4"/>
<g id="clust1" class="cluster">
<title>clusterdir_6a18a5fb12cb9e6be5f051ff6b53d12a</title>
<g id="a_clust1"><a xlink:href="dir_6a18a5fb12cb9e6be5f051ff6b53d12a.html" target="_top" xlink:title="font">
<polygon fill="#deebf9" stroke="#7f7f7f" stroke-dasharray="5,2" points="28,-64 28,-135 98,-135 98,-64 28,-64"/>
<text text-anchor="middle" x="63" y="-123" font-family="Helvetica,sans-Serif" font-size="10.00">font</text>
</a>
</g>
</g>
<!-- dir_3a96145256e208ba8e54b2dc9687859a -->
<g id="node1" class="node">
<title>dir_3a96145256e208ba8e54b2dc9687859a</title>
<g id="a_node1"><a xlink:href="dir_3a96145256e208ba8e54b2dc9687859a.html" target="_top" xlink:title="include">
<polygon fill="#deebf9" stroke="#404040" stroke-width="2" points="90,-108 36,-108 36,-72 90,-72 90,-108"/>
<text text-anchor="middle" x="63" y="-87.5" font-family="Helvetica,sans-Serif" font-size="10.00">include</text>
</a>
</g>
</g>
<!-- dir_2649a81c7f56a709216892bc1285ef27 -->
<g id="node2" class="node">
<title>dir_2649a81c7f56a709216892bc1285ef27</title>
<g id="a_node2"><a xlink:href="dir_2649a81c7f56a709216892bc1285ef27.html" target="_top" xlink:title="draw">
<polygon fill="none" stroke="red" stroke-dasharray="5,2" points="54,-36 0,-36 0,0 54,0 54,-36"/>
<text text-anchor="middle" x="27" y="-15.5" font-family="Helvetica,sans-Serif" font-size="10.00">draw</text>
</a>
</g>
</g>
<!-- dir_3a96145256e208ba8e54b2dc9687859a&#45;&gt;dir_2649a81c7f56a709216892bc1285ef27 -->
<g id="edge1" class="edge">
<title>dir_3a96145256e208ba8e54b2dc9687859a&#45;&gt;dir_2649a81c7f56a709216892bc1285ef27</title>
<path fill="none" stroke="black" d="M54.1,-71.7C50,-63.73 45.05,-54.1 40.51,-45.26"/>
<polygon fill="black" stroke="black" points="43.48,-43.4 35.8,-36.1 37.26,-46.6 43.48,-43.4"/>
<g id="a_edge1&#45;headlabel"><a xlink:href="dir_000070_000030.html" target="_top" xlink:title="1">
<text text-anchor="middle" x="47.65" y="-42.79" font-family="Helvetica,sans-Serif" font-size="10.00">1</text>
</a>
</g>
</g>
<!-- dir_bdd9a5d540de89e9fe90efdfc6973a4f -->
<g id="node3" class="node">
<title>dir_bdd9a5d540de89e9fe90efdfc6973a4f</title>
<g id="a_node3"><a xlink:href="dir_bdd9a5d540de89e9fe90efdfc6973a4f.html" target="_top" xlink:title="common">
<polygon fill="none" stroke="red" points="126,-36 72,-36 72,0 126,0 126,-36"/>
<text text-anchor="middle" x="99" y="-15.5" font-family="Helvetica,sans-Serif" font-size="10.00">common</text>
</a>
</g>
</g>
<!-- dir_3a96145256e208ba8e54b2dc9687859a&#45;&gt;dir_bdd9a5d540de89e9fe90efdfc6973a4f -->
<g id="edge2" class="edge">
<title>dir_3a96145256e208ba8e54b2dc9687859a&#45;&gt;dir_bdd9a5d540de89e9fe90efdfc6973a4f</title>
<path fill="none" stroke="black" d="M71.9,-71.7C76,-63.73 80.95,-54.1 85.49,-45.26"/>
<polygon fill="black" stroke="black" points="88.74,-46.6 90.2,-36.1 82.52,-43.4 88.74,-46.6"/>
<g id="a_edge2&#45;headlabel"><a xlink:href="dir_000070_000022.html" target="_top" xlink:title="1">
<text text-anchor="middle" x="89.62" y="-48.59" font-family="Helvetica,sans-Serif" font-size="10.00">1</text>
</a>
</g>
</g>
</g>
</svg>
