<?xml version="1.0" encoding="UTF-8" standalone="no"?>
<!DOCTYPE svg PUBLIC "-//W3C//DTD SVG 1.1//EN"
 "http://www.w3.org/Graphics/SVG/1.1/DTD/svg11.dtd">
<!-- Generated by graphviz version 3.0.0 (20220413.0242)
 -->
<!-- Title: iop/usb Pages: 1 -->
<svg width="630pt" height="247pt"
 viewBox="0.00 0.00 630.00 247.00" xmlns="http://www.w3.org/2000/svg" xmlns:xlink="http://www.w3.org/1999/xlink">
<g id="graph0" class="graph" transform="scale(1 1) rotate(0) translate(4 243)">
<title>iop/usb</title>
<polygon fill="white" stroke="transparent" points="-4,4 -4,-243 626,-243 626,4 -4,4"/>
<g id="clust1" class="cluster">
<title>clusterdir_0981ace215aa2029f526b70c145b9fbe</title>
<g id="a_clust1"><a xlink:href="dir_0981ace215aa2029f526b70c145b9fbe.html" target="_top" xlink:title="iop">
<polygon fill="#deebf9" stroke="#404040" stroke-dasharray="5,2" points="8,-8 8,-231 558,-231 558,-8 8,-8"/>
<text text-anchor="middle" x="283" y="-219" font-family="Helvetica,sans-Serif" font-size="10.00">iop</text>
</a>
</g>
</g>
<g id="clust2" class="cluster">
<title>clusterdir_b6c875632944d243a548db157cd77ec2</title>
<g id="a_clust2"><a xlink:href="dir_b6c875632944d243a548db157cd77ec2.html" target="_top">
<polygon fill="#deebf9" stroke="#404040" stroke-width="2" points="16,-80 16,-204 468,-204 468,-80 16,-80"/>
</a>
</g>
</g>
<!-- dir_9be0baa3d4a3e9f480a9ee70594037fa -->
<g id="node1" class="node">
<title>dir_9be0baa3d4a3e9f480a9ee70594037fa</title>
<g id="a_node1"><a xlink:href="dir_9be0baa3d4a3e9f480a9ee70594037fa.html" target="_top" xlink:title="kernel">
<polygon fill="#60a2e3" stroke="red" points="240,-52 186,-52 186,-16 240,-16 240,-52"/>
<text text-anchor="middle" x="213" y="-31.5" font-family="Helvetica,sans-Serif" font-size="10.00">kernel</text>
</a>
</g>
</g>
<!-- dir_f24daea2522ffa8b6dc5fa9cdf5b8f5c -->
<g id="node2" class="node">
<title>dir_f24daea2522ffa8b6dc5fa9cdf5b8f5c</title>
<g id="a_node2"><a xlink:href="dir_f24daea2522ffa8b6dc5fa9cdf5b8f5c.html" target="_top" xlink:title="fs">
<polygon fill="#60a2e3" stroke="red" points="530,-124 476,-124 476,-88 530,-88 530,-124"/>
<text text-anchor="middle" x="503" y="-103.5" font-family="Helvetica,sans-Serif" font-size="10.00">fs</text>
</a>
</g>
</g>
<!-- dir_b6c875632944d243a548db157cd77ec2 -->
<g id="node3" class="node">
<title>dir_b6c875632944d243a548db157cd77ec2</title>
<text text-anchor="middle" x="433" y="-175.5" font-family="Helvetica,sans-Serif" font-size="10.00">usb</text>
</g>
<!-- dir_354d0fe30f8451f44d30d5ee272e7643 -->
<g id="node4" class="node">
<title>dir_354d0fe30f8451f44d30d5ee272e7643</title>
<g id="a_node4"><a xlink:href="dir_354d0fe30f8451f44d30d5ee272e7643.html" target="_top" xlink:title="camera">
<polygon fill="#60a2e3" stroke="#404040" points="388,-196 334,-196 334,-160 388,-160 388,-196"/>
<text text-anchor="middle" x="361" y="-175.5" font-family="Helvetica,sans-Serif" font-size="10.00">camera</text>
</a>
</g>
</g>
<!-- dir_354d0fe30f8451f44d30d5ee272e7643&#45;&gt;dir_9be0baa3d4a3e9f480a9ee70594037fa -->
<g id="edge1" class="edge">
<title>dir_354d0fe30f8451f44d30d5ee272e7643&#45;&gt;dir_9be0baa3d4a3e9f480a9ee70594037fa</title>
<path fill="none" stroke="black" d="M388.29,-163.45C391.2,-162.2 394.14,-161.03 397,-160 458.28,-138 499.02,-175.38 539,-124 551.01,-108.57 551.85,-94.74 539,-80 501.94,-37.47 328.09,-33.78 250.53,-34.31"/>
<polygon fill="black" stroke="black" points="250.21,-30.81 240.25,-34.41 250.28,-37.81 250.21,-30.81"/>
<g id="a_edge1&#45;headlabel"><a xlink:href="dir_000018_000158.html" target="_top" xlink:title="19">
<text text-anchor="middle" x="253.78" y="-25.44" font-family="Helvetica,sans-Serif" font-size="10.00">19</text>
</a>
</g>
</g>
<!-- dir_8f550b51c304fe10978bfd792866fae2 -->
<g id="node7" class="node">
<title>dir_8f550b51c304fe10978bfd792866fae2</title>
<g id="a_node7"><a xlink:href="dir_8f550b51c304fe10978bfd792866fae2.html" target="_top" xlink:title="usbd">
<polygon fill="#60a2e3" stroke="#404040" points="164,-124 110,-124 110,-88 164,-88 164,-124"/>
<text text-anchor="middle" x="137" y="-103.5" font-family="Helvetica,sans-Serif" font-size="10.00">usbd</text>
</a>
</g>
</g>
<!-- dir_354d0fe30f8451f44d30d5ee272e7643&#45;&gt;dir_8f550b51c304fe10978bfd792866fae2 -->
<g id="edge2" class="edge">
<title>dir_354d0fe30f8451f44d30d5ee272e7643&#45;&gt;dir_8f550b51c304fe10978bfd792866fae2</title>
<path fill="none" stroke="black" d="M333.74,-163.38C330.82,-162.15 327.87,-160.99 325,-160 260.52,-137.68 237.11,-148.33 173.83,-125.98"/>
<polygon fill="black" stroke="black" points="174.78,-122.61 164.19,-122.44 172.37,-129.18 174.78,-122.61"/>
<g id="a_edge2&#45;headlabel"><a xlink:href="dir_000018_000353.html" target="_top" xlink:title="3">
<text text-anchor="middle" x="179.14" y="-118.68" font-family="Helvetica,sans-Serif" font-size="10.00">3</text>
</a>
</g>
</g>
<!-- dir_bdd9a5d540de89e9fe90efdfc6973a4f -->
<g id="node10" class="node">
<title>dir_bdd9a5d540de89e9fe90efdfc6973a4f</title>
<g id="a_node10"><a xlink:href="dir_bdd9a5d540de89e9fe90efdfc6973a4f.html" target="_top" xlink:title="common">
<polygon fill="none" stroke="red" points="622,-124 568,-124 568,-88 622,-88 622,-124"/>
<text text-anchor="middle" x="595" y="-103.5" font-family="Helvetica,sans-Serif" font-size="10.00">common</text>
</a>
</g>
</g>
<!-- dir_354d0fe30f8451f44d30d5ee272e7643&#45;&gt;dir_bdd9a5d540de89e9fe90efdfc6973a4f -->
<g id="edge3" class="edge">
<title>dir_354d0fe30f8451f44d30d5ee272e7643&#45;&gt;dir_bdd9a5d540de89e9fe90efdfc6973a4f</title>
<path fill="none" stroke="black" d="M388.25,-163.35C391.17,-162.12 394.12,-160.98 397,-160 465,-136.86 489.28,-148.31 558.3,-125.02"/>
<polygon fill="black" stroke="black" points="559.59,-128.27 567.88,-121.67 557.28,-121.67 559.59,-128.27"/>
<g id="a_edge3&#45;headlabel"><a xlink:href="dir_000018_000022.html" target="_top" xlink:title="1">
<text text-anchor="middle" x="557.14" y="-129.64" font-family="Helvetica,sans-Serif" font-size="10.00">1</text>
</a>
</g>
</g>
<!-- dir_dfd34f7999bdb28cb70101636e016b16 -->
<g id="node5" class="node">
<title>dir_dfd34f7999bdb28cb70101636e016b16</title>
<g id="a_node5"><a xlink:href="dir_dfd34f7999bdb28cb70101636e016b16.html" target="_top" xlink:title="keyboard">
<polygon fill="#60a2e3" stroke="#404040" points="80,-196 24,-196 24,-160 80,-160 80,-196"/>
<text text-anchor="middle" x="52" y="-175.5" font-family="Helvetica,sans-Serif" font-size="10.00">keyboard</text>
</a>
</g>
</g>
<!-- dir_dfd34f7999bdb28cb70101636e016b16&#45;&gt;dir_9be0baa3d4a3e9f480a9ee70594037fa -->
<g id="edge4" class="edge">
<title>dir_dfd34f7999bdb28cb70101636e016b16&#45;&gt;dir_9be0baa3d4a3e9f480a9ee70594037fa</title>
<path fill="none" stroke="black" d="M80.25,-163.93C83.2,-162.59 86.16,-161.26 89,-160 126.12,-143.52 145.4,-153.8 173,-124 187.04,-108.84 179.62,-98.88 188,-80 190.76,-73.78 194.09,-67.28 197.41,-61.22"/>
<polygon fill="black" stroke="black" points="200.66,-62.58 202.52,-52.15 194.56,-59.14 200.66,-62.58"/>
<g id="a_edge4&#45;headlabel"><a xlink:href="dir_000160_000158.html" target="_top" xlink:title="19">
<text text-anchor="middle" x="201.36" y="-64.61" font-family="Helvetica,sans-Serif" font-size="10.00">19</text>
</a>
</g>
</g>
<!-- dir_dfd34f7999bdb28cb70101636e016b16&#45;&gt;dir_8f550b51c304fe10978bfd792866fae2 -->
<g id="edge5" class="edge">
<title>dir_dfd34f7999bdb28cb70101636e016b16&#45;&gt;dir_8f550b51c304fe10978bfd792866fae2</title>
<path fill="none" stroke="black" d="M73.01,-159.7C83.72,-150.88 96.89,-140.03 108.5,-130.47"/>
<polygon fill="black" stroke="black" points="110.74,-133.16 116.23,-124.1 106.29,-127.76 110.74,-133.16"/>
<g id="a_edge5&#45;headlabel"><a xlink:href="dir_000160_000353.html" target="_top" xlink:title="3">
<text text-anchor="middle" x="109.77" y="-135.14" font-family="Helvetica,sans-Serif" font-size="10.00">3</text>
</a>
</g>
</g>
<!-- dir_6c36fa94566b53a53d1b33c49cbff7fb -->
<g id="node6" class="node">
<title>dir_6c36fa94566b53a53d1b33c49cbff7fb</title>
<g id="a_node6"><a xlink:href="dir_6c36fa94566b53a53d1b33c49cbff7fb.html" target="_top" xlink:title="mouse">
<polygon fill="#60a2e3" stroke="#404040" points="152,-196 98,-196 98,-160 152,-160 152,-196"/>
<text text-anchor="middle" x="125" y="-175.5" font-family="Helvetica,sans-Serif" font-size="10.00">mouse</text>
</a>
</g>
</g>
<!-- dir_6c36fa94566b53a53d1b33c49cbff7fb&#45;&gt;dir_9be0baa3d4a3e9f480a9ee70594037fa -->
<g id="edge6" class="edge">
<title>dir_6c36fa94566b53a53d1b33c49cbff7fb&#45;&gt;dir_9be0baa3d4a3e9f480a9ee70594037fa</title>
<path fill="none" stroke="black" d="M151.9,-159.99C164.52,-150.75 178.78,-138.3 188,-124 200.05,-105.31 206.38,-80.77 209.65,-62.2"/>
<polygon fill="black" stroke="black" points="213.11,-62.73 211.21,-52.31 206.2,-61.64 213.11,-62.73"/>
<g id="a_edge6&#45;headlabel"><a xlink:href="dir_000179_000158.html" target="_top" xlink:title="19">
<text text-anchor="middle" x="215.36" y="-64.22" font-family="Helvetica,sans-Serif" font-size="10.00">19</text>
</a>
</g>
</g>
<!-- dir_6c36fa94566b53a53d1b33c49cbff7fb&#45;&gt;dir_8f550b51c304fe10978bfd792866fae2 -->
<g id="edge7" class="edge">
<title>dir_6c36fa94566b53a53d1b33c49cbff7fb&#45;&gt;dir_8f550b51c304fe10978bfd792866fae2</title>
<path fill="none" stroke="black" d="M127.97,-159.7C129.29,-151.98 130.88,-142.71 132.35,-134.11"/>
<polygon fill="black" stroke="black" points="135.83,-134.55 134.07,-124.1 128.93,-133.37 135.83,-134.55"/>
<g id="a_edge7&#45;headlabel"><a xlink:href="dir_000179_000353.html" target="_top" xlink:title="3">
<text text-anchor="middle" x="138.02" y="-136.07" font-family="Helvetica,sans-Serif" font-size="10.00">3</text>
</a>
</g>
</g>
<!-- dir_8f550b51c304fe10978bfd792866fae2&#45;&gt;dir_9be0baa3d4a3e9f480a9ee70594037fa -->
<g id="edge8" class="edge">
<title>dir_8f550b51c304fe10978bfd792866fae2&#45;&gt;dir_9be0baa3d4a3e9f480a9ee70594037fa</title>
<path fill="none" stroke="black" d="M155.79,-87.7C165.17,-79.05 176.68,-68.45 186.91,-59.03"/>
<polygon fill="black" stroke="black" points="189.45,-61.45 194.43,-52.1 184.7,-56.3 189.45,-61.45"/>
<g id="a_edge8&#45;headlabel"><a xlink:href="dir_000353_000158.html" target="_top" xlink:title="37">
<text text-anchor="middle" x="188.72" y="-63.48" font-family="Helvetica,sans-Serif" font-size="10.00">37</text>
</a>
</g>
</g>
<!-- dir_b8874c233d466218401f983297aca89b -->
<g id="node8" class="node">
<title>dir_b8874c233d466218401f983297aca89b</title>
<g id="a_node8"><a xlink:href="dir_b8874c233d466218401f983297aca89b.html" target="_top" xlink:title="usbhdfsd">
<polygon fill="#60a2e3" stroke="#404040" points="226,-196 170,-196 170,-160 226,-160 226,-196"/>
<text text-anchor="middle" x="198" y="-175.5" font-family="Helvetica,sans-Serif" font-size="10.00">usbhdfsd</text>
</a>
</g>
</g>
<!-- dir_b8874c233d466218401f983297aca89b&#45;&gt;dir_9be0baa3d4a3e9f480a9ee70594037fa -->
<g id="edge10" class="edge">
<title>dir_b8874c233d466218401f983297aca89b&#45;&gt;dir_9be0baa3d4a3e9f480a9ee70594037fa</title>
<path fill="none" stroke="black" d="M201.81,-159.9C203.97,-149.56 206.53,-136.08 208,-124 210.51,-103.39 211.76,-79.94 212.39,-62.29"/>
<polygon fill="black" stroke="black" points="215.89,-62.22 212.7,-52.12 208.89,-62.01 215.89,-62.22"/>
<g id="a_edge10&#45;headlabel"><a xlink:href="dir_000354_000158.html" target="_top" xlink:title="40">
<text text-anchor="middle" x="218.62" y="-63.4" font-family="Helvetica,sans-Serif" font-size="10.00">40</text>
</a>
</g>
</g>
<!-- dir_b8874c233d466218401f983297aca89b&#45;&gt;dir_8f550b51c304fe10978bfd792866fae2 -->
<g id="edge9" class="edge">
<title>dir_b8874c233d466218401f983297aca89b&#45;&gt;dir_8f550b51c304fe10978bfd792866fae2</title>
<path fill="none" stroke="black" d="M182.92,-159.7C175.61,-151.3 166.69,-141.07 158.66,-131.86"/>
<polygon fill="black" stroke="black" points="161.11,-129.34 151.91,-124.1 155.84,-133.94 161.11,-129.34"/>
<g id="a_edge9&#45;headlabel"><a xlink:href="dir_000354_000353.html" target="_top" xlink:title="3">
<text text-anchor="middle" x="165.62" y="-127.69" font-family="Helvetica,sans-Serif" font-size="10.00">3</text>
</a>
</g>
</g>
<!-- dir_b8874c233d466218401f983297aca89b&#45;&gt;dir_bdd9a5d540de89e9fe90efdfc6973a4f -->
<g id="edge11" class="edge">
<title>dir_b8874c233d466218401f983297aca89b&#45;&gt;dir_bdd9a5d540de89e9fe90efdfc6973a4f</title>
<path fill="none" stroke="black" d="M226.34,-162.88C229.22,-161.78 232.14,-160.79 235,-160 372.74,-121.85 419.89,-164.2 558.27,-124.75"/>
<polygon fill="black" stroke="black" points="559.35,-128.08 567.95,-121.9 557.37,-121.37 559.35,-128.08"/>
<g id="a_edge11&#45;headlabel"><a xlink:href="dir_000354_000022.html" target="_top" xlink:title="8">
<text text-anchor="middle" x="556.7" y="-129.32" font-family="Helvetica,sans-Serif" font-size="10.00">8</text>
</a>
</g>
</g>
<!-- dir_b21605a940872bbf5de5d8b063daf48d -->
<g id="node9" class="node">
<title>dir_b21605a940872bbf5de5d8b063daf48d</title>
<g id="a_node9"><a xlink:href="dir_b21605a940872bbf5de5d8b063daf48d.html" target="_top" xlink:title="usbmass_bd">
<polygon fill="#60a2e3" stroke="#404040" points="316,-196 244,-196 244,-160 316,-160 316,-196"/>
<text text-anchor="middle" x="280" y="-175.5" font-family="Helvetica,sans-Serif" font-size="10.00">usbmass_bd</text>
</a>
</g>
</g>
<!-- dir_b21605a940872bbf5de5d8b063daf48d&#45;&gt;dir_9be0baa3d4a3e9f480a9ee70594037fa -->
<g id="edge13" class="edge">
<title>dir_b21605a940872bbf5de5d8b063daf48d&#45;&gt;dir_9be0baa3d4a3e9f480a9ee70594037fa</title>
<path fill="none" stroke="black" d="M271.92,-159.87C260.35,-135.35 238.97,-90.03 225.39,-61.26"/>
<polygon fill="black" stroke="black" points="228.54,-59.74 221.11,-52.19 222.21,-62.73 228.54,-59.74"/>
<g id="a_edge13&#45;headlabel"><a xlink:href="dir_000355_000158.html" target="_top" xlink:title="15">
<text text-anchor="middle" x="232.64" y="-59.28" font-family="Helvetica,sans-Serif" font-size="10.00">15</text>
</a>
</g>
</g>
<!-- dir_b21605a940872bbf5de5d8b063daf48d&#45;&gt;dir_f24daea2522ffa8b6dc5fa9cdf5b8f5c -->
<g id="edge15" class="edge">
<title>dir_b21605a940872bbf5de5d8b063daf48d&#45;&gt;dir_f24daea2522ffa8b6dc5fa9cdf5b8f5c</title>
<path fill="none" stroke="black" d="M316.22,-162.89C319.17,-161.87 322.13,-160.89 325,-160 386.11,-141.05 407.24,-147.64 466.38,-125.98"/>
<polygon fill="black" stroke="black" points="467.69,-129.23 475.8,-122.42 465.21,-122.68 467.69,-129.23"/>
<g id="a_edge15&#45;headlabel"><a xlink:href="dir_000355_000050.html" target="_top" xlink:title="2">
<text text-anchor="middle" x="465.33" y="-130.66" font-family="Helvetica,sans-Serif" font-size="10.00">2</text>
</a>
</g>
</g>
<!-- dir_b21605a940872bbf5de5d8b063daf48d&#45;&gt;dir_8f550b51c304fe10978bfd792866fae2 -->
<g id="edge12" class="edge">
<title>dir_b21605a940872bbf5de5d8b063daf48d&#45;&gt;dir_8f550b51c304fe10978bfd792866fae2</title>
<path fill="none" stroke="black" d="M243.92,-160.59C224.17,-151.46 199.09,-139.63 173.19,-126.59"/>
<polygon fill="black" stroke="black" points="174.5,-123.33 164,-121.93 171.34,-129.58 174.5,-123.33"/>
<g id="a_edge12&#45;headlabel"><a xlink:href="dir_000355_000353.html" target="_top" xlink:title="3">
<text text-anchor="middle" x="178.99" y="-119.93" font-family="Helvetica,sans-Serif" font-size="10.00">3</text>
</a>
</g>
</g>
<!-- dir_b21605a940872bbf5de5d8b063daf48d&#45;&gt;dir_bdd9a5d540de89e9fe90efdfc6973a4f -->
<g id="edge14" class="edge">
<title>dir_b21605a940872bbf5de5d8b063daf48d&#45;&gt;dir_bdd9a5d540de89e9fe90efdfc6973a4f</title>
<path fill="none" stroke="black" d="M316.14,-162.6C319.11,-161.64 322.09,-160.76 325,-160 424.95,-133.84 458.61,-155.43 558.38,-124.83"/>
<polygon fill="black" stroke="black" points="559.45,-128.17 567.92,-121.81 557.33,-121.49 559.45,-128.17"/>
<g id="a_edge14&#45;headlabel"><a xlink:href="dir_000355_000022.html" target="_top" xlink:title="3">
<text text-anchor="middle" x="556.88" y="-129.46" font-family="Helvetica,sans-Serif" font-size="10.00">3</text>
</a>
</g>
</g>
</g>
</svg>
