<?xml version="1.0" encoding="UTF-8" standalone="no"?>
<!DOCTYPE svg PUBLIC "-//W3C//DTD SVG 1.1//EN"
 "http://www.w3.org/Graphics/SVG/1.1/DTD/svg11.dtd">
<!-- Generated by graphviz version 3.0.0 (20220413.0242)
 -->
<!-- Title: common Pages: 1 -->
<svg width="220pt" height="204pt"
 viewBox="0.00 0.00 220.00 204.00" xmlns="http://www.w3.org/2000/svg" xmlns:xlink="http://www.w3.org/1999/xlink">
<g id="graph0" class="graph" transform="scale(1 1) rotate(0) translate(4 200)">
<title>common</title>
<polygon fill="white" stroke="transparent" points="-4,4 -4,-200 216,-200 216,4 -4,4"/>
<g id="clust1" class="cluster">
<title>clusterdir_bdd9a5d540de89e9fe90efdfc6973a4f</title>
<g id="a_clust1"><a xlink:href="dir_bdd9a5d540de89e9fe90efdfc6973a4f.html" target="_top">
<polygon fill="#deebf9" stroke="#404040" stroke-width="2" points="8,-64 8,-188 150,-188 150,-64 8,-64"/>
</a>
</g>
</g>
<!-- dir_bdd9a5d540de89e9fe90efdfc6973a4f -->
<g id="node1" class="node">
<title>dir_bdd9a5d540de89e9fe90efdfc6973a4f</title>
<text text-anchor="middle" x="115" y="-159.5" font-family="Helvetica,sans-Serif" font-size="10.00">common</text>
</g>
<!-- dir_11fbc4217d50ab21044e5ad6614aede5 -->
<g id="node2" class="node">
<title>dir_11fbc4217d50ab21044e5ad6614aede5</title>
<g id="a_node2"><a xlink:href="dir_11fbc4217d50ab21044e5ad6614aede5.html" target="_top" xlink:title="include">
<polygon fill="#60a2e3" stroke="#404040" points="70,-108 16,-108 16,-72 70,-72 70,-108"/>
<text text-anchor="middle" x="43" y="-87.5" font-family="Helvetica,sans-Serif" font-size="10.00">include</text>
</a>
</g>
</g>
<!-- dir_0981ace215aa2029f526b70c145b9fbe -->
<g id="node4" class="node">
<title>dir_0981ace215aa2029f526b70c145b9fbe</title>
<g id="a_node4"><a xlink:href="dir_0981ace215aa2029f526b70c145b9fbe.html" target="_top" xlink:title="iop">
<polygon fill="none" stroke="red" points="97,-36 43,-36 43,0 97,0 97,-36"/>
<text text-anchor="middle" x="70" y="-15.5" font-family="Helvetica,sans-Serif" font-size="10.00">iop</text>
</a>
</g>
</g>
<!-- dir_11fbc4217d50ab21044e5ad6614aede5&#45;&gt;dir_0981ace215aa2029f526b70c145b9fbe -->
<g id="edge1" class="edge">
<title>dir_11fbc4217d50ab21044e5ad6614aede5&#45;&gt;dir_0981ace215aa2029f526b70c145b9fbe</title>
<path fill="none" stroke="black" d="M49.67,-71.7C52.71,-63.81 56.38,-54.3 59.76,-45.55"/>
<polygon fill="black" stroke="black" points="63.07,-46.69 63.4,-36.1 56.54,-44.17 63.07,-46.69"/>
<g id="a_edge1&#45;headlabel"><a xlink:href="dir_000062_000151.html" target="_top" xlink:title="2">
<text text-anchor="middle" x="64.42" y="-48.57" font-family="Helvetica,sans-Serif" font-size="10.00">2</text>
</a>
</g>
</g>
<!-- dir_58a8fc8f1a03774579661b06bb97dd1a -->
<g id="node3" class="node">
<title>dir_58a8fc8f1a03774579661b06bb97dd1a</title>
<g id="a_node3"><a xlink:href="dir_58a8fc8f1a03774579661b06bb97dd1a.html" target="_top" xlink:title="sbus">
<polygon fill="#60a2e3" stroke="#404040" points="70,-180 16,-180 16,-144 70,-144 70,-180"/>
<text text-anchor="middle" x="43" y="-159.5" font-family="Helvetica,sans-Serif" font-size="10.00">sbus</text>
</a>
</g>
</g>
<!-- dir_58a8fc8f1a03774579661b06bb97dd1a&#45;&gt;dir_11fbc4217d50ab21044e5ad6614aede5 -->
<g id="edge2" class="edge">
<title>dir_58a8fc8f1a03774579661b06bb97dd1a&#45;&gt;dir_11fbc4217d50ab21044e5ad6614aede5</title>
<path fill="none" stroke="black" d="M43,-143.7C43,-135.98 43,-126.71 43,-118.11"/>
<polygon fill="black" stroke="black" points="46.5,-118.1 43,-108.1 39.5,-118.1 46.5,-118.1"/>
<g id="a_edge2&#45;headlabel"><a xlink:href="dir_000209_000062.html" target="_top" xlink:title="20">
<text text-anchor="middle" x="49.34" y="-119.2" font-family="Helvetica,sans-Serif" font-size="10.00">20</text>
</a>
</g>
</g>
<!-- dir_58a8fc8f1a03774579661b06bb97dd1a&#45;&gt;dir_0981ace215aa2029f526b70c145b9fbe -->
<g id="edge4" class="edge">
<title>dir_58a8fc8f1a03774579661b06bb97dd1a&#45;&gt;dir_0981ace215aa2029f526b70c145b9fbe</title>
<path fill="none" stroke="black" d="M58.61,-143.77C66.37,-134.03 74.95,-121.18 79,-108 85.22,-87.77 82.27,-63.87 78.15,-45.92"/>
<polygon fill="black" stroke="black" points="81.51,-44.95 75.65,-36.12 74.73,-46.68 81.51,-44.95"/>
<g id="a_edge4&#45;headlabel"><a xlink:href="dir_000209_000151.html" target="_top" xlink:title="18">
<text text-anchor="middle" x="85.15" y="-45.23" font-family="Helvetica,sans-Serif" font-size="10.00">18</text>
</a>
</g>
</g>
<!-- dir_049738f1909e8dc3e45fe1f6b3faa109 -->
<g id="node5" class="node">
<title>dir_049738f1909e8dc3e45fe1f6b3faa109</title>
<g id="a_node5"><a xlink:href="dir_049738f1909e8dc3e45fe1f6b3faa109.html" target="_top" xlink:title="ee">
<polygon fill="none" stroke="red" points="212,-108 158,-108 158,-72 212,-72 212,-108"/>
<text text-anchor="middle" x="185" y="-87.5" font-family="Helvetica,sans-Serif" font-size="10.00">ee</text>
</a>
</g>
</g>
<!-- dir_58a8fc8f1a03774579661b06bb97dd1a&#45;&gt;dir_049738f1909e8dc3e45fe1f6b3faa109 -->
<g id="edge3" class="edge">
<title>dir_58a8fc8f1a03774579661b06bb97dd1a&#45;&gt;dir_049738f1909e8dc3e45fe1f6b3faa109</title>
<path fill="none" stroke="black" d="M70.23,-148.1C95.13,-136.28 130.45,-119.49 148.82,-110.49"/>
<polygon fill="black" stroke="black" points="150.61,-113.52 158,-105.92 147.48,-107.25 150.61,-113.52"/>
<g id="a_edge3&#45;headlabel"><a xlink:href="dir_000209_000038.html" target="_top" xlink:title="1">
<text text-anchor="middle" x="148.65" y="-115.16" font-family="Helvetica,sans-Serif" font-size="10.00">1</text>
</a>
</g>
</g>
</g>
</svg>
