<?xml version="1.0" encoding="UTF-8" standalone="no"?>
<!DOCTYPE svg PUBLIC "-//W3C//DTD SVG 1.1//EN"
 "http://www.w3.org/Graphics/SVG/1.1/DTD/svg11.dtd">
<!-- Generated by graphviz version 3.0.0 (20220413.0242)
 -->
<!-- Title: iop/iLink Pages: 1 -->
<svg width="430pt" height="175pt"
 viewBox="0.00 0.00 430.00 175.00" xmlns="http://www.w3.org/2000/svg" xmlns:xlink="http://www.w3.org/1999/xlink">
<g id="graph0" class="graph" transform="scale(1 1) rotate(0) translate(4 171)">
<title>iop/iLink</title>
<polygon fill="white" stroke="transparent" points="-4,4 -4,-171 426,-171 426,4 -4,4"/>
<g id="clust1" class="cluster">
<title>clusterdir_0981ace215aa2029f526b70c145b9fbe</title>
<g id="a_clust1"><a xlink:href="dir_0981ace215aa2029f526b70c145b9fbe.html" target="_top" xlink:title="iop">
<polygon fill="#deebf9" stroke="#404040" stroke-dasharray="5,2" points="8,-8 8,-159 360,-159 360,-8 8,-8"/>
<text text-anchor="middle" x="184" y="-147" font-family="Helvetica,sans-Serif" font-size="10.00">iop</text>
</a>
</g>
</g>
<g id="clust2" class="cluster">
<title>clusterdir_fc941b9cdd19bfc53379effb1dbc42b0</title>
<g id="a_clust2"><a xlink:href="dir_fc941b9cdd19bfc53379effb1dbc42b0.html" target="_top">
<polygon fill="#deebf9" stroke="#404040" stroke-width="2" points="16,-80 16,-132 352,-132 352,-80 16,-80"/>
</a>
</g>
</g>
<!-- dir_9be0baa3d4a3e9f480a9ee70594037fa -->
<g id="node1" class="node">
<title>dir_9be0baa3d4a3e9f480a9ee70594037fa</title>
<g id="a_node1"><a xlink:href="dir_9be0baa3d4a3e9f480a9ee70594037fa.html" target="_top" xlink:title="kernel">
<polygon fill="#60a2e3" stroke="red" points="171,-52 117,-52 117,-16 171,-16 171,-52"/>
<text text-anchor="middle" x="144" y="-31.5" font-family="Helvetica,sans-Serif" font-size="10.00">kernel</text>
</a>
</g>
</g>
<!-- dir_f24daea2522ffa8b6dc5fa9cdf5b8f5c -->
<g id="node2" class="node">
<title>dir_f24daea2522ffa8b6dc5fa9cdf5b8f5c</title>
<g id="a_node2"><a xlink:href="dir_f24daea2522ffa8b6dc5fa9cdf5b8f5c.html" target="_top" xlink:title="fs">
<polygon fill="#60a2e3" stroke="red" points="88,-52 34,-52 34,-16 88,-16 88,-52"/>
<text text-anchor="middle" x="61" y="-31.5" font-family="Helvetica,sans-Serif" font-size="10.00">fs</text>
</a>
</g>
</g>
<!-- dir_fc941b9cdd19bfc53379effb1dbc42b0 -->
<g id="node3" class="node">
<title>dir_fc941b9cdd19bfc53379effb1dbc42b0</title>
<text text-anchor="middle" x="317" y="-103.5" font-family="Helvetica,sans-Serif" font-size="10.00">iLink</text>
</g>
<!-- dir_3bc9c0aee413f19edf678d71a08ea153 -->
<g id="node4" class="node">
<title>dir_3bc9c0aee413f19edf678d71a08ea153</title>
<g id="a_node4"><a xlink:href="dir_3bc9c0aee413f19edf678d71a08ea153.html" target="_top" xlink:title="IEEE1394_bd">
<polygon fill="#60a2e3" stroke="#404040" points="98,-124 24,-124 24,-88 98,-88 98,-124"/>
<text text-anchor="middle" x="61" y="-103.5" font-family="Helvetica,sans-Serif" font-size="10.00">IEEE1394_bd</text>
</a>
</g>
</g>
<!-- dir_3bc9c0aee413f19edf678d71a08ea153&#45;&gt;dir_9be0baa3d4a3e9f480a9ee70594037fa -->
<g id="edge2" class="edge">
<title>dir_3bc9c0aee413f19edf678d71a08ea153&#45;&gt;dir_9be0baa3d4a3e9f480a9ee70594037fa</title>
<path fill="none" stroke="black" d="M81.52,-87.7C91.87,-78.97 104.59,-68.24 115.84,-58.75"/>
<polygon fill="black" stroke="black" points="118.33,-61.23 123.72,-52.1 113.82,-55.88 118.33,-61.23"/>
<g id="a_edge2&#45;headlabel"><a xlink:href="dir_000057_000158.html" target="_top" xlink:title="24">
<text text-anchor="middle" x="117.41" y="-63.21" font-family="Helvetica,sans-Serif" font-size="10.00">24</text>
</a>
</g>
</g>
<!-- dir_3bc9c0aee413f19edf678d71a08ea153&#45;&gt;dir_f24daea2522ffa8b6dc5fa9cdf5b8f5c -->
<g id="edge3" class="edge">
<title>dir_3bc9c0aee413f19edf678d71a08ea153&#45;&gt;dir_f24daea2522ffa8b6dc5fa9cdf5b8f5c</title>
<path fill="none" stroke="black" d="M61,-87.7C61,-79.98 61,-70.71 61,-62.11"/>
<polygon fill="black" stroke="black" points="64.5,-62.1 61,-52.1 57.5,-62.1 64.5,-62.1"/>
<g id="a_edge3&#45;headlabel"><a xlink:href="dir_000057_000050.html" target="_top" xlink:title="2">
<text text-anchor="middle" x="67.34" y="-63.2" font-family="Helvetica,sans-Serif" font-size="10.00">2</text>
</a>
</g>
</g>
<!-- dir_bdd9a5d540de89e9fe90efdfc6973a4f -->
<g id="node7" class="node">
<title>dir_bdd9a5d540de89e9fe90efdfc6973a4f</title>
<g id="a_node7"><a xlink:href="dir_bdd9a5d540de89e9fe90efdfc6973a4f.html" target="_top" xlink:title="common">
<polygon fill="none" stroke="red" points="422,-52 368,-52 368,-16 422,-16 422,-52"/>
<text text-anchor="middle" x="395" y="-31.5" font-family="Helvetica,sans-Serif" font-size="10.00">common</text>
</a>
</g>
</g>
<!-- dir_3bc9c0aee413f19edf678d71a08ea153&#45;&gt;dir_bdd9a5d540de89e9fe90efdfc6973a4f -->
<g id="edge1" class="edge">
<title>dir_3bc9c0aee413f19edf678d71a08ea153&#45;&gt;dir_bdd9a5d540de89e9fe90efdfc6973a4f</title>
<path fill="none" stroke="black" d="M88.45,-87.85C94.38,-84.79 100.75,-81.95 107,-80 213.45,-46.7 252.13,-84.18 358.09,-53.59"/>
<polygon fill="black" stroke="black" points="359.32,-56.87 367.88,-50.63 357.29,-50.17 359.32,-56.87"/>
<g id="a_edge1&#45;headlabel"><a xlink:href="dir_000057_000022.html" target="_top" xlink:title="3">
<text text-anchor="middle" x="356.7" y="-58.13" font-family="Helvetica,sans-Serif" font-size="10.00">3</text>
</a>
</g>
</g>
<!-- dir_6ca9d86174d61418b8e0fc2b61cd84c1 -->
<g id="node5" class="node">
<title>dir_6ca9d86174d61418b8e0fc2b61cd84c1</title>
<g id="a_node5"><a xlink:href="dir_6ca9d86174d61418b8e0fc2b61cd84c1.html" target="_top" xlink:title="IEEE1394_disk">
<polygon fill="#60a2e3" stroke="#404040" points="272,-124 190,-124 190,-88 272,-88 272,-124"/>
<text text-anchor="middle" x="231" y="-103.5" font-family="Helvetica,sans-Serif" font-size="10.00">IEEE1394_disk</text>
</a>
</g>
</g>
<!-- dir_6ca9d86174d61418b8e0fc2b61cd84c1&#45;&gt;dir_9be0baa3d4a3e9f480a9ee70594037fa -->
<g id="edge4" class="edge">
<title>dir_6ca9d86174d61418b8e0fc2b61cd84c1&#45;&gt;dir_9be0baa3d4a3e9f480a9ee70594037fa</title>
<path fill="none" stroke="black" d="M209.49,-87.7C198.54,-78.88 185.05,-68.03 173.18,-58.47"/>
<polygon fill="black" stroke="black" points="175.24,-55.65 165.26,-52.1 170.86,-61.1 175.24,-55.65"/>
<g id="a_edge4&#45;headlabel"><a xlink:href="dir_000058_000158.html" target="_top" xlink:title="41">
<text text-anchor="middle" x="179.82" y="-53.19" font-family="Helvetica,sans-Serif" font-size="10.00">41</text>
</a>
</g>
</g>
<!-- dir_6ca9d86174d61418b8e0fc2b61cd84c1&#45;&gt;dir_bdd9a5d540de89e9fe90efdfc6973a4f -->
<g id="edge5" class="edge">
<title>dir_6ca9d86174d61418b8e0fc2b61cd84c1&#45;&gt;dir_bdd9a5d540de89e9fe90efdfc6973a4f</title>
<path fill="none" stroke="black" d="M263.51,-87.93C269.27,-85.14 275.27,-82.39 281,-80 313.85,-66.32 326.21,-67.32 358.18,-54.34"/>
<polygon fill="black" stroke="black" points="359.91,-57.41 367.75,-50.28 357.17,-50.97 359.91,-57.41"/>
<g id="a_edge5&#45;headlabel"><a xlink:href="dir_000058_000022.html" target="_top" xlink:title="8">
<text text-anchor="middle" x="357.7" y="-58.93" font-family="Helvetica,sans-Serif" font-size="10.00">8</text>
</a>
</g>
</g>
<!-- dir_3217d47ebe458155e7239d0a228ab153 -->
<g id="node6" class="node">
<title>dir_3217d47ebe458155e7239d0a228ab153</title>
<g id="a_node6"><a xlink:href="dir_3217d47ebe458155e7239d0a228ab153.html" target="_top" xlink:title="iLinkman">
<polygon fill="#60a2e3" stroke="#404040" points="172,-124 116,-124 116,-88 172,-88 172,-124"/>
<text text-anchor="middle" x="144" y="-103.5" font-family="Helvetica,sans-Serif" font-size="10.00">iLinkman</text>
</a>
</g>
</g>
<!-- dir_3217d47ebe458155e7239d0a228ab153&#45;&gt;dir_9be0baa3d4a3e9f480a9ee70594037fa -->
<g id="edge6" class="edge">
<title>dir_3217d47ebe458155e7239d0a228ab153&#45;&gt;dir_9be0baa3d4a3e9f480a9ee70594037fa</title>
<path fill="none" stroke="black" d="M144,-87.7C144,-79.98 144,-70.71 144,-62.11"/>
<polygon fill="black" stroke="black" points="147.5,-62.1 144,-52.1 140.5,-62.1 147.5,-62.1"/>
<g id="a_edge6&#45;headlabel"><a xlink:href="dir_000060_000158.html" target="_top" xlink:title="52">
<text text-anchor="middle" x="150.34" y="-63.2" font-family="Helvetica,sans-Serif" font-size="10.00">52</text>
</a>
</g>
</g>
<!-- dir_3217d47ebe458155e7239d0a228ab153&#45;&gt;dir_bdd9a5d540de89e9fe90efdfc6973a4f -->
<g id="edge7" class="edge">
<title>dir_3217d47ebe458155e7239d0a228ab153&#45;&gt;dir_bdd9a5d540de89e9fe90efdfc6973a4f</title>
<path fill="none" stroke="black" d="M165.81,-87.97C170.6,-84.9 175.8,-82.03 181,-80 254.48,-51.24 283.66,-76.18 358.05,-53.71"/>
<polygon fill="black" stroke="black" points="359.4,-56.95 367.85,-50.56 357.26,-50.29 359.4,-56.95"/>
<g id="a_edge7&#45;headlabel"><a xlink:href="dir_000060_000022.html" target="_top" xlink:title="1">
<text text-anchor="middle" x="356.85" y="-58.25" font-family="Helvetica,sans-Serif" font-size="10.00">1</text>
</a>
</g>
</g>
</g>
</svg>
