<?xml version="1.0" encoding="UTF-8" standalone="no"?>
<!DOCTYPE svg PUBLIC "-//W3C//DTD SVG 1.1//EN"
 "http://www.w3.org/Graphics/SVG/1.1/DTD/svg11.dtd">
<!-- Generated by graphviz version 3.0.0 (20220413.0242)
 -->
<!-- Title: iop/system/siftoo Pages: 1 -->
<svg width="250pt" height="231pt"
 viewBox="0.00 0.00 249.86 231.00" xmlns="http://www.w3.org/2000/svg" xmlns:xlink="http://www.w3.org/1999/xlink">
<g id="graph0" class="graph" transform="scale(1 1) rotate(0) translate(4 227)">
<title>iop/system/siftoo</title>
<polygon fill="white" stroke="transparent" points="-4,4 -4,-227 245.86,-227 245.86,4 -4,4"/>
<g id="clust1" class="cluster">
<title>clusterdir_40ac35421bc63b72c26b6c69b1517fd6</title>
<g id="a_clust1"><a xlink:href="dir_40ac35421bc63b72c26b6c69b1517fd6.html" target="_top" xlink:title="system">
<polygon fill="#deebf9" stroke="#7f7f7f" stroke-dasharray="5,2" points="8,-56 8,-215 228,-215 228,-56 8,-56"/>
<text text-anchor="middle" x="118" y="-203" font-family="Helvetica,sans-Serif" font-size="10.00">system</text>
</a>
</g>
</g>
<g id="clust2" class="cluster">
<title>clusterdir_c3fae06f71c3e401160299d109ef6df7</title>
<g id="a_clust2"><a xlink:href="dir_c3fae06f71c3e401160299d109ef6df7.html" target="_top">
<polygon fill="#deebf9" stroke="#404040" stroke-width="2" points="16,-64 16,-188 158,-188 158,-64 16,-64"/>
</a>
</g>
</g>
<!-- dir_4bae4802256ab45fc18d13b3c6375605 -->
<g id="node1" class="node">
<title>dir_4bae4802256ab45fc18d13b3c6375605</title>
<g id="a_node1"><a xlink:href="dir_4bae4802256ab45fc18d13b3c6375605.html" target="_top" xlink:title="sbusintr">
<polygon fill="#60a2e3" stroke="red" points="220,-108 166,-108 166,-72 220,-72 220,-108"/>
<text text-anchor="middle" x="193" y="-87.5" font-family="Helvetica,sans-Serif" font-size="10.00">sbusintr</text>
</a>
</g>
</g>
<!-- dir_c3fae06f71c3e401160299d109ef6df7 -->
<g id="node2" class="node">
<title>dir_c3fae06f71c3e401160299d109ef6df7</title>
<text text-anchor="middle" x="123" y="-159.5" font-family="Helvetica,sans-Serif" font-size="10.00">siftoo</text>
</g>
<!-- dir_1a0c1cc6a62ce99b34521e1896eac836 -->
<g id="node3" class="node">
<title>dir_1a0c1cc6a62ce99b34521e1896eac836</title>
<g id="a_node3"><a xlink:href="dir_1a0c1cc6a62ce99b34521e1896eac836.html" target="_top" xlink:title="include">
<polygon fill="#60a2e3" stroke="#404040" points="113,-108 59,-108 59,-72 113,-72 113,-108"/>
<text text-anchor="middle" x="86" y="-87.5" font-family="Helvetica,sans-Serif" font-size="10.00">include</text>
</a>
</g>
</g>
<!-- dir_9be0baa3d4a3e9f480a9ee70594037fa -->
<g id="node5" class="node">
<title>dir_9be0baa3d4a3e9f480a9ee70594037fa</title>
<g id="a_node5"><a xlink:href="dir_9be0baa3d4a3e9f480a9ee70594037fa.html" target="_top" xlink:title="kernel">
<polygon fill="none" stroke="red" stroke-dasharray="5,2" points="194,-36 140,-36 140,0 194,0 194,-36"/>
<text text-anchor="middle" x="167" y="-15.5" font-family="Helvetica,sans-Serif" font-size="10.00">kernel</text>
</a>
</g>
</g>
<!-- dir_1a0c1cc6a62ce99b34521e1896eac836&#45;&gt;dir_9be0baa3d4a3e9f480a9ee70594037fa -->
<g id="edge1" class="edge">
<title>dir_1a0c1cc6a62ce99b34521e1896eac836&#45;&gt;dir_9be0baa3d4a3e9f480a9ee70594037fa</title>
<path fill="none" stroke="black" d="M100.9,-71.98C105.83,-66.66 111.48,-60.91 117,-56 122.26,-51.32 128.08,-46.63 133.84,-42.23"/>
<polygon fill="black" stroke="black" points="136.23,-44.82 142.15,-36.03 132.04,-39.2 136.23,-44.82"/>
<g id="a_edge1&#45;headlabel"><a xlink:href="dir_000137_000158.html" target="_top" xlink:title="1">
<text text-anchor="middle" x="135.04" y="-46.74" font-family="Helvetica,sans-Serif" font-size="10.00">1</text>
</a>
</g>
</g>
<!-- dir_56c96d436b95cd5650376ca3df086363 -->
<g id="node4" class="node">
<title>dir_56c96d436b95cd5650376ca3df086363</title>
<g id="a_node4"><a xlink:href="dir_56c96d436b95cd5650376ca3df086363.html" target="_top" xlink:title="src">
<polygon fill="#60a2e3" stroke="#404040" points="78,-180 24,-180 24,-144 78,-144 78,-180"/>
<text text-anchor="middle" x="51" y="-159.5" font-family="Helvetica,sans-Serif" font-size="10.00">src</text>
</a>
</g>
</g>
<!-- dir_56c96d436b95cd5650376ca3df086363&#45;&gt;dir_4bae4802256ab45fc18d13b3c6375605 -->
<g id="edge3" class="edge">
<title>dir_56c96d436b95cd5650376ca3df086363&#45;&gt;dir_4bae4802256ab45fc18d13b3c6375605</title>
<path fill="none" stroke="black" d="M78.23,-148.1C103.13,-136.28 138.45,-119.49 156.82,-110.49"/>
<polygon fill="black" stroke="black" points="158.61,-113.52 166,-105.92 155.48,-107.25 158.61,-113.52"/>
<g id="a_edge3&#45;headlabel"><a xlink:href="dir_000315_000210.html" target="_top" xlink:title="3">
<text text-anchor="middle" x="156.65" y="-115.16" font-family="Helvetica,sans-Serif" font-size="10.00">3</text>
</a>
</g>
</g>
<!-- dir_56c96d436b95cd5650376ca3df086363&#45;&gt;dir_1a0c1cc6a62ce99b34521e1896eac836 -->
<g id="edge2" class="edge">
<title>dir_56c96d436b95cd5650376ca3df086363&#45;&gt;dir_1a0c1cc6a62ce99b34521e1896eac836</title>
<path fill="none" stroke="black" d="M59.65,-143.7C63.64,-135.73 68.45,-126.1 72.87,-117.26"/>
<polygon fill="black" stroke="black" points="76.11,-118.61 77.45,-108.1 69.85,-115.48 76.11,-118.61"/>
<g id="a_edge2&#45;headlabel"><a xlink:href="dir_000315_000137.html" target="_top" xlink:title="2">
<text text-anchor="middle" x="77.04" y="-120.6" font-family="Helvetica,sans-Serif" font-size="10.00">2</text>
</a>
</g>
</g>
<!-- dir_56c96d436b95cd5650376ca3df086363&#45;&gt;dir_9be0baa3d4a3e9f480a9ee70594037fa -->
<g id="edge4" class="edge">
<title>dir_56c96d436b95cd5650376ca3df086363&#45;&gt;dir_9be0baa3d4a3e9f480a9ee70594037fa</title>
<path fill="none" stroke="black" d="M78.28,-147.43C81.19,-146.19 84.14,-145.02 87,-144 149.55,-121.71 191.09,-160.3 232,-108 246.24,-89.8 243.62,-75.98 232,-56 225.63,-45.04 214.66,-37.05 203.52,-31.37"/>
<polygon fill="black" stroke="black" points="204.78,-28.1 194.23,-27.13 201.87,-34.47 204.78,-28.1"/>
<g id="a_edge4&#45;headlabel"><a xlink:href="dir_000315_000158.html" target="_top" xlink:title="12">
<text text-anchor="middle" x="209.23" y="-24.51" font-family="Helvetica,sans-Serif" font-size="10.00">12</text>
</a>
</g>
</g>
</g>
</svg>
