<?xml version="1.0" encoding="UTF-8" standalone="no"?>
<!DOCTYPE svg PUBLIC "-//W3C//DTD SVG 1.1//EN"
 "http://www.w3.org/Graphics/SVG/1.1/DTD/svg11.dtd">
<!-- Generated by graphviz version 3.0.0 (20220413.0242)
 -->
<!-- Title: iop/usb/keyboard Pages: 1 -->
<svg width="310pt" height="175pt"
 viewBox="0.00 0.00 310.00 175.00" xmlns="http://www.w3.org/2000/svg" xmlns:xlink="http://www.w3.org/1999/xlink">
<g id="graph0" class="graph" transform="scale(1 1) rotate(0) translate(4 171)">
<title>iop/usb/keyboard</title>
<polygon fill="white" stroke="transparent" points="-4,4 -4,-171 306,-171 306,4 -4,4"/>
<g id="clust1" class="cluster">
<title>clusterdir_b6c875632944d243a548db157cd77ec2</title>
<g id="a_clust1"><a xlink:href="dir_b6c875632944d243a548db157cd77ec2.html" target="_top" xlink:title="usb">
<polygon fill="#deebf9" stroke="#7f7f7f" stroke-dasharray="5,2" points="8,-8 8,-159 240,-159 240,-8 8,-8"/>
<text text-anchor="middle" x="124" y="-147" font-family="Helvetica,sans-Serif" font-size="10.00">usb</text>
</a>
</g>
</g>
<g id="clust2" class="cluster">
<title>clusterdir_dfd34f7999bdb28cb70101636e016b16</title>
<g id="a_clust2"><a xlink:href="dir_dfd34f7999bdb28cb70101636e016b16.html" target="_top">
<polygon fill="#deebf9" stroke="#404040" stroke-width="2" points="16,-80 16,-132 232,-132 232,-80 16,-80"/>
</a>
</g>
</g>
<!-- dir_8f550b51c304fe10978bfd792866fae2 -->
<g id="node1" class="node">
<title>dir_8f550b51c304fe10978bfd792866fae2</title>
<g id="a_node1"><a xlink:href="dir_8f550b51c304fe10978bfd792866fae2.html" target="_top" xlink:title="usbd">
<polygon fill="#60a2e3" stroke="red" points="78,-52 24,-52 24,-16 78,-16 78,-52"/>
<text text-anchor="middle" x="51" y="-31.5" font-family="Helvetica,sans-Serif" font-size="10.00">usbd</text>
</a>
</g>
</g>
<!-- dir_dfd34f7999bdb28cb70101636e016b16 -->
<g id="node2" class="node">
<title>dir_dfd34f7999bdb28cb70101636e016b16</title>
<text text-anchor="middle" x="196" y="-103.5" font-family="Helvetica,sans-Serif" font-size="10.00">keyboard</text>
</g>
<!-- dir_e958439eae9e499529b4758660d27573 -->
<g id="node3" class="node">
<title>dir_e958439eae9e499529b4758660d27573</title>
<g id="a_node3"><a xlink:href="dir_e958439eae9e499529b4758660d27573.html" target="_top" xlink:title="include">
<polygon fill="#60a2e3" stroke="#404040" points="150,-124 96,-124 96,-88 150,-88 150,-124"/>
<text text-anchor="middle" x="123" y="-103.5" font-family="Helvetica,sans-Serif" font-size="10.00">include</text>
</a>
</g>
</g>
<!-- dir_649efdce889a9164ac5e894f2ff13a76 -->
<g id="node4" class="node">
<title>dir_649efdce889a9164ac5e894f2ff13a76</title>
<g id="a_node4"><a xlink:href="dir_649efdce889a9164ac5e894f2ff13a76.html" target="_top" xlink:title="src">
<polygon fill="#60a2e3" stroke="#404040" points="78,-124 24,-124 24,-88 78,-88 78,-124"/>
<text text-anchor="middle" x="51" y="-103.5" font-family="Helvetica,sans-Serif" font-size="10.00">src</text>
</a>
</g>
</g>
<!-- dir_649efdce889a9164ac5e894f2ff13a76&#45;&gt;dir_8f550b51c304fe10978bfd792866fae2 -->
<g id="edge1" class="edge">
<title>dir_649efdce889a9164ac5e894f2ff13a76&#45;&gt;dir_8f550b51c304fe10978bfd792866fae2</title>
<path fill="none" stroke="black" d="M51,-87.7C51,-79.98 51,-70.71 51,-62.11"/>
<polygon fill="black" stroke="black" points="54.5,-62.1 51,-52.1 47.5,-62.1 54.5,-62.1"/>
<g id="a_edge1&#45;headlabel"><a xlink:href="dir_000323_000353.html" target="_top" xlink:title="3">
<text text-anchor="middle" x="57.34" y="-63.2" font-family="Helvetica,sans-Serif" font-size="10.00">3</text>
</a>
</g>
</g>
<!-- dir_9be0baa3d4a3e9f480a9ee70594037fa -->
<g id="node5" class="node">
<title>dir_9be0baa3d4a3e9f480a9ee70594037fa</title>
<g id="a_node5"><a xlink:href="dir_9be0baa3d4a3e9f480a9ee70594037fa.html" target="_top" xlink:title="kernel">
<polygon fill="none" stroke="red" stroke-dasharray="5,2" points="302,-52 248,-52 248,-16 302,-16 302,-52"/>
<text text-anchor="middle" x="275" y="-31.5" font-family="Helvetica,sans-Serif" font-size="10.00">kernel</text>
</a>
</g>
</g>
<!-- dir_649efdce889a9164ac5e894f2ff13a76&#45;&gt;dir_9be0baa3d4a3e9f480a9ee70594037fa -->
<g id="edge2" class="edge">
<title>dir_649efdce889a9164ac5e894f2ff13a76&#45;&gt;dir_9be0baa3d4a3e9f480a9ee70594037fa</title>
<path fill="none" stroke="black" d="M72.6,-87.81C77.15,-84.82 82.08,-82.03 87,-80 149.44,-54.21 174.76,-73.56 238.19,-53.74"/>
<polygon fill="black" stroke="black" points="239.46,-57 247.84,-50.52 237.25,-50.36 239.46,-57"/>
<g id="a_edge2&#45;headlabel"><a xlink:href="dir_000323_000158.html" target="_top" xlink:title="19">
<text text-anchor="middle" x="236.95" y="-58.34" font-family="Helvetica,sans-Serif" font-size="10.00">19</text>
</a>
</g>
</g>
</g>
</svg>
