<?xml version="1.0" encoding="UTF-8" standalone="no"?>
<!DOCTYPE svg PUBLIC "-//W3C//DTD SVG 1.1//EN"
 "http://www.w3.org/Graphics/SVG/1.1/DTD/svg11.dtd">
<!-- Generated by graphviz version 3.0.0 (20220413.0242)
 -->
<!-- Title: iop/sio Pages: 1 -->
<svg width="294pt" height="175pt"
 viewBox="0.00 0.00 294.00 175.00" xmlns="http://www.w3.org/2000/svg" xmlns:xlink="http://www.w3.org/1999/xlink">
<g id="graph0" class="graph" transform="scale(1 1) rotate(0) translate(4 171)">
<title>iop/sio</title>
<polygon fill="white" stroke="transparent" points="-4,4 -4,-171 290,-171 290,4 -4,4"/>
<g id="clust1" class="cluster">
<title>clusterdir_0981ace215aa2029f526b70c145b9fbe</title>
<g id="a_clust1"><a xlink:href="dir_0981ace215aa2029f526b70c145b9fbe.html" target="_top" xlink:title="iop">
<polygon fill="#deebf9" stroke="#404040" stroke-dasharray="5,2" points="8,-8 8,-159 222,-159 222,-8 8,-8"/>
<text text-anchor="middle" x="115" y="-147" font-family="Helvetica,sans-Serif" font-size="10.00">iop</text>
</a>
</g>
</g>
<g id="clust2" class="cluster">
<title>clusterdir_6133ef156cce03413acfdeebec722ba1</title>
<g id="a_clust2"><a xlink:href="dir_6133ef156cce03413acfdeebec722ba1.html" target="_top">
<polygon fill="#deebf9" stroke="#404040" stroke-width="2" points="62,-80 62,-132 214,-132 214,-80 62,-80"/>
</a>
</g>
</g>
<!-- dir_9be0baa3d4a3e9f480a9ee70594037fa -->
<g id="node1" class="node">
<title>dir_9be0baa3d4a3e9f480a9ee70594037fa</title>
<g id="a_node1"><a xlink:href="dir_9be0baa3d4a3e9f480a9ee70594037fa.html" target="_top" xlink:title="kernel">
<polygon fill="#60a2e3" stroke="red" points="70,-52 16,-52 16,-16 70,-16 70,-52"/>
<text text-anchor="middle" x="43" y="-31.5" font-family="Helvetica,sans-Serif" font-size="10.00">kernel</text>
</a>
</g>
</g>
<!-- dir_f24daea2522ffa8b6dc5fa9cdf5b8f5c -->
<g id="node2" class="node">
<title>dir_f24daea2522ffa8b6dc5fa9cdf5b8f5c</title>
<g id="a_node2"><a xlink:href="dir_f24daea2522ffa8b6dc5fa9cdf5b8f5c.html" target="_top" xlink:title="fs">
<polygon fill="#60a2e3" stroke="red" points="142,-52 88,-52 88,-16 142,-16 142,-52"/>
<text text-anchor="middle" x="115" y="-31.5" font-family="Helvetica,sans-Serif" font-size="10.00">fs</text>
</a>
</g>
</g>
<!-- dir_40ac35421bc63b72c26b6c69b1517fd6 -->
<g id="node3" class="node">
<title>dir_40ac35421bc63b72c26b6c69b1517fd6</title>
<g id="a_node3"><a xlink:href="dir_40ac35421bc63b72c26b6c69b1517fd6.html" target="_top" xlink:title="system">
<polygon fill="#60a2e3" stroke="red" points="214,-52 160,-52 160,-16 214,-16 214,-52"/>
<text text-anchor="middle" x="187" y="-31.5" font-family="Helvetica,sans-Serif" font-size="10.00">system</text>
</a>
</g>
</g>
<!-- dir_6133ef156cce03413acfdeebec722ba1 -->
<g id="node4" class="node">
<title>dir_6133ef156cce03413acfdeebec722ba1</title>
<text text-anchor="middle" x="179" y="-103.5" font-family="Helvetica,sans-Serif" font-size="10.00">sio</text>
</g>
<!-- dir_1b4c53ad4cba67b900d09766188e54d5 -->
<g id="node5" class="node">
<title>dir_1b4c53ad4cba67b900d09766188e54d5</title>
<g id="a_node5"><a xlink:href="dir_1b4c53ad4cba67b900d09766188e54d5.html" target="_top" xlink:title="mx4sio_bd">
<polygon fill="#60a2e3" stroke="#404040" points="133.5,-124 70.5,-124 70.5,-88 133.5,-88 133.5,-124"/>
<text text-anchor="middle" x="102" y="-103.5" font-family="Helvetica,sans-Serif" font-size="10.00">mx4sio_bd</text>
</a>
</g>
</g>
<!-- dir_1b4c53ad4cba67b900d09766188e54d5&#45;&gt;dir_9be0baa3d4a3e9f480a9ee70594037fa -->
<g id="edge1" class="edge">
<title>dir_1b4c53ad4cba67b900d09766188e54d5&#45;&gt;dir_9be0baa3d4a3e9f480a9ee70594037fa</title>
<path fill="none" stroke="black" d="M87.42,-87.7C80.34,-79.3 71.72,-69.07 63.95,-59.86"/>
<polygon fill="black" stroke="black" points="66.54,-57.49 57.42,-52.1 61.19,-62.01 66.54,-57.49"/>
<g id="a_edge1&#45;headlabel"><a xlink:href="dir_000184_000158.html" target="_top" xlink:title="23">
<text text-anchor="middle" x="71.03" y="-55.91" font-family="Helvetica,sans-Serif" font-size="10.00">23</text>
</a>
</g>
</g>
<!-- dir_1b4c53ad4cba67b900d09766188e54d5&#45;&gt;dir_f24daea2522ffa8b6dc5fa9cdf5b8f5c -->
<g id="edge2" class="edge">
<title>dir_1b4c53ad4cba67b900d09766188e54d5&#45;&gt;dir_f24daea2522ffa8b6dc5fa9cdf5b8f5c</title>
<path fill="none" stroke="black" d="M105.21,-87.7C106.65,-79.98 108.37,-70.71 109.96,-62.11"/>
<polygon fill="black" stroke="black" points="113.44,-62.58 111.82,-52.1 106.56,-61.3 113.44,-62.58"/>
<g id="a_edge2&#45;headlabel"><a xlink:href="dir_000184_000050.html" target="_top" xlink:title="2">
<text text-anchor="middle" x="115.57" y="-64.13" font-family="Helvetica,sans-Serif" font-size="10.00">2</text>
</a>
</g>
</g>
<!-- dir_1b4c53ad4cba67b900d09766188e54d5&#45;&gt;dir_40ac35421bc63b72c26b6c69b1517fd6 -->
<g id="edge3" class="edge">
<title>dir_1b4c53ad4cba67b900d09766188e54d5&#45;&gt;dir_40ac35421bc63b72c26b6c69b1517fd6</title>
<path fill="none" stroke="black" d="M123.01,-87.7C133.72,-78.88 146.89,-68.03 158.5,-58.47"/>
<polygon fill="black" stroke="black" points="160.74,-61.16 166.23,-52.1 156.29,-55.76 160.74,-61.16"/>
<g id="a_edge3&#45;headlabel"><a xlink:href="dir_000184_000340.html" target="_top" xlink:title="1">
<text text-anchor="middle" x="159.77" y="-63.14" font-family="Helvetica,sans-Serif" font-size="10.00">1</text>
</a>
</g>
</g>
<!-- dir_bdd9a5d540de89e9fe90efdfc6973a4f -->
<g id="node6" class="node">
<title>dir_bdd9a5d540de89e9fe90efdfc6973a4f</title>
<g id="a_node6"><a xlink:href="dir_bdd9a5d540de89e9fe90efdfc6973a4f.html" target="_top" xlink:title="common">
<polygon fill="none" stroke="red" points="286,-52 232,-52 232,-16 286,-16 286,-52"/>
<text text-anchor="middle" x="259" y="-31.5" font-family="Helvetica,sans-Serif" font-size="10.00">common</text>
</a>
</g>
</g>
<!-- dir_1b4c53ad4cba67b900d09766188e54d5&#45;&gt;dir_bdd9a5d540de89e9fe90efdfc6973a4f -->
<g id="edge4" class="edge">
<title>dir_1b4c53ad4cba67b900d09766188e54d5&#45;&gt;dir_bdd9a5d540de89e9fe90efdfc6973a4f</title>
<path fill="none" stroke="black" d="M127.99,-87.97C132.87,-85.11 138.01,-82.33 143,-80 175.39,-64.89 188.05,-66.72 222.11,-53.38"/>
<polygon fill="black" stroke="black" points="223.85,-56.45 231.78,-49.42 221.2,-49.97 223.85,-56.45"/>
<g id="a_edge4&#45;headlabel"><a xlink:href="dir_000184_000022.html" target="_top" xlink:title="2">
<text text-anchor="middle" x="221.6" y="-57.94" font-family="Helvetica,sans-Serif" font-size="10.00">2</text>
</a>
</g>
</g>
</g>
</svg>
