<?xml version="1.0" encoding="UTF-8" standalone="no"?>
<!DOCTYPE svg PUBLIC "-//W3C//DTD SVG 1.1//EN"
 "http://www.w3.org/Graphics/SVG/1.1/DTD/svg11.dtd">
<!-- Generated by graphviz version 3.0.0 (20220413.0242)
 -->
<!-- Title: iop/network Pages: 1 -->
<svg width="452pt" height="175pt"
 viewBox="0.00 0.00 452.00 175.00" xmlns="http://www.w3.org/2000/svg" xmlns:xlink="http://www.w3.org/1999/xlink">
<g id="graph0" class="graph" transform="scale(1 1) rotate(0) translate(4 171)">
<title>iop/network</title>
<polygon fill="white" stroke="transparent" points="-4,4 -4,-171 448,-171 448,4 -4,4"/>
<g id="clust1" class="cluster">
<title>clusterdir_0981ace215aa2029f526b70c145b9fbe</title>
<g id="a_clust1"><a xlink:href="dir_0981ace215aa2029f526b70c145b9fbe.html" target="_top" xlink:title="iop">
<polygon fill="#deebf9" stroke="#404040" stroke-dasharray="5,2" points="8,-8 8,-159 382,-159 382,-8 8,-8"/>
<text text-anchor="middle" x="195" y="-147" font-family="Helvetica,sans-Serif" font-size="10.00">iop</text>
</a>
</g>
</g>
<g id="clust2" class="cluster">
<title>clusterdir_f89050b4b7ba0179c2c7efd2300413d9</title>
<g id="a_clust2"><a xlink:href="dir_f89050b4b7ba0179c2c7efd2300413d9.html" target="_top">
<polygon fill="#deebf9" stroke="#404040" stroke-width="2" points="16,-80 16,-132 374,-132 374,-80 16,-80"/>
</a>
</g>
</g>
<!-- dir_6f16cad81de2453a6f48c5e272ba4a18 -->
<g id="node1" class="node">
<title>dir_6f16cad81de2453a6f48c5e272ba4a18</title>
<g id="a_node1"><a xlink:href="dir_6f16cad81de2453a6f48c5e272ba4a18.html" target="_top" xlink:title="dev9">
<polygon fill="#60a2e3" stroke="red" points="78,-52 24,-52 24,-16 78,-16 78,-52"/>
<text text-anchor="middle" x="51" y="-31.5" font-family="Helvetica,sans-Serif" font-size="10.00">dev9</text>
</a>
</g>
</g>
<!-- dir_9be0baa3d4a3e9f480a9ee70594037fa -->
<g id="node2" class="node">
<title>dir_9be0baa3d4a3e9f480a9ee70594037fa</title>
<g id="a_node2"><a xlink:href="dir_9be0baa3d4a3e9f480a9ee70594037fa.html" target="_top" xlink:title="kernel">
<polygon fill="#60a2e3" stroke="red" points="186,-52 132,-52 132,-16 186,-16 186,-52"/>
<text text-anchor="middle" x="159" y="-31.5" font-family="Helvetica,sans-Serif" font-size="10.00">kernel</text>
</a>
</g>
</g>
<!-- dir_f89050b4b7ba0179c2c7efd2300413d9 -->
<g id="node3" class="node">
<title>dir_f89050b4b7ba0179c2c7efd2300413d9</title>
<text text-anchor="middle" x="339" y="-103.5" font-family="Helvetica,sans-Serif" font-size="10.00">network</text>
</g>
<!-- dir_d3008f816dc1c94b20a03a6df12b797a -->
<g id="node4" class="node">
<title>dir_d3008f816dc1c94b20a03a6df12b797a</title>
<g id="a_node4"><a xlink:href="dir_d3008f816dc1c94b20a03a6df12b797a.html" target="_top" xlink:title="netman">
<polygon fill="#60a2e3" stroke="#404040" points="222,-124 168,-124 168,-88 222,-88 222,-124"/>
<text text-anchor="middle" x="195" y="-103.5" font-family="Helvetica,sans-Serif" font-size="10.00">netman</text>
</a>
</g>
</g>
<!-- dir_d3008f816dc1c94b20a03a6df12b797a&#45;&gt;dir_9be0baa3d4a3e9f480a9ee70594037fa -->
<g id="edge1" class="edge">
<title>dir_d3008f816dc1c94b20a03a6df12b797a&#45;&gt;dir_9be0baa3d4a3e9f480a9ee70594037fa</title>
<path fill="none" stroke="black" d="M186.1,-87.7C182,-79.73 177.05,-70.1 172.51,-61.26"/>
<polygon fill="black" stroke="black" points="175.48,-59.4 167.8,-52.1 169.26,-62.6 175.48,-59.4"/>
<g id="a_edge1&#45;headlabel"><a xlink:href="dir_000188_000158.html" target="_top" xlink:title="33">
<text text-anchor="middle" x="179.65" y="-58.79" font-family="Helvetica,sans-Serif" font-size="10.00">33</text>
</a>
</g>
</g>
<!-- dir_bdd9a5d540de89e9fe90efdfc6973a4f -->
<g id="node8" class="node">
<title>dir_bdd9a5d540de89e9fe90efdfc6973a4f</title>
<g id="a_node8"><a xlink:href="dir_bdd9a5d540de89e9fe90efdfc6973a4f.html" target="_top" xlink:title="common">
<polygon fill="none" stroke="red" points="444,-52 390,-52 390,-16 444,-16 444,-52"/>
<text text-anchor="middle" x="417" y="-31.5" font-family="Helvetica,sans-Serif" font-size="10.00">common</text>
</a>
</g>
</g>
<!-- dir_d3008f816dc1c94b20a03a6df12b797a&#45;&gt;dir_bdd9a5d540de89e9fe90efdfc6973a4f -->
<g id="edge2" class="edge">
<title>dir_d3008f816dc1c94b20a03a6df12b797a&#45;&gt;dir_bdd9a5d540de89e9fe90efdfc6973a4f</title>
<path fill="none" stroke="black" d="M216.6,-87.81C221.16,-84.83 226.08,-82.04 231,-80 292.64,-54.46 317.64,-73.39 380.31,-53.71"/>
<polygon fill="black" stroke="black" points="381.47,-57.01 389.84,-50.52 379.24,-50.37 381.47,-57.01"/>
<g id="a_edge2&#45;headlabel"><a xlink:href="dir_000188_000022.html" target="_top" xlink:title="9">
<text text-anchor="middle" x="378.96" y="-58.35" font-family="Helvetica,sans-Serif" font-size="10.00">9</text>
</a>
</g>
</g>
<!-- dir_7e8098252786d103c47acfa14c0859f4 -->
<g id="node5" class="node">
<title>dir_7e8098252786d103c47acfa14c0859f4</title>
<g id="a_node5"><a xlink:href="dir_7e8098252786d103c47acfa14c0859f4.html" target="_top" xlink:title="smap">
<polygon fill="#60a2e3" stroke="#404040" points="78,-124 24,-124 24,-88 78,-88 78,-124"/>
<text text-anchor="middle" x="51" y="-103.5" font-family="Helvetica,sans-Serif" font-size="10.00">smap</text>
</a>
</g>
</g>
<!-- dir_7e8098252786d103c47acfa14c0859f4&#45;&gt;dir_6f16cad81de2453a6f48c5e272ba4a18 -->
<g id="edge3" class="edge">
<title>dir_7e8098252786d103c47acfa14c0859f4&#45;&gt;dir_6f16cad81de2453a6f48c5e272ba4a18</title>
<path fill="none" stroke="black" d="M51,-87.7C51,-79.98 51,-70.71 51,-62.11"/>
<polygon fill="black" stroke="black" points="54.5,-62.1 51,-52.1 47.5,-62.1 54.5,-62.1"/>
<g id="a_edge3&#45;headlabel"><a xlink:href="dir_000218_000026.html" target="_top" xlink:title="3">
<text text-anchor="middle" x="57.34" y="-63.2" font-family="Helvetica,sans-Serif" font-size="10.00">3</text>
</a>
</g>
</g>
<!-- dir_7e8098252786d103c47acfa14c0859f4&#45;&gt;dir_9be0baa3d4a3e9f480a9ee70594037fa -->
<g id="edge4" class="edge">
<title>dir_7e8098252786d103c47acfa14c0859f4&#45;&gt;dir_9be0baa3d4a3e9f480a9ee70594037fa</title>
<path fill="none" stroke="black" d="M75.29,-87.89C79.19,-85.22 83.19,-82.51 87,-80 98.67,-72.31 111.57,-64.14 123.2,-56.9"/>
<polygon fill="black" stroke="black" points="125.14,-59.82 131.79,-51.57 121.45,-53.87 125.14,-59.82"/>
<g id="a_edge4&#45;headlabel"><a xlink:href="dir_000218_000158.html" target="_top" xlink:title="33">
<text text-anchor="middle" x="123.58" y="-61.63" font-family="Helvetica,sans-Serif" font-size="10.00">33</text>
</a>
</g>
</g>
<!-- dir_7e8098252786d103c47acfa14c0859f4&#45;&gt;dir_bdd9a5d540de89e9fe90efdfc6973a4f -->
<g id="edge5" class="edge">
<title>dir_7e8098252786d103c47acfa14c0859f4&#45;&gt;dir_bdd9a5d540de89e9fe90efdfc6973a4f</title>
<path fill="none" stroke="black" d="M71.7,-87.99C76.47,-84.84 81.71,-81.93 87,-80 209.19,-35.37 256,-88.3 380.03,-53.55"/>
<polygon fill="black" stroke="black" points="381.28,-56.83 389.88,-50.65 379.3,-50.12 381.28,-56.83"/>
<g id="a_edge5&#45;headlabel"><a xlink:href="dir_000218_000022.html" target="_top" xlink:title="11">
<text text-anchor="middle" x="378.63" y="-58.07" font-family="Helvetica,sans-Serif" font-size="10.00">11</text>
</a>
</g>
</g>
<!-- dir_39d17f469530f79363f6574f3e93b68d -->
<g id="node6" class="node">
<title>dir_39d17f469530f79363f6574f3e93b68d</title>
<g id="a_node6"><a xlink:href="dir_39d17f469530f79363f6574f3e93b68d.html" target="_top" xlink:title="smbman">
<polygon fill="#60a2e3" stroke="#404040" points="150,-124 96,-124 96,-88 150,-88 150,-124"/>
<text text-anchor="middle" x="123" y="-103.5" font-family="Helvetica,sans-Serif" font-size="10.00">smbman</text>
</a>
</g>
</g>
<!-- dir_39d17f469530f79363f6574f3e93b68d&#45;&gt;dir_9be0baa3d4a3e9f480a9ee70594037fa -->
<g id="edge6" class="edge">
<title>dir_39d17f469530f79363f6574f3e93b68d&#45;&gt;dir_9be0baa3d4a3e9f480a9ee70594037fa</title>
<path fill="none" stroke="black" d="M131.9,-87.7C136,-79.73 140.95,-70.1 145.49,-61.26"/>
<polygon fill="black" stroke="black" points="148.74,-62.6 150.2,-52.1 142.52,-59.4 148.74,-62.6"/>
<g id="a_edge6&#45;headlabel"><a xlink:href="dir_000219_000158.html" target="_top" xlink:title="38">
<text text-anchor="middle" x="149.62" y="-64.59" font-family="Helvetica,sans-Serif" font-size="10.00">38</text>
</a>
</g>
</g>
<!-- dir_39d17f469530f79363f6574f3e93b68d&#45;&gt;dir_bdd9a5d540de89e9fe90efdfc6973a4f -->
<g id="edge7" class="edge">
<title>dir_39d17f469530f79363f6574f3e93b68d&#45;&gt;dir_bdd9a5d540de89e9fe90efdfc6973a4f</title>
<path fill="none" stroke="black" d="M144.13,-87.85C148.8,-84.79 153.88,-81.95 159,-80 250.81,-44.93 286.85,-80.68 380.06,-53.62"/>
<polygon fill="black" stroke="black" points="381.34,-56.89 389.87,-50.61 379.28,-50.2 381.34,-56.89"/>
<g id="a_edge7&#45;headlabel"><a xlink:href="dir_000219_000022.html" target="_top" xlink:title="5">
<text text-anchor="middle" x="378.74" y="-58.16" font-family="Helvetica,sans-Serif" font-size="10.00">5</text>
</a>
</g>
</g>
<!-- dir_c29ab4c22b7bc0d7876a510e876257b9 -->
<g id="node7" class="node">
<title>dir_c29ab4c22b7bc0d7876a510e876257b9</title>
<g id="a_node7"><a xlink:href="dir_c29ab4c22b7bc0d7876a510e876257b9.html" target="_top" xlink:title="udptty">
<polygon fill="#60a2e3" stroke="#404040" points="294,-124 240,-124 240,-88 294,-88 294,-124"/>
<text text-anchor="middle" x="267" y="-103.5" font-family="Helvetica,sans-Serif" font-size="10.00">udptty</text>
</a>
</g>
</g>
<!-- dir_c29ab4c22b7bc0d7876a510e876257b9&#45;&gt;dir_9be0baa3d4a3e9f480a9ee70594037fa -->
<g id="edge8" class="edge">
<title>dir_c29ab4c22b7bc0d7876a510e876257b9&#45;&gt;dir_9be0baa3d4a3e9f480a9ee70594037fa</title>
<path fill="none" stroke="black" d="M242.71,-87.89C238.81,-85.22 234.81,-82.51 231,-80 219.33,-72.31 206.43,-64.14 194.8,-56.9"/>
<polygon fill="black" stroke="black" points="196.55,-53.87 186.21,-51.57 192.86,-59.82 196.55,-53.87"/>
<g id="a_edge8&#45;headlabel"><a xlink:href="dir_000351_000158.html" target="_top" xlink:title="19">
<text text-anchor="middle" x="201.1" y="-50.85" font-family="Helvetica,sans-Serif" font-size="10.00">19</text>
</a>
</g>
</g>
<!-- dir_c29ab4c22b7bc0d7876a510e876257b9&#45;&gt;dir_bdd9a5d540de89e9fe90efdfc6973a4f -->
<g id="edge9" class="edge">
<title>dir_c29ab4c22b7bc0d7876a510e876257b9&#45;&gt;dir_bdd9a5d540de89e9fe90efdfc6973a4f</title>
<path fill="none" stroke="black" d="M289.64,-87.86C293.95,-85.01 298.51,-82.26 303,-80 334.79,-64.01 348.02,-66.93 380.15,-54.29"/>
<polygon fill="black" stroke="black" points="381.87,-57.37 389.75,-50.28 379.17,-50.91 381.87,-57.37"/>
<g id="a_edge9&#45;headlabel"><a xlink:href="dir_000351_000022.html" target="_top" xlink:title="2">
<text text-anchor="middle" x="379.64" y="-58.87" font-family="Helvetica,sans-Serif" font-size="10.00">2</text>
</a>
</g>
</g>
</g>
</svg>
