<?xml version="1.0" encoding="UTF-8" standalone="no"?>
<!DOCTYPE svg PUBLIC "-//W3C//DTD SVG 1.1//EN"
 "http://www.w3.org/Graphics/SVG/1.1/DTD/svg11.dtd">
<!-- Generated by graphviz version 3.0.0 (20220413.0242)
 -->
<!-- Title: iop/debug/iop_sbusdbg Pages: 1 -->
<svg width="398pt" height="175pt"
 viewBox="0.00 0.00 398.00 175.00" xmlns="http://www.w3.org/2000/svg" xmlns:xlink="http://www.w3.org/1999/xlink">
<g id="graph0" class="graph" transform="scale(1 1) rotate(0) translate(4 171)">
<title>iop/debug/iop_sbusdbg</title>
<polygon fill="white" stroke="transparent" points="-4,4 -4,-171 394,-171 394,4 -4,4"/>
<g id="clust1" class="cluster">
<title>clusterdir_8494d76ae2586079db82d45fe3dd6aec</title>
<g id="a_clust1"><a xlink:href="dir_8494d76ae2586079db82d45fe3dd6aec.html" target="_top" xlink:title="debug">
<polygon fill="#deebf9" stroke="#7f7f7f" stroke-dasharray="5,2" points="8,-8 8,-159 256,-159 256,-8 8,-8"/>
<text text-anchor="middle" x="132" y="-147" font-family="Helvetica,sans-Serif" font-size="10.00">debug</text>
</a>
</g>
</g>
<g id="clust2" class="cluster">
<title>clusterdir_2f080771f6205bbf07c3b5e6545bd3fa</title>
<g id="a_clust2"><a xlink:href="dir_2f080771f6205bbf07c3b5e6545bd3fa.html" target="_top">
<polygon fill="#deebf9" stroke="#404040" stroke-width="2" points="16,-80 16,-132 248,-132 248,-80 16,-80"/>
</a>
</g>
</g>
<!-- dir_b128a11f24e38182ade4e9889f6c5833 -->
<g id="node1" class="node">
<title>dir_b128a11f24e38182ade4e9889f6c5833</title>
<g id="a_node1"><a xlink:href="dir_b128a11f24e38182ade4e9889f6c5833.html" target="_top" xlink:title="iopdebug">
<polygon fill="#60a2e3" stroke="red" points="79,-52 23,-52 23,-16 79,-16 79,-52"/>
<text text-anchor="middle" x="51" y="-31.5" font-family="Helvetica,sans-Serif" font-size="10.00">iopdebug</text>
</a>
</g>
</g>
<!-- dir_2f080771f6205bbf07c3b5e6545bd3fa -->
<g id="node2" class="node">
<title>dir_2f080771f6205bbf07c3b5e6545bd3fa</title>
<text text-anchor="middle" x="204" y="-103.5" font-family="Helvetica,sans-Serif" font-size="10.00">iop_sbusdbg</text>
</g>
<!-- dir_36b98ff8a35b2ed655cbfa91e3ae73e8 -->
<g id="node3" class="node">
<title>dir_36b98ff8a35b2ed655cbfa91e3ae73e8</title>
<g id="a_node3"><a xlink:href="dir_36b98ff8a35b2ed655cbfa91e3ae73e8.html" target="_top" xlink:title="include">
<polygon fill="#60a2e3" stroke="#404040" points="150,-124 96,-124 96,-88 150,-88 150,-124"/>
<text text-anchor="middle" x="123" y="-103.5" font-family="Helvetica,sans-Serif" font-size="10.00">include</text>
</a>
</g>
</g>
<!-- dir_bdd9a5d540de89e9fe90efdfc6973a4f -->
<g id="node5" class="node">
<title>dir_bdd9a5d540de89e9fe90efdfc6973a4f</title>
<g id="a_node5"><a xlink:href="dir_bdd9a5d540de89e9fe90efdfc6973a4f.html" target="_top" xlink:title="common">
<polygon fill="none" stroke="red" points="390,-52 336,-52 336,-16 390,-16 390,-52"/>
<text text-anchor="middle" x="363" y="-31.5" font-family="Helvetica,sans-Serif" font-size="10.00">common</text>
</a>
</g>
</g>
<!-- dir_36b98ff8a35b2ed655cbfa91e3ae73e8&#45;&gt;dir_bdd9a5d540de89e9fe90efdfc6973a4f -->
<g id="edge1" class="edge">
<title>dir_36b98ff8a35b2ed655cbfa91e3ae73e8&#45;&gt;dir_bdd9a5d540de89e9fe90efdfc6973a4f</title>
<path fill="none" stroke="black" d="M145.23,-87.77C149.91,-84.8 154.96,-82.01 160,-80 227.02,-53.22 253.03,-72.75 326.15,-51.72"/>
<polygon fill="black" stroke="black" points="327.24,-55.05 335.8,-48.8 325.21,-48.35 327.24,-55.05"/>
<g id="a_edge1&#45;headlabel"><a xlink:href="dir_000102_000022.html" target="_top" xlink:title="1">
<text text-anchor="middle" x="324.63" y="-56.31" font-family="Helvetica,sans-Serif" font-size="10.00">1</text>
</a>
</g>
</g>
<!-- dir_b885b894e4096334a2f073c9bc278b43 -->
<g id="node4" class="node">
<title>dir_b885b894e4096334a2f073c9bc278b43</title>
<g id="a_node4"><a xlink:href="dir_b885b894e4096334a2f073c9bc278b43.html" target="_top" xlink:title="src">
<polygon fill="#60a2e3" stroke="#404040" points="78,-124 24,-124 24,-88 78,-88 78,-124"/>
<text text-anchor="middle" x="51" y="-103.5" font-family="Helvetica,sans-Serif" font-size="10.00">src</text>
</a>
</g>
</g>
<!-- dir_b885b894e4096334a2f073c9bc278b43&#45;&gt;dir_b128a11f24e38182ade4e9889f6c5833 -->
<g id="edge3" class="edge">
<title>dir_b885b894e4096334a2f073c9bc278b43&#45;&gt;dir_b128a11f24e38182ade4e9889f6c5833</title>
<path fill="none" stroke="black" d="M51,-87.7C51,-79.98 51,-70.71 51,-62.11"/>
<polygon fill="black" stroke="black" points="54.5,-62.1 51,-52.1 47.5,-62.1 54.5,-62.1"/>
<g id="a_edge3&#45;headlabel"><a xlink:href="dir_000265_000153.html" target="_top" xlink:title="4">
<text text-anchor="middle" x="57.34" y="-63.2" font-family="Helvetica,sans-Serif" font-size="10.00">4</text>
</a>
</g>
</g>
<!-- dir_b885b894e4096334a2f073c9bc278b43&#45;&gt;dir_bdd9a5d540de89e9fe90efdfc6973a4f -->
<g id="edge4" class="edge">
<title>dir_b885b894e4096334a2f073c9bc278b43&#45;&gt;dir_bdd9a5d540de89e9fe90efdfc6973a4f</title>
<path fill="none" stroke="black" d="M72.12,-87.82C76.79,-84.76 81.88,-81.94 87,-80 184.5,-43.12 221.57,-79.29 326.18,-51.63"/>
<polygon fill="black" stroke="black" points="327.14,-54.99 335.84,-48.94 325.27,-48.25 327.14,-54.99"/>
<g id="a_edge4&#45;headlabel"><a xlink:href="dir_000265_000022.html" target="_top" xlink:title="12">
<text text-anchor="middle" x="324.44" y="-56.19" font-family="Helvetica,sans-Serif" font-size="10.00">12</text>
</a>
</g>
</g>
<!-- dir_9be0baa3d4a3e9f480a9ee70594037fa -->
<g id="node6" class="node">
<title>dir_9be0baa3d4a3e9f480a9ee70594037fa</title>
<g id="a_node6"><a xlink:href="dir_9be0baa3d4a3e9f480a9ee70594037fa.html" target="_top" xlink:title="kernel">
<polygon fill="none" stroke="red" stroke-dasharray="5,2" points="318,-52 264,-52 264,-16 318,-16 318,-52"/>
<text text-anchor="middle" x="291" y="-31.5" font-family="Helvetica,sans-Serif" font-size="10.00">kernel</text>
</a>
</g>
</g>
<!-- dir_b885b894e4096334a2f073c9bc278b43&#45;&gt;dir_9be0baa3d4a3e9f480a9ee70594037fa -->
<g id="edge2" class="edge">
<title>dir_b885b894e4096334a2f073c9bc278b43&#45;&gt;dir_9be0baa3d4a3e9f480a9ee70594037fa</title>
<path fill="none" stroke="black" d="M72.19,-88C76.85,-84.93 81.92,-82.05 87,-80 156.12,-52.09 183.93,-75.14 254.13,-53.71"/>
<polygon fill="black" stroke="black" points="255.42,-56.97 263.85,-50.54 253.26,-50.31 255.42,-56.97"/>
<g id="a_edge2&#45;headlabel"><a xlink:href="dir_000265_000158.html" target="_top" xlink:title="30">
<text text-anchor="middle" x="252.88" y="-58.28" font-family="Helvetica,sans-Serif" font-size="10.00">30</text>
</a>
</g>
</g>
</g>
</svg>
