<?xml version="1.0" encoding="UTF-8" standalone="no"?>
<!DOCTYPE svg PUBLIC "-//W3C//DTD SVG 1.1//EN"
 "http://www.w3.org/Graphics/SVG/1.1/DTD/svg11.dtd">
<!-- Generated by graphviz version 3.0.0 (20220413.0242)
 -->
<!-- Title: iop/sound/ahx/src Pages: 1 -->
<svg width="308pt" height="175pt"
 viewBox="0.00 0.00 308.00 175.00" xmlns="http://www.w3.org/2000/svg" xmlns:xlink="http://www.w3.org/1999/xlink">
<g id="graph0" class="graph" transform="scale(1 1) rotate(0) translate(4 171)">
<title>iop/sound/ahx/src</title>
<polygon fill="white" stroke="transparent" points="-4,4 -4,-171 304,-171 304,4 -4,4"/>
<g id="clust1" class="cluster">
<title>clusterdir_9337eeae2b875a84dbe6e00bf944922d</title>
<g id="a_clust1"><a xlink:href="dir_9337eeae2b875a84dbe6e00bf944922d.html" target="_top" xlink:title="ahx">
<polygon fill="#deebf9" stroke="#7f7f7f" stroke-dasharray="5,2" points="8,-8 8,-159 166,-159 166,-8 8,-8"/>
<text text-anchor="middle" x="87" y="-147" font-family="Helvetica,sans-Serif" font-size="10.00">ahx</text>
</a>
</g>
</g>
<g id="clust2" class="cluster">
<title>clusterdir_fe4d942b553a0f3632b13732d211a99b</title>
<g id="a_clust2"><a xlink:href="dir_fe4d942b553a0f3632b13732d211a99b.html" target="_top">
<polygon fill="#deebf9" stroke="#404040" stroke-width="2" points="16,-80 16,-132 158,-132 158,-80 16,-80"/>
</a>
</g>
</g>
<!-- dir_8806379264ffea16411011c87cd5d5d1 -->
<g id="node1" class="node">
<title>dir_8806379264ffea16411011c87cd5d5d1</title>
<g id="a_node1"><a xlink:href="dir_8806379264ffea16411011c87cd5d5d1.html" target="_top" xlink:title="include">
<polygon fill="#60a2e3" stroke="#404040" points="150,-52 96,-52 96,-16 150,-16 150,-52"/>
<text text-anchor="middle" x="123" y="-31.5" font-family="Helvetica,sans-Serif" font-size="10.00">include</text>
</a>
</g>
</g>
<!-- dir_fe4d942b553a0f3632b13732d211a99b -->
<g id="node2" class="node">
<title>dir_fe4d942b553a0f3632b13732d211a99b</title>
<text text-anchor="middle" x="123" y="-103.5" font-family="Helvetica,sans-Serif" font-size="10.00">src</text>
</g>
<!-- dir_fe4d942b553a0f3632b13732d211a99b&#45;&gt;dir_8806379264ffea16411011c87cd5d5d1 -->
<g id="edge1" class="edge">
<title>dir_fe4d942b553a0f3632b13732d211a99b&#45;&gt;dir_8806379264ffea16411011c87cd5d5d1</title>
<path fill="none" stroke="black" d="M123,-87.7C123,-79.98 123,-70.71 123,-62.11"/>
<polygon fill="black" stroke="black" points="126.5,-62.1 123,-52.1 119.5,-62.1 126.5,-62.1"/>
<g id="a_edge1&#45;headlabel"><a xlink:href="dir_000304_000127.html" target="_top" xlink:title="2">
<text text-anchor="middle" x="129.34" y="-63.2" font-family="Helvetica,sans-Serif" font-size="10.00">2</text>
</a>
</g>
</g>
<!-- dir_9be0baa3d4a3e9f480a9ee70594037fa -->
<g id="node4" class="node">
<title>dir_9be0baa3d4a3e9f480a9ee70594037fa</title>
<g id="a_node4"><a xlink:href="dir_9be0baa3d4a3e9f480a9ee70594037fa.html" target="_top" xlink:title="kernel">
<polygon fill="none" stroke="red" stroke-dasharray="5,2" points="228,-52 174,-52 174,-16 228,-16 228,-52"/>
<text text-anchor="middle" x="201" y="-31.5" font-family="Helvetica,sans-Serif" font-size="10.00">kernel</text>
</a>
</g>
</g>
<!-- dir_fe4d942b553a0f3632b13732d211a99b&#45;&gt;dir_9be0baa3d4a3e9f480a9ee70594037fa -->
<g id="edge2" class="edge">
<title>dir_fe4d942b553a0f3632b13732d211a99b&#45;&gt;dir_9be0baa3d4a3e9f480a9ee70594037fa</title>
<path fill="none" stroke="black" d="M142.28,-87.7C151.92,-79.05 163.73,-68.45 174.23,-59.03"/>
<polygon fill="black" stroke="black" points="176.84,-61.39 181.94,-52.1 172.16,-56.18 176.84,-61.39"/>
<g id="a_edge2&#45;headlabel"><a xlink:href="dir_000304_000158.html" target="_top" xlink:title="14">
<text text-anchor="middle" x="176.06" y="-63.4" font-family="Helvetica,sans-Serif" font-size="10.00">14</text>
</a>
</g>
</g>
<!-- dir_b3b65c61938638f28675fc77a7fe35e3 -->
<g id="node5" class="node">
<title>dir_b3b65c61938638f28675fc77a7fe35e3</title>
<g id="a_node5"><a xlink:href="dir_b3b65c61938638f28675fc77a7fe35e3.html" target="_top" xlink:title="libsd">
<polygon fill="none" stroke="red" stroke-dasharray="5,2" points="300,-52 246,-52 246,-16 300,-16 300,-52"/>
<text text-anchor="middle" x="273" y="-31.5" font-family="Helvetica,sans-Serif" font-size="10.00">libsd</text>
</a>
</g>
</g>
<!-- dir_fe4d942b553a0f3632b13732d211a99b&#45;&gt;dir_b3b65c61938638f28675fc77a7fe35e3 -->
<g id="edge3" class="edge">
<title>dir_fe4d942b553a0f3632b13732d211a99b&#45;&gt;dir_b3b65c61938638f28675fc77a7fe35e3</title>
<path fill="none" stroke="black" d="M150.2,-92.41C171.41,-82.58 201.84,-68.45 236.49,-52.23"/>
<polygon fill="black" stroke="black" points="238.31,-55.24 245.88,-47.83 235.34,-48.9 238.31,-55.24"/>
<g id="a_edge3&#45;headlabel"><a xlink:href="dir_000304_000167.html" target="_top" xlink:title="1">
<text text-anchor="middle" x="236.26" y="-56.84" font-family="Helvetica,sans-Serif" font-size="10.00">1</text>
</a>
</g>
</g>
<!-- dir_40c561062edbd99ebfb63c3ad64cebed -->
<g id="node3" class="node">
<title>dir_40c561062edbd99ebfb63c3ad64cebed</title>
<g id="a_node3"><a xlink:href="dir_40c561062edbd99ebfb63c3ad64cebed.html" target="_top" xlink:title="include">
<polygon fill="#60a2e3" stroke="#404040" points="78,-124 24,-124 24,-88 78,-88 78,-124"/>
<text text-anchor="middle" x="51" y="-103.5" font-family="Helvetica,sans-Serif" font-size="10.00">include</text>
</a>
</g>
</g>
</g>
</svg>
