<?xml version="1.0" encoding="UTF-8" standalone="no"?>
<!DOCTYPE svg PUBLIC "-//W3C//DTD SVG 1.1//EN"
 "http://www.w3.org/Graphics/SVG/1.1/DTD/svg11.dtd">
<!-- Generated by graphviz version 3.0.0 (20220413.0242)
 -->
<!-- Title: iop/fs Pages: 1 -->
<!--zoomable 247 -->
<svg id="main" version="1.1" xmlns="http://www.w3.org/2000/svg" xmlns:xlink="http://www.w3.org/1999/xlink" xml:space="preserve" onload="init(evt)">
<style type="text/css"><![CDATA[
.edge:hover path { stroke: red; }
.edge:hover polygon { stroke: red; fill: red; }
]]></style>
<script type="text/javascript"><![CDATA[
var edges = document.getElementsByTagName('g');
if (edges && edges.length) {
  for (var i=0;i<edges.length;i++) {
    if (edges[i].id.substr(0,4)=='edge') {
      edges[i].setAttribute('class','edge');
    }
  }
}
]]></script>
        <defs>
                <circle id="rim" cx="0" cy="0" r="7"/>
                <circle id="rim2" cx="0" cy="0" r="3.5"/>
                <g id="zoomPlus">
                        <use xlink:href="#rim" fill="#404040">
                                <set attributeName="fill" to="#808080" begin="zoomplus.mouseover" end="zoomplus.mouseout"/>
                        </use>
                        <path d="M-4,0h8M0,-4v8" fill="none" stroke="white" stroke-width="1.5" pointer-events="none"/>
                </g>
                <g id="zoomMin">
                        <use xlink:href="#rim" fill="#404040">
                                <set attributeName="fill" to="#808080" begin="zoomminus.mouseover" end="zoomminus.mouseout"/>
                        </use>
                        <path d="M-4,0h8" fill="none" stroke="white" stroke-width="1.5" pointer-events="none"/>
                </g>
                <g id="dirArrow">
                        <path fill="none" stroke="white" stroke-width="1.5" d="M0,-3.0v7 M-2.5,-0.5L0,-3.0L2.5,-0.5"/>
                </g>
               <g id="resetDef">
                       <use xlink:href="#rim2" fill="#404040">
                               <set attributeName="fill" to="#808080" begin="reset.mouseover" end="reset.mouseout"/>
                       </use>
               </g>
        </defs>

<script type="text/javascript">
var viewWidth = 923;
var viewHeight = 247;
var sectionId = 'dynsection-0';
</script>
<script xlink:href="svgpan.js"/>
<svg id="graph" class="graph">
<g id="viewport">
<title>iop/fs</title>
<polygon fill="white" stroke="transparent" points="-4,4 -4,-243 918.61,-243 918.61,4 -4,4"/>
<g id="clust1" class="cluster">
<title>clusterdir_0981ace215aa2029f526b70c145b9fbe</title>
<g id="a_clust1"><a xlink:href="dir_0981ace215aa2029f526b70c145b9fbe.html" target="_top" xlink:title="iop">
<polygon fill="#deebf9" stroke="#404040" stroke-dasharray="5,2" points="8,-8 8,-231 758,-231 758,-8 8,-8"/>
<text text-anchor="middle" x="383" y="-219" font-family="Helvetica,sans-Serif" font-size="10.00">iop</text>
</a>
</g>
</g>
<g id="clust2" class="cluster">
<title>clusterdir_f24daea2522ffa8b6dc5fa9cdf5b8f5c</title>
<g id="a_clust2"><a xlink:href="dir_f24daea2522ffa8b6dc5fa9cdf5b8f5c.html" target="_top">
<polygon fill="#deebf9" stroke="#404040" stroke-width="2" points="16,-80 16,-204 688,-204 688,-80 16,-80"/>
</a>
</g>
</g>
<!-- dir_9be0baa3d4a3e9f480a9ee70594037fa -->
<g id="node1" class="node">
<title>dir_9be0baa3d4a3e9f480a9ee70594037fa</title>
<g id="a_node1"><a xlink:href="dir_9be0baa3d4a3e9f480a9ee70594037fa.html" target="_top" xlink:title="kernel">
<polygon fill="#60a2e3" stroke="red" points="361,-52 307,-52 307,-16 361,-16 361,-52"/>
<text text-anchor="middle" x="334" y="-31.5" font-family="Helvetica,sans-Serif" font-size="10.00">kernel</text>
</a>
</g>
</g>
<!-- dir_40ac35421bc63b72c26b6c69b1517fd6 -->
<g id="node2" class="node">
<title>dir_40ac35421bc63b72c26b6c69b1517fd6</title>
<g id="a_node2"><a xlink:href="dir_40ac35421bc63b72c26b6c69b1517fd6.html" target="_top" xlink:title="system">
<polygon fill="#60a2e3" stroke="red" points="750,-124 696,-124 696,-88 750,-88 750,-124"/>
<text text-anchor="middle" x="723" y="-103.5" font-family="Helvetica,sans-Serif" font-size="10.00">system</text>
</a>
</g>
</g>
<!-- dir_f24daea2522ffa8b6dc5fa9cdf5b8f5c -->
<g id="node3" class="node">
<title>dir_f24daea2522ffa8b6dc5fa9cdf5b8f5c</title>
<text text-anchor="middle" x="653" y="-175.5" font-family="Helvetica,sans-Serif" font-size="10.00">fs</text>
</g>
<!-- dir_0134b0376fbe77322088b496fb368f9b -->
<g id="node4" class="node">
<title>dir_0134b0376fbe77322088b496fb368f9b</title>
<g id="a_node4"><a xlink:href="dir_0134b0376fbe77322088b496fb368f9b.html" target="_top" xlink:title="bdm">
<polygon fill="#60a2e3" stroke="#404040" points="467,-124 413,-124 413,-88 467,-88 467,-124"/>
<text text-anchor="middle" x="440" y="-103.5" font-family="Helvetica,sans-Serif" font-size="10.00">bdm</text>
</a>
</g>
</g>
<!-- dir_0134b0376fbe77322088b496fb368f9b&#45;&gt;dir_9be0baa3d4a3e9f480a9ee70594037fa -->
<g id="edge1" class="edge">
<title>dir_0134b0376fbe77322088b496fb368f9b&#45;&gt;dir_9be0baa3d4a3e9f480a9ee70594037fa</title>
<path fill="none" stroke="black" d="M419.63,-87.92C416.15,-85.19 412.51,-82.45 409,-80 396.68,-71.4 382.67,-62.72 370.13,-55.31"/>
<polygon fill="black" stroke="black" points="371.7,-52.17 361.3,-50.16 368.17,-58.22 371.7,-52.17"/>
<g id="a_edge1&#45;headlabel"><a xlink:href="dir_000011_000158.html" target="_top" xlink:title="13">
<text text-anchor="middle" x="376.23" y="-49.03" font-family="Helvetica,sans-Serif" font-size="10.00">13</text>
</a>
</g>
</g>
<!-- dir_bdd9a5d540de89e9fe90efdfc6973a4f -->
<g id="node13" class="node">
<title>dir_bdd9a5d540de89e9fe90efdfc6973a4f</title>
<g id="a_node13"><a xlink:href="dir_bdd9a5d540de89e9fe90efdfc6973a4f.html" target="_top" xlink:title="common">
<polygon fill="none" stroke="red" points="862,-52 808,-52 808,-16 862,-16 862,-52"/>
<text text-anchor="middle" x="835" y="-31.5" font-family="Helvetica,sans-Serif" font-size="10.00">common</text>
</a>
</g>
</g>
<!-- dir_0134b0376fbe77322088b496fb368f9b&#45;&gt;dir_bdd9a5d540de89e9fe90efdfc6973a4f -->
<g id="edge2" class="edge">
<title>dir_0134b0376fbe77322088b496fb368f9b&#45;&gt;dir_bdd9a5d540de89e9fe90efdfc6973a4f</title>
<path fill="none" stroke="black" d="M457.54,-87.99C461.67,-84.84 466.26,-81.93 471,-80 591.31,-30.93 633.78,-73 762,-52 773.82,-50.06 786.58,-47.32 798.07,-44.61"/>
<polygon fill="black" stroke="black" points="798.9,-48.01 807.79,-42.24 797.24,-41.2 798.9,-48.01"/>
<g id="a_edge2&#45;headlabel"><a xlink:href="dir_000011_000022.html" target="_top" xlink:title="1">
<text text-anchor="middle" x="796.07" y="-49.11" font-family="Helvetica,sans-Serif" font-size="10.00">1</text>
</a>
</g>
</g>
<!-- dir_ca4e6ad4571d2d160c85f86efebac72d -->
<g id="node5" class="node">
<title>dir_ca4e6ad4571d2d160c85f86efebac72d</title>
<g id="a_node5"><a xlink:href="dir_ca4e6ad4571d2d160c85f86efebac72d.html" target="_top" xlink:title="bdmfs_fatfs">
<polygon fill="#60a2e3" stroke="#404040" points="464,-196 396,-196 396,-160 464,-160 464,-196"/>
<text text-anchor="middle" x="430" y="-175.5" font-family="Helvetica,sans-Serif" font-size="10.00">bdmfs_fatfs</text>
</a>
</g>
</g>
<!-- dir_ca4e6ad4571d2d160c85f86efebac72d&#45;&gt;dir_9be0baa3d4a3e9f480a9ee70594037fa -->
<g id="edge4" class="edge">
<title>dir_ca4e6ad4571d2d160c85f86efebac72d&#45;&gt;dir_9be0baa3d4a3e9f480a9ee70594037fa</title>
<path fill="none" stroke="black" d="M405.17,-159.9C392.96,-150.46 378.8,-137.86 369,-124 355.66,-105.12 346.48,-80.45 340.88,-61.88"/>
<polygon fill="black" stroke="black" points="344.24,-60.91 338.13,-52.26 337.51,-62.84 344.24,-60.91"/>
<g id="a_edge4&#45;headlabel"><a xlink:href="dir_000012_000158.html" target="_top" xlink:title="21">
<text text-anchor="middle" x="347.96" y="-61.09" font-family="Helvetica,sans-Serif" font-size="10.00">21</text>
</a>
</g>
</g>
<!-- dir_ca4e6ad4571d2d160c85f86efebac72d&#45;&gt;dir_0134b0376fbe77322088b496fb368f9b -->
<g id="edge3" class="edge">
<title>dir_ca4e6ad4571d2d160c85f86efebac72d&#45;&gt;dir_0134b0376fbe77322088b496fb368f9b</title>
<path fill="none" stroke="black" d="M432.47,-159.7C433.57,-151.98 434.9,-142.71 436.13,-134.11"/>
<polygon fill="black" stroke="black" points="439.61,-134.5 437.56,-124.1 432.68,-133.51 439.61,-134.5"/>
<g id="a_edge3&#45;headlabel"><a xlink:href="dir_000012_000011.html" target="_top" xlink:title="5">
<text text-anchor="middle" x="441.91" y="-135.96" font-family="Helvetica,sans-Serif" font-size="10.00">5</text>
</a>
</g>
</g>
<!-- dir_ca4e6ad4571d2d160c85f86efebac72d&#45;&gt;dir_bdd9a5d540de89e9fe90efdfc6973a4f -->
<g id="edge5" class="edge">
<title>dir_ca4e6ad4571d2d160c85f86efebac72d&#45;&gt;dir_bdd9a5d540de89e9fe90efdfc6973a4f</title>
<path fill="none" stroke="black" d="M464.47,-162.43C467.32,-161.51 470.19,-160.68 473,-160 550.48,-141.16 774.88,-181.62 830,-124 845.32,-107.98 845.06,-82.02 841.86,-62.26"/>
<polygon fill="black" stroke="black" points="845.27,-61.45 839.92,-52.3 838.4,-62.79 845.27,-61.45"/>
<g id="a_edge5&#45;headlabel"><a xlink:href="dir_000012_000022.html" target="_top" xlink:title="2">
<text text-anchor="middle" x="848.74" y="-61.94" font-family="Helvetica,sans-Serif" font-size="10.00">2</text>
</a>
</g>
</g>
<!-- dir_eabe988c95970cb88382a9440b1d86c2 -->
<g id="node6" class="node">
<title>dir_eabe988c95970cb88382a9440b1d86c2</title>
<g id="a_node6"><a xlink:href="dir_eabe988c95970cb88382a9440b1d86c2.html" target="_top" xlink:title="bdmfs_vfat">
<polygon fill="#60a2e3" stroke="#404040" points="377.5,-196 312.5,-196 312.5,-160 377.5,-160 377.5,-196"/>
<text text-anchor="middle" x="345" y="-175.5" font-family="Helvetica,sans-Serif" font-size="10.00">bdmfs_vfat</text>
</a>
</g>
</g>
<!-- dir_eabe988c95970cb88382a9440b1d86c2&#45;&gt;dir_9be0baa3d4a3e9f480a9ee70594037fa -->
<g id="edge8" class="edge">
<title>dir_eabe988c95970cb88382a9440b1d86c2&#45;&gt;dir_9be0baa3d4a3e9f480a9ee70594037fa</title>
<path fill="none" stroke="black" d="M343.67,-159.87C341.8,-135.67 338.35,-91.21 336.12,-62.39"/>
<polygon fill="black" stroke="black" points="339.59,-61.89 335.33,-52.19 332.61,-62.43 339.59,-61.89"/>
<g id="a_edge8&#45;headlabel"><a xlink:href="dir_000013_000158.html" target="_top" xlink:title="29">
<text text-anchor="middle" x="342.7" y="-62.75" font-family="Helvetica,sans-Serif" font-size="10.00">29</text>
</a>
</g>
</g>
<!-- dir_eabe988c95970cb88382a9440b1d86c2&#45;&gt;dir_0134b0376fbe77322088b496fb368f9b -->
<g id="edge6" class="edge">
<title>dir_eabe988c95970cb88382a9440b1d86c2&#45;&gt;dir_0134b0376fbe77322088b496fb368f9b</title>
<path fill="none" stroke="black" d="M368.48,-159.7C380.56,-150.8 395.45,-139.82 408.52,-130.2"/>
<polygon fill="black" stroke="black" points="410.81,-132.85 416.79,-124.1 406.66,-127.22 410.81,-132.85"/>
<g id="a_edge6&#45;headlabel"><a xlink:href="dir_000013_000011.html" target="_top" xlink:title="4">
<text text-anchor="middle" x="409.6" y="-134.77" font-family="Helvetica,sans-Serif" font-size="10.00">4</text>
</a>
</g>
</g>
<!-- dir_eabe988c95970cb88382a9440b1d86c2&#45;&gt;dir_bdd9a5d540de89e9fe90efdfc6973a4f -->
<g id="edge7" class="edge">
<title>dir_eabe988c95970cb88382a9440b1d86c2&#45;&gt;dir_bdd9a5d540de89e9fe90efdfc6973a4f</title>
<path fill="none" stroke="black" d="M377.71,-162.69C380.81,-161.66 383.94,-160.74 387,-160 474.84,-138.82 717.67,-175.37 792,-124 812.77,-109.65 823.87,-82.39 829.55,-61.81"/>
<polygon fill="black" stroke="black" points="832.97,-62.59 831.99,-52.04 826.18,-60.89 832.97,-62.59"/>
<g id="a_edge7&#45;headlabel"><a xlink:href="dir_000013_000022.html" target="_top" xlink:title="5">
<text text-anchor="middle" x="834.85" y="-64.26" font-family="Helvetica,sans-Serif" font-size="10.00">5</text>
</a>
</g>
</g>
<!-- dir_a0342a6ef9487eda55789d2e07a75ee7 -->
<g id="node7" class="node">
<title>dir_a0342a6ef9487eda55789d2e07a75ee7</title>
<g id="a_node7"><a xlink:href="dir_a0342a6ef9487eda55789d2e07a75ee7.html" target="_top" xlink:title="devfs">
<polygon fill="#60a2e3" stroke="#404040" points="78,-196 24,-196 24,-160 78,-160 78,-196"/>
<text text-anchor="middle" x="51" y="-175.5" font-family="Helvetica,sans-Serif" font-size="10.00">devfs</text>
</a>
</g>
</g>
<!-- dir_a0342a6ef9487eda55789d2e07a75ee7&#45;&gt;dir_9be0baa3d4a3e9f480a9ee70594037fa -->
<g id="edge9" class="edge">
<title>dir_a0342a6ef9487eda55789d2e07a75ee7&#45;&gt;dir_9be0baa3d4a3e9f480a9ee70594037fa</title>
<path fill="none" stroke="black" d="M69.57,-159.91C93.77,-138.47 138.19,-101.85 182,-80 219.06,-61.52 265.08,-49.21 296.71,-42.21"/>
<polygon fill="black" stroke="black" points="297.81,-45.56 306.85,-40.04 296.34,-38.71 297.81,-45.56"/>
<g id="a_edge9&#45;headlabel"><a xlink:href="dir_000028_000158.html" target="_top" xlink:title="18">
<text text-anchor="middle" x="294.89" y="-46.59" font-family="Helvetica,sans-Serif" font-size="10.00">18</text>
</a>
</g>
</g>
<!-- dir_6ec8af8771869123149626592b760e4b -->
<g id="node8" class="node">
<title>dir_6ec8af8771869123149626592b760e4b</title>
<g id="a_node8"><a xlink:href="dir_6ec8af8771869123149626592b760e4b.html" target="_top" xlink:title="fakehost">
<polygon fill="#60a2e3" stroke="#404040" points="150,-196 96,-196 96,-160 150,-160 150,-196"/>
<text text-anchor="middle" x="123" y="-175.5" font-family="Helvetica,sans-Serif" font-size="10.00">fakehost</text>
</a>
</g>
</g>
<!-- dir_6ec8af8771869123149626592b760e4b&#45;&gt;dir_9be0baa3d4a3e9f480a9ee70594037fa -->
<g id="edge10" class="edge">
<title>dir_6ec8af8771869123149626592b760e4b&#45;&gt;dir_9be0baa3d4a3e9f480a9ee70594037fa</title>
<path fill="none" stroke="black" d="M141.74,-159.87C164.75,-139.36 205.46,-104.69 244,-80 260.85,-69.21 280.63,-59.07 297.36,-51.15"/>
<polygon fill="black" stroke="black" points="299.21,-54.15 306.8,-46.76 296.26,-47.8 299.21,-54.15"/>
<g id="a_edge10&#45;headlabel"><a xlink:href="dir_000046_000158.html" target="_top" xlink:title="22">
<text text-anchor="middle" x="297.15" y="-55.74" font-family="Helvetica,sans-Serif" font-size="10.00">22</text>
</a>
</g>
</g>
<!-- dir_3d3c25f590b74dfbd50a8b02c417c665 -->
<g id="node9" class="node">
<title>dir_3d3c25f590b74dfbd50a8b02c417c665</title>
<g id="a_node9"><a xlink:href="dir_3d3c25f590b74dfbd50a8b02c417c665.html" target="_top" xlink:title="filexio">
<polygon fill="#60a2e3" stroke="#404040" points="294,-196 240,-196 240,-160 294,-160 294,-196"/>
<text text-anchor="middle" x="267" y="-175.5" font-family="Helvetica,sans-Serif" font-size="10.00">filexio</text>
</a>
</g>
</g>
<!-- dir_3d3c25f590b74dfbd50a8b02c417c665&#45;&gt;dir_9be0baa3d4a3e9f480a9ee70594037fa -->
<g id="edge11" class="edge">
<title>dir_3d3c25f590b74dfbd50a8b02c417c665&#45;&gt;dir_9be0baa3d4a3e9f480a9ee70594037fa</title>
<path fill="none" stroke="black" d="M275.08,-159.87C286.65,-135.35 308.03,-90.03 321.61,-61.26"/>
<polygon fill="black" stroke="black" points="324.79,-62.73 325.89,-52.19 318.46,-59.74 324.79,-62.73"/>
<g id="a_edge11&#45;headlabel"><a xlink:href="dir_000048_000158.html" target="_top" xlink:title="16">
<text text-anchor="middle" x="325.82" y="-64.69" font-family="Helvetica,sans-Serif" font-size="10.00">16</text>
</a>
</g>
</g>
<!-- dir_3d3c25f590b74dfbd50a8b02c417c665&#45;&gt;dir_bdd9a5d540de89e9fe90efdfc6973a4f -->
<g id="edge12" class="edge">
<title>dir_3d3c25f590b74dfbd50a8b02c417c665&#45;&gt;dir_bdd9a5d540de89e9fe90efdfc6973a4f</title>
<path fill="none" stroke="black" d="M294.13,-162.94C297.07,-161.8 300.06,-160.78 303,-160 401.88,-133.72 673.48,-175.31 762,-124 782.48,-112.13 777.11,-98.4 792,-80 797.57,-73.12 803.98,-66.03 810.12,-59.58"/>
<polygon fill="black" stroke="black" points="812.69,-61.95 817.14,-52.34 807.67,-57.08 812.69,-61.95"/>
<g id="a_edge12&#45;headlabel"><a xlink:href="dir_000048_000022.html" target="_top" xlink:title="2">
<text text-anchor="middle" x="812.23" y="-64.01" font-family="Helvetica,sans-Serif" font-size="10.00">2</text>
</a>
</g>
</g>
<!-- dir_bb1a65baea34b53b4bbf06e6d3ddfe57 -->
<g id="node10" class="node">
<title>dir_bb1a65baea34b53b4bbf06e6d3ddfe57</title>
<g id="a_node10"><a xlink:href="dir_bb1a65baea34b53b4bbf06e6d3ddfe57.html" target="_top" xlink:title="http">
<polygon fill="#60a2e3" stroke="#404040" points="222,-196 168,-196 168,-160 222,-160 222,-196"/>
<text text-anchor="middle" x="195" y="-175.5" font-family="Helvetica,sans-Serif" font-size="10.00">http</text>
</a>
</g>
</g>
<!-- dir_bb1a65baea34b53b4bbf06e6d3ddfe57&#45;&gt;dir_9be0baa3d4a3e9f480a9ee70594037fa -->
<g id="edge13" class="edge">
<title>dir_bb1a65baea34b53b4bbf06e6d3ddfe57&#45;&gt;dir_9be0baa3d4a3e9f480a9ee70594037fa</title>
<path fill="none" stroke="black" d="M211.56,-159.75C230.27,-140.29 261.69,-107.74 289,-80 295.57,-73.32 302.73,-66.13 309.36,-59.5"/>
<polygon fill="black" stroke="black" points="312.24,-61.57 316.84,-52.03 307.29,-56.62 312.24,-61.57"/>
<g id="a_edge13&#45;headlabel"><a xlink:href="dir_000056_000158.html" target="_top" xlink:title="15">
<text text-anchor="middle" x="311.7" y="-63.62" font-family="Helvetica,sans-Serif" font-size="10.00">15</text>
</a>
</g>
</g>
<!-- dir_10cce8191a2d4629e92aaca1231c0797 -->
<g id="node11" class="node">
<title>dir_10cce8191a2d4629e92aaca1231c0797</title>
<g id="a_node11"><a xlink:href="dir_10cce8191a2d4629e92aaca1231c0797.html" target="_top" xlink:title="libbdm">
<polygon fill="#60a2e3" stroke="#404040" points="536,-196 482,-196 482,-160 536,-160 536,-196"/>
<text text-anchor="middle" x="509" y="-175.5" font-family="Helvetica,sans-Serif" font-size="10.00">libbdm</text>
</a>
</g>
</g>
<!-- dir_10cce8191a2d4629e92aaca1231c0797&#45;&gt;dir_9be0baa3d4a3e9f480a9ee70594037fa -->
<g id="edge15" class="edge">
<title>dir_10cce8191a2d4629e92aaca1231c0797&#45;&gt;dir_9be0baa3d4a3e9f480a9ee70594037fa</title>
<path fill="none" stroke="black" d="M481.92,-164.08C478.92,-162.69 475.9,-161.31 473,-160 435.96,-143.33 419.28,-151.07 389,-124 372.23,-109.01 375.8,-99.15 364,-80 360.16,-73.77 355.88,-67.16 351.78,-60.99"/>
<polygon fill="black" stroke="black" points="354.45,-58.69 345.98,-52.34 348.64,-62.59 354.45,-58.69"/>
<g id="a_edge15&#45;headlabel"><a xlink:href="dir_000162_000158.html" target="_top" xlink:title="1">
<text text-anchor="middle" x="358.81" y="-57.59" font-family="Helvetica,sans-Serif" font-size="10.00">1</text>
</a>
</g>
</g>
<!-- dir_10cce8191a2d4629e92aaca1231c0797&#45;&gt;dir_0134b0376fbe77322088b496fb368f9b -->
<g id="edge14" class="edge">
<title>dir_10cce8191a2d4629e92aaca1231c0797&#45;&gt;dir_0134b0376fbe77322088b496fb368f9b</title>
<path fill="none" stroke="black" d="M491.94,-159.7C483.5,-151.14 473.18,-140.66 463.96,-131.3"/>
<polygon fill="black" stroke="black" points="466.37,-128.77 456.86,-124.1 461.39,-133.68 466.37,-128.77"/>
<g id="a_edge14&#45;headlabel"><a xlink:href="dir_000162_000011.html" target="_top" xlink:title="1">
<text text-anchor="middle" x="470.92" y="-126.84" font-family="Helvetica,sans-Serif" font-size="10.00">1</text>
</a>
</g>
</g>
<!-- dir_10cce8191a2d4629e92aaca1231c0797&#45;&gt;dir_bdd9a5d540de89e9fe90efdfc6973a4f -->
<g id="edge16" class="edge">
<title>dir_10cce8191a2d4629e92aaca1231c0797&#45;&gt;dir_bdd9a5d540de89e9fe90efdfc6973a4f</title>
<path fill="none" stroke="black" d="M536.16,-163.04C539.09,-161.88 542.07,-160.83 545,-160 614.49,-140.31 819.84,-177.82 868,-124 884.08,-106.03 870.99,-79.52 856.83,-60.11"/>
<polygon fill="black" stroke="black" points="859.45,-57.77 850.56,-52.01 853.91,-62.06 859.45,-57.77"/>
<g id="a_edge16&#45;headlabel"><a xlink:href="dir_000162_000022.html" target="_top" xlink:title="2">
<text text-anchor="middle" x="863.89" y="-56.38" font-family="Helvetica,sans-Serif" font-size="10.00">2</text>
</a>
</g>
</g>
<!-- dir_c49d6f7b24cb4247c18d467361672153 -->
<g id="node12" class="node">
<title>dir_c49d6f7b24cb4247c18d467361672153</title>
<g id="a_node12"><a xlink:href="dir_c49d6f7b24cb4247c18d467361672153.html" target="_top" xlink:title="netfs">
<polygon fill="#60a2e3" stroke="#404040" points="608,-196 554,-196 554,-160 608,-160 608,-196"/>
<text text-anchor="middle" x="581" y="-175.5" font-family="Helvetica,sans-Serif" font-size="10.00">netfs</text>
</a>
</g>
</g>
<!-- dir_c49d6f7b24cb4247c18d467361672153&#45;&gt;dir_9be0baa3d4a3e9f480a9ee70594037fa -->
<g id="edge17" class="edge">
<title>dir_c49d6f7b24cb4247c18d467361672153&#45;&gt;dir_9be0baa3d4a3e9f480a9ee70594037fa</title>
<path fill="none" stroke="black" d="M553.71,-163.45C550.8,-162.21 547.86,-161.03 545,-160 484.15,-138.09 454.35,-164.6 404,-124 386.98,-110.28 395.07,-97.53 382,-80 376.6,-72.76 369.96,-65.7 363.36,-59.4"/>
<polygon fill="black" stroke="black" points="365.44,-56.56 355.7,-52.39 360.71,-61.72 365.44,-56.56"/>
<g id="a_edge17&#45;headlabel"><a xlink:href="dir_000185_000158.html" target="_top" xlink:title="32">
<text text-anchor="middle" x="370.01" y="-54.39" font-family="Helvetica,sans-Serif" font-size="10.00">32</text>
</a>
</g>
</g>
<!-- dir_c49d6f7b24cb4247c18d467361672153&#45;&gt;dir_40ac35421bc63b72c26b6c69b1517fd6 -->
<g id="edge18" class="edge">
<title>dir_c49d6f7b24cb4247c18d467361672153&#45;&gt;dir_40ac35421bc63b72c26b6c69b1517fd6</title>
<path fill="none" stroke="black" d="M608.23,-164.1C633.13,-152.28 668.45,-135.49 686.82,-126.49"/>
<polygon fill="black" stroke="black" points="688.61,-129.52 696,-121.92 685.48,-123.25 688.61,-129.52"/>
<g id="a_edge18&#45;headlabel"><a xlink:href="dir_000185_000340.html" target="_top" xlink:title="3">
<text text-anchor="middle" x="686.65" y="-131.16" font-family="Helvetica,sans-Serif" font-size="10.00">3</text>
</a>
</g>
</g>
<!-- dir_c49d6f7b24cb4247c18d467361672153&#45;&gt;dir_bdd9a5d540de89e9fe90efdfc6973a4f -->
<g id="edge19" class="edge">
<title>dir_c49d6f7b24cb4247c18d467361672153&#45;&gt;dir_bdd9a5d540de89e9fe90efdfc6973a4f</title>
<path fill="none" stroke="black" d="M608.17,-163.08C611.1,-161.91 614.08,-160.85 617,-160 679.15,-141.96 863.16,-172.51 906,-124 918.95,-109.34 915.43,-97.13 906,-80 898.46,-66.29 884.77,-56.17 871.42,-49.03"/>
<polygon fill="black" stroke="black" points="872.82,-45.82 862.3,-44.57 869.74,-52.11 872.82,-45.82"/>
<g id="a_edge19&#45;headlabel"><a xlink:href="dir_000185_000022.html" target="_top" xlink:title="1">
<text text-anchor="middle" x="877.3" y="-42.36" font-family="Helvetica,sans-Serif" font-size="10.00">1</text>
</a>
</g>
</g>
</g>
</svg>
        <g id="navigator" transform="translate(0 0)" fill="#404254">
                <rect fill="#f2f5e9" fill-opacity="0.5" stroke="#606060" stroke-width=".5" x="0" y="0" width="60" height="60"/>
                <use id="zoomplus" xlink:href="#zoomPlus" x="17" y="9" onmousedown="handleZoom(evt,'in')"/>
                <use id="zoomminus" xlink:href="#zoomMin" x="42" y="9" onmousedown="handleZoom(evt,'out')"/>
                <use id="reset" xlink:href="#resetDef" x="30" y="36" onmousedown="handleReset()"/>
                <g id="arrowUp" xlink:href="#dirArrow" transform="translate(30 24)" onmousedown="handlePan(0,-1)">
                  <use xlink:href="#rim" fill="#404040">
                        <set attributeName="fill" to="#808080" begin="arrowUp.mouseover" end="arrowUp.mouseout"/>
                  </use>
                  <path fill="none" stroke="white" stroke-width="1.5" d="M0,-3.0v7 M-2.5,-0.5L0,-3.0L2.5,-0.5"/>
                </g>
                <g id="arrowRight" xlink:href="#dirArrow" transform="rotate(90) translate(36 -43)" onmousedown="handlePan(1,0)">
                  <use xlink:href="#rim" fill="#404040">
                        <set attributeName="fill" to="#808080" begin="arrowRight.mouseover" end="arrowRight.mouseout"/>
                  </use>
                  <path fill="none" stroke="white" stroke-width="1.5" d="M0,-3.0v7 M-2.5,-0.5L0,-3.0L2.5,-0.5"/>
                </g>
                <g id="arrowDown" xlink:href="#dirArrow" transform="rotate(180) translate(-30 -48)" onmousedown="handlePan(0,1)">
                  <use xlink:href="#rim" fill="#404040">
                        <set attributeName="fill" to="#808080" begin="arrowDown.mouseover" end="arrowDown.mouseout"/>
                  </use>
                  <path fill="none" stroke="white" stroke-width="1.5" d="M0,-3.0v7 M-2.5,-0.5L0,-3.0L2.5,-0.5"/>
                </g>
                <g id="arrowLeft" xlink:href="#dirArrow" transform="rotate(270) translate(-36 17)" onmousedown="handlePan(-1,0)">
                  <use xlink:href="#rim" fill="#404040">
                        <set attributeName="fill" to="#808080" begin="arrowLeft.mouseover" end="arrowLeft.mouseout"/>
                  </use>
                  <path fill="none" stroke="white" stroke-width="1.5" d="M0,-3.0v7 M-2.5,-0.5L0,-3.0L2.5,-0.5"/>
                </g>
        </g>
        <svg viewBox="0 0 15 15" width="100%" height="30px" preserveAspectRatio="xMaxYMin meet">
         <g id="arrow_out" transform="scale(0.3 0.3)">
          <a xlink:href="dir_f24daea2522ffa8b6dc5fa9cdf5b8f5c_dep_org.svg" target="_base">
           <rect id="button" ry="5" rx="5" y="6" x="6" height="38" width="38"
                fill="#f2f5e9" fill-opacity="0.5" stroke="#606060" stroke-width="1.0"/>
           <path id="arrow"
             d="M 11.500037,31.436501 C 11.940474,20.09759 22.043105,11.32322 32.158766,21.979434 L 37.068811,17.246167 C 37.068811,17.246167 37.088388,32 37.088388,32 L 22.160133,31.978069 C 22.160133,31.978069 26.997745,27.140456 26.997745,27.140456 C 18.528582,18.264221 13.291696,25.230495 11.500037,31.436501 z"
             style="fill:#404040;"/>
          </a>
         </g>
        </svg>
</svg>
