<?xml version="1.0" encoding="UTF-8" standalone="no"?>
<!DOCTYPE svg PUBLIC "-//W3C//DTD SVG 1.1//EN"
 "http://www.w3.org/Graphics/SVG/1.1/DTD/svg11.dtd">
<!-- Generated by graphviz version 3.0.0 (20220413.0242)
 -->
<!-- Title: iop/hdd/libapa/src Pages: 1 -->
<svg width="206pt" height="151pt"
 viewBox="0.00 0.00 206.00 151.00" xmlns="http://www.w3.org/2000/svg" xmlns:xlink="http://www.w3.org/1999/xlink">
<g id="graph0" class="graph" transform="scale(1 1) rotate(0) translate(4 147)">
<title>iop/hdd/libapa/src</title>
<polygon fill="white" stroke="transparent" points="-4,4 -4,-147 202,-147 202,4 -4,4"/>
<g id="clust1" class="cluster">
<title>clusterdir_74c6a9c949eb32128aa5a6adc613f35b</title>
<g id="a_clust1"><a xlink:href="dir_74c6a9c949eb32128aa5a6adc613f35b.html" target="_top" xlink:title="libapa">
<polygon fill="#deebf9" stroke="#7f7f7f" stroke-dasharray="5,2" points="64,-64 64,-135 134,-135 134,-64 64,-64"/>
<text text-anchor="middle" x="99" y="-123" font-family="Helvetica,sans-Serif" font-size="10.00">libapa</text>
</a>
</g>
</g>
<!-- dir_d55f23d8ba757b23ee1ce2ded4afdb2b -->
<g id="node1" class="node">
<title>dir_d55f23d8ba757b23ee1ce2ded4afdb2b</title>
<g id="a_node1"><a xlink:href="dir_d55f23d8ba757b23ee1ce2ded4afdb2b.html" target="_top" xlink:title="src">
<polygon fill="#deebf9" stroke="#404040" stroke-width="2" points="126,-108 72,-108 72,-72 126,-72 126,-108"/>
<text text-anchor="middle" x="99" y="-87.5" font-family="Helvetica,sans-Serif" font-size="10.00">src</text>
</a>
</g>
</g>
<!-- dir_6f16cad81de2453a6f48c5e272ba4a18 -->
<g id="node2" class="node">
<title>dir_6f16cad81de2453a6f48c5e272ba4a18</title>
<g id="a_node2"><a xlink:href="dir_6f16cad81de2453a6f48c5e272ba4a18.html" target="_top" xlink:title="dev9">
<polygon fill="none" stroke="red" stroke-dasharray="5,2" points="54,-36 0,-36 0,0 54,0 54,-36"/>
<text text-anchor="middle" x="27" y="-15.5" font-family="Helvetica,sans-Serif" font-size="10.00">dev9</text>
</a>
</g>
</g>
<!-- dir_d55f23d8ba757b23ee1ce2ded4afdb2b&#45;&gt;dir_6f16cad81de2453a6f48c5e272ba4a18 -->
<g id="edge1" class="edge">
<title>dir_d55f23d8ba757b23ee1ce2ded4afdb2b&#45;&gt;dir_6f16cad81de2453a6f48c5e272ba4a18</title>
<path fill="none" stroke="black" d="M81.2,-71.7C72.4,-63.14 61.62,-52.66 52,-43.3"/>
<polygon fill="black" stroke="black" points="54.2,-40.57 44.59,-36.1 49.32,-45.58 54.2,-40.57"/>
<g id="a_edge1&#45;headlabel"><a xlink:href="dir_000291_000026.html" target="_top" xlink:title="4">
<text text-anchor="middle" x="58.76" y="-38.54" font-family="Helvetica,sans-Serif" font-size="10.00">4</text>
</a>
</g>
</g>
<!-- dir_9be0baa3d4a3e9f480a9ee70594037fa -->
<g id="node3" class="node">
<title>dir_9be0baa3d4a3e9f480a9ee70594037fa</title>
<g id="a_node3"><a xlink:href="dir_9be0baa3d4a3e9f480a9ee70594037fa.html" target="_top" xlink:title="kernel">
<polygon fill="none" stroke="red" stroke-dasharray="5,2" points="126,-36 72,-36 72,0 126,0 126,-36"/>
<text text-anchor="middle" x="99" y="-15.5" font-family="Helvetica,sans-Serif" font-size="10.00">kernel</text>
</a>
</g>
</g>
<!-- dir_d55f23d8ba757b23ee1ce2ded4afdb2b&#45;&gt;dir_9be0baa3d4a3e9f480a9ee70594037fa -->
<g id="edge2" class="edge">
<title>dir_d55f23d8ba757b23ee1ce2ded4afdb2b&#45;&gt;dir_9be0baa3d4a3e9f480a9ee70594037fa</title>
<path fill="none" stroke="black" d="M99,-71.7C99,-63.98 99,-54.71 99,-46.11"/>
<polygon fill="black" stroke="black" points="102.5,-46.1 99,-36.1 95.5,-46.1 102.5,-46.1"/>
<g id="a_edge2&#45;headlabel"><a xlink:href="dir_000291_000158.html" target="_top" xlink:title="13">
<text text-anchor="middle" x="105.34" y="-47.2" font-family="Helvetica,sans-Serif" font-size="10.00">13</text>
</a>
</g>
</g>
<!-- dir_bdd9a5d540de89e9fe90efdfc6973a4f -->
<g id="node4" class="node">
<title>dir_bdd9a5d540de89e9fe90efdfc6973a4f</title>
<g id="a_node4"><a xlink:href="dir_bdd9a5d540de89e9fe90efdfc6973a4f.html" target="_top" xlink:title="common">
<polygon fill="none" stroke="red" points="198,-36 144,-36 144,0 198,0 198,-36"/>
<text text-anchor="middle" x="171" y="-15.5" font-family="Helvetica,sans-Serif" font-size="10.00">common</text>
</a>
</g>
</g>
<!-- dir_d55f23d8ba757b23ee1ce2ded4afdb2b&#45;&gt;dir_bdd9a5d540de89e9fe90efdfc6973a4f -->
<g id="edge3" class="edge">
<title>dir_d55f23d8ba757b23ee1ce2ded4afdb2b&#45;&gt;dir_bdd9a5d540de89e9fe90efdfc6973a4f</title>
<path fill="none" stroke="black" d="M116.8,-71.7C125.6,-63.14 136.38,-52.66 146,-43.3"/>
<polygon fill="black" stroke="black" points="148.68,-45.58 153.41,-36.1 143.8,-40.57 148.68,-45.58"/>
<g id="a_edge3&#45;headlabel"><a xlink:href="dir_000291_000022.html" target="_top" xlink:title="12">
<text text-anchor="middle" x="148.08" y="-47.63" font-family="Helvetica,sans-Serif" font-size="10.00">12</text>
</a>
</g>
</g>
</g>
</svg>
