<?xml version="1.0" encoding="UTF-8" standalone="no"?>
<!DOCTYPE svg PUBLIC "-//W3C//DTD SVG 1.1//EN"
 "http://www.w3.org/Graphics/SVG/1.1/DTD/svg11.dtd">
<!-- Generated by graphviz version 3.0.0 (20220413.0242)
 -->
<!-- Title: iop/system/sysclib/src/embeddedartistry_libc/stdlib Pages: 1 -->
<svg width="135pt" height="151pt"
 viewBox="0.00 0.00 135.00 151.00" xmlns="http://www.w3.org/2000/svg" xmlns:xlink="http://www.w3.org/1999/xlink">
<g id="graph0" class="graph" transform="scale(1 1) rotate(0) translate(4 147)">
<title>iop/system/sysclib/src/embeddedartistry_libc/stdlib</title>
<polygon fill="white" stroke="transparent" points="-4,4 -4,-147 131,-147 131,4 -4,4"/>
<g id="clust1" class="cluster">
<title>clusterdir_76f6712385aad5f71054d252dc76d79e</title>
<g id="a_clust1"><a xlink:href="dir_76f6712385aad5f71054d252dc76d79e.html" target="_top" xlink:title="embeddedartistry_libc">
<polygon fill="#deebf9" stroke="#7f7f7f" stroke-dasharray="5,2" points="8,-64 8,-135 119,-135 119,-64 8,-64"/>
<text text-anchor="middle" x="63.5" y="-123" font-family="Helvetica,sans-Serif" font-size="10.00">embeddedartistry_libc</text>
</a>
</g>
</g>
<!-- dir_91f668bae3b63b2f0c696a752c6e3e8b -->
<g id="node1" class="node">
<title>dir_91f668bae3b63b2f0c696a752c6e3e8b</title>
<g id="a_node1"><a xlink:href="dir_91f668bae3b63b2f0c696a752c6e3e8b.html" target="_top" xlink:title="stdlib">
<polygon fill="#deebf9" stroke="#404040" stroke-width="2" points="90,-108 36,-108 36,-72 90,-72 90,-108"/>
<text text-anchor="middle" x="63" y="-87.5" font-family="Helvetica,sans-Serif" font-size="10.00">stdlib</text>
</a>
</g>
</g>
<!-- dir_9be0baa3d4a3e9f480a9ee70594037fa -->
<g id="node2" class="node">
<title>dir_9be0baa3d4a3e9f480a9ee70594037fa</title>
<g id="a_node2"><a xlink:href="dir_9be0baa3d4a3e9f480a9ee70594037fa.html" target="_top" xlink:title="kernel">
<polygon fill="none" stroke="red" stroke-dasharray="5,2" points="90,-36 36,-36 36,0 90,0 90,-36"/>
<text text-anchor="middle" x="63" y="-15.5" font-family="Helvetica,sans-Serif" font-size="10.00">kernel</text>
</a>
</g>
</g>
<!-- dir_91f668bae3b63b2f0c696a752c6e3e8b&#45;&gt;dir_9be0baa3d4a3e9f480a9ee70594037fa -->
<g id="edge1" class="edge">
<title>dir_91f668bae3b63b2f0c696a752c6e3e8b&#45;&gt;dir_9be0baa3d4a3e9f480a9ee70594037fa</title>
<path fill="none" stroke="black" d="M63,-71.7C63,-63.98 63,-54.71 63,-46.11"/>
<polygon fill="black" stroke="black" points="66.5,-46.1 63,-36.1 59.5,-46.1 66.5,-46.1"/>
<g id="a_edge1&#45;headlabel"><a xlink:href="dir_000335_000158.html" target="_top" xlink:title="8">
<text text-anchor="middle" x="69.34" y="-47.2" font-family="Helvetica,sans-Serif" font-size="10.00">8</text>
</a>
</g>
</g>
</g>
</svg>
