<?xml version="1.0" encoding="UTF-8" standalone="no"?>
<!DOCTYPE svg PUBLIC "-//W3C//DTD SVG 1.1//EN"
 "http://www.w3.org/Graphics/SVG/1.1/DTD/svg11.dtd">
<!-- Generated by graphviz version 3.0.0 (20220413.0242)
 -->
<!-- Title: iop/sound Pages: 1 -->
<svg width="380pt" height="247pt"
 viewBox="0.00 0.00 380.00 247.00" xmlns="http://www.w3.org/2000/svg" xmlns:xlink="http://www.w3.org/1999/xlink">
<g id="graph0" class="graph" transform="scale(1 1) rotate(0) translate(4 243)">
<title>iop/sound</title>
<polygon fill="white" stroke="transparent" points="-4,4 -4,-243 376,-243 376,4 -4,4"/>
<g id="clust1" class="cluster">
<title>clusterdir_0981ace215aa2029f526b70c145b9fbe</title>
<g id="a_clust1"><a xlink:href="dir_0981ace215aa2029f526b70c145b9fbe.html" target="_top" xlink:title="iop">
<polygon fill="#deebf9" stroke="#404040" stroke-dasharray="5,2" points="8,-8 8,-231 310,-231 310,-8 8,-8"/>
<text text-anchor="middle" x="159" y="-219" font-family="Helvetica,sans-Serif" font-size="10.00">iop</text>
</a>
</g>
</g>
<g id="clust2" class="cluster">
<title>clusterdir_838e88315325ec0d843359dcae22d639</title>
<g id="a_clust2"><a xlink:href="dir_838e88315325ec0d843359dcae22d639.html" target="_top">
<polygon fill="#deebf9" stroke="#404040" stroke-width="2" points="16,-80 16,-204 302,-204 302,-80 16,-80"/>
</a>
</g>
</g>
<!-- dir_9be0baa3d4a3e9f480a9ee70594037fa -->
<g id="node1" class="node">
<title>dir_9be0baa3d4a3e9f480a9ee70594037fa</title>
<g id="a_node1"><a xlink:href="dir_9be0baa3d4a3e9f480a9ee70594037fa.html" target="_top" xlink:title="kernel">
<polygon fill="#60a2e3" stroke="red" points="138,-52 84,-52 84,-16 138,-16 138,-52"/>
<text text-anchor="middle" x="111" y="-31.5" font-family="Helvetica,sans-Serif" font-size="10.00">kernel</text>
</a>
</g>
</g>
<!-- dir_838e88315325ec0d843359dcae22d639 -->
<g id="node2" class="node">
<title>dir_838e88315325ec0d843359dcae22d639</title>
<text text-anchor="middle" x="267" y="-175.5" font-family="Helvetica,sans-Serif" font-size="10.00">sound</text>
</g>
<!-- dir_9337eeae2b875a84dbe6e00bf944922d -->
<g id="node3" class="node">
<title>dir_9337eeae2b875a84dbe6e00bf944922d</title>
<g id="a_node3"><a xlink:href="dir_9337eeae2b875a84dbe6e00bf944922d.html" target="_top" xlink:title="ahx">
<polygon fill="#60a2e3" stroke="#404040" points="78,-196 24,-196 24,-160 78,-160 78,-196"/>
<text text-anchor="middle" x="51" y="-175.5" font-family="Helvetica,sans-Serif" font-size="10.00">ahx</text>
</a>
</g>
</g>
<!-- dir_9337eeae2b875a84dbe6e00bf944922d&#45;&gt;dir_9be0baa3d4a3e9f480a9ee70594037fa -->
<g id="edge1" class="edge">
<title>dir_9337eeae2b875a84dbe6e00bf944922d&#45;&gt;dir_9be0baa3d4a3e9f480a9ee70594037fa</title>
<path fill="none" stroke="black" d="M66.28,-159.99C74.42,-150.11 83.96,-137.07 90,-124 99.13,-104.24 104.51,-80.12 107.53,-61.98"/>
<polygon fill="black" stroke="black" points="110.99,-62.48 109.05,-52.07 104.07,-61.42 110.99,-62.48"/>
<g id="a_edge1&#45;headlabel"><a xlink:href="dir_000002_000158.html" target="_top" xlink:title="14">
<text text-anchor="middle" x="113.26" y="-63.96" font-family="Helvetica,sans-Serif" font-size="10.00">14</text>
</a>
</g>
</g>
<!-- dir_b3b65c61938638f28675fc77a7fe35e3 -->
<g id="node5" class="node">
<title>dir_b3b65c61938638f28675fc77a7fe35e3</title>
<g id="a_node5"><a xlink:href="dir_b3b65c61938638f28675fc77a7fe35e3.html" target="_top" xlink:title="libsd">
<polygon fill="#60a2e3" stroke="#404040" points="81,-124 27,-124 27,-88 81,-88 81,-124"/>
<text text-anchor="middle" x="54" y="-103.5" font-family="Helvetica,sans-Serif" font-size="10.00">libsd</text>
</a>
</g>
</g>
<!-- dir_9337eeae2b875a84dbe6e00bf944922d&#45;&gt;dir_b3b65c61938638f28675fc77a7fe35e3 -->
<g id="edge2" class="edge">
<title>dir_9337eeae2b875a84dbe6e00bf944922d&#45;&gt;dir_b3b65c61938638f28675fc77a7fe35e3</title>
<path fill="none" stroke="black" d="M51.74,-159.7C52.07,-151.98 52.47,-142.71 52.84,-134.11"/>
<polygon fill="black" stroke="black" points="56.34,-134.25 53.27,-124.1 49.34,-133.95 56.34,-134.25"/>
<g id="a_edge2&#45;headlabel"><a xlink:href="dir_000002_000167.html" target="_top" xlink:title="1">
<text text-anchor="middle" x="59.02" y="-135.46" font-family="Helvetica,sans-Serif" font-size="10.00">1</text>
</a>
</g>
</g>
<!-- dir_c224f8f6f41c46dc69cc573710289bc0 -->
<g id="node4" class="node">
<title>dir_c224f8f6f41c46dc69cc573710289bc0</title>
<g id="a_node4"><a xlink:href="dir_c224f8f6f41c46dc69cc573710289bc0.html" target="_top" xlink:title="audsrv">
<polygon fill="#60a2e3" stroke="#404040" points="150,-196 96,-196 96,-160 150,-160 150,-196"/>
<text text-anchor="middle" x="123" y="-175.5" font-family="Helvetica,sans-Serif" font-size="10.00">audsrv</text>
</a>
</g>
</g>
<!-- dir_c224f8f6f41c46dc69cc573710289bc0&#45;&gt;dir_9be0baa3d4a3e9f480a9ee70594037fa -->
<g id="edge3" class="edge">
<title>dir_c224f8f6f41c46dc69cc573710289bc0&#45;&gt;dir_9be0baa3d4a3e9f480a9ee70594037fa</title>
<path fill="none" stroke="black" d="M121.55,-159.87C119.51,-135.67 115.75,-91.21 113.31,-62.39"/>
<polygon fill="black" stroke="black" points="116.78,-61.86 112.45,-52.19 109.81,-62.45 116.78,-61.86"/>
<g id="a_edge3&#45;headlabel"><a xlink:href="dir_000010_000158.html" target="_top" xlink:title="53">
<text text-anchor="middle" x="119.91" y="-62.7" font-family="Helvetica,sans-Serif" font-size="10.00">53</text>
</a>
</g>
</g>
<!-- dir_b3b65c61938638f28675fc77a7fe35e3&#45;&gt;dir_9be0baa3d4a3e9f480a9ee70594037fa -->
<g id="edge4" class="edge">
<title>dir_b3b65c61938638f28675fc77a7fe35e3&#45;&gt;dir_9be0baa3d4a3e9f480a9ee70594037fa</title>
<path fill="none" stroke="black" d="M68.09,-87.7C74.92,-79.3 83.26,-69.07 90.76,-59.86"/>
<polygon fill="black" stroke="black" points="93.47,-62.07 97.07,-52.1 88.04,-57.65 93.47,-62.07"/>
<g id="a_edge4&#45;headlabel"><a xlink:href="dir_000167_000158.html" target="_top" xlink:title="15">
<text text-anchor="middle" x="93.4" y="-64.15" font-family="Helvetica,sans-Serif" font-size="10.00">15</text>
</a>
</g>
</g>
<!-- dir_0fa59b7b5c95696e5fa18237205389fe -->
<g id="node6" class="node">
<title>dir_0fa59b7b5c95696e5fa18237205389fe</title>
<g id="a_node6"><a xlink:href="dir_0fa59b7b5c95696e5fa18237205389fe.html" target="_top" xlink:title="ps2snd">
<polygon fill="#60a2e3" stroke="#404040" points="222,-196 168,-196 168,-160 222,-160 222,-196"/>
<text text-anchor="middle" x="195" y="-175.5" font-family="Helvetica,sans-Serif" font-size="10.00">ps2snd</text>
</a>
</g>
</g>
<!-- dir_0fa59b7b5c95696e5fa18237205389fe&#45;&gt;dir_9be0baa3d4a3e9f480a9ee70594037fa -->
<g id="edge5" class="edge">
<title>dir_0fa59b7b5c95696e5fa18237205389fe&#45;&gt;dir_9be0baa3d4a3e9f480a9ee70594037fa</title>
<path fill="none" stroke="black" d="M184.87,-159.87C170.3,-135.24 143.32,-89.64 126.31,-60.88"/>
<polygon fill="black" stroke="black" points="129.27,-59.01 121.17,-52.19 123.25,-62.58 129.27,-59.01"/>
<g id="a_edge5&#45;headlabel"><a xlink:href="dir_000203_000158.html" target="_top" xlink:title="23">
<text text-anchor="middle" x="133.55" y="-58.16" font-family="Helvetica,sans-Serif" font-size="10.00">23</text>
</a>
</g>
</g>
<!-- dir_bdd9a5d540de89e9fe90efdfc6973a4f -->
<g id="node7" class="node">
<title>dir_bdd9a5d540de89e9fe90efdfc6973a4f</title>
<g id="a_node7"><a xlink:href="dir_bdd9a5d540de89e9fe90efdfc6973a4f.html" target="_top" xlink:title="common">
<polygon fill="none" stroke="red" points="372,-124 318,-124 318,-88 372,-88 372,-124"/>
<text text-anchor="middle" x="345" y="-103.5" font-family="Helvetica,sans-Serif" font-size="10.00">common</text>
</a>
</g>
</g>
<!-- dir_0fa59b7b5c95696e5fa18237205389fe&#45;&gt;dir_bdd9a5d540de89e9fe90efdfc6973a4f -->
<g id="edge6" class="edge">
<title>dir_0fa59b7b5c95696e5fa18237205389fe&#45;&gt;dir_bdd9a5d540de89e9fe90efdfc6973a4f</title>
<path fill="none" stroke="black" d="M222.12,-164.17C225.11,-162.76 228.12,-161.35 231,-160 256.94,-147.85 286.25,-134.22 308.65,-123.83"/>
<polygon fill="black" stroke="black" points="310.2,-126.97 317.8,-119.59 307.25,-120.62 310.2,-126.97"/>
<g id="a_edge6&#45;headlabel"><a xlink:href="dir_000203_000022.html" target="_top" xlink:title="2">
<text text-anchor="middle" x="308.13" y="-128.56" font-family="Helvetica,sans-Serif" font-size="10.00">2</text>
</a>
</g>
</g>
</g>
</svg>
