<?xml version="1.0" encoding="UTF-8" standalone="no"?>
<!DOCTYPE svg PUBLIC "-//W3C//DTD SVG 1.1//EN"
 "http://www.w3.org/Graphics/SVG/1.1/DTD/svg11.dtd">
<!-- Generated by graphviz version 3.0.0 (20220413.0242)
 -->
<!-- Title: ee/elf&#45;loader Pages: 1 -->
<svg width="382pt" height="175pt"
 viewBox="0.00 0.00 382.00 175.00" xmlns="http://www.w3.org/2000/svg" xmlns:xlink="http://www.w3.org/1999/xlink">
<g id="graph0" class="graph" transform="scale(1 1) rotate(0) translate(4 171)">
<title>ee/elf&#45;loader</title>
<polygon fill="white" stroke="transparent" points="-4,4 -4,-171 378,-171 378,4 -4,4"/>
<g id="clust1" class="cluster">
<title>clusterdir_049738f1909e8dc3e45fe1f6b3faa109</title>
<g id="a_clust1"><a xlink:href="dir_049738f1909e8dc3e45fe1f6b3faa109.html" target="_top" xlink:title="ee">
<polygon fill="#deebf9" stroke="#404040" stroke-dasharray="5,2" points="8,-8 8,-159 240,-159 240,-8 8,-8"/>
<text text-anchor="middle" x="124" y="-147" font-family="Helvetica,sans-Serif" font-size="10.00">ee</text>
</a>
</g>
</g>
<g id="clust2" class="cluster">
<title>clusterdir_e299e00cada893e7503c7ad35bb90f27</title>
<g id="a_clust2"><a xlink:href="dir_e299e00cada893e7503c7ad35bb90f27.html" target="_top">
<polygon fill="#deebf9" stroke="#404040" stroke-width="2" points="16,-80 16,-132 232,-132 232,-80 16,-80"/>
</a>
</g>
</g>
<!-- dir_694ec83a64f58cbdefbefce65cd1011c -->
<g id="node1" class="node">
<title>dir_694ec83a64f58cbdefbefce65cd1011c</title>
<g id="a_node1"><a xlink:href="dir_694ec83a64f58cbdefbefce65cd1011c.html" target="_top" xlink:title="kernel">
<polygon fill="#60a2e3" stroke="red" points="78,-52 24,-52 24,-16 78,-16 78,-52"/>
<text text-anchor="middle" x="51" y="-31.5" font-family="Helvetica,sans-Serif" font-size="10.00">kernel</text>
</a>
</g>
</g>
<!-- dir_e299e00cada893e7503c7ad35bb90f27 -->
<g id="node2" class="node">
<title>dir_e299e00cada893e7503c7ad35bb90f27</title>
<text text-anchor="middle" x="196" y="-103.5" font-family="Helvetica,sans-Serif" font-size="10.00">elf&#45;loader</text>
</g>
<!-- dir_2806c30bcfe757664fc71812642581f7 -->
<g id="node3" class="node">
<title>dir_2806c30bcfe757664fc71812642581f7</title>
<g id="a_node3"><a xlink:href="dir_2806c30bcfe757664fc71812642581f7.html" target="_top" xlink:title="include">
<polygon fill="#60a2e3" stroke="#404040" points="150,-124 96,-124 96,-88 150,-88 150,-124"/>
<text text-anchor="middle" x="123" y="-103.5" font-family="Helvetica,sans-Serif" font-size="10.00">include</text>
</a>
</g>
</g>
<!-- dir_c2745311b335edcded8abb10f5a23735 -->
<g id="node4" class="node">
<title>dir_c2745311b335edcded8abb10f5a23735</title>
<g id="a_node4"><a xlink:href="dir_c2745311b335edcded8abb10f5a23735.html" target="_top" xlink:title="src">
<polygon fill="#60a2e3" stroke="#404040" points="78,-124 24,-124 24,-88 78,-88 78,-124"/>
<text text-anchor="middle" x="51" y="-103.5" font-family="Helvetica,sans-Serif" font-size="10.00">src</text>
</a>
</g>
</g>
<!-- dir_c2745311b335edcded8abb10f5a23735&#45;&gt;dir_694ec83a64f58cbdefbefce65cd1011c -->
<g id="edge2" class="edge">
<title>dir_c2745311b335edcded8abb10f5a23735&#45;&gt;dir_694ec83a64f58cbdefbefce65cd1011c</title>
<path fill="none" stroke="black" d="M51,-87.7C51,-79.98 51,-70.71 51,-62.11"/>
<polygon fill="black" stroke="black" points="54.5,-62.1 51,-52.1 47.5,-62.1 54.5,-62.1"/>
<g id="a_edge2&#45;headlabel"><a xlink:href="dir_000226_000157.html" target="_top" xlink:title="4">
<text text-anchor="middle" x="57.34" y="-63.2" font-family="Helvetica,sans-Serif" font-size="10.00">4</text>
</a>
</g>
</g>
<!-- dir_0981ace215aa2029f526b70c145b9fbe -->
<g id="node5" class="node">
<title>dir_0981ace215aa2029f526b70c145b9fbe</title>
<g id="a_node5"><a xlink:href="dir_0981ace215aa2029f526b70c145b9fbe.html" target="_top" xlink:title="iop">
<polygon fill="none" stroke="red" points="302,-52 248,-52 248,-16 302,-16 302,-52"/>
<text text-anchor="middle" x="275" y="-31.5" font-family="Helvetica,sans-Serif" font-size="10.00">iop</text>
</a>
</g>
</g>
<!-- dir_c2745311b335edcded8abb10f5a23735&#45;&gt;dir_0981ace215aa2029f526b70c145b9fbe -->
<g id="edge1" class="edge">
<title>dir_c2745311b335edcded8abb10f5a23735&#45;&gt;dir_0981ace215aa2029f526b70c145b9fbe</title>
<path fill="none" stroke="black" d="M72.6,-87.81C77.15,-84.82 82.08,-82.03 87,-80 149.44,-54.21 174.76,-73.56 238.19,-53.74"/>
<polygon fill="black" stroke="black" points="239.46,-57 247.84,-50.52 237.25,-50.36 239.46,-57"/>
<g id="a_edge1&#45;headlabel"><a xlink:href="dir_000226_000151.html" target="_top" xlink:title="1">
<text text-anchor="middle" x="236.95" y="-58.34" font-family="Helvetica,sans-Serif" font-size="10.00">1</text>
</a>
</g>
</g>
<!-- dir_bdd9a5d540de89e9fe90efdfc6973a4f -->
<g id="node6" class="node">
<title>dir_bdd9a5d540de89e9fe90efdfc6973a4f</title>
<g id="a_node6"><a xlink:href="dir_bdd9a5d540de89e9fe90efdfc6973a4f.html" target="_top" xlink:title="common">
<polygon fill="none" stroke="red" points="374,-52 320,-52 320,-16 374,-16 374,-52"/>
<text text-anchor="middle" x="347" y="-31.5" font-family="Helvetica,sans-Serif" font-size="10.00">common</text>
</a>
</g>
</g>
<!-- dir_c2745311b335edcded8abb10f5a23735&#45;&gt;dir_bdd9a5d540de89e9fe90efdfc6973a4f -->
<g id="edge3" class="edge">
<title>dir_c2745311b335edcded8abb10f5a23735&#45;&gt;dir_bdd9a5d540de89e9fe90efdfc6973a4f</title>
<path fill="none" stroke="black" d="M72.13,-87.86C76.8,-84.79 81.88,-81.96 87,-80 177.77,-45.25 212.47,-77.82 310.18,-51.64"/>
<polygon fill="black" stroke="black" points="311.16,-55 319.83,-48.92 309.26,-48.26 311.16,-55"/>
<g id="a_edge3&#45;headlabel"><a xlink:href="dir_000226_000022.html" target="_top" xlink:title="2">
<text text-anchor="middle" x="308.47" y="-56.21" font-family="Helvetica,sans-Serif" font-size="10.00">2</text>
</a>
</g>
</g>
</g>
</svg>
