<?xml version="1.0" encoding="UTF-8" standalone="no"?>
<!DOCTYPE svg PUBLIC "-//W3C//DTD SVG 1.1//EN"
 "http://www.w3.org/Graphics/SVG/1.1/DTD/svg11.dtd">
<!-- Generated by graphviz version 3.0.0 (20220413.0242)
 -->
<!-- Title: iop/system/sysclib/src Pages: 1 -->
<svg width="646pt" height="159pt"
 viewBox="0.00 0.00 646.00 159.00" xmlns="http://www.w3.org/2000/svg" xmlns:xlink="http://www.w3.org/1999/xlink">
<g id="graph0" class="graph" transform="scale(1 1) rotate(0) translate(4 155)">
<title>iop/system/sysclib/src</title>
<polygon fill="white" stroke="transparent" points="-4,4 -4,-155 642,-155 642,4 -4,4"/>
<g id="clust1" class="cluster">
<title>clusterdir_1bd32d4ef826aeeda00870843eb45c97</title>
<g id="a_clust1"><a xlink:href="dir_1bd32d4ef826aeeda00870843eb45c97.html" target="_top" xlink:title="sysclib">
<polygon fill="#deebf9" stroke="#7f7f7f" stroke-dasharray="5,2" points="8,-56 8,-143 630,-143 630,-56 8,-56"/>
<text text-anchor="middle" x="319" y="-131" font-family="Helvetica,sans-Serif" font-size="10.00">sysclib</text>
</a>
</g>
</g>
<g id="clust2" class="cluster">
<title>clusterdir_6b3a3a5d267f0fea31b7a7f9b7d2beaf</title>
<g id="a_clust2"><a xlink:href="dir_6b3a3a5d267f0fea31b7a7f9b7d2beaf.html" target="_top">
<polygon fill="#deebf9" stroke="#404040" stroke-width="2" points="16,-64 16,-116 622,-116 622,-64 16,-64"/>
</a>
</g>
</g>
<!-- dir_6b3a3a5d267f0fea31b7a7f9b7d2beaf -->
<g id="node1" class="node">
<title>dir_6b3a3a5d267f0fea31b7a7f9b7d2beaf</title>
<text text-anchor="middle" x="515" y="-87.5" font-family="Helvetica,sans-Serif" font-size="10.00">src</text>
</g>
<!-- dir_9be0baa3d4a3e9f480a9ee70594037fa -->
<g id="node8" class="node">
<title>dir_9be0baa3d4a3e9f480a9ee70594037fa</title>
<g id="a_node8"><a xlink:href="dir_9be0baa3d4a3e9f480a9ee70594037fa.html" target="_top" xlink:title="kernel">
<polygon fill="none" stroke="red" stroke-dasharray="5,2" points="330,-36 276,-36 276,0 330,0 330,-36"/>
<text text-anchor="middle" x="303" y="-15.5" font-family="Helvetica,sans-Serif" font-size="10.00">kernel</text>
</a>
</g>
</g>
<!-- dir_6b3a3a5d267f0fea31b7a7f9b7d2beaf&#45;&gt;dir_9be0baa3d4a3e9f480a9ee70594037fa -->
<g id="edge1" class="edge">
<title>dir_6b3a3a5d267f0fea31b7a7f9b7d2beaf&#45;&gt;dir_9be0baa3d4a3e9f480a9ee70594037fa</title>
<path fill="none" stroke="black" d="M499.94,-71.83C493.97,-65.99 486.69,-59.95 479,-56 434.76,-33.27 377.44,-24.5 340.44,-21.12"/>
<polygon fill="black" stroke="black" points="340.37,-17.6 330.11,-20.27 339.79,-24.58 340.37,-17.6"/>
<g id="a_edge1&#45;headlabel"><a xlink:href="dir_000317_000158.html" target="_top" xlink:title="78">
<text text-anchor="middle" x="344.18" y="-12.57" font-family="Helvetica,sans-Serif" font-size="10.00">78</text>
</a>
</g>
</g>
<!-- dir_76f6712385aad5f71054d252dc76d79e -->
<g id="node2" class="node">
<title>dir_76f6712385aad5f71054d252dc76d79e</title>
<g id="a_node2"><a xlink:href="dir_76f6712385aad5f71054d252dc76d79e.html" target="_top" xlink:title="embeddedartistry_libc">
<polygon fill="#60a2e3" stroke="#404040" points="469.5,-108 358.5,-108 358.5,-72 469.5,-72 469.5,-108"/>
<text text-anchor="middle" x="414" y="-87.5" font-family="Helvetica,sans-Serif" font-size="10.00">embeddedartistry_libc</text>
</a>
</g>
</g>
<!-- dir_76f6712385aad5f71054d252dc76d79e&#45;&gt;dir_9be0baa3d4a3e9f480a9ee70594037fa -->
<g id="edge2" class="edge">
<title>dir_76f6712385aad5f71054d252dc76d79e&#45;&gt;dir_9be0baa3d4a3e9f480a9ee70594037fa</title>
<path fill="none" stroke="black" d="M386.85,-71.88C372.47,-62.81 354.62,-51.55 339.09,-41.76"/>
<polygon fill="black" stroke="black" points="340.58,-38.56 330.26,-36.19 336.85,-44.48 340.58,-38.56"/>
<g id="a_edge2&#45;headlabel"><a xlink:href="dir_000041_000158.html" target="_top" xlink:title="8">
<text text-anchor="middle" x="345.14" y="-35.58" font-family="Helvetica,sans-Serif" font-size="10.00">8</text>
</a>
</g>
</g>
<!-- dir_bd62be9475ca4f332fbf19becd78d95e -->
<g id="node3" class="node">
<title>dir_bd62be9475ca4f332fbf19becd78d95e</title>
<g id="a_node3"><a xlink:href="dir_bd62be9475ca4f332fbf19becd78d95e.html" target="_top" xlink:title="eyalroz_printf">
<polygon fill="#60a2e3" stroke="#404040" points="340,-108 266,-108 266,-72 340,-72 340,-108"/>
<text text-anchor="middle" x="303" y="-87.5" font-family="Helvetica,sans-Serif" font-size="10.00">eyalroz_printf</text>
</a>
</g>
</g>
<!-- dir_bd62be9475ca4f332fbf19becd78d95e&#45;&gt;dir_9be0baa3d4a3e9f480a9ee70594037fa -->
<g id="edge3" class="edge">
<title>dir_bd62be9475ca4f332fbf19becd78d95e&#45;&gt;dir_9be0baa3d4a3e9f480a9ee70594037fa</title>
<path fill="none" stroke="black" d="M303,-71.7C303,-63.98 303,-54.71 303,-46.11"/>
<polygon fill="black" stroke="black" points="306.5,-46.1 303,-36.1 299.5,-46.1 306.5,-46.1"/>
<g id="a_edge3&#45;headlabel"><a xlink:href="dir_000045_000158.html" target="_top" xlink:title="3">
<text text-anchor="middle" x="309.34" y="-47.2" font-family="Helvetica,sans-Serif" font-size="10.00">3</text>
</a>
</g>
</g>
<!-- dir_950112c2cce41ca0fe6d06ee08cf690a -->
<g id="node4" class="node">
<title>dir_950112c2cce41ca0fe6d06ee08cf690a</title>
<g id="a_node4"><a xlink:href="dir_950112c2cce41ca0fe6d06ee08cf690a.html" target="_top" xlink:title="musl">
<polygon fill="#60a2e3" stroke="#404040" points="248,-108 194,-108 194,-72 248,-72 248,-108"/>
<text text-anchor="middle" x="221" y="-87.5" font-family="Helvetica,sans-Serif" font-size="10.00">musl</text>
</a>
</g>
</g>
<!-- dir_950112c2cce41ca0fe6d06ee08cf690a&#45;&gt;dir_9be0baa3d4a3e9f480a9ee70594037fa -->
<g id="edge4" class="edge">
<title>dir_950112c2cce41ca0fe6d06ee08cf690a&#45;&gt;dir_9be0baa3d4a3e9f480a9ee70594037fa</title>
<path fill="none" stroke="black" d="M239.11,-71.98C244.77,-66.77 251.08,-61.08 257,-56 262.22,-51.51 267.87,-46.83 273.37,-42.37"/>
<polygon fill="black" stroke="black" points="275.64,-45.03 281.23,-36.03 271.25,-39.58 275.64,-45.03"/>
<g id="a_edge4&#45;headlabel"><a xlink:href="dir_000183_000158.html" target="_top" xlink:title="44">
<text text-anchor="middle" x="274.62" y="-47" font-family="Helvetica,sans-Serif" font-size="10.00">44</text>
</a>
</g>
</g>
<!-- dir_5e6d19e02aff7b7ecdcee2b32d4e4d69 -->
<g id="node5" class="node">
<title>dir_5e6d19e02aff7b7ecdcee2b32d4e4d69</title>
<g id="a_node5"><a xlink:href="dir_5e6d19e02aff7b7ecdcee2b32d4e4d69.html" target="_top" xlink:title="newlib">
<polygon fill="#60a2e3" stroke="#404040" points="614,-108 560,-108 560,-72 614,-72 614,-108"/>
<text text-anchor="middle" x="587" y="-87.5" font-family="Helvetica,sans-Serif" font-size="10.00">newlib</text>
</a>
</g>
</g>
<!-- dir_5e6d19e02aff7b7ecdcee2b32d4e4d69&#45;&gt;dir_9be0baa3d4a3e9f480a9ee70594037fa -->
<g id="edge5" class="edge">
<title>dir_5e6d19e02aff7b7ecdcee2b32d4e4d69&#45;&gt;dir_9be0baa3d4a3e9f480a9ee70594037fa</title>
<path fill="none" stroke="black" d="M572.41,-71.93C566.39,-65.95 558.96,-59.8 551,-56 514.49,-38.59 400.29,-26.96 340.44,-21.89"/>
<polygon fill="black" stroke="black" points="340.53,-18.39 330.28,-21.05 339.96,-25.36 340.53,-18.39"/>
<g id="a_edge5&#45;headlabel"><a xlink:href="dir_000191_000158.html" target="_top" xlink:title="2">
<text text-anchor="middle" x="344.35" y="-13.35" font-family="Helvetica,sans-Serif" font-size="10.00">2</text>
</a>
</g>
</g>
<!-- dir_bdd9a5d540de89e9fe90efdfc6973a4f -->
<g id="node9" class="node">
<title>dir_bdd9a5d540de89e9fe90efdfc6973a4f</title>
<g id="a_node9"><a xlink:href="dir_bdd9a5d540de89e9fe90efdfc6973a4f.html" target="_top" xlink:title="common">
<polygon fill="none" stroke="red" points="614,-36 560,-36 560,0 614,0 614,-36"/>
<text text-anchor="middle" x="587" y="-15.5" font-family="Helvetica,sans-Serif" font-size="10.00">common</text>
</a>
</g>
</g>
<!-- dir_5e6d19e02aff7b7ecdcee2b32d4e4d69&#45;&gt;dir_bdd9a5d540de89e9fe90efdfc6973a4f -->
<g id="edge6" class="edge">
<title>dir_5e6d19e02aff7b7ecdcee2b32d4e4d69&#45;&gt;dir_bdd9a5d540de89e9fe90efdfc6973a4f</title>
<path fill="none" stroke="black" d="M587,-71.7C587,-63.98 587,-54.71 587,-46.11"/>
<polygon fill="black" stroke="black" points="590.5,-46.1 587,-36.1 583.5,-46.1 590.5,-46.1"/>
<g id="a_edge6&#45;headlabel"><a xlink:href="dir_000191_000022.html" target="_top" xlink:title="1">
<text text-anchor="middle" x="593.34" y="-47.2" font-family="Helvetica,sans-Serif" font-size="10.00">1</text>
</a>
</g>
</g>
<!-- dir_e27c3ee1507bfb964a7b3cbac14762a5 -->
<g id="node6" class="node">
<title>dir_e27c3ee1507bfb964a7b3cbac14762a5</title>
<g id="a_node6"><a xlink:href="dir_e27c3ee1507bfb964a7b3cbac14762a5.html" target="_top" xlink:title="nonstd">
<polygon fill="#60a2e3" stroke="#404040" points="78,-108 24,-108 24,-72 78,-72 78,-108"/>
<text text-anchor="middle" x="51" y="-87.5" font-family="Helvetica,sans-Serif" font-size="10.00">nonstd</text>
</a>
</g>
</g>
<!-- dir_e27c3ee1507bfb964a7b3cbac14762a5&#45;&gt;dir_9be0baa3d4a3e9f480a9ee70594037fa -->
<g id="edge7" class="edge">
<title>dir_e27c3ee1507bfb964a7b3cbac14762a5&#45;&gt;dir_9be0baa3d4a3e9f480a9ee70594037fa</title>
<path fill="none" stroke="black" d="M65.98,-71.67C71.94,-65.82 79.23,-59.81 87,-56 145.03,-27.55 221.16,-20.57 265.82,-19.09"/>
<polygon fill="black" stroke="black" points="266.02,-22.58 275.92,-18.83 265.84,-15.58 266.02,-22.58"/>
<g id="a_edge7&#45;headlabel"><a xlink:href="dir_000192_000158.html" target="_top" xlink:title="4">
<text text-anchor="middle" x="262.5" y="-23.01" font-family="Helvetica,sans-Serif" font-size="10.00">4</text>
</a>
</g>
</g>
<!-- dir_0beacc05ac1d7f4fed3f447a40616c4b -->
<g id="node7" class="node">
<title>dir_0beacc05ac1d7f4fed3f447a40616c4b</title>
<g id="a_node7"><a xlink:href="dir_0beacc05ac1d7f4fed3f447a40616c4b.html" target="_top" xlink:title="size_optimized">
<polygon fill="#60a2e3" stroke="#404040" points="176,-108 96,-108 96,-72 176,-72 176,-108"/>
<text text-anchor="middle" x="136" y="-87.5" font-family="Helvetica,sans-Serif" font-size="10.00">size_optimized</text>
</a>
</g>
</g>
<!-- dir_0beacc05ac1d7f4fed3f447a40616c4b&#45;&gt;dir_9be0baa3d4a3e9f480a9ee70594037fa -->
<g id="edge8" class="edge">
<title>dir_0beacc05ac1d7f4fed3f447a40616c4b&#45;&gt;dir_9be0baa3d4a3e9f480a9ee70594037fa</title>
<path fill="none" stroke="black" d="M158.6,-71.78C166.64,-66.21 175.94,-60.36 185,-56 211.07,-43.46 242.39,-33.87 266.21,-27.6"/>
<polygon fill="black" stroke="black" points="267.1,-30.98 275.92,-25.12 265.36,-24.2 267.1,-30.98"/>
<g id="a_edge8&#45;headlabel"><a xlink:href="dir_000217_000158.html" target="_top" xlink:title="15">
<text text-anchor="middle" x="264.32" y="-32.13" font-family="Helvetica,sans-Serif" font-size="10.00">15</text>
</a>
</g>
</g>
</g>
</svg>
