<?xml version="1.0" encoding="UTF-8" standalone="no"?>
<!DOCTYPE svg PUBLIC "-//W3C//DTD SVG 1.1//EN"
 "http://www.w3.org/Graphics/SVG/1.1/DTD/svg11.dtd">
<!-- Generated by graphviz version 3.0.0 (20220413.0242)
 -->
<!-- Title: iop/fs/bdmfs_vfat Pages: 1 -->
<svg width="320pt" height="175pt"
 viewBox="0.00 0.00 320.00 175.00" xmlns="http://www.w3.org/2000/svg" xmlns:xlink="http://www.w3.org/1999/xlink">
<g id="graph0" class="graph" transform="scale(1 1) rotate(0) translate(4 171)">
<title>iop/fs/bdmfs_vfat</title>
<polygon fill="white" stroke="transparent" points="-4,4 -4,-171 316,-171 316,4 -4,4"/>
<g id="clust1" class="cluster">
<title>clusterdir_f24daea2522ffa8b6dc5fa9cdf5b8f5c</title>
<g id="a_clust1"><a xlink:href="dir_f24daea2522ffa8b6dc5fa9cdf5b8f5c.html" target="_top" xlink:title="fs">
<polygon fill="#deebf9" stroke="#7f7f7f" stroke-dasharray="5,2" points="8,-8 8,-159 178,-159 178,-8 8,-8"/>
<text text-anchor="middle" x="93" y="-147" font-family="Helvetica,sans-Serif" font-size="10.00">fs</text>
</a>
</g>
</g>
<g id="clust2" class="cluster">
<title>clusterdir_eabe988c95970cb88382a9440b1d86c2</title>
<g id="a_clust2"><a xlink:href="dir_eabe988c95970cb88382a9440b1d86c2.html" target="_top">
<polygon fill="#deebf9" stroke="#404040" stroke-width="2" points="16,-80 16,-132 170,-132 170,-80 16,-80"/>
</a>
</g>
</g>
<!-- dir_0134b0376fbe77322088b496fb368f9b -->
<g id="node1" class="node">
<title>dir_0134b0376fbe77322088b496fb368f9b</title>
<g id="a_node1"><a xlink:href="dir_0134b0376fbe77322088b496fb368f9b.html" target="_top" xlink:title="bdm">
<polygon fill="#60a2e3" stroke="red" points="78,-52 24,-52 24,-16 78,-16 78,-52"/>
<text text-anchor="middle" x="51" y="-31.5" font-family="Helvetica,sans-Serif" font-size="10.00">bdm</text>
</a>
</g>
</g>
<!-- dir_eabe988c95970cb88382a9440b1d86c2 -->
<g id="node2" class="node">
<title>dir_eabe988c95970cb88382a9440b1d86c2</title>
<text text-anchor="middle" x="129" y="-103.5" font-family="Helvetica,sans-Serif" font-size="10.00">bdmfs_vfat</text>
</g>
<!-- dir_a17103320e7b55573b6692b5b08c9050 -->
<g id="node3" class="node">
<title>dir_a17103320e7b55573b6692b5b08c9050</title>
<g id="a_node3"><a xlink:href="dir_a17103320e7b55573b6692b5b08c9050.html" target="_top" xlink:title="src">
<polygon fill="#60a2e3" stroke="#404040" points="78,-124 24,-124 24,-88 78,-88 78,-124"/>
<text text-anchor="middle" x="51" y="-103.5" font-family="Helvetica,sans-Serif" font-size="10.00">src</text>
</a>
</g>
</g>
<!-- dir_a17103320e7b55573b6692b5b08c9050&#45;&gt;dir_0134b0376fbe77322088b496fb368f9b -->
<g id="edge1" class="edge">
<title>dir_a17103320e7b55573b6692b5b08c9050&#45;&gt;dir_0134b0376fbe77322088b496fb368f9b</title>
<path fill="none" stroke="black" d="M51,-87.7C51,-79.98 51,-70.71 51,-62.11"/>
<polygon fill="black" stroke="black" points="54.5,-62.1 51,-52.1 47.5,-62.1 54.5,-62.1"/>
<g id="a_edge1&#45;headlabel"><a xlink:href="dir_000283_000011.html" target="_top" xlink:title="4">
<text text-anchor="middle" x="57.34" y="-63.2" font-family="Helvetica,sans-Serif" font-size="10.00">4</text>
</a>
</g>
</g>
<!-- dir_bdd9a5d540de89e9fe90efdfc6973a4f -->
<g id="node4" class="node">
<title>dir_bdd9a5d540de89e9fe90efdfc6973a4f</title>
<g id="a_node4"><a xlink:href="dir_bdd9a5d540de89e9fe90efdfc6973a4f.html" target="_top" xlink:title="common">
<polygon fill="none" stroke="red" points="240,-52 186,-52 186,-16 240,-16 240,-52"/>
<text text-anchor="middle" x="213" y="-31.5" font-family="Helvetica,sans-Serif" font-size="10.00">common</text>
</a>
</g>
</g>
<!-- dir_a17103320e7b55573b6692b5b08c9050&#45;&gt;dir_bdd9a5d540de89e9fe90efdfc6973a4f -->
<g id="edge3" class="edge">
<title>dir_a17103320e7b55573b6692b5b08c9050&#45;&gt;dir_bdd9a5d540de89e9fe90efdfc6973a4f</title>
<path fill="none" stroke="black" d="M74.25,-87.74C78.68,-84.91 83.37,-82.19 88,-80 124.48,-62.74 139.5,-67.84 176.44,-54.04"/>
<polygon fill="black" stroke="black" points="177.77,-57.28 185.77,-50.34 175.19,-50.78 177.77,-57.28"/>
<g id="a_edge3&#45;headlabel"><a xlink:href="dir_000283_000022.html" target="_top" xlink:title="5">
<text text-anchor="middle" x="175.47" y="-58.75" font-family="Helvetica,sans-Serif" font-size="10.00">5</text>
</a>
</g>
</g>
<!-- dir_9be0baa3d4a3e9f480a9ee70594037fa -->
<g id="node5" class="node">
<title>dir_9be0baa3d4a3e9f480a9ee70594037fa</title>
<g id="a_node5"><a xlink:href="dir_9be0baa3d4a3e9f480a9ee70594037fa.html" target="_top" xlink:title="kernel">
<polygon fill="none" stroke="red" stroke-dasharray="5,2" points="312,-52 258,-52 258,-16 312,-16 312,-52"/>
<text text-anchor="middle" x="285" y="-31.5" font-family="Helvetica,sans-Serif" font-size="10.00">kernel</text>
</a>
</g>
</g>
<!-- dir_a17103320e7b55573b6692b5b08c9050&#45;&gt;dir_9be0baa3d4a3e9f480a9ee70594037fa -->
<g id="edge2" class="edge">
<title>dir_a17103320e7b55573b6692b5b08c9050&#45;&gt;dir_9be0baa3d4a3e9f480a9ee70594037fa</title>
<path fill="none" stroke="black" d="M73.24,-87.8C77.92,-84.82 82.97,-82.03 88,-80 152.47,-54.01 177.58,-72.2 248.02,-51.77"/>
<polygon fill="black" stroke="black" points="249.25,-55.05 257.79,-48.78 247.2,-48.36 249.25,-55.05"/>
<g id="a_edge2&#45;headlabel"><a xlink:href="dir_000283_000158.html" target="_top" xlink:title="29">
<text text-anchor="middle" x="246.65" y="-56.32" font-family="Helvetica,sans-Serif" font-size="10.00">29</text>
</a>
</g>
</g>
</g>
</svg>
