<?xml version="1.0" encoding="UTF-8" standalone="no"?>
<!DOCTYPE svg PUBLIC "-//W3C//DTD SVG 1.1//EN"
 "http://www.w3.org/Graphics/SVG/1.1/DTD/svg11.dtd">
<!-- Generated by graphviz version 3.0.0 (20220413.0242)
 -->
<!-- Title: iop/memorycard/mcserv Pages: 1 -->
<svg width="236pt" height="175pt"
 viewBox="0.00 0.00 236.00 175.00" xmlns="http://www.w3.org/2000/svg" xmlns:xlink="http://www.w3.org/1999/xlink">
<g id="graph0" class="graph" transform="scale(1 1) rotate(0) translate(4 171)">
<title>iop/memorycard/mcserv</title>
<polygon fill="white" stroke="transparent" points="-4,4 -4,-171 232,-171 232,4 -4,4"/>
<g id="clust1" class="cluster">
<title>clusterdir_5805bfcfbe100e4767f47461b3e6402b</title>
<g id="a_clust1"><a xlink:href="dir_5805bfcfbe100e4767f47461b3e6402b.html" target="_top" xlink:title="memorycard">
<polygon fill="#deebf9" stroke="#7f7f7f" stroke-dasharray="5,2" points="8,-8 8,-159 166,-159 166,-8 8,-8"/>
<text text-anchor="middle" x="87" y="-147" font-family="Helvetica,sans-Serif" font-size="10.00">memorycard</text>
</a>
</g>
</g>
<g id="clust2" class="cluster">
<title>clusterdir_841d05e6e469c6e67dc741c932691089</title>
<g id="a_clust2"><a xlink:href="dir_841d05e6e469c6e67dc741c932691089.html" target="_top">
<polygon fill="#deebf9" stroke="#404040" stroke-width="2" points="16,-80 16,-132 158,-132 158,-80 16,-80"/>
</a>
</g>
</g>
<!-- dir_ae48e1b29bfa2db4ecbd893188b24955 -->
<g id="node1" class="node">
<title>dir_ae48e1b29bfa2db4ecbd893188b24955</title>
<g id="a_node1"><a xlink:href="dir_ae48e1b29bfa2db4ecbd893188b24955.html" target="_top" xlink:title="mcman">
<polygon fill="#60a2e3" stroke="red" points="78,-52 24,-52 24,-16 78,-16 78,-52"/>
<text text-anchor="middle" x="51" y="-31.5" font-family="Helvetica,sans-Serif" font-size="10.00">mcman</text>
</a>
</g>
</g>
<!-- dir_841d05e6e469c6e67dc741c932691089 -->
<g id="node2" class="node">
<title>dir_841d05e6e469c6e67dc741c932691089</title>
<text text-anchor="middle" x="123" y="-103.5" font-family="Helvetica,sans-Serif" font-size="10.00">mcserv</text>
</g>
<!-- dir_a05adc316625002d920f1719f73759f9 -->
<g id="node3" class="node">
<title>dir_a05adc316625002d920f1719f73759f9</title>
<g id="a_node3"><a xlink:href="dir_a05adc316625002d920f1719f73759f9.html" target="_top" xlink:title="src">
<polygon fill="#60a2e3" stroke="#404040" points="78,-124 24,-124 24,-88 78,-88 78,-124"/>
<text text-anchor="middle" x="51" y="-103.5" font-family="Helvetica,sans-Serif" font-size="10.00">src</text>
</a>
</g>
</g>
<!-- dir_a05adc316625002d920f1719f73759f9&#45;&gt;dir_ae48e1b29bfa2db4ecbd893188b24955 -->
<g id="edge2" class="edge">
<title>dir_a05adc316625002d920f1719f73759f9&#45;&gt;dir_ae48e1b29bfa2db4ecbd893188b24955</title>
<path fill="none" stroke="black" d="M51,-87.7C51,-79.98 51,-70.71 51,-62.11"/>
<polygon fill="black" stroke="black" points="54.5,-62.1 51,-52.1 47.5,-62.1 54.5,-62.1"/>
<g id="a_edge2&#45;headlabel"><a xlink:href="dir_000298_000173.html" target="_top" xlink:title="1">
<text text-anchor="middle" x="57.34" y="-63.2" font-family="Helvetica,sans-Serif" font-size="10.00">1</text>
</a>
</g>
</g>
<!-- dir_9be0baa3d4a3e9f480a9ee70594037fa -->
<g id="node4" class="node">
<title>dir_9be0baa3d4a3e9f480a9ee70594037fa</title>
<g id="a_node4"><a xlink:href="dir_9be0baa3d4a3e9f480a9ee70594037fa.html" target="_top" xlink:title="kernel">
<polygon fill="none" stroke="red" stroke-dasharray="5,2" points="228,-52 174,-52 174,-16 228,-16 228,-52"/>
<text text-anchor="middle" x="201" y="-31.5" font-family="Helvetica,sans-Serif" font-size="10.00">kernel</text>
</a>
</g>
</g>
<!-- dir_a05adc316625002d920f1719f73759f9&#45;&gt;dir_9be0baa3d4a3e9f480a9ee70594037fa -->
<g id="edge1" class="edge">
<title>dir_a05adc316625002d920f1719f73759f9&#45;&gt;dir_9be0baa3d4a3e9f480a9ee70594037fa</title>
<path fill="none" stroke="black" d="M73.64,-87.86C77.95,-85.01 82.51,-82.26 87,-80 118.79,-64.01 132.02,-66.93 164.15,-54.29"/>
<polygon fill="black" stroke="black" points="165.87,-57.37 173.75,-50.28 163.17,-50.91 165.87,-57.37"/>
<g id="a_edge1&#45;headlabel"><a xlink:href="dir_000298_000158.html" target="_top" xlink:title="14">
<text text-anchor="middle" x="163.64" y="-58.87" font-family="Helvetica,sans-Serif" font-size="10.00">14</text>
</a>
</g>
</g>
</g>
</svg>
