<?xml version="1.0" encoding="UTF-8" standalone="no"?>
<!DOCTYPE svg PUBLIC "-//W3C//DTD SVG 1.1//EN"
 "http://www.w3.org/Graphics/SVG/1.1/DTD/svg11.dtd">
<!-- Generated by graphviz version 3.0.0 (20220413.0242)
 -->
<!-- Title: iop/sound/ahx Pages: 1 -->
<svg width="300pt" height="183pt"
 viewBox="0.00 0.00 300.00 183.00" xmlns="http://www.w3.org/2000/svg" xmlns:xlink="http://www.w3.org/1999/xlink">
<g id="graph0" class="graph" transform="scale(1 1) rotate(0) translate(4 179)">
<title>iop/sound/ahx</title>
<polygon fill="white" stroke="transparent" points="-4,4 -4,-179 296,-179 296,4 -4,4"/>
<g id="clust1" class="cluster">
<title>clusterdir_838e88315325ec0d843359dcae22d639</title>
<g id="a_clust1"><a xlink:href="dir_838e88315325ec0d843359dcae22d639.html" target="_top" xlink:title="sound">
<polygon fill="#deebf9" stroke="#7f7f7f" stroke-dasharray="5,2" points="8,-8 8,-167 228,-167 228,-8 8,-8"/>
<text text-anchor="middle" x="118" y="-155" font-family="Helvetica,sans-Serif" font-size="10.00">sound</text>
</a>
</g>
</g>
<g id="clust2" class="cluster">
<title>clusterdir_9337eeae2b875a84dbe6e00bf944922d</title>
<g id="a_clust2"><a xlink:href="dir_9337eeae2b875a84dbe6e00bf944922d.html" target="_top">
<polygon fill="#deebf9" stroke="#404040" stroke-width="2" points="16,-16 16,-140 158,-140 158,-16 16,-16"/>
</a>
</g>
</g>
<!-- dir_b3b65c61938638f28675fc77a7fe35e3 -->
<g id="node1" class="node">
<title>dir_b3b65c61938638f28675fc77a7fe35e3</title>
<g id="a_node1"><a xlink:href="dir_b3b65c61938638f28675fc77a7fe35e3.html" target="_top" xlink:title="libsd">
<polygon fill="#60a2e3" stroke="red" points="220,-60 166,-60 166,-24 220,-24 220,-60"/>
<text text-anchor="middle" x="193" y="-39.5" font-family="Helvetica,sans-Serif" font-size="10.00">libsd</text>
</a>
</g>
</g>
<!-- dir_9337eeae2b875a84dbe6e00bf944922d -->
<g id="node2" class="node">
<title>dir_9337eeae2b875a84dbe6e00bf944922d</title>
<text text-anchor="middle" x="123" y="-111.5" font-family="Helvetica,sans-Serif" font-size="10.00">ahx</text>
</g>
<!-- dir_8806379264ffea16411011c87cd5d5d1 -->
<g id="node3" class="node">
<title>dir_8806379264ffea16411011c87cd5d5d1</title>
<g id="a_node3"><a xlink:href="dir_8806379264ffea16411011c87cd5d5d1.html" target="_top" xlink:title="include">
<polygon fill="#60a2e3" stroke="#404040" points="78,-60 24,-60 24,-24 78,-24 78,-60"/>
<text text-anchor="middle" x="51" y="-39.5" font-family="Helvetica,sans-Serif" font-size="10.00">include</text>
</a>
</g>
</g>
<!-- dir_fe4d942b553a0f3632b13732d211a99b -->
<g id="node4" class="node">
<title>dir_fe4d942b553a0f3632b13732d211a99b</title>
<g id="a_node4"><a xlink:href="dir_fe4d942b553a0f3632b13732d211a99b.html" target="_top" xlink:title="src">
<polygon fill="#60a2e3" stroke="#404040" points="78,-132 24,-132 24,-96 78,-96 78,-132"/>
<text text-anchor="middle" x="51" y="-111.5" font-family="Helvetica,sans-Serif" font-size="10.00">src</text>
</a>
</g>
</g>
<!-- dir_fe4d942b553a0f3632b13732d211a99b&#45;&gt;dir_b3b65c61938638f28675fc77a7fe35e3 -->
<g id="edge3" class="edge">
<title>dir_fe4d942b553a0f3632b13732d211a99b&#45;&gt;dir_b3b65c61938638f28675fc77a7fe35e3</title>
<path fill="none" stroke="black" d="M78.23,-100.1C103.13,-88.28 138.45,-71.49 156.82,-62.49"/>
<polygon fill="black" stroke="black" points="158.61,-65.52 166,-57.92 155.48,-59.25 158.61,-65.52"/>
<g id="a_edge3&#45;headlabel"><a xlink:href="dir_000304_000167.html" target="_top" xlink:title="1">
<text text-anchor="middle" x="156.65" y="-67.16" font-family="Helvetica,sans-Serif" font-size="10.00">1</text>
</a>
</g>
</g>
<!-- dir_fe4d942b553a0f3632b13732d211a99b&#45;&gt;dir_8806379264ffea16411011c87cd5d5d1 -->
<g id="edge1" class="edge">
<title>dir_fe4d942b553a0f3632b13732d211a99b&#45;&gt;dir_8806379264ffea16411011c87cd5d5d1</title>
<path fill="none" stroke="black" d="M51,-95.7C51,-87.98 51,-78.71 51,-70.11"/>
<polygon fill="black" stroke="black" points="54.5,-70.1 51,-60.1 47.5,-70.1 54.5,-70.1"/>
<g id="a_edge1&#45;headlabel"><a xlink:href="dir_000304_000127.html" target="_top" xlink:title="2">
<text text-anchor="middle" x="57.34" y="-71.2" font-family="Helvetica,sans-Serif" font-size="10.00">2</text>
</a>
</g>
</g>
<!-- dir_9be0baa3d4a3e9f480a9ee70594037fa -->
<g id="node5" class="node">
<title>dir_9be0baa3d4a3e9f480a9ee70594037fa</title>
<g id="a_node5"><a xlink:href="dir_9be0baa3d4a3e9f480a9ee70594037fa.html" target="_top" xlink:title="kernel">
<polygon fill="none" stroke="red" stroke-dasharray="5,2" points="292,-60 238,-60 238,-24 292,-24 292,-60"/>
<text text-anchor="middle" x="265" y="-39.5" font-family="Helvetica,sans-Serif" font-size="10.00">kernel</text>
</a>
</g>
</g>
<!-- dir_fe4d942b553a0f3632b13732d211a99b&#45;&gt;dir_9be0baa3d4a3e9f480a9ee70594037fa -->
<g id="edge2" class="edge">
<title>dir_fe4d942b553a0f3632b13732d211a99b&#45;&gt;dir_9be0baa3d4a3e9f480a9ee70594037fa</title>
<path fill="none" stroke="black" d="M78.28,-99.43C81.19,-98.19 84.14,-97.02 87,-96 146.5,-74.8 167.76,-82.5 228.22,-61.13"/>
<polygon fill="black" stroke="black" points="229.67,-64.33 237.85,-57.6 227.26,-57.76 229.67,-64.33"/>
<g id="a_edge2&#45;headlabel"><a xlink:href="dir_000304_000158.html" target="_top" xlink:title="14">
<text text-anchor="middle" x="227.27" y="-65.73" font-family="Helvetica,sans-Serif" font-size="10.00">14</text>
</a>
</g>
</g>
</g>
</svg>
