<?xml version="1.0" encoding="UTF-8" standalone="no"?>
<!DOCTYPE svg PUBLIC "-//W3C//DTD SVG 1.1//EN"
 "http://www.w3.org/Graphics/SVG/1.1/DTD/svg11.dtd">
<!-- Generated by graphviz version 3.0.0 (20220413.0242)
 -->
<!-- Title: iop/dev9/poweroff/src Pages: 1 -->
<svg width="222pt" height="167pt"
 viewBox="0.00 0.00 222.00 167.00" xmlns="http://www.w3.org/2000/svg" xmlns:xlink="http://www.w3.org/1999/xlink">
<g id="graph0" class="graph" transform="scale(1 1) rotate(0) translate(4 163)">
<title>iop/dev9/poweroff/src</title>
<polygon fill="white" stroke="transparent" points="-4,4 -4,-163 218,-163 218,4 -4,4"/>
<g id="clust1" class="cluster">
<title>clusterdir_6c63d3a31e7cac2d832eb76295920122</title>
<g id="a_clust1"><a xlink:href="dir_6c63d3a31e7cac2d832eb76295920122.html" target="_top" xlink:title="poweroff">
<polygon fill="#deebf9" stroke="#7f7f7f" stroke-dasharray="5,2" points="8,-8 8,-151 78,-151 78,-8 8,-8"/>
<text text-anchor="middle" x="43" y="-139" font-family="Helvetica,sans-Serif" font-size="10.00">poweroff</text>
</a>
</g>
</g>
<!-- dir_48c6b85e120a8bbf6e2a405ed1701c1a -->
<g id="node1" class="node">
<title>dir_48c6b85e120a8bbf6e2a405ed1701c1a</title>
<g id="a_node1"><a xlink:href="dir_48c6b85e120a8bbf6e2a405ed1701c1a.html" target="_top" xlink:title="include">
<polygon fill="#60a2e3" stroke="#404040" points="70,-52 16,-52 16,-16 70,-16 70,-52"/>
<text text-anchor="middle" x="43" y="-31.5" font-family="Helvetica,sans-Serif" font-size="10.00">include</text>
</a>
</g>
</g>
<!-- dir_078466d19e2c07d35cefa1d92cc85a8d -->
<g id="node2" class="node">
<title>dir_078466d19e2c07d35cefa1d92cc85a8d</title>
<g id="a_node2"><a xlink:href="dir_078466d19e2c07d35cefa1d92cc85a8d.html" target="_top" xlink:title="src">
<polygon fill="#deebf9" stroke="#404040" stroke-width="2" points="70,-124 16,-124 16,-88 70,-88 70,-124"/>
<text text-anchor="middle" x="43" y="-103.5" font-family="Helvetica,sans-Serif" font-size="10.00">src</text>
</a>
</g>
</g>
<!-- dir_078466d19e2c07d35cefa1d92cc85a8d&#45;&gt;dir_48c6b85e120a8bbf6e2a405ed1701c1a -->
<g id="edge1" class="edge">
<title>dir_078466d19e2c07d35cefa1d92cc85a8d&#45;&gt;dir_48c6b85e120a8bbf6e2a405ed1701c1a</title>
<path fill="none" stroke="black" d="M43,-87.7C43,-79.98 43,-70.71 43,-62.11"/>
<polygon fill="black" stroke="black" points="46.5,-62.1 43,-52.1 39.5,-62.1 46.5,-62.1"/>
<g id="a_edge1&#45;headlabel"><a xlink:href="dir_000273_000108.html" target="_top" xlink:title="1">
<text text-anchor="middle" x="49.34" y="-63.2" font-family="Helvetica,sans-Serif" font-size="10.00">1</text>
</a>
</g>
</g>
<!-- dir_9be0baa3d4a3e9f480a9ee70594037fa -->
<g id="node3" class="node">
<title>dir_9be0baa3d4a3e9f480a9ee70594037fa</title>
<g id="a_node3"><a xlink:href="dir_9be0baa3d4a3e9f480a9ee70594037fa.html" target="_top" xlink:title="kernel">
<polygon fill="none" stroke="red" stroke-dasharray="5,2" points="142,-52 88,-52 88,-16 142,-16 142,-52"/>
<text text-anchor="middle" x="115" y="-31.5" font-family="Helvetica,sans-Serif" font-size="10.00">kernel</text>
</a>
</g>
</g>
<!-- dir_078466d19e2c07d35cefa1d92cc85a8d&#45;&gt;dir_9be0baa3d4a3e9f480a9ee70594037fa -->
<g id="edge2" class="edge">
<title>dir_078466d19e2c07d35cefa1d92cc85a8d&#45;&gt;dir_9be0baa3d4a3e9f480a9ee70594037fa</title>
<path fill="none" stroke="black" d="M60.8,-87.7C69.6,-79.14 80.38,-68.66 90,-59.3"/>
<polygon fill="black" stroke="black" points="92.68,-61.58 97.41,-52.1 87.8,-56.57 92.68,-61.58"/>
<g id="a_edge2&#45;headlabel"><a xlink:href="dir_000273_000158.html" target="_top" xlink:title="14">
<text text-anchor="middle" x="92.08" y="-63.63" font-family="Helvetica,sans-Serif" font-size="10.00">14</text>
</a>
</g>
</g>
<!-- dir_bdd9a5d540de89e9fe90efdfc6973a4f -->
<g id="node4" class="node">
<title>dir_bdd9a5d540de89e9fe90efdfc6973a4f</title>
<g id="a_node4"><a xlink:href="dir_bdd9a5d540de89e9fe90efdfc6973a4f.html" target="_top" xlink:title="common">
<polygon fill="none" stroke="red" points="214,-52 160,-52 160,-16 214,-16 214,-52"/>
<text text-anchor="middle" x="187" y="-31.5" font-family="Helvetica,sans-Serif" font-size="10.00">common</text>
</a>
</g>
</g>
<!-- dir_078466d19e2c07d35cefa1d92cc85a8d&#45;&gt;dir_bdd9a5d540de89e9fe90efdfc6973a4f -->
<g id="edge3" class="edge">
<title>dir_078466d19e2c07d35cefa1d92cc85a8d&#45;&gt;dir_bdd9a5d540de89e9fe90efdfc6973a4f</title>
<path fill="none" stroke="black" d="M70.09,-91.83C92.77,-80.81 125.36,-64.97 150.37,-52.81"/>
<polygon fill="black" stroke="black" points="152.08,-55.87 159.55,-48.35 149.02,-49.57 152.08,-55.87"/>
<g id="a_edge3&#45;headlabel"><a xlink:href="dir_000273_000022.html" target="_top" xlink:title="1">
<text text-anchor="middle" x="150.09" y="-57.49" font-family="Helvetica,sans-Serif" font-size="10.00">1</text>
</a>
</g>
</g>
</g>
</svg>
