<?xml version="1.0" encoding="UTF-8" standalone="no"?>
<!DOCTYPE svg PUBLIC "-//W3C//DTD SVG 1.1//EN"
 "http://www.w3.org/Graphics/SVG/1.1/DTD/svg11.dtd">
<!-- Generated by graphviz version 3.0.0 (20220413.0242)
 -->
<!-- Title: common/include Pages: 1 -->
<svg width="326pt" height="159pt"
 viewBox="0.00 0.00 326.00 159.00" xmlns="http://www.w3.org/2000/svg" xmlns:xlink="http://www.w3.org/1999/xlink">
<g id="graph0" class="graph" transform="scale(1 1) rotate(0) translate(4 155)">
<title>common/include</title>
<polygon fill="white" stroke="transparent" points="-4,4 -4,-155 322,-155 322,4 -4,4"/>
<g id="clust1" class="cluster">
<title>clusterdir_bdd9a5d540de89e9fe90efdfc6973a4f</title>
<g id="a_clust1"><a xlink:href="dir_bdd9a5d540de89e9fe90efdfc6973a4f.html" target="_top" xlink:title="common">
<polygon fill="#deebf9" stroke="#404040" stroke-dasharray="5,2" points="8,-56 8,-143 310,-143 310,-56 8,-56"/>
<text text-anchor="middle" x="159" y="-131" font-family="Helvetica,sans-Serif" font-size="10.00">common</text>
</a>
</g>
</g>
<g id="clust2" class="cluster">
<title>clusterdir_11fbc4217d50ab21044e5ad6614aede5</title>
<g id="a_clust2"><a xlink:href="dir_11fbc4217d50ab21044e5ad6614aede5.html" target="_top">
<polygon fill="#deebf9" stroke="#404040" stroke-width="2" points="16,-64 16,-116 302,-116 302,-64 16,-64"/>
</a>
</g>
</g>
<!-- dir_11fbc4217d50ab21044e5ad6614aede5 -->
<g id="node1" class="node">
<title>dir_11fbc4217d50ab21044e5ad6614aede5</title>
<text text-anchor="middle" x="267" y="-87.5" font-family="Helvetica,sans-Serif" font-size="10.00">include</text>
</g>
<!-- dir_0981ace215aa2029f526b70c145b9fbe -->
<g id="node5" class="node">
<title>dir_0981ace215aa2029f526b70c145b9fbe</title>
<g id="a_node5"><a xlink:href="dir_0981ace215aa2029f526b70c145b9fbe.html" target="_top" xlink:title="iop">
<polygon fill="none" stroke="red" points="294,-36 240,-36 240,0 294,0 294,-36"/>
<text text-anchor="middle" x="267" y="-15.5" font-family="Helvetica,sans-Serif" font-size="10.00">iop</text>
</a>
</g>
</g>
<!-- dir_11fbc4217d50ab21044e5ad6614aede5&#45;&gt;dir_0981ace215aa2029f526b70c145b9fbe -->
<g id="edge1" class="edge">
<title>dir_11fbc4217d50ab21044e5ad6614aede5&#45;&gt;dir_0981ace215aa2029f526b70c145b9fbe</title>
<path fill="none" stroke="black" d="M267,-71.7C267,-63.98 267,-54.71 267,-46.11"/>
<polygon fill="black" stroke="black" points="270.5,-46.1 267,-36.1 263.5,-46.1 270.5,-46.1"/>
<g id="a_edge1&#45;headlabel"><a xlink:href="dir_000062_000151.html" target="_top" xlink:title="2">
<text text-anchor="middle" x="273.34" y="-47.2" font-family="Helvetica,sans-Serif" font-size="10.00">2</text>
</a>
</g>
</g>
<!-- dir_98e2d5cc0c4dfde39541137fd28952e5 -->
<g id="node2" class="node">
<title>dir_98e2d5cc0c4dfde39541137fd28952e5</title>
<g id="a_node2"><a xlink:href="dir_98e2d5cc0c4dfde39541137fd28952e5.html" target="_top" xlink:title="arpa">
<polygon fill="#60a2e3" stroke="#404040" points="222,-108 168,-108 168,-72 222,-72 222,-108"/>
<text text-anchor="middle" x="195" y="-87.5" font-family="Helvetica,sans-Serif" font-size="10.00">arpa</text>
</a>
</g>
</g>
<!-- dir_13ec78ef0a3afda2d5ab5181be0c5c51 -->
<g id="node3" class="node">
<title>dir_13ec78ef0a3afda2d5ab5181be0c5c51</title>
<g id="a_node3"><a xlink:href="dir_13ec78ef0a3afda2d5ab5181be0c5c51.html" target="_top" xlink:title="netinet">
<polygon fill="#60a2e3" stroke="#404040" points="150,-108 96,-108 96,-72 150,-72 150,-108"/>
<text text-anchor="middle" x="123" y="-87.5" font-family="Helvetica,sans-Serif" font-size="10.00">netinet</text>
</a>
</g>
</g>
<!-- dir_51f393a161ada3120603c40b1f44207f -->
<g id="node4" class="node">
<title>dir_51f393a161ada3120603c40b1f44207f</title>
<g id="a_node4"><a xlink:href="dir_51f393a161ada3120603c40b1f44207f.html" target="_top" xlink:title="sys">
<polygon fill="#60a2e3" stroke="#404040" points="78,-108 24,-108 24,-72 78,-72 78,-108"/>
<text text-anchor="middle" x="51" y="-87.5" font-family="Helvetica,sans-Serif" font-size="10.00">sys</text>
</a>
</g>
</g>
</g>
</svg>
