<?xml version="1.0" encoding="UTF-8" standalone="no"?>
<!DOCTYPE svg PUBLIC "-//W3C//DTD SVG 1.1//EN"
 "http://www.w3.org/Graphics/SVG/1.1/DTD/svg11.dtd">
<!-- Generated by graphviz version 3.0.0 (20220413.0242)
 -->
<!-- Title: iop/dev9 Pages: 1 -->
<svg width="349pt" height="319pt"
 viewBox="0.00 0.00 349.31 319.00" xmlns="http://www.w3.org/2000/svg" xmlns:xlink="http://www.w3.org/1999/xlink">
<g id="graph0" class="graph" transform="scale(1 1) rotate(0) translate(4 315)">
<title>iop/dev9</title>
<polygon fill="white" stroke="transparent" points="-4,4 -4,-315 345.31,-315 345.31,4 -4,4"/>
<g id="clust1" class="cluster">
<title>clusterdir_0981ace215aa2029f526b70c145b9fbe</title>
<g id="a_clust1"><a xlink:href="dir_0981ace215aa2029f526b70c145b9fbe.html" target="_top" xlink:title="iop">
<polygon fill="#deebf9" stroke="#404040" stroke-dasharray="5,2" points="8,-8 8,-303 270,-303 270,-8 8,-8"/>
<text text-anchor="middle" x="139" y="-291" font-family="Helvetica,sans-Serif" font-size="10.00">iop</text>
</a>
</g>
</g>
<g id="clust2" class="cluster">
<title>clusterdir_6f16cad81de2453a6f48c5e272ba4a18</title>
<g id="a_clust2"><a xlink:href="dir_6f16cad81de2453a6f48c5e272ba4a18.html" target="_top">
<polygon fill="#deebf9" stroke="#404040" stroke-width="2" points="36,-80 36,-276 262,-276 262,-80 36,-80"/>
</a>
</g>
</g>
<!-- dir_9be0baa3d4a3e9f480a9ee70594037fa -->
<g id="node1" class="node">
<title>dir_9be0baa3d4a3e9f480a9ee70594037fa</title>
<g id="a_node1"><a xlink:href="dir_9be0baa3d4a3e9f480a9ee70594037fa.html" target="_top" xlink:title="kernel">
<polygon fill="#60a2e3" stroke="red" points="94,-52 40,-52 40,-16 94,-16 94,-52"/>
<text text-anchor="middle" x="67" y="-31.5" font-family="Helvetica,sans-Serif" font-size="10.00">kernel</text>
</a>
</g>
</g>
<!-- dir_6f16cad81de2453a6f48c5e272ba4a18 -->
<g id="node2" class="node">
<title>dir_6f16cad81de2453a6f48c5e272ba4a18</title>
<text text-anchor="middle" x="227" y="-247.5" font-family="Helvetica,sans-Serif" font-size="10.00">dev9</text>
</g>
<!-- dir_c9fad5ea75093c7356ef5f2b903232b1 -->
<g id="node3" class="node">
<title>dir_c9fad5ea75093c7356ef5f2b903232b1</title>
<g id="a_node3"><a xlink:href="dir_c9fad5ea75093c7356ef5f2b903232b1.html" target="_top" xlink:title="atad">
<polygon fill="#60a2e3" stroke="#404040" points="182,-196 128,-196 128,-160 182,-160 182,-196"/>
<text text-anchor="middle" x="155" y="-175.5" font-family="Helvetica,sans-Serif" font-size="10.00">atad</text>
</a>
</g>
</g>
<!-- dir_c9fad5ea75093c7356ef5f2b903232b1&#45;&gt;dir_9be0baa3d4a3e9f480a9ee70594037fa -->
<g id="edge1" class="edge">
<title>dir_c9fad5ea75093c7356ef5f2b903232b1&#45;&gt;dir_9be0baa3d4a3e9f480a9ee70594037fa</title>
<path fill="none" stroke="black" d="M128.1,-159.99C115.48,-150.75 101.22,-138.3 92,-124 79.95,-105.31 73.62,-80.77 70.35,-62.2"/>
<polygon fill="black" stroke="black" points="73.8,-61.64 68.79,-52.31 66.89,-62.73 73.8,-61.64"/>
<g id="a_edge1&#45;headlabel"><a xlink:href="dir_000008_000158.html" target="_top" xlink:title="14">
<text text-anchor="middle" x="77.17" y="-62.25" font-family="Helvetica,sans-Serif" font-size="10.00">14</text>
</a>
</g>
</g>
<!-- dir_18566863331aaba44604539ca78be099 -->
<g id="node4" class="node">
<title>dir_18566863331aaba44604539ca78be099</title>
<g id="a_node4"><a xlink:href="dir_18566863331aaba44604539ca78be099.html" target="_top" xlink:title="dev9">
<polygon fill="#60a2e3" stroke="#404040" points="170,-124 116,-124 116,-88 170,-88 170,-124"/>
<text text-anchor="middle" x="143" y="-103.5" font-family="Helvetica,sans-Serif" font-size="10.00">dev9</text>
</a>
</g>
</g>
<!-- dir_c9fad5ea75093c7356ef5f2b903232b1&#45;&gt;dir_18566863331aaba44604539ca78be099 -->
<g id="edge2" class="edge">
<title>dir_c9fad5ea75093c7356ef5f2b903232b1&#45;&gt;dir_18566863331aaba44604539ca78be099</title>
<path fill="none" stroke="black" d="M152.03,-159.7C150.71,-151.98 149.12,-142.71 147.65,-134.11"/>
<polygon fill="black" stroke="black" points="151.07,-133.37 145.93,-124.1 144.17,-134.55 151.07,-133.37"/>
<g id="a_edge2&#45;headlabel"><a xlink:href="dir_000008_000027.html" target="_top" xlink:title="2">
<text text-anchor="middle" x="154.48" y="-133.93" font-family="Helvetica,sans-Serif" font-size="10.00">2</text>
</a>
</g>
</g>
<!-- dir_bdd9a5d540de89e9fe90efdfc6973a4f -->
<g id="node9" class="node">
<title>dir_bdd9a5d540de89e9fe90efdfc6973a4f</title>
<g id="a_node9"><a xlink:href="dir_bdd9a5d540de89e9fe90efdfc6973a4f.html" target="_top" xlink:title="common">
<polygon fill="none" stroke="red" points="332,-52 278,-52 278,-16 332,-16 332,-52"/>
<text text-anchor="middle" x="305" y="-31.5" font-family="Helvetica,sans-Serif" font-size="10.00">common</text>
</a>
</g>
</g>
<!-- dir_c9fad5ea75093c7356ef5f2b903232b1&#45;&gt;dir_bdd9a5d540de89e9fe90efdfc6973a4f -->
<g id="edge3" class="edge">
<title>dir_c9fad5ea75093c7356ef5f2b903232b1&#45;&gt;dir_bdd9a5d540de89e9fe90efdfc6973a4f</title>
<path fill="none" stroke="black" d="M174.06,-159.91C185.29,-149.68 199.67,-136.32 212,-124 230.91,-105.11 233.76,-98.55 253,-80 260.32,-72.94 268.53,-65.6 276.22,-58.94"/>
<polygon fill="black" stroke="black" points="278.98,-61.19 284.3,-52.03 274.43,-55.87 278.98,-61.19"/>
<g id="a_edge3&#45;headlabel"><a xlink:href="dir_000008_000022.html" target="_top" xlink:title="2">
<text text-anchor="middle" x="278.09" y="-63.19" font-family="Helvetica,sans-Serif" font-size="10.00">2</text>
</a>
</g>
</g>
<!-- dir_18566863331aaba44604539ca78be099&#45;&gt;dir_9be0baa3d4a3e9f480a9ee70594037fa -->
<g id="edge4" class="edge">
<title>dir_18566863331aaba44604539ca78be099&#45;&gt;dir_9be0baa3d4a3e9f480a9ee70594037fa</title>
<path fill="none" stroke="black" d="M124.21,-87.7C114.83,-79.05 103.32,-68.45 93.09,-59.03"/>
<polygon fill="black" stroke="black" points="95.3,-56.3 85.57,-52.1 90.55,-61.45 95.3,-56.3"/>
<g id="a_edge4&#45;headlabel"><a xlink:href="dir_000027_000158.html" target="_top" xlink:title="19">
<text text-anchor="middle" x="99.86" y="-54.15" font-family="Helvetica,sans-Serif" font-size="10.00">19</text>
</a>
</g>
</g>
<!-- dir_18566863331aaba44604539ca78be099&#45;&gt;dir_bdd9a5d540de89e9fe90efdfc6973a4f -->
<g id="edge5" class="edge">
<title>dir_18566863331aaba44604539ca78be099&#45;&gt;dir_bdd9a5d540de89e9fe90efdfc6973a4f</title>
<path fill="none" stroke="black" d="M168.94,-87.87C173.83,-85.03 178.99,-82.27 184,-80 219.19,-64.09 233.22,-67.63 268.35,-54.14"/>
<polygon fill="black" stroke="black" points="269.81,-57.33 277.76,-50.32 267.18,-50.84 269.81,-57.33"/>
<g id="a_edge5&#45;headlabel"><a xlink:href="dir_000027_000022.html" target="_top" xlink:title="5">
<text text-anchor="middle" x="267.55" y="-58.81" font-family="Helvetica,sans-Serif" font-size="10.00">5</text>
</a>
</g>
</g>
<!-- dir_f44f46f2cd21d59a913dd7de442a4869 -->
<g id="node5" class="node">
<title>dir_f44f46f2cd21d59a913dd7de442a4869</title>
<g id="a_node5"><a xlink:href="dir_f44f46f2cd21d59a913dd7de442a4869.html" target="_top" xlink:title="extflash">
<polygon fill="#60a2e3" stroke="#404040" points="254,-196 200,-196 200,-160 254,-160 254,-196"/>
<text text-anchor="middle" x="227" y="-175.5" font-family="Helvetica,sans-Serif" font-size="10.00">extflash</text>
</a>
</g>
</g>
<!-- dir_f44f46f2cd21d59a913dd7de442a4869&#45;&gt;dir_9be0baa3d4a3e9f480a9ee70594037fa -->
<g id="edge6" class="edge">
<title>dir_f44f46f2cd21d59a913dd7de442a4869&#45;&gt;dir_9be0baa3d4a3e9f480a9ee70594037fa</title>
<path fill="none" stroke="black" d="M199.92,-164.08C196.92,-162.69 193.9,-161.31 191,-160 153.96,-143.33 135.48,-152.96 107,-124 92.18,-108.94 97.64,-99.28 89,-80 86.29,-73.96 83.25,-67.53 80.31,-61.48"/>
<polygon fill="black" stroke="black" points="83.39,-59.82 75.84,-52.4 77.11,-62.91 83.39,-59.82"/>
<g id="a_edge6&#45;headlabel"><a xlink:href="dir_000044_000158.html" target="_top" xlink:title="19">
<text text-anchor="middle" x="87.53" y="-59.3" font-family="Helvetica,sans-Serif" font-size="10.00">19</text>
</a>
</g>
</g>
<!-- dir_f44f46f2cd21d59a913dd7de442a4869&#45;&gt;dir_18566863331aaba44604539ca78be099 -->
<g id="edge8" class="edge">
<title>dir_f44f46f2cd21d59a913dd7de442a4869&#45;&gt;dir_18566863331aaba44604539ca78be099</title>
<path fill="none" stroke="black" d="M206.24,-159.7C195.76,-150.97 182.89,-140.24 171.5,-130.75"/>
<polygon fill="black" stroke="black" points="173.45,-127.82 163.53,-124.1 168.97,-133.19 173.45,-127.82"/>
<g id="a_edge8&#45;headlabel"><a xlink:href="dir_000044_000027.html" target="_top" xlink:title="1">
<text text-anchor="middle" x="178.03" y="-125.44" font-family="Helvetica,sans-Serif" font-size="10.00">1</text>
</a>
</g>
</g>
<!-- dir_f44f46f2cd21d59a913dd7de442a4869&#45;&gt;dir_bdd9a5d540de89e9fe90efdfc6973a4f -->
<g id="edge7" class="edge">
<title>dir_f44f46f2cd21d59a913dd7de442a4869&#45;&gt;dir_bdd9a5d540de89e9fe90efdfc6973a4f</title>
<path fill="none" stroke="black" d="M236.41,-159.87C249.88,-135.35 274.77,-90.03 290.58,-61.26"/>
<polygon fill="black" stroke="black" points="293.81,-62.64 295.56,-52.19 287.68,-59.27 293.81,-62.64"/>
<g id="a_edge7&#45;headlabel"><a xlink:href="dir_000044_000022.html" target="_top" xlink:title="2">
<text text-anchor="middle" x="294.57" y="-64.66" font-family="Helvetica,sans-Serif" font-size="10.00">2</text>
</a>
</g>
</g>
<!-- dir_7e10c943c08a69732df0d9710348ffa0 -->
<g id="node6" class="node">
<title>dir_7e10c943c08a69732df0d9710348ffa0</title>
<g id="a_node6"><a xlink:href="dir_7e10c943c08a69732df0d9710348ffa0.html" target="_top" xlink:title="hdpro_atad">
<polygon fill="#60a2e3" stroke="#404040" points="181.5,-268 116.5,-268 116.5,-232 181.5,-232 181.5,-268"/>
<text text-anchor="middle" x="149" y="-247.5" font-family="Helvetica,sans-Serif" font-size="10.00">hdpro_atad</text>
</a>
</g>
</g>
<!-- dir_7e10c943c08a69732df0d9710348ffa0&#45;&gt;dir_9be0baa3d4a3e9f480a9ee70594037fa -->
<g id="edge9" class="edge">
<title>dir_7e10c943c08a69732df0d9710348ffa0&#45;&gt;dir_9be0baa3d4a3e9f480a9ee70594037fa</title>
<path fill="none" stroke="black" d="M116.32,-234.1C88.03,-220.88 51.04,-202.65 47,-196 21.72,-154.37 39.72,-95.52 54.06,-61.71"/>
<polygon fill="black" stroke="black" points="57.31,-63.03 58.16,-52.47 50.91,-60.19 57.31,-63.03"/>
<g id="a_edge9&#45;headlabel"><a xlink:href="dir_000055_000158.html" target="_top" xlink:title="15">
<text text-anchor="middle" x="58.44" y="-64.96" font-family="Helvetica,sans-Serif" font-size="10.00">15</text>
</a>
</g>
</g>
<!-- dir_7e10c943c08a69732df0d9710348ffa0&#45;&gt;dir_c9fad5ea75093c7356ef5f2b903232b1 -->
<g id="edge10" class="edge">
<title>dir_7e10c943c08a69732df0d9710348ffa0&#45;&gt;dir_c9fad5ea75093c7356ef5f2b903232b1</title>
<path fill="none" stroke="black" d="M150.48,-231.7C151.14,-223.98 151.94,-214.71 152.68,-206.11"/>
<polygon fill="black" stroke="black" points="156.17,-206.37 153.53,-196.1 149.19,-205.77 156.17,-206.37"/>
<g id="a_edge10&#45;headlabel"><a xlink:href="dir_000055_000008.html" target="_top" xlink:title="1">
<text text-anchor="middle" x="158.69" y="-207.69" font-family="Helvetica,sans-Serif" font-size="10.00">1</text>
</a>
</g>
</g>
<!-- dir_7e10c943c08a69732df0d9710348ffa0&#45;&gt;dir_bdd9a5d540de89e9fe90efdfc6973a4f -->
<g id="edge11" class="edge">
<title>dir_7e10c943c08a69732df0d9710348ffa0&#45;&gt;dir_bdd9a5d540de89e9fe90efdfc6973a4f</title>
<path fill="none" stroke="black" d="M181.87,-235.25C184.94,-234.1 188.02,-233 191,-232 249.89,-212.31 288.17,-245.24 326,-196 356.14,-156.77 335.09,-95.66 318.86,-61.11"/>
<polygon fill="black" stroke="black" points="322,-59.56 314.46,-52.11 315.71,-62.63 322,-59.56"/>
<g id="a_edge11&#45;headlabel"><a xlink:href="dir_000055_000022.html" target="_top" xlink:title="1">
<text text-anchor="middle" x="326.13" y="-59.04" font-family="Helvetica,sans-Serif" font-size="10.00">1</text>
</a>
</g>
</g>
<!-- dir_6c63d3a31e7cac2d832eb76295920122 -->
<g id="node7" class="node">
<title>dir_6c63d3a31e7cac2d832eb76295920122</title>
<g id="a_node7"><a xlink:href="dir_6c63d3a31e7cac2d832eb76295920122.html" target="_top" xlink:title="poweroff">
<polygon fill="#60a2e3" stroke="#404040" points="98,-268 44,-268 44,-232 98,-232 98,-268"/>
<text text-anchor="middle" x="71" y="-247.5" font-family="Helvetica,sans-Serif" font-size="10.00">poweroff</text>
</a>
</g>
</g>
<!-- dir_6c63d3a31e7cac2d832eb76295920122&#45;&gt;dir_9be0baa3d4a3e9f480a9ee70594037fa -->
<g id="edge12" class="edge">
<title>dir_6c63d3a31e7cac2d832eb76295920122&#45;&gt;dir_9be0baa3d4a3e9f480a9ee70594037fa</title>
<path fill="none" stroke="black" d="M54.11,-231.99C45.71,-222.31 36.42,-209.46 32,-196 15.92,-147.02 15.27,-128.77 32,-80 34.43,-72.92 38.48,-66.1 42.98,-59.99"/>
<polygon fill="black" stroke="black" points="45.73,-62.15 49.28,-52.17 40.28,-57.76 45.73,-62.15"/>
<g id="a_edge12&#45;headlabel"><a xlink:href="dir_000200_000158.html" target="_top" xlink:title="15">
<text text-anchor="middle" x="45.69" y="-64.23" font-family="Helvetica,sans-Serif" font-size="10.00">15</text>
</a>
</g>
</g>
<!-- dir_6c63d3a31e7cac2d832eb76295920122&#45;&gt;dir_bdd9a5d540de89e9fe90efdfc6973a4f -->
<g id="edge13" class="edge">
<title>dir_6c63d3a31e7cac2d832eb76295920122&#45;&gt;dir_bdd9a5d540de89e9fe90efdfc6973a4f</title>
<path fill="none" stroke="black" d="M98.26,-235.39C101.18,-234.15 104.13,-233 107,-232 174.22,-208.67 211.59,-245.19 263,-196 299.6,-160.98 305.77,-98.39 306.02,-62.44"/>
<polygon fill="black" stroke="black" points="309.52,-62.16 305.93,-52.19 302.52,-62.22 309.52,-62.16"/>
<g id="a_edge13&#45;headlabel"><a xlink:href="dir_000200_000022.html" target="_top" xlink:title="1">
<text text-anchor="middle" x="312.39" y="-63.24" font-family="Helvetica,sans-Serif" font-size="10.00">1</text>
</a>
</g>
</g>
<!-- dir_965b04ab41d8424e7ba3e3f78bb2fea4 -->
<g id="node8" class="node">
<title>dir_965b04ab41d8424e7ba3e3f78bb2fea4</title>
<g id="a_node8"><a xlink:href="dir_965b04ab41d8424e7ba3e3f78bb2fea4.html" target="_top" xlink:title="pvrdrv">
<polygon fill="#60a2e3" stroke="#404040" points="110,-196 56,-196 56,-160 110,-160 110,-196"/>
<text text-anchor="middle" x="83" y="-175.5" font-family="Helvetica,sans-Serif" font-size="10.00">pvrdrv</text>
</a>
</g>
</g>
<!-- dir_965b04ab41d8424e7ba3e3f78bb2fea4&#45;&gt;dir_9be0baa3d4a3e9f480a9ee70594037fa -->
<g id="edge14" class="edge">
<title>dir_965b04ab41d8424e7ba3e3f78bb2fea4&#45;&gt;dir_9be0baa3d4a3e9f480a9ee70594037fa</title>
<path fill="none" stroke="black" d="M78.78,-159.92C76.4,-149.59 73.59,-136.11 72,-124 69.3,-103.41 68.06,-79.96 67.49,-62.3"/>
<polygon fill="black" stroke="black" points="70.98,-62.03 67.21,-52.13 63.98,-62.22 70.98,-62.03"/>
<g id="a_edge14&#45;headlabel"><a xlink:href="dir_000204_000158.html" target="_top" xlink:title="15">
<text text-anchor="middle" x="73.92" y="-63.05" font-family="Helvetica,sans-Serif" font-size="10.00">15</text>
</a>
</g>
</g>
<!-- dir_965b04ab41d8424e7ba3e3f78bb2fea4&#45;&gt;dir_18566863331aaba44604539ca78be099 -->
<g id="edge16" class="edge">
<title>dir_965b04ab41d8424e7ba3e3f78bb2fea4&#45;&gt;dir_18566863331aaba44604539ca78be099</title>
<path fill="none" stroke="black" d="M97.83,-159.7C105.02,-151.3 113.8,-141.07 121.69,-131.86"/>
<polygon fill="black" stroke="black" points="124.49,-133.97 128.34,-124.1 119.17,-129.42 124.49,-133.97"/>
<g id="a_edge16&#45;headlabel"><a xlink:href="dir_000204_000027.html" target="_top" xlink:title="2">
<text text-anchor="middle" x="124.31" y="-136.05" font-family="Helvetica,sans-Serif" font-size="10.00">2</text>
</a>
</g>
</g>
<!-- dir_965b04ab41d8424e7ba3e3f78bb2fea4&#45;&gt;dir_bdd9a5d540de89e9fe90efdfc6973a4f -->
<g id="edge15" class="edge">
<title>dir_965b04ab41d8424e7ba3e3f78bb2fea4&#45;&gt;dir_bdd9a5d540de89e9fe90efdfc6973a4f</title>
<path fill="none" stroke="black" d="M110.37,-163.52C134.6,-151.29 167.8,-133.75 179,-124 197.44,-107.96 192.93,-95.29 212,-80 233.1,-63.08 244.42,-64.83 268.56,-54.39"/>
<polygon fill="black" stroke="black" points="270.09,-57.53 277.68,-50.13 267.13,-51.19 270.09,-57.53"/>
<g id="a_edge15&#45;headlabel"><a xlink:href="dir_000204_000022.html" target="_top" xlink:title="2">
<text text-anchor="middle" x="268.04" y="-59.13" font-family="Helvetica,sans-Serif" font-size="10.00">2</text>
</a>
</g>
</g>
</g>
</svg>
