<?xml version="1.0" encoding="UTF-8" standalone="no"?>
<!DOCTYPE svg PUBLIC "-//W3C//DTD SVG 1.1//EN"
 "http://www.w3.org/Graphics/SVG/1.1/DTD/svg11.dtd">
<!-- Generated by graphviz version 3.0.0 (20220413.0242)
 -->
<!-- Title: ee/kernel/src Pages: 1 -->
<svg width="524pt" height="175pt"
 viewBox="0.00 0.00 524.00 175.00" xmlns="http://www.w3.org/2000/svg" xmlns:xlink="http://www.w3.org/1999/xlink">
<g id="graph0" class="graph" transform="scale(1 1) rotate(0) translate(4 171)">
<title>ee/kernel/src</title>
<polygon fill="white" stroke="transparent" points="-4,4 -4,-171 520,-171 520,4 -4,4"/>
<g id="clust1" class="cluster">
<title>clusterdir_694ec83a64f58cbdefbefce65cd1011c</title>
<g id="a_clust1"><a xlink:href="dir_694ec83a64f58cbdefbefce65cd1011c.html" target="_top" xlink:title="kernel">
<polygon fill="#deebf9" stroke="#7f7f7f" stroke-dasharray="5,2" points="8,-8 8,-159 310,-159 310,-8 8,-8"/>
<text text-anchor="middle" x="159" y="-147" font-family="Helvetica,sans-Serif" font-size="10.00">kernel</text>
</a>
</g>
</g>
<g id="clust2" class="cluster">
<title>clusterdir_a493926c6e9678712bca5b1e822bb94f</title>
<g id="a_clust2"><a xlink:href="dir_a493926c6e9678712bca5b1e822bb94f.html" target="_top">
<polygon fill="#deebf9" stroke="#404040" stroke-width="2" points="16,-80 16,-132 302,-132 302,-80 16,-80"/>
</a>
</g>
</g>
<!-- dir_8a6a67431f985d69787ebf051412922f -->
<g id="node1" class="node">
<title>dir_8a6a67431f985d69787ebf051412922f</title>
<g id="a_node1"><a xlink:href="dir_8a6a67431f985d69787ebf051412922f.html" target="_top" xlink:title="include">
<polygon fill="#60a2e3" stroke="#404040" points="186,-52 132,-52 132,-16 186,-16 186,-52"/>
<text text-anchor="middle" x="159" y="-31.5" font-family="Helvetica,sans-Serif" font-size="10.00">include</text>
</a>
</g>
</g>
<!-- dir_a493926c6e9678712bca5b1e822bb94f -->
<g id="node2" class="node">
<title>dir_a493926c6e9678712bca5b1e822bb94f</title>
<text text-anchor="middle" x="267" y="-103.5" font-family="Helvetica,sans-Serif" font-size="10.00">src</text>
</g>
<!-- dir_a493926c6e9678712bca5b1e822bb94f&#45;&gt;dir_8a6a67431f985d69787ebf051412922f -->
<g id="edge2" class="edge">
<title>dir_a493926c6e9678712bca5b1e822bb94f&#45;&gt;dir_8a6a67431f985d69787ebf051412922f</title>
<path fill="none" stroke="black" d="M242.71,-87.89C238.81,-85.22 234.81,-82.51 231,-80 219.33,-72.31 206.43,-64.14 194.8,-56.9"/>
<polygon fill="black" stroke="black" points="196.55,-53.87 186.21,-51.57 192.86,-59.82 196.55,-53.87"/>
<g id="a_edge2&#45;headlabel"><a xlink:href="dir_000234_000074.html" target="_top" xlink:title="49">
<text text-anchor="middle" x="201.1" y="-50.85" font-family="Helvetica,sans-Serif" font-size="10.00">49</text>
</a>
</g>
</g>
<!-- dir_0981ace215aa2029f526b70c145b9fbe -->
<g id="node6" class="node">
<title>dir_0981ace215aa2029f526b70c145b9fbe</title>
<g id="a_node6"><a xlink:href="dir_0981ace215aa2029f526b70c145b9fbe.html" target="_top" xlink:title="iop">
<polygon fill="none" stroke="red" points="444,-52 390,-52 390,-16 444,-16 444,-52"/>
<text text-anchor="middle" x="417" y="-31.5" font-family="Helvetica,sans-Serif" font-size="10.00">iop</text>
</a>
</g>
</g>
<!-- dir_a493926c6e9678712bca5b1e822bb94f&#45;&gt;dir_0981ace215aa2029f526b70c145b9fbe -->
<g id="edge1" class="edge">
<title>dir_a493926c6e9678712bca5b1e822bb94f&#45;&gt;dir_0981ace215aa2029f526b70c145b9fbe</title>
<path fill="none" stroke="black" d="M294.2,-92.41C315.41,-82.58 345.84,-68.45 380.49,-52.23"/>
<polygon fill="black" stroke="black" points="382.31,-55.24 389.88,-47.83 379.34,-48.9 382.31,-55.24"/>
<g id="a_edge1&#45;headlabel"><a xlink:href="dir_000234_000151.html" target="_top" xlink:title="5">
<text text-anchor="middle" x="380.26" y="-56.84" font-family="Helvetica,sans-Serif" font-size="10.00">5</text>
</a>
</g>
</g>
<!-- dir_a0a8ac7efb6662b749c1285408048e6d -->
<g id="node7" class="node">
<title>dir_a0a8ac7efb6662b749c1285408048e6d</title>
<g id="a_node7"><a xlink:href="dir_a0a8ac7efb6662b749c1285408048e6d.html" target="_top" xlink:title="erl">
<polygon fill="none" stroke="red" stroke-dasharray="5,2" points="516,-52 462,-52 462,-16 516,-16 516,-52"/>
<text text-anchor="middle" x="489" y="-31.5" font-family="Helvetica,sans-Serif" font-size="10.00">erl</text>
</a>
</g>
</g>
<!-- dir_a493926c6e9678712bca5b1e822bb94f&#45;&gt;dir_a0a8ac7efb6662b749c1285408048e6d -->
<g id="edge3" class="edge">
<title>dir_a493926c6e9678712bca5b1e822bb94f&#45;&gt;dir_a0a8ac7efb6662b749c1285408048e6d</title>
<path fill="none" stroke="black" d="M294.25,-98.72C329.1,-90.37 391.37,-74.39 452.31,-51.97"/>
<polygon fill="black" stroke="black" points="453.54,-55.25 461.68,-48.47 451.09,-48.69 453.54,-55.25"/>
<g id="a_edge3&#45;headlabel"><a xlink:href="dir_000234_000042.html" target="_top" xlink:title="1">
<text text-anchor="middle" x="451.17" y="-56.66" font-family="Helvetica,sans-Serif" font-size="10.00">1</text>
</a>
</g>
</g>
<!-- dir_bdd9a5d540de89e9fe90efdfc6973a4f -->
<g id="node8" class="node">
<title>dir_bdd9a5d540de89e9fe90efdfc6973a4f</title>
<g id="a_node8"><a xlink:href="dir_bdd9a5d540de89e9fe90efdfc6973a4f.html" target="_top" xlink:title="common">
<polygon fill="none" stroke="red" points="372,-52 318,-52 318,-16 372,-16 372,-52"/>
<text text-anchor="middle" x="345" y="-31.5" font-family="Helvetica,sans-Serif" font-size="10.00">common</text>
</a>
</g>
</g>
<!-- dir_a493926c6e9678712bca5b1e822bb94f&#45;&gt;dir_bdd9a5d540de89e9fe90efdfc6973a4f -->
<g id="edge4" class="edge">
<title>dir_a493926c6e9678712bca5b1e822bb94f&#45;&gt;dir_bdd9a5d540de89e9fe90efdfc6973a4f</title>
<path fill="none" stroke="black" d="M286.28,-87.7C295.92,-79.05 307.73,-68.45 318.23,-59.03"/>
<polygon fill="black" stroke="black" points="320.84,-61.39 325.94,-52.1 316.16,-56.18 320.84,-61.39"/>
<g id="a_edge4&#45;headlabel"><a xlink:href="dir_000234_000022.html" target="_top" xlink:title="17">
<text text-anchor="middle" x="320.06" y="-63.4" font-family="Helvetica,sans-Serif" font-size="10.00">17</text>
</a>
</g>
</g>
<!-- dir_51b4fd419f5cef2df1fa20f57f0c92da -->
<g id="node3" class="node">
<title>dir_51b4fd419f5cef2df1fa20f57f0c92da</title>
<g id="a_node3"><a xlink:href="dir_51b4fd419f5cef2df1fa20f57f0c92da.html" target="_top" xlink:title="osdsrc">
<polygon fill="#60a2e3" stroke="#404040" points="222,-124 168,-124 168,-88 222,-88 222,-124"/>
<text text-anchor="middle" x="195" y="-103.5" font-family="Helvetica,sans-Serif" font-size="10.00">osdsrc</text>
</a>
</g>
</g>
<!-- dir_51b4fd419f5cef2df1fa20f57f0c92da&#45;&gt;dir_8a6a67431f985d69787ebf051412922f -->
<g id="edge5" class="edge">
<title>dir_51b4fd419f5cef2df1fa20f57f0c92da&#45;&gt;dir_8a6a67431f985d69787ebf051412922f</title>
<path fill="none" stroke="black" d="M186.1,-87.7C182,-79.73 177.05,-70.1 172.51,-61.26"/>
<polygon fill="black" stroke="black" points="175.48,-59.4 167.8,-52.1 169.26,-62.6 175.48,-59.4"/>
<g id="a_edge5&#45;headlabel"><a xlink:href="dir_000193_000074.html" target="_top" xlink:title="4">
<text text-anchor="middle" x="179.65" y="-58.79" font-family="Helvetica,sans-Serif" font-size="10.00">4</text>
</a>
</g>
</g>
<!-- dir_51b4fd419f5cef2df1fa20f57f0c92da&#45;&gt;dir_bdd9a5d540de89e9fe90efdfc6973a4f -->
<g id="edge6" class="edge">
<title>dir_51b4fd419f5cef2df1fa20f57f0c92da&#45;&gt;dir_bdd9a5d540de89e9fe90efdfc6973a4f</title>
<path fill="none" stroke="black" d="M217.64,-87.86C221.95,-85.01 226.51,-82.26 231,-80 262.79,-64.01 276.02,-66.93 308.15,-54.29"/>
<polygon fill="black" stroke="black" points="309.87,-57.37 317.75,-50.28 307.17,-50.91 309.87,-57.37"/>
<g id="a_edge6&#45;headlabel"><a xlink:href="dir_000193_000022.html" target="_top" xlink:title="1">
<text text-anchor="middle" x="307.64" y="-58.87" font-family="Helvetica,sans-Serif" font-size="10.00">1</text>
</a>
</g>
</g>
<!-- dir_956615eb5c1ba3c328b30cb4364be616 -->
<g id="node4" class="node">
<title>dir_956615eb5c1ba3c328b30cb4364be616</title>
<g id="a_node4"><a xlink:href="dir_956615eb5c1ba3c328b30cb4364be616.html" target="_top" xlink:title="srcfile">
<polygon fill="#60a2e3" stroke="#404040" points="150,-124 96,-124 96,-88 150,-88 150,-124"/>
<text text-anchor="middle" x="123" y="-103.5" font-family="Helvetica,sans-Serif" font-size="10.00">srcfile</text>
</a>
</g>
</g>
<!-- dir_956615eb5c1ba3c328b30cb4364be616&#45;&gt;dir_8a6a67431f985d69787ebf051412922f -->
<g id="edge7" class="edge">
<title>dir_956615eb5c1ba3c328b30cb4364be616&#45;&gt;dir_8a6a67431f985d69787ebf051412922f</title>
<path fill="none" stroke="black" d="M131.9,-87.7C136,-79.73 140.95,-70.1 145.49,-61.26"/>
<polygon fill="black" stroke="black" points="148.74,-62.6 150.2,-52.1 142.52,-59.4 148.74,-62.6"/>
<g id="a_edge7&#45;headlabel"><a xlink:href="dir_000334_000074.html" target="_top" xlink:title="3">
<text text-anchor="middle" x="149.62" y="-64.59" font-family="Helvetica,sans-Serif" font-size="10.00">3</text>
</a>
</g>
</g>
<!-- dir_956615eb5c1ba3c328b30cb4364be616&#45;&gt;dir_bdd9a5d540de89e9fe90efdfc6973a4f -->
<g id="edge8" class="edge">
<title>dir_956615eb5c1ba3c328b30cb4364be616&#45;&gt;dir_bdd9a5d540de89e9fe90efdfc6973a4f</title>
<path fill="none" stroke="black" d="M144.6,-87.81C149.16,-84.83 154.08,-82.04 159,-80 220.64,-54.46 245.64,-73.39 308.31,-53.71"/>
<polygon fill="black" stroke="black" points="309.47,-57.01 317.84,-50.52 307.24,-50.37 309.47,-57.01"/>
<g id="a_edge8&#45;headlabel"><a xlink:href="dir_000334_000022.html" target="_top" xlink:title="2">
<text text-anchor="middle" x="306.96" y="-58.35" font-family="Helvetica,sans-Serif" font-size="10.00">2</text>
</a>
</g>
</g>
<!-- dir_9a87498b9a1b570e9d1e3baca4c4d515 -->
<g id="node5" class="node">
<title>dir_9a87498b9a1b570e9d1e3baca4c4d515</title>
<g id="a_node5"><a xlink:href="dir_9a87498b9a1b570e9d1e3baca4c4d515.html" target="_top" xlink:title="tlbsrc">
<polygon fill="#60a2e3" stroke="#404040" points="78,-124 24,-124 24,-88 78,-88 78,-124"/>
<text text-anchor="middle" x="51" y="-103.5" font-family="Helvetica,sans-Serif" font-size="10.00">tlbsrc</text>
</a>
</g>
</g>
<!-- dir_9a87498b9a1b570e9d1e3baca4c4d515&#45;&gt;dir_8a6a67431f985d69787ebf051412922f -->
<g id="edge9" class="edge">
<title>dir_9a87498b9a1b570e9d1e3baca4c4d515&#45;&gt;dir_8a6a67431f985d69787ebf051412922f</title>
<path fill="none" stroke="black" d="M75.29,-87.89C79.19,-85.22 83.19,-82.51 87,-80 98.67,-72.31 111.57,-64.14 123.2,-56.9"/>
<polygon fill="black" stroke="black" points="125.14,-59.82 131.79,-51.57 121.45,-53.87 125.14,-59.82"/>
<g id="a_edge9&#45;headlabel"><a xlink:href="dir_000348_000074.html" target="_top" xlink:title="1">
<text text-anchor="middle" x="123.58" y="-61.63" font-family="Helvetica,sans-Serif" font-size="10.00">1</text>
</a>
</g>
</g>
<!-- dir_9a87498b9a1b570e9d1e3baca4c4d515&#45;&gt;dir_bdd9a5d540de89e9fe90efdfc6973a4f -->
<g id="edge10" class="edge">
<title>dir_9a87498b9a1b570e9d1e3baca4c4d515&#45;&gt;dir_bdd9a5d540de89e9fe90efdfc6973a4f</title>
<path fill="none" stroke="black" d="M72.13,-87.85C76.8,-84.79 81.88,-81.95 87,-80 178.81,-44.93 214.85,-80.68 308.06,-53.62"/>
<polygon fill="black" stroke="black" points="309.34,-56.89 317.87,-50.61 307.28,-50.2 309.34,-56.89"/>
<g id="a_edge10&#45;headlabel"><a xlink:href="dir_000348_000022.html" target="_top" xlink:title="1">
<text text-anchor="middle" x="306.74" y="-58.16" font-family="Helvetica,sans-Serif" font-size="10.00">1</text>
</a>
</g>
</g>
</g>
</svg>
