<?xml version="1.0" encoding="UTF-8" standalone="no"?>
<!DOCTYPE svg PUBLIC "-//W3C//DTD SVG 1.1//EN"
 "http://www.w3.org/Graphics/SVG/1.1/DTD/svg11.dtd">
<!-- Generated by graphviz version 3.0.0 (20220413.0242)
 -->
<!-- Title: iop/system/sysclib/src/eyalroz_printf Pages: 1 -->
<svg width="114pt" height="151pt"
 viewBox="0.00 0.00 114.00 151.00" xmlns="http://www.w3.org/2000/svg" xmlns:xlink="http://www.w3.org/1999/xlink">
<g id="graph0" class="graph" transform="scale(1 1) rotate(0) translate(4 147)">
<title>iop/system/sysclib/src/eyalroz_printf</title>
<polygon fill="white" stroke="transparent" points="-4,4 -4,-147 110,-147 110,4 -4,4"/>
<g id="clust1" class="cluster">
<title>clusterdir_6b3a3a5d267f0fea31b7a7f9b7d2beaf</title>
<g id="a_clust1"><a xlink:href="dir_6b3a3a5d267f0fea31b7a7f9b7d2beaf.html" target="_top" xlink:title="src">
<polygon fill="#deebf9" stroke="#7f7f7f" stroke-dasharray="5,2" points="8,-64 8,-135 98,-135 98,-64 8,-64"/>
<text text-anchor="middle" x="53" y="-123" font-family="Helvetica,sans-Serif" font-size="10.00">src</text>
</a>
</g>
</g>
<!-- dir_bd62be9475ca4f332fbf19becd78d95e -->
<g id="node1" class="node">
<title>dir_bd62be9475ca4f332fbf19becd78d95e</title>
<g id="a_node1"><a xlink:href="dir_bd62be9475ca4f332fbf19becd78d95e.html" target="_top" xlink:title="eyalroz_printf">
<polygon fill="#deebf9" stroke="#404040" stroke-width="2" points="90,-108 16,-108 16,-72 90,-72 90,-108"/>
<text text-anchor="middle" x="53" y="-87.5" font-family="Helvetica,sans-Serif" font-size="10.00">eyalroz_printf</text>
</a>
</g>
</g>
<!-- dir_9be0baa3d4a3e9f480a9ee70594037fa -->
<g id="node2" class="node">
<title>dir_9be0baa3d4a3e9f480a9ee70594037fa</title>
<g id="a_node2"><a xlink:href="dir_9be0baa3d4a3e9f480a9ee70594037fa.html" target="_top" xlink:title="kernel">
<polygon fill="none" stroke="red" stroke-dasharray="5,2" points="80,-36 26,-36 26,0 80,0 80,-36"/>
<text text-anchor="middle" x="53" y="-15.5" font-family="Helvetica,sans-Serif" font-size="10.00">kernel</text>
</a>
</g>
</g>
<!-- dir_bd62be9475ca4f332fbf19becd78d95e&#45;&gt;dir_9be0baa3d4a3e9f480a9ee70594037fa -->
<g id="edge1" class="edge">
<title>dir_bd62be9475ca4f332fbf19becd78d95e&#45;&gt;dir_9be0baa3d4a3e9f480a9ee70594037fa</title>
<path fill="none" stroke="black" d="M53,-71.7C53,-63.98 53,-54.71 53,-46.11"/>
<polygon fill="black" stroke="black" points="56.5,-46.1 53,-36.1 49.5,-46.1 56.5,-46.1"/>
<g id="a_edge1&#45;headlabel"><a xlink:href="dir_000045_000158.html" target="_top" xlink:title="3">
<text text-anchor="middle" x="59.34" y="-47.2" font-family="Helvetica,sans-Serif" font-size="10.00">3</text>
</a>
</g>
</g>
</g>
</svg>
