<?xml version="1.0" encoding="UTF-8" standalone="no"?>
<!DOCTYPE svg PUBLIC "-//W3C//DTD SVG 1.1//EN"
 "http://www.w3.org/Graphics/SVG/1.1/DTD/svg11.dtd">
<!-- Generated by graphviz version 3.0.0 (20220413.0242)
 -->
<!-- Title: iop/dev9/pvrdrv Pages: 1 -->
<svg width="338pt" height="231pt"
 viewBox="0.00 0.00 338.00 231.00" xmlns="http://www.w3.org/2000/svg" xmlns:xlink="http://www.w3.org/1999/xlink">
<g id="graph0" class="graph" transform="scale(1 1) rotate(0) translate(4 227)">
<title>iop/dev9/pvrdrv</title>
<polygon fill="white" stroke="transparent" points="-4,4 -4,-227 334,-227 334,4 -4,4"/>
<g id="clust1" class="cluster">
<title>clusterdir_6f16cad81de2453a6f48c5e272ba4a18</title>
<g id="a_clust1"><a xlink:href="dir_6f16cad81de2453a6f48c5e272ba4a18.html" target="_top" xlink:title="dev9">
<polygon fill="#deebf9" stroke="#7f7f7f" stroke-dasharray="5,2" points="8,-56 8,-215 228,-215 228,-56 8,-56"/>
<text text-anchor="middle" x="118" y="-203" font-family="Helvetica,sans-Serif" font-size="10.00">dev9</text>
</a>
</g>
</g>
<g id="clust2" class="cluster">
<title>clusterdir_965b04ab41d8424e7ba3e3f78bb2fea4</title>
<g id="a_clust2"><a xlink:href="dir_965b04ab41d8424e7ba3e3f78bb2fea4.html" target="_top">
<polygon fill="#deebf9" stroke="#404040" stroke-width="2" points="16,-64 16,-188 158,-188 158,-64 16,-64"/>
</a>
</g>
</g>
<!-- dir_18566863331aaba44604539ca78be099 -->
<g id="node1" class="node">
<title>dir_18566863331aaba44604539ca78be099</title>
<g id="a_node1"><a xlink:href="dir_18566863331aaba44604539ca78be099.html" target="_top" xlink:title="dev9">
<polygon fill="#60a2e3" stroke="red" points="220,-108 166,-108 166,-72 220,-72 220,-108"/>
<text text-anchor="middle" x="193" y="-87.5" font-family="Helvetica,sans-Serif" font-size="10.00">dev9</text>
</a>
</g>
</g>
<!-- dir_965b04ab41d8424e7ba3e3f78bb2fea4 -->
<g id="node2" class="node">
<title>dir_965b04ab41d8424e7ba3e3f78bb2fea4</title>
<text text-anchor="middle" x="123" y="-159.5" font-family="Helvetica,sans-Serif" font-size="10.00">pvrdrv</text>
</g>
<!-- dir_a2c795235980acedb0cb99ba6b45f6fe -->
<g id="node3" class="node">
<title>dir_a2c795235980acedb0cb99ba6b45f6fe</title>
<g id="a_node3"><a xlink:href="dir_a2c795235980acedb0cb99ba6b45f6fe.html" target="_top" xlink:title="include">
<polygon fill="#60a2e3" stroke="#404040" points="113,-108 59,-108 59,-72 113,-72 113,-108"/>
<text text-anchor="middle" x="86" y="-87.5" font-family="Helvetica,sans-Serif" font-size="10.00">include</text>
</a>
</g>
</g>
<!-- dir_9be0baa3d4a3e9f480a9ee70594037fa -->
<g id="node5" class="node">
<title>dir_9be0baa3d4a3e9f480a9ee70594037fa</title>
<g id="a_node5"><a xlink:href="dir_9be0baa3d4a3e9f480a9ee70594037fa.html" target="_top" xlink:title="kernel">
<polygon fill="none" stroke="red" stroke-dasharray="5,2" points="194,-36 140,-36 140,0 194,0 194,-36"/>
<text text-anchor="middle" x="167" y="-15.5" font-family="Helvetica,sans-Serif" font-size="10.00">kernel</text>
</a>
</g>
</g>
<!-- dir_a2c795235980acedb0cb99ba6b45f6fe&#45;&gt;dir_9be0baa3d4a3e9f480a9ee70594037fa -->
<g id="edge1" class="edge">
<title>dir_a2c795235980acedb0cb99ba6b45f6fe&#45;&gt;dir_9be0baa3d4a3e9f480a9ee70594037fa</title>
<path fill="none" stroke="black" d="M100.9,-71.98C105.83,-66.66 111.48,-60.91 117,-56 122.26,-51.32 128.08,-46.63 133.84,-42.23"/>
<polygon fill="black" stroke="black" points="136.23,-44.82 142.15,-36.03 132.04,-39.2 136.23,-44.82"/>
<g id="a_edge1&#45;headlabel"><a xlink:href="dir_000109_000158.html" target="_top" xlink:title="1">
<text text-anchor="middle" x="135.04" y="-46.74" font-family="Helvetica,sans-Serif" font-size="10.00">1</text>
</a>
</g>
</g>
<!-- dir_318f623de840e331e96f424145758455 -->
<g id="node4" class="node">
<title>dir_318f623de840e331e96f424145758455</title>
<g id="a_node4"><a xlink:href="dir_318f623de840e331e96f424145758455.html" target="_top" xlink:title="src">
<polygon fill="#60a2e3" stroke="#404040" points="78,-180 24,-180 24,-144 78,-144 78,-180"/>
<text text-anchor="middle" x="51" y="-159.5" font-family="Helvetica,sans-Serif" font-size="10.00">src</text>
</a>
</g>
</g>
<!-- dir_318f623de840e331e96f424145758455&#45;&gt;dir_18566863331aaba44604539ca78be099 -->
<g id="edge2" class="edge">
<title>dir_318f623de840e331e96f424145758455&#45;&gt;dir_18566863331aaba44604539ca78be099</title>
<path fill="none" stroke="black" d="M78.23,-148.1C103.13,-136.28 138.45,-119.49 156.82,-110.49"/>
<polygon fill="black" stroke="black" points="158.61,-113.52 166,-105.92 155.48,-107.25 158.61,-113.52"/>
<g id="a_edge2&#45;headlabel"><a xlink:href="dir_000274_000027.html" target="_top" xlink:title="2">
<text text-anchor="middle" x="156.65" y="-115.16" font-family="Helvetica,sans-Serif" font-size="10.00">2</text>
</a>
</g>
</g>
<!-- dir_318f623de840e331e96f424145758455&#45;&gt;dir_a2c795235980acedb0cb99ba6b45f6fe -->
<g id="edge4" class="edge">
<title>dir_318f623de840e331e96f424145758455&#45;&gt;dir_a2c795235980acedb0cb99ba6b45f6fe</title>
<path fill="none" stroke="black" d="M59.65,-143.7C63.64,-135.73 68.45,-126.1 72.87,-117.26"/>
<polygon fill="black" stroke="black" points="76.11,-118.61 77.45,-108.1 69.85,-115.48 76.11,-118.61"/>
<g id="a_edge4&#45;headlabel"><a xlink:href="dir_000274_000109.html" target="_top" xlink:title="1">
<text text-anchor="middle" x="77.04" y="-120.6" font-family="Helvetica,sans-Serif" font-size="10.00">1</text>
</a>
</g>
</g>
<!-- dir_318f623de840e331e96f424145758455&#45;&gt;dir_9be0baa3d4a3e9f480a9ee70594037fa -->
<g id="edge3" class="edge">
<title>dir_318f623de840e331e96f424145758455&#45;&gt;dir_9be0baa3d4a3e9f480a9ee70594037fa</title>
<path fill="none" stroke="black" d="M78.28,-147.43C81.19,-146.19 84.14,-145.02 87,-144 149.55,-121.71 191.09,-160.3 232,-108 246.24,-89.8 243.62,-75.98 232,-56 225.63,-45.04 214.66,-37.05 203.52,-31.37"/>
<polygon fill="black" stroke="black" points="204.78,-28.1 194.23,-27.13 201.87,-34.47 204.78,-28.1"/>
<g id="a_edge3&#45;headlabel"><a xlink:href="dir_000274_000158.html" target="_top" xlink:title="14">
<text text-anchor="middle" x="209.23" y="-24.51" font-family="Helvetica,sans-Serif" font-size="10.00">14</text>
</a>
</g>
</g>
<!-- dir_bdd9a5d540de89e9fe90efdfc6973a4f -->
<g id="node6" class="node">
<title>dir_bdd9a5d540de89e9fe90efdfc6973a4f</title>
<g id="a_node6"><a xlink:href="dir_bdd9a5d540de89e9fe90efdfc6973a4f.html" target="_top" xlink:title="common">
<polygon fill="none" stroke="red" points="330,-108 276,-108 276,-72 330,-72 330,-108"/>
<text text-anchor="middle" x="303" y="-87.5" font-family="Helvetica,sans-Serif" font-size="10.00">common</text>
</a>
</g>
</g>
<!-- dir_318f623de840e331e96f424145758455&#45;&gt;dir_bdd9a5d540de89e9fe90efdfc6973a4f -->
<g id="edge5" class="edge">
<title>dir_318f623de840e331e96f424145758455&#45;&gt;dir_bdd9a5d540de89e9fe90efdfc6973a4f</title>
<path fill="none" stroke="black" d="M78.24,-147.31C81.16,-146.1 84.12,-144.96 87,-144 162.32,-118.87 186.09,-131.31 262,-108 263.43,-107.56 264.87,-107.09 266.33,-106.6"/>
<polygon fill="black" stroke="black" points="267.74,-109.81 275.92,-103.08 265.32,-103.24 267.74,-109.81"/>
<g id="a_edge5&#45;headlabel"><a xlink:href="dir_000274_000022.html" target="_top" xlink:title="2">
<text text-anchor="middle" x="265.34" y="-111.21" font-family="Helvetica,sans-Serif" font-size="10.00">2</text>
</a>
</g>
</g>
</g>
</svg>
