<?xml version="1.0" encoding="UTF-8" standalone="no"?>
<!DOCTYPE svg PUBLIC "-//W3C//DTD SVG 1.1//EN"
 "http://www.w3.org/Graphics/SVG/1.1/DTD/svg11.dtd">
<!-- Generated by graphviz version 3.0.0 (20220413.0242)
 -->
<!-- Title: ee/draw Pages: 1 -->
<svg width="370pt" height="247pt"
 viewBox="0.00 0.00 370.00 247.00" xmlns="http://www.w3.org/2000/svg" xmlns:xlink="http://www.w3.org/1999/xlink">
<g id="graph0" class="graph" transform="scale(1 1) rotate(0) translate(4 243)">
<title>ee/draw</title>
<polygon fill="white" stroke="transparent" points="-4,4 -4,-243 366,-243 366,4 -4,4"/>
<g id="clust1" class="cluster">
<title>clusterdir_049738f1909e8dc3e45fe1f6b3faa109</title>
<g id="a_clust1"><a xlink:href="dir_049738f1909e8dc3e45fe1f6b3faa109.html" target="_top" xlink:title="ee">
<polygon fill="#deebf9" stroke="#404040" stroke-dasharray="5,2" points="8,-8 8,-231 300,-231 300,-8 8,-8"/>
<text text-anchor="middle" x="154" y="-219" font-family="Helvetica,sans-Serif" font-size="10.00">ee</text>
</a>
</g>
</g>
<g id="clust2" class="cluster">
<title>clusterdir_2649a81c7f56a709216892bc1285ef27</title>
<g id="a_clust2"><a xlink:href="dir_2649a81c7f56a709216892bc1285ef27.html" target="_top">
<polygon fill="#deebf9" stroke="#404040" stroke-width="2" points="16,-80 16,-204 158,-204 158,-80 16,-80"/>
</a>
</g>
</g>
<!-- dir_ef61ae23abebf035898b2c6525d9b365 -->
<g id="node1" class="node">
<title>dir_ef61ae23abebf035898b2c6525d9b365</title>
<g id="a_node1"><a xlink:href="dir_ef61ae23abebf035898b2c6525d9b365.html" target="_top" xlink:title="math3d">
<polygon fill="#60a2e3" stroke="red" points="113,-52 59,-52 59,-16 113,-16 113,-52"/>
<text text-anchor="middle" x="86" y="-31.5" font-family="Helvetica,sans-Serif" font-size="10.00">math3d</text>
</a>
</g>
</g>
<!-- dir_d6c8ea3c46b2d4fe2308a65fe0836890 -->
<g id="node2" class="node">
<title>dir_d6c8ea3c46b2d4fe2308a65fe0836890</title>
<g id="a_node2"><a xlink:href="dir_d6c8ea3c46b2d4fe2308a65fe0836890.html" target="_top" xlink:title="dma">
<polygon fill="#60a2e3" stroke="red" points="220,-124 166,-124 166,-88 220,-88 220,-124"/>
<text text-anchor="middle" x="193" y="-103.5" font-family="Helvetica,sans-Serif" font-size="10.00">dma</text>
</a>
</g>
</g>
<!-- dir_a0a8ac7efb6662b749c1285408048e6d -->
<g id="node3" class="node">
<title>dir_a0a8ac7efb6662b749c1285408048e6d</title>
<g id="a_node3"><a xlink:href="dir_a0a8ac7efb6662b749c1285408048e6d.html" target="_top" xlink:title="erl">
<polygon fill="#60a2e3" stroke="red" points="292,-124 238,-124 238,-88 292,-88 292,-124"/>
<text text-anchor="middle" x="265" y="-103.5" font-family="Helvetica,sans-Serif" font-size="10.00">erl</text>
</a>
</g>
</g>
<!-- dir_2649a81c7f56a709216892bc1285ef27 -->
<g id="node4" class="node">
<title>dir_2649a81c7f56a709216892bc1285ef27</title>
<text text-anchor="middle" x="123" y="-175.5" font-family="Helvetica,sans-Serif" font-size="10.00">draw</text>
</g>
<!-- dir_21c98801a0c0c7d17001a0beb0986fce -->
<g id="node5" class="node">
<title>dir_21c98801a0c0c7d17001a0beb0986fce</title>
<g id="a_node5"><a xlink:href="dir_21c98801a0c0c7d17001a0beb0986fce.html" target="_top" xlink:title="include">
<polygon fill="#60a2e3" stroke="#404040" points="113,-124 59,-124 59,-88 113,-88 113,-124"/>
<text text-anchor="middle" x="86" y="-103.5" font-family="Helvetica,sans-Serif" font-size="10.00">include</text>
</a>
</g>
</g>
<!-- dir_21c98801a0c0c7d17001a0beb0986fce&#45;&gt;dir_ef61ae23abebf035898b2c6525d9b365 -->
<g id="edge2" class="edge">
<title>dir_21c98801a0c0c7d17001a0beb0986fce&#45;&gt;dir_ef61ae23abebf035898b2c6525d9b365</title>
<path fill="none" stroke="black" d="M86,-87.7C86,-79.98 86,-70.71 86,-62.11"/>
<polygon fill="black" stroke="black" points="89.5,-62.1 86,-52.1 82.5,-62.1 89.5,-62.1"/>
<g id="a_edge2&#45;headlabel"><a xlink:href="dir_000066_000172.html" target="_top" xlink:title="1">
<text text-anchor="middle" x="92.34" y="-63.2" font-family="Helvetica,sans-Serif" font-size="10.00">1</text>
</a>
</g>
</g>
<!-- dir_bdd9a5d540de89e9fe90efdfc6973a4f -->
<g id="node7" class="node">
<title>dir_bdd9a5d540de89e9fe90efdfc6973a4f</title>
<g id="a_node7"><a xlink:href="dir_bdd9a5d540de89e9fe90efdfc6973a4f.html" target="_top" xlink:title="common">
<polygon fill="none" stroke="red" points="362,-52 308,-52 308,-16 362,-16 362,-52"/>
<text text-anchor="middle" x="335" y="-31.5" font-family="Helvetica,sans-Serif" font-size="10.00">common</text>
</a>
</g>
</g>
<!-- dir_21c98801a0c0c7d17001a0beb0986fce&#45;&gt;dir_bdd9a5d540de89e9fe90efdfc6973a4f -->
<g id="edge1" class="edge">
<title>dir_21c98801a0c0c7d17001a0beb0986fce&#45;&gt;dir_bdd9a5d540de89e9fe90efdfc6973a4f</title>
<path fill="none" stroke="black" d="M103.96,-87.92C108,-84.85 112.44,-82 117,-80 190.94,-47.54 221.92,-76.4 298.31,-53.61"/>
<polygon fill="black" stroke="black" points="299.39,-56.94 307.85,-50.56 297.26,-50.27 299.39,-56.94"/>
<g id="a_edge1&#45;headlabel"><a xlink:href="dir_000066_000022.html" target="_top" xlink:title="12">
<text text-anchor="middle" x="296.83" y="-58.23" font-family="Helvetica,sans-Serif" font-size="10.00">12</text>
</a>
</g>
</g>
<!-- dir_ca6cfcffd6c37235e476126984936748 -->
<g id="node6" class="node">
<title>dir_ca6cfcffd6c37235e476126984936748</title>
<g id="a_node6"><a xlink:href="dir_ca6cfcffd6c37235e476126984936748.html" target="_top" xlink:title="src">
<polygon fill="#60a2e3" stroke="#404040" points="78,-196 24,-196 24,-160 78,-160 78,-196"/>
<text text-anchor="middle" x="51" y="-175.5" font-family="Helvetica,sans-Serif" font-size="10.00">src</text>
</a>
</g>
</g>
<!-- dir_ca6cfcffd6c37235e476126984936748&#45;&gt;dir_d6c8ea3c46b2d4fe2308a65fe0836890 -->
<g id="edge6" class="edge">
<title>dir_ca6cfcffd6c37235e476126984936748&#45;&gt;dir_d6c8ea3c46b2d4fe2308a65fe0836890</title>
<path fill="none" stroke="black" d="M78.23,-164.1C103.13,-152.28 138.45,-135.49 156.82,-126.49"/>
<polygon fill="black" stroke="black" points="158.61,-129.52 166,-121.92 155.48,-123.25 158.61,-129.52"/>
<g id="a_edge6&#45;headlabel"><a xlink:href="dir_000224_000029.html" target="_top" xlink:title="1">
<text text-anchor="middle" x="156.65" y="-131.16" font-family="Helvetica,sans-Serif" font-size="10.00">1</text>
</a>
</g>
</g>
<!-- dir_ca6cfcffd6c37235e476126984936748&#45;&gt;dir_a0a8ac7efb6662b749c1285408048e6d -->
<g id="edge4" class="edge">
<title>dir_ca6cfcffd6c37235e476126984936748&#45;&gt;dir_a0a8ac7efb6662b749c1285408048e6d</title>
<path fill="none" stroke="black" d="M78.29,-163.45C81.2,-162.2 84.14,-161.03 87,-160 145.4,-139.03 165.81,-145.32 228.19,-123.92"/>
<polygon fill="black" stroke="black" points="229.45,-127.18 237.71,-120.55 227.12,-120.58 229.45,-127.18"/>
<g id="a_edge4&#45;headlabel"><a xlink:href="dir_000224_000042.html" target="_top" xlink:title="1">
<text text-anchor="middle" x="227.01" y="-128.56" font-family="Helvetica,sans-Serif" font-size="10.00">1</text>
</a>
</g>
</g>
<!-- dir_ca6cfcffd6c37235e476126984936748&#45;&gt;dir_21c98801a0c0c7d17001a0beb0986fce -->
<g id="edge3" class="edge">
<title>dir_ca6cfcffd6c37235e476126984936748&#45;&gt;dir_21c98801a0c0c7d17001a0beb0986fce</title>
<path fill="none" stroke="black" d="M59.65,-159.7C63.64,-151.73 68.45,-142.1 72.87,-133.26"/>
<polygon fill="black" stroke="black" points="76.11,-134.61 77.45,-124.1 69.85,-131.48 76.11,-134.61"/>
<g id="a_edge3&#45;headlabel"><a xlink:href="dir_000224_000066.html" target="_top" xlink:title="7">
<text text-anchor="middle" x="77.04" y="-136.6" font-family="Helvetica,sans-Serif" font-size="10.00">7</text>
</a>
</g>
</g>
<!-- dir_ca6cfcffd6c37235e476126984936748&#45;&gt;dir_bdd9a5d540de89e9fe90efdfc6973a4f -->
<g id="edge5" class="edge">
<title>dir_ca6cfcffd6c37235e476126984936748&#45;&gt;dir_bdd9a5d540de89e9fe90efdfc6973a4f</title>
<path fill="none" stroke="black" d="M78.2,-163.2C81.13,-162 84.1,-160.91 87,-160 180.32,-130.85 229.23,-186.98 304,-124 322.03,-108.81 329.59,-82.52 332.75,-62.44"/>
<polygon fill="black" stroke="black" points="336.24,-62.68 334.06,-52.32 329.3,-61.78 336.24,-62.68"/>
<g id="a_edge5&#45;headlabel"><a xlink:href="dir_000224_000022.html" target="_top" xlink:title="12">
<text text-anchor="middle" x="338.6" y="-64.11" font-family="Helvetica,sans-Serif" font-size="10.00">12</text>
</a>
</g>
</g>
</g>
</svg>
