<?xml version="1.0" encoding="UTF-8" standalone="no"?>
<!DOCTYPE svg PUBLIC "-//W3C//DTD SVG 1.1//EN"
 "http://www.w3.org/Graphics/SVG/1.1/DTD/svg11.dtd">
<!-- Generated by graphviz version 3.0.0 (20220413.0242)
 -->
<!-- Title: ee/eedebug/src Pages: 1 -->
<svg width="222pt" height="167pt"
 viewBox="0.00 0.00 222.00 167.00" xmlns="http://www.w3.org/2000/svg" xmlns:xlink="http://www.w3.org/1999/xlink">
<g id="graph0" class="graph" transform="scale(1 1) rotate(0) translate(4 163)">
<title>ee/eedebug/src</title>
<polygon fill="white" stroke="transparent" points="-4,4 -4,-163 218,-163 218,4 -4,4"/>
<g id="clust1" class="cluster">
<title>clusterdir_650207f478e190855aca53e9453b1a94</title>
<g id="a_clust1"><a xlink:href="dir_650207f478e190855aca53e9453b1a94.html" target="_top" xlink:title="eedebug">
<polygon fill="#deebf9" stroke="#7f7f7f" stroke-dasharray="5,2" points="8,-8 8,-151 78,-151 78,-8 8,-8"/>
<text text-anchor="middle" x="43" y="-139" font-family="Helvetica,sans-Serif" font-size="10.00">eedebug</text>
</a>
</g>
</g>
<!-- dir_60b92096f37991a4061e29e96b6ea950 -->
<g id="node1" class="node">
<title>dir_60b92096f37991a4061e29e96b6ea950</title>
<g id="a_node1"><a xlink:href="dir_60b92096f37991a4061e29e96b6ea950.html" target="_top" xlink:title="include">
<polygon fill="#60a2e3" stroke="#404040" points="70,-52 16,-52 16,-16 70,-16 70,-52"/>
<text text-anchor="middle" x="43" y="-31.5" font-family="Helvetica,sans-Serif" font-size="10.00">include</text>
</a>
</g>
</g>
<!-- dir_60c0b0581c07fba9514a94139971315c -->
<g id="node2" class="node">
<title>dir_60c0b0581c07fba9514a94139971315c</title>
<g id="a_node2"><a xlink:href="dir_60c0b0581c07fba9514a94139971315c.html" target="_top" xlink:title="src">
<polygon fill="#deebf9" stroke="#404040" stroke-width="2" points="70,-124 16,-124 16,-88 70,-88 70,-124"/>
<text text-anchor="middle" x="43" y="-103.5" font-family="Helvetica,sans-Serif" font-size="10.00">src</text>
</a>
</g>
</g>
<!-- dir_60c0b0581c07fba9514a94139971315c&#45;&gt;dir_60b92096f37991a4061e29e96b6ea950 -->
<g id="edge1" class="edge">
<title>dir_60c0b0581c07fba9514a94139971315c&#45;&gt;dir_60b92096f37991a4061e29e96b6ea950</title>
<path fill="none" stroke="black" d="M43,-87.7C43,-79.98 43,-70.71 43,-62.11"/>
<polygon fill="black" stroke="black" points="46.5,-62.1 43,-52.1 39.5,-62.1 46.5,-62.1"/>
<g id="a_edge1&#45;headlabel"><a xlink:href="dir_000225_000067.html" target="_top" xlink:title="1">
<text text-anchor="middle" x="49.34" y="-63.2" font-family="Helvetica,sans-Serif" font-size="10.00">1</text>
</a>
</g>
</g>
<!-- dir_694ec83a64f58cbdefbefce65cd1011c -->
<g id="node3" class="node">
<title>dir_694ec83a64f58cbdefbefce65cd1011c</title>
<g id="a_node3"><a xlink:href="dir_694ec83a64f58cbdefbefce65cd1011c.html" target="_top" xlink:title="kernel">
<polygon fill="none" stroke="red" stroke-dasharray="5,2" points="142,-52 88,-52 88,-16 142,-16 142,-52"/>
<text text-anchor="middle" x="115" y="-31.5" font-family="Helvetica,sans-Serif" font-size="10.00">kernel</text>
</a>
</g>
</g>
<!-- dir_60c0b0581c07fba9514a94139971315c&#45;&gt;dir_694ec83a64f58cbdefbefce65cd1011c -->
<g id="edge2" class="edge">
<title>dir_60c0b0581c07fba9514a94139971315c&#45;&gt;dir_694ec83a64f58cbdefbefce65cd1011c</title>
<path fill="none" stroke="black" d="M60.8,-87.7C69.6,-79.14 80.38,-68.66 90,-59.3"/>
<polygon fill="black" stroke="black" points="92.68,-61.58 97.41,-52.1 87.8,-56.57 92.68,-61.58"/>
<g id="a_edge2&#45;headlabel"><a xlink:href="dir_000225_000157.html" target="_top" xlink:title="1">
<text text-anchor="middle" x="92.08" y="-63.63" font-family="Helvetica,sans-Serif" font-size="10.00">1</text>
</a>
</g>
</g>
<!-- dir_a0a8ac7efb6662b749c1285408048e6d -->
<g id="node4" class="node">
<title>dir_a0a8ac7efb6662b749c1285408048e6d</title>
<g id="a_node4"><a xlink:href="dir_a0a8ac7efb6662b749c1285408048e6d.html" target="_top" xlink:title="erl">
<polygon fill="none" stroke="red" stroke-dasharray="5,2" points="214,-52 160,-52 160,-16 214,-16 214,-52"/>
<text text-anchor="middle" x="187" y="-31.5" font-family="Helvetica,sans-Serif" font-size="10.00">erl</text>
</a>
</g>
</g>
<!-- dir_60c0b0581c07fba9514a94139971315c&#45;&gt;dir_a0a8ac7efb6662b749c1285408048e6d -->
<g id="edge3" class="edge">
<title>dir_60c0b0581c07fba9514a94139971315c&#45;&gt;dir_a0a8ac7efb6662b749c1285408048e6d</title>
<path fill="none" stroke="black" d="M70.09,-91.83C92.77,-80.81 125.36,-64.97 150.37,-52.81"/>
<polygon fill="black" stroke="black" points="152.08,-55.87 159.55,-48.35 149.02,-49.57 152.08,-55.87"/>
<g id="a_edge3&#45;headlabel"><a xlink:href="dir_000225_000042.html" target="_top" xlink:title="1">
<text text-anchor="middle" x="150.09" y="-57.49" font-family="Helvetica,sans-Serif" font-size="10.00">1</text>
</a>
</g>
</g>
</g>
</svg>
