<?xml version="1.0" encoding="UTF-8" standalone="no"?>
<!DOCTYPE svg PUBLIC "-//W3C//DTD SVG 1.1//EN"
 "http://www.w3.org/Graphics/SVG/1.1/DTD/svg11.dtd">
<!-- Generated by graphviz version 3.0.0 (20220413.0242)
 -->
<!-- Title: iop/debug/iop_sbusdbg/src Pages: 1 -->
<svg width="208pt" height="151pt"
 viewBox="0.00 0.00 208.00 151.00" xmlns="http://www.w3.org/2000/svg" xmlns:xlink="http://www.w3.org/1999/xlink">
<g id="graph0" class="graph" transform="scale(1 1) rotate(0) translate(4 147)">
<title>iop/debug/iop_sbusdbg/src</title>
<polygon fill="white" stroke="transparent" points="-4,4 -4,-147 204,-147 204,4 -4,4"/>
<g id="clust1" class="cluster">
<title>clusterdir_2f080771f6205bbf07c3b5e6545bd3fa</title>
<g id="a_clust1"><a xlink:href="dir_2f080771f6205bbf07c3b5e6545bd3fa.html" target="_top" xlink:title="iop_sbusdbg">
<polygon fill="#deebf9" stroke="#7f7f7f" stroke-dasharray="5,2" points="65,-64 65,-135 136,-135 136,-64 65,-64"/>
<text text-anchor="middle" x="100.5" y="-123" font-family="Helvetica,sans-Serif" font-size="10.00">iop_sbusdbg</text>
</a>
</g>
</g>
<!-- dir_b885b894e4096334a2f073c9bc278b43 -->
<g id="node1" class="node">
<title>dir_b885b894e4096334a2f073c9bc278b43</title>
<g id="a_node1"><a xlink:href="dir_b885b894e4096334a2f073c9bc278b43.html" target="_top" xlink:title="src">
<polygon fill="#deebf9" stroke="#404040" stroke-width="2" points="127,-108 73,-108 73,-72 127,-72 127,-108"/>
<text text-anchor="middle" x="100" y="-87.5" font-family="Helvetica,sans-Serif" font-size="10.00">src</text>
</a>
</g>
</g>
<!-- dir_9be0baa3d4a3e9f480a9ee70594037fa -->
<g id="node2" class="node">
<title>dir_9be0baa3d4a3e9f480a9ee70594037fa</title>
<g id="a_node2"><a xlink:href="dir_9be0baa3d4a3e9f480a9ee70594037fa.html" target="_top" xlink:title="kernel">
<polygon fill="none" stroke="red" stroke-dasharray="5,2" points="54,-36 0,-36 0,0 54,0 54,-36"/>
<text text-anchor="middle" x="27" y="-15.5" font-family="Helvetica,sans-Serif" font-size="10.00">kernel</text>
</a>
</g>
</g>
<!-- dir_b885b894e4096334a2f073c9bc278b43&#45;&gt;dir_9be0baa3d4a3e9f480a9ee70594037fa -->
<g id="edge1" class="edge">
<title>dir_b885b894e4096334a2f073c9bc278b43&#45;&gt;dir_9be0baa3d4a3e9f480a9ee70594037fa</title>
<path fill="none" stroke="black" d="M81.96,-71.7C72.94,-63.05 61.88,-52.45 52.06,-43.03"/>
<polygon fill="black" stroke="black" points="54.48,-40.5 44.84,-36.1 49.63,-45.55 54.48,-40.5"/>
<g id="a_edge1&#45;headlabel"><a xlink:href="dir_000265_000158.html" target="_top" xlink:title="30">
<text text-anchor="middle" x="59.04" y="-38.44" font-family="Helvetica,sans-Serif" font-size="10.00">30</text>
</a>
</g>
</g>
<!-- dir_b128a11f24e38182ade4e9889f6c5833 -->
<g id="node3" class="node">
<title>dir_b128a11f24e38182ade4e9889f6c5833</title>
<g id="a_node3"><a xlink:href="dir_b128a11f24e38182ade4e9889f6c5833.html" target="_top" xlink:title="iopdebug">
<polygon fill="none" stroke="red" stroke-dasharray="5,2" points="128,-36 72,-36 72,0 128,0 128,-36"/>
<text text-anchor="middle" x="100" y="-15.5" font-family="Helvetica,sans-Serif" font-size="10.00">iopdebug</text>
</a>
</g>
</g>
<!-- dir_b885b894e4096334a2f073c9bc278b43&#45;&gt;dir_b128a11f24e38182ade4e9889f6c5833 -->
<g id="edge2" class="edge">
<title>dir_b885b894e4096334a2f073c9bc278b43&#45;&gt;dir_b128a11f24e38182ade4e9889f6c5833</title>
<path fill="none" stroke="black" d="M100,-71.7C100,-63.98 100,-54.71 100,-46.11"/>
<polygon fill="black" stroke="black" points="103.5,-46.1 100,-36.1 96.5,-46.1 103.5,-46.1"/>
<g id="a_edge2&#45;headlabel"><a xlink:href="dir_000265_000153.html" target="_top" xlink:title="4">
<text text-anchor="middle" x="106.34" y="-47.2" font-family="Helvetica,sans-Serif" font-size="10.00">4</text>
</a>
</g>
</g>
<!-- dir_bdd9a5d540de89e9fe90efdfc6973a4f -->
<g id="node4" class="node">
<title>dir_bdd9a5d540de89e9fe90efdfc6973a4f</title>
<g id="a_node4"><a xlink:href="dir_bdd9a5d540de89e9fe90efdfc6973a4f.html" target="_top" xlink:title="common">
<polygon fill="none" stroke="red" points="200,-36 146,-36 146,0 200,0 200,-36"/>
<text text-anchor="middle" x="173" y="-15.5" font-family="Helvetica,sans-Serif" font-size="10.00">common</text>
</a>
</g>
</g>
<!-- dir_b885b894e4096334a2f073c9bc278b43&#45;&gt;dir_bdd9a5d540de89e9fe90efdfc6973a4f -->
<g id="edge3" class="edge">
<title>dir_b885b894e4096334a2f073c9bc278b43&#45;&gt;dir_bdd9a5d540de89e9fe90efdfc6973a4f</title>
<path fill="none" stroke="black" d="M118.04,-71.7C127.06,-63.05 138.12,-52.45 147.94,-43.03"/>
<polygon fill="black" stroke="black" points="150.37,-45.55 155.16,-36.1 145.52,-40.5 150.37,-45.55"/>
<g id="a_edge3&#45;headlabel"><a xlink:href="dir_000265_000022.html" target="_top" xlink:title="12">
<text text-anchor="middle" x="149.74" y="-47.59" font-family="Helvetica,sans-Serif" font-size="10.00">12</text>
</a>
</g>
</g>
</g>
</svg>
