<?xml version="1.0" encoding="UTF-8" standalone="no"?>
<!DOCTYPE svg PUBLIC "-//W3C//DTD SVG 1.1//EN"
 "http://www.w3.org/Graphics/SVG/1.1/DTD/svg11.dtd">
<!-- Generated by graphviz version 3.0.0 (20220413.0242)
 -->
<!-- Title: ee/rpc/audsrv/src Pages: 1 -->
<svg width="278pt" height="151pt"
 viewBox="0.00 0.00 278.00 151.00" xmlns="http://www.w3.org/2000/svg" xmlns:xlink="http://www.w3.org/1999/xlink">
<g id="graph0" class="graph" transform="scale(1 1) rotate(0) translate(4 147)">
<title>ee/rpc/audsrv/src</title>
<polygon fill="white" stroke="transparent" points="-4,4 -4,-147 274,-147 274,4 -4,4"/>
<g id="clust1" class="cluster">
<title>clusterdir_2f702b7d905adcbb9469a6404dbe84ec</title>
<g id="a_clust1"><a xlink:href="dir_2f702b7d905adcbb9469a6404dbe84ec.html" target="_top" xlink:title="audsrv">
<polygon fill="#deebf9" stroke="#7f7f7f" stroke-dasharray="5,2" points="100,-64 100,-135 170,-135 170,-64 100,-64"/>
<text text-anchor="middle" x="135" y="-123" font-family="Helvetica,sans-Serif" font-size="10.00">audsrv</text>
</a>
</g>
</g>
<!-- dir_6f34e666724a9a843f952a9b1fa7880b -->
<g id="node1" class="node">
<title>dir_6f34e666724a9a843f952a9b1fa7880b</title>
<g id="a_node1"><a xlink:href="dir_6f34e666724a9a843f952a9b1fa7880b.html" target="_top" xlink:title="src">
<polygon fill="#deebf9" stroke="#404040" stroke-width="2" points="162,-108 108,-108 108,-72 162,-72 162,-108"/>
<text text-anchor="middle" x="135" y="-87.5" font-family="Helvetica,sans-Serif" font-size="10.00">src</text>
</a>
</g>
</g>
<!-- dir_0981ace215aa2029f526b70c145b9fbe -->
<g id="node2" class="node">
<title>dir_0981ace215aa2029f526b70c145b9fbe</title>
<g id="a_node2"><a xlink:href="dir_0981ace215aa2029f526b70c145b9fbe.html" target="_top" xlink:title="iop">
<polygon fill="none" stroke="red" points="54,-36 0,-36 0,0 54,0 54,-36"/>
<text text-anchor="middle" x="27" y="-15.5" font-family="Helvetica,sans-Serif" font-size="10.00">iop</text>
</a>
</g>
</g>
<!-- dir_6f34e666724a9a843f952a9b1fa7880b&#45;&gt;dir_0981ace215aa2029f526b70c145b9fbe -->
<g id="edge1" class="edge">
<title>dir_6f34e666724a9a843f952a9b1fa7880b&#45;&gt;dir_0981ace215aa2029f526b70c145b9fbe</title>
<path fill="none" stroke="black" d="M108.58,-71.88C94.59,-62.81 77.22,-51.55 62.11,-41.76"/>
<polygon fill="black" stroke="black" points="63.82,-38.69 53.52,-36.19 60.01,-44.57 63.82,-38.69"/>
<g id="a_edge1&#45;headlabel"><a xlink:href="dir_000248_000151.html" target="_top" xlink:title="1">
<text text-anchor="middle" x="68.38" y="-35.76" font-family="Helvetica,sans-Serif" font-size="10.00">1</text>
</a>
</g>
</g>
<!-- dir_694ec83a64f58cbdefbefce65cd1011c -->
<g id="node3" class="node">
<title>dir_694ec83a64f58cbdefbefce65cd1011c</title>
<g id="a_node3"><a xlink:href="dir_694ec83a64f58cbdefbefce65cd1011c.html" target="_top" xlink:title="kernel">
<polygon fill="none" stroke="red" stroke-dasharray="5,2" points="126,-36 72,-36 72,0 126,0 126,-36"/>
<text text-anchor="middle" x="99" y="-15.5" font-family="Helvetica,sans-Serif" font-size="10.00">kernel</text>
</a>
</g>
</g>
<!-- dir_6f34e666724a9a843f952a9b1fa7880b&#45;&gt;dir_694ec83a64f58cbdefbefce65cd1011c -->
<g id="edge2" class="edge">
<title>dir_6f34e666724a9a843f952a9b1fa7880b&#45;&gt;dir_694ec83a64f58cbdefbefce65cd1011c</title>
<path fill="none" stroke="black" d="M126.1,-71.7C122,-63.73 117.05,-54.1 112.51,-45.26"/>
<polygon fill="black" stroke="black" points="115.48,-43.4 107.8,-36.1 109.26,-46.6 115.48,-43.4"/>
<g id="a_edge2&#45;headlabel"><a xlink:href="dir_000248_000157.html" target="_top" xlink:title="2">
<text text-anchor="middle" x="119.65" y="-42.79" font-family="Helvetica,sans-Serif" font-size="10.00">2</text>
</a>
</g>
</g>
<!-- dir_a0a8ac7efb6662b749c1285408048e6d -->
<g id="node4" class="node">
<title>dir_a0a8ac7efb6662b749c1285408048e6d</title>
<g id="a_node4"><a xlink:href="dir_a0a8ac7efb6662b749c1285408048e6d.html" target="_top" xlink:title="erl">
<polygon fill="none" stroke="red" stroke-dasharray="5,2" points="198,-36 144,-36 144,0 198,0 198,-36"/>
<text text-anchor="middle" x="171" y="-15.5" font-family="Helvetica,sans-Serif" font-size="10.00">erl</text>
</a>
</g>
</g>
<!-- dir_6f34e666724a9a843f952a9b1fa7880b&#45;&gt;dir_a0a8ac7efb6662b749c1285408048e6d -->
<g id="edge3" class="edge">
<title>dir_6f34e666724a9a843f952a9b1fa7880b&#45;&gt;dir_a0a8ac7efb6662b749c1285408048e6d</title>
<path fill="none" stroke="black" d="M143.9,-71.7C148,-63.73 152.95,-54.1 157.49,-45.26"/>
<polygon fill="black" stroke="black" points="160.74,-46.6 162.2,-36.1 154.52,-43.4 160.74,-46.6"/>
<g id="a_edge3&#45;headlabel"><a xlink:href="dir_000248_000042.html" target="_top" xlink:title="1">
<text text-anchor="middle" x="161.62" y="-48.59" font-family="Helvetica,sans-Serif" font-size="10.00">1</text>
</a>
</g>
</g>
<!-- dir_bdd9a5d540de89e9fe90efdfc6973a4f -->
<g id="node5" class="node">
<title>dir_bdd9a5d540de89e9fe90efdfc6973a4f</title>
<g id="a_node5"><a xlink:href="dir_bdd9a5d540de89e9fe90efdfc6973a4f.html" target="_top" xlink:title="common">
<polygon fill="none" stroke="red" points="270,-36 216,-36 216,0 270,0 270,-36"/>
<text text-anchor="middle" x="243" y="-15.5" font-family="Helvetica,sans-Serif" font-size="10.00">common</text>
</a>
</g>
</g>
<!-- dir_6f34e666724a9a843f952a9b1fa7880b&#45;&gt;dir_bdd9a5d540de89e9fe90efdfc6973a4f -->
<g id="edge4" class="edge">
<title>dir_6f34e666724a9a843f952a9b1fa7880b&#45;&gt;dir_bdd9a5d540de89e9fe90efdfc6973a4f</title>
<path fill="none" stroke="black" d="M161.42,-71.88C175.41,-62.81 192.78,-51.55 207.89,-41.76"/>
<polygon fill="black" stroke="black" points="209.99,-44.57 216.48,-36.19 206.18,-38.69 209.99,-44.57"/>
<g id="a_edge4&#45;headlabel"><a xlink:href="dir_000248_000022.html" target="_top" xlink:title="1">
<text text-anchor="middle" x="208.52" y="-46.4" font-family="Helvetica,sans-Serif" font-size="10.00">1</text>
</a>
</g>
</g>
</g>
</svg>
