<?xml version="1.0" encoding="UTF-8" standalone="no"?>
<!DOCTYPE svg PUBLIC "-//W3C//DTD SVG 1.1//EN"
 "http://www.w3.org/Graphics/SVG/1.1/DTD/svg11.dtd">
<!-- Generated by graphviz version 3.0.0 (20220413.0242)
 -->
<!-- Title: ee/rpc/tcpips Pages: 1 -->
<svg width="327pt" height="231pt"
 viewBox="0.00 0.00 327.20 231.00" xmlns="http://www.w3.org/2000/svg" xmlns:xlink="http://www.w3.org/1999/xlink">
<g id="graph0" class="graph" transform="scale(1 1) rotate(0) translate(4 227)">
<title>ee/rpc/tcpips</title>
<polygon fill="white" stroke="transparent" points="-4,4 -4,-227 323.2,-227 323.2,4 -4,4"/>
<g id="clust1" class="cluster">
<title>clusterdir_5b119dc963fa9b25ef41951231899460</title>
<g id="a_clust1"><a xlink:href="dir_5b119dc963fa9b25ef41951231899460.html" target="_top" xlink:title="rpc">
<polygon fill="#deebf9" stroke="#7f7f7f" stroke-dasharray="5,2" points="8,-56 8,-215 166,-215 166,-56 8,-56"/>
<text text-anchor="middle" x="87" y="-203" font-family="Helvetica,sans-Serif" font-size="10.00">rpc</text>
</a>
</g>
</g>
<g id="clust2" class="cluster">
<title>clusterdir_d367c99d526987235c59a734292a94e2</title>
<g id="a_clust2"><a xlink:href="dir_d367c99d526987235c59a734292a94e2.html" target="_top">
<polygon fill="#deebf9" stroke="#404040" stroke-width="2" points="16,-64 16,-188 158,-188 158,-64 16,-64"/>
</a>
</g>
</g>
<!-- dir_d367c99d526987235c59a734292a94e2 -->
<g id="node1" class="node">
<title>dir_d367c99d526987235c59a734292a94e2</title>
<text text-anchor="middle" x="123" y="-159.5" font-family="Helvetica,sans-Serif" font-size="10.00">tcpips</text>
</g>
<!-- dir_be6a4eb92b3e198248caebd4132877bb -->
<g id="node2" class="node">
<title>dir_be6a4eb92b3e198248caebd4132877bb</title>
<g id="a_node2"><a xlink:href="dir_be6a4eb92b3e198248caebd4132877bb.html" target="_top" xlink:title="include">
<polygon fill="#60a2e3" stroke="#404040" points="114,-108 60,-108 60,-72 114,-72 114,-108"/>
<text text-anchor="middle" x="87" y="-87.5" font-family="Helvetica,sans-Serif" font-size="10.00">include</text>
</a>
</g>
</g>
<!-- dir_0981ace215aa2029f526b70c145b9fbe -->
<g id="node4" class="node">
<title>dir_0981ace215aa2029f526b70c145b9fbe</title>
<g id="a_node4"><a xlink:href="dir_0981ace215aa2029f526b70c145b9fbe.html" target="_top" xlink:title="iop">
<polygon fill="none" stroke="red" points="114,-36 60,-36 60,0 114,0 114,-36"/>
<text text-anchor="middle" x="87" y="-15.5" font-family="Helvetica,sans-Serif" font-size="10.00">iop</text>
</a>
</g>
</g>
<!-- dir_be6a4eb92b3e198248caebd4132877bb&#45;&gt;dir_0981ace215aa2029f526b70c145b9fbe -->
<g id="edge1" class="edge">
<title>dir_be6a4eb92b3e198248caebd4132877bb&#45;&gt;dir_0981ace215aa2029f526b70c145b9fbe</title>
<path fill="none" stroke="black" d="M87,-71.7C87,-63.98 87,-54.71 87,-46.11"/>
<polygon fill="black" stroke="black" points="90.5,-46.1 87,-36.1 83.5,-46.1 90.5,-46.1"/>
<g id="a_edge1&#45;headlabel"><a xlink:href="dir_000100_000151.html" target="_top" xlink:title="1">
<text text-anchor="middle" x="93.34" y="-47.2" font-family="Helvetica,sans-Serif" font-size="10.00">1</text>
</a>
</g>
</g>
<!-- dir_bdd9a5d540de89e9fe90efdfc6973a4f -->
<g id="node7" class="node">
<title>dir_bdd9a5d540de89e9fe90efdfc6973a4f</title>
<g id="a_node7"><a xlink:href="dir_bdd9a5d540de89e9fe90efdfc6973a4f.html" target="_top" xlink:title="common">
<polygon fill="none" stroke="red" points="270,-36 216,-36 216,0 270,0 270,-36"/>
<text text-anchor="middle" x="243" y="-15.5" font-family="Helvetica,sans-Serif" font-size="10.00">common</text>
</a>
</g>
</g>
<!-- dir_be6a4eb92b3e198248caebd4132877bb&#45;&gt;dir_bdd9a5d540de89e9fe90efdfc6973a4f -->
<g id="edge2" class="edge">
<title>dir_be6a4eb92b3e198248caebd4132877bb&#45;&gt;dir_bdd9a5d540de89e9fe90efdfc6973a4f</title>
<path fill="none" stroke="black" d="M114.17,-76.81C139.82,-65.3 178.45,-47.96 206.72,-35.28"/>
<polygon fill="black" stroke="black" points="208.19,-38.46 215.88,-31.17 205.32,-32.07 208.19,-38.46"/>
<g id="a_edge2&#45;headlabel"><a xlink:href="dir_000100_000022.html" target="_top" xlink:title="1">
<text text-anchor="middle" x="206.07" y="-40.02" font-family="Helvetica,sans-Serif" font-size="10.00">1</text>
</a>
</g>
</g>
<!-- dir_06508ded56efeb0264642d328f7c09ba -->
<g id="node3" class="node">
<title>dir_06508ded56efeb0264642d328f7c09ba</title>
<g id="a_node3"><a xlink:href="dir_06508ded56efeb0264642d328f7c09ba.html" target="_top" xlink:title="src">
<polygon fill="#60a2e3" stroke="#404040" points="78,-180 24,-180 24,-144 78,-144 78,-180"/>
<text text-anchor="middle" x="51" y="-159.5" font-family="Helvetica,sans-Serif" font-size="10.00">src</text>
</a>
</g>
</g>
<!-- dir_06508ded56efeb0264642d328f7c09ba&#45;&gt;dir_be6a4eb92b3e198248caebd4132877bb -->
<g id="edge6" class="edge">
<title>dir_06508ded56efeb0264642d328f7c09ba&#45;&gt;dir_be6a4eb92b3e198248caebd4132877bb</title>
<path fill="none" stroke="black" d="M59.9,-143.7C64,-135.73 68.95,-126.1 73.49,-117.26"/>
<polygon fill="black" stroke="black" points="76.74,-118.6 78.2,-108.1 70.52,-115.4 76.74,-118.6"/>
<g id="a_edge6&#45;headlabel"><a xlink:href="dir_000262_000100.html" target="_top" xlink:title="1">
<text text-anchor="middle" x="77.62" y="-120.59" font-family="Helvetica,sans-Serif" font-size="10.00">1</text>
</a>
</g>
</g>
<!-- dir_694ec83a64f58cbdefbefce65cd1011c -->
<g id="node5" class="node">
<title>dir_694ec83a64f58cbdefbefce65cd1011c</title>
<g id="a_node5"><a xlink:href="dir_694ec83a64f58cbdefbefce65cd1011c.html" target="_top" xlink:title="kernel">
<polygon fill="none" stroke="red" stroke-dasharray="5,2" points="228,-108 174,-108 174,-72 228,-72 228,-108"/>
<text text-anchor="middle" x="201" y="-87.5" font-family="Helvetica,sans-Serif" font-size="10.00">kernel</text>
</a>
</g>
</g>
<!-- dir_06508ded56efeb0264642d328f7c09ba&#45;&gt;dir_694ec83a64f58cbdefbefce65cd1011c -->
<g id="edge3" class="edge">
<title>dir_06508ded56efeb0264642d328f7c09ba&#45;&gt;dir_694ec83a64f58cbdefbefce65cd1011c</title>
<path fill="none" stroke="black" d="M78.12,-148.17C81.11,-146.76 84.12,-145.35 87,-144 112.94,-131.85 142.25,-118.22 164.65,-107.83"/>
<polygon fill="black" stroke="black" points="166.2,-110.97 173.8,-103.59 163.25,-104.62 166.2,-110.97"/>
<g id="a_edge3&#45;headlabel"><a xlink:href="dir_000262_000157.html" target="_top" xlink:title="1">
<text text-anchor="middle" x="164.13" y="-112.56" font-family="Helvetica,sans-Serif" font-size="10.00">1</text>
</a>
</g>
</g>
<!-- dir_a0a8ac7efb6662b749c1285408048e6d -->
<g id="node6" class="node">
<title>dir_a0a8ac7efb6662b749c1285408048e6d</title>
<g id="a_node6"><a xlink:href="dir_a0a8ac7efb6662b749c1285408048e6d.html" target="_top" xlink:title="erl">
<polygon fill="none" stroke="red" stroke-dasharray="5,2" points="300,-108 246,-108 246,-72 300,-72 300,-108"/>
<text text-anchor="middle" x="273" y="-87.5" font-family="Helvetica,sans-Serif" font-size="10.00">erl</text>
</a>
</g>
</g>
<!-- dir_06508ded56efeb0264642d328f7c09ba&#45;&gt;dir_a0a8ac7efb6662b749c1285408048e6d -->
<g id="edge4" class="edge">
<title>dir_06508ded56efeb0264642d328f7c09ba&#45;&gt;dir_a0a8ac7efb6662b749c1285408048e6d</title>
<path fill="none" stroke="black" d="M78.27,-147.41C81.19,-146.17 84.13,-145.01 87,-144 148.77,-122.26 170.38,-129.97 236.15,-107.91"/>
<polygon fill="black" stroke="black" points="237.42,-111.17 245.73,-104.59 235.13,-104.55 237.42,-111.17"/>
<g id="a_edge4&#45;headlabel"><a xlink:href="dir_000262_000042.html" target="_top" xlink:title="1">
<text text-anchor="middle" x="234.95" y="-112.53" font-family="Helvetica,sans-Serif" font-size="10.00">1</text>
</a>
</g>
</g>
<!-- dir_06508ded56efeb0264642d328f7c09ba&#45;&gt;dir_bdd9a5d540de89e9fe90efdfc6973a4f -->
<g id="edge5" class="edge">
<title>dir_06508ded56efeb0264642d328f7c09ba&#45;&gt;dir_bdd9a5d540de89e9fe90efdfc6973a4f</title>
<path fill="none" stroke="black" d="M78.2,-147.19C81.13,-146 84.1,-144.9 87,-144 134.73,-129.18 276.61,-146.06 309,-108 323.98,-90.4 320.68,-75.94 309,-56 302.4,-44.73 290.97,-36.63 279.46,-30.95"/>
<polygon fill="black" stroke="black" points="280.86,-27.74 270.3,-26.89 278.02,-34.14 280.86,-27.74"/>
<g id="a_edge5&#45;headlabel"><a xlink:href="dir_000262_000022.html" target="_top" xlink:title="2">
<text text-anchor="middle" x="285.3" y="-24.1" font-family="Helvetica,sans-Serif" font-size="10.00">2</text>
</a>
</g>
</g>
</g>
</svg>
