<?xml version="1.0" encoding="UTF-8" standalone="no"?>
<!DOCTYPE svg PUBLIC "-//W3C//DTD SVG 1.1//EN"
 "http://www.w3.org/Graphics/SVG/1.1/DTD/svg11.dtd">
<!-- Generated by graphviz version 3.0.0 (20220413.0242)
 -->
<!-- Title: ee/iopreboot Pages: 1 -->
<svg width="446pt" height="183pt"
 viewBox="0.00 0.00 446.00 183.00" xmlns="http://www.w3.org/2000/svg" xmlns:xlink="http://www.w3.org/1999/xlink">
<g id="graph0" class="graph" transform="scale(1 1) rotate(0) translate(4 179)">
<title>ee/iopreboot</title>
<polygon fill="white" stroke="transparent" points="-4,4 -4,-179 442,-179 442,4 -4,4"/>
<g id="clust1" class="cluster">
<title>clusterdir_049738f1909e8dc3e45fe1f6b3faa109</title>
<g id="a_clust1"><a xlink:href="dir_049738f1909e8dc3e45fe1f6b3faa109.html" target="_top" xlink:title="ee">
<polygon fill="#deebf9" stroke="#404040" stroke-dasharray="5,2" points="8,-8 8,-167 374,-167 374,-8 8,-8"/>
<text text-anchor="middle" x="191" y="-155" font-family="Helvetica,sans-Serif" font-size="10.00">ee</text>
</a>
</g>
</g>
<g id="clust2" class="cluster">
<title>clusterdir_ff70674bc173ff6e32f1bc3a678b82a6</title>
<g id="a_clust2"><a xlink:href="dir_ff70674bc173ff6e32f1bc3a678b82a6.html" target="_top">
<polygon fill="#deebf9" stroke="#404040" stroke-width="2" points="16,-16 16,-140 160,-140 160,-16 16,-16"/>
</a>
</g>
</g>
<!-- dir_a0a8ac7efb6662b749c1285408048e6d -->
<g id="node1" class="node">
<title>dir_a0a8ac7efb6662b749c1285408048e6d</title>
<g id="a_node1"><a xlink:href="dir_a0a8ac7efb6662b749c1285408048e6d.html" target="_top" xlink:title="erl">
<polygon fill="#60a2e3" stroke="red" points="222,-60 168,-60 168,-24 222,-24 222,-60"/>
<text text-anchor="middle" x="195" y="-39.5" font-family="Helvetica,sans-Serif" font-size="10.00">erl</text>
</a>
</g>
</g>
<!-- dir_694ec83a64f58cbdefbefce65cd1011c -->
<g id="node2" class="node">
<title>dir_694ec83a64f58cbdefbefce65cd1011c</title>
<g id="a_node2"><a xlink:href="dir_694ec83a64f58cbdefbefce65cd1011c.html" target="_top" xlink:title="kernel">
<polygon fill="#60a2e3" stroke="red" points="294,-60 240,-60 240,-24 294,-24 294,-60"/>
<text text-anchor="middle" x="267" y="-39.5" font-family="Helvetica,sans-Serif" font-size="10.00">kernel</text>
</a>
</g>
</g>
<!-- dir_3c99d3595cafa99f0e2683197c97edf9 -->
<g id="node3" class="node">
<title>dir_3c99d3595cafa99f0e2683197c97edf9</title>
<g id="a_node3"><a xlink:href="dir_3c99d3595cafa99f0e2683197c97edf9.html" target="_top" xlink:title="sbv">
<polygon fill="#60a2e3" stroke="red" points="366,-60 312,-60 312,-24 366,-24 366,-60"/>
<text text-anchor="middle" x="339" y="-39.5" font-family="Helvetica,sans-Serif" font-size="10.00">sbv</text>
</a>
</g>
</g>
<!-- dir_ff70674bc173ff6e32f1bc3a678b82a6 -->
<g id="node4" class="node">
<title>dir_ff70674bc173ff6e32f1bc3a678b82a6</title>
<text text-anchor="middle" x="124" y="-111.5" font-family="Helvetica,sans-Serif" font-size="10.00">iopreboot</text>
</g>
<!-- dir_5dc1218e3fbe6447e9a0ef568f079980 -->
<g id="node5" class="node">
<title>dir_5dc1218e3fbe6447e9a0ef568f079980</title>
<g id="a_node5"><a xlink:href="dir_5dc1218e3fbe6447e9a0ef568f079980.html" target="_top" xlink:title="include">
<polygon fill="#60a2e3" stroke="#404040" points="78,-60 24,-60 24,-24 78,-24 78,-60"/>
<text text-anchor="middle" x="51" y="-39.5" font-family="Helvetica,sans-Serif" font-size="10.00">include</text>
</a>
</g>
</g>
<!-- dir_a498588c2d5275b63f4912378b4fcc14 -->
<g id="node6" class="node">
<title>dir_a498588c2d5275b63f4912378b4fcc14</title>
<g id="a_node6"><a xlink:href="dir_a498588c2d5275b63f4912378b4fcc14.html" target="_top" xlink:title="src">
<polygon fill="#60a2e3" stroke="#404040" points="78,-132 24,-132 24,-96 78,-96 78,-132"/>
<text text-anchor="middle" x="51" y="-111.5" font-family="Helvetica,sans-Serif" font-size="10.00">src</text>
</a>
</g>
</g>
<!-- dir_a498588c2d5275b63f4912378b4fcc14&#45;&gt;dir_a0a8ac7efb6662b749c1285408048e6d -->
<g id="edge4" class="edge">
<title>dir_a498588c2d5275b63f4912378b4fcc14&#45;&gt;dir_a0a8ac7efb6662b749c1285408048e6d</title>
<path fill="none" stroke="black" d="M78.12,-100.18C81.12,-98.77 84.12,-97.35 87,-96 118.25,-81.31 128.56,-77.68 158.63,-62.67"/>
<polygon fill="black" stroke="black" points="160.31,-65.74 167.67,-58.11 157.16,-59.49 160.31,-65.74"/>
<g id="a_edge4&#45;headlabel"><a xlink:href="dir_000232_000042.html" target="_top" xlink:title="1">
<text text-anchor="middle" x="158.38" y="-67.39" font-family="Helvetica,sans-Serif" font-size="10.00">1</text>
</a>
</g>
</g>
<!-- dir_a498588c2d5275b63f4912378b4fcc14&#45;&gt;dir_694ec83a64f58cbdefbefce65cd1011c -->
<g id="edge3" class="edge">
<title>dir_a498588c2d5275b63f4912378b4fcc14&#45;&gt;dir_694ec83a64f58cbdefbefce65cd1011c</title>
<path fill="none" stroke="black" d="M78.28,-99.44C81.19,-98.2 84.14,-97.02 87,-96 146.21,-74.85 166.93,-81.47 230.08,-59.95"/>
<polygon fill="black" stroke="black" points="231.44,-63.18 239.72,-56.56 229.12,-56.58 231.44,-63.18"/>
<g id="a_edge3&#45;headlabel"><a xlink:href="dir_000232_000157.html" target="_top" xlink:title="5">
<text text-anchor="middle" x="228.99" y="-64.55" font-family="Helvetica,sans-Serif" font-size="10.00">5</text>
</a>
</g>
</g>
<!-- dir_a498588c2d5275b63f4912378b4fcc14&#45;&gt;dir_3c99d3595cafa99f0e2683197c97edf9 -->
<g id="edge1" class="edge">
<title>dir_a498588c2d5275b63f4912378b4fcc14&#45;&gt;dir_3c99d3595cafa99f0e2683197c97edf9</title>
<path fill="none" stroke="black" d="M78.2,-99.2C81.13,-98.01 84.1,-96.91 87,-96 176.89,-67.88 208.1,-87.68 302.18,-59.75"/>
<polygon fill="black" stroke="black" points="303.26,-63.08 311.8,-56.8 301.21,-56.39 303.26,-63.08"/>
<g id="a_edge1&#45;headlabel"><a xlink:href="dir_000232_000211.html" target="_top" xlink:title="1">
<text text-anchor="middle" x="300.66" y="-64.35" font-family="Helvetica,sans-Serif" font-size="10.00">1</text>
</a>
</g>
</g>
<!-- dir_a498588c2d5275b63f4912378b4fcc14&#45;&gt;dir_5dc1218e3fbe6447e9a0ef568f079980 -->
<g id="edge2" class="edge">
<title>dir_a498588c2d5275b63f4912378b4fcc14&#45;&gt;dir_5dc1218e3fbe6447e9a0ef568f079980</title>
<path fill="none" stroke="black" d="M51,-95.7C51,-87.98 51,-78.71 51,-70.11"/>
<polygon fill="black" stroke="black" points="54.5,-70.1 51,-60.1 47.5,-70.1 54.5,-70.1"/>
<g id="a_edge2&#45;headlabel"><a xlink:href="dir_000232_000073.html" target="_top" xlink:title="1">
<text text-anchor="middle" x="57.34" y="-71.2" font-family="Helvetica,sans-Serif" font-size="10.00">1</text>
</a>
</g>
</g>
<!-- dir_0981ace215aa2029f526b70c145b9fbe -->
<g id="node7" class="node">
<title>dir_0981ace215aa2029f526b70c145b9fbe</title>
<g id="a_node7"><a xlink:href="dir_0981ace215aa2029f526b70c145b9fbe.html" target="_top" xlink:title="iop">
<polygon fill="none" stroke="red" points="438,-60 384,-60 384,-24 438,-24 438,-60"/>
<text text-anchor="middle" x="411" y="-39.5" font-family="Helvetica,sans-Serif" font-size="10.00">iop</text>
</a>
</g>
</g>
<!-- dir_a498588c2d5275b63f4912378b4fcc14&#45;&gt;dir_0981ace215aa2029f526b70c145b9fbe -->
<g id="edge5" class="edge">
<title>dir_a498588c2d5275b63f4912378b4fcc14&#45;&gt;dir_0981ace215aa2029f526b70c145b9fbe</title>
<path fill="none" stroke="black" d="M78.17,-99.08C81.1,-97.9 84.08,-96.85 87,-96 208.99,-60.64 251.33,-96.52 374.18,-60.81"/>
<polygon fill="black" stroke="black" points="375.38,-64.11 383.94,-57.87 373.36,-57.4 375.38,-64.11"/>
<g id="a_edge5&#45;headlabel"><a xlink:href="dir_000232_000151.html" target="_top" xlink:title="5">
<text text-anchor="middle" x="372.75" y="-65.36" font-family="Helvetica,sans-Serif" font-size="10.00">5</text>
</a>
</g>
</g>
</g>
</svg>
