<?xml version="1.0" encoding="UTF-8" standalone="no"?>
<!DOCTYPE svg PUBLIC "-//W3C//DTD SVG 1.1//EN"
 "http://www.w3.org/Graphics/SVG/1.1/DTD/svg11.dtd">
<!-- Generated by graphviz version 3.0.0 (20220413.0242)
 -->
<!-- Title: iop/sio/mx4sio_bd Pages: 1 -->
<svg width="278pt" height="159pt"
 viewBox="0.00 0.00 278.00 159.00" xmlns="http://www.w3.org/2000/svg" xmlns:xlink="http://www.w3.org/1999/xlink">
<g id="graph0" class="graph" transform="scale(1 1) rotate(0) translate(4 155)">
<title>iop/sio/mx4sio_bd</title>
<polygon fill="white" stroke="transparent" points="-4,4 -4,-155 274,-155 274,4 -4,4"/>
<g id="clust1" class="cluster">
<title>clusterdir_6133ef156cce03413acfdeebec722ba1</title>
<g id="a_clust1"><a xlink:href="dir_6133ef156cce03413acfdeebec722ba1.html" target="_top" xlink:title="sio">
<polygon fill="#deebf9" stroke="#7f7f7f" stroke-dasharray="5,2" points="92,-56 92,-143 260,-143 260,-56 92,-56"/>
<text text-anchor="middle" x="176" y="-131" font-family="Helvetica,sans-Serif" font-size="10.00">sio</text>
</a>
</g>
</g>
<g id="clust2" class="cluster">
<title>clusterdir_1b4c53ad4cba67b900d09766188e54d5</title>
<g id="a_clust2"><a xlink:href="dir_1b4c53ad4cba67b900d09766188e54d5.html" target="_top">
<polygon fill="#deebf9" stroke="#404040" stroke-width="2" points="100,-64 100,-116 252,-116 252,-64 100,-64"/>
</a>
</g>
</g>
<!-- dir_1b4c53ad4cba67b900d09766188e54d5 -->
<g id="node1" class="node">
<title>dir_1b4c53ad4cba67b900d09766188e54d5</title>
<text text-anchor="middle" x="212" y="-87.5" font-family="Helvetica,sans-Serif" font-size="10.00">mx4sio_bd</text>
</g>
<!-- dir_8f4cc36d3d091528309542afe6a411b5 -->
<g id="node2" class="node">
<title>dir_8f4cc36d3d091528309542afe6a411b5</title>
<g id="a_node2"><a xlink:href="dir_8f4cc36d3d091528309542afe6a411b5.html" target="_top" xlink:title="src">
<polygon fill="#60a2e3" stroke="#404040" points="162,-108 108,-108 108,-72 162,-72 162,-108"/>
<text text-anchor="middle" x="135" y="-87.5" font-family="Helvetica,sans-Serif" font-size="10.00">src</text>
</a>
</g>
</g>
<!-- dir_9be0baa3d4a3e9f480a9ee70594037fa -->
<g id="node3" class="node">
<title>dir_9be0baa3d4a3e9f480a9ee70594037fa</title>
<g id="a_node3"><a xlink:href="dir_9be0baa3d4a3e9f480a9ee70594037fa.html" target="_top" xlink:title="kernel">
<polygon fill="none" stroke="red" stroke-dasharray="5,2" points="54,-36 0,-36 0,0 54,0 54,-36"/>
<text text-anchor="middle" x="27" y="-15.5" font-family="Helvetica,sans-Serif" font-size="10.00">kernel</text>
</a>
</g>
</g>
<!-- dir_8f4cc36d3d091528309542afe6a411b5&#45;&gt;dir_9be0baa3d4a3e9f480a9ee70594037fa -->
<g id="edge2" class="edge">
<title>dir_8f4cc36d3d091528309542afe6a411b5&#45;&gt;dir_9be0baa3d4a3e9f480a9ee70594037fa</title>
<path fill="none" stroke="black" d="M108.58,-71.88C94.59,-62.81 77.22,-51.55 62.11,-41.76"/>
<polygon fill="black" stroke="black" points="63.82,-38.69 53.52,-36.19 60.01,-44.57 63.82,-38.69"/>
<g id="a_edge2&#45;headlabel"><a xlink:href="dir_000303_000158.html" target="_top" xlink:title="23">
<text text-anchor="middle" x="68.38" y="-35.76" font-family="Helvetica,sans-Serif" font-size="10.00">23</text>
</a>
</g>
</g>
<!-- dir_f24daea2522ffa8b6dc5fa9cdf5b8f5c -->
<g id="node4" class="node">
<title>dir_f24daea2522ffa8b6dc5fa9cdf5b8f5c</title>
<g id="a_node4"><a xlink:href="dir_f24daea2522ffa8b6dc5fa9cdf5b8f5c.html" target="_top" xlink:title="fs">
<polygon fill="none" stroke="red" stroke-dasharray="5,2" points="126,-36 72,-36 72,0 126,0 126,-36"/>
<text text-anchor="middle" x="99" y="-15.5" font-family="Helvetica,sans-Serif" font-size="10.00">fs</text>
</a>
</g>
</g>
<!-- dir_8f4cc36d3d091528309542afe6a411b5&#45;&gt;dir_f24daea2522ffa8b6dc5fa9cdf5b8f5c -->
<g id="edge4" class="edge">
<title>dir_8f4cc36d3d091528309542afe6a411b5&#45;&gt;dir_f24daea2522ffa8b6dc5fa9cdf5b8f5c</title>
<path fill="none" stroke="black" d="M126.1,-71.7C122,-63.73 117.05,-54.1 112.51,-45.26"/>
<polygon fill="black" stroke="black" points="115.48,-43.4 107.8,-36.1 109.26,-46.6 115.48,-43.4"/>
<g id="a_edge4&#45;headlabel"><a xlink:href="dir_000303_000050.html" target="_top" xlink:title="2">
<text text-anchor="middle" x="119.65" y="-42.79" font-family="Helvetica,sans-Serif" font-size="10.00">2</text>
</a>
</g>
</g>
<!-- dir_40ac35421bc63b72c26b6c69b1517fd6 -->
<g id="node5" class="node">
<title>dir_40ac35421bc63b72c26b6c69b1517fd6</title>
<g id="a_node5"><a xlink:href="dir_40ac35421bc63b72c26b6c69b1517fd6.html" target="_top" xlink:title="system">
<polygon fill="none" stroke="red" stroke-dasharray="5,2" points="198,-36 144,-36 144,0 198,0 198,-36"/>
<text text-anchor="middle" x="171" y="-15.5" font-family="Helvetica,sans-Serif" font-size="10.00">system</text>
</a>
</g>
</g>
<!-- dir_8f4cc36d3d091528309542afe6a411b5&#45;&gt;dir_40ac35421bc63b72c26b6c69b1517fd6 -->
<g id="edge1" class="edge">
<title>dir_8f4cc36d3d091528309542afe6a411b5&#45;&gt;dir_40ac35421bc63b72c26b6c69b1517fd6</title>
<path fill="none" stroke="black" d="M143.9,-71.7C148,-63.73 152.95,-54.1 157.49,-45.26"/>
<polygon fill="black" stroke="black" points="160.74,-46.6 162.2,-36.1 154.52,-43.4 160.74,-46.6"/>
<g id="a_edge1&#45;headlabel"><a xlink:href="dir_000303_000340.html" target="_top" xlink:title="1">
<text text-anchor="middle" x="161.62" y="-48.59" font-family="Helvetica,sans-Serif" font-size="10.00">1</text>
</a>
</g>
</g>
<!-- dir_bdd9a5d540de89e9fe90efdfc6973a4f -->
<g id="node6" class="node">
<title>dir_bdd9a5d540de89e9fe90efdfc6973a4f</title>
<g id="a_node6"><a xlink:href="dir_bdd9a5d540de89e9fe90efdfc6973a4f.html" target="_top" xlink:title="common">
<polygon fill="none" stroke="red" points="270,-36 216,-36 216,0 270,0 270,-36"/>
<text text-anchor="middle" x="243" y="-15.5" font-family="Helvetica,sans-Serif" font-size="10.00">common</text>
</a>
</g>
</g>
<!-- dir_8f4cc36d3d091528309542afe6a411b5&#45;&gt;dir_bdd9a5d540de89e9fe90efdfc6973a4f -->
<g id="edge3" class="edge">
<title>dir_8f4cc36d3d091528309542afe6a411b5&#45;&gt;dir_bdd9a5d540de89e9fe90efdfc6973a4f</title>
<path fill="none" stroke="black" d="M152.32,-71.94C158.3,-66.51 165.2,-60.7 172,-56 178.38,-51.59 192.68,-44 206.79,-36.84"/>
<polygon fill="black" stroke="black" points="208.59,-39.85 215.95,-32.23 205.44,-33.6 208.59,-39.85"/>
<g id="a_edge3&#45;headlabel"><a xlink:href="dir_000303_000022.html" target="_top" xlink:title="2">
<text text-anchor="middle" x="206.66" y="-41.5" font-family="Helvetica,sans-Serif" font-size="10.00">2</text>
</a>
</g>
</g>
</g>
</svg>
