<?xml version="1.0" encoding="UTF-8" standalone="no"?>
<!DOCTYPE svg PUBLIC "-//W3C//DTD SVG 1.1//EN"
 "http://www.w3.org/Graphics/SVG/1.1/DTD/svg11.dtd">
<!-- Generated by graphviz version 3.0.0 (20220413.0242)
 -->
<!-- Title: ee/rpc/multitap Pages: 1 -->
<svg width="380pt" height="183pt"
 viewBox="0.00 0.00 380.00 183.00" xmlns="http://www.w3.org/2000/svg" xmlns:xlink="http://www.w3.org/1999/xlink">
<g id="graph0" class="graph" transform="scale(1 1) rotate(0) translate(4 179)">
<title>ee/rpc/multitap</title>
<polygon fill="white" stroke="transparent" points="-4,4 -4,-179 376,-179 376,4 -4,4"/>
<g id="clust1" class="cluster">
<title>clusterdir_5b119dc963fa9b25ef41951231899460</title>
<g id="a_clust1"><a xlink:href="dir_5b119dc963fa9b25ef41951231899460.html" target="_top" xlink:title="rpc">
<polygon fill="#deebf9" stroke="#7f7f7f" stroke-dasharray="5,2" points="8,-8 8,-167 166,-167 166,-8 8,-8"/>
<text text-anchor="middle" x="87" y="-155" font-family="Helvetica,sans-Serif" font-size="10.00">rpc</text>
</a>
</g>
</g>
<g id="clust2" class="cluster">
<title>clusterdir_4fe02c3598ec986dac9823d5144e53a1</title>
<g id="a_clust2"><a xlink:href="dir_4fe02c3598ec986dac9823d5144e53a1.html" target="_top">
<polygon fill="#deebf9" stroke="#404040" stroke-width="2" points="16,-16 16,-140 158,-140 158,-16 16,-16"/>
</a>
</g>
</g>
<!-- dir_4fe02c3598ec986dac9823d5144e53a1 -->
<g id="node1" class="node">
<title>dir_4fe02c3598ec986dac9823d5144e53a1</title>
<text text-anchor="middle" x="123" y="-111.5" font-family="Helvetica,sans-Serif" font-size="10.00">multitap</text>
</g>
<!-- dir_e6a8a4ea8085298a3170c9700467a79c -->
<g id="node2" class="node">
<title>dir_e6a8a4ea8085298a3170c9700467a79c</title>
<g id="a_node2"><a xlink:href="dir_e6a8a4ea8085298a3170c9700467a79c.html" target="_top" xlink:title="include">
<polygon fill="#60a2e3" stroke="#404040" points="78,-60 24,-60 24,-24 78,-24 78,-60"/>
<text text-anchor="middle" x="51" y="-39.5" font-family="Helvetica,sans-Serif" font-size="10.00">include</text>
</a>
</g>
</g>
<!-- dir_674d4bf0891c267e7e23627b72783290 -->
<g id="node3" class="node">
<title>dir_674d4bf0891c267e7e23627b72783290</title>
<g id="a_node3"><a xlink:href="dir_674d4bf0891c267e7e23627b72783290.html" target="_top" xlink:title="src">
<polygon fill="#60a2e3" stroke="#404040" points="78,-132 24,-132 24,-96 78,-96 78,-132"/>
<text text-anchor="middle" x="51" y="-111.5" font-family="Helvetica,sans-Serif" font-size="10.00">src</text>
</a>
</g>
</g>
<!-- dir_674d4bf0891c267e7e23627b72783290&#45;&gt;dir_e6a8a4ea8085298a3170c9700467a79c -->
<g id="edge4" class="edge">
<title>dir_674d4bf0891c267e7e23627b72783290&#45;&gt;dir_e6a8a4ea8085298a3170c9700467a79c</title>
<path fill="none" stroke="black" d="M51,-95.7C51,-87.98 51,-78.71 51,-70.11"/>
<polygon fill="black" stroke="black" points="54.5,-70.1 51,-60.1 47.5,-70.1 54.5,-70.1"/>
<g id="a_edge4&#45;headlabel"><a xlink:href="dir_000256_000094.html" target="_top" xlink:title="1">
<text text-anchor="middle" x="57.34" y="-71.2" font-family="Helvetica,sans-Serif" font-size="10.00">1</text>
</a>
</g>
</g>
<!-- dir_a0a8ac7efb6662b749c1285408048e6d -->
<g id="node4" class="node">
<title>dir_a0a8ac7efb6662b749c1285408048e6d</title>
<g id="a_node4"><a xlink:href="dir_a0a8ac7efb6662b749c1285408048e6d.html" target="_top" xlink:title="erl">
<polygon fill="none" stroke="red" stroke-dasharray="5,2" points="228,-60 174,-60 174,-24 228,-24 228,-60"/>
<text text-anchor="middle" x="201" y="-39.5" font-family="Helvetica,sans-Serif" font-size="10.00">erl</text>
</a>
</g>
</g>
<!-- dir_674d4bf0891c267e7e23627b72783290&#45;&gt;dir_a0a8ac7efb6662b749c1285408048e6d -->
<g id="edge2" class="edge">
<title>dir_674d4bf0891c267e7e23627b72783290&#45;&gt;dir_a0a8ac7efb6662b749c1285408048e6d</title>
<path fill="none" stroke="black" d="M78.12,-100.17C81.11,-98.76 84.12,-97.35 87,-96 112.94,-83.85 142.25,-70.22 164.65,-59.83"/>
<polygon fill="black" stroke="black" points="166.2,-62.97 173.8,-55.59 163.25,-56.62 166.2,-62.97"/>
<g id="a_edge2&#45;headlabel"><a xlink:href="dir_000256_000042.html" target="_top" xlink:title="1">
<text text-anchor="middle" x="164.13" y="-64.56" font-family="Helvetica,sans-Serif" font-size="10.00">1</text>
</a>
</g>
</g>
<!-- dir_bdd9a5d540de89e9fe90efdfc6973a4f -->
<g id="node5" class="node">
<title>dir_bdd9a5d540de89e9fe90efdfc6973a4f</title>
<g id="a_node5"><a xlink:href="dir_bdd9a5d540de89e9fe90efdfc6973a4f.html" target="_top" xlink:title="common">
<polygon fill="none" stroke="red" points="300,-60 246,-60 246,-24 300,-24 300,-60"/>
<text text-anchor="middle" x="273" y="-39.5" font-family="Helvetica,sans-Serif" font-size="10.00">common</text>
</a>
</g>
</g>
<!-- dir_674d4bf0891c267e7e23627b72783290&#45;&gt;dir_bdd9a5d540de89e9fe90efdfc6973a4f -->
<g id="edge3" class="edge">
<title>dir_674d4bf0891c267e7e23627b72783290&#45;&gt;dir_bdd9a5d540de89e9fe90efdfc6973a4f</title>
<path fill="none" stroke="black" d="M78.27,-99.41C81.19,-98.17 84.13,-97.01 87,-96 148.77,-74.26 170.38,-81.97 236.15,-59.91"/>
<polygon fill="black" stroke="black" points="237.42,-63.17 245.73,-56.59 235.13,-56.55 237.42,-63.17"/>
<g id="a_edge3&#45;headlabel"><a xlink:href="dir_000256_000022.html" target="_top" xlink:title="1">
<text text-anchor="middle" x="234.95" y="-64.53" font-family="Helvetica,sans-Serif" font-size="10.00">1</text>
</a>
</g>
</g>
<!-- dir_694ec83a64f58cbdefbefce65cd1011c -->
<g id="node6" class="node">
<title>dir_694ec83a64f58cbdefbefce65cd1011c</title>
<g id="a_node6"><a xlink:href="dir_694ec83a64f58cbdefbefce65cd1011c.html" target="_top" xlink:title="kernel">
<polygon fill="none" stroke="red" stroke-dasharray="5,2" points="372,-60 318,-60 318,-24 372,-24 372,-60"/>
<text text-anchor="middle" x="345" y="-39.5" font-family="Helvetica,sans-Serif" font-size="10.00">kernel</text>
</a>
</g>
</g>
<!-- dir_674d4bf0891c267e7e23627b72783290&#45;&gt;dir_694ec83a64f58cbdefbefce65cd1011c -->
<g id="edge1" class="edge">
<title>dir_674d4bf0891c267e7e23627b72783290&#45;&gt;dir_694ec83a64f58cbdefbefce65cd1011c</title>
<path fill="none" stroke="black" d="M78.2,-99.19C81.13,-98 84.1,-96.9 87,-96 179.39,-67.32 211.47,-88.19 307.94,-59.81"/>
<polygon fill="black" stroke="black" points="309.25,-63.07 317.8,-56.81 307.21,-56.38 309.25,-63.07"/>
<g id="a_edge1&#45;headlabel"><a xlink:href="dir_000256_000157.html" target="_top" xlink:title="1">
<text text-anchor="middle" x="306.64" y="-64.34" font-family="Helvetica,sans-Serif" font-size="10.00">1</text>
</a>
</g>
</g>
</g>
</svg>
