<?xml version="1.0" encoding="UTF-8" standalone="no"?>
<!DOCTYPE svg PUBLIC "-//W3C//DTD SVG 1.1//EN"
 "http://www.w3.org/Graphics/SVG/1.1/DTD/svg11.dtd">
<!-- Generated by graphviz version 3.0.0 (20220413.0242)
 -->
<!-- Title: iop/dev9/dev9 Pages: 1 -->
<svg width="194pt" height="231pt"
 viewBox="0.00 0.00 194.00 231.00" xmlns="http://www.w3.org/2000/svg" xmlns:xlink="http://www.w3.org/1999/xlink">
<g id="graph0" class="graph" transform="scale(1 1) rotate(0) translate(4 227)">
<title>iop/dev9/dev9</title>
<polygon fill="white" stroke="transparent" points="-4,4 -4,-227 190,-227 190,4 -4,4"/>
<g id="clust1" class="cluster">
<title>clusterdir_6f16cad81de2453a6f48c5e272ba4a18</title>
<g id="a_clust1"><a xlink:href="dir_6f16cad81de2453a6f48c5e272ba4a18.html" target="_top" xlink:title="dev9">
<polygon fill="#deebf9" stroke="#7f7f7f" stroke-dasharray="5,2" points="20,-56 20,-215 178,-215 178,-56 20,-56"/>
<text text-anchor="middle" x="99" y="-203" font-family="Helvetica,sans-Serif" font-size="10.00">dev9</text>
</a>
</g>
</g>
<g id="clust2" class="cluster">
<title>clusterdir_18566863331aaba44604539ca78be099</title>
<g id="a_clust2"><a xlink:href="dir_18566863331aaba44604539ca78be099.html" target="_top">
<polygon fill="#deebf9" stroke="#404040" stroke-width="2" points="28,-64 28,-188 170,-188 170,-64 28,-64"/>
</a>
</g>
</g>
<!-- dir_18566863331aaba44604539ca78be099 -->
<g id="node1" class="node">
<title>dir_18566863331aaba44604539ca78be099</title>
<text text-anchor="middle" x="135" y="-159.5" font-family="Helvetica,sans-Serif" font-size="10.00">dev9</text>
</g>
<!-- dir_58692563475c8582953c11bc1da04f9e -->
<g id="node2" class="node">
<title>dir_58692563475c8582953c11bc1da04f9e</title>
<g id="a_node2"><a xlink:href="dir_58692563475c8582953c11bc1da04f9e.html" target="_top" xlink:title="include">
<polygon fill="#60a2e3" stroke="#404040" points="90,-108 36,-108 36,-72 90,-72 90,-108"/>
<text text-anchor="middle" x="63" y="-87.5" font-family="Helvetica,sans-Serif" font-size="10.00">include</text>
</a>
</g>
</g>
<!-- dir_9be0baa3d4a3e9f480a9ee70594037fa -->
<g id="node4" class="node">
<title>dir_9be0baa3d4a3e9f480a9ee70594037fa</title>
<g id="a_node4"><a xlink:href="dir_9be0baa3d4a3e9f480a9ee70594037fa.html" target="_top" xlink:title="kernel">
<polygon fill="none" stroke="red" stroke-dasharray="5,2" points="54,-36 0,-36 0,0 54,0 54,-36"/>
<text text-anchor="middle" x="27" y="-15.5" font-family="Helvetica,sans-Serif" font-size="10.00">kernel</text>
</a>
</g>
</g>
<!-- dir_58692563475c8582953c11bc1da04f9e&#45;&gt;dir_9be0baa3d4a3e9f480a9ee70594037fa -->
<g id="edge1" class="edge">
<title>dir_58692563475c8582953c11bc1da04f9e&#45;&gt;dir_9be0baa3d4a3e9f480a9ee70594037fa</title>
<path fill="none" stroke="black" d="M54.1,-71.7C50,-63.73 45.05,-54.1 40.51,-45.26"/>
<polygon fill="black" stroke="black" points="43.48,-43.4 35.8,-36.1 37.26,-46.6 43.48,-43.4"/>
<g id="a_edge1&#45;headlabel"><a xlink:href="dir_000106_000158.html" target="_top" xlink:title="1">
<text text-anchor="middle" x="47.65" y="-42.79" font-family="Helvetica,sans-Serif" font-size="10.00">1</text>
</a>
</g>
</g>
<!-- dir_bdd9a5d540de89e9fe90efdfc6973a4f -->
<g id="node5" class="node">
<title>dir_bdd9a5d540de89e9fe90efdfc6973a4f</title>
<g id="a_node5"><a xlink:href="dir_bdd9a5d540de89e9fe90efdfc6973a4f.html" target="_top" xlink:title="common">
<polygon fill="none" stroke="red" points="135,-36 81,-36 81,0 135,0 135,-36"/>
<text text-anchor="middle" x="108" y="-15.5" font-family="Helvetica,sans-Serif" font-size="10.00">common</text>
</a>
</g>
</g>
<!-- dir_58692563475c8582953c11bc1da04f9e&#45;&gt;dir_bdd9a5d540de89e9fe90efdfc6973a4f -->
<g id="edge2" class="edge">
<title>dir_58692563475c8582953c11bc1da04f9e&#45;&gt;dir_bdd9a5d540de89e9fe90efdfc6973a4f</title>
<path fill="none" stroke="black" d="M74.12,-71.7C79.36,-63.56 85.7,-53.69 91.48,-44.7"/>
<polygon fill="black" stroke="black" points="94.54,-46.41 97,-36.1 88.65,-42.62 94.54,-46.41"/>
<g id="a_edge2&#45;headlabel"><a xlink:href="dir_000106_000022.html" target="_top" xlink:title="1">
<text text-anchor="middle" x="94.99" y="-48.47" font-family="Helvetica,sans-Serif" font-size="10.00">1</text>
</a>
</g>
</g>
<!-- dir_6ad7f2ab8ef00bea214c65f3ba81f481 -->
<g id="node3" class="node">
<title>dir_6ad7f2ab8ef00bea214c65f3ba81f481</title>
<g id="a_node3"><a xlink:href="dir_6ad7f2ab8ef00bea214c65f3ba81f481.html" target="_top" xlink:title="src">
<polygon fill="#60a2e3" stroke="#404040" points="90,-180 36,-180 36,-144 90,-144 90,-180"/>
<text text-anchor="middle" x="63" y="-159.5" font-family="Helvetica,sans-Serif" font-size="10.00">src</text>
</a>
</g>
</g>
<!-- dir_6ad7f2ab8ef00bea214c65f3ba81f481&#45;&gt;dir_58692563475c8582953c11bc1da04f9e -->
<g id="edge3" class="edge">
<title>dir_6ad7f2ab8ef00bea214c65f3ba81f481&#45;&gt;dir_58692563475c8582953c11bc1da04f9e</title>
<path fill="none" stroke="black" d="M63,-143.7C63,-135.98 63,-126.71 63,-118.11"/>
<polygon fill="black" stroke="black" points="66.5,-118.1 63,-108.1 59.5,-118.1 66.5,-118.1"/>
<g id="a_edge3&#45;headlabel"><a xlink:href="dir_000270_000106.html" target="_top" xlink:title="1">
<text text-anchor="middle" x="69.34" y="-119.2" font-family="Helvetica,sans-Serif" font-size="10.00">1</text>
</a>
</g>
</g>
<!-- dir_6ad7f2ab8ef00bea214c65f3ba81f481&#45;&gt;dir_9be0baa3d4a3e9f480a9ee70594037fa -->
<g id="edge4" class="edge">
<title>dir_6ad7f2ab8ef00bea214c65f3ba81f481&#45;&gt;dir_9be0baa3d4a3e9f480a9ee70594037fa</title>
<path fill="none" stroke="black" d="M47.39,-143.77C39.63,-134.03 31.05,-121.18 27,-108 20.84,-87.97 21.21,-64.18 22.91,-46.24"/>
<polygon fill="black" stroke="black" points="26.41,-46.51 24.07,-36.17 19.45,-45.71 26.41,-46.51"/>
<g id="a_edge4&#45;headlabel"><a xlink:href="dir_000270_000158.html" target="_top" xlink:title="18">
<text text-anchor="middle" x="28.82" y="-47.9" font-family="Helvetica,sans-Serif" font-size="10.00">18</text>
</a>
</g>
</g>
<!-- dir_6ad7f2ab8ef00bea214c65f3ba81f481&#45;&gt;dir_bdd9a5d540de89e9fe90efdfc6973a4f -->
<g id="edge5" class="edge">
<title>dir_6ad7f2ab8ef00bea214c65f3ba81f481&#45;&gt;dir_bdd9a5d540de89e9fe90efdfc6973a4f</title>
<path fill="none" stroke="black" d="M78.08,-143.6C85.69,-133.8 94.29,-120.96 99,-108 106.2,-88.21 108.29,-64.41 108.68,-46.4"/>
<polygon fill="black" stroke="black" points="112.18,-46.3 108.72,-36.28 105.18,-46.27 112.18,-46.3"/>
<g id="a_edge5&#45;headlabel"><a xlink:href="dir_000270_000022.html" target="_top" xlink:title="4">
<text text-anchor="middle" x="115" y="-47.41" font-family="Helvetica,sans-Serif" font-size="10.00">4</text>
</a>
</g>
</g>
</g>
</svg>
