<?xml version="1.0" encoding="UTF-8" standalone="no"?>
<!DOCTYPE svg PUBLIC "-//W3C//DTD SVG 1.1//EN"
 "http://www.w3.org/Graphics/SVG/1.1/DTD/svg11.dtd">
<!-- Generated by graphviz version 3.0.0 (20220413.0242)
 -->
<!-- Title: iop/network/smbman Pages: 1 -->
<svg width="194pt" height="159pt"
 viewBox="0.00 0.00 194.00 159.00" xmlns="http://www.w3.org/2000/svg" xmlns:xlink="http://www.w3.org/1999/xlink">
<g id="graph0" class="graph" transform="scale(1 1) rotate(0) translate(4 155)">
<title>iop/network/smbman</title>
<polygon fill="white" stroke="transparent" points="-4,4 -4,-155 190,-155 190,4 -4,4"/>
<g id="clust1" class="cluster">
<title>clusterdir_f89050b4b7ba0179c2c7efd2300413d9</title>
<g id="a_clust1"><a xlink:href="dir_f89050b4b7ba0179c2c7efd2300413d9.html" target="_top" xlink:title="network">
<polygon fill="#deebf9" stroke="#7f7f7f" stroke-dasharray="5,2" points="20,-56 20,-143 178,-143 178,-56 20,-56"/>
<text text-anchor="middle" x="99" y="-131" font-family="Helvetica,sans-Serif" font-size="10.00">network</text>
</a>
</g>
</g>
<g id="clust2" class="cluster">
<title>clusterdir_39d17f469530f79363f6574f3e93b68d</title>
<g id="a_clust2"><a xlink:href="dir_39d17f469530f79363f6574f3e93b68d.html" target="_top">
<polygon fill="#deebf9" stroke="#404040" stroke-width="2" points="28,-64 28,-116 170,-116 170,-64 28,-64"/>
</a>
</g>
</g>
<!-- dir_39d17f469530f79363f6574f3e93b68d -->
<g id="node1" class="node">
<title>dir_39d17f469530f79363f6574f3e93b68d</title>
<text text-anchor="middle" x="135" y="-87.5" font-family="Helvetica,sans-Serif" font-size="10.00">smbman</text>
</g>
<!-- dir_04b7edd16940ea0b39ef53819f3e66c2 -->
<g id="node2" class="node">
<title>dir_04b7edd16940ea0b39ef53819f3e66c2</title>
<g id="a_node2"><a xlink:href="dir_04b7edd16940ea0b39ef53819f3e66c2.html" target="_top" xlink:title="src">
<polygon fill="#60a2e3" stroke="#404040" points="90,-108 36,-108 36,-72 90,-72 90,-108"/>
<text text-anchor="middle" x="63" y="-87.5" font-family="Helvetica,sans-Serif" font-size="10.00">src</text>
</a>
</g>
</g>
<!-- dir_9be0baa3d4a3e9f480a9ee70594037fa -->
<g id="node3" class="node">
<title>dir_9be0baa3d4a3e9f480a9ee70594037fa</title>
<g id="a_node3"><a xlink:href="dir_9be0baa3d4a3e9f480a9ee70594037fa.html" target="_top" xlink:title="kernel">
<polygon fill="none" stroke="red" stroke-dasharray="5,2" points="54,-36 0,-36 0,0 54,0 54,-36"/>
<text text-anchor="middle" x="27" y="-15.5" font-family="Helvetica,sans-Serif" font-size="10.00">kernel</text>
</a>
</g>
</g>
<!-- dir_04b7edd16940ea0b39ef53819f3e66c2&#45;&gt;dir_9be0baa3d4a3e9f480a9ee70594037fa -->
<g id="edge1" class="edge">
<title>dir_04b7edd16940ea0b39ef53819f3e66c2&#45;&gt;dir_9be0baa3d4a3e9f480a9ee70594037fa</title>
<path fill="none" stroke="black" d="M54.1,-71.7C50,-63.73 45.05,-54.1 40.51,-45.26"/>
<polygon fill="black" stroke="black" points="43.48,-43.4 35.8,-36.1 37.26,-46.6 43.48,-43.4"/>
<g id="a_edge1&#45;headlabel"><a xlink:href="dir_000301_000158.html" target="_top" xlink:title="38">
<text text-anchor="middle" x="47.65" y="-42.79" font-family="Helvetica,sans-Serif" font-size="10.00">38</text>
</a>
</g>
</g>
<!-- dir_bdd9a5d540de89e9fe90efdfc6973a4f -->
<g id="node4" class="node">
<title>dir_bdd9a5d540de89e9fe90efdfc6973a4f</title>
<g id="a_node4"><a xlink:href="dir_bdd9a5d540de89e9fe90efdfc6973a4f.html" target="_top" xlink:title="common">
<polygon fill="none" stroke="red" points="126,-36 72,-36 72,0 126,0 126,-36"/>
<text text-anchor="middle" x="99" y="-15.5" font-family="Helvetica,sans-Serif" font-size="10.00">common</text>
</a>
</g>
</g>
<!-- dir_04b7edd16940ea0b39ef53819f3e66c2&#45;&gt;dir_bdd9a5d540de89e9fe90efdfc6973a4f -->
<g id="edge2" class="edge">
<title>dir_04b7edd16940ea0b39ef53819f3e66c2&#45;&gt;dir_bdd9a5d540de89e9fe90efdfc6973a4f</title>
<path fill="none" stroke="black" d="M71.9,-71.7C76,-63.73 80.95,-54.1 85.49,-45.26"/>
<polygon fill="black" stroke="black" points="88.74,-46.6 90.2,-36.1 82.52,-43.4 88.74,-46.6"/>
<g id="a_edge2&#45;headlabel"><a xlink:href="dir_000301_000022.html" target="_top" xlink:title="5">
<text text-anchor="middle" x="89.62" y="-48.59" font-family="Helvetica,sans-Serif" font-size="10.00">5</text>
</a>
</g>
</g>
</g>
</svg>
