<?xml version="1.0" encoding="UTF-8" standalone="no"?>
<!DOCTYPE svg PUBLIC "-//W3C//DTD SVG 1.1//EN"
 "http://www.w3.org/Graphics/SVG/1.1/DTD/svg11.dtd">
<!-- Generated by graphviz version 3.0.0 (20220413.0242)
 -->
<!-- Title: ee/font Pages: 1 -->
<svg width="338pt" height="247pt"
 viewBox="0.00 0.00 338.00 247.00" xmlns="http://www.w3.org/2000/svg" xmlns:xlink="http://www.w3.org/1999/xlink">
<g id="graph0" class="graph" transform="scale(1 1) rotate(0) translate(4 243)">
<title>ee/font</title>
<polygon fill="white" stroke="transparent" points="-4,4 -4,-243 334,-243 334,4 -4,4"/>
<g id="clust1" class="cluster">
<title>clusterdir_049738f1909e8dc3e45fe1f6b3faa109</title>
<g id="a_clust1"><a xlink:href="dir_049738f1909e8dc3e45fe1f6b3faa109.html" target="_top" xlink:title="ee">
<polygon fill="#deebf9" stroke="#404040" stroke-dasharray="5,2" points="8,-8 8,-231 228,-231 228,-8 8,-8"/>
<text text-anchor="middle" x="118" y="-219" font-family="Helvetica,sans-Serif" font-size="10.00">ee</text>
</a>
</g>
</g>
<g id="clust2" class="cluster">
<title>clusterdir_6a18a5fb12cb9e6be5f051ff6b53d12a</title>
<g id="a_clust2"><a xlink:href="dir_6a18a5fb12cb9e6be5f051ff6b53d12a.html" target="_top">
<polygon fill="#deebf9" stroke="#404040" stroke-width="2" points="16,-80 16,-204 158,-204 158,-80 16,-80"/>
</a>
</g>
</g>
<!-- dir_2649a81c7f56a709216892bc1285ef27 -->
<g id="node1" class="node">
<title>dir_2649a81c7f56a709216892bc1285ef27</title>
<g id="a_node1"><a xlink:href="dir_2649a81c7f56a709216892bc1285ef27.html" target="_top" xlink:title="draw">
<polygon fill="#60a2e3" stroke="red" points="101,-52 47,-52 47,-16 101,-16 101,-52"/>
<text text-anchor="middle" x="74" y="-31.5" font-family="Helvetica,sans-Serif" font-size="10.00">draw</text>
</a>
</g>
</g>
<!-- dir_a0a8ac7efb6662b749c1285408048e6d -->
<g id="node2" class="node">
<title>dir_a0a8ac7efb6662b749c1285408048e6d</title>
<g id="a_node2"><a xlink:href="dir_a0a8ac7efb6662b749c1285408048e6d.html" target="_top" xlink:title="erl">
<polygon fill="#60a2e3" stroke="red" points="220,-124 166,-124 166,-88 220,-88 220,-124"/>
<text text-anchor="middle" x="193" y="-103.5" font-family="Helvetica,sans-Serif" font-size="10.00">erl</text>
</a>
</g>
</g>
<!-- dir_6a18a5fb12cb9e6be5f051ff6b53d12a -->
<g id="node3" class="node">
<title>dir_6a18a5fb12cb9e6be5f051ff6b53d12a</title>
<text text-anchor="middle" x="123" y="-175.5" font-family="Helvetica,sans-Serif" font-size="10.00">font</text>
</g>
<!-- dir_3a96145256e208ba8e54b2dc9687859a -->
<g id="node4" class="node">
<title>dir_3a96145256e208ba8e54b2dc9687859a</title>
<g id="a_node4"><a xlink:href="dir_3a96145256e208ba8e54b2dc9687859a.html" target="_top" xlink:title="include">
<polygon fill="#60a2e3" stroke="#404040" points="124,-124 70,-124 70,-88 124,-88 124,-124"/>
<text text-anchor="middle" x="97" y="-103.5" font-family="Helvetica,sans-Serif" font-size="10.00">include</text>
</a>
</g>
</g>
<!-- dir_3a96145256e208ba8e54b2dc9687859a&#45;&gt;dir_2649a81c7f56a709216892bc1285ef27 -->
<g id="edge1" class="edge">
<title>dir_3a96145256e208ba8e54b2dc9687859a&#45;&gt;dir_2649a81c7f56a709216892bc1285ef27</title>
<path fill="none" stroke="black" d="M91.31,-87.7C88.75,-79.9 85.67,-70.51 82.82,-61.83"/>
<polygon fill="black" stroke="black" points="86.07,-60.51 79.62,-52.1 79.42,-62.7 86.07,-60.51"/>
<g id="a_edge1&#45;headlabel"><a xlink:href="dir_000070_000030.html" target="_top" xlink:title="1">
<text text-anchor="middle" x="89.89" y="-60.54" font-family="Helvetica,sans-Serif" font-size="10.00">1</text>
</a>
</g>
</g>
<!-- dir_bdd9a5d540de89e9fe90efdfc6973a4f -->
<g id="node6" class="node">
<title>dir_bdd9a5d540de89e9fe90efdfc6973a4f</title>
<g id="a_node6"><a xlink:href="dir_bdd9a5d540de89e9fe90efdfc6973a4f.html" target="_top" xlink:title="common">
<polygon fill="none" stroke="red" points="290,-52 236,-52 236,-16 290,-16 290,-52"/>
<text text-anchor="middle" x="263" y="-31.5" font-family="Helvetica,sans-Serif" font-size="10.00">common</text>
</a>
</g>
</g>
<!-- dir_3a96145256e208ba8e54b2dc9687859a&#45;&gt;dir_bdd9a5d540de89e9fe90efdfc6973a4f -->
<g id="edge2" class="edge">
<title>dir_3a96145256e208ba8e54b2dc9687859a&#45;&gt;dir_bdd9a5d540de89e9fe90efdfc6973a4f</title>
<path fill="none" stroke="black" d="M115.82,-87.81C119.66,-84.9 123.81,-82.13 128,-80 167.74,-59.77 185.15,-68.43 226.32,-53.96"/>
<polygon fill="black" stroke="black" points="227.67,-57.19 235.79,-50.38 225.2,-50.65 227.67,-57.19"/>
<g id="a_edge2&#45;headlabel"><a xlink:href="dir_000070_000022.html" target="_top" xlink:title="1">
<text text-anchor="middle" x="225.31" y="-58.62" font-family="Helvetica,sans-Serif" font-size="10.00">1</text>
</a>
</g>
</g>
<!-- dir_3a9c6fe855c5d1af04ce6ee63ecedf2c -->
<g id="node5" class="node">
<title>dir_3a9c6fe855c5d1af04ce6ee63ecedf2c</title>
<g id="a_node5"><a xlink:href="dir_3a9c6fe855c5d1af04ce6ee63ecedf2c.html" target="_top" xlink:title="src">
<polygon fill="#60a2e3" stroke="#404040" points="78,-196 24,-196 24,-160 78,-160 78,-196"/>
<text text-anchor="middle" x="51" y="-175.5" font-family="Helvetica,sans-Serif" font-size="10.00">src</text>
</a>
</g>
</g>
<!-- dir_3a9c6fe855c5d1af04ce6ee63ecedf2c&#45;&gt;dir_2649a81c7f56a709216892bc1285ef27 -->
<g id="edge4" class="edge">
<title>dir_3a9c6fe855c5d1af04ce6ee63ecedf2c&#45;&gt;dir_2649a81c7f56a709216892bc1285ef27</title>
<path fill="none" stroke="black" d="M51.85,-159.69C53.03,-140.18 55.64,-107.59 61,-80 62.12,-74.21 63.66,-68.09 65.27,-62.3"/>
<polygon fill="black" stroke="black" points="68.73,-62.93 68.2,-52.35 62.02,-60.95 68.73,-62.93"/>
<g id="a_edge4&#45;headlabel"><a xlink:href="dir_000229_000030.html" target="_top" xlink:title="4">
<text text-anchor="middle" x="70.44" y="-64.68" font-family="Helvetica,sans-Serif" font-size="10.00">4</text>
</a>
</g>
</g>
<!-- dir_3a9c6fe855c5d1af04ce6ee63ecedf2c&#45;&gt;dir_a0a8ac7efb6662b749c1285408048e6d -->
<g id="edge6" class="edge">
<title>dir_3a9c6fe855c5d1af04ce6ee63ecedf2c&#45;&gt;dir_a0a8ac7efb6662b749c1285408048e6d</title>
<path fill="none" stroke="black" d="M78.23,-164.1C103.13,-152.28 138.45,-135.49 156.82,-126.49"/>
<polygon fill="black" stroke="black" points="158.61,-129.52 166,-121.92 155.48,-123.25 158.61,-129.52"/>
<g id="a_edge6&#45;headlabel"><a xlink:href="dir_000229_000042.html" target="_top" xlink:title="1">
<text text-anchor="middle" x="156.65" y="-131.16" font-family="Helvetica,sans-Serif" font-size="10.00">1</text>
</a>
</g>
</g>
<!-- dir_3a9c6fe855c5d1af04ce6ee63ecedf2c&#45;&gt;dir_3a96145256e208ba8e54b2dc9687859a -->
<g id="edge5" class="edge">
<title>dir_3a9c6fe855c5d1af04ce6ee63ecedf2c&#45;&gt;dir_3a96145256e208ba8e54b2dc9687859a</title>
<path fill="none" stroke="black" d="M62.37,-159.7C67.72,-151.56 74.2,-141.69 80.11,-132.7"/>
<polygon fill="black" stroke="black" points="83.19,-134.38 85.76,-124.1 77.34,-130.54 83.19,-134.38"/>
<g id="a_edge5&#45;headlabel"><a xlink:href="dir_000229_000070.html" target="_top" xlink:title="2">
<text text-anchor="middle" x="83.59" y="-136.45" font-family="Helvetica,sans-Serif" font-size="10.00">2</text>
</a>
</g>
</g>
<!-- dir_3a9c6fe855c5d1af04ce6ee63ecedf2c&#45;&gt;dir_bdd9a5d540de89e9fe90efdfc6973a4f -->
<g id="edge7" class="edge">
<title>dir_3a9c6fe855c5d1af04ce6ee63ecedf2c&#45;&gt;dir_bdd9a5d540de89e9fe90efdfc6973a4f</title>
<path fill="none" stroke="black" d="M78.28,-163.43C81.19,-162.19 84.14,-161.02 87,-160 149.55,-137.71 182.94,-168.75 232,-124 249.42,-108.11 257.05,-81.91 260.39,-62.04"/>
<polygon fill="black" stroke="black" points="263.87,-62.43 261.81,-52.04 256.94,-61.45 263.87,-62.43"/>
<g id="a_edge7&#45;headlabel"><a xlink:href="dir_000229_000022.html" target="_top" xlink:title="2">
<text text-anchor="middle" x="266.18" y="-63.89" font-family="Helvetica,sans-Serif" font-size="10.00">2</text>
</a>
</g>
</g>
<!-- dir_0981ace215aa2029f526b70c145b9fbe -->
<g id="node7" class="node">
<title>dir_0981ace215aa2029f526b70c145b9fbe</title>
<g id="a_node7"><a xlink:href="dir_0981ace215aa2029f526b70c145b9fbe.html" target="_top" xlink:title="iop">
<polygon fill="none" stroke="red" points="330,-124 276,-124 276,-88 330,-88 330,-124"/>
<text text-anchor="middle" x="303" y="-103.5" font-family="Helvetica,sans-Serif" font-size="10.00">iop</text>
</a>
</g>
</g>
<!-- dir_3a9c6fe855c5d1af04ce6ee63ecedf2c&#45;&gt;dir_0981ace215aa2029f526b70c145b9fbe -->
<g id="edge3" class="edge">
<title>dir_3a9c6fe855c5d1af04ce6ee63ecedf2c&#45;&gt;dir_0981ace215aa2029f526b70c145b9fbe</title>
<path fill="none" stroke="black" d="M78.24,-163.31C81.16,-162.1 84.12,-160.96 87,-160 162.32,-134.87 186.09,-147.31 262,-124 263.43,-123.56 264.87,-123.09 266.33,-122.6"/>
<polygon fill="black" stroke="black" points="267.74,-125.81 275.92,-119.08 265.32,-119.24 267.74,-125.81"/>
<g id="a_edge3&#45;headlabel"><a xlink:href="dir_000229_000151.html" target="_top" xlink:title="2">
<text text-anchor="middle" x="265.34" y="-127.21" font-family="Helvetica,sans-Serif" font-size="10.00">2</text>
</a>
</g>
</g>
</g>
</svg>
