<?xml version="1.0" encoding="UTF-8" standalone="no"?>
<!DOCTYPE svg PUBLIC "-//W3C//DTD SVG 1.1//EN"
 "http://www.w3.org/Graphics/SVG/1.1/DTD/svg11.dtd">
<!-- Generated by graphviz version 3.0.0 (20220413.0242)
 -->
<!-- Title: ee/network/tcpip Pages: 1 -->
<svg width="278pt" height="159pt"
 viewBox="0.00 0.00 278.00 159.00" xmlns="http://www.w3.org/2000/svg" xmlns:xlink="http://www.w3.org/1999/xlink">
<g id="graph0" class="graph" transform="scale(1 1) rotate(0) translate(4 155)">
<title>ee/network/tcpip</title>
<polygon fill="white" stroke="transparent" points="-4,4 -4,-155 274,-155 274,4 -4,4"/>
<g id="clust1" class="cluster">
<title>clusterdir_b47d22a23da27aa98d6e01bcdbde3243</title>
<g id="a_clust1"><a xlink:href="dir_b47d22a23da27aa98d6e01bcdbde3243.html" target="_top" xlink:title="network">
<polygon fill="#deebf9" stroke="#7f7f7f" stroke-dasharray="5,2" points="20,-56 20,-143 250,-143 250,-56 20,-56"/>
<text text-anchor="middle" x="135" y="-131" font-family="Helvetica,sans-Serif" font-size="10.00">network</text>
</a>
</g>
</g>
<g id="clust2" class="cluster">
<title>clusterdir_ca24a423c1b235320d00c488564f2476</title>
<g id="a_clust2"><a xlink:href="dir_ca24a423c1b235320d00c488564f2476.html" target="_top">
<polygon fill="#deebf9" stroke="#404040" stroke-width="2" points="28,-64 28,-116 242,-116 242,-64 28,-64"/>
</a>
</g>
</g>
<!-- dir_ca24a423c1b235320d00c488564f2476 -->
<g id="node1" class="node">
<title>dir_ca24a423c1b235320d00c488564f2476</title>
<text text-anchor="middle" x="207" y="-87.5" font-family="Helvetica,sans-Serif" font-size="10.00">tcpip</text>
</g>
<!-- dir_f5863da36fbb72d29e9b1dbcb4acc18d -->
<g id="node2" class="node">
<title>dir_f5863da36fbb72d29e9b1dbcb4acc18d</title>
<g id="a_node2"><a xlink:href="dir_f5863da36fbb72d29e9b1dbcb4acc18d.html" target="_top" xlink:title="include">
<polygon fill="#60a2e3" stroke="#404040" points="90,-108 36,-108 36,-72 90,-72 90,-108"/>
<text text-anchor="middle" x="63" y="-87.5" font-family="Helvetica,sans-Serif" font-size="10.00">include</text>
</a>
</g>
</g>
<!-- dir_0981ace215aa2029f526b70c145b9fbe -->
<g id="node4" class="node">
<title>dir_0981ace215aa2029f526b70c145b9fbe</title>
<g id="a_node4"><a xlink:href="dir_0981ace215aa2029f526b70c145b9fbe.html" target="_top" xlink:title="iop">
<polygon fill="none" stroke="red" points="54,-36 0,-36 0,0 54,0 54,-36"/>
<text text-anchor="middle" x="27" y="-15.5" font-family="Helvetica,sans-Serif" font-size="10.00">iop</text>
</a>
</g>
</g>
<!-- dir_f5863da36fbb72d29e9b1dbcb4acc18d&#45;&gt;dir_0981ace215aa2029f526b70c145b9fbe -->
<g id="edge1" class="edge">
<title>dir_f5863da36fbb72d29e9b1dbcb4acc18d&#45;&gt;dir_0981ace215aa2029f526b70c145b9fbe</title>
<path fill="none" stroke="black" d="M54.1,-71.7C50,-63.73 45.05,-54.1 40.51,-45.26"/>
<polygon fill="black" stroke="black" points="43.48,-43.4 35.8,-36.1 37.26,-46.6 43.48,-43.4"/>
<g id="a_edge1&#45;headlabel"><a xlink:href="dir_000081_000151.html" target="_top" xlink:title="1">
<text text-anchor="middle" x="47.65" y="-42.79" font-family="Helvetica,sans-Serif" font-size="10.00">1</text>
</a>
</g>
</g>
<!-- dir_bdd9a5d540de89e9fe90efdfc6973a4f -->
<g id="node7" class="node">
<title>dir_bdd9a5d540de89e9fe90efdfc6973a4f</title>
<g id="a_node7"><a xlink:href="dir_bdd9a5d540de89e9fe90efdfc6973a4f.html" target="_top" xlink:title="common">
<polygon fill="none" stroke="red" points="126,-36 72,-36 72,0 126,0 126,-36"/>
<text text-anchor="middle" x="99" y="-15.5" font-family="Helvetica,sans-Serif" font-size="10.00">common</text>
</a>
</g>
</g>
<!-- dir_f5863da36fbb72d29e9b1dbcb4acc18d&#45;&gt;dir_bdd9a5d540de89e9fe90efdfc6973a4f -->
<g id="edge2" class="edge">
<title>dir_f5863da36fbb72d29e9b1dbcb4acc18d&#45;&gt;dir_bdd9a5d540de89e9fe90efdfc6973a4f</title>
<path fill="none" stroke="black" d="M71.9,-71.7C76,-63.73 80.95,-54.1 85.49,-45.26"/>
<polygon fill="black" stroke="black" points="88.74,-46.6 90.2,-36.1 82.52,-43.4 88.74,-46.6"/>
<g id="a_edge2&#45;headlabel"><a xlink:href="dir_000081_000022.html" target="_top" xlink:title="1">
<text text-anchor="middle" x="89.62" y="-48.59" font-family="Helvetica,sans-Serif" font-size="10.00">1</text>
</a>
</g>
</g>
<!-- dir_72fd2ca65a98aa6f116e0a45d1317c83 -->
<g id="node3" class="node">
<title>dir_72fd2ca65a98aa6f116e0a45d1317c83</title>
<g id="a_node3"><a xlink:href="dir_72fd2ca65a98aa6f116e0a45d1317c83.html" target="_top" xlink:title="src">
<polygon fill="#60a2e3" stroke="#404040" points="162,-108 108,-108 108,-72 162,-72 162,-108"/>
<text text-anchor="middle" x="135" y="-87.5" font-family="Helvetica,sans-Serif" font-size="10.00">src</text>
</a>
</g>
</g>
<!-- dir_72fd2ca65a98aa6f116e0a45d1317c83&#45;&gt;dir_0981ace215aa2029f526b70c145b9fbe -->
<g id="edge3" class="edge">
<title>dir_72fd2ca65a98aa6f116e0a45d1317c83&#45;&gt;dir_0981ace215aa2029f526b70c145b9fbe</title>
<path fill="none" stroke="black" d="M118.22,-71.89C112.41,-66.46 105.68,-60.65 99,-56 92.52,-51.49 77.85,-43.81 63.44,-36.61"/>
<polygon fill="black" stroke="black" points="64.6,-33.28 54.09,-31.99 61.5,-39.56 64.6,-33.28"/>
<g id="a_edge3&#45;headlabel"><a xlink:href="dir_000244_000151.html" target="_top" xlink:title="4">
<text text-anchor="middle" x="69.08" y="-29.83" font-family="Helvetica,sans-Serif" font-size="10.00">4</text>
</a>
</g>
</g>
<!-- dir_694ec83a64f58cbdefbefce65cd1011c -->
<g id="node5" class="node">
<title>dir_694ec83a64f58cbdefbefce65cd1011c</title>
<g id="a_node5"><a xlink:href="dir_694ec83a64f58cbdefbefce65cd1011c.html" target="_top" xlink:title="kernel">
<polygon fill="none" stroke="red" stroke-dasharray="5,2" points="198,-36 144,-36 144,0 198,0 198,-36"/>
<text text-anchor="middle" x="171" y="-15.5" font-family="Helvetica,sans-Serif" font-size="10.00">kernel</text>
</a>
</g>
</g>
<!-- dir_72fd2ca65a98aa6f116e0a45d1317c83&#45;&gt;dir_694ec83a64f58cbdefbefce65cd1011c -->
<g id="edge4" class="edge">
<title>dir_72fd2ca65a98aa6f116e0a45d1317c83&#45;&gt;dir_694ec83a64f58cbdefbefce65cd1011c</title>
<path fill="none" stroke="black" d="M143.9,-71.7C148,-63.73 152.95,-54.1 157.49,-45.26"/>
<polygon fill="black" stroke="black" points="160.74,-46.6 162.2,-36.1 154.52,-43.4 160.74,-46.6"/>
<g id="a_edge4&#45;headlabel"><a xlink:href="dir_000244_000157.html" target="_top" xlink:title="2">
<text text-anchor="middle" x="161.62" y="-48.59" font-family="Helvetica,sans-Serif" font-size="10.00">2</text>
</a>
</g>
</g>
<!-- dir_a0a8ac7efb6662b749c1285408048e6d -->
<g id="node6" class="node">
<title>dir_a0a8ac7efb6662b749c1285408048e6d</title>
<g id="a_node6"><a xlink:href="dir_a0a8ac7efb6662b749c1285408048e6d.html" target="_top" xlink:title="erl">
<polygon fill="none" stroke="red" stroke-dasharray="5,2" points="270,-36 216,-36 216,0 270,0 270,-36"/>
<text text-anchor="middle" x="243" y="-15.5" font-family="Helvetica,sans-Serif" font-size="10.00">erl</text>
</a>
</g>
</g>
<!-- dir_72fd2ca65a98aa6f116e0a45d1317c83&#45;&gt;dir_a0a8ac7efb6662b749c1285408048e6d -->
<g id="edge5" class="edge">
<title>dir_72fd2ca65a98aa6f116e0a45d1317c83&#45;&gt;dir_a0a8ac7efb6662b749c1285408048e6d</title>
<path fill="none" stroke="black" d="M151.78,-71.89C157.59,-66.46 164.32,-60.65 171,-56 177.48,-51.49 192.15,-43.81 206.56,-36.61"/>
<polygon fill="black" stroke="black" points="208.5,-39.56 215.91,-31.99 205.4,-33.28 208.5,-39.56"/>
<g id="a_edge5&#45;headlabel"><a xlink:href="dir_000244_000042.html" target="_top" xlink:title="1">
<text text-anchor="middle" x="206.53" y="-41.19" font-family="Helvetica,sans-Serif" font-size="10.00">1</text>
</a>
</g>
</g>
<!-- dir_72fd2ca65a98aa6f116e0a45d1317c83&#45;&gt;dir_bdd9a5d540de89e9fe90efdfc6973a4f -->
<g id="edge6" class="edge">
<title>dir_72fd2ca65a98aa6f116e0a45d1317c83&#45;&gt;dir_bdd9a5d540de89e9fe90efdfc6973a4f</title>
<path fill="none" stroke="black" d="M126.1,-71.7C122,-63.73 117.05,-54.1 112.51,-45.26"/>
<polygon fill="black" stroke="black" points="115.48,-43.4 107.8,-36.1 109.26,-46.6 115.48,-43.4"/>
<g id="a_edge6&#45;headlabel"><a xlink:href="dir_000244_000022.html" target="_top" xlink:title="2">
<text text-anchor="middle" x="119.65" y="-42.79" font-family="Helvetica,sans-Serif" font-size="10.00">2</text>
</a>
</g>
</g>
</g>
</svg>
