<?xml version="1.0" encoding="UTF-8" standalone="no"?>
<!DOCTYPE svg PUBLIC "-//W3C//DTD SVG 1.1//EN"
 "http://www.w3.org/Graphics/SVG/1.1/DTD/svg11.dtd">
<!-- Generated by graphviz version 3.0.0 (20220413.0242)
 -->
<!-- Title: iop/fs/libbdm/src Pages: 1 -->
<svg width="236pt" height="175pt"
 viewBox="0.00 0.00 236.00 175.00" xmlns="http://www.w3.org/2000/svg" xmlns:xlink="http://www.w3.org/1999/xlink">
<g id="graph0" class="graph" transform="scale(1 1) rotate(0) translate(4 171)">
<title>iop/fs/libbdm/src</title>
<polygon fill="white" stroke="transparent" points="-4,4 -4,-171 232,-171 232,4 -4,4"/>
<g id="clust1" class="cluster">
<title>clusterdir_10cce8191a2d4629e92aaca1231c0797</title>
<g id="a_clust1"><a xlink:href="dir_10cce8191a2d4629e92aaca1231c0797.html" target="_top" xlink:title="libbdm">
<polygon fill="#deebf9" stroke="#7f7f7f" stroke-dasharray="5,2" points="8,-8 8,-159 166,-159 166,-8 8,-8"/>
<text text-anchor="middle" x="87" y="-147" font-family="Helvetica,sans-Serif" font-size="10.00">libbdm</text>
</a>
</g>
</g>
<g id="clust2" class="cluster">
<title>clusterdir_180e179e842835315c1a0a2fde604530</title>
<g id="a_clust2"><a xlink:href="dir_180e179e842835315c1a0a2fde604530.html" target="_top">
<polygon fill="#deebf9" stroke="#404040" stroke-width="2" points="16,-80 16,-132 158,-132 158,-80 16,-80"/>
</a>
</g>
</g>
<!-- dir_79cc41b78d650d94271256f66f3b3a8f -->
<g id="node1" class="node">
<title>dir_79cc41b78d650d94271256f66f3b3a8f</title>
<g id="a_node1"><a xlink:href="dir_79cc41b78d650d94271256f66f3b3a8f.html" target="_top" xlink:title="include">
<polygon fill="#60a2e3" stroke="#404040" points="78,-52 24,-52 24,-16 78,-16 78,-52"/>
<text text-anchor="middle" x="51" y="-31.5" font-family="Helvetica,sans-Serif" font-size="10.00">include</text>
</a>
</g>
</g>
<!-- dir_180e179e842835315c1a0a2fde604530 -->
<g id="node2" class="node">
<title>dir_180e179e842835315c1a0a2fde604530</title>
<text text-anchor="middle" x="51" y="-103.5" font-family="Helvetica,sans-Serif" font-size="10.00">src</text>
</g>
<!-- dir_180e179e842835315c1a0a2fde604530&#45;&gt;dir_79cc41b78d650d94271256f66f3b3a8f -->
<g id="edge1" class="edge">
<title>dir_180e179e842835315c1a0a2fde604530&#45;&gt;dir_79cc41b78d650d94271256f66f3b3a8f</title>
<path fill="none" stroke="black" d="M51,-87.7C51,-79.98 51,-70.71 51,-62.11"/>
<polygon fill="black" stroke="black" points="54.5,-62.1 51,-52.1 47.5,-62.1 54.5,-62.1"/>
<g id="a_edge1&#45;headlabel"><a xlink:href="dir_000288_000115.html" target="_top" xlink:title="1">
<text text-anchor="middle" x="57.34" y="-63.2" font-family="Helvetica,sans-Serif" font-size="10.00">1</text>
</a>
</g>
</g>
<!-- dir_091fb412ea895ba245469a0ae307f42f -->
<g id="node3" class="node">
<title>dir_091fb412ea895ba245469a0ae307f42f</title>
<g id="a_node3"><a xlink:href="dir_091fb412ea895ba245469a0ae307f42f.html" target="_top" xlink:title="include">
<polygon fill="#60a2e3" stroke="#404040" points="150,-124 96,-124 96,-88 150,-88 150,-124"/>
<text text-anchor="middle" x="123" y="-103.5" font-family="Helvetica,sans-Serif" font-size="10.00">include</text>
</a>
</g>
</g>
<!-- dir_9be0baa3d4a3e9f480a9ee70594037fa -->
<g id="node4" class="node">
<title>dir_9be0baa3d4a3e9f480a9ee70594037fa</title>
<g id="a_node4"><a xlink:href="dir_9be0baa3d4a3e9f480a9ee70594037fa.html" target="_top" xlink:title="kernel">
<polygon fill="none" stroke="red" stroke-dasharray="5,2" points="228,-52 174,-52 174,-16 228,-16 228,-52"/>
<text text-anchor="middle" x="201" y="-31.5" font-family="Helvetica,sans-Serif" font-size="10.00">kernel</text>
</a>
</g>
</g>
<!-- dir_091fb412ea895ba245469a0ae307f42f&#45;&gt;dir_9be0baa3d4a3e9f480a9ee70594037fa -->
<g id="edge2" class="edge">
<title>dir_091fb412ea895ba245469a0ae307f42f&#45;&gt;dir_9be0baa3d4a3e9f480a9ee70594037fa</title>
<path fill="none" stroke="black" d="M142.28,-87.7C151.92,-79.05 163.73,-68.45 174.23,-59.03"/>
<polygon fill="black" stroke="black" points="176.84,-61.39 181.94,-52.1 172.16,-56.18 176.84,-61.39"/>
<g id="a_edge2&#45;headlabel"><a xlink:href="dir_000116_000158.html" target="_top" xlink:title="1">
<text text-anchor="middle" x="176.06" y="-63.4" font-family="Helvetica,sans-Serif" font-size="10.00">1</text>
</a>
</g>
</g>
</g>
</svg>
