<?xml version="1.0" encoding="UTF-8" standalone="no"?>
<!DOCTYPE svg PUBLIC "-//W3C//DTD SVG 1.1//EN"
 "http://www.w3.org/Graphics/SVG/1.1/DTD/svg11.dtd">
<!-- Generated by graphviz version 3.0.0 (20220413.0242)
 -->
<!-- Title: iop/usb/camera Pages: 1 -->
<svg width="372pt" height="183pt"
 viewBox="0.00 0.00 372.00 183.00" xmlns="http://www.w3.org/2000/svg" xmlns:xlink="http://www.w3.org/1999/xlink">
<g id="graph0" class="graph" transform="scale(1 1) rotate(0) translate(4 179)">
<title>iop/usb/camera</title>
<polygon fill="white" stroke="transparent" points="-4,4 -4,-179 368,-179 368,4 -4,4"/>
<g id="clust1" class="cluster">
<title>clusterdir_b6c875632944d243a548db157cd77ec2</title>
<g id="a_clust1"><a xlink:href="dir_b6c875632944d243a548db157cd77ec2.html" target="_top" xlink:title="usb">
<polygon fill="#deebf9" stroke="#7f7f7f" stroke-dasharray="5,2" points="8,-8 8,-167 228,-167 228,-8 8,-8"/>
<text text-anchor="middle" x="118" y="-155" font-family="Helvetica,sans-Serif" font-size="10.00">usb</text>
</a>
</g>
</g>
<g id="clust2" class="cluster">
<title>clusterdir_354d0fe30f8451f44d30d5ee272e7643</title>
<g id="a_clust2"><a xlink:href="dir_354d0fe30f8451f44d30d5ee272e7643.html" target="_top">
<polygon fill="#deebf9" stroke="#404040" stroke-width="2" points="16,-16 16,-140 158,-140 158,-16 16,-16"/>
</a>
</g>
</g>
<!-- dir_8f550b51c304fe10978bfd792866fae2 -->
<g id="node1" class="node">
<title>dir_8f550b51c304fe10978bfd792866fae2</title>
<g id="a_node1"><a xlink:href="dir_8f550b51c304fe10978bfd792866fae2.html" target="_top" xlink:title="usbd">
<polygon fill="#60a2e3" stroke="red" points="220,-60 166,-60 166,-24 220,-24 220,-60"/>
<text text-anchor="middle" x="193" y="-39.5" font-family="Helvetica,sans-Serif" font-size="10.00">usbd</text>
</a>
</g>
</g>
<!-- dir_354d0fe30f8451f44d30d5ee272e7643 -->
<g id="node2" class="node">
<title>dir_354d0fe30f8451f44d30d5ee272e7643</title>
<text text-anchor="middle" x="123" y="-111.5" font-family="Helvetica,sans-Serif" font-size="10.00">camera</text>
</g>
<!-- dir_9a86dbb94afa354b42c3b83282a0ba50 -->
<g id="node3" class="node">
<title>dir_9a86dbb94afa354b42c3b83282a0ba50</title>
<g id="a_node3"><a xlink:href="dir_9a86dbb94afa354b42c3b83282a0ba50.html" target="_top" xlink:title="include">
<polygon fill="#60a2e3" stroke="#404040" points="78,-60 24,-60 24,-24 78,-24 78,-60"/>
<text text-anchor="middle" x="51" y="-39.5" font-family="Helvetica,sans-Serif" font-size="10.00">include</text>
</a>
</g>
</g>
<!-- dir_3df15571f2d889d39f44f0244a444c2b -->
<g id="node4" class="node">
<title>dir_3df15571f2d889d39f44f0244a444c2b</title>
<g id="a_node4"><a xlink:href="dir_3df15571f2d889d39f44f0244a444c2b.html" target="_top" xlink:title="src">
<polygon fill="#60a2e3" stroke="#404040" points="78,-132 24,-132 24,-96 78,-96 78,-132"/>
<text text-anchor="middle" x="51" y="-111.5" font-family="Helvetica,sans-Serif" font-size="10.00">src</text>
</a>
</g>
</g>
<!-- dir_3df15571f2d889d39f44f0244a444c2b&#45;&gt;dir_8f550b51c304fe10978bfd792866fae2 -->
<g id="edge1" class="edge">
<title>dir_3df15571f2d889d39f44f0244a444c2b&#45;&gt;dir_8f550b51c304fe10978bfd792866fae2</title>
<path fill="none" stroke="black" d="M78.23,-100.1C103.13,-88.28 138.45,-71.49 156.82,-62.49"/>
<polygon fill="black" stroke="black" points="158.61,-65.52 166,-57.92 155.48,-59.25 158.61,-65.52"/>
<g id="a_edge1&#45;headlabel"><a xlink:href="dir_000322_000353.html" target="_top" xlink:title="3">
<text text-anchor="middle" x="156.65" y="-67.16" font-family="Helvetica,sans-Serif" font-size="10.00">3</text>
</a>
</g>
</g>
<!-- dir_3df15571f2d889d39f44f0244a444c2b&#45;&gt;dir_9a86dbb94afa354b42c3b83282a0ba50 -->
<g id="edge2" class="edge">
<title>dir_3df15571f2d889d39f44f0244a444c2b&#45;&gt;dir_9a86dbb94afa354b42c3b83282a0ba50</title>
<path fill="none" stroke="black" d="M51,-95.7C51,-87.98 51,-78.71 51,-70.11"/>
<polygon fill="black" stroke="black" points="54.5,-70.1 51,-60.1 47.5,-70.1 54.5,-70.1"/>
<g id="a_edge2&#45;headlabel"><a xlink:href="dir_000322_000142.html" target="_top" xlink:title="1">
<text text-anchor="middle" x="57.34" y="-71.2" font-family="Helvetica,sans-Serif" font-size="10.00">1</text>
</a>
</g>
</g>
<!-- dir_9be0baa3d4a3e9f480a9ee70594037fa -->
<g id="node5" class="node">
<title>dir_9be0baa3d4a3e9f480a9ee70594037fa</title>
<g id="a_node5"><a xlink:href="dir_9be0baa3d4a3e9f480a9ee70594037fa.html" target="_top" xlink:title="kernel">
<polygon fill="none" stroke="red" stroke-dasharray="5,2" points="292,-60 238,-60 238,-24 292,-24 292,-60"/>
<text text-anchor="middle" x="265" y="-39.5" font-family="Helvetica,sans-Serif" font-size="10.00">kernel</text>
</a>
</g>
</g>
<!-- dir_3df15571f2d889d39f44f0244a444c2b&#45;&gt;dir_9be0baa3d4a3e9f480a9ee70594037fa -->
<g id="edge3" class="edge">
<title>dir_3df15571f2d889d39f44f0244a444c2b&#45;&gt;dir_9be0baa3d4a3e9f480a9ee70594037fa</title>
<path fill="none" stroke="black" d="M78.28,-99.43C81.19,-98.19 84.14,-97.02 87,-96 146.5,-74.8 167.76,-82.5 228.22,-61.13"/>
<polygon fill="black" stroke="black" points="229.67,-64.33 237.85,-57.6 227.26,-57.76 229.67,-64.33"/>
<g id="a_edge3&#45;headlabel"><a xlink:href="dir_000322_000158.html" target="_top" xlink:title="19">
<text text-anchor="middle" x="227.27" y="-65.73" font-family="Helvetica,sans-Serif" font-size="10.00">19</text>
</a>
</g>
</g>
<!-- dir_bdd9a5d540de89e9fe90efdfc6973a4f -->
<g id="node6" class="node">
<title>dir_bdd9a5d540de89e9fe90efdfc6973a4f</title>
<g id="a_node6"><a xlink:href="dir_bdd9a5d540de89e9fe90efdfc6973a4f.html" target="_top" xlink:title="common">
<polygon fill="none" stroke="red" points="364,-60 310,-60 310,-24 364,-24 364,-60"/>
<text text-anchor="middle" x="337" y="-39.5" font-family="Helvetica,sans-Serif" font-size="10.00">common</text>
</a>
</g>
</g>
<!-- dir_3df15571f2d889d39f44f0244a444c2b&#45;&gt;dir_bdd9a5d540de89e9fe90efdfc6973a4f -->
<g id="edge4" class="edge">
<title>dir_3df15571f2d889d39f44f0244a444c2b&#45;&gt;dir_bdd9a5d540de89e9fe90efdfc6973a4f</title>
<path fill="none" stroke="black" d="M78.21,-99.21C81.13,-98.01 84.1,-96.91 87,-96 175.97,-68.1 206.92,-87.48 299.98,-59.81"/>
<polygon fill="black" stroke="black" points="301.27,-63.08 309.79,-56.79 299.21,-56.39 301.27,-63.08"/>
<g id="a_edge4&#45;headlabel"><a xlink:href="dir_000322_000022.html" target="_top" xlink:title="1">
<text text-anchor="middle" x="298.67" y="-64.35" font-family="Helvetica,sans-Serif" font-size="10.00">1</text>
</a>
</g>
</g>
</g>
</svg>
