<?xml version="1.0" encoding="UTF-8" standalone="no"?>
<!DOCTYPE svg PUBLIC "-//W3C//DTD SVG 1.1//EN"
 "http://www.w3.org/Graphics/SVG/1.1/DTD/svg11.dtd">
<!-- Generated by graphviz version 3.0.0 (20220413.0242)
 -->
<!-- Title: ee/rpc/memorycard Pages: 1 -->
<svg width="324pt" height="231pt"
 viewBox="0.00 0.00 324.00 231.00" xmlns="http://www.w3.org/2000/svg" xmlns:xlink="http://www.w3.org/1999/xlink">
<g id="graph0" class="graph" transform="scale(1 1) rotate(0) translate(4 227)">
<title>ee/rpc/memorycard</title>
<polygon fill="white" stroke="transparent" points="-4,4 -4,-227 320,-227 320,4 -4,4"/>
<g id="clust1" class="cluster">
<title>clusterdir_5b119dc963fa9b25ef41951231899460</title>
<g id="a_clust1"><a xlink:href="dir_5b119dc963fa9b25ef41951231899460.html" target="_top" xlink:title="rpc">
<polygon fill="#deebf9" stroke="#7f7f7f" stroke-dasharray="5,2" points="8,-56 8,-215 182,-215 182,-56 8,-56"/>
<text text-anchor="middle" x="95" y="-203" font-family="Helvetica,sans-Serif" font-size="10.00">rpc</text>
</a>
</g>
</g>
<g id="clust2" class="cluster">
<title>clusterdir_52af18bf396be92337d4eeddb9a1740b</title>
<g id="a_clust2"><a xlink:href="dir_52af18bf396be92337d4eeddb9a1740b.html" target="_top">
<polygon fill="#deebf9" stroke="#404040" stroke-width="2" points="16,-64 16,-188 174,-188 174,-64 16,-64"/>
</a>
</g>
</g>
<!-- dir_52af18bf396be92337d4eeddb9a1740b -->
<g id="node1" class="node">
<title>dir_52af18bf396be92337d4eeddb9a1740b</title>
<text text-anchor="middle" x="131" y="-159.5" font-family="Helvetica,sans-Serif" font-size="10.00">memorycard</text>
</g>
<!-- dir_76c0ea988611758bf556e82d119dc5f5 -->
<g id="node2" class="node">
<title>dir_76c0ea988611758bf556e82d119dc5f5</title>
<g id="a_node2"><a xlink:href="dir_76c0ea988611758bf556e82d119dc5f5.html" target="_top" xlink:title="include">
<polygon fill="#60a2e3" stroke="#404040" points="78,-108 24,-108 24,-72 78,-72 78,-108"/>
<text text-anchor="middle" x="51" y="-87.5" font-family="Helvetica,sans-Serif" font-size="10.00">include</text>
</a>
</g>
</g>
<!-- dir_bdd9a5d540de89e9fe90efdfc6973a4f -->
<g id="node4" class="node">
<title>dir_bdd9a5d540de89e9fe90efdfc6973a4f</title>
<g id="a_node4"><a xlink:href="dir_bdd9a5d540de89e9fe90efdfc6973a4f.html" target="_top" xlink:title="common">
<polygon fill="none" stroke="red" points="105,-36 51,-36 51,0 105,0 105,-36"/>
<text text-anchor="middle" x="78" y="-15.5" font-family="Helvetica,sans-Serif" font-size="10.00">common</text>
</a>
</g>
</g>
<!-- dir_76c0ea988611758bf556e82d119dc5f5&#45;&gt;dir_bdd9a5d540de89e9fe90efdfc6973a4f -->
<g id="edge1" class="edge">
<title>dir_76c0ea988611758bf556e82d119dc5f5&#45;&gt;dir_bdd9a5d540de89e9fe90efdfc6973a4f</title>
<path fill="none" stroke="black" d="M57.67,-71.7C60.71,-63.81 64.38,-54.3 67.76,-45.55"/>
<polygon fill="black" stroke="black" points="71.07,-46.69 71.4,-36.1 64.54,-44.17 71.07,-46.69"/>
<g id="a_edge1&#45;headlabel"><a xlink:href="dir_000092_000022.html" target="_top" xlink:title="1">
<text text-anchor="middle" x="72.42" y="-48.57" font-family="Helvetica,sans-Serif" font-size="10.00">1</text>
</a>
</g>
</g>
<!-- dir_caf0af085a7c65a631c06dc345ebd7aa -->
<g id="node3" class="node">
<title>dir_caf0af085a7c65a631c06dc345ebd7aa</title>
<g id="a_node3"><a xlink:href="dir_caf0af085a7c65a631c06dc345ebd7aa.html" target="_top" xlink:title="src">
<polygon fill="#60a2e3" stroke="#404040" points="78,-180 24,-180 24,-144 78,-144 78,-180"/>
<text text-anchor="middle" x="51" y="-159.5" font-family="Helvetica,sans-Serif" font-size="10.00">src</text>
</a>
</g>
</g>
<!-- dir_caf0af085a7c65a631c06dc345ebd7aa&#45;&gt;dir_76c0ea988611758bf556e82d119dc5f5 -->
<g id="edge3" class="edge">
<title>dir_caf0af085a7c65a631c06dc345ebd7aa&#45;&gt;dir_76c0ea988611758bf556e82d119dc5f5</title>
<path fill="none" stroke="black" d="M51,-143.7C51,-135.98 51,-126.71 51,-118.11"/>
<polygon fill="black" stroke="black" points="54.5,-118.1 51,-108.1 47.5,-118.1 54.5,-118.1"/>
<g id="a_edge3&#45;headlabel"><a xlink:href="dir_000254_000092.html" target="_top" xlink:title="1">
<text text-anchor="middle" x="57.34" y="-119.2" font-family="Helvetica,sans-Serif" font-size="10.00">1</text>
</a>
</g>
</g>
<!-- dir_caf0af085a7c65a631c06dc345ebd7aa&#45;&gt;dir_bdd9a5d540de89e9fe90efdfc6973a4f -->
<g id="edge5" class="edge">
<title>dir_caf0af085a7c65a631c06dc345ebd7aa&#45;&gt;dir_bdd9a5d540de89e9fe90efdfc6973a4f</title>
<path fill="none" stroke="black" d="M66.61,-143.77C74.37,-134.03 82.95,-121.18 87,-108 93.22,-87.77 90.27,-63.87 86.15,-45.92"/>
<polygon fill="black" stroke="black" points="89.51,-44.95 83.65,-36.12 82.73,-46.68 89.51,-44.95"/>
<g id="a_edge5&#45;headlabel"><a xlink:href="dir_000254_000022.html" target="_top" xlink:title="1">
<text text-anchor="middle" x="93.15" y="-45.23" font-family="Helvetica,sans-Serif" font-size="10.00">1</text>
</a>
</g>
</g>
<!-- dir_a0a8ac7efb6662b749c1285408048e6d -->
<g id="node5" class="node">
<title>dir_a0a8ac7efb6662b749c1285408048e6d</title>
<g id="a_node5"><a xlink:href="dir_a0a8ac7efb6662b749c1285408048e6d.html" target="_top" xlink:title="erl">
<polygon fill="none" stroke="red" stroke-dasharray="5,2" points="244,-108 190,-108 190,-72 244,-72 244,-108"/>
<text text-anchor="middle" x="217" y="-87.5" font-family="Helvetica,sans-Serif" font-size="10.00">erl</text>
</a>
</g>
</g>
<!-- dir_caf0af085a7c65a631c06dc345ebd7aa&#45;&gt;dir_a0a8ac7efb6662b749c1285408048e6d -->
<g id="edge4" class="edge">
<title>dir_caf0af085a7c65a631c06dc345ebd7aa&#45;&gt;dir_a0a8ac7efb6662b749c1285408048e6d</title>
<path fill="none" stroke="black" d="M78.04,-148C81.05,-146.62 84.08,-145.26 87,-144 126.91,-126.7 137.84,-124.69 178,-108 178.84,-107.65 179.68,-107.3 180.53,-106.94"/>
<polygon fill="black" stroke="black" points="181.94,-110.15 189.78,-103.01 179.2,-103.7 181.94,-110.15"/>
<g id="a_edge4&#45;headlabel"><a xlink:href="dir_000254_000042.html" target="_top" xlink:title="1">
<text text-anchor="middle" x="179.75" y="-111.67" font-family="Helvetica,sans-Serif" font-size="10.00">1</text>
</a>
</g>
</g>
<!-- dir_694ec83a64f58cbdefbefce65cd1011c -->
<g id="node6" class="node">
<title>dir_694ec83a64f58cbdefbefce65cd1011c</title>
<g id="a_node6"><a xlink:href="dir_694ec83a64f58cbdefbefce65cd1011c.html" target="_top" xlink:title="kernel">
<polygon fill="none" stroke="red" stroke-dasharray="5,2" points="316,-108 262,-108 262,-72 316,-72 316,-108"/>
<text text-anchor="middle" x="289" y="-87.5" font-family="Helvetica,sans-Serif" font-size="10.00">kernel</text>
</a>
</g>
</g>
<!-- dir_caf0af085a7c65a631c06dc345ebd7aa&#45;&gt;dir_694ec83a64f58cbdefbefce65cd1011c -->
<g id="edge2" class="edge">
<title>dir_caf0af085a7c65a631c06dc345ebd7aa&#45;&gt;dir_694ec83a64f58cbdefbefce65cd1011c</title>
<path fill="none" stroke="black" d="M78.25,-147.35C81.17,-146.12 84.12,-144.98 87,-144 155.55,-120.72 179.55,-131.31 252.16,-107.86"/>
<polygon fill="black" stroke="black" points="253.37,-111.14 261.75,-104.65 251.16,-104.5 253.37,-111.14"/>
<g id="a_edge2&#45;headlabel"><a xlink:href="dir_000254_000157.html" target="_top" xlink:title="1">
<text text-anchor="middle" x="250.86" y="-112.47" font-family="Helvetica,sans-Serif" font-size="10.00">1</text>
</a>
</g>
</g>
</g>
</svg>
