<?xml version="1.0" encoding="UTF-8" standalone="no"?>
<!DOCTYPE svg PUBLIC "-//W3C//DTD SVG 1.1//EN"
 "http://www.w3.org/Graphics/SVG/1.1/DTD/svg11.dtd">
<!-- Generated by graphviz version 3.0.0 (20220413.0242)
 -->
<!-- Title: iop/memorycard Pages: 1 -->
<svg width="252pt" height="247pt"
 viewBox="0.00 0.00 252.00 247.00" xmlns="http://www.w3.org/2000/svg" xmlns:xlink="http://www.w3.org/1999/xlink">
<g id="graph0" class="graph" transform="scale(1 1) rotate(0) translate(4 243)">
<title>iop/memorycard</title>
<polygon fill="white" stroke="transparent" points="-4,4 -4,-243 248,-243 248,4 -4,4"/>
<g id="clust1" class="cluster">
<title>clusterdir_0981ace215aa2029f526b70c145b9fbe</title>
<g id="a_clust1"><a xlink:href="dir_0981ace215aa2029f526b70c145b9fbe.html" target="_top" xlink:title="iop">
<polygon fill="#deebf9" stroke="#404040" stroke-dasharray="5,2" points="8,-8 8,-231 182,-231 182,-8 8,-8"/>
<text text-anchor="middle" x="95" y="-219" font-family="Helvetica,sans-Serif" font-size="10.00">iop</text>
</a>
</g>
</g>
<g id="clust2" class="cluster">
<title>clusterdir_5805bfcfbe100e4767f47461b3e6402b</title>
<g id="a_clust2"><a xlink:href="dir_5805bfcfbe100e4767f47461b3e6402b.html" target="_top">
<polygon fill="#deebf9" stroke="#404040" stroke-width="2" points="16,-80 16,-204 174,-204 174,-80 16,-80"/>
</a>
</g>
</g>
<!-- dir_9be0baa3d4a3e9f480a9ee70594037fa -->
<g id="node1" class="node">
<title>dir_9be0baa3d4a3e9f480a9ee70594037fa</title>
<g id="a_node1"><a xlink:href="dir_9be0baa3d4a3e9f480a9ee70594037fa.html" target="_top" xlink:title="kernel">
<polygon fill="#60a2e3" stroke="red" points="78,-52 24,-52 24,-16 78,-16 78,-52"/>
<text text-anchor="middle" x="51" y="-31.5" font-family="Helvetica,sans-Serif" font-size="10.00">kernel</text>
</a>
</g>
</g>
<!-- dir_40ac35421bc63b72c26b6c69b1517fd6 -->
<g id="node2" class="node">
<title>dir_40ac35421bc63b72c26b6c69b1517fd6</title>
<g id="a_node2"><a xlink:href="dir_40ac35421bc63b72c26b6c69b1517fd6.html" target="_top" xlink:title="system">
<polygon fill="#60a2e3" stroke="red" points="150,-52 96,-52 96,-16 150,-16 150,-52"/>
<text text-anchor="middle" x="123" y="-31.5" font-family="Helvetica,sans-Serif" font-size="10.00">system</text>
</a>
</g>
</g>
<!-- dir_5805bfcfbe100e4767f47461b3e6402b -->
<g id="node3" class="node">
<title>dir_5805bfcfbe100e4767f47461b3e6402b</title>
<text text-anchor="middle" x="131" y="-175.5" font-family="Helvetica,sans-Serif" font-size="10.00">memorycard</text>
</g>
<!-- dir_ae48e1b29bfa2db4ecbd893188b24955 -->
<g id="node4" class="node">
<title>dir_ae48e1b29bfa2db4ecbd893188b24955</title>
<g id="a_node4"><a xlink:href="dir_ae48e1b29bfa2db4ecbd893188b24955.html" target="_top" xlink:title="mcman">
<polygon fill="#60a2e3" stroke="#404040" points="137,-124 83,-124 83,-88 137,-88 137,-124"/>
<text text-anchor="middle" x="110" y="-103.5" font-family="Helvetica,sans-Serif" font-size="10.00">mcman</text>
</a>
</g>
</g>
<!-- dir_ae48e1b29bfa2db4ecbd893188b24955&#45;&gt;dir_9be0baa3d4a3e9f480a9ee70594037fa -->
<g id="edge1" class="edge">
<title>dir_ae48e1b29bfa2db4ecbd893188b24955&#45;&gt;dir_9be0baa3d4a3e9f480a9ee70594037fa</title>
<path fill="none" stroke="black" d="M95.42,-87.7C88.34,-79.3 79.72,-69.07 71.95,-59.86"/>
<polygon fill="black" stroke="black" points="74.54,-57.49 65.42,-52.1 69.19,-62.01 74.54,-57.49"/>
<g id="a_edge1&#45;headlabel"><a xlink:href="dir_000173_000158.html" target="_top" xlink:title="25">
<text text-anchor="middle" x="79.03" y="-55.91" font-family="Helvetica,sans-Serif" font-size="10.00">25</text>
</a>
</g>
</g>
<!-- dir_ae48e1b29bfa2db4ecbd893188b24955&#45;&gt;dir_40ac35421bc63b72c26b6c69b1517fd6 -->
<g id="edge3" class="edge">
<title>dir_ae48e1b29bfa2db4ecbd893188b24955&#45;&gt;dir_40ac35421bc63b72c26b6c69b1517fd6</title>
<path fill="none" stroke="black" d="M113.21,-87.7C114.65,-79.98 116.37,-70.71 117.96,-62.11"/>
<polygon fill="black" stroke="black" points="121.44,-62.58 119.82,-52.1 114.56,-61.3 121.44,-62.58"/>
<g id="a_edge3&#45;headlabel"><a xlink:href="dir_000173_000340.html" target="_top" xlink:title="1">
<text text-anchor="middle" x="123.57" y="-64.13" font-family="Helvetica,sans-Serif" font-size="10.00">1</text>
</a>
</g>
</g>
<!-- dir_bdd9a5d540de89e9fe90efdfc6973a4f -->
<g id="node6" class="node">
<title>dir_bdd9a5d540de89e9fe90efdfc6973a4f</title>
<g id="a_node6"><a xlink:href="dir_bdd9a5d540de89e9fe90efdfc6973a4f.html" target="_top" xlink:title="common">
<polygon fill="none" stroke="red" points="244,-52 190,-52 190,-16 244,-16 244,-52"/>
<text text-anchor="middle" x="217" y="-31.5" font-family="Helvetica,sans-Serif" font-size="10.00">common</text>
</a>
</g>
</g>
<!-- dir_ae48e1b29bfa2db4ecbd893188b24955&#45;&gt;dir_bdd9a5d540de89e9fe90efdfc6973a4f -->
<g id="edge2" class="edge">
<title>dir_ae48e1b29bfa2db4ecbd893188b24955&#45;&gt;dir_bdd9a5d540de89e9fe90efdfc6973a4f</title>
<path fill="none" stroke="black" d="M136.18,-87.88C150.04,-78.81 167.24,-67.55 182.21,-57.76"/>
<polygon fill="black" stroke="black" points="184.27,-60.59 190.72,-52.19 180.44,-54.74 184.27,-60.59"/>
<g id="a_edge2&#45;headlabel"><a xlink:href="dir_000173_000022.html" target="_top" xlink:title="3">
<text text-anchor="middle" x="182.82" y="-62.44" font-family="Helvetica,sans-Serif" font-size="10.00">3</text>
</a>
</g>
</g>
<!-- dir_841d05e6e469c6e67dc741c932691089 -->
<g id="node5" class="node">
<title>dir_841d05e6e469c6e67dc741c932691089</title>
<g id="a_node5"><a xlink:href="dir_841d05e6e469c6e67dc741c932691089.html" target="_top" xlink:title="mcserv">
<polygon fill="#60a2e3" stroke="#404040" points="78,-196 24,-196 24,-160 78,-160 78,-196"/>
<text text-anchor="middle" x="51" y="-175.5" font-family="Helvetica,sans-Serif" font-size="10.00">mcserv</text>
</a>
</g>
</g>
<!-- dir_841d05e6e469c6e67dc741c932691089&#45;&gt;dir_9be0baa3d4a3e9f480a9ee70594037fa -->
<g id="edge4" class="edge">
<title>dir_841d05e6e469c6e67dc741c932691089&#45;&gt;dir_9be0baa3d4a3e9f480a9ee70594037fa</title>
<path fill="none" stroke="black" d="M51,-159.87C51,-135.67 51,-91.21 51,-62.39"/>
<polygon fill="black" stroke="black" points="54.5,-62.19 51,-52.19 47.5,-62.19 54.5,-62.19"/>
<g id="a_edge4&#45;headlabel"><a xlink:href="dir_000174_000158.html" target="_top" xlink:title="14">
<text text-anchor="middle" x="57.34" y="-63.28" font-family="Helvetica,sans-Serif" font-size="10.00">14</text>
</a>
</g>
</g>
<!-- dir_841d05e6e469c6e67dc741c932691089&#45;&gt;dir_ae48e1b29bfa2db4ecbd893188b24955 -->
<g id="edge5" class="edge">
<title>dir_841d05e6e469c6e67dc741c932691089&#45;&gt;dir_ae48e1b29bfa2db4ecbd893188b24955</title>
<path fill="none" stroke="black" d="M65.58,-159.7C72.66,-151.3 81.28,-141.07 89.05,-131.86"/>
<polygon fill="black" stroke="black" points="91.81,-134.01 95.58,-124.1 86.46,-129.49 91.81,-134.01"/>
<g id="a_edge5&#45;headlabel"><a xlink:href="dir_000174_000173.html" target="_top" xlink:title="1">
<text text-anchor="middle" x="91.67" y="-136.08" font-family="Helvetica,sans-Serif" font-size="10.00">1</text>
</a>
</g>
</g>
</g>
</svg>
