<?xml version="1.0" encoding="UTF-8" standalone="no"?>
<!DOCTYPE svg PUBLIC "-//W3C//DTD SVG 1.1//EN"
 "http://www.w3.org/Graphics/SVG/1.1/DTD/svg11.dtd">
<!-- Generated by graphviz version 3.0.0 (20220413.0242)
 -->
<!-- Title: iop/hdd Pages: 1 -->
<svg width="452pt" height="175pt"
 viewBox="0.00 0.00 452.00 175.00" xmlns="http://www.w3.org/2000/svg" xmlns:xlink="http://www.w3.org/1999/xlink">
<g id="graph0" class="graph" transform="scale(1 1) rotate(0) translate(4 171)">
<title>iop/hdd</title>
<polygon fill="white" stroke="transparent" points="-4,4 -4,-171 448,-171 448,4 -4,4"/>
<g id="clust1" class="cluster">
<title>clusterdir_0981ace215aa2029f526b70c145b9fbe</title>
<g id="a_clust1"><a xlink:href="dir_0981ace215aa2029f526b70c145b9fbe.html" target="_top" xlink:title="iop">
<polygon fill="#deebf9" stroke="#404040" stroke-dasharray="5,2" points="8,-8 8,-159 382,-159 382,-8 8,-8"/>
<text text-anchor="middle" x="195" y="-147" font-family="Helvetica,sans-Serif" font-size="10.00">iop</text>
</a>
</g>
</g>
<g id="clust2" class="cluster">
<title>clusterdir_b6763ea08a8f9364194ebe3565e6b1f0</title>
<g id="a_clust2"><a xlink:href="dir_b6763ea08a8f9364194ebe3565e6b1f0.html" target="_top">
<polygon fill="#deebf9" stroke="#404040" stroke-width="2" points="16,-80 16,-132 374,-132 374,-80 16,-80"/>
</a>
</g>
</g>
<!-- dir_9be0baa3d4a3e9f480a9ee70594037fa -->
<g id="node1" class="node">
<title>dir_9be0baa3d4a3e9f480a9ee70594037fa</title>
<g id="a_node1"><a xlink:href="dir_9be0baa3d4a3e9f480a9ee70594037fa.html" target="_top" xlink:title="kernel">
<polygon fill="#60a2e3" stroke="red" points="204,-52 150,-52 150,-16 204,-16 204,-52"/>
<text text-anchor="middle" x="177" y="-31.5" font-family="Helvetica,sans-Serif" font-size="10.00">kernel</text>
</a>
</g>
</g>
<!-- dir_6f16cad81de2453a6f48c5e272ba4a18 -->
<g id="node2" class="node">
<title>dir_6f16cad81de2453a6f48c5e272ba4a18</title>
<g id="a_node2"><a xlink:href="dir_6f16cad81de2453a6f48c5e272ba4a18.html" target="_top" xlink:title="dev9">
<polygon fill="#60a2e3" stroke="red" points="96,-52 42,-52 42,-16 96,-16 96,-52"/>
<text text-anchor="middle" x="69" y="-31.5" font-family="Helvetica,sans-Serif" font-size="10.00">dev9</text>
</a>
</g>
</g>
<!-- dir_b6763ea08a8f9364194ebe3565e6b1f0 -->
<g id="node3" class="node">
<title>dir_b6763ea08a8f9364194ebe3565e6b1f0</title>
<text text-anchor="middle" x="339" y="-103.5" font-family="Helvetica,sans-Serif" font-size="10.00">hdd</text>
</g>
<!-- dir_3cf15560dfc813cf049b4197fff2fad4 -->
<g id="node4" class="node">
<title>dir_3cf15560dfc813cf049b4197fff2fad4</title>
<g id="a_node4"><a xlink:href="dir_3cf15560dfc813cf049b4197fff2fad4.html" target="_top" xlink:title="apa">
<polygon fill="#60a2e3" stroke="#404040" points="150,-124 96,-124 96,-88 150,-88 150,-124"/>
<text text-anchor="middle" x="123" y="-103.5" font-family="Helvetica,sans-Serif" font-size="10.00">apa</text>
</a>
</g>
</g>
<!-- dir_3cf15560dfc813cf049b4197fff2fad4&#45;&gt;dir_9be0baa3d4a3e9f480a9ee70594037fa -->
<g id="edge1" class="edge">
<title>dir_3cf15560dfc813cf049b4197fff2fad4&#45;&gt;dir_9be0baa3d4a3e9f480a9ee70594037fa</title>
<path fill="none" stroke="black" d="M136.35,-87.7C142.76,-79.39 150.56,-69.28 157.61,-60.14"/>
<polygon fill="black" stroke="black" points="160.47,-62.16 163.81,-52.1 154.93,-57.88 160.47,-62.16"/>
<g id="a_edge1&#45;headlabel"><a xlink:href="dir_000004_000158.html" target="_top" xlink:title="15">
<text text-anchor="middle" x="160.52" y="-64.24" font-family="Helvetica,sans-Serif" font-size="10.00">15</text>
</a>
</g>
</g>
<!-- dir_3cf15560dfc813cf049b4197fff2fad4&#45;&gt;dir_6f16cad81de2453a6f48c5e272ba4a18 -->
<g id="edge2" class="edge">
<title>dir_3cf15560dfc813cf049b4197fff2fad4&#45;&gt;dir_6f16cad81de2453a6f48c5e272ba4a18</title>
<path fill="none" stroke="black" d="M109.65,-87.7C103.24,-79.39 95.44,-69.28 88.39,-60.14"/>
<polygon fill="black" stroke="black" points="91.07,-57.88 82.19,-52.1 85.53,-62.16 91.07,-57.88"/>
<g id="a_edge2&#45;headlabel"><a xlink:href="dir_000004_000026.html" target="_top" xlink:title="6">
<text text-anchor="middle" x="95.52" y="-56.5" font-family="Helvetica,sans-Serif" font-size="10.00">6</text>
</a>
</g>
</g>
<!-- dir_bdd9a5d540de89e9fe90efdfc6973a4f -->
<g id="node8" class="node">
<title>dir_bdd9a5d540de89e9fe90efdfc6973a4f</title>
<g id="a_node8"><a xlink:href="dir_bdd9a5d540de89e9fe90efdfc6973a4f.html" target="_top" xlink:title="common">
<polygon fill="none" stroke="red" points="444,-52 390,-52 390,-16 444,-16 444,-52"/>
<text text-anchor="middle" x="417" y="-31.5" font-family="Helvetica,sans-Serif" font-size="10.00">common</text>
</a>
</g>
</g>
<!-- dir_3cf15560dfc813cf049b4197fff2fad4&#45;&gt;dir_bdd9a5d540de89e9fe90efdfc6973a4f -->
<g id="edge3" class="edge">
<title>dir_3cf15560dfc813cf049b4197fff2fad4&#45;&gt;dir_bdd9a5d540de89e9fe90efdfc6973a4f</title>
<path fill="none" stroke="black" d="M144.13,-87.85C148.8,-84.79 153.88,-81.95 159,-80 250.81,-44.93 286.85,-80.68 380.06,-53.62"/>
<polygon fill="black" stroke="black" points="381.34,-56.89 389.87,-50.61 379.28,-50.2 381.34,-56.89"/>
<g id="a_edge3&#45;headlabel"><a xlink:href="dir_000004_000022.html" target="_top" xlink:title="4">
<text text-anchor="middle" x="378.74" y="-58.16" font-family="Helvetica,sans-Serif" font-size="10.00">4</text>
</a>
</g>
</g>
<!-- dir_74c6a9c949eb32128aa5a6adc613f35b -->
<g id="node5" class="node">
<title>dir_74c6a9c949eb32128aa5a6adc613f35b</title>
<g id="a_node5"><a xlink:href="dir_74c6a9c949eb32128aa5a6adc613f35b.html" target="_top" xlink:title="libapa">
<polygon fill="#60a2e3" stroke="#404040" points="78,-124 24,-124 24,-88 78,-88 78,-124"/>
<text text-anchor="middle" x="51" y="-103.5" font-family="Helvetica,sans-Serif" font-size="10.00">libapa</text>
</a>
</g>
</g>
<!-- dir_74c6a9c949eb32128aa5a6adc613f35b&#45;&gt;dir_9be0baa3d4a3e9f480a9ee70594037fa -->
<g id="edge5" class="edge">
<title>dir_74c6a9c949eb32128aa5a6adc613f35b&#45;&gt;dir_9be0baa3d4a3e9f480a9ee70594037fa</title>
<path fill="none" stroke="black" d="M74.7,-87.83C78.74,-85.11 82.94,-82.41 87,-80 104.08,-69.87 123.74,-59.86 140.32,-51.87"/>
<polygon fill="black" stroke="black" points="142.16,-54.87 149.68,-47.4 139.15,-48.55 142.16,-54.87"/>
<g id="a_edge5&#45;headlabel"><a xlink:href="dir_000161_000158.html" target="_top" xlink:title="13">
<text text-anchor="middle" x="140.14" y="-56.47" font-family="Helvetica,sans-Serif" font-size="10.00">13</text>
</a>
</g>
</g>
<!-- dir_74c6a9c949eb32128aa5a6adc613f35b&#45;&gt;dir_6f16cad81de2453a6f48c5e272ba4a18 -->
<g id="edge6" class="edge">
<title>dir_74c6a9c949eb32128aa5a6adc613f35b&#45;&gt;dir_6f16cad81de2453a6f48c5e272ba4a18</title>
<path fill="none" stroke="black" d="M55.45,-87.7C57.45,-79.9 59.87,-70.51 62.1,-61.83"/>
<polygon fill="black" stroke="black" points="65.5,-62.66 64.6,-52.1 58.72,-60.92 65.5,-62.66"/>
<g id="a_edge6&#45;headlabel"><a xlink:href="dir_000161_000026.html" target="_top" xlink:title="4">
<text text-anchor="middle" x="67.36" y="-64.35" font-family="Helvetica,sans-Serif" font-size="10.00">4</text>
</a>
</g>
</g>
<!-- dir_74c6a9c949eb32128aa5a6adc613f35b&#45;&gt;dir_bdd9a5d540de89e9fe90efdfc6973a4f -->
<g id="edge4" class="edge">
<title>dir_74c6a9c949eb32128aa5a6adc613f35b&#45;&gt;dir_bdd9a5d540de89e9fe90efdfc6973a4f</title>
<path fill="none" stroke="black" d="M71.7,-87.99C76.47,-84.84 81.71,-81.93 87,-80 209.19,-35.37 256,-88.3 380.03,-53.55"/>
<polygon fill="black" stroke="black" points="381.28,-56.83 389.88,-50.65 379.3,-50.12 381.28,-56.83"/>
<g id="a_edge4&#45;headlabel"><a xlink:href="dir_000161_000022.html" target="_top" xlink:title="13">
<text text-anchor="middle" x="378.63" y="-58.07" font-family="Helvetica,sans-Serif" font-size="10.00">13</text>
</a>
</g>
</g>
<!-- dir_5b638697113ca3fae3dbb2942f3ebff2 -->
<g id="node6" class="node">
<title>dir_5b638697113ca3fae3dbb2942f3ebff2</title>
<g id="a_node6"><a xlink:href="dir_5b638697113ca3fae3dbb2942f3ebff2.html" target="_top" xlink:title="libpfs">
<polygon fill="#60a2e3" stroke="#404040" points="294,-124 240,-124 240,-88 294,-88 294,-124"/>
<text text-anchor="middle" x="267" y="-103.5" font-family="Helvetica,sans-Serif" font-size="10.00">libpfs</text>
</a>
</g>
</g>
<!-- dir_5b638697113ca3fae3dbb2942f3ebff2&#45;&gt;dir_9be0baa3d4a3e9f480a9ee70594037fa -->
<g id="edge8" class="edge">
<title>dir_5b638697113ca3fae3dbb2942f3ebff2&#45;&gt;dir_9be0baa3d4a3e9f480a9ee70594037fa</title>
<path fill="none" stroke="black" d="M244.75,-87.7C233.42,-78.88 219.47,-68.03 207.18,-58.47"/>
<polygon fill="black" stroke="black" points="209.03,-55.48 198.99,-52.1 204.74,-61.01 209.03,-55.48"/>
<g id="a_edge8&#45;headlabel"><a xlink:href="dir_000166_000158.html" target="_top" xlink:title="15">
<text text-anchor="middle" x="213.61" y="-52.95" font-family="Helvetica,sans-Serif" font-size="10.00">15</text>
</a>
</g>
</g>
<!-- dir_5b638697113ca3fae3dbb2942f3ebff2&#45;&gt;dir_bdd9a5d540de89e9fe90efdfc6973a4f -->
<g id="edge7" class="edge">
<title>dir_5b638697113ca3fae3dbb2942f3ebff2&#45;&gt;dir_bdd9a5d540de89e9fe90efdfc6973a4f</title>
<path fill="none" stroke="black" d="M289.64,-87.86C293.95,-85.01 298.51,-82.26 303,-80 334.79,-64.01 348.02,-66.93 380.15,-54.29"/>
<polygon fill="black" stroke="black" points="381.87,-57.37 389.75,-50.28 379.17,-50.91 381.87,-57.37"/>
<g id="a_edge7&#45;headlabel"><a xlink:href="dir_000166_000022.html" target="_top" xlink:title="14">
<text text-anchor="middle" x="379.64" y="-58.87" font-family="Helvetica,sans-Serif" font-size="10.00">14</text>
</a>
</g>
</g>
<!-- dir_cece7c3de560cfc4de14abf3198b3696 -->
<g id="node7" class="node">
<title>dir_cece7c3de560cfc4de14abf3198b3696</title>
<g id="a_node7"><a xlink:href="dir_cece7c3de560cfc4de14abf3198b3696.html" target="_top" xlink:title="pfs">
<polygon fill="#60a2e3" stroke="#404040" points="222,-124 168,-124 168,-88 222,-88 222,-124"/>
<text text-anchor="middle" x="195" y="-103.5" font-family="Helvetica,sans-Serif" font-size="10.00">pfs</text>
</a>
</g>
</g>
<!-- dir_cece7c3de560cfc4de14abf3198b3696&#45;&gt;dir_9be0baa3d4a3e9f480a9ee70594037fa -->
<g id="edge9" class="edge">
<title>dir_cece7c3de560cfc4de14abf3198b3696&#45;&gt;dir_9be0baa3d4a3e9f480a9ee70594037fa</title>
<path fill="none" stroke="black" d="M190.55,-87.7C188.55,-79.9 186.13,-70.51 183.9,-61.83"/>
<polygon fill="black" stroke="black" points="187.28,-60.92 181.4,-52.1 180.5,-62.66 187.28,-60.92"/>
<g id="a_edge9&#45;headlabel"><a xlink:href="dir_000198_000158.html" target="_top" xlink:title="19">
<text text-anchor="middle" x="190.92" y="-61.19" font-family="Helvetica,sans-Serif" font-size="10.00">19</text>
</a>
</g>
</g>
<!-- dir_cece7c3de560cfc4de14abf3198b3696&#45;&gt;dir_bdd9a5d540de89e9fe90efdfc6973a4f -->
<g id="edge10" class="edge">
<title>dir_cece7c3de560cfc4de14abf3198b3696&#45;&gt;dir_bdd9a5d540de89e9fe90efdfc6973a4f</title>
<path fill="none" stroke="black" d="M216.6,-87.81C221.16,-84.83 226.08,-82.04 231,-80 292.64,-54.46 317.64,-73.39 380.31,-53.71"/>
<polygon fill="black" stroke="black" points="381.47,-57.01 389.84,-50.52 379.24,-50.37 381.47,-57.01"/>
<g id="a_edge10&#45;headlabel"><a xlink:href="dir_000198_000022.html" target="_top" xlink:title="5">
<text text-anchor="middle" x="378.96" y="-58.35" font-family="Helvetica,sans-Serif" font-size="10.00">5</text>
</a>
</g>
</g>
</g>
</svg>
