<?xml version="1.0" encoding="UTF-8" standalone="no"?>
<!DOCTYPE svg PUBLIC "-//W3C//DTD SVG 1.1//EN"
 "http://www.w3.org/Graphics/SVG/1.1/DTD/svg11.dtd">
<!-- Generated by graphviz version 3.0.0 (20220413.0242)
 -->
<!-- Title: tools Pages: 1 -->
<svg width="544pt" height="132pt"
 viewBox="0.00 0.00 544.00 132.00" xmlns="http://www.w3.org/2000/svg" xmlns:xlink="http://www.w3.org/1999/xlink">
<g id="graph0" class="graph" transform="scale(1 1) rotate(0) translate(4 128)">
<title>tools</title>
<polygon fill="white" stroke="transparent" points="-4,4 -4,-128 540,-128 540,4 -4,4"/>
<g id="clust1" class="cluster">
<title>clusterdir_4eeb864c4eec08c7d6b9d3b0352cfdde</title>
<g id="a_clust1"><a xlink:href="dir_4eeb864c4eec08c7d6b9d3b0352cfdde.html" target="_top">
<polygon fill="#deebf9" stroke="#404040" stroke-width="2" points="8,-64 8,-116 528,-116 528,-64 8,-64"/>
</a>
</g>
</g>
<!-- dir_4eeb864c4eec08c7d6b9d3b0352cfdde -->
<g id="node1" class="node">
<title>dir_4eeb864c4eec08c7d6b9d3b0352cfdde</title>
<text text-anchor="middle" x="493" y="-87.5" font-family="Helvetica,sans-Serif" font-size="10.00">tools</text>
</g>
<!-- dir_7ae3e066c48cbf1e456bf7b5af53fbfa -->
<g id="node2" class="node">
<title>dir_7ae3e066c48cbf1e456bf7b5af53fbfa</title>
<g id="a_node2"><a xlink:href="dir_7ae3e066c48cbf1e456bf7b5af53fbfa.html" target="_top" xlink:title="adpenc">
<polygon fill="#60a2e3" stroke="#404040" points="448,-108 394,-108 394,-72 448,-72 448,-108"/>
<text text-anchor="middle" x="421" y="-87.5" font-family="Helvetica,sans-Serif" font-size="10.00">adpenc</text>
</a>
</g>
</g>
<!-- dir_0981ace215aa2029f526b70c145b9fbe -->
<g id="node8" class="node">
<title>dir_0981ace215aa2029f526b70c145b9fbe</title>
<g id="a_node8"><a xlink:href="dir_0981ace215aa2029f526b70c145b9fbe.html" target="_top" xlink:title="iop">
<polygon fill="none" stroke="red" points="252,-36 198,-36 198,0 252,0 252,-36"/>
<text text-anchor="middle" x="225" y="-15.5" font-family="Helvetica,sans-Serif" font-size="10.00">iop</text>
</a>
</g>
</g>
<!-- dir_7ae3e066c48cbf1e456bf7b5af53fbfa&#45;&gt;dir_0981ace215aa2029f526b70c145b9fbe -->
<g id="edge1" class="edge">
<title>dir_7ae3e066c48cbf1e456bf7b5af53fbfa&#45;&gt;dir_0981ace215aa2029f526b70c145b9fbe</title>
<path fill="none" stroke="black" d="M398.84,-71.92C394.41,-69 389.68,-66.21 385,-64 344.96,-45.12 295.46,-32.71 262.21,-25.79"/>
<polygon fill="black" stroke="black" points="262.51,-22.29 252.02,-23.74 261.13,-29.15 262.51,-22.29"/>
<g id="a_edge1&#45;headlabel"><a xlink:href="dir_000000_000151.html" target="_top" xlink:title="4">
<text text-anchor="middle" x="266.6" y="-17.71" font-family="Helvetica,sans-Serif" font-size="10.00">4</text>
</a>
</g>
</g>
<!-- dir_bdd9a5d540de89e9fe90efdfc6973a4f -->
<g id="node9" class="node">
<title>dir_bdd9a5d540de89e9fe90efdfc6973a4f</title>
<g id="a_node9"><a xlink:href="dir_bdd9a5d540de89e9fe90efdfc6973a4f.html" target="_top" xlink:title="common">
<polygon fill="none" stroke="red" points="371,-36 317,-36 317,0 371,0 371,-36"/>
<text text-anchor="middle" x="344" y="-15.5" font-family="Helvetica,sans-Serif" font-size="10.00">common</text>
</a>
</g>
</g>
<!-- dir_7ae3e066c48cbf1e456bf7b5af53fbfa&#45;&gt;dir_bdd9a5d540de89e9fe90efdfc6973a4f -->
<g id="edge2" class="edge">
<title>dir_7ae3e066c48cbf1e456bf7b5af53fbfa&#45;&gt;dir_bdd9a5d540de89e9fe90efdfc6973a4f</title>
<path fill="none" stroke="black" d="M401.97,-71.7C392.46,-63.05 380.79,-52.45 370.43,-43.03"/>
<polygon fill="black" stroke="black" points="372.57,-40.24 362.81,-36.1 367.86,-45.42 372.57,-40.24"/>
<g id="a_edge2&#45;headlabel"><a xlink:href="dir_000000_000022.html" target="_top" xlink:title="2">
<text text-anchor="middle" x="377.14" y="-38.06" font-family="Helvetica,sans-Serif" font-size="10.00">2</text>
</a>
</g>
</g>
<!-- dir_4aa7630bf94b1e948c1a72cd18b9557b -->
<g id="node3" class="node">
<title>dir_4aa7630bf94b1e948c1a72cd18b9557b</title>
<g id="a_node3"><a xlink:href="dir_4aa7630bf94b1e948c1a72cd18b9557b.html" target="_top" xlink:title="bin2c">
<polygon fill="#60a2e3" stroke="#404040" points="214,-108 160,-108 160,-72 214,-72 214,-108"/>
<text text-anchor="middle" x="187" y="-87.5" font-family="Helvetica,sans-Serif" font-size="10.00">bin2c</text>
</a>
</g>
</g>
<!-- dir_4aa7630bf94b1e948c1a72cd18b9557b&#45;&gt;dir_0981ace215aa2029f526b70c145b9fbe -->
<g id="edge3" class="edge">
<title>dir_4aa7630bf94b1e948c1a72cd18b9557b&#45;&gt;dir_0981ace215aa2029f526b70c145b9fbe</title>
<path fill="none" stroke="black" d="M196.39,-71.7C200.76,-63.64 206.06,-53.89 210.9,-44.98"/>
<polygon fill="black" stroke="black" points="214.02,-46.56 215.71,-36.1 207.87,-43.22 214.02,-46.56"/>
<g id="a_edge3&#45;headlabel"><a xlink:href="dir_000014_000151.html" target="_top" xlink:title="1">
<text text-anchor="middle" x="214.8" y="-48.58" font-family="Helvetica,sans-Serif" font-size="10.00">1</text>
</a>
</g>
</g>
<!-- dir_90d18d66127e5ec40df88c252424a1a5 -->
<g id="node4" class="node">
<title>dir_90d18d66127e5ec40df88c252424a1a5</title>
<g id="a_node4"><a xlink:href="dir_90d18d66127e5ec40df88c252424a1a5.html" target="_top" xlink:title="bin2o">
<polygon fill="#60a2e3" stroke="#404040" points="142,-108 88,-108 88,-72 142,-72 142,-108"/>
<text text-anchor="middle" x="115" y="-87.5" font-family="Helvetica,sans-Serif" font-size="10.00">bin2o</text>
</a>
</g>
</g>
<!-- dir_90d18d66127e5ec40df88c252424a1a5&#45;&gt;dir_0981ace215aa2029f526b70c145b9fbe -->
<g id="edge4" class="edge">
<title>dir_90d18d66127e5ec40df88c252424a1a5&#45;&gt;dir_0981ace215aa2029f526b70c145b9fbe</title>
<path fill="none" stroke="black" d="M139.26,-71.85C143.16,-69.19 147.17,-66.49 151,-64 163.27,-56.02 176.91,-47.6 189.11,-40.23"/>
<polygon fill="black" stroke="black" points="190.92,-43.22 197.69,-35.07 187.32,-37.22 190.92,-43.22"/>
<g id="a_edge4&#45;headlabel"><a xlink:href="dir_000015_000151.html" target="_top" xlink:title="1">
<text text-anchor="middle" x="189.31" y="-45.01" font-family="Helvetica,sans-Serif" font-size="10.00">1</text>
</a>
</g>
</g>
<!-- dir_89b1a64fe2e6470e02bd91188984ecb8 -->
<g id="node5" class="node">
<title>dir_89b1a64fe2e6470e02bd91188984ecb8</title>
<g id="a_node5"><a xlink:href="dir_89b1a64fe2e6470e02bd91188984ecb8.html" target="_top" xlink:title="bin2s">
<polygon fill="#60a2e3" stroke="#404040" points="70,-108 16,-108 16,-72 70,-72 70,-108"/>
<text text-anchor="middle" x="43" y="-87.5" font-family="Helvetica,sans-Serif" font-size="10.00">bin2s</text>
</a>
</g>
</g>
<!-- dir_89b1a64fe2e6470e02bd91188984ecb8&#45;&gt;dir_0981ace215aa2029f526b70c145b9fbe -->
<g id="edge5" class="edge">
<title>dir_89b1a64fe2e6470e02bd91188984ecb8&#45;&gt;dir_0981ace215aa2029f526b70c145b9fbe</title>
<path fill="none" stroke="black" d="M65.59,-71.76C69.9,-68.92 74.48,-66.2 79,-64 114.31,-46.81 157.6,-34.46 187.84,-27.09"/>
<polygon fill="black" stroke="black" points="189.04,-30.4 197.96,-24.69 187.42,-23.59 189.04,-30.4"/>
<g id="a_edge5&#45;headlabel"><a xlink:href="dir_000016_000151.html" target="_top" xlink:title="1">
<text text-anchor="middle" x="186.19" y="-31.5" font-family="Helvetica,sans-Serif" font-size="10.00">1</text>
</a>
</g>
</g>
<!-- dir_2feef82756d5481f2e3fcf626f1975a7 -->
<g id="node6" class="node">
<title>dir_2feef82756d5481f2e3fcf626f1975a7</title>
<g id="a_node6"><a xlink:href="dir_2feef82756d5481f2e3fcf626f1975a7.html" target="_top" xlink:title="gensymtab">
<polygon fill="#60a2e3" stroke="#404040" points="376,-108 312,-108 312,-72 376,-72 376,-108"/>
<text text-anchor="middle" x="344" y="-87.5" font-family="Helvetica,sans-Serif" font-size="10.00">gensymtab</text>
</a>
</g>
</g>
<!-- dir_2feef82756d5481f2e3fcf626f1975a7&#45;&gt;dir_0981ace215aa2029f526b70c145b9fbe -->
<g id="edge6" class="edge">
<title>dir_2feef82756d5481f2e3fcf626f1975a7&#45;&gt;dir_0981ace215aa2029f526b70c145b9fbe</title>
<path fill="none" stroke="black" d="M316.27,-71.96C311.84,-69.28 307.3,-66.55 303,-64 289.34,-55.9 274.25,-47.14 261,-39.53"/>
<polygon fill="black" stroke="black" points="262.58,-36.4 252.17,-34.46 259.1,-42.47 262.58,-36.4"/>
<g id="a_edge6&#45;headlabel"><a xlink:href="dir_000051_000151.html" target="_top" xlink:title="1">
<text text-anchor="middle" x="267.11" y="-33.23" font-family="Helvetica,sans-Serif" font-size="10.00">1</text>
</a>
</g>
</g>
<!-- dir_2feef82756d5481f2e3fcf626f1975a7&#45;&gt;dir_bdd9a5d540de89e9fe90efdfc6973a4f -->
<g id="edge7" class="edge">
<title>dir_2feef82756d5481f2e3fcf626f1975a7&#45;&gt;dir_bdd9a5d540de89e9fe90efdfc6973a4f</title>
<path fill="none" stroke="black" d="M344,-71.7C344,-63.98 344,-54.71 344,-46.11"/>
<polygon fill="black" stroke="black" points="347.5,-46.1 344,-36.1 340.5,-46.1 347.5,-46.1"/>
<g id="a_edge7&#45;headlabel"><a xlink:href="dir_000051_000022.html" target="_top" xlink:title="1">
<text text-anchor="middle" x="350.34" y="-47.2" font-family="Helvetica,sans-Serif" font-size="10.00">1</text>
</a>
</g>
</g>
<!-- dir_47818b46b1cf08114dcb647bd070ea80 -->
<g id="node7" class="node">
<title>dir_47818b46b1cf08114dcb647bd070ea80</title>
<g id="a_node7"><a xlink:href="dir_47818b46b1cf08114dcb647bd070ea80.html" target="_top" xlink:title="ps2adpcm">
<polygon fill="#60a2e3" stroke="#404040" points="294,-108 232,-108 232,-72 294,-72 294,-108"/>
<text text-anchor="middle" x="263" y="-87.5" font-family="Helvetica,sans-Serif" font-size="10.00">ps2adpcm</text>
</a>
</g>
</g>
<!-- dir_47818b46b1cf08114dcb647bd070ea80&#45;&gt;dir_0981ace215aa2029f526b70c145b9fbe -->
<g id="edge8" class="edge">
<title>dir_47818b46b1cf08114dcb647bd070ea80&#45;&gt;dir_0981ace215aa2029f526b70c145b9fbe</title>
<path fill="none" stroke="black" d="M253.61,-71.7C249.24,-63.64 243.94,-53.89 239.1,-44.98"/>
<polygon fill="black" stroke="black" points="242.13,-43.22 234.29,-36.1 235.98,-46.56 242.13,-43.22"/>
<g id="a_edge8&#45;headlabel"><a xlink:href="dir_000201_000151.html" target="_top" xlink:title="4">
<text text-anchor="middle" x="246.34" y="-42.53" font-family="Helvetica,sans-Serif" font-size="10.00">4</text>
</a>
</g>
</g>
<!-- dir_47818b46b1cf08114dcb647bd070ea80&#45;&gt;dir_bdd9a5d540de89e9fe90efdfc6973a4f -->
<g id="edge9" class="edge">
<title>dir_47818b46b1cf08114dcb647bd070ea80&#45;&gt;dir_bdd9a5d540de89e9fe90efdfc6973a4f</title>
<path fill="none" stroke="black" d="M283.02,-71.7C293.13,-62.97 305.54,-52.24 316.52,-42.75"/>
<polygon fill="black" stroke="black" points="318.93,-45.29 324.21,-36.1 314.35,-39.99 318.93,-45.29"/>
<g id="a_edge9&#45;headlabel"><a xlink:href="dir_000201_000022.html" target="_top" xlink:title="1">
<text text-anchor="middle" x="318.07" y="-47.29" font-family="Helvetica,sans-Serif" font-size="10.00">1</text>
</a>
</g>
</g>
</g>
</svg>
