<?xml version="1.0" encoding="UTF-8" standalone="no"?>
<!DOCTYPE svg PUBLIC "-//W3C//DTD SVG 1.1//EN"
 "http://www.w3.org/Graphics/SVG/1.1/DTD/svg11.dtd">
<!-- Generated by graphviz version 3.0.0 (20220413.0242)
 -->
<!-- Title: ee/rpc/keyboard Pages: 1 -->
<svg width="238pt" height="231pt"
 viewBox="0.00 0.00 238.00 231.00" xmlns="http://www.w3.org/2000/svg" xmlns:xlink="http://www.w3.org/1999/xlink">
<g id="graph0" class="graph" transform="scale(1 1) rotate(0) translate(4 227)">
<title>ee/rpc/keyboard</title>
<polygon fill="white" stroke="transparent" points="-4,4 -4,-227 234,-227 234,4 -4,4"/>
<g id="clust1" class="cluster">
<title>clusterdir_5b119dc963fa9b25ef41951231899460</title>
<g id="a_clust1"><a xlink:href="dir_5b119dc963fa9b25ef41951231899460.html" target="_top" xlink:title="rpc">
<polygon fill="#deebf9" stroke="#7f7f7f" stroke-dasharray="5,2" points="8,-56 8,-215 168,-215 168,-56 8,-56"/>
<text text-anchor="middle" x="88" y="-203" font-family="Helvetica,sans-Serif" font-size="10.00">rpc</text>
</a>
</g>
</g>
<g id="clust2" class="cluster">
<title>clusterdir_ae67f713f6bc0e42016b6962e584ff13</title>
<g id="a_clust2"><a xlink:href="dir_ae67f713f6bc0e42016b6962e584ff13.html" target="_top">
<polygon fill="#deebf9" stroke="#404040" stroke-width="2" points="16,-64 16,-188 160,-188 160,-64 16,-64"/>
</a>
</g>
</g>
<!-- dir_ae67f713f6bc0e42016b6962e584ff13 -->
<g id="node1" class="node">
<title>dir_ae67f713f6bc0e42016b6962e584ff13</title>
<text text-anchor="middle" x="124" y="-159.5" font-family="Helvetica,sans-Serif" font-size="10.00">keyboard</text>
</g>
<!-- dir_5c70caa0b94395675119bf3ed52b9ab8 -->
<g id="node2" class="node">
<title>dir_5c70caa0b94395675119bf3ed52b9ab8</title>
<g id="a_node2"><a xlink:href="dir_5c70caa0b94395675119bf3ed52b9ab8.html" target="_top" xlink:title="include">
<polygon fill="#60a2e3" stroke="#404040" points="78,-108 24,-108 24,-72 78,-72 78,-108"/>
<text text-anchor="middle" x="51" y="-87.5" font-family="Helvetica,sans-Serif" font-size="10.00">include</text>
</a>
</g>
</g>
<!-- dir_bdd9a5d540de89e9fe90efdfc6973a4f -->
<g id="node4" class="node">
<title>dir_bdd9a5d540de89e9fe90efdfc6973a4f</title>
<g id="a_node4"><a xlink:href="dir_bdd9a5d540de89e9fe90efdfc6973a4f.html" target="_top" xlink:title="common">
<polygon fill="none" stroke="red" points="105,-36 51,-36 51,0 105,0 105,-36"/>
<text text-anchor="middle" x="78" y="-15.5" font-family="Helvetica,sans-Serif" font-size="10.00">common</text>
</a>
</g>
</g>
<!-- dir_5c70caa0b94395675119bf3ed52b9ab8&#45;&gt;dir_bdd9a5d540de89e9fe90efdfc6973a4f -->
<g id="edge1" class="edge">
<title>dir_5c70caa0b94395675119bf3ed52b9ab8&#45;&gt;dir_bdd9a5d540de89e9fe90efdfc6973a4f</title>
<path fill="none" stroke="black" d="M57.67,-71.7C60.71,-63.81 64.38,-54.3 67.76,-45.55"/>
<polygon fill="black" stroke="black" points="71.07,-46.69 71.4,-36.1 64.54,-44.17 71.07,-46.69"/>
<g id="a_edge1&#45;headlabel"><a xlink:href="dir_000091_000022.html" target="_top" xlink:title="1">
<text text-anchor="middle" x="72.42" y="-48.57" font-family="Helvetica,sans-Serif" font-size="10.00">1</text>
</a>
</g>
</g>
<!-- dir_1a6a5c5b3f159e21af436fb86af6ff87 -->
<g id="node3" class="node">
<title>dir_1a6a5c5b3f159e21af436fb86af6ff87</title>
<g id="a_node3"><a xlink:href="dir_1a6a5c5b3f159e21af436fb86af6ff87.html" target="_top" xlink:title="src">
<polygon fill="#60a2e3" stroke="#404040" points="78,-180 24,-180 24,-144 78,-144 78,-180"/>
<text text-anchor="middle" x="51" y="-159.5" font-family="Helvetica,sans-Serif" font-size="10.00">src</text>
</a>
</g>
</g>
<!-- dir_1a6a5c5b3f159e21af436fb86af6ff87&#45;&gt;dir_5c70caa0b94395675119bf3ed52b9ab8 -->
<g id="edge2" class="edge">
<title>dir_1a6a5c5b3f159e21af436fb86af6ff87&#45;&gt;dir_5c70caa0b94395675119bf3ed52b9ab8</title>
<path fill="none" stroke="black" d="M51,-143.7C51,-135.98 51,-126.71 51,-118.11"/>
<polygon fill="black" stroke="black" points="54.5,-118.1 51,-108.1 47.5,-118.1 54.5,-118.1"/>
<g id="a_edge2&#45;headlabel"><a xlink:href="dir_000253_000091.html" target="_top" xlink:title="1">
<text text-anchor="middle" x="57.34" y="-119.2" font-family="Helvetica,sans-Serif" font-size="10.00">1</text>
</a>
</g>
</g>
<!-- dir_1a6a5c5b3f159e21af436fb86af6ff87&#45;&gt;dir_bdd9a5d540de89e9fe90efdfc6973a4f -->
<g id="edge4" class="edge">
<title>dir_1a6a5c5b3f159e21af436fb86af6ff87&#45;&gt;dir_bdd9a5d540de89e9fe90efdfc6973a4f</title>
<path fill="none" stroke="black" d="M66.61,-143.77C74.37,-134.03 82.95,-121.18 87,-108 93.22,-87.77 90.27,-63.87 86.15,-45.92"/>
<polygon fill="black" stroke="black" points="89.51,-44.95 83.65,-36.12 82.73,-46.68 89.51,-44.95"/>
<g id="a_edge4&#45;headlabel"><a xlink:href="dir_000253_000022.html" target="_top" xlink:title="1">
<text text-anchor="middle" x="93.15" y="-45.23" font-family="Helvetica,sans-Serif" font-size="10.00">1</text>
</a>
</g>
</g>
<!-- dir_a0a8ac7efb6662b749c1285408048e6d -->
<g id="node5" class="node">
<title>dir_a0a8ac7efb6662b749c1285408048e6d</title>
<g id="a_node5"><a xlink:href="dir_a0a8ac7efb6662b749c1285408048e6d.html" target="_top" xlink:title="erl">
<polygon fill="none" stroke="red" stroke-dasharray="5,2" points="230,-108 176,-108 176,-72 230,-72 230,-108"/>
<text text-anchor="middle" x="203" y="-87.5" font-family="Helvetica,sans-Serif" font-size="10.00">erl</text>
</a>
</g>
</g>
<!-- dir_1a6a5c5b3f159e21af436fb86af6ff87&#45;&gt;dir_a0a8ac7efb6662b749c1285408048e6d -->
<g id="edge3" class="edge">
<title>dir_1a6a5c5b3f159e21af436fb86af6ff87&#45;&gt;dir_a0a8ac7efb6662b749c1285408048e6d</title>
<path fill="none" stroke="black" d="M78.11,-148.15C81.11,-146.75 84.12,-145.34 87,-144 113.53,-131.68 143.58,-117.95 166.44,-107.56"/>
<polygon fill="black" stroke="black" points="168.11,-110.65 175.77,-103.33 165.22,-104.27 168.11,-110.65"/>
<g id="a_edge3&#45;headlabel"><a xlink:href="dir_000253_000042.html" target="_top" xlink:title="1">
<text text-anchor="middle" x="166.01" y="-112.22" font-family="Helvetica,sans-Serif" font-size="10.00">1</text>
</a>
</g>
</g>
</g>
</svg>
