<?xml version="1.0" encoding="UTF-8" standalone="no"?>
<!DOCTYPE svg PUBLIC "-//W3C//DTD SVG 1.1//EN"
 "http://www.w3.org/Graphics/SVG/1.1/DTD/svg11.dtd">
<!-- Generated by graphviz version 3.0.0 (20220413.0242)
 -->
<!-- Title: iop/system/rmman Pages: 1 -->
<svg width="250pt" height="231pt"
 viewBox="0.00 0.00 250.00 231.00" xmlns="http://www.w3.org/2000/svg" xmlns:xlink="http://www.w3.org/1999/xlink">
<g id="graph0" class="graph" transform="scale(1 1) rotate(0) translate(4 227)">
<title>iop/system/rmman</title>
<polygon fill="white" stroke="transparent" points="-4,4 -4,-227 246,-227 246,4 -4,4"/>
<g id="clust1" class="cluster">
<title>clusterdir_40ac35421bc63b72c26b6c69b1517fd6</title>
<g id="a_clust1"><a xlink:href="dir_40ac35421bc63b72c26b6c69b1517fd6.html" target="_top" xlink:title="system">
<polygon fill="#deebf9" stroke="#7f7f7f" stroke-dasharray="5,2" points="12,-56 12,-215 234,-215 234,-56 12,-56"/>
<text text-anchor="middle" x="123" y="-203" font-family="Helvetica,sans-Serif" font-size="10.00">system</text>
</a>
</g>
</g>
<g id="clust2" class="cluster">
<title>clusterdir_fe7329d8b89241d59f89f45fd75d2e77</title>
<g id="a_clust2"><a xlink:href="dir_fe7329d8b89241d59f89f45fd75d2e77.html" target="_top">
<polygon fill="#deebf9" stroke="#404040" stroke-width="2" points="20,-64 20,-188 162,-188 162,-64 20,-64"/>
</a>
</g>
</g>
<!-- dir_47d6ec5167f7ee6ef257538cbd6ee8bb -->
<g id="node1" class="node">
<title>dir_47d6ec5167f7ee6ef257538cbd6ee8bb</title>
<g id="a_node1"><a xlink:href="dir_47d6ec5167f7ee6ef257538cbd6ee8bb.html" target="_top" xlink:title="rsio2man">
<polygon fill="#60a2e3" stroke="red" points="226,-108 170,-108 170,-72 226,-72 226,-108"/>
<text text-anchor="middle" x="198" y="-87.5" font-family="Helvetica,sans-Serif" font-size="10.00">rsio2man</text>
</a>
</g>
</g>
<!-- dir_fe7329d8b89241d59f89f45fd75d2e77 -->
<g id="node2" class="node">
<title>dir_fe7329d8b89241d59f89f45fd75d2e77</title>
<text text-anchor="middle" x="127" y="-159.5" font-family="Helvetica,sans-Serif" font-size="10.00">rmman</text>
</g>
<!-- dir_ba0bf5790b75dbb76cd621ad13634675 -->
<g id="node3" class="node">
<title>dir_ba0bf5790b75dbb76cd621ad13634675</title>
<g id="a_node3"><a xlink:href="dir_ba0bf5790b75dbb76cd621ad13634675.html" target="_top" xlink:title="include">
<polygon fill="#60a2e3" stroke="#404040" points="109,-108 55,-108 55,-72 109,-72 109,-108"/>
<text text-anchor="middle" x="82" y="-87.5" font-family="Helvetica,sans-Serif" font-size="10.00">include</text>
</a>
</g>
</g>
<!-- dir_9be0baa3d4a3e9f480a9ee70594037fa -->
<g id="node5" class="node">
<title>dir_9be0baa3d4a3e9f480a9ee70594037fa</title>
<g id="a_node5"><a xlink:href="dir_9be0baa3d4a3e9f480a9ee70594037fa.html" target="_top" xlink:title="kernel">
<polygon fill="none" stroke="red" stroke-dasharray="5,2" points="54,-36 0,-36 0,0 54,0 54,-36"/>
<text text-anchor="middle" x="27" y="-15.5" font-family="Helvetica,sans-Serif" font-size="10.00">kernel</text>
</a>
</g>
</g>
<!-- dir_ba0bf5790b75dbb76cd621ad13634675&#45;&gt;dir_9be0baa3d4a3e9f480a9ee70594037fa -->
<g id="edge1" class="edge">
<title>dir_ba0bf5790b75dbb76cd621ad13634675&#45;&gt;dir_9be0baa3d4a3e9f480a9ee70594037fa</title>
<path fill="none" stroke="black" d="M68.4,-71.7C61.88,-63.39 53.93,-53.28 46.75,-44.14"/>
<polygon fill="black" stroke="black" points="49.37,-41.81 40.44,-36.1 43.87,-46.13 49.37,-41.81"/>
<g id="a_edge1&#45;headlabel"><a xlink:href="dir_000134_000158.html" target="_top" xlink:title="1">
<text text-anchor="middle" x="53.82" y="-40.38" font-family="Helvetica,sans-Serif" font-size="10.00">1</text>
</a>
</g>
</g>
<!-- dir_bdd9a5d540de89e9fe90efdfc6973a4f -->
<g id="node6" class="node">
<title>dir_bdd9a5d540de89e9fe90efdfc6973a4f</title>
<g id="a_node6"><a xlink:href="dir_bdd9a5d540de89e9fe90efdfc6973a4f.html" target="_top" xlink:title="common">
<polygon fill="none" stroke="red" points="126,-36 72,-36 72,0 126,0 126,-36"/>
<text text-anchor="middle" x="99" y="-15.5" font-family="Helvetica,sans-Serif" font-size="10.00">common</text>
</a>
</g>
</g>
<!-- dir_ba0bf5790b75dbb76cd621ad13634675&#45;&gt;dir_bdd9a5d540de89e9fe90efdfc6973a4f -->
<g id="edge2" class="edge">
<title>dir_ba0bf5790b75dbb76cd621ad13634675&#45;&gt;dir_bdd9a5d540de89e9fe90efdfc6973a4f</title>
<path fill="none" stroke="black" d="M86.2,-71.7C88.1,-63.9 90.38,-54.51 92.48,-45.83"/>
<polygon fill="black" stroke="black" points="95.89,-46.65 94.85,-36.1 89.08,-45 95.89,-46.65"/>
<g id="a_edge2&#45;headlabel"><a xlink:href="dir_000134_000022.html" target="_top" xlink:title="1">
<text text-anchor="middle" x="97.8" y="-48.31" font-family="Helvetica,sans-Serif" font-size="10.00">1</text>
</a>
</g>
</g>
<!-- dir_4b4edfc69082ccc9fa978b057a42ad24 -->
<g id="node4" class="node">
<title>dir_4b4edfc69082ccc9fa978b057a42ad24</title>
<g id="a_node4"><a xlink:href="dir_4b4edfc69082ccc9fa978b057a42ad24.html" target="_top" xlink:title="src">
<polygon fill="#60a2e3" stroke="#404040" points="82,-180 28,-180 28,-144 82,-144 82,-180"/>
<text text-anchor="middle" x="55" y="-159.5" font-family="Helvetica,sans-Serif" font-size="10.00">src</text>
</a>
</g>
</g>
<!-- dir_4b4edfc69082ccc9fa978b057a42ad24&#45;&gt;dir_47d6ec5167f7ee6ef257538cbd6ee8bb -->
<g id="edge3" class="edge">
<title>dir_4b4edfc69082ccc9fa978b057a42ad24&#45;&gt;dir_47d6ec5167f7ee6ef257538cbd6ee8bb</title>
<path fill="none" stroke="black" d="M82.22,-148.08C107.11,-136.25 142.43,-119.44 160.68,-110.56"/>
<polygon fill="black" stroke="black" points="162.34,-113.64 169.77,-106.08 159.25,-107.37 162.34,-113.64"/>
<g id="a_edge3&#45;headlabel"><a xlink:href="dir_000313_000208.html" target="_top" xlink:title="2">
<text text-anchor="middle" x="160.37" y="-115.28" font-family="Helvetica,sans-Serif" font-size="10.00">2</text>
</a>
</g>
</g>
<!-- dir_4b4edfc69082ccc9fa978b057a42ad24&#45;&gt;dir_ba0bf5790b75dbb76cd621ad13634675 -->
<g id="edge5" class="edge">
<title>dir_4b4edfc69082ccc9fa978b057a42ad24&#45;&gt;dir_ba0bf5790b75dbb76cd621ad13634675</title>
<path fill="none" stroke="black" d="M61.67,-143.7C64.71,-135.81 68.38,-126.3 71.76,-117.55"/>
<polygon fill="black" stroke="black" points="75.07,-118.69 75.4,-108.1 68.54,-116.17 75.07,-118.69"/>
<g id="a_edge5&#45;headlabel"><a xlink:href="dir_000313_000134.html" target="_top" xlink:title="1">
<text text-anchor="middle" x="76.42" y="-120.57" font-family="Helvetica,sans-Serif" font-size="10.00">1</text>
</a>
</g>
</g>
<!-- dir_4b4edfc69082ccc9fa978b057a42ad24&#45;&gt;dir_9be0baa3d4a3e9f480a9ee70594037fa -->
<g id="edge4" class="edge">
<title>dir_4b4edfc69082ccc9fa978b057a42ad24&#45;&gt;dir_9be0baa3d4a3e9f480a9ee70594037fa</title>
<path fill="none" stroke="black" d="M51.62,-143.87C46.83,-119.56 38.01,-74.82 32.33,-46.01"/>
<polygon fill="black" stroke="black" points="35.76,-45.32 30.39,-36.19 28.89,-46.68 35.76,-45.32"/>
<g id="a_edge4&#45;headlabel"><a xlink:href="dir_000313_000158.html" target="_top" xlink:title="16">
<text text-anchor="middle" x="39.24" y="-45.8" font-family="Helvetica,sans-Serif" font-size="10.00">16</text>
</a>
</g>
</g>
</g>
</svg>
