<?xml version="1.0" encoding="UTF-8" standalone="no"?>
<!DOCTYPE svg PUBLIC "-//W3C//DTD SVG 1.1//EN"
 "http://www.w3.org/Graphics/SVG/1.1/DTD/svg11.dtd">
<!-- Generated by graphviz version 3.0.0 (20220413.0242)
 -->
<!-- Title: iop/kernel/include/dmacman.h Pages: 1 -->
<!--zoomable 106 -->
<svg id="main" version="1.1" xmlns="http://www.w3.org/2000/svg" xmlns:xlink="http://www.w3.org/1999/xlink" xml:space="preserve" onload="init(evt)">
<style type="text/css"><![CDATA[
.edge:hover path { stroke: red; }
.edge:hover polygon { stroke: red; fill: red; }
]]></style>
<script type="text/javascript"><![CDATA[
var edges = document.getElementsByTagName('g');
if (edges && edges.length) {
  for (var i=0;i<edges.length;i++) {
    if (edges[i].id.substr(0,4)=='edge') {
      edges[i].setAttribute('class','edge');
    }
  }
}
]]></script>
        <defs>
                <circle id="rim" cx="0" cy="0" r="7"/>
                <circle id="rim2" cx="0" cy="0" r="3.5"/>
                <g id="zoomPlus">
                        <use xlink:href="#rim" fill="#404040">
                                <set attributeName="fill" to="#808080" begin="zoomplus.mouseover" end="zoomplus.mouseout"/>
                        </use>
                        <path d="M-4,0h8M0,-4v8" fill="none" stroke="white" stroke-width="1.5" pointer-events="none"/>
                </g>
                <g id="zoomMin">
                        <use xlink:href="#rim" fill="#404040">
                                <set attributeName="fill" to="#808080" begin="zoomminus.mouseover" end="zoomminus.mouseout"/>
                        </use>
                        <path d="M-4,0h8" fill="none" stroke="white" stroke-width="1.5" pointer-events="none"/>
                </g>
                <g id="dirArrow">
                        <path fill="none" stroke="white" stroke-width="1.5" d="M0,-3.0v7 M-2.5,-0.5L0,-3.0L2.5,-0.5"/>
                </g>
               <g id="resetDef">
                       <use xlink:href="#rim2" fill="#404040">
                               <set attributeName="fill" to="#808080" begin="reset.mouseover" end="reset.mouseout"/>
                       </use>
               </g>
        </defs>

<script type="text/javascript">
var viewWidth = 2216;
var viewHeight = 106;
var sectionId = 'dynsection-1';
</script>
<script xlink:href="svgpan.js"/>
<svg id="graph" class="graph">
<g id="viewport">
<title>iop/kernel/include/dmacman.h</title>
<polygon fill="white" stroke="transparent" points="-4,4 -4,-102 2212,-102 2212,4 -4,4"/>
<!-- Node1 -->
<g id="node1" class="node">
<title>Node1</title>
<g id="a_node1"><a xlink:title=" ">
<polygon fill="#bfbfbf" stroke="black" points="1057.5,-67.5 1057.5,-97.5 1149.5,-97.5 1149.5,-67.5 1057.5,-67.5"/>
<text text-anchor="start" x="1065.5" y="-85.5" font-family="Helvetica,sans-Serif" font-size="10.00">iop/kernel/include</text>
<text text-anchor="middle" x="1103.5" y="-74.5" font-family="Helvetica,sans-Serif" font-size="10.00">/dmacman.h</text>
</a>
</g>
</g>
<!-- Node2 -->
<g id="node2" class="node">
<title>Node2</title>
<g id="a_node2"><a xlink:href="iop_2dev9_2dev9_2src_2irx__imports_8h_source.html" target="_top" xlink:title=" ">
<polygon fill="white" stroke="black" points="0,-0.5 0,-30.5 107,-30.5 107,-0.5 0,-0.5"/>
<text text-anchor="start" x="8" y="-18.5" font-family="Helvetica,sans-Serif" font-size="10.00">iop/dev9/dev9/src/irx</text>
<text text-anchor="middle" x="53.5" y="-7.5" font-family="Helvetica,sans-Serif" font-size="10.00">_imports.h</text>
</a>
</g>
</g>
<!-- Node1&#45;&gt;Node2 -->
<g id="edge1" class="edge">
<title>Node1&#45;&gt;Node2</title>
<path fill="none" stroke="midnightblue" d="M1046.99,-82.13C895.36,-83.06 467.17,-80.7 115.5,-31 112.76,-30.61 109.97,-30.16 107.16,-29.67"/>
<polygon fill="midnightblue" stroke="midnightblue" points="1047.45,-85.63 1057.42,-82.06 1047.4,-78.63 1047.45,-85.63"/>
</g>
<!-- Node3 -->
<g id="node3" class="node">
<title>Node3</title>
<g id="a_node3"><a xlink:href="ps2dev9_8c.html" target="_top" xlink:title=" ">
<polygon fill="white" stroke="black" points="125,-6 125,-25 266,-25 266,-6 125,-6"/>
<text text-anchor="middle" x="195.5" y="-13" font-family="Helvetica,sans-Serif" font-size="10.00">iop/dev9/dev9/src/ps2dev9.c</text>
</a>
</g>
</g>
<!-- Node1&#45;&gt;Node3 -->
<g id="edge2" class="edge">
<title>Node1&#45;&gt;Node3</title>
<path fill="none" stroke="midnightblue" d="M1047.05,-80.36C912.83,-77.15 564.3,-65.86 275.5,-31 263.03,-29.49 249.56,-27.28 237.29,-25.04"/>
<polygon fill="midnightblue" stroke="midnightblue" points="1047.02,-83.86 1057.09,-80.59 1047.18,-76.86 1047.02,-83.86"/>
</g>
<!-- Node4 -->
<g id="node4" class="node">
<title>Node4</title>
<g id="a_node4"><a xlink:href="iop_2dev9_2extflash_2src_2irx__imports_8h_source.html" target="_top" xlink:title=" ">
<polygon fill="white" stroke="black" points="284.5,-0.5 284.5,-30.5 390.5,-30.5 390.5,-0.5 284.5,-0.5"/>
<text text-anchor="start" x="292.5" y="-18.5" font-family="Helvetica,sans-Serif" font-size="10.00">iop/dev9/extflash/src</text>
<text text-anchor="middle" x="337.5" y="-7.5" font-family="Helvetica,sans-Serif" font-size="10.00">/irx_imports.h</text>
</a>
</g>
</g>
<!-- Node1&#45;&gt;Node4 -->
<g id="edge3" class="edge">
<title>Node1&#45;&gt;Node4</title>
<path fill="none" stroke="midnightblue" d="M1047.04,-80.47C927.14,-77.63 638.47,-67.28 399.5,-31 396.66,-30.57 393.75,-30.08 390.83,-29.54"/>
<polygon fill="midnightblue" stroke="midnightblue" points="1047.02,-83.97 1057.09,-80.7 1047.18,-76.98 1047.02,-83.97"/>
</g>
<!-- Node5 -->
<g id="node5" class="node">
<title>Node5</title>
<g id="a_node5"><a xlink:href="i_link_8c_source.html" target="_top" xlink:title=" ">
<polygon fill="white" stroke="black" points="408.5,-0.5 408.5,-30.5 504.5,-30.5 504.5,-0.5 408.5,-0.5"/>
<text text-anchor="start" x="416.5" y="-18.5" font-family="Helvetica,sans-Serif" font-size="10.00">iop/iLink/iLinkman</text>
<text text-anchor="middle" x="456.5" y="-7.5" font-family="Helvetica,sans-Serif" font-size="10.00">/src/iLink.c</text>
</a>
</g>
</g>
<!-- Node1&#45;&gt;Node5 -->
<g id="edge4" class="edge">
<title>Node1&#45;&gt;Node5</title>
<path fill="none" stroke="midnightblue" d="M1047.18,-79.75C941.76,-75.79 707.75,-63.79 513.5,-31 510.58,-30.51 507.59,-29.94 504.58,-29.32"/>
<polygon fill="midnightblue" stroke="midnightblue" points="1047.15,-83.25 1057.28,-80.12 1047.41,-76.25 1047.15,-83.25"/>
</g>
<!-- Node6 -->
<g id="node6" class="node">
<title>Node6</title>
<g id="a_node6"><a xlink:href="i_link___d_m_a_8c_source.html" target="_top" xlink:title=" ">
<polygon fill="white" stroke="black" points="522.5,-0.5 522.5,-30.5 618.5,-30.5 618.5,-0.5 522.5,-0.5"/>
<text text-anchor="start" x="530.5" y="-18.5" font-family="Helvetica,sans-Serif" font-size="10.00">iop/iLink/iLinkman</text>
<text text-anchor="middle" x="570.5" y="-7.5" font-family="Helvetica,sans-Serif" font-size="10.00">/src/iLink_DMA.c</text>
</a>
</g>
</g>
<!-- Node1&#45;&gt;Node6 -->
<g id="edge5" class="edge">
<title>Node1&#45;&gt;Node6</title>
<path fill="none" stroke="midnightblue" d="M1047.04,-78.14C957.53,-72.22 777.78,-57.94 627.5,-31 624.59,-30.48 621.6,-29.89 618.6,-29.25"/>
<polygon fill="midnightblue" stroke="midnightblue" points="1047.03,-81.65 1057.24,-78.8 1047.49,-74.66 1047.03,-81.65"/>
</g>
<!-- Node7 -->
<g id="node7" class="node">
<title>Node7</title>
<g id="a_node7"><a xlink:href="i_link__internal_8c_source.html" target="_top" xlink:title=" ">
<polygon fill="white" stroke="black" points="637,-0.5 637,-30.5 738,-30.5 738,-0.5 637,-0.5"/>
<text text-anchor="start" x="645" y="-18.5" font-family="Helvetica,sans-Serif" font-size="10.00">iop/iLink/iLinkman</text>
<text text-anchor="middle" x="687.5" y="-7.5" font-family="Helvetica,sans-Serif" font-size="10.00">/src/iLink_internal.c</text>
</a>
</g>
</g>
<!-- Node1&#45;&gt;Node7 -->
<g id="edge6" class="edge">
<title>Node1&#45;&gt;Node7</title>
<path fill="none" stroke="midnightblue" d="M1047.48,-75.24C977.12,-67 852.84,-51.15 747.5,-31 744.45,-30.42 741.32,-29.78 738.16,-29.11"/>
<polygon fill="midnightblue" stroke="midnightblue" points="1047.13,-78.73 1057.47,-76.41 1047.94,-71.77 1047.13,-78.73"/>
</g>
<!-- Node8 -->
<g id="node8" class="node">
<title>Node8</title>
<g id="a_node8"><a xlink:href="i_link__intr_8c_source.html" target="_top" xlink:title=" ">
<polygon fill="white" stroke="black" points="756.5,-0.5 756.5,-30.5 852.5,-30.5 852.5,-0.5 756.5,-0.5"/>
<text text-anchor="start" x="764.5" y="-18.5" font-family="Helvetica,sans-Serif" font-size="10.00">iop/iLink/iLinkman</text>
<text text-anchor="middle" x="804.5" y="-7.5" font-family="Helvetica,sans-Serif" font-size="10.00">/src/iLink_intr.c</text>
</a>
</g>
</g>
<!-- Node1&#45;&gt;Node8 -->
<g id="edge7" class="edge">
<title>Node1&#45;&gt;Node8</title>
<path fill="none" stroke="midnightblue" d="M1047.32,-70.49C998.17,-60.7 924.94,-45.68 861.5,-31 858.62,-30.33 855.65,-29.63 852.67,-28.91"/>
<polygon fill="midnightblue" stroke="midnightblue" points="1046.94,-73.99 1057.43,-72.5 1048.3,-67.12 1046.94,-73.99"/>
</g>
<!-- Node9 -->
<g id="node9" class="node">
<title>Node9</title>
<g id="a_node9"><a xlink:href="iop_2i_link_2i_linkman_2src_2irx__imports_8h_source.html" target="_top" xlink:title=" ">
<polygon fill="white" stroke="black" points="870.5,-0.5 870.5,-30.5 966.5,-30.5 966.5,-0.5 870.5,-0.5"/>
<text text-anchor="start" x="878.5" y="-18.5" font-family="Helvetica,sans-Serif" font-size="10.00">iop/iLink/iLinkman</text>
<text text-anchor="middle" x="918.5" y="-7.5" font-family="Helvetica,sans-Serif" font-size="10.00">/src/irx_imports.h</text>
</a>
</g>
</g>
<!-- Node1&#45;&gt;Node9 -->
<g id="edge8" class="edge">
<title>Node1&#45;&gt;Node9</title>
<path fill="none" stroke="midnightblue" d="M1053.56,-63.96C1023.76,-53.48 986.43,-40.37 958.56,-30.58"/>
<polygon fill="midnightblue" stroke="midnightblue" points="1052.76,-67.38 1063.36,-67.4 1055.08,-60.78 1052.76,-67.38"/>
</g>
<!-- Node10 -->
<g id="node10" class="node">
<title>Node10</title>
<g id="a_node10"><a xlink:href="smap_8c_source.html" target="_top" xlink:title=" ">
<polygon fill="white" stroke="black" points="984.5,-0.5 984.5,-30.5 1094.5,-30.5 1094.5,-0.5 984.5,-0.5"/>
<text text-anchor="start" x="992.5" y="-18.5" font-family="Helvetica,sans-Serif" font-size="10.00">iop/network/smap/src</text>
<text text-anchor="middle" x="1039.5" y="-7.5" font-family="Helvetica,sans-Serif" font-size="10.00">/smap.c</text>
</a>
</g>
</g>
<!-- Node1&#45;&gt;Node10 -->
<g id="edge9" class="edge">
<title>Node1&#45;&gt;Node10</title>
<path fill="none" stroke="midnightblue" d="M1082.35,-60.02C1072.82,-50.34 1061.83,-39.17 1053.36,-30.58"/>
<polygon fill="midnightblue" stroke="midnightblue" points="1080.1,-62.73 1089.61,-67.4 1085.09,-57.81 1080.1,-62.73"/>
</g>
<!-- Node11 -->
<g id="node11" class="node">
<title>Node11</title>
<g id="a_node11"><a xlink:href="xfer_8c_source.html" target="_top" xlink:title=" ">
<polygon fill="white" stroke="black" points="1112.5,-0.5 1112.5,-30.5 1222.5,-30.5 1222.5,-0.5 1112.5,-0.5"/>
<text text-anchor="start" x="1120.5" y="-18.5" font-family="Helvetica,sans-Serif" font-size="10.00">iop/network/smap/src</text>
<text text-anchor="middle" x="1167.5" y="-7.5" font-family="Helvetica,sans-Serif" font-size="10.00">/xfer.c</text>
</a>
</g>
</g>
<!-- Node1&#45;&gt;Node11 -->
<g id="edge10" class="edge">
<title>Node1&#45;&gt;Node11</title>
<path fill="none" stroke="midnightblue" d="M1124.65,-60.02C1134.18,-50.34 1145.17,-39.17 1153.64,-30.58"/>
<polygon fill="midnightblue" stroke="midnightblue" points="1121.91,-57.81 1117.39,-67.4 1126.9,-62.73 1121.91,-57.81"/>
</g>
<!-- Node12 -->
<g id="node12" class="node">
<title>Node12</title>
<g id="a_node12"><a xlink:href="iop_2sio_2mx4sio__bd_2src_2irx__imports_8h_source.html" target="_top" xlink:title=" ">
<polygon fill="white" stroke="black" points="1241,-0.5 1241,-30.5 1352,-30.5 1352,-0.5 1241,-0.5"/>
<text text-anchor="start" x="1249" y="-18.5" font-family="Helvetica,sans-Serif" font-size="10.00">iop/sio/mx4sio_bd/src</text>
<text text-anchor="middle" x="1296.5" y="-7.5" font-family="Helvetica,sans-Serif" font-size="10.00">/irx_imports.h</text>
</a>
</g>
</g>
<!-- Node1&#45;&gt;Node12 -->
<g id="edge11" class="edge">
<title>Node1&#45;&gt;Node12</title>
<path fill="none" stroke="midnightblue" d="M1155.19,-64.09C1186.34,-53.6 1225.51,-40.41 1254.7,-30.58"/>
<polygon fill="midnightblue" stroke="midnightblue" points="1153.74,-60.89 1145.38,-67.4 1155.97,-67.52 1153.74,-60.89"/>
</g>
<!-- Node13 -->
<g id="node13" class="node">
<title>Node13</title>
<g id="a_node13"><a xlink:href="mx4sio_8c_source.html" target="_top" xlink:title=" ">
<polygon fill="white" stroke="black" points="1370,-0.5 1370,-30.5 1481,-30.5 1481,-0.5 1370,-0.5"/>
<text text-anchor="start" x="1378" y="-18.5" font-family="Helvetica,sans-Serif" font-size="10.00">iop/sio/mx4sio_bd/src</text>
<text text-anchor="middle" x="1425.5" y="-7.5" font-family="Helvetica,sans-Serif" font-size="10.00">/mx4sio.c</text>
</a>
</g>
</g>
<!-- Node1&#45;&gt;Node13 -->
<g id="edge12" class="edge">
<title>Node1&#45;&gt;Node13</title>
<path fill="none" stroke="midnightblue" d="M1159.81,-70.97C1212.14,-61.07 1292.21,-45.63 1361.5,-31 1364.18,-30.44 1366.91,-29.85 1369.67,-29.25"/>
<polygon fill="midnightblue" stroke="midnightblue" points="1158.9,-67.58 1149.72,-72.88 1160.2,-74.46 1158.9,-67.58"/>
</g>
<!-- Node14 -->
<g id="node14" class="node">
<title>Node14</title>
<g id="a_node14"><a xlink:href="iop_2system_2sio2man_2src_2irx__imports_8h_source.html" target="_top" xlink:title=" ">
<polygon fill="white" stroke="black" points="1499.5,-0.5 1499.5,-30.5 1603.5,-30.5 1603.5,-0.5 1499.5,-0.5"/>
<text text-anchor="start" x="1507.5" y="-18.5" font-family="Helvetica,sans-Serif" font-size="10.00">iop/system/sio2man</text>
<text text-anchor="middle" x="1551.5" y="-7.5" font-family="Helvetica,sans-Serif" font-size="10.00">/src/irx_imports.h</text>
</a>
</g>
</g>
<!-- Node1&#45;&gt;Node14 -->
<g id="edge13" class="edge">
<title>Node1&#45;&gt;Node14</title>
<path fill="none" stroke="midnightblue" d="M1159.85,-76C1235.45,-68.19 1373.7,-52.44 1490.5,-31 1493.39,-30.47 1496.35,-29.89 1499.33,-29.28"/>
<polygon fill="midnightblue" stroke="midnightblue" points="1159.2,-72.55 1149.61,-77.05 1159.92,-79.51 1159.2,-72.55"/>
</g>
<!-- Node15 -->
<g id="node15" class="node">
<title>Node15</title>
<g id="a_node15"><a xlink:href="sio2man_8c.html" target="_top" xlink:title=" ">
<polygon fill="white" stroke="black" points="1621.5,-0.5 1621.5,-30.5 1725.5,-30.5 1725.5,-0.5 1621.5,-0.5"/>
<text text-anchor="start" x="1629.5" y="-18.5" font-family="Helvetica,sans-Serif" font-size="10.00">iop/system/sio2man</text>
<text text-anchor="middle" x="1673.5" y="-7.5" font-family="Helvetica,sans-Serif" font-size="10.00">/src/sio2man.c</text>
</a>
</g>
</g>
<!-- Node1&#45;&gt;Node15 -->
<g id="edge14" class="edge">
<title>Node1&#45;&gt;Node15</title>
<path fill="none" stroke="midnightblue" d="M1159.91,-78.39C1254.16,-72.64 1449.37,-58.35 1612.5,-31 1615.4,-30.51 1618.36,-29.97 1621.35,-29.38"/>
<polygon fill="midnightblue" stroke="midnightblue" points="1159.52,-74.91 1149.75,-79 1159.94,-81.89 1159.52,-74.91"/>
</g>
<!-- Node16 -->
<g id="node16" class="node">
<title>Node16</title>
<g id="a_node16"><a xlink:href="iop_2system_2udnl_2src_2irx__imports_8h_source.html" target="_top" xlink:title=" ">
<polygon fill="white" stroke="black" points="1744,-0.5 1744,-30.5 1845,-30.5 1845,-0.5 1744,-0.5"/>
<text text-anchor="start" x="1752" y="-18.5" font-family="Helvetica,sans-Serif" font-size="10.00">iop/system/udnl/src</text>
<text text-anchor="middle" x="1794.5" y="-7.5" font-family="Helvetica,sans-Serif" font-size="10.00">/irx_imports.h</text>
</a>
</g>
</g>
<!-- Node1&#45;&gt;Node16 -->
<g id="edge15" class="edge">
<title>Node1&#45;&gt;Node16</title>
<path fill="none" stroke="midnightblue" d="M1159.99,-79.96C1270.81,-76.27 1524.24,-64.61 1734.5,-31 1737.57,-30.51 1740.71,-29.94 1743.87,-29.33"/>
<polygon fill="midnightblue" stroke="midnightblue" points="1159.6,-76.47 1149.72,-80.29 1159.82,-83.46 1159.6,-76.47"/>
</g>
<!-- Node17 -->
<g id="node17" class="node">
<title>Node17</title>
<g id="a_node17"><a xlink:href="udnl_8c_source.html" target="_top" xlink:title=" ">
<polygon fill="white" stroke="black" points="1863,-0.5 1863,-30.5 1964,-30.5 1964,-0.5 1863,-0.5"/>
<text text-anchor="start" x="1871" y="-18.5" font-family="Helvetica,sans-Serif" font-size="10.00">iop/system/udnl/src</text>
<text text-anchor="middle" x="1913.5" y="-7.5" font-family="Helvetica,sans-Serif" font-size="10.00">/udnl.c</text>
</a>
</g>
</g>
<!-- Node1&#45;&gt;Node17 -->
<g id="edge16" class="edge">
<title>Node1&#45;&gt;Node17</title>
<path fill="none" stroke="midnightblue" d="M1159.65,-81.05C1285.03,-79.32 1597.02,-70.98 1854.5,-31 1857.21,-30.58 1859.98,-30.09 1862.76,-29.56"/>
<polygon fill="midnightblue" stroke="midnightblue" points="1159.48,-77.55 1149.52,-81.18 1159.57,-84.55 1159.48,-77.55"/>
</g>
<!-- Node18 -->
<g id="node18" class="node">
<title>Node18</title>
<g id="a_node18"><a xlink:href="iop_2usb_2camera_2src_2irx__imports_8h_source.html" target="_top" xlink:title=" ">
<polygon fill="white" stroke="black" points="1982.5,-0.5 1982.5,-30.5 2082.5,-30.5 2082.5,-0.5 1982.5,-0.5"/>
<text text-anchor="start" x="1990.5" y="-18.5" font-family="Helvetica,sans-Serif" font-size="10.00">iop/usb/camera/src</text>
<text text-anchor="middle" x="2032.5" y="-7.5" font-family="Helvetica,sans-Serif" font-size="10.00">/irx_imports.h</text>
</a>
</g>
</g>
<!-- Node1&#45;&gt;Node18 -->
<g id="edge17" class="edge">
<title>Node1&#45;&gt;Node18</title>
<path fill="none" stroke="midnightblue" d="M1159.95,-81.78C1299.06,-81.72 1669.12,-76.84 1973.5,-31 1976.42,-30.56 1979.41,-30.04 1982.41,-29.47"/>
<polygon fill="midnightblue" stroke="midnightblue" points="1159.56,-78.28 1149.55,-81.78 1159.55,-85.28 1159.56,-78.28"/>
</g>
<!-- Node19 -->
<g id="node19" class="node">
<title>Node19</title>
<g id="a_node19"><a xlink:href="iop_2usb_2keyboard_2src_2irx__imports_8h_source.html" target="_top" xlink:title=" ">
<polygon fill="white" stroke="black" points="2101,-0.5 2101,-30.5 2208,-30.5 2208,-0.5 2101,-0.5"/>
<text text-anchor="start" x="2109" y="-18.5" font-family="Helvetica,sans-Serif" font-size="10.00">iop/usb/keyboard/src</text>
<text text-anchor="middle" x="2154.5" y="-7.5" font-family="Helvetica,sans-Serif" font-size="10.00">/irx_imports.h</text>
</a>
</g>
</g>
<!-- Node1&#45;&gt;Node19 -->
<g id="edge18" class="edge">
<title>Node1&#45;&gt;Node19</title>
<path fill="none" stroke="midnightblue" d="M1160,-82.06C1311.61,-82.82 1739.75,-80.08 2091.5,-31 2094.5,-30.58 2097.57,-30.09 2100.66,-29.54"/>
<polygon fill="midnightblue" stroke="midnightblue" points="1159.59,-78.56 1149.57,-82 1159.55,-85.56 1159.59,-78.56"/>
</g>
</g>
</svg>
        <g id="navigator" transform="translate(0 0)" fill="#404254">
                <rect fill="#f2f5e9" fill-opacity="0.5" stroke="#606060" stroke-width=".5" x="0" y="0" width="60" height="60"/>
                <use id="zoomplus" xlink:href="#zoomPlus" x="17" y="9" onmousedown="handleZoom(evt,'in')"/>
                <use id="zoomminus" xlink:href="#zoomMin" x="42" y="9" onmousedown="handleZoom(evt,'out')"/>
                <use id="reset" xlink:href="#resetDef" x="30" y="36" onmousedown="handleReset()"/>
                <g id="arrowUp" xlink:href="#dirArrow" transform="translate(30 24)" onmousedown="handlePan(0,-1)">
                  <use xlink:href="#rim" fill="#404040">
                        <set attributeName="fill" to="#808080" begin="arrowUp.mouseover" end="arrowUp.mouseout"/>
                  </use>
                  <path fill="none" stroke="white" stroke-width="1.5" d="M0,-3.0v7 M-2.5,-0.5L0,-3.0L2.5,-0.5"/>
                </g>
                <g id="arrowRight" xlink:href="#dirArrow" transform="rotate(90) translate(36 -43)" onmousedown="handlePan(1,0)">
                  <use xlink:href="#rim" fill="#404040">
                        <set attributeName="fill" to="#808080" begin="arrowRight.mouseover" end="arrowRight.mouseout"/>
                  </use>
                  <path fill="none" stroke="white" stroke-width="1.5" d="M0,-3.0v7 M-2.5,-0.5L0,-3.0L2.5,-0.5"/>
                </g>
                <g id="arrowDown" xlink:href="#dirArrow" transform="rotate(180) translate(-30 -48)" onmousedown="handlePan(0,1)">
                  <use xlink:href="#rim" fill="#404040">
                        <set attributeName="fill" to="#808080" begin="arrowDown.mouseover" end="arrowDown.mouseout"/>
                  </use>
                  <path fill="none" stroke="white" stroke-width="1.5" d="M0,-3.0v7 M-2.5,-0.5L0,-3.0L2.5,-0.5"/>
                </g>
                <g id="arrowLeft" xlink:href="#dirArrow" transform="rotate(270) translate(-36 17)" onmousedown="handlePan(-1,0)">
                  <use xlink:href="#rim" fill="#404040">
                        <set attributeName="fill" to="#808080" begin="arrowLeft.mouseover" end="arrowLeft.mouseout"/>
                  </use>
                  <path fill="none" stroke="white" stroke-width="1.5" d="M0,-3.0v7 M-2.5,-0.5L0,-3.0L2.5,-0.5"/>
                </g>
        </g>
        <svg viewBox="0 0 15 15" width="100%" height="30px" preserveAspectRatio="xMaxYMin meet">
         <g id="arrow_out" transform="scale(0.3 0.3)">
          <a xlink:href="dmacman_8h__dep__incl_org.svg" target="_base">
           <rect id="button" ry="5" rx="5" y="6" x="6" height="38" width="38"
                fill="#f2f5e9" fill-opacity="0.5" stroke="#606060" stroke-width="1.0"/>
           <path id="arrow"
             d="M 11.500037,31.436501 C 11.940474,20.09759 22.043105,11.32322 32.158766,21.979434 L 37.068811,17.246167 C 37.068811,17.246167 37.088388,32 37.088388,32 L 22.160133,31.978069 C 22.160133,31.978069 26.997745,27.140456 26.997745,27.140456 C 18.528582,18.264221 13.291696,25.230495 11.500037,31.436501 z"
             style="fill:#404040;"/>
          </a>
         </g>
        </svg>
</svg>
