<?xml version="1.0" encoding="UTF-8" standalone="no"?>
<!DOCTYPE svg PUBLIC "-//W3C//DTD SVG 1.1//EN"
 "http://www.w3.org/Graphics/SVG/1.1/DTD/svg11.dtd">
<!-- Generated by graphviz version 3.0.0 (20220413.0242)
 -->
<!-- Title: ee/rpc/filexio/src/fileXio_rpc.c Pages: 1 -->
<svg width="869pt" height="319pt"
 viewBox="0.00 0.00 869.00 319.00" xmlns="http://www.w3.org/2000/svg" xmlns:xlink="http://www.w3.org/1999/xlink">
<g id="graph0" class="graph" transform="scale(1 1) rotate(0) translate(4 315)">
<title>ee/rpc/filexio/src/fileXio_rpc.c</title>
<polygon fill="white" stroke="transparent" points="-4,4 -4,-315 865,-315 865,4 -4,4"/>
<!-- Node1 -->
<g id="node1" class="node">
<title>Node1</title>
<g id="a_node1"><a xlink:title=" ">
<polygon fill="#bfbfbf" stroke="black" points="431.5,-280.5 431.5,-310.5 518.5,-310.5 518.5,-280.5 431.5,-280.5"/>
<text text-anchor="start" x="439.5" y="-298.5" font-family="Helvetica,sans-Serif" font-size="10.00">ee/rpc/filexio/src</text>
<text text-anchor="middle" x="475" y="-287.5" font-family="Helvetica,sans-Serif" font-size="10.00">/fileXio_rpc.c</text>
</a>
</g>
</g>
<!-- Node2 -->
<g id="node2" class="node">
<title>Node2</title>
<g id="a_node2"><a xlink:href="tamtypes_8h.html" target="_top" xlink:title=" ">
<polygon fill="white" stroke="black" points="275,-0.5 275,-19.5 339,-19.5 339,-0.5 275,-0.5"/>
<text text-anchor="middle" x="307" y="-7.5" font-family="Helvetica,sans-Serif" font-size="10.00">tamtypes.h</text>
</a>
</g>
</g>
<!-- Node1&#45;&gt;Node2 -->
<g id="edge1" class="edge">
<title>Node1&#45;&gt;Node2</title>
<path fill="none" stroke="midnightblue" d="M507.97,-280.5C523.52,-272.18 540.85,-260.07 551,-244 575.9,-204.55 572.86,-72.56 559,-56 532.79,-24.69 414.35,-15.14 349.6,-12.25"/>
<polygon fill="midnightblue" stroke="midnightblue" points="349.45,-8.74 339.31,-11.82 349.16,-15.73 349.45,-8.74"/>
</g>
<!-- Node3 -->
<g id="node3" class="node">
<title>Node3</title>
<g id="a_node3"><a xlink:href="kernel_8h.html" target="_top" xlink:title=" ">
<polygon fill="white" stroke="black" points="0,-168.5 0,-187.5 50,-187.5 50,-168.5 0,-168.5"/>
<text text-anchor="middle" x="25" y="-175.5" font-family="Helvetica,sans-Serif" font-size="10.00">kernel.h</text>
</a>
</g>
</g>
<!-- Node1&#45;&gt;Node3 -->
<g id="edge2" class="edge">
<title>Node1&#45;&gt;Node3</title>
<path fill="none" stroke="midnightblue" d="M431.16,-293.89C337.98,-291.83 123.83,-282.88 64,-244 47.48,-233.27 36.95,-212.87 31.05,-197.77"/>
<polygon fill="midnightblue" stroke="midnightblue" points="34.2,-196.18 27.55,-187.93 27.6,-198.52 34.2,-196.18"/>
</g>
<!-- Node5 -->
<g id="node5" class="node">
<title>Node5</title>
<g id="a_node5"><a xlink:title=" ">
<polygon fill="white" stroke="#bfbfbf" points="52.5,-112.5 52.5,-131.5 103.5,-131.5 103.5,-112.5 52.5,-112.5"/>
<text text-anchor="middle" x="78" y="-119.5" font-family="Helvetica,sans-Serif" font-size="10.00">stdarg.h</text>
</a>
</g>
</g>
<!-- Node1&#45;&gt;Node5 -->
<g id="edge23" class="edge">
<title>Node1&#45;&gt;Node5</title>
<path fill="none" stroke="midnightblue" d="M431.25,-291.43C374.73,-286.41 273.98,-273.8 193,-244 146.64,-226.94 127.42,-226.91 97,-188 86.6,-174.7 81.89,-155.87 79.76,-141.89"/>
<polygon fill="midnightblue" stroke="midnightblue" points="83.23,-141.43 78.54,-131.93 76.28,-142.28 83.23,-141.43"/>
</g>
<!-- Node7 -->
<g id="node7" class="node">
<title>Node7</title>
<g id="a_node7"><a xlink:title=" ">
<polygon fill="white" stroke="#bfbfbf" points="598,-224.5 598,-243.5 646,-243.5 646,-224.5 598,-224.5"/>
<text text-anchor="middle" x="622" y="-231.5" font-family="Helvetica,sans-Serif" font-size="10.00">sifrpc.h</text>
</a>
</g>
</g>
<!-- Node1&#45;&gt;Node7 -->
<g id="edge7" class="edge">
<title>Node1&#45;&gt;Node7</title>
<path fill="none" stroke="midnightblue" d="M509.84,-280.4C534.5,-270.42 567.29,-257.15 591.03,-247.53"/>
<polygon fill="midnightblue" stroke="midnightblue" points="592.65,-250.65 600.61,-243.66 590.03,-244.17 592.65,-250.65"/>
</g>
<!-- Node8 -->
<g id="node8" class="node">
<title>Node8</title>
<g id="a_node8"><a xlink:href="stdio_8h.html" target="_top" xlink:title=" ">
<polygon fill="white" stroke="black" points="106.5,-168.5 106.5,-187.5 151.5,-187.5 151.5,-168.5 106.5,-168.5"/>
<text text-anchor="middle" x="129" y="-175.5" font-family="Helvetica,sans-Serif" font-size="10.00">stdio.h</text>
</a>
</g>
</g>
<!-- Node1&#45;&gt;Node8 -->
<g id="edge8" class="edge">
<title>Node1&#45;&gt;Node8</title>
<path fill="none" stroke="midnightblue" d="M431.18,-289.64C382.45,-283.23 302.04,-269.63 237,-244 204.01,-231 169.52,-208.42 148.64,-193.59"/>
<polygon fill="midnightblue" stroke="midnightblue" points="150.47,-190.59 140.31,-187.57 146.37,-196.27 150.47,-190.59"/>
</g>
<!-- Node11 -->
<g id="node11" class="node">
<title>Node11</title>
<g id="a_node11"><a xlink:href="string_8h_source.html" target="_top" xlink:title=" ">
<polygon fill="white" stroke="black" points="246,-224.5 246,-243.5 294,-243.5 294,-224.5 246,-224.5"/>
<text text-anchor="middle" x="270" y="-231.5" font-family="Helvetica,sans-Serif" font-size="10.00">string.h</text>
</a>
</g>
</g>
<!-- Node1&#45;&gt;Node11 -->
<g id="edge14" class="edge">
<title>Node1&#45;&gt;Node11</title>
<path fill="none" stroke="midnightblue" d="M431.27,-281.81C393.17,-270.75 338.71,-254.94 303.85,-244.82"/>
<polygon fill="midnightblue" stroke="midnightblue" points="304.71,-241.43 294.13,-242 302.76,-248.15 304.71,-241.43"/>
</g>
<!-- Node15 -->
<g id="node15" class="node">
<title>Node15</title>
<g id="a_node15"><a xlink:title=" ">
<polygon fill="white" stroke="#bfbfbf" points="664.5,-224.5 664.5,-243.5 717.5,-243.5 717.5,-224.5 664.5,-224.5"/>
<text text-anchor="middle" x="691" y="-231.5" font-family="Helvetica,sans-Serif" font-size="10.00">malloc.h</text>
</a>
</g>
</g>
<!-- Node1&#45;&gt;Node15 -->
<g id="edge22" class="edge">
<title>Node1&#45;&gt;Node15</title>
<path fill="none" stroke="midnightblue" d="M518.71,-282.46C558.6,-271.47 616.88,-255.42 654.38,-245.09"/>
<polygon fill="midnightblue" stroke="midnightblue" points="655.66,-248.37 664.37,-242.34 653.8,-241.62 655.66,-248.37"/>
</g>
<!-- Node16 -->
<g id="node16" class="node">
<title>Node16</title>
<g id="a_node16"><a xlink:href="fcntl_8h_source.html" target="_top" xlink:title=" ">
<polygon fill="white" stroke="black" points="735.5,-224.5 735.5,-243.5 796.5,-243.5 796.5,-224.5 735.5,-224.5"/>
<text text-anchor="middle" x="766" y="-231.5" font-family="Helvetica,sans-Serif" font-size="10.00">sys/fcntl.h</text>
</a>
</g>
</g>
<!-- Node1&#45;&gt;Node16 -->
<g id="edge24" class="edge">
<title>Node1&#45;&gt;Node16</title>
<path fill="none" stroke="midnightblue" d="M518.78,-286.13C567.05,-276.81 647.24,-261.06 725.35,-244.31"/>
<polygon fill="midnightblue" stroke="midnightblue" points="726.32,-247.68 735.36,-242.16 724.85,-240.84 726.32,-247.68"/>
</g>
<!-- Node17 -->
<g id="node17" class="node">
<title>Node17</title>
<g id="a_node17"><a xlink:title=" ">
<polygon fill="white" stroke="#bfbfbf" points="422.5,-168.5 422.5,-187.5 481.5,-187.5 481.5,-168.5 422.5,-168.5"/>
<text text-anchor="middle" x="452" y="-175.5" font-family="Helvetica,sans-Serif" font-size="10.00">sys/stat.h</text>
</a>
</g>
</g>
<!-- Node1&#45;&gt;Node17 -->
<g id="edge25" class="edge">
<title>Node1&#45;&gt;Node17</title>
<path fill="none" stroke="midnightblue" d="M471.8,-280.38C469.53,-270.26 466.48,-256.32 464,-244 460.88,-228.51 457.65,-210.88 455.32,-197.9"/>
<polygon fill="midnightblue" stroke="midnightblue" points="458.73,-197.08 453.54,-187.85 451.84,-198.31 458.73,-197.08"/>
</g>
<!-- Node18 -->
<g id="node18" class="node">
<title>Node18</title>
<g id="a_node18"><a xlink:href="ps2sdkapi_8h_source.html" target="_top" xlink:title=" ">
<polygon fill="white" stroke="black" points="341,-224.5 341,-243.5 409,-243.5 409,-224.5 341,-224.5"/>
<text text-anchor="middle" x="375" y="-231.5" font-family="Helvetica,sans-Serif" font-size="10.00">ps2sdkapi.h</text>
</a>
</g>
</g>
<!-- Node1&#45;&gt;Node18 -->
<g id="edge26" class="edge">
<title>Node1&#45;&gt;Node18</title>
<path fill="none" stroke="midnightblue" d="M451.3,-280.4C435.27,-270.86 414.2,-258.32 398.26,-248.84"/>
<polygon fill="midnightblue" stroke="midnightblue" points="399.93,-245.76 389.55,-243.66 396.36,-251.78 399.93,-245.76"/>
</g>
<!-- Node22 -->
<g id="node22" class="node">
<title>Node22</title>
<g id="a_node22"><a xlink:href="file_xio__rpc_8h.html" target="_top" xlink:title=" ">
<polygon fill="white" stroke="black" points="472.5,-224.5 472.5,-243.5 541.5,-243.5 541.5,-224.5 472.5,-224.5"/>
<text text-anchor="middle" x="507" y="-231.5" font-family="Helvetica,sans-Serif" font-size="10.00">fileXio_rpc.h</text>
</a>
</g>
</g>
<!-- Node1&#45;&gt;Node22 -->
<g id="edge32" class="edge">
<title>Node1&#45;&gt;Node22</title>
<path fill="none" stroke="midnightblue" d="M482.58,-280.4C487.04,-272.11 492.72,-261.55 497.48,-252.71"/>
<polygon fill="midnightblue" stroke="midnightblue" points="500.69,-254.12 502.34,-243.66 494.52,-250.81 500.69,-254.12"/>
</g>
<!-- Node26 -->
<g id="node26" class="node">
<title>Node26</title>
<g id="a_node26"><a xlink:href="errno_8h.html" target="_top" xlink:title=" ">
<polygon fill="white" stroke="black" points="815,-224.5 815,-243.5 861,-243.5 861,-224.5 815,-224.5"/>
<text text-anchor="middle" x="838" y="-231.5" font-family="Helvetica,sans-Serif" font-size="10.00">errno.h</text>
</a>
</g>
</g>
<!-- Node1&#45;&gt;Node26 -->
<g id="edge38" class="edge">
<title>Node1&#45;&gt;Node26</title>
<path fill="none" stroke="midnightblue" d="M518.69,-289.57C580.39,-282.23 696.69,-266.99 804.59,-244.09"/>
<polygon fill="midnightblue" stroke="midnightblue" points="805.62,-247.45 814.66,-241.92 804.15,-240.6 805.62,-247.45"/>
</g>
<!-- Node4 -->
<g id="node4" class="node">
<title>Node4</title>
<g id="a_node4"><a xlink:title=" ">
<polygon fill="white" stroke="#bfbfbf" points="59.5,-0.5 59.5,-19.5 110.5,-19.5 110.5,-0.5 59.5,-0.5"/>
<text text-anchor="middle" x="85" y="-7.5" font-family="Helvetica,sans-Serif" font-size="10.00">stddef.h</text>
</a>
</g>
</g>
<!-- Node3&#45;&gt;Node4 -->
<g id="edge3" class="edge">
<title>Node3&#45;&gt;Node4</title>
<path fill="none" stroke="midnightblue" d="M24.36,-168.22C23.23,-147.46 22.61,-94.21 42,-56 47.77,-44.64 57.34,-34.2 66,-26.24"/>
<polygon fill="midnightblue" stroke="midnightblue" points="68.3,-28.87 73.55,-19.67 63.71,-23.59 68.3,-28.87"/>
</g>
<!-- Node3&#45;&gt;Node5 -->
<g id="edge4" class="edge">
<title>Node3&#45;&gt;Node5</title>
<path fill="none" stroke="midnightblue" d="M33.75,-168.08C41.47,-160.22 52.9,-148.57 62.22,-139.08"/>
<polygon fill="midnightblue" stroke="midnightblue" points="64.9,-141.34 69.41,-131.75 59.91,-136.44 64.9,-141.34"/>
</g>
<!-- Node6 -->
<g id="node6" class="node">
<title>Node6</title>
<g id="a_node6"><a xlink:href="sifdma_8h.html" target="_top" xlink:title=" ">
<polygon fill="white" stroke="black" points="51.5,-56.5 51.5,-75.5 104.5,-75.5 104.5,-56.5 51.5,-56.5"/>
<text text-anchor="middle" x="78" y="-63.5" font-family="Helvetica,sans-Serif" font-size="10.00">sifdma.h</text>
</a>
</g>
</g>
<!-- Node3&#45;&gt;Node6 -->
<g id="edge5" class="edge">
<title>Node3&#45;&gt;Node6</title>
<path fill="none" stroke="midnightblue" d="M26.32,-168.19C28.48,-155.32 33.54,-130.83 43,-112 48.21,-101.63 55.99,-91.32 62.89,-83.19"/>
<polygon fill="midnightblue" stroke="midnightblue" points="65.61,-85.4 69.63,-75.59 60.37,-80.75 65.61,-85.4"/>
</g>
<!-- Node6&#45;&gt;Node2 -->
<g id="edge6" class="edge">
<title>Node6&#45;&gt;Node2</title>
<path fill="none" stroke="midnightblue" d="M104.72,-58.7C144.18,-49.39 218.4,-31.89 265.13,-20.87"/>
<polygon fill="midnightblue" stroke="midnightblue" points="266.02,-24.26 274.95,-18.56 264.42,-17.45 266.02,-24.26"/>
</g>
<!-- Node8&#45;&gt;Node5 -->
<g id="edge9" class="edge">
<title>Node8&#45;&gt;Node5</title>
<path fill="none" stroke="midnightblue" d="M120.58,-168.08C113.15,-160.22 102.15,-148.57 93.19,-139.08"/>
<polygon fill="midnightblue" stroke="midnightblue" points="95.68,-136.62 86.26,-131.75 90.59,-141.42 95.68,-136.62"/>
</g>
<!-- Node9 -->
<g id="node9" class="node">
<title>Node9</title>
<g id="a_node9"><a xlink:href="irx_8h.html" target="_top" xlink:title=" ">
<polygon fill="white" stroke="black" points="122,-112.5 122,-131.5 156,-131.5 156,-112.5 122,-112.5"/>
<text text-anchor="middle" x="139" y="-119.5" font-family="Helvetica,sans-Serif" font-size="10.00">irx.h</text>
</a>
</g>
</g>
<!-- Node8&#45;&gt;Node9 -->
<g id="edge10" class="edge">
<title>Node8&#45;&gt;Node9</title>
<path fill="none" stroke="midnightblue" d="M130.65,-168.08C131.98,-160.93 133.88,-150.64 135.54,-141.69"/>
<polygon fill="midnightblue" stroke="midnightblue" points="139,-142.22 137.38,-131.75 132.12,-140.95 139,-142.22"/>
</g>
<!-- Node10 -->
<g id="node10" class="node">
<title>Node10</title>
<g id="a_node10"><a xlink:href="types_8h_source.html" target="_top" xlink:title=" ">
<polygon fill="white" stroke="black" points="137.5,-56.5 137.5,-75.5 184.5,-75.5 184.5,-56.5 137.5,-56.5"/>
<text text-anchor="middle" x="161" y="-63.5" font-family="Helvetica,sans-Serif" font-size="10.00">types.h</text>
</a>
</g>
</g>
<!-- Node9&#45;&gt;Node10 -->
<g id="edge11" class="edge">
<title>Node9&#45;&gt;Node10</title>
<path fill="none" stroke="midnightblue" d="M142.63,-112.08C145.61,-104.77 149.93,-94.18 153.62,-85.1"/>
<polygon fill="midnightblue" stroke="midnightblue" points="156.9,-86.33 157.43,-75.75 150.42,-83.69 156.9,-86.33"/>
</g>
<!-- Node10&#45;&gt;Node2 -->
<g id="edge13" class="edge">
<title>Node10&#45;&gt;Node2</title>
<path fill="none" stroke="midnightblue" d="M184.13,-56.44C208.48,-47.44 247.01,-33.19 274.42,-23.05"/>
<polygon fill="midnightblue" stroke="midnightblue" points="275.81,-26.27 283.97,-19.52 273.38,-19.7 275.81,-26.27"/>
</g>
<!-- Node10&#45;&gt;Node4 -->
<g id="edge12" class="edge">
<title>Node10&#45;&gt;Node4</title>
<path fill="none" stroke="midnightblue" d="M148.79,-56.32C137.22,-48.11 119.62,-35.6 105.84,-25.81"/>
<polygon fill="midnightblue" stroke="midnightblue" points="107.61,-22.77 97.43,-19.83 103.56,-28.48 107.61,-22.77"/>
</g>
<!-- Node12 -->
<g id="node12" class="node">
<title>Node12</title>
<g id="a_node12"><a xlink:href="sysclib_8h.html" target="_top" xlink:title=" ">
<polygon fill="white" stroke="black" points="170,-168.5 170,-187.5 224,-187.5 224,-168.5 170,-168.5"/>
<text text-anchor="middle" x="197" y="-175.5" font-family="Helvetica,sans-Serif" font-size="10.00">sysclib.h</text>
</a>
</g>
</g>
<!-- Node11&#45;&gt;Node12 -->
<g id="edge15" class="edge">
<title>Node11&#45;&gt;Node12</title>
<path fill="none" stroke="midnightblue" d="M258.27,-224.32C247.16,-216.11 230.26,-203.6 217.02,-193.81"/>
<polygon fill="midnightblue" stroke="midnightblue" points="219.06,-190.97 208.94,-187.83 214.9,-196.59 219.06,-190.97"/>
</g>
<!-- Node12&#45;&gt;Node5 -->
<g id="edge18" class="edge">
<title>Node12&#45;&gt;Node5</title>
<path fill="none" stroke="midnightblue" d="M178.14,-168.44C158.73,-159.64 128.27,-145.81 106.04,-135.72"/>
<polygon fill="midnightblue" stroke="midnightblue" points="107.32,-132.46 96.77,-131.52 104.43,-138.84 107.32,-132.46"/>
</g>
<!-- Node12&#45;&gt;Node9 -->
<g id="edge17" class="edge">
<title>Node12&#45;&gt;Node9</title>
<path fill="none" stroke="midnightblue" d="M187.68,-168.32C179.11,-160.34 166.19,-148.31 155.81,-138.65"/>
<polygon fill="midnightblue" stroke="midnightblue" points="158.19,-136.09 148.49,-131.83 153.42,-141.21 158.19,-136.09"/>
</g>
<!-- Node12&#45;&gt;Node10 -->
<g id="edge16" class="edge">
<title>Node12&#45;&gt;Node10</title>
<path fill="none" stroke="midnightblue" d="M194.18,-168.37C188.34,-150.54 174.84,-109.3 166.98,-85.27"/>
<polygon fill="midnightblue" stroke="midnightblue" points="170.25,-84.01 163.81,-75.59 163.6,-86.18 170.25,-84.01"/>
</g>
<!-- Node13 -->
<g id="node13" class="node">
<title>Node13</title>
<g id="a_node13"><a xlink:href="setjmp_8h.html" target="_top" xlink:title=" ">
<polygon fill="white" stroke="black" points="246.5,-56.5 246.5,-75.5 299.5,-75.5 299.5,-56.5 246.5,-56.5"/>
<text text-anchor="middle" x="273" y="-63.5" font-family="Helvetica,sans-Serif" font-size="10.00">setjmp.h</text>
</a>
</g>
</g>
<!-- Node12&#45;&gt;Node13 -->
<g id="edge19" class="edge">
<title>Node12&#45;&gt;Node13</title>
<path fill="none" stroke="midnightblue" d="M221.8,-168.43C238.2,-161.36 258.52,-149.61 269,-132 277.22,-118.19 277.54,-99.66 276.21,-85.93"/>
<polygon fill="midnightblue" stroke="midnightblue" points="279.63,-85.16 274.83,-75.72 272.7,-86.1 279.63,-85.16"/>
</g>
<!-- Node14 -->
<g id="node14" class="node">
<title>Node14</title>
<g id="a_node14"><a xlink:href="ctype_8h.html" target="_top" xlink:title=" ">
<polygon fill="white" stroke="black" points="212.5,-112.5 212.5,-131.5 259.5,-131.5 259.5,-112.5 212.5,-112.5"/>
<text text-anchor="middle" x="236" y="-119.5" font-family="Helvetica,sans-Serif" font-size="10.00">ctype.h</text>
</a>
</g>
</g>
<!-- Node12&#45;&gt;Node14 -->
<g id="edge21" class="edge">
<title>Node12&#45;&gt;Node14</title>
<path fill="none" stroke="midnightblue" d="M203.44,-168.08C208.95,-160.46 217.03,-149.26 223.76,-139.94"/>
<polygon fill="midnightblue" stroke="midnightblue" points="226.66,-141.91 229.68,-131.75 220.99,-137.81 226.66,-141.91"/>
</g>
<!-- Node13&#45;&gt;Node2 -->
<g id="edge20" class="edge">
<title>Node13&#45;&gt;Node2</title>
<path fill="none" stroke="midnightblue" d="M278.61,-56.08C283.37,-48.53 290.32,-37.49 296.15,-28.23"/>
<polygon fill="midnightblue" stroke="midnightblue" points="299.12,-30.08 301.49,-19.75 293.2,-26.35 299.12,-30.08"/>
</g>
<!-- Node18&#45;&gt;Node17 -->
<g id="edge29" class="edge">
<title>Node18&#45;&gt;Node17</title>
<path fill="none" stroke="midnightblue" d="M387.37,-224.32C399.16,-216.06 417.13,-203.45 431.14,-193.63"/>
<polygon fill="midnightblue" stroke="midnightblue" points="433.48,-196.26 439.66,-187.65 429.46,-190.53 433.48,-196.26"/>
</g>
<!-- Node19 -->
<g id="node19" class="node">
<title>Node19</title>
<g id="a_node19"><a xlink:title=" ">
<polygon fill="white" stroke="#bfbfbf" points="280,-168.5 280,-187.5 328,-187.5 328,-168.5 280,-168.5"/>
<text text-anchor="middle" x="304" y="-175.5" font-family="Helvetica,sans-Serif" font-size="10.00">dirent.h</text>
</a>
</g>
</g>
<!-- Node18&#45;&gt;Node19 -->
<g id="edge27" class="edge">
<title>Node18&#45;&gt;Node19</title>
<path fill="none" stroke="midnightblue" d="M363.59,-224.32C352.89,-216.18 336.66,-203.84 323.84,-194.09"/>
<polygon fill="midnightblue" stroke="midnightblue" points="325.69,-191.1 315.61,-187.83 321.46,-196.67 325.69,-191.1"/>
</g>
<!-- Node20 -->
<g id="node20" class="node">
<title>Node20</title>
<g id="a_node20"><a xlink:title=" ">
<polygon fill="white" stroke="#bfbfbf" points="346,-168.5 346,-187.5 404,-187.5 404,-168.5 346,-168.5"/>
<text text-anchor="middle" x="375" y="-175.5" font-family="Helvetica,sans-Serif" font-size="10.00">inttypes.h</text>
</a>
</g>
</g>
<!-- Node18&#45;&gt;Node20 -->
<g id="edge28" class="edge">
<title>Node18&#45;&gt;Node20</title>
<path fill="none" stroke="midnightblue" d="M375,-224.08C375,-217.01 375,-206.86 375,-197.99"/>
<polygon fill="midnightblue" stroke="midnightblue" points="378.5,-197.75 375,-187.75 371.5,-197.75 378.5,-197.75"/>
</g>
<!-- Node21 -->
<g id="node21" class="node">
<title>Node21</title>
<g id="a_node21"><a xlink:href="timer_8h.html" target="_top" xlink:title=" ">
<polygon fill="white" stroke="black" points="318,-56.5 318,-75.5 364,-75.5 364,-56.5 318,-56.5"/>
<text text-anchor="middle" x="341" y="-63.5" font-family="Helvetica,sans-Serif" font-size="10.00">timer.h</text>
</a>
</g>
</g>
<!-- Node18&#45;&gt;Node21 -->
<g id="edge30" class="edge">
<title>Node18&#45;&gt;Node21</title>
<path fill="none" stroke="midnightblue" d="M340.87,-228.12C316.87,-222.72 286.39,-211.43 271,-188 258.38,-168.79 302.75,-111.77 326.69,-83.4"/>
<polygon fill="midnightblue" stroke="midnightblue" points="329.53,-85.47 333.38,-75.59 324.22,-80.91 329.53,-85.47"/>
</g>
<!-- Node21&#45;&gt;Node2 -->
<g id="edge31" class="edge">
<title>Node21&#45;&gt;Node2</title>
<path fill="none" stroke="midnightblue" d="M335.39,-56.08C330.63,-48.53 323.68,-37.49 317.85,-28.23"/>
<polygon fill="midnightblue" stroke="midnightblue" points="320.8,-26.35 312.51,-19.75 314.88,-30.08 320.8,-26.35"/>
</g>
<!-- Node22&#45;&gt;Node17 -->
<g id="edge37" class="edge">
<title>Node22&#45;&gt;Node17</title>
<path fill="none" stroke="midnightblue" d="M497.92,-224.08C489.83,-216.14 477.8,-204.34 468.09,-194.8"/>
<polygon fill="midnightblue" stroke="midnightblue" points="470.5,-192.26 460.91,-187.75 465.6,-197.25 470.5,-192.26"/>
</g>
<!-- Node23 -->
<g id="node23" class="node">
<title>Node23</title>
<g id="a_node23"><a xlink:href="file_xio_8h.html" target="_top" xlink:title=" ">
<polygon fill="white" stroke="black" points="500,-168.5 500,-187.5 550,-187.5 550,-168.5 500,-168.5"/>
<text text-anchor="middle" x="525" y="-175.5" font-family="Helvetica,sans-Serif" font-size="10.00">fileXio.h</text>
</a>
</g>
</g>
<!-- Node22&#45;&gt;Node23 -->
<g id="edge33" class="edge">
<title>Node22&#45;&gt;Node23</title>
<path fill="none" stroke="midnightblue" d="M509.97,-224.08C512.38,-216.85 515.86,-206.41 518.87,-197.4"/>
<polygon fill="midnightblue" stroke="midnightblue" points="522.24,-198.34 522.08,-187.75 515.6,-196.13 522.24,-198.34"/>
</g>
<!-- Node23&#45;&gt;Node2 -->
<g id="edge34" class="edge">
<title>Node23&#45;&gt;Node2</title>
<path fill="none" stroke="midnightblue" d="M514.52,-168.22C490.15,-147.88 427.57,-96.24 373,-56 358.63,-45.4 342.02,-34.08 329.06,-25.45"/>
<polygon fill="midnightblue" stroke="midnightblue" points="330.62,-22.28 320.35,-19.68 326.76,-28.12 330.62,-22.28"/>
</g>
<!-- Node24 -->
<g id="node24" class="node">
<title>Node24</title>
<g id="a_node24"><a xlink:href="iox__stat_8h.html" target="_top" xlink:title=" ">
<polygon fill="white" stroke="black" points="491,-112.5 491,-131.5 549,-131.5 549,-112.5 491,-112.5"/>
<text text-anchor="middle" x="520" y="-119.5" font-family="Helvetica,sans-Serif" font-size="10.00">iox_stat.h</text>
</a>
</g>
</g>
<!-- Node23&#45;&gt;Node24 -->
<g id="edge35" class="edge">
<title>Node23&#45;&gt;Node24</title>
<path fill="none" stroke="midnightblue" d="M524.17,-168.08C523.52,-161.01 522.58,-150.86 521.76,-141.99"/>
<polygon fill="midnightblue" stroke="midnightblue" points="525.22,-141.39 520.81,-131.75 518.25,-142.03 525.22,-141.39"/>
</g>
<!-- Node25 -->
<g id="node25" class="node">
<title>Node25</title>
<g id="a_node25"><a xlink:href="time_8h.html" target="_top" xlink:title=" ">
<polygon fill="white" stroke="black" points="488.5,-56.5 488.5,-75.5 549.5,-75.5 549.5,-56.5 488.5,-56.5"/>
<text text-anchor="middle" x="519" y="-63.5" font-family="Helvetica,sans-Serif" font-size="10.00">sys/time.h</text>
</a>
</g>
</g>
<!-- Node24&#45;&gt;Node25 -->
<g id="edge36" class="edge">
<title>Node24&#45;&gt;Node25</title>
<path fill="none" stroke="midnightblue" d="M519.83,-112.08C519.7,-105.01 519.52,-94.86 519.35,-85.99"/>
<polygon fill="midnightblue" stroke="midnightblue" points="522.85,-85.68 519.16,-75.75 515.85,-85.81 522.85,-85.68"/>
</g>
</g>
</svg>
