<?xml version="1.0" encoding="UTF-8" standalone="no"?>
<!DOCTYPE svg PUBLIC "-//W3C//DTD SVG 1.1//EN"
 "http://www.w3.org/Graphics/SVG/1.1/DTD/svg11.dtd">
<!-- Generated by graphviz version 3.0.0 (20220413.0242)
 -->
<!-- Title: ee/kernel/src/initsys.c Pages: 1 -->
<svg width="335pt" height="308pt"
 viewBox="0.00 0.00 334.51 308.00" xmlns="http://www.w3.org/2000/svg" xmlns:xlink="http://www.w3.org/1999/xlink">
<g id="graph0" class="graph" transform="scale(1 1) rotate(0) translate(4 304)">
<title>ee/kernel/src/initsys.c</title>
<polygon fill="white" stroke="transparent" points="-4,4 -4,-304 330.51,-304 330.51,4 -4,4"/>
<!-- Node1 -->
<g id="node1" class="node">
<title>Node1</title>
<g id="a_node1"><a xlink:title=" ">
<polygon fill="#bfbfbf" stroke="black" points="135.5,-280.5 135.5,-299.5 246.5,-299.5 246.5,-280.5 135.5,-280.5"/>
<text text-anchor="middle" x="191" y="-287.5" font-family="Helvetica,sans-Serif" font-size="10.00">ee/kernel/src/initsys.c</text>
</a>
</g>
</g>
<!-- Node2 -->
<g id="node2" class="node">
<title>Node2</title>
<g id="a_node2"><a xlink:href="kernel_8h.html" target="_top" xlink:title=" ">
<polygon fill="white" stroke="black" points="0,-168.5 0,-187.5 50,-187.5 50,-168.5 0,-168.5"/>
<text text-anchor="middle" x="25" y="-175.5" font-family="Helvetica,sans-Serif" font-size="10.00">kernel.h</text>
</a>
</g>
</g>
<!-- Node1&#45;&gt;Node2 -->
<g id="edge1" class="edge">
<title>Node1&#45;&gt;Node2</title>
<path fill="none" stroke="midnightblue" d="M177.97,-280.37C149.49,-261.49 81.42,-216.38 46.48,-193.24"/>
<polygon fill="midnightblue" stroke="midnightblue" points="48.23,-190.2 37.97,-187.59 44.37,-196.03 48.23,-190.2"/>
</g>
<!-- Node7 -->
<g id="node7" class="node">
<title>Node7</title>
<g id="a_node7"><a xlink:href="timer_8h.html" target="_top" xlink:title=" ">
<polygon fill="white" stroke="black" points="261,-168.5 261,-187.5 307,-187.5 307,-168.5 261,-168.5"/>
<text text-anchor="middle" x="284" y="-175.5" font-family="Helvetica,sans-Serif" font-size="10.00">timer.h</text>
</a>
</g>
</g>
<!-- Node1&#45;&gt;Node7 -->
<g id="edge6" class="edge">
<title>Node1&#45;&gt;Node7</title>
<path fill="none" stroke="midnightblue" d="M196.64,-280.24C205.05,-267.41 221.64,-242.99 238,-224 246.93,-213.63 257.85,-202.88 266.81,-194.49"/>
<polygon fill="midnightblue" stroke="midnightblue" points="269.38,-196.88 274.37,-187.53 264.64,-191.73 269.38,-196.88"/>
</g>
<!-- Node8 -->
<g id="node8" class="node">
<title>Node8</title>
<g id="a_node8"><a xlink:href="string_8h_source.html" target="_top" xlink:title=" ">
<polygon fill="white" stroke="black" points="136,-224.5 136,-243.5 184,-243.5 184,-224.5 136,-224.5"/>
<text text-anchor="middle" x="160" y="-231.5" font-family="Helvetica,sans-Serif" font-size="10.00">string.h</text>
</a>
</g>
</g>
<!-- Node1&#45;&gt;Node8 -->
<g id="edge8" class="edge">
<title>Node1&#45;&gt;Node8</title>
<path fill="none" stroke="midnightblue" d="M185.88,-280.08C181.59,-272.61 175.34,-261.72 170.06,-252.52"/>
<polygon fill="midnightblue" stroke="midnightblue" points="173.04,-250.68 165.02,-243.75 166.97,-254.17 173.04,-250.68"/>
</g>
<!-- Node14 -->
<g id="node14" class="node">
<title>Node14</title>
<g id="a_node14"><a xlink:href="timer__alarm_8h_source.html" target="_top" xlink:title=" ">
<polygon fill="white" stroke="black" points="246.5,-224.5 246.5,-243.5 321.5,-243.5 321.5,-224.5 246.5,-224.5"/>
<text text-anchor="middle" x="284" y="-231.5" font-family="Helvetica,sans-Serif" font-size="10.00">timer_alarm.h</text>
</a>
</g>
</g>
<!-- Node1&#45;&gt;Node14 -->
<g id="edge19" class="edge">
<title>Node1&#45;&gt;Node14</title>
<path fill="none" stroke="midnightblue" d="M205.94,-280.32C220.59,-271.82 243.13,-258.73 260.24,-248.8"/>
<polygon fill="midnightblue" stroke="midnightblue" points="262.2,-251.7 269.1,-243.65 258.69,-245.65 262.2,-251.7"/>
</g>
<!-- Node3 -->
<g id="node3" class="node">
<title>Node3</title>
<g id="a_node3"><a xlink:title=" ">
<polygon fill="white" stroke="#bfbfbf" points="33.5,-0.5 33.5,-19.5 84.5,-19.5 84.5,-0.5 33.5,-0.5"/>
<text text-anchor="middle" x="59" y="-7.5" font-family="Helvetica,sans-Serif" font-size="10.00">stddef.h</text>
</a>
</g>
</g>
<!-- Node2&#45;&gt;Node3 -->
<g id="edge2" class="edge">
<title>Node2&#45;&gt;Node3</title>
<path fill="none" stroke="midnightblue" d="M21.4,-168.22C17.94,-159.28 12.97,-144.94 11,-132 7.84,-111.18 14.56,-59.17 16,-56 21.26,-44.4 30.8,-33.94 39.56,-26.03"/>
<polygon fill="midnightblue" stroke="midnightblue" points="41.87,-28.66 47.23,-19.52 37.34,-23.32 41.87,-28.66"/>
</g>
<!-- Node4 -->
<g id="node4" class="node">
<title>Node4</title>
<g id="a_node4"><a xlink:title=" ">
<polygon fill="white" stroke="#bfbfbf" points="26.5,-112.5 26.5,-131.5 77.5,-131.5 77.5,-112.5 26.5,-112.5"/>
<text text-anchor="middle" x="52" y="-119.5" font-family="Helvetica,sans-Serif" font-size="10.00">stdarg.h</text>
</a>
</g>
</g>
<!-- Node2&#45;&gt;Node4 -->
<g id="edge3" class="edge">
<title>Node2&#45;&gt;Node4</title>
<path fill="none" stroke="midnightblue" d="M29.46,-168.08C33.15,-160.69 38.52,-149.95 43.09,-140.81"/>
<polygon fill="midnightblue" stroke="midnightblue" points="46.28,-142.26 47.62,-131.75 40.02,-139.13 46.28,-142.26"/>
</g>
<!-- Node5 -->
<g id="node5" class="node">
<title>Node5</title>
<g id="a_node5"><a xlink:href="sifdma_8h.html" target="_top" xlink:title=" ">
<polygon fill="white" stroke="black" points="25.5,-56.5 25.5,-75.5 78.5,-75.5 78.5,-56.5 25.5,-56.5"/>
<text text-anchor="middle" x="52" y="-63.5" font-family="Helvetica,sans-Serif" font-size="10.00">sifdma.h</text>
</a>
</g>
</g>
<!-- Node2&#45;&gt;Node5 -->
<g id="edge4" class="edge">
<title>Node2&#45;&gt;Node5</title>
<path fill="none" stroke="midnightblue" d="M21.55,-168.33C17.01,-155.63 10.36,-131.36 17,-112 20.72,-101.16 28.23,-90.92 35.35,-82.96"/>
<polygon fill="midnightblue" stroke="midnightblue" points="38.05,-85.19 42.44,-75.55 33,-80.35 38.05,-85.19"/>
</g>
<!-- Node6 -->
<g id="node6" class="node">
<title>Node6</title>
<g id="a_node6"><a xlink:href="tamtypes_8h.html" target="_top" xlink:title=" ">
<polygon fill="white" stroke="black" points="213,-0.5 213,-19.5 277,-19.5 277,-0.5 213,-0.5"/>
<text text-anchor="middle" x="245" y="-7.5" font-family="Helvetica,sans-Serif" font-size="10.00">tamtypes.h</text>
</a>
</g>
</g>
<!-- Node5&#45;&gt;Node6 -->
<g id="edge5" class="edge">
<title>Node5&#45;&gt;Node6</title>
<path fill="none" stroke="midnightblue" d="M78.84,-57.49C111.54,-48.34 167.11,-32.79 204.9,-22.22"/>
<polygon fill="midnightblue" stroke="midnightblue" points="205.89,-25.58 214.58,-19.51 204.01,-18.84 205.89,-25.58"/>
</g>
<!-- Node7&#45;&gt;Node6 -->
<g id="edge7" class="edge">
<title>Node7&#45;&gt;Node6</title>
<path fill="none" stroke="midnightblue" d="M285.6,-168.44C289,-148.16 295.55,-95.88 281,-56 276.99,-45 269.12,-34.66 261.77,-26.67"/>
<polygon fill="midnightblue" stroke="midnightblue" points="264.25,-24.2 254.74,-19.52 259.26,-29.11 264.25,-24.2"/>
</g>
<!-- Node9 -->
<g id="node9" class="node">
<title>Node9</title>
<g id="a_node9"><a xlink:href="sysclib_8h.html" target="_top" xlink:title=" ">
<polygon fill="white" stroke="black" points="132,-168.5 132,-187.5 186,-187.5 186,-168.5 132,-168.5"/>
<text text-anchor="middle" x="159" y="-175.5" font-family="Helvetica,sans-Serif" font-size="10.00">sysclib.h</text>
</a>
</g>
</g>
<!-- Node8&#45;&gt;Node9 -->
<g id="edge9" class="edge">
<title>Node8&#45;&gt;Node9</title>
<path fill="none" stroke="midnightblue" d="M159.83,-224.08C159.7,-217.01 159.52,-206.86 159.35,-197.99"/>
<polygon fill="midnightblue" stroke="midnightblue" points="162.85,-197.68 159.16,-187.75 155.85,-197.81 162.85,-197.68"/>
</g>
<!-- Node9&#45;&gt;Node4 -->
<g id="edge15" class="edge">
<title>Node9&#45;&gt;Node4</title>
<path fill="none" stroke="midnightblue" d="M141.81,-168.32C124.65,-159.66 98.05,-146.24 78.25,-136.25"/>
<polygon fill="midnightblue" stroke="midnightblue" points="79.65,-133.04 69.15,-131.65 76.5,-139.28 79.65,-133.04"/>
</g>
<!-- Node10 -->
<g id="node10" class="node">
<title>Node10</title>
<g id="a_node10"><a xlink:href="types_8h_source.html" target="_top" xlink:title=" ">
<polygon fill="white" stroke="black" points="111.5,-56.5 111.5,-75.5 158.5,-75.5 158.5,-56.5 111.5,-56.5"/>
<text text-anchor="middle" x="135" y="-63.5" font-family="Helvetica,sans-Serif" font-size="10.00">types.h</text>
</a>
</g>
</g>
<!-- Node9&#45;&gt;Node10 -->
<g id="edge10" class="edge">
<title>Node9&#45;&gt;Node10</title>
<path fill="none" stroke="midnightblue" d="M157.12,-168.37C153.24,-150.62 144.31,-109.67 139.06,-85.6"/>
<polygon fill="midnightblue" stroke="midnightblue" points="142.43,-84.62 136.87,-75.59 135.59,-86.11 142.43,-84.62"/>
</g>
<!-- Node11 -->
<g id="node11" class="node">
<title>Node11</title>
<g id="a_node11"><a xlink:href="irx_8h.html" target="_top" xlink:title=" ">
<polygon fill="white" stroke="black" points="96,-112.5 96,-131.5 130,-131.5 130,-112.5 96,-112.5"/>
<text text-anchor="middle" x="113" y="-119.5" font-family="Helvetica,sans-Serif" font-size="10.00">irx.h</text>
</a>
</g>
</g>
<!-- Node9&#45;&gt;Node11 -->
<g id="edge13" class="edge">
<title>Node9&#45;&gt;Node11</title>
<path fill="none" stroke="midnightblue" d="M151.4,-168.08C144.77,-160.3 134.98,-148.8 126.94,-139.37"/>
<polygon fill="midnightblue" stroke="midnightblue" points="129.6,-137.09 120.45,-131.75 124.27,-141.63 129.6,-137.09"/>
</g>
<!-- Node12 -->
<g id="node12" class="node">
<title>Node12</title>
<g id="a_node12"><a xlink:href="setjmp_8h.html" target="_top" xlink:title=" ">
<polygon fill="white" stroke="black" points="218.5,-56.5 218.5,-75.5 271.5,-75.5 271.5,-56.5 218.5,-56.5"/>
<text text-anchor="middle" x="245" y="-63.5" font-family="Helvetica,sans-Serif" font-size="10.00">setjmp.h</text>
</a>
</g>
</g>
<!-- Node9&#45;&gt;Node12 -->
<g id="edge16" class="edge">
<title>Node9&#45;&gt;Node12</title>
<path fill="none" stroke="midnightblue" d="M186.37,-170.19C205.79,-163.79 230.54,-152.11 243,-132 251.54,-118.22 251.13,-99.44 249.12,-85.62"/>
<polygon fill="midnightblue" stroke="midnightblue" points="252.56,-84.98 247.31,-75.78 245.68,-86.24 252.56,-84.98"/>
</g>
<!-- Node13 -->
<g id="node13" class="node">
<title>Node13</title>
<g id="a_node13"><a xlink:href="ctype_8h.html" target="_top" xlink:title=" ">
<polygon fill="white" stroke="black" points="186.5,-112.5 186.5,-131.5 233.5,-131.5 233.5,-112.5 186.5,-112.5"/>
<text text-anchor="middle" x="210" y="-119.5" font-family="Helvetica,sans-Serif" font-size="10.00">ctype.h</text>
</a>
</g>
</g>
<!-- Node9&#45;&gt;Node13 -->
<g id="edge18" class="edge">
<title>Node9&#45;&gt;Node13</title>
<path fill="none" stroke="midnightblue" d="M167.42,-168.08C174.85,-160.22 185.85,-148.57 194.81,-139.08"/>
<polygon fill="midnightblue" stroke="midnightblue" points="197.41,-141.42 201.74,-131.75 192.32,-136.62 197.41,-141.42"/>
</g>
<!-- Node10&#45;&gt;Node3 -->
<g id="edge11" class="edge">
<title>Node10&#45;&gt;Node3</title>
<path fill="none" stroke="midnightblue" d="M122.79,-56.32C111.22,-48.11 93.62,-35.6 79.84,-25.81"/>
<polygon fill="midnightblue" stroke="midnightblue" points="81.61,-22.77 71.43,-19.83 77.56,-28.48 81.61,-22.77"/>
</g>
<!-- Node10&#45;&gt;Node6 -->
<g id="edge12" class="edge">
<title>Node10&#45;&gt;Node6</title>
<path fill="none" stroke="midnightblue" d="M152.67,-56.32C170.39,-47.62 197.9,-34.12 218.29,-24.11"/>
<polygon fill="midnightblue" stroke="midnightblue" points="219.94,-27.2 227.37,-19.65 216.85,-20.92 219.94,-27.2"/>
</g>
<!-- Node11&#45;&gt;Node10 -->
<g id="edge14" class="edge">
<title>Node11&#45;&gt;Node10</title>
<path fill="none" stroke="midnightblue" d="M116.63,-112.08C119.61,-104.77 123.93,-94.18 127.62,-85.1"/>
<polygon fill="midnightblue" stroke="midnightblue" points="130.9,-86.33 131.43,-75.75 124.42,-83.69 130.9,-86.33"/>
</g>
<!-- Node12&#45;&gt;Node6 -->
<g id="edge17" class="edge">
<title>Node12&#45;&gt;Node6</title>
<path fill="none" stroke="midnightblue" d="M245,-56.08C245,-49.01 245,-38.86 245,-29.99"/>
<polygon fill="midnightblue" stroke="midnightblue" points="248.5,-29.75 245,-19.75 241.5,-29.75 248.5,-29.75"/>
</g>
<!-- Node14&#45;&gt;Node6 -->
<g id="edge20" class="edge">
<title>Node14&#45;&gt;Node6</title>
<path fill="none" stroke="midnightblue" d="M292.75,-224.29C300.56,-215.84 311.45,-202.25 316,-188 327.76,-151.18 336.96,-126.99 297,-56 290.14,-43.81 278.66,-33.35 268.23,-25.59"/>
<polygon fill="midnightblue" stroke="midnightblue" points="270.05,-22.59 259.84,-19.73 266.04,-28.33 270.05,-22.59"/>
</g>
<!-- Node14&#45;&gt;Node7 -->
<g id="edge21" class="edge">
<title>Node14&#45;&gt;Node7</title>
<path fill="none" stroke="midnightblue" d="M284,-224.08C284,-217.01 284,-206.86 284,-197.99"/>
<polygon fill="midnightblue" stroke="midnightblue" points="287.5,-197.75 284,-187.75 280.5,-197.75 287.5,-197.75"/>
</g>
</g>
</svg>
