<?xml version="1.0" encoding="UTF-8" standalone="no"?>
<!DOCTYPE svg PUBLIC "-//W3C//DTD SVG 1.1//EN"
 "http://www.w3.org/Graphics/SVG/1.1/DTD/svg11.dtd">
<!-- Generated by graphviz version 3.0.0 (20220413.0242)
 -->
<!-- Title: iop/kernel/include/ioman.h Pages: 1 -->
<svg width="4274pt" height="173pt"
 viewBox="0.00 0.00 4274.00 173.00" xmlns="http://www.w3.org/2000/svg" xmlns:xlink="http://www.w3.org/1999/xlink">
<g id="graph0" class="graph" transform="scale(1 1) rotate(0) translate(4 169)">
<title>iop/kernel/include/ioman.h</title>
<polygon fill="white" stroke="transparent" points="-4,4 -4,-169 4270,-169 4270,4 -4,4"/>
<!-- Node1 -->
<g id="node1" class="node">
<title>Node1</title>
<g id="a_node1"><a xlink:title=" ">
<polygon fill="#bfbfbf" stroke="black" points="2010.5,-134.5 2010.5,-164.5 2102.5,-164.5 2102.5,-134.5 2010.5,-134.5"/>
<text text-anchor="start" x="2018.5" y="-152.5" font-family="Helvetica,sans-Serif" font-size="10.00">iop/kernel/include</text>
<text text-anchor="middle" x="2056.5" y="-141.5" font-family="Helvetica,sans-Serif" font-size="10.00">/ioman.h</text>
</a>
</g>
</g>
<!-- Node2 -->
<g id="node2" class="node">
<title>Node2</title>
<g id="a_node2"><a xlink:href="common_2sbus_2src_2irx__imports_8h_source.html" target="_top" xlink:title=" ">
<polygon fill="white" stroke="black" points="0,-67.5 0,-97.5 107,-97.5 107,-67.5 0,-67.5"/>
<text text-anchor="start" x="8" y="-85.5" font-family="Helvetica,sans-Serif" font-size="10.00">common/sbus/src/irx</text>
<text text-anchor="middle" x="53.5" y="-74.5" font-family="Helvetica,sans-Serif" font-size="10.00">_imports.h</text>
</a>
</g>
</g>
<!-- Node1&#45;&gt;Node2 -->
<g id="edge1" class="edge">
<title>Node1&#45;&gt;Node2</title>
<path fill="none" stroke="midnightblue" d="M2000.06,-148.58C1721.8,-148.75 494.08,-146.68 115.5,-98 112.76,-97.65 109.96,-97.23 107.15,-96.75"/>
<polygon fill="midnightblue" stroke="midnightblue" points="2000.33,-152.08 2010.32,-148.57 2000.32,-145.08 2000.33,-152.08"/>
</g>
<!-- Node3 -->
<g id="node3" class="node">
<title>Node3</title>
<g id="a_node3"><a xlink:href="imgdrv_8c.html" target="_top" xlink:title=" ">
<polygon fill="white" stroke="black" points="125,-67.5 125,-97.5 244,-97.5 244,-67.5 125,-67.5"/>
<text text-anchor="start" x="133" y="-85.5" font-family="Helvetica,sans-Serif" font-size="10.00">ee/iopreboot/src/imgdrv</text>
<text text-anchor="middle" x="184.5" y="-74.5" font-family="Helvetica,sans-Serif" font-size="10.00">/src/imgdrv.c</text>
</a>
</g>
</g>
<!-- Node1&#45;&gt;Node3 -->
<g id="edge2" class="edge">
<title>Node1&#45;&gt;Node3</title>
<path fill="none" stroke="midnightblue" d="M2000.24,-148.3C1734.46,-147.17 603.05,-139.93 252.5,-98 249.74,-97.67 246.93,-97.28 244.1,-96.85"/>
<polygon fill="midnightblue" stroke="midnightblue" points="2000.41,-151.81 2010.42,-148.35 2000.44,-144.81 2000.41,-151.81"/>
</g>
<!-- Node4 -->
<g id="node4" class="node">
<title>Node4</title>
<g id="a_node4"><a xlink:href="ee_2iopreboot_2src_2imgdrv_2src_2irx__imports_8h_source.html" target="_top" xlink:title=" ">
<polygon fill="white" stroke="black" points="262,-67.5 262,-97.5 381,-97.5 381,-67.5 262,-67.5"/>
<text text-anchor="start" x="270" y="-85.5" font-family="Helvetica,sans-Serif" font-size="10.00">ee/iopreboot/src/imgdrv</text>
<text text-anchor="middle" x="321.5" y="-74.5" font-family="Helvetica,sans-Serif" font-size="10.00">/src/irx_imports.h</text>
</a>
</g>
</g>
<!-- Node1&#45;&gt;Node4 -->
<g id="edge3" class="edge">
<title>Node1&#45;&gt;Node4</title>
<path fill="none" stroke="midnightblue" d="M2000.07,-148.13C1746.67,-146.26 712.34,-136.39 390.5,-98 387.46,-97.64 384.36,-97.21 381.23,-96.73"/>
<polygon fill="midnightblue" stroke="midnightblue" points="2000.12,-151.63 2010.15,-148.2 2000.18,-144.63 2000.12,-151.63"/>
</g>
<!-- Node5 -->
<g id="node5" class="node">
<title>Node5</title>
<g id="a_node5"><a xlink:href="iop_2cdvd_2cdfs_2src_2irx__imports_8h_source.html" target="_top" xlink:title=" ">
<polygon fill="white" stroke="black" points="399.5,-67.5 399.5,-97.5 503.5,-97.5 503.5,-67.5 399.5,-67.5"/>
<text text-anchor="start" x="407.5" y="-85.5" font-family="Helvetica,sans-Serif" font-size="10.00">iop/cdvd/cdfs/src/irx</text>
<text text-anchor="middle" x="451.5" y="-74.5" font-family="Helvetica,sans-Serif" font-size="10.00">_imports.h</text>
</a>
</g>
</g>
<!-- Node1&#45;&gt;Node5 -->
<g id="edge4" class="edge">
<title>Node1&#45;&gt;Node5</title>
<path fill="none" stroke="midnightblue" d="M1999.91,-148.17C1757.86,-146.52 808.49,-137.61 512.5,-98 509.59,-97.61 506.61,-97.14 503.61,-96.61"/>
<polygon fill="midnightblue" stroke="midnightblue" points="2000.21,-151.67 2010.23,-148.24 2000.26,-144.67 2000.21,-151.67"/>
</g>
<!-- Node6 -->
<g id="node6" class="node">
<title>Node6</title>
<g id="a_node6"><a xlink:href="iop_2cdvd_2cdfs_2src_2main_8c_source.html" target="_top" xlink:title=" ">
<polygon fill="white" stroke="black" points="522,-73 522,-92 645,-92 645,-73 522,-73"/>
<text text-anchor="middle" x="583.5" y="-80" font-family="Helvetica,sans-Serif" font-size="10.00">iop/cdvd/cdfs/src/main.c</text>
</a>
</g>
</g>
<!-- Node1&#45;&gt;Node6 -->
<g id="edge5" class="edge">
<title>Node1&#45;&gt;Node6</title>
<path fill="none" stroke="midnightblue" d="M2000.35,-147.72C1773.2,-144.37 921.86,-129.89 654.5,-98 643.01,-96.63 630.61,-94.37 619.43,-92.04"/>
<polygon fill="midnightblue" stroke="midnightblue" points="2000.32,-151.22 2010.37,-147.87 2000.43,-144.22 2000.32,-151.22"/>
</g>
<!-- Node7 -->
<g id="node7" class="node">
<title>Node7</title>
<g id="a_node7"><a xlink:href="iop_2debug_2iop__sbusdbg_2src_2irx__imports_8h_source.html" target="_top" xlink:title=" ">
<polygon fill="white" stroke="black" points="663.5,-67.5 663.5,-97.5 779.5,-97.5 779.5,-67.5 663.5,-67.5"/>
<text text-anchor="start" x="671.5" y="-85.5" font-family="Helvetica,sans-Serif" font-size="10.00">iop/debug/iop_sbusdbg</text>
<text text-anchor="middle" x="721.5" y="-74.5" font-family="Helvetica,sans-Serif" font-size="10.00">/src/irx_imports.h</text>
</a>
</g>
</g>
<!-- Node1&#45;&gt;Node7 -->
<g id="edge6" class="edge">
<title>Node1&#45;&gt;Node7</title>
<path fill="none" stroke="midnightblue" d="M2000.16,-147.56C1786.75,-143.78 1027.99,-128.45 788.5,-98 785.67,-97.64 782.78,-97.22 779.86,-96.75"/>
<polygon fill="midnightblue" stroke="midnightblue" points="2000.14,-151.06 2010.2,-147.73 2000.27,-144.06 2000.14,-151.06"/>
</g>
<!-- Node8 -->
<g id="node8" class="node">
<title>Node8</title>
<g id="a_node8"><a xlink:href="sbus__dbg_8c_source.html" target="_top" xlink:title=" ">
<polygon fill="white" stroke="black" points="797.5,-67.5 797.5,-97.5 913.5,-97.5 913.5,-67.5 797.5,-67.5"/>
<text text-anchor="start" x="805.5" y="-85.5" font-family="Helvetica,sans-Serif" font-size="10.00">iop/debug/iop_sbusdbg</text>
<text text-anchor="middle" x="855.5" y="-74.5" font-family="Helvetica,sans-Serif" font-size="10.00">/src/sbus_dbg.c</text>
</a>
</g>
</g>
<!-- Node1&#45;&gt;Node8 -->
<g id="edge7" class="edge">
<title>Node1&#45;&gt;Node8</title>
<path fill="none" stroke="midnightblue" d="M1999.97,-147.25C1801.11,-142.63 1134.42,-125.45 922.5,-98 919.55,-97.62 916.54,-97.17 913.5,-96.68"/>
<polygon fill="midnightblue" stroke="midnightblue" points="2000.11,-150.75 2010.19,-147.48 2000.27,-143.75 2000.11,-150.75"/>
</g>
<!-- Node9 -->
<g id="node9" class="node">
<title>Node9</title>
<g id="a_node9"><a xlink:href="sbus__tty_8c_source.html" target="_top" xlink:title=" ">
<polygon fill="white" stroke="black" points="931.5,-67.5 931.5,-97.5 1047.5,-97.5 1047.5,-67.5 931.5,-67.5"/>
<text text-anchor="start" x="939.5" y="-85.5" font-family="Helvetica,sans-Serif" font-size="10.00">iop/debug/iop_sbusdbg</text>
<text text-anchor="middle" x="989.5" y="-74.5" font-family="Helvetica,sans-Serif" font-size="10.00">/src/sbus_tty.c</text>
</a>
</g>
</g>
<!-- Node1&#45;&gt;Node9 -->
<g id="edge8" class="edge">
<title>Node1&#45;&gt;Node9</title>
<path fill="none" stroke="midnightblue" d="M2000.35,-148.85C1847.88,-149.13 1413.62,-145.34 1056.5,-98 1053.55,-97.61 1050.54,-97.16 1047.5,-96.66"/>
<polygon fill="midnightblue" stroke="midnightblue" points="2000.42,-152.35 2010.41,-148.83 2000.4,-145.35 2000.42,-152.35"/>
</g>
<!-- Node10 -->
<g id="node10" class="node">
<title>Node10</title>
<g id="a_node10"><a xlink:href="iop_2debug_2iopdebug_2src_2irx__imports_8h_source.html" target="_top" xlink:title=" ">
<polygon fill="white" stroke="black" points="1066,-67.5 1066,-97.5 1167,-97.5 1167,-67.5 1066,-67.5"/>
<text text-anchor="start" x="1074" y="-85.5" font-family="Helvetica,sans-Serif" font-size="10.00">iop/debug/iopdebug</text>
<text text-anchor="middle" x="1116.5" y="-74.5" font-family="Helvetica,sans-Serif" font-size="10.00">/src/irx_imports.h</text>
</a>
</g>
</g>
<!-- Node1&#45;&gt;Node10 -->
<g id="edge9" class="edge">
<title>Node1&#45;&gt;Node10</title>
<path fill="none" stroke="midnightblue" d="M2000.26,-148.84C1860.12,-148.93 1484.41,-144.41 1175.5,-98 1172.79,-97.59 1170.02,-97.12 1167.23,-96.6"/>
<polygon fill="midnightblue" stroke="midnightblue" points="2000.34,-152.34 2010.34,-148.83 2000.33,-145.34 2000.34,-152.34"/>
</g>
<!-- Node11 -->
<g id="node11" class="node">
<title>Node11</title>
<g id="a_node11"><a xlink:href="iop_2dev9_2dev9_2src_2irx__imports_8h_source.html" target="_top" xlink:title=" ">
<polygon fill="white" stroke="black" points="1185,-67.5 1185,-97.5 1292,-97.5 1292,-67.5 1185,-67.5"/>
<text text-anchor="start" x="1193" y="-85.5" font-family="Helvetica,sans-Serif" font-size="10.00">iop/dev9/dev9/src/irx</text>
<text text-anchor="middle" x="1238.5" y="-74.5" font-family="Helvetica,sans-Serif" font-size="10.00">_imports.h</text>
</a>
</g>
</g>
<!-- Node1&#45;&gt;Node11 -->
<g id="edge10" class="edge">
<title>Node1&#45;&gt;Node11</title>
<path fill="none" stroke="midnightblue" d="M2000.01,-147.87C1873.86,-145.77 1559.91,-136.73 1300.5,-98 1297.77,-97.59 1294.98,-97.13 1292.17,-96.62"/>
<polygon fill="midnightblue" stroke="midnightblue" points="2000.14,-151.37 2010.2,-148.03 2000.25,-144.37 2000.14,-151.37"/>
</g>
<!-- Node12 -->
<g id="node12" class="node">
<title>Node12</title>
<g id="a_node12"><a xlink:href="iop_2fs_2bdmfs__fatfs_2src_2irx__imports_8h_source.html" target="_top" xlink:title=" ">
<polygon fill="white" stroke="black" points="1310,-67.5 1310,-97.5 1405,-97.5 1405,-67.5 1310,-67.5"/>
<text text-anchor="start" x="1318" y="-85.5" font-family="Helvetica,sans-Serif" font-size="10.00">iop/fs/bdmfs_fatfs</text>
<text text-anchor="middle" x="1357.5" y="-74.5" font-family="Helvetica,sans-Serif" font-size="10.00">/src/irx_imports.h</text>
</a>
</g>
</g>
<!-- Node1&#45;&gt;Node12 -->
<g id="edge11" class="edge">
<title>Node1&#45;&gt;Node12</title>
<path fill="none" stroke="midnightblue" d="M2000.07,-147.38C1887.69,-144.42 1628.23,-133.95 1413.5,-98 1410.73,-97.54 1407.89,-97 1405.04,-96.41"/>
<polygon fill="midnightblue" stroke="midnightblue" points="2000.08,-150.88 2010.16,-147.64 2000.25,-143.88 2000.08,-150.88"/>
</g>
<!-- Node13 -->
<g id="node13" class="node">
<title>Node13</title>
<g id="a_node13"><a xlink:href="iop_2fs_2bdmfs__vfat_2src_2irx__imports_8h_source.html" target="_top" xlink:title=" ">
<polygon fill="white" stroke="black" points="1423,-67.5 1423,-97.5 1532,-97.5 1532,-67.5 1423,-67.5"/>
<text text-anchor="start" x="1431" y="-85.5" font-family="Helvetica,sans-Serif" font-size="10.00">iop/fs/bdmfs_vfat/src</text>
<text text-anchor="middle" x="1477.5" y="-74.5" font-family="Helvetica,sans-Serif" font-size="10.00">/irx_imports.h</text>
</a>
</g>
</g>
<!-- Node1&#45;&gt;Node13 -->
<g id="edge12" class="edge">
<title>Node1&#45;&gt;Node13</title>
<path fill="none" stroke="midnightblue" d="M2000.05,-144.92C1905.73,-138.49 1710.3,-123.24 1546.5,-98 1541.78,-97.27 1536.9,-96.43 1532.01,-95.53"/>
<polygon fill="midnightblue" stroke="midnightblue" points="2000.01,-148.42 2010.23,-145.61 2000.48,-141.44 2000.01,-148.42"/>
</g>
<!-- Node14 -->
<g id="node14" class="node">
<title>Node14</title>
<g id="a_node14"><a xlink:href="ps2netfs_8c.html" target="_top" xlink:title=" ">
<polygon fill="white" stroke="black" points="1051.5,-6 1051.5,-25 1181.5,-25 1181.5,-6 1051.5,-6"/>
<text text-anchor="middle" x="1116.5" y="-13" font-family="Helvetica,sans-Serif" font-size="10.00">iop/fs/netfs/src/ps2netfs.c</text>
</a>
</g>
</g>
<!-- Node1&#45;&gt;Node14 -->
<g id="edge13" class="edge">
<title>Node1&#45;&gt;Node14</title>
<path fill="none" stroke="midnightblue" d="M2000.08,-146.47C1890.8,-141.89 1654.44,-128.68 1579.5,-98 1559.01,-89.61 1561,-75.36 1540.5,-67 1395.69,-7.97 1345.17,-54.06 1190.5,-31 1179.49,-29.36 1167.64,-27.21 1156.71,-25.07"/>
<polygon fill="midnightblue" stroke="midnightblue" points="2000.11,-149.97 2010.25,-146.88 2000.4,-142.98 2000.11,-149.97"/>
</g>
<!-- Node15 -->
<g id="node15" class="node">
<title>Node15</title>
<g id="a_node15"><a xlink:href="iop_2i_link_2_i_e_e_e1394__bd_2src_2irx__imports_8h_source.html" target="_top" xlink:title=" ">
<polygon fill="white" stroke="black" points="1813,-67.5 1813,-97.5 1920,-97.5 1920,-67.5 1813,-67.5"/>
<text text-anchor="start" x="1821" y="-85.5" font-family="Helvetica,sans-Serif" font-size="10.00">iop/iLink/IEEE1394</text>
<text text-anchor="middle" x="1866.5" y="-74.5" font-family="Helvetica,sans-Serif" font-size="10.00">_bd/src/irx_imports.h</text>
</a>
</g>
</g>
<!-- Node1&#45;&gt;Node15 -->
<g id="edge14" class="edge">
<title>Node1&#45;&gt;Node15</title>
<path fill="none" stroke="midnightblue" d="M2005.61,-131.09C1974.94,-120.6 1936.39,-107.41 1907.65,-97.58"/>
<polygon fill="midnightblue" stroke="midnightblue" points="2004.68,-134.47 2015.27,-134.4 2006.94,-127.85 2004.68,-134.47"/>
</g>
<!-- Node16 -->
<g id="node16" class="node">
<title>Node16</title>
<g id="a_node16"><a xlink:href="iop_2i_link_2_i_e_e_e1394__disk_2src_2irx__imports_8h_source.html" target="_top" xlink:title=" ">
<polygon fill="white" stroke="black" points="1938.5,-67.5 1938.5,-97.5 2052.5,-97.5 2052.5,-67.5 1938.5,-67.5"/>
<text text-anchor="start" x="1946.5" y="-85.5" font-family="Helvetica,sans-Serif" font-size="10.00">iop/iLink/IEEE1394</text>
<text text-anchor="middle" x="1995.5" y="-74.5" font-family="Helvetica,sans-Serif" font-size="10.00">_disk/src/irx_imports.h</text>
</a>
</g>
</g>
<!-- Node1&#45;&gt;Node16 -->
<g id="edge15" class="edge">
<title>Node1&#45;&gt;Node16</title>
<path fill="none" stroke="midnightblue" d="M2036.35,-127.02C2027.26,-117.34 2016.78,-106.17 2008.71,-97.58"/>
<polygon fill="midnightblue" stroke="midnightblue" points="2033.87,-129.5 2043.26,-134.4 2038.97,-124.71 2033.87,-129.5"/>
</g>
<!-- Node17 -->
<g id="node17" class="node">
<title>Node17</title>
<g id="a_node17"><a xlink:href="i_link_8c_source.html" target="_top" xlink:title=" ">
<polygon fill="white" stroke="black" points="2070.5,-67.5 2070.5,-97.5 2166.5,-97.5 2166.5,-67.5 2070.5,-67.5"/>
<text text-anchor="start" x="2078.5" y="-85.5" font-family="Helvetica,sans-Serif" font-size="10.00">iop/iLink/iLinkman</text>
<text text-anchor="middle" x="2118.5" y="-74.5" font-family="Helvetica,sans-Serif" font-size="10.00">/src/iLink.c</text>
</a>
</g>
</g>
<!-- Node1&#45;&gt;Node17 -->
<g id="edge16" class="edge">
<title>Node1&#45;&gt;Node17</title>
<path fill="none" stroke="midnightblue" d="M2076.98,-127.02C2086.22,-117.34 2096.87,-106.17 2105.07,-97.58"/>
<polygon fill="midnightblue" stroke="midnightblue" points="2074.32,-124.74 2069.95,-134.4 2079.39,-129.58 2074.32,-124.74"/>
</g>
<!-- Node18 -->
<g id="node18" class="node">
<title>Node18</title>
<g id="a_node18"><a xlink:href="iop_2i_link_2i_linkman_2src_2irx__imports_8h_source.html" target="_top" xlink:title=" ">
<polygon fill="white" stroke="black" points="2184.5,-67.5 2184.5,-97.5 2280.5,-97.5 2280.5,-67.5 2184.5,-67.5"/>
<text text-anchor="start" x="2192.5" y="-85.5" font-family="Helvetica,sans-Serif" font-size="10.00">iop/iLink/iLinkman</text>
<text text-anchor="middle" x="2232.5" y="-74.5" font-family="Helvetica,sans-Serif" font-size="10.00">/src/irx_imports.h</text>
</a>
</g>
</g>
<!-- Node1&#45;&gt;Node18 -->
<g id="edge17" class="edge">
<title>Node1&#45;&gt;Node18</title>
<path fill="none" stroke="midnightblue" d="M2104.38,-130.82C2132.67,-120.37 2167.99,-107.32 2194.39,-97.58"/>
<polygon fill="midnightblue" stroke="midnightblue" points="2102.86,-127.65 2094.69,-134.4 2105.28,-134.21 2102.86,-127.65"/>
</g>
<!-- Node19 -->
<g id="node19" class="node">
<title>Node19</title>
<g id="a_node19"><a xlink:href="iop_2memorycard_2mcman_2src_2irx__imports_8h_source.html" target="_top" xlink:title=" ">
<polygon fill="white" stroke="black" points="2299,-67.5 2299,-97.5 2420,-97.5 2420,-67.5 2299,-67.5"/>
<text text-anchor="start" x="2307" y="-85.5" font-family="Helvetica,sans-Serif" font-size="10.00">iop/memorycard/mcman</text>
<text text-anchor="middle" x="2359.5" y="-74.5" font-family="Helvetica,sans-Serif" font-size="10.00">/src/irx_imports.h</text>
</a>
</g>
</g>
<!-- Node1&#45;&gt;Node19 -->
<g id="edge18" class="edge">
<title>Node1&#45;&gt;Node19</title>
<path fill="none" stroke="midnightblue" d="M2112.41,-136.51C2165.31,-125.16 2244.51,-108.17 2298.9,-96.5"/>
<polygon fill="midnightblue" stroke="midnightblue" points="2111.56,-133.11 2102.52,-138.63 2113.03,-139.95 2111.56,-133.11"/>
</g>
<!-- Node20 -->
<g id="node20" class="node">
<title>Node20</title>
<g id="a_node20"><a xlink:href="mcman-internal_8h_source.html" target="_top" xlink:title=" ">
<polygon fill="white" stroke="black" points="2438,-67.5 2438,-97.5 2559,-97.5 2559,-67.5 2438,-67.5"/>
<text text-anchor="start" x="2446" y="-85.5" font-family="Helvetica,sans-Serif" font-size="10.00">iop/memorycard/mcman</text>
<text text-anchor="middle" x="2498.5" y="-74.5" font-family="Helvetica,sans-Serif" font-size="10.00">/src/mcman&#45;internal.h</text>
</a>
</g>
</g>
<!-- Node1&#45;&gt;Node20 -->
<g id="edge19" class="edge">
<title>Node1&#45;&gt;Node20</title>
<path fill="none" stroke="midnightblue" d="M2112.98,-142.15C2186.21,-133.61 2317.79,-117.27 2429.5,-98 2432.27,-97.52 2435.11,-97.01 2437.97,-96.48"/>
<polygon fill="midnightblue" stroke="midnightblue" points="2112.13,-138.72 2102.6,-143.35 2112.94,-145.68 2112.13,-138.72"/>
</g>
<!-- Node26 -->
<g id="node26" class="node">
<title>Node26</title>
<g id="a_node26"><a xlink:href="iop_2network_2smbman_2src_2irx__imports_8h_source.html" target="_top" xlink:title=" ">
<polygon fill="white" stroke="black" points="2577,-67.5 2577,-97.5 2684,-97.5 2684,-67.5 2577,-67.5"/>
<text text-anchor="start" x="2585" y="-85.5" font-family="Helvetica,sans-Serif" font-size="10.00">iop/network/smbman</text>
<text text-anchor="middle" x="2630.5" y="-74.5" font-family="Helvetica,sans-Serif" font-size="10.00">/src/irx_imports.h</text>
</a>
</g>
</g>
<!-- Node1&#45;&gt;Node26 -->
<g id="edge25" class="edge">
<title>Node1&#45;&gt;Node26</title>
<path fill="none" stroke="midnightblue" d="M2112.87,-145.37C2207.51,-139.57 2404.15,-125.2 2568.5,-98 2571.23,-97.55 2574.01,-97.05 2576.82,-96.51"/>
<polygon fill="midnightblue" stroke="midnightblue" points="2112.43,-141.89 2102.66,-145.99 2112.85,-148.88 2112.43,-141.89"/>
</g>
<!-- Node27 -->
<g id="node27" class="node">
<title>Node27</title>
<g id="a_node27"><a xlink:href="smb_8c_source.html" target="_top" xlink:title=" ">
<polygon fill="white" stroke="black" points="2702,-67.5 2702,-97.5 2809,-97.5 2809,-67.5 2702,-67.5"/>
<text text-anchor="start" x="2710" y="-85.5" font-family="Helvetica,sans-Serif" font-size="10.00">iop/network/smbman</text>
<text text-anchor="middle" x="2755.5" y="-74.5" font-family="Helvetica,sans-Serif" font-size="10.00">/src/smb.c</text>
</a>
</g>
</g>
<!-- Node1&#45;&gt;Node27 -->
<g id="edge26" class="edge">
<title>Node1&#45;&gt;Node27</title>
<path fill="none" stroke="midnightblue" d="M2112.75,-146.88C2224.18,-143.06 2480.64,-131.14 2693.5,-98 2696.23,-97.57 2699.02,-97.09 2701.83,-96.57"/>
<polygon fill="midnightblue" stroke="midnightblue" points="2112.62,-143.39 2102.74,-147.22 2112.85,-150.38 2112.62,-143.39"/>
</g>
<!-- Node28 -->
<g id="node28" class="node">
<title>Node28</title>
<g id="a_node28"><a xlink:href="iop_2network_2udptty_2src_2irx__imports_8h_source.html" target="_top" xlink:title=" ">
<polygon fill="white" stroke="black" points="2827.5,-67.5 2827.5,-97.5 2923.5,-97.5 2923.5,-67.5 2827.5,-67.5"/>
<text text-anchor="start" x="2835.5" y="-85.5" font-family="Helvetica,sans-Serif" font-size="10.00">iop/network/udptty</text>
<text text-anchor="middle" x="2875.5" y="-74.5" font-family="Helvetica,sans-Serif" font-size="10.00">/src/irx_imports.h</text>
</a>
</g>
</g>
<!-- Node1&#45;&gt;Node28 -->
<g id="edge27" class="edge">
<title>Node1&#45;&gt;Node28</title>
<path fill="none" stroke="midnightblue" d="M2113.03,-148.28C2239.99,-147.01 2557.1,-139.55 2818.5,-98 2821.42,-97.54 2824.42,-96.99 2827.43,-96.39"/>
<polygon fill="midnightblue" stroke="midnightblue" points="2112.75,-144.78 2102.78,-148.37 2112.81,-151.78 2112.75,-144.78"/>
</g>
<!-- Node29 -->
<g id="node29" class="node">
<title>Node29</title>
<g id="a_node29"><a xlink:href="udptty_8c_source.html" target="_top" xlink:title=" ">
<polygon fill="white" stroke="black" points="2941.5,-67.5 2941.5,-97.5 3037.5,-97.5 3037.5,-67.5 2941.5,-67.5"/>
<text text-anchor="start" x="2949.5" y="-85.5" font-family="Helvetica,sans-Serif" font-size="10.00">iop/network/udptty</text>
<text text-anchor="middle" x="2989.5" y="-74.5" font-family="Helvetica,sans-Serif" font-size="10.00">/src/udptty.c</text>
</a>
</g>
</g>
<!-- Node1&#45;&gt;Node29 -->
<g id="edge28" class="edge">
<title>Node1&#45;&gt;Node29</title>
<path fill="none" stroke="midnightblue" d="M2112.94,-148.97C2252.73,-149.34 2625.9,-145.39 2932.5,-98 2935.43,-97.55 2938.42,-97.01 2941.43,-96.42"/>
<polygon fill="midnightblue" stroke="midnightblue" points="2112.9,-145.47 2102.89,-148.94 2112.88,-152.47 2112.9,-145.47"/>
</g>
<!-- Node30 -->
<g id="node30" class="node">
<title>Node30</title>
<g id="a_node30"><a xlink:href="adpcm-stream_8c_source.html" target="_top" xlink:title=" ">
<polygon fill="white" stroke="black" points="3055.5,-67.5 3055.5,-97.5 3165.5,-97.5 3165.5,-67.5 3055.5,-67.5"/>
<text text-anchor="start" x="3063.5" y="-85.5" font-family="Helvetica,sans-Serif" font-size="10.00">iop/sound/ps2snd/src</text>
<text text-anchor="middle" x="3110.5" y="-74.5" font-family="Helvetica,sans-Serif" font-size="10.00">/adpcm&#45;stream.c</text>
</a>
</g>
</g>
<!-- Node1&#45;&gt;Node30 -->
<g id="edge29" class="edge">
<title>Node1&#45;&gt;Node30</title>
<path fill="none" stroke="midnightblue" d="M2113.11,-149C2265,-149.62 2693.95,-146.56 3046.5,-98 3049.43,-97.6 3052.43,-97.12 3055.45,-96.6"/>
<polygon fill="midnightblue" stroke="midnightblue" points="2112.67,-145.5 2102.65,-148.95 2112.64,-152.5 2112.67,-145.5"/>
</g>
<!-- Node31 -->
<g id="node31" class="node">
<title>Node31</title>
<g id="a_node31"><a xlink:href="iop_2sound_2ps2snd_2src_2irx__imports_8h_source.html" target="_top" xlink:title=" ">
<polygon fill="white" stroke="black" points="3183.5,-67.5 3183.5,-97.5 3293.5,-97.5 3293.5,-67.5 3183.5,-67.5"/>
<text text-anchor="start" x="3191.5" y="-85.5" font-family="Helvetica,sans-Serif" font-size="10.00">iop/sound/ps2snd/src</text>
<text text-anchor="middle" x="3238.5" y="-74.5" font-family="Helvetica,sans-Serif" font-size="10.00">/irx_imports.h</text>
</a>
</g>
</g>
<!-- Node1&#45;&gt;Node31 -->
<g id="edge30" class="edge">
<title>Node1&#45;&gt;Node31</title>
<path fill="none" stroke="midnightblue" d="M2112.91,-147.28C2309.82,-142.81 2965.94,-126.11 3174.5,-98 3177.44,-97.6 3180.43,-97.14 3183.46,-96.62"/>
<polygon fill="midnightblue" stroke="midnightblue" points="2112.71,-143.78 2102.79,-147.51 2112.86,-150.78 2112.71,-143.78"/>
</g>
<!-- Node32 -->
<g id="node32" class="node">
<title>Node32</title>
<g id="a_node32"><a xlink:href="iopmgr_8h.html" target="_top" xlink:title=" ">
<polygon fill="white" stroke="black" points="1588.5,-67.5 1588.5,-97.5 1718.5,-97.5 1718.5,-67.5 1588.5,-67.5"/>
<text text-anchor="start" x="1596.5" y="-85.5" font-family="Helvetica,sans-Serif" font-size="10.00">iop/system/iopmgr/include</text>
<text text-anchor="middle" x="1653.5" y="-74.5" font-family="Helvetica,sans-Serif" font-size="10.00">/iopmgr.h</text>
</a>
</g>
</g>
<!-- Node1&#45;&gt;Node32 -->
<g id="edge31" class="edge">
<title>Node1&#45;&gt;Node32</title>
<path fill="none" stroke="midnightblue" d="M2000.31,-140.21C1935.63,-130.56 1826.27,-113.91 1732.5,-98 1727.96,-97.23 1723.28,-96.42 1718.57,-95.59"/>
<polygon fill="midnightblue" stroke="midnightblue" points="1999.89,-143.69 2010.29,-141.7 2000.92,-136.76 1999.89,-143.69"/>
</g>
<!-- Node38 -->
<g id="node38" class="node">
<title>Node38</title>
<g id="a_node38"><a xlink:href="iop_2system_2iopmgr_2src_2slib_8c.html" target="_top" xlink:title=" ">
<polygon fill="white" stroke="black" points="1859,-0.5 1859,-30.5 1972,-30.5 1972,-0.5 1859,-0.5"/>
<text text-anchor="start" x="1867" y="-18.5" font-family="Helvetica,sans-Serif" font-size="10.00">iop/system/iopmgr/src</text>
<text text-anchor="middle" x="1915.5" y="-7.5" font-family="Helvetica,sans-Serif" font-size="10.00">/slib.c</text>
</a>
</g>
</g>
<!-- Node1&#45;&gt;Node38 -->
<g id="edge40" class="edge">
<title>Node1&#45;&gt;Node38</title>
<path fill="none" stroke="midnightblue" d="M2000.29,-146.71C1926.19,-143.03 1801.84,-131.85 1773.5,-98 1764.65,-87.44 1765.56,-78.26 1773.5,-67 1783.83,-52.36 1823.78,-38.92 1858.68,-29.6"/>
<polygon fill="midnightblue" stroke="midnightblue" points="2000.25,-150.21 2010.4,-147.18 2000.58,-143.22 2000.25,-150.21"/>
</g>
<!-- Node39 -->
<g id="node39" class="node">
<title>Node39</title>
<g id="a_node39"><a xlink:href="iop_2system_2iopmgr_2src_2smod_8c.html" target="_top" xlink:title=" ">
<polygon fill="white" stroke="black" points="1990,-0.5 1990,-30.5 2103,-30.5 2103,-0.5 1990,-0.5"/>
<text text-anchor="start" x="1998" y="-18.5" font-family="Helvetica,sans-Serif" font-size="10.00">iop/system/iopmgr/src</text>
<text text-anchor="middle" x="2046.5" y="-7.5" font-family="Helvetica,sans-Serif" font-size="10.00">/smod.c</text>
</a>
</g>
</g>
<!-- Node1&#45;&gt;Node39 -->
<g id="edge41" class="edge">
<title>Node1&#45;&gt;Node39</title>
<path fill="none" stroke="midnightblue" d="M2000.05,-145.34C1933.21,-140.28 1827.87,-127.71 1803.5,-98 1718.27,5.93 1733.37,-83.27 1980.5,-31 1983.6,-30.34 1986.78,-29.67 1989.99,-28.98"/>
<polygon fill="midnightblue" stroke="midnightblue" points="2000.2,-148.86 2010.42,-146.09 2000.7,-141.88 2000.2,-148.86"/>
</g>
<!-- Node40 -->
<g id="node40" class="node">
<title>Node40</title>
<g id="a_node40"><a xlink:href="sio2man_8c.html" target="_top" xlink:title=" ">
<polygon fill="white" stroke="black" points="3311.5,-67.5 3311.5,-97.5 3415.5,-97.5 3415.5,-67.5 3311.5,-67.5"/>
<text text-anchor="start" x="3319.5" y="-85.5" font-family="Helvetica,sans-Serif" font-size="10.00">iop/system/sio2man</text>
<text text-anchor="middle" x="3363.5" y="-74.5" font-family="Helvetica,sans-Serif" font-size="10.00">/src/sio2man.c</text>
</a>
</g>
</g>
<!-- Node1&#45;&gt;Node40 -->
<g id="edge42" class="edge">
<title>Node1&#45;&gt;Node40</title>
<path fill="none" stroke="midnightblue" d="M2112.9,-147.66C2324.08,-144.29 3067.86,-130.33 3302.5,-98 3305.41,-97.6 3308.39,-97.12 3311.38,-96.59"/>
<polygon fill="midnightblue" stroke="midnightblue" points="2112.61,-144.16 2102.67,-147.82 2112.72,-151.16 2112.61,-144.16"/>
</g>
<!-- Node41 -->
<g id="node41" class="node">
<title>Node41</title>
<g id="a_node41"><a xlink:href="iop_2system_2udnl_2src_2irx__imports_8h_source.html" target="_top" xlink:title=" ">
<polygon fill="white" stroke="black" points="3434,-67.5 3434,-97.5 3535,-97.5 3535,-67.5 3434,-67.5"/>
<text text-anchor="start" x="3442" y="-85.5" font-family="Helvetica,sans-Serif" font-size="10.00">iop/system/udnl/src</text>
<text text-anchor="middle" x="3484.5" y="-74.5" font-family="Helvetica,sans-Serif" font-size="10.00">/irx_imports.h</text>
</a>
</g>
</g>
<!-- Node1&#45;&gt;Node41 -->
<g id="edge43" class="edge">
<title>Node1&#45;&gt;Node41</title>
<path fill="none" stroke="midnightblue" d="M2112.77,-147.92C2336.69,-145.4 3164.79,-133.81 3424.5,-98 3427.58,-97.58 3430.73,-97.06 3433.9,-96.48"/>
<polygon fill="midnightblue" stroke="midnightblue" points="2112.53,-144.43 2102.57,-148.04 2112.61,-151.43 2112.53,-144.43"/>
</g>
<!-- Node42 -->
<g id="node42" class="node">
<title>Node42</title>
<g id="a_node42"><a xlink:href="udnl_8c_source.html" target="_top" xlink:title=" ">
<polygon fill="white" stroke="black" points="3553,-67.5 3553,-97.5 3654,-97.5 3654,-67.5 3553,-67.5"/>
<text text-anchor="start" x="3561" y="-85.5" font-family="Helvetica,sans-Serif" font-size="10.00">iop/system/udnl/src</text>
<text text-anchor="middle" x="3603.5" y="-74.5" font-family="Helvetica,sans-Serif" font-size="10.00">/udnl.c</text>
</a>
</g>
</g>
<!-- Node1&#45;&gt;Node42 -->
<g id="edge44" class="edge">
<title>Node1&#45;&gt;Node42</title>
<path fill="none" stroke="midnightblue" d="M2112.6,-148.15C2348.4,-146.44 3260.04,-137.35 3544.5,-98 3547.22,-97.62 3549.99,-97.18 3552.78,-96.67"/>
<polygon fill="midnightblue" stroke="midnightblue" points="2112.51,-144.65 2102.54,-148.22 2112.56,-151.65 2112.51,-144.65"/>
</g>
<!-- Node43 -->
<g id="node43" class="node">
<title>Node43</title>
<g id="a_node43"><a xlink:href="iop_2usb_2camera_2src_2irx__imports_8h_source.html" target="_top" xlink:title=" ">
<polygon fill="white" stroke="black" points="3672.5,-67.5 3672.5,-97.5 3772.5,-97.5 3772.5,-67.5 3672.5,-67.5"/>
<text text-anchor="start" x="3680.5" y="-85.5" font-family="Helvetica,sans-Serif" font-size="10.00">iop/usb/camera/src</text>
<text text-anchor="middle" x="3722.5" y="-74.5" font-family="Helvetica,sans-Serif" font-size="10.00">/irx_imports.h</text>
</a>
</g>
</g>
<!-- Node1&#45;&gt;Node43 -->
<g id="edge45" class="edge">
<title>Node1&#45;&gt;Node43</title>
<path fill="none" stroke="midnightblue" d="M2112.96,-148.31C2360.91,-147.24 3354.58,-140.34 3663.5,-98 3666.43,-97.6 3669.42,-97.11 3672.43,-96.56"/>
<polygon fill="midnightblue" stroke="midnightblue" points="2112.73,-144.81 2102.74,-148.35 2112.76,-151.81 2112.73,-144.81"/>
</g>
<!-- Node44 -->
<g id="node44" class="node">
<title>Node44</title>
<g id="a_node44"><a xlink:href="ps2cam_8c.html" target="_top" xlink:title=" ">
<polygon fill="white" stroke="black" points="3790.5,-67.5 3790.5,-97.5 3890.5,-97.5 3890.5,-67.5 3790.5,-67.5"/>
<text text-anchor="start" x="3798.5" y="-85.5" font-family="Helvetica,sans-Serif" font-size="10.00">iop/usb/camera/src</text>
<text text-anchor="middle" x="3840.5" y="-74.5" font-family="Helvetica,sans-Serif" font-size="10.00">/ps2cam.c</text>
</a>
</g>
</g>
<!-- Node1&#45;&gt;Node44 -->
<g id="edge46" class="edge">
<title>Node1&#45;&gt;Node44</title>
<path fill="none" stroke="midnightblue" d="M2112.82,-148.45C2371.58,-147.99 3448.05,-143.33 3781.5,-98 3784.43,-97.6 3787.42,-97.12 3790.43,-96.57"/>
<polygon fill="midnightblue" stroke="midnightblue" points="2112.53,-144.95 2102.53,-148.47 2112.54,-151.95 2112.53,-144.95"/>
</g>
<!-- Node45 -->
<g id="node45" class="node">
<title>Node45</title>
<g id="a_node45"><a xlink:href="iop_2usb_2keyboard_2src_2irx__imports_8h_source.html" target="_top" xlink:title=" ">
<polygon fill="white" stroke="black" points="3909,-67.5 3909,-97.5 4016,-97.5 4016,-67.5 3909,-67.5"/>
<text text-anchor="start" x="3917" y="-85.5" font-family="Helvetica,sans-Serif" font-size="10.00">iop/usb/keyboard/src</text>
<text text-anchor="middle" x="3962.5" y="-74.5" font-family="Helvetica,sans-Serif" font-size="10.00">/irx_imports.h</text>
</a>
</g>
</g>
<!-- Node1&#45;&gt;Node45 -->
<g id="edge47" class="edge">
<title>Node1&#45;&gt;Node45</title>
<path fill="none" stroke="midnightblue" d="M2113.1,-148.46C2383.05,-148.06 3541.33,-143.66 3899.5,-98 3902.51,-97.62 3905.58,-97.15 3908.67,-96.63"/>
<polygon fill="midnightblue" stroke="midnightblue" points="2112.76,-144.96 2102.76,-148.48 2112.77,-151.96 2112.76,-144.96"/>
</g>
<!-- Node46 -->
<g id="node46" class="node">
<title>Node46</title>
<g id="a_node46"><a xlink:href="ps2kbd_8c.html" target="_top" xlink:title=" ">
<polygon fill="white" stroke="black" points="4034,-67.5 4034,-97.5 4141,-97.5 4141,-67.5 4034,-67.5"/>
<text text-anchor="start" x="4042" y="-85.5" font-family="Helvetica,sans-Serif" font-size="10.00">iop/usb/keyboard/src</text>
<text text-anchor="middle" x="4087.5" y="-74.5" font-family="Helvetica,sans-Serif" font-size="10.00">/ps2kbd.c</text>
</a>
</g>
</g>
<!-- Node1&#45;&gt;Node46 -->
<g id="edge48" class="edge">
<title>Node1&#45;&gt;Node46</title>
<path fill="none" stroke="midnightblue" d="M2113.29,-148.61C2394.67,-148.9 3641.24,-147.33 4025.5,-98 4028.24,-97.65 4031.04,-97.23 4033.85,-96.75"/>
<polygon fill="midnightblue" stroke="midnightblue" points="2112.92,-145.11 2102.92,-148.59 2112.91,-152.11 2112.92,-145.11"/>
</g>
<!-- Node47 -->
<g id="node47" class="node">
<title>Node47</title>
<g id="a_node47"><a xlink:href="iop_2usb_2usbhdfsd_2src_2irx__imports_8h_source.html" target="_top" xlink:title=" ">
<polygon fill="white" stroke="black" points="4159,-67.5 4159,-97.5 4266,-97.5 4266,-67.5 4159,-67.5"/>
<text text-anchor="start" x="4167" y="-85.5" font-family="Helvetica,sans-Serif" font-size="10.00">iop/usb/usbhdfsd/src</text>
<text text-anchor="middle" x="4212.5" y="-74.5" font-family="Helvetica,sans-Serif" font-size="10.00">/irx_imports.h</text>
</a>
</g>
</g>
<!-- Node1&#45;&gt;Node47 -->
<g id="edge49" class="edge">
<title>Node1&#45;&gt;Node47</title>
<path fill="none" stroke="midnightblue" d="M2113.08,-148.71C2404.69,-149.54 3740.07,-150.38 4150.5,-98 4153.24,-97.65 4156.04,-97.23 4158.85,-96.76"/>
<polygon fill="midnightblue" stroke="midnightblue" points="2112.76,-145.21 2102.75,-148.68 2112.74,-152.21 2112.76,-145.21"/>
</g>
<!-- Node21 -->
<g id="node21" class="node">
<title>Node21</title>
<g id="a_node21"><a xlink:href="iop_2memorycard_2mcman_2src_2main_8c_source.html" target="_top" xlink:title=" ">
<polygon fill="white" stroke="black" points="2299,-0.5 2299,-30.5 2420,-30.5 2420,-0.5 2299,-0.5"/>
<text text-anchor="start" x="2307" y="-18.5" font-family="Helvetica,sans-Serif" font-size="10.00">iop/memorycard/mcman</text>
<text text-anchor="middle" x="2359.5" y="-7.5" font-family="Helvetica,sans-Serif" font-size="10.00">/src/main.c</text>
</a>
</g>
</g>
<!-- Node20&#45;&gt;Node21 -->
<g id="edge20" class="edge">
<title>Node20&#45;&gt;Node21</title>
<path fill="none" stroke="midnightblue" d="M2459.22,-63.13C2437.13,-52.8 2409.99,-40.11 2389.6,-30.58"/>
<polygon fill="midnightblue" stroke="midnightblue" points="2457.8,-66.33 2468.34,-67.4 2460.76,-59.99 2457.8,-66.33"/>
</g>
<!-- Node22 -->
<g id="node22" class="node">
<title>Node22</title>
<g id="a_node22"><a xlink:href="mcdev_8c_source.html" target="_top" xlink:title=" ">
<polygon fill="white" stroke="black" points="2438,-0.5 2438,-30.5 2559,-30.5 2559,-0.5 2438,-0.5"/>
<text text-anchor="start" x="2446" y="-18.5" font-family="Helvetica,sans-Serif" font-size="10.00">iop/memorycard/mcman</text>
<text text-anchor="middle" x="2498.5" y="-7.5" font-family="Helvetica,sans-Serif" font-size="10.00">/src/mcdev.c</text>
</a>
</g>
</g>
<!-- Node20&#45;&gt;Node22 -->
<g id="edge21" class="edge">
<title>Node20&#45;&gt;Node22</title>
<path fill="none" stroke="midnightblue" d="M2498.5,-57.11C2498.5,-48.15 2498.5,-38.32 2498.5,-30.58"/>
<polygon fill="midnightblue" stroke="midnightblue" points="2495,-57.4 2498.5,-67.4 2502,-57.4 2495,-57.4"/>
</g>
<!-- Node23 -->
<g id="node23" class="node">
<title>Node23</title>
<g id="a_node23"><a xlink:href="mcsio2_8c_source.html" target="_top" xlink:title=" ">
<polygon fill="white" stroke="black" points="2577,-0.5 2577,-30.5 2698,-30.5 2698,-0.5 2577,-0.5"/>
<text text-anchor="start" x="2585" y="-18.5" font-family="Helvetica,sans-Serif" font-size="10.00">iop/memorycard/mcman</text>
<text text-anchor="middle" x="2637.5" y="-7.5" font-family="Helvetica,sans-Serif" font-size="10.00">/src/mcsio2.c</text>
</a>
</g>
</g>
<!-- Node20&#45;&gt;Node23 -->
<g id="edge22" class="edge">
<title>Node20&#45;&gt;Node23</title>
<path fill="none" stroke="midnightblue" d="M2537.78,-63.13C2559.87,-52.8 2587.01,-40.11 2607.4,-30.58"/>
<polygon fill="midnightblue" stroke="midnightblue" points="2536.24,-59.99 2528.66,-67.4 2539.2,-66.33 2536.24,-59.99"/>
</g>
<!-- Node24 -->
<g id="node24" class="node">
<title>Node24</title>
<g id="a_node24"><a xlink:href="ps1mc__fio_8c_source.html" target="_top" xlink:title=" ">
<polygon fill="white" stroke="black" points="2716,-0.5 2716,-30.5 2837,-30.5 2837,-0.5 2716,-0.5"/>
<text text-anchor="start" x="2724" y="-18.5" font-family="Helvetica,sans-Serif" font-size="10.00">iop/memorycard/mcman</text>
<text text-anchor="middle" x="2776.5" y="-7.5" font-family="Helvetica,sans-Serif" font-size="10.00">/src/ps1mc_fio.c</text>
</a>
</g>
</g>
<!-- Node20&#45;&gt;Node24 -->
<g id="edge23" class="edge">
<title>Node20&#45;&gt;Node24</title>
<path fill="none" stroke="midnightblue" d="M2568.28,-65.19C2613.8,-54.54 2672.64,-40.78 2716.15,-30.61"/>
<polygon fill="midnightblue" stroke="midnightblue" points="2567.42,-61.79 2558.48,-67.48 2569.01,-68.61 2567.42,-61.79"/>
</g>
<!-- Node25 -->
<g id="node25" class="node">
<title>Node25</title>
<g id="a_node25"><a xlink:href="ps2mc__fio_8c_source.html" target="_top" xlink:title=" ">
<polygon fill="white" stroke="black" points="2160,-0.5 2160,-30.5 2281,-30.5 2281,-0.5 2160,-0.5"/>
<text text-anchor="start" x="2168" y="-18.5" font-family="Helvetica,sans-Serif" font-size="10.00">iop/memorycard/mcman</text>
<text text-anchor="middle" x="2220.5" y="-7.5" font-family="Helvetica,sans-Serif" font-size="10.00">/src/ps2mc_fio.c</text>
</a>
</g>
</g>
<!-- Node20&#45;&gt;Node25 -->
<g id="edge24" class="edge">
<title>Node20&#45;&gt;Node25</title>
<path fill="none" stroke="midnightblue" d="M2428.72,-65.19C2383.2,-54.54 2324.36,-40.78 2280.85,-30.61"/>
<polygon fill="midnightblue" stroke="midnightblue" points="2427.99,-68.61 2438.52,-67.48 2429.58,-61.79 2427.99,-68.61"/>
</g>
<!-- Node32&#45;&gt;Node14 -->
<g id="edge34" class="edge">
<title>Node32&#45;&gt;Node14</title>
<path fill="none" stroke="midnightblue" d="M1578.38,-67.55C1577.07,-67.36 1575.78,-67.18 1574.5,-67 1404.7,-43.5 1360.15,-55.51 1190.5,-31 1179.36,-29.39 1167.35,-27.23 1156.32,-25.06"/>
<polygon fill="midnightblue" stroke="midnightblue" points="1578.06,-71.04 1588.48,-69.1 1579.12,-64.12 1578.06,-71.04"/>
</g>
<!-- Node33 -->
<g id="node33" class="node">
<title>Node33</title>
<g id="a_node33"><a xlink:href="devscan_8c.html" target="_top" xlink:title=" ">
<polygon fill="white" stroke="black" points="1331,-6 1331,-25 1460,-25 1460,-6 1331,-6"/>
<text text-anchor="middle" x="1395.5" y="-13" font-family="Helvetica,sans-Serif" font-size="10.00">iop/fs/netfs/src/devscan.c</text>
</a>
</g>
</g>
<!-- Node32&#45;&gt;Node33 -->
<g id="edge32" class="edge">
<title>Node32&#45;&gt;Node33</title>
<path fill="none" stroke="midnightblue" d="M1587.97,-64.99C1537.41,-52.25 1469.52,-35.15 1429.35,-25.03"/>
<polygon fill="midnightblue" stroke="midnightblue" points="1587.28,-68.43 1597.84,-67.48 1588.99,-61.64 1587.28,-68.43"/>
</g>
<!-- Node34 -->
<g id="node34" class="node">
<title>Node34</title>
<g id="a_node34"><a xlink:href="ps2__fio_8c.html" target="_top" xlink:title=" ">
<polygon fill="white" stroke="black" points="1478,-0.5 1478,-30.5 1579,-30.5 1579,-0.5 1478,-0.5"/>
<text text-anchor="start" x="1486" y="-18.5" font-family="Helvetica,sans-Serif" font-size="10.00">iop/fs/netfs/src/ps2</text>
<text text-anchor="middle" x="1528.5" y="-7.5" font-family="Helvetica,sans-Serif" font-size="10.00">_fio.c</text>
</a>
</g>
</g>
<!-- Node32&#45;&gt;Node34 -->
<g id="edge33" class="edge">
<title>Node32&#45;&gt;Node34</title>
<path fill="none" stroke="midnightblue" d="M1617.37,-62.71C1597.66,-52.46 1573.66,-39.98 1555.57,-30.58"/>
<polygon fill="midnightblue" stroke="midnightblue" points="1615.89,-65.89 1626.38,-67.4 1619.12,-59.68 1615.89,-65.89"/>
</g>
<!-- Node35 -->
<g id="node35" class="node">
<title>Node35</title>
<g id="a_node35"><a xlink:href="commandline_8c.html" target="_top" xlink:title=" ">
<polygon fill="white" stroke="black" points="1597,-0.5 1597,-30.5 1710,-30.5 1710,-0.5 1597,-0.5"/>
<text text-anchor="start" x="1605" y="-18.5" font-family="Helvetica,sans-Serif" font-size="10.00">iop/system/iopmgr/src</text>
<text text-anchor="middle" x="1653.5" y="-7.5" font-family="Helvetica,sans-Serif" font-size="10.00">/commandline.c</text>
</a>
</g>
</g>
<!-- Node32&#45;&gt;Node35 -->
<g id="edge35" class="edge">
<title>Node32&#45;&gt;Node35</title>
<path fill="none" stroke="midnightblue" d="M1653.5,-57.11C1653.5,-48.15 1653.5,-38.32 1653.5,-30.58"/>
<polygon fill="midnightblue" stroke="midnightblue" points="1650,-57.4 1653.5,-67.4 1657,-57.4 1650,-57.4"/>
</g>
<!-- Node36 -->
<g id="node36" class="node">
<title>Node36</title>
<g id="a_node36"><a xlink:href="devices_8c.html" target="_top" xlink:title=" ">
<polygon fill="white" stroke="black" points="1728,-0.5 1728,-30.5 1841,-30.5 1841,-0.5 1728,-0.5"/>
<text text-anchor="start" x="1736" y="-18.5" font-family="Helvetica,sans-Serif" font-size="10.00">iop/system/iopmgr/src</text>
<text text-anchor="middle" x="1784.5" y="-7.5" font-family="Helvetica,sans-Serif" font-size="10.00">/devices.c</text>
</a>
</g>
</g>
<!-- Node32&#45;&gt;Node36 -->
<g id="edge36" class="edge">
<title>Node32&#45;&gt;Node36</title>
<path fill="none" stroke="midnightblue" d="M1691.08,-62.85C1711.79,-52.58 1737.09,-40.03 1756.13,-30.58"/>
<polygon fill="midnightblue" stroke="midnightblue" points="1689.33,-59.82 1681.93,-67.4 1692.44,-66.09 1689.33,-59.82"/>
</g>
<!-- Node37 -->
<g id="node37" class="node">
<title>Node37</title>
<g id="a_node37"><a xlink:href="iop_2system_2iopmgr_2src_2main_8c.html" target="_top" xlink:title=" ">
<polygon fill="white" stroke="black" points="1200,-0.5 1200,-30.5 1313,-30.5 1313,-0.5 1200,-0.5"/>
<text text-anchor="start" x="1208" y="-18.5" font-family="Helvetica,sans-Serif" font-size="10.00">iop/system/iopmgr/src</text>
<text text-anchor="middle" x="1256.5" y="-7.5" font-family="Helvetica,sans-Serif" font-size="10.00">/main.c</text>
</a>
</g>
</g>
<!-- Node32&#45;&gt;Node37 -->
<g id="edge37" class="edge">
<title>Node32&#45;&gt;Node37</title>
<path fill="none" stroke="midnightblue" d="M1578.36,-67.64C1577.07,-67.42 1575.78,-67.21 1574.5,-67 1462.4,-48.74 1433.23,-51.38 1321.5,-31 1318.77,-30.5 1315.98,-29.97 1313.17,-29.41"/>
<polygon fill="midnightblue" stroke="midnightblue" points="1577.99,-71.12 1588.44,-69.34 1579.16,-64.22 1577.99,-71.12"/>
</g>
<!-- Node32&#45;&gt;Node38 -->
<g id="edge38" class="edge">
<title>Node32&#45;&gt;Node38</title>
<path fill="none" stroke="midnightblue" d="M1719.8,-65.05C1762.63,-54.43 1817.79,-40.74 1858.62,-30.61"/>
<polygon fill="midnightblue" stroke="midnightblue" points="1718.89,-61.67 1710.03,-67.48 1720.58,-68.47 1718.89,-61.67"/>
</g>
<!-- Node32&#45;&gt;Node39 -->
<g id="edge39" class="edge">
<title>Node32&#45;&gt;Node39</title>
<path fill="none" stroke="midnightblue" d="M1728.5,-71.29C1794.93,-61.92 1894.43,-47.08 1980.5,-31 1983.5,-30.44 1986.57,-29.84 1989.66,-29.22"/>
<polygon fill="midnightblue" stroke="midnightblue" points="1727.96,-67.83 1718.54,-72.69 1728.93,-74.76 1727.96,-67.83"/>
</g>
</g>
</svg>
