<?xml version="1.0" encoding="UTF-8" standalone="no"?>
<!DOCTYPE svg PUBLIC "-//W3C//DTD SVG 1.1//EN"
 "http://www.w3.org/Graphics/SVG/1.1/DTD/svg11.dtd">
<!-- Generated by graphviz version 3.0.0 (20220413.0242)
 -->
<!-- Title: ee/rpc/cdvd/include/libcdvd.h Pages: 1 -->
<svg width="1189pt" height="173pt"
 viewBox="0.00 0.00 1188.50 173.00" xmlns="http://www.w3.org/2000/svg" xmlns:xlink="http://www.w3.org/1999/xlink">
<g id="graph0" class="graph" transform="scale(1 1) rotate(0) translate(4 169)">
<title>ee/rpc/cdvd/include/libcdvd.h</title>
<polygon fill="white" stroke="transparent" points="-4,4 -4,-169 1184.5,-169 1184.5,4 -4,4"/>
<!-- Node1 -->
<g id="node1" class="node">
<title>Node1</title>
<g id="a_node1"><a xlink:title=" ">
<polygon fill="#bfbfbf" stroke="black" points="884.5,-134.5 884.5,-164.5 985.5,-164.5 985.5,-134.5 884.5,-134.5"/>
<text text-anchor="start" x="892.5" y="-152.5" font-family="Helvetica,sans-Serif" font-size="10.00">ee/rpc/cdvd/include</text>
<text text-anchor="middle" x="935" y="-141.5" font-family="Helvetica,sans-Serif" font-size="10.00">/libcdvd.h</text>
</a>
</g>
</g>
<!-- Node2 -->
<g id="node2" class="node">
<title>Node2</title>
<g id="a_node2"><a xlink:href="osd__config_8h.html" target="_top" xlink:title=" ">
<polygon fill="white" stroke="black" points="560.5,-67.5 560.5,-97.5 669.5,-97.5 669.5,-67.5 560.5,-67.5"/>
<text text-anchor="start" x="568.5" y="-85.5" font-family="Helvetica,sans-Serif" font-size="10.00">ee/kernel/include/osd</text>
<text text-anchor="middle" x="615" y="-74.5" font-family="Helvetica,sans-Serif" font-size="10.00">_config.h</text>
</a>
</g>
</g>
<!-- Node1&#45;&gt;Node2 -->
<g id="edge1" class="edge">
<title>Node1&#45;&gt;Node2</title>
<path fill="none" stroke="midnightblue" d="M874.37,-136.19C815.41,-124.21 726.63,-106.18 669.75,-94.62"/>
<polygon fill="midnightblue" stroke="midnightblue" points="873.8,-139.64 884.3,-138.2 875.19,-132.78 873.8,-139.64"/>
</g>
<!-- Node11 -->
<g id="node11" class="node">
<title>Node11</title>
<g id="a_node11"><a xlink:href="scmd_8c.html" target="_top" xlink:title=" ">
<polygon fill="white" stroke="black" points="1023.5,-6 1023.5,-25 1142.5,-25 1142.5,-6 1023.5,-6"/>
<text text-anchor="middle" x="1083" y="-13" font-family="Helvetica,sans-Serif" font-size="10.00">ee/rpc/cdvd/src/scmd.c</text>
</a>
</g>
</g>
<!-- Node1&#45;&gt;Node11 -->
<g id="edge13" class="edge">
<title>Node1&#45;&gt;Node11</title>
<path fill="none" stroke="midnightblue" d="M917.85,-125.73C906.94,-108.24 897.07,-84.24 910,-67 918.24,-56.02 996.48,-36.36 1044.88,-25.08"/>
<polygon fill="midnightblue" stroke="midnightblue" points="915.06,-127.85 923.54,-134.21 920.88,-123.95 915.06,-127.85"/>
</g>
<!-- Node12 -->
<g id="node12" class="node">
<title>Node12</title>
<g id="a_node12"><a xlink:href="libcdvd_8c.html" target="_top" xlink:title=" ">
<polygon fill="white" stroke="black" points="918.5,-73 918.5,-92 1043.5,-92 1043.5,-73 918.5,-73"/>
<text text-anchor="middle" x="981" y="-80" font-family="Helvetica,sans-Serif" font-size="10.00">ee/rpc/cdvd/src/libcdvd.c</text>
</a>
</g>
</g>
<!-- Node1&#45;&gt;Node12 -->
<g id="edge11" class="edge">
<title>Node1&#45;&gt;Node12</title>
<path fill="none" stroke="midnightblue" d="M950.94,-125.97C959.18,-114.33 968.76,-100.8 974.85,-92.19"/>
<polygon fill="midnightblue" stroke="midnightblue" points="947.9,-124.21 944.98,-134.4 953.61,-128.26 947.9,-124.21"/>
</g>
<!-- Node13 -->
<g id="node13" class="node">
<title>Node13</title>
<g id="a_node13"><a xlink:href="ncmd_8c.html" target="_top" xlink:title=" ">
<polygon fill="white" stroke="black" points="1061.5,-73 1061.5,-92 1180.5,-92 1180.5,-73 1061.5,-73"/>
<text text-anchor="middle" x="1121" y="-80" font-family="Helvetica,sans-Serif" font-size="10.00">ee/rpc/cdvd/src/ncmd.c</text>
</a>
</g>
</g>
<!-- Node1&#45;&gt;Node13 -->
<g id="edge12" class="edge">
<title>Node1&#45;&gt;Node13</title>
<path fill="none" stroke="midnightblue" d="M985.23,-130.95C1021.36,-118.32 1068.49,-101.85 1096.66,-92.01"/>
<polygon fill="midnightblue" stroke="midnightblue" points="983.64,-127.79 975.36,-134.4 985.95,-134.4 983.64,-127.79"/>
</g>
<!-- Node3 -->
<g id="node3" class="node">
<title>Node3</title>
<g id="a_node3"><a xlink:href="graph__mode_8c_source.html" target="_top" xlink:title=" ">
<polygon fill="white" stroke="black" points="0,-0.5 0,-30.5 98,-30.5 98,-0.5 0,-0.5"/>
<text text-anchor="start" x="8" y="-18.5" font-family="Helvetica,sans-Serif" font-size="10.00">ee/graph/src/graph</text>
<text text-anchor="middle" x="49" y="-7.5" font-family="Helvetica,sans-Serif" font-size="10.00">_mode.c</text>
</a>
</g>
</g>
<!-- Node2&#45;&gt;Node3 -->
<g id="edge2" class="edge">
<title>Node2&#45;&gt;Node3</title>
<path fill="none" stroke="midnightblue" d="M549.9,-78.08C452.86,-72.28 264.76,-58.41 107,-31 104.14,-30.5 101.21,-29.94 98.26,-29.33"/>
<polygon fill="midnightblue" stroke="midnightblue" points="549.95,-81.58 560.14,-78.68 550.36,-74.6 549.95,-81.58"/>
</g>
<!-- Node4 -->
<g id="node4" class="node">
<title>Node4</title>
<g id="a_node4"><a xlink:href="libosd_8c.html" target="_top" xlink:title=" ">
<polygon fill="white" stroke="black" points="116.5,-6 116.5,-25 225.5,-25 225.5,-6 116.5,-6"/>
<text text-anchor="middle" x="171" y="-13" font-family="Helvetica,sans-Serif" font-size="10.00">ee/kernel/src/libosd.c</text>
</a>
</g>
</g>
<!-- Node2&#45;&gt;Node4 -->
<g id="edge3" class="edge">
<title>Node2&#45;&gt;Node4</title>
<path fill="none" stroke="midnightblue" d="M550.12,-74.79C474.06,-66.49 344.37,-50.97 234,-31 224.72,-29.32 214.75,-27.18 205.54,-25.07"/>
<polygon fill="midnightblue" stroke="midnightblue" points="550.17,-78.32 560.49,-75.91 550.92,-71.36 550.17,-78.32"/>
</g>
<!-- Node5 -->
<g id="node5" class="node">
<title>Node5</title>
<g id="a_node5"><a xlink:href="libosd__common_8c.html" target="_top" xlink:title=" ">
<polygon fill="white" stroke="black" points="243.5,-0.5 243.5,-30.5 344.5,-30.5 344.5,-0.5 243.5,-0.5"/>
<text text-anchor="start" x="251.5" y="-18.5" font-family="Helvetica,sans-Serif" font-size="10.00">ee/kernel/src/libosd</text>
<text text-anchor="middle" x="294" y="-7.5" font-family="Helvetica,sans-Serif" font-size="10.00">_common.c</text>
</a>
</g>
</g>
<!-- Node2&#45;&gt;Node5 -->
<g id="edge4" class="edge">
<title>Node2&#45;&gt;Node5</title>
<path fill="none" stroke="midnightblue" d="M550.42,-69.99C497.28,-60.3 420.06,-45.69 353,-31 350.32,-30.41 347.58,-29.8 344.81,-29.16"/>
<polygon fill="midnightblue" stroke="midnightblue" points="549.93,-73.46 560.39,-71.81 551.18,-66.57 549.93,-73.46"/>
</g>
<!-- Node6 -->
<g id="node6" class="node">
<title>Node6</title>
<g id="a_node6"><a xlink:href="libosd__full_8c.html" target="_top" xlink:title=" ">
<polygon fill="white" stroke="black" points="362.5,-0.5 362.5,-30.5 463.5,-30.5 463.5,-0.5 362.5,-0.5"/>
<text text-anchor="start" x="370.5" y="-18.5" font-family="Helvetica,sans-Serif" font-size="10.00">ee/kernel/src/libosd</text>
<text text-anchor="middle" x="413" y="-7.5" font-family="Helvetica,sans-Serif" font-size="10.00">_full.c</text>
</a>
</g>
</g>
<!-- Node2&#45;&gt;Node6 -->
<g id="edge5" class="edge">
<title>Node2&#45;&gt;Node6</title>
<path fill="none" stroke="midnightblue" d="M561.32,-64.23C528.65,-53.71 487.43,-40.45 456.75,-30.58"/>
<polygon fill="midnightblue" stroke="midnightblue" points="560.58,-67.66 571.17,-67.4 562.72,-61 560.58,-67.66"/>
</g>
<!-- Node7 -->
<g id="node7" class="node">
<title>Node7</title>
<g id="a_node7"><a xlink:href="osd__config_8c.html" target="_top" xlink:title=" ">
<polygon fill="white" stroke="black" points="482,-6 482,-25 612,-25 612,-6 482,-6"/>
<text text-anchor="middle" x="547" y="-13" font-family="Helvetica,sans-Serif" font-size="10.00">ee/kernel/src/osd_config.c</text>
</a>
</g>
</g>
<!-- Node2&#45;&gt;Node7 -->
<g id="edge6" class="edge">
<title>Node2&#45;&gt;Node7</title>
<path fill="none" stroke="midnightblue" d="M592.86,-60.34C580.37,-48.4 565.45,-34.14 556.1,-25.19"/>
<polygon fill="midnightblue" stroke="midnightblue" points="590.6,-63.02 600.25,-67.4 595.43,-57.96 590.6,-63.02"/>
</g>
<!-- Node8 -->
<g id="node8" class="node">
<title>Node8</title>
<g id="a_node8"><a xlink:href="osd_8c_source.html" target="_top" xlink:title=" ">
<polygon fill="white" stroke="black" points="630.5,-0.5 630.5,-30.5 735.5,-30.5 735.5,-0.5 630.5,-0.5"/>
<text text-anchor="start" x="638.5" y="-18.5" font-family="Helvetica,sans-Serif" font-size="10.00">ee/kernel/src/osdsrc</text>
<text text-anchor="middle" x="683" y="-7.5" font-family="Helvetica,sans-Serif" font-size="10.00">/src/osd.c</text>
</a>
</g>
</g>
<!-- Node2&#45;&gt;Node8 -->
<g id="edge7" class="edge">
<title>Node2&#45;&gt;Node8</title>
<path fill="none" stroke="midnightblue" d="M637.17,-60.31C647.37,-50.56 659.19,-39.26 668.27,-30.58"/>
<polygon fill="midnightblue" stroke="midnightblue" points="634.57,-57.96 629.75,-67.4 639.4,-63.02 634.57,-57.96"/>
</g>
<!-- Node9 -->
<g id="node9" class="node">
<title>Node9</title>
<g id="a_node9"><a xlink:href="osdsrc_8c_source.html" target="_top" xlink:title=" ">
<polygon fill="white" stroke="black" points="753.5,-0.5 753.5,-30.5 858.5,-30.5 858.5,-0.5 753.5,-0.5"/>
<text text-anchor="start" x="761.5" y="-18.5" font-family="Helvetica,sans-Serif" font-size="10.00">ee/kernel/src/osdsrc</text>
<text text-anchor="middle" x="806" y="-7.5" font-family="Helvetica,sans-Serif" font-size="10.00">/src/osdsrc.c</text>
</a>
</g>
</g>
<!-- Node2&#45;&gt;Node9 -->
<g id="edge8" class="edge">
<title>Node2&#45;&gt;Node9</title>
<path fill="none" stroke="midnightblue" d="M666.15,-64.09C696.99,-53.6 735.75,-40.41 764.64,-30.58"/>
<polygon fill="midnightblue" stroke="midnightblue" points="664.78,-60.86 656.44,-67.4 667.04,-67.49 664.78,-60.86"/>
</g>
<!-- Node10 -->
<g id="node10" class="node">
<title>Node10</title>
<g id="a_node10"><a xlink:href="timezone_8c.html" target="_top" xlink:title=" ">
<polygon fill="white" stroke="black" points="876.5,-6 876.5,-25 1005.5,-25 1005.5,-6 876.5,-6"/>
<text text-anchor="middle" x="941" y="-13" font-family="Helvetica,sans-Serif" font-size="10.00">ee/libcglue/src/timezone.c</text>
</a>
</g>
</g>
<!-- Node2&#45;&gt;Node10 -->
<g id="edge9" class="edge">
<title>Node2&#45;&gt;Node10</title>
<path fill="none" stroke="midnightblue" d="M679.68,-68.6C744.52,-55.68 842.5,-36.14 898.24,-25.03"/>
<polygon fill="midnightblue" stroke="midnightblue" points="678.69,-65.23 669.57,-70.62 680.06,-72.1 678.69,-65.23"/>
</g>
<!-- Node2&#45;&gt;Node11 -->
<g id="edge10" class="edge">
<title>Node2&#45;&gt;Node11</title>
<path fill="none" stroke="midnightblue" d="M679.88,-75.01C759.21,-66.69 897.44,-50.92 1015,-31 1025,-29.31 1035.75,-27.16 1045.7,-25.05"/>
<polygon fill="midnightblue" stroke="midnightblue" points="679.14,-71.57 669.56,-76.09 679.87,-78.53 679.14,-71.57"/>
</g>
</g>
</svg>
