<?xml version="1.0" encoding="UTF-8" standalone="no"?>
<!DOCTYPE svg PUBLIC "-//W3C//DTD SVG 1.1//EN"
 "http://www.w3.org/Graphics/SVG/1.1/DTD/svg11.dtd">
<!-- Generated by graphviz version 3.0.0 (20220413.0242)
 -->
<!-- Title: common/include/libcdvd&#45;common.h Pages: 1 -->
<!--zoomable 240 -->
<svg id="main" version="1.1" xmlns="http://www.w3.org/2000/svg" xmlns:xlink="http://www.w3.org/1999/xlink" xml:space="preserve" onload="init(evt)">
<style type="text/css"><![CDATA[
.edge:hover path { stroke: red; }
.edge:hover polygon { stroke: red; fill: red; }
]]></style>
<script type="text/javascript"><![CDATA[
var edges = document.getElementsByTagName('g');
if (edges && edges.length) {
  for (var i=0;i<edges.length;i++) {
    if (edges[i].id.substr(0,4)=='edge') {
      edges[i].setAttribute('class','edge');
    }
  }
}
]]></script>
        <defs>
                <circle id="rim" cx="0" cy="0" r="7"/>
                <circle id="rim2" cx="0" cy="0" r="3.5"/>
                <g id="zoomPlus">
                        <use xlink:href="#rim" fill="#404040">
                                <set attributeName="fill" to="#808080" begin="zoomplus.mouseover" end="zoomplus.mouseout"/>
                        </use>
                        <path d="M-4,0h8M0,-4v8" fill="none" stroke="white" stroke-width="1.5" pointer-events="none"/>
                </g>
                <g id="zoomMin">
                        <use xlink:href="#rim" fill="#404040">
                                <set attributeName="fill" to="#808080" begin="zoomminus.mouseover" end="zoomminus.mouseout"/>
                        </use>
                        <path d="M-4,0h8" fill="none" stroke="white" stroke-width="1.5" pointer-events="none"/>
                </g>
                <g id="dirArrow">
                        <path fill="none" stroke="white" stroke-width="1.5" d="M0,-3.0v7 M-2.5,-0.5L0,-3.0L2.5,-0.5"/>
                </g>
               <g id="resetDef">
                       <use xlink:href="#rim2" fill="#404040">
                               <set attributeName="fill" to="#808080" begin="reset.mouseover" end="reset.mouseout"/>
                       </use>
               </g>
        </defs>

<script type="text/javascript">
var viewWidth = 4027;
var viewHeight = 240;
var sectionId = 'dynsection-1';
</script>
<script xlink:href="svgpan.js"/>
<svg id="graph" class="graph">
<g id="viewport">
<title>common/include/libcdvd&#45;common.h</title>
<polygon fill="white" stroke="transparent" points="-4,4 -4,-236 4022.5,-236 4022.5,4 -4,4"/>
<!-- Node1 -->
<g id="node1" class="node">
<title>Node1</title>
<g id="a_node1"><a xlink:title=" ">
<polygon fill="#bfbfbf" stroke="black" points="1658,-201.5 1658,-231.5 1780,-231.5 1780,-201.5 1658,-201.5"/>
<text text-anchor="start" x="1666" y="-219.5" font-family="Helvetica,sans-Serif" font-size="10.00">common/include/libcdvd</text>
<text text-anchor="middle" x="1719" y="-208.5" font-family="Helvetica,sans-Serif" font-size="10.00">&#45;common.h</text>
</a>
</g>
</g>
<!-- Node2 -->
<g id="node2" class="node">
<title>Node2</title>
<g id="a_node2"><a xlink:href="libcdvd_8h.html" target="_top" xlink:title=" ">
<polygon fill="white" stroke="black" points="930.5,-134.5 930.5,-164.5 1031.5,-164.5 1031.5,-134.5 930.5,-134.5"/>
<text text-anchor="start" x="938.5" y="-152.5" font-family="Helvetica,sans-Serif" font-size="10.00">ee/rpc/cdvd/include</text>
<text text-anchor="middle" x="981" y="-141.5" font-family="Helvetica,sans-Serif" font-size="10.00">/libcdvd.h</text>
</a>
</g>
</g>
<!-- Node1&#45;&gt;Node2 -->
<g id="edge1" class="edge">
<title>Node1&#45;&gt;Node2</title>
<path fill="none" stroke="midnightblue" d="M1647.62,-209.21C1499.13,-196.13 1160.1,-166.27 1031.62,-154.96"/>
<polygon fill="midnightblue" stroke="midnightblue" points="1647.71,-212.73 1657.98,-210.13 1648.32,-205.76 1647.71,-212.73"/>
</g>
<!-- Node15 -->
<g id="node15" class="node">
<title>Node15</title>
<g id="a_node15"><a xlink:href="cdfs__iop_8c_source.html" target="_top" xlink:title=" ">
<polygon fill="white" stroke="black" points="1662.5,-134.5 1662.5,-164.5 1775.5,-164.5 1775.5,-134.5 1662.5,-134.5"/>
<text text-anchor="start" x="1670.5" y="-152.5" font-family="Helvetica,sans-Serif" font-size="10.00">iop/cdvd/cdfs/src/cdfs</text>
<text text-anchor="middle" x="1719" y="-141.5" font-family="Helvetica,sans-Serif" font-size="10.00">_iop.c</text>
</a>
</g>
</g>
<!-- Node1&#45;&gt;Node15 -->
<g id="edge15" class="edge">
<title>Node1&#45;&gt;Node15</title>
<path fill="none" stroke="midnightblue" d="M1719,-191.11C1719,-182.15 1719,-172.32 1719,-164.58"/>
<polygon fill="midnightblue" stroke="midnightblue" points="1715.5,-191.4 1719,-201.4 1722.5,-191.4 1715.5,-191.4"/>
</g>
<!-- Node16 -->
<g id="node16" class="node">
<title>Node16</title>
<g id="a_node16"><a xlink:href="cdvdman_8h.html" target="_top" xlink:title=" ">
<polygon fill="white" stroke="black" points="2467,-134.5 2467,-164.5 2559,-164.5 2559,-134.5 2467,-134.5"/>
<text text-anchor="start" x="2475" y="-152.5" font-family="Helvetica,sans-Serif" font-size="10.00">iop/kernel/include</text>
<text text-anchor="middle" x="2513" y="-141.5" font-family="Helvetica,sans-Serif" font-size="10.00">/cdvdman.h</text>
</a>
</g>
</g>
<!-- Node1&#45;&gt;Node16 -->
<g id="edge16" class="edge">
<title>Node1&#45;&gt;Node16</title>
<path fill="none" stroke="midnightblue" d="M1790.53,-209.64C1950.59,-196.54 2333.99,-165.15 2466.79,-154.28"/>
<polygon fill="midnightblue" stroke="midnightblue" points="1789.99,-206.18 1780.31,-210.48 1790.57,-213.15 1789.99,-206.18"/>
</g>
<!-- Node3 -->
<g id="node3" class="node">
<title>Node3</title>
<g id="a_node3"><a xlink:href="osd__config_8h.html" target="_top" xlink:title=" ">
<polygon fill="white" stroke="black" points="560.5,-67.5 560.5,-97.5 669.5,-97.5 669.5,-67.5 560.5,-67.5"/>
<text text-anchor="start" x="568.5" y="-85.5" font-family="Helvetica,sans-Serif" font-size="10.00">ee/kernel/include/osd</text>
<text text-anchor="middle" x="615" y="-74.5" font-family="Helvetica,sans-Serif" font-size="10.00">_config.h</text>
</a>
</g>
</g>
<!-- Node2&#45;&gt;Node3 -->
<g id="edge2" class="edge">
<title>Node2&#45;&gt;Node3</title>
<path fill="none" stroke="midnightblue" d="M920.53,-137.76C850.76,-125.37 737.02,-105.17 669.76,-93.22"/>
<polygon fill="midnightblue" stroke="midnightblue" points="920.04,-141.23 930.49,-139.53 921.26,-134.34 920.04,-141.23"/>
</g>
<!-- Node12 -->
<g id="node12" class="node">
<title>Node12</title>
<g id="a_node12"><a xlink:href="scmd_8c.html" target="_top" xlink:title=" ">
<polygon fill="white" stroke="black" points="1023.5,-6 1023.5,-25 1142.5,-25 1142.5,-6 1023.5,-6"/>
<text text-anchor="middle" x="1083" y="-13" font-family="Helvetica,sans-Serif" font-size="10.00">ee/rpc/cdvd/src/scmd.c</text>
</a>
</g>
</g>
<!-- Node2&#45;&gt;Node12 -->
<g id="edge14" class="edge">
<title>Node2&#45;&gt;Node12</title>
<path fill="none" stroke="midnightblue" d="M939.61,-129.16C927.52,-121.3 915.75,-110.97 909,-98 902.64,-85.78 900.73,-78.02 909,-67 917.29,-55.96 995.99,-36.33 1044.66,-25.07"/>
<polygon fill="midnightblue" stroke="midnightblue" points="938.04,-132.29 948.41,-134.44 941.64,-126.29 938.04,-132.29"/>
</g>
<!-- Node13 -->
<g id="node13" class="node">
<title>Node13</title>
<g id="a_node13"><a xlink:href="libcdvd_8c.html" target="_top" xlink:title=" ">
<polygon fill="white" stroke="black" points="918.5,-73 918.5,-92 1043.5,-92 1043.5,-73 918.5,-73"/>
<text text-anchor="middle" x="981" y="-80" font-family="Helvetica,sans-Serif" font-size="10.00">ee/rpc/cdvd/src/libcdvd.c</text>
</a>
</g>
</g>
<!-- Node2&#45;&gt;Node13 -->
<g id="edge12" class="edge">
<title>Node2&#45;&gt;Node13</title>
<path fill="none" stroke="midnightblue" d="M981,-124.25C981,-113.02 981,-100.38 981,-92.19"/>
<polygon fill="midnightblue" stroke="midnightblue" points="977.5,-124.4 981,-134.4 984.5,-124.4 977.5,-124.4"/>
</g>
<!-- Node14 -->
<g id="node14" class="node">
<title>Node14</title>
<g id="a_node14"><a xlink:href="ncmd_8c.html" target="_top" xlink:title=" ">
<polygon fill="white" stroke="black" points="1061.5,-73 1061.5,-92 1180.5,-92 1180.5,-73 1061.5,-73"/>
<text text-anchor="middle" x="1121" y="-80" font-family="Helvetica,sans-Serif" font-size="10.00">ee/rpc/cdvd/src/ncmd.c</text>
</a>
</g>
</g>
<!-- Node2&#45;&gt;Node14 -->
<g id="edge13" class="edge">
<title>Node2&#45;&gt;Node14</title>
<path fill="none" stroke="midnightblue" d="M1020.56,-130.13C1047.51,-117.62 1081.93,-101.64 1102.68,-92.01"/>
<polygon fill="midnightblue" stroke="midnightblue" points="1018.97,-127.01 1011.38,-134.4 1021.92,-133.36 1018.97,-127.01"/>
</g>
<!-- Node4 -->
<g id="node4" class="node">
<title>Node4</title>
<g id="a_node4"><a xlink:href="graph__mode_8c_source.html" target="_top" xlink:title=" ">
<polygon fill="white" stroke="black" points="0,-0.5 0,-30.5 98,-30.5 98,-0.5 0,-0.5"/>
<text text-anchor="start" x="8" y="-18.5" font-family="Helvetica,sans-Serif" font-size="10.00">ee/graph/src/graph</text>
<text text-anchor="middle" x="49" y="-7.5" font-family="Helvetica,sans-Serif" font-size="10.00">_mode.c</text>
</a>
</g>
</g>
<!-- Node3&#45;&gt;Node4 -->
<g id="edge3" class="edge">
<title>Node3&#45;&gt;Node4</title>
<path fill="none" stroke="midnightblue" d="M549.9,-78.08C452.86,-72.28 264.76,-58.41 107,-31 104.14,-30.5 101.21,-29.94 98.26,-29.33"/>
<polygon fill="midnightblue" stroke="midnightblue" points="549.95,-81.58 560.14,-78.68 550.36,-74.6 549.95,-81.58"/>
</g>
<!-- Node5 -->
<g id="node5" class="node">
<title>Node5</title>
<g id="a_node5"><a xlink:href="libosd_8c.html" target="_top" xlink:title=" ">
<polygon fill="white" stroke="black" points="116.5,-6 116.5,-25 225.5,-25 225.5,-6 116.5,-6"/>
<text text-anchor="middle" x="171" y="-13" font-family="Helvetica,sans-Serif" font-size="10.00">ee/kernel/src/libosd.c</text>
</a>
</g>
</g>
<!-- Node3&#45;&gt;Node5 -->
<g id="edge4" class="edge">
<title>Node3&#45;&gt;Node5</title>
<path fill="none" stroke="midnightblue" d="M550.12,-74.79C474.06,-66.49 344.37,-50.97 234,-31 224.72,-29.32 214.75,-27.18 205.54,-25.07"/>
<polygon fill="midnightblue" stroke="midnightblue" points="550.17,-78.32 560.49,-75.91 550.92,-71.36 550.17,-78.32"/>
</g>
<!-- Node6 -->
<g id="node6" class="node">
<title>Node6</title>
<g id="a_node6"><a xlink:href="libosd__common_8c.html" target="_top" xlink:title=" ">
<polygon fill="white" stroke="black" points="243.5,-0.5 243.5,-30.5 344.5,-30.5 344.5,-0.5 243.5,-0.5"/>
<text text-anchor="start" x="251.5" y="-18.5" font-family="Helvetica,sans-Serif" font-size="10.00">ee/kernel/src/libosd</text>
<text text-anchor="middle" x="294" y="-7.5" font-family="Helvetica,sans-Serif" font-size="10.00">_common.c</text>
</a>
</g>
</g>
<!-- Node3&#45;&gt;Node6 -->
<g id="edge5" class="edge">
<title>Node3&#45;&gt;Node6</title>
<path fill="none" stroke="midnightblue" d="M550.42,-69.99C497.28,-60.3 420.06,-45.69 353,-31 350.32,-30.41 347.58,-29.8 344.81,-29.16"/>
<polygon fill="midnightblue" stroke="midnightblue" points="549.93,-73.46 560.39,-71.81 551.18,-66.57 549.93,-73.46"/>
</g>
<!-- Node7 -->
<g id="node7" class="node">
<title>Node7</title>
<g id="a_node7"><a xlink:href="libosd__full_8c.html" target="_top" xlink:title=" ">
<polygon fill="white" stroke="black" points="362.5,-0.5 362.5,-30.5 463.5,-30.5 463.5,-0.5 362.5,-0.5"/>
<text text-anchor="start" x="370.5" y="-18.5" font-family="Helvetica,sans-Serif" font-size="10.00">ee/kernel/src/libosd</text>
<text text-anchor="middle" x="413" y="-7.5" font-family="Helvetica,sans-Serif" font-size="10.00">_full.c</text>
</a>
</g>
</g>
<!-- Node3&#45;&gt;Node7 -->
<g id="edge6" class="edge">
<title>Node3&#45;&gt;Node7</title>
<path fill="none" stroke="midnightblue" d="M561.32,-64.23C528.65,-53.71 487.43,-40.45 456.75,-30.58"/>
<polygon fill="midnightblue" stroke="midnightblue" points="560.58,-67.66 571.17,-67.4 562.72,-61 560.58,-67.66"/>
</g>
<!-- Node8 -->
<g id="node8" class="node">
<title>Node8</title>
<g id="a_node8"><a xlink:href="osd__config_8c.html" target="_top" xlink:title=" ">
<polygon fill="white" stroke="black" points="482,-6 482,-25 612,-25 612,-6 482,-6"/>
<text text-anchor="middle" x="547" y="-13" font-family="Helvetica,sans-Serif" font-size="10.00">ee/kernel/src/osd_config.c</text>
</a>
</g>
</g>
<!-- Node3&#45;&gt;Node8 -->
<g id="edge7" class="edge">
<title>Node3&#45;&gt;Node8</title>
<path fill="none" stroke="midnightblue" d="M592.86,-60.34C580.37,-48.4 565.45,-34.14 556.1,-25.19"/>
<polygon fill="midnightblue" stroke="midnightblue" points="590.6,-63.02 600.25,-67.4 595.43,-57.96 590.6,-63.02"/>
</g>
<!-- Node9 -->
<g id="node9" class="node">
<title>Node9</title>
<g id="a_node9"><a xlink:href="osd_8c_source.html" target="_top" xlink:title=" ">
<polygon fill="white" stroke="black" points="630.5,-0.5 630.5,-30.5 735.5,-30.5 735.5,-0.5 630.5,-0.5"/>
<text text-anchor="start" x="638.5" y="-18.5" font-family="Helvetica,sans-Serif" font-size="10.00">ee/kernel/src/osdsrc</text>
<text text-anchor="middle" x="683" y="-7.5" font-family="Helvetica,sans-Serif" font-size="10.00">/src/osd.c</text>
</a>
</g>
</g>
<!-- Node3&#45;&gt;Node9 -->
<g id="edge8" class="edge">
<title>Node3&#45;&gt;Node9</title>
<path fill="none" stroke="midnightblue" d="M637.17,-60.31C647.37,-50.56 659.19,-39.26 668.27,-30.58"/>
<polygon fill="midnightblue" stroke="midnightblue" points="634.57,-57.96 629.75,-67.4 639.4,-63.02 634.57,-57.96"/>
</g>
<!-- Node10 -->
<g id="node10" class="node">
<title>Node10</title>
<g id="a_node10"><a xlink:href="osdsrc_8c_source.html" target="_top" xlink:title=" ">
<polygon fill="white" stroke="black" points="753.5,-0.5 753.5,-30.5 858.5,-30.5 858.5,-0.5 753.5,-0.5"/>
<text text-anchor="start" x="761.5" y="-18.5" font-family="Helvetica,sans-Serif" font-size="10.00">ee/kernel/src/osdsrc</text>
<text text-anchor="middle" x="806" y="-7.5" font-family="Helvetica,sans-Serif" font-size="10.00">/src/osdsrc.c</text>
</a>
</g>
</g>
<!-- Node3&#45;&gt;Node10 -->
<g id="edge9" class="edge">
<title>Node3&#45;&gt;Node10</title>
<path fill="none" stroke="midnightblue" d="M666.15,-64.09C696.99,-53.6 735.75,-40.41 764.64,-30.58"/>
<polygon fill="midnightblue" stroke="midnightblue" points="664.78,-60.86 656.44,-67.4 667.04,-67.49 664.78,-60.86"/>
</g>
<!-- Node11 -->
<g id="node11" class="node">
<title>Node11</title>
<g id="a_node11"><a xlink:href="timezone_8c.html" target="_top" xlink:title=" ">
<polygon fill="white" stroke="black" points="876.5,-6 876.5,-25 1005.5,-25 1005.5,-6 876.5,-6"/>
<text text-anchor="middle" x="941" y="-13" font-family="Helvetica,sans-Serif" font-size="10.00">ee/libcglue/src/timezone.c</text>
</a>
</g>
</g>
<!-- Node3&#45;&gt;Node11 -->
<g id="edge10" class="edge">
<title>Node3&#45;&gt;Node11</title>
<path fill="none" stroke="midnightblue" d="M679.68,-68.6C744.52,-55.68 842.5,-36.14 898.24,-25.03"/>
<polygon fill="midnightblue" stroke="midnightblue" points="678.69,-65.23 669.57,-70.62 680.06,-72.1 678.69,-65.23"/>
</g>
<!-- Node3&#45;&gt;Node12 -->
<g id="edge11" class="edge">
<title>Node3&#45;&gt;Node12</title>
<path fill="none" stroke="midnightblue" d="M680.04,-74.91C759.22,-66.51 896.86,-50.69 1014,-31 1024.14,-29.3 1035.05,-27.15 1045.14,-25.03"/>
<polygon fill="midnightblue" stroke="midnightblue" points="679.32,-71.47 669.74,-76 680.05,-78.43 679.32,-71.47"/>
</g>
<!-- Node17 -->
<g id="node17" class="node">
<title>Node17</title>
<g id="a_node17"><a xlink:href="common_2sbus_2src_2irx__imports_8h_source.html" target="_top" xlink:title=" ">
<polygon fill="white" stroke="black" points="1198.5,-67.5 1198.5,-97.5 1305.5,-97.5 1305.5,-67.5 1198.5,-67.5"/>
<text text-anchor="start" x="1206.5" y="-85.5" font-family="Helvetica,sans-Serif" font-size="10.00">common/sbus/src/irx</text>
<text text-anchor="middle" x="1252" y="-74.5" font-family="Helvetica,sans-Serif" font-size="10.00">_imports.h</text>
</a>
</g>
</g>
<!-- Node16&#45;&gt;Node17 -->
<g id="edge17" class="edge">
<title>Node16&#45;&gt;Node17</title>
<path fill="none" stroke="midnightblue" d="M2456.4,-147.5C2250.24,-143.63 1539.83,-128.35 1315,-98 1312,-97.59 1308.93,-97.11 1305.84,-96.58"/>
<polygon fill="midnightblue" stroke="midnightblue" points="2456.63,-151 2466.69,-147.69 2456.76,-144 2456.63,-151"/>
</g>
<!-- Node18 -->
<g id="node18" class="node">
<title>Node18</title>
<g id="a_node18"><a xlink:href="iop_2cdvd_2cdfs_2src_2irx__imports_8h_source.html" target="_top" xlink:title=" ">
<polygon fill="white" stroke="black" points="1324,-67.5 1324,-97.5 1428,-97.5 1428,-67.5 1324,-67.5"/>
<text text-anchor="start" x="1332" y="-85.5" font-family="Helvetica,sans-Serif" font-size="10.00">iop/cdvd/cdfs/src/irx</text>
<text text-anchor="middle" x="1376" y="-74.5" font-family="Helvetica,sans-Serif" font-size="10.00">_imports.h</text>
</a>
</g>
</g>
<!-- Node16&#45;&gt;Node18 -->
<g id="edge18" class="edge">
<title>Node16&#45;&gt;Node18</title>
<path fill="none" stroke="midnightblue" d="M2456.79,-147.25C2264.95,-142.75 1636.9,-126.2 1437,-98 1434.09,-97.59 1431.11,-97.1 1428.12,-96.56"/>
<polygon fill="midnightblue" stroke="midnightblue" points="2456.85,-150.75 2466.93,-147.48 2457.01,-143.75 2456.85,-150.75"/>
</g>
<!-- Node19 -->
<g id="node19" class="node">
<title>Node19</title>
<g id="a_node19"><a xlink:href="iop_2debug_2iop__sbusdbg_2src_2irx__imports_8h_source.html" target="_top" xlink:title=" ">
<polygon fill="white" stroke="black" points="1446,-67.5 1446,-97.5 1562,-97.5 1562,-67.5 1446,-67.5"/>
<text text-anchor="start" x="1454" y="-85.5" font-family="Helvetica,sans-Serif" font-size="10.00">iop/debug/iop_sbusdbg</text>
<text text-anchor="middle" x="1504" y="-74.5" font-family="Helvetica,sans-Serif" font-size="10.00">/src/irx_imports.h</text>
</a>
</g>
</g>
<!-- Node16&#45;&gt;Node19 -->
<g id="edge19" class="edge">
<title>Node16&#45;&gt;Node19</title>
<path fill="none" stroke="midnightblue" d="M2456.58,-148.6C2309.88,-148.2 1904.68,-142.76 1571,-98 1568.05,-97.6 1565.04,-97.15 1562,-96.65"/>
<polygon fill="midnightblue" stroke="midnightblue" points="2456.68,-152.1 2466.69,-148.62 2456.69,-145.1 2456.68,-152.1"/>
</g>
<!-- Node20 -->
<g id="node20" class="node">
<title>Node20</title>
<g id="a_node20"><a xlink:href="iop_2debug_2iopdebug_2src_2irx__imports_8h_source.html" target="_top" xlink:title=" ">
<polygon fill="white" stroke="black" points="1580.5,-67.5 1580.5,-97.5 1681.5,-97.5 1681.5,-67.5 1580.5,-67.5"/>
<text text-anchor="start" x="1588.5" y="-85.5" font-family="Helvetica,sans-Serif" font-size="10.00">iop/debug/iopdebug</text>
<text text-anchor="middle" x="1631" y="-74.5" font-family="Helvetica,sans-Serif" font-size="10.00">/src/irx_imports.h</text>
</a>
</g>
</g>
<!-- Node16&#45;&gt;Node20 -->
<g id="edge20" class="edge">
<title>Node16&#45;&gt;Node20</title>
<path fill="none" stroke="midnightblue" d="M2456.73,-148.52C2322.97,-147.81 1975.85,-141.53 1690,-98 1687.29,-97.59 1684.52,-97.11 1681.73,-96.58"/>
<polygon fill="midnightblue" stroke="midnightblue" points="2456.72,-152.02 2466.74,-148.56 2456.76,-145.02 2456.72,-152.02"/>
</g>
<!-- Node21 -->
<g id="node21" class="node">
<title>Node21</title>
<g id="a_node21"><a xlink:href="diskio_8c_source.html" target="_top" xlink:title=" ">
<polygon fill="white" stroke="black" points="1699.5,-67.5 1699.5,-97.5 1794.5,-97.5 1794.5,-67.5 1699.5,-67.5"/>
<text text-anchor="start" x="1707.5" y="-85.5" font-family="Helvetica,sans-Serif" font-size="10.00">iop/fs/bdmfs_fatfs</text>
<text text-anchor="middle" x="1747" y="-74.5" font-family="Helvetica,sans-Serif" font-size="10.00">/src/diskio.c</text>
</a>
</g>
</g>
<!-- Node16&#45;&gt;Node21 -->
<g id="edge21" class="edge">
<title>Node16&#45;&gt;Node21</title>
<path fill="none" stroke="midnightblue" d="M2456.88,-147.97C2336.36,-146.09 2044.15,-137.46 1803,-98 1800.22,-97.55 1797.39,-97.02 1794.53,-96.44"/>
<polygon fill="midnightblue" stroke="midnightblue" points="2456.93,-151.48 2466.98,-148.12 2457.03,-144.48 2456.93,-151.48"/>
</g>
<!-- Node22 -->
<g id="node22" class="node">
<title>Node22</title>
<g id="a_node22"><a xlink:href="iop_2fs_2bdmfs__fatfs_2src_2irx__imports_8h_source.html" target="_top" xlink:title=" ">
<polygon fill="white" stroke="black" points="1812.5,-67.5 1812.5,-97.5 1907.5,-97.5 1907.5,-67.5 1812.5,-67.5"/>
<text text-anchor="start" x="1820.5" y="-85.5" font-family="Helvetica,sans-Serif" font-size="10.00">iop/fs/bdmfs_fatfs</text>
<text text-anchor="middle" x="1860" y="-74.5" font-family="Helvetica,sans-Serif" font-size="10.00">/src/irx_imports.h</text>
</a>
</g>
</g>
<!-- Node16&#45;&gt;Node22 -->
<g id="edge22" class="edge">
<title>Node16&#45;&gt;Node22</title>
<path fill="none" stroke="midnightblue" d="M2456.8,-146.91C2350.5,-143.2 2112.98,-131.58 1916,-98 1913.23,-97.53 1910.39,-96.98 1907.54,-96.39"/>
<polygon fill="midnightblue" stroke="midnightblue" points="2456.87,-150.41 2466.98,-147.25 2457.1,-143.42 2456.87,-150.41"/>
</g>
<!-- Node23 -->
<g id="node23" class="node">
<title>Node23</title>
<g id="a_node23"><a xlink:href="iop_2fs_2bdmfs__fatfs_2src_2main_8c_source.html" target="_top" xlink:title=" ">
<polygon fill="white" stroke="black" points="1925.5,-67.5 1925.5,-97.5 2020.5,-97.5 2020.5,-67.5 1925.5,-67.5"/>
<text text-anchor="start" x="1933.5" y="-85.5" font-family="Helvetica,sans-Serif" font-size="10.00">iop/fs/bdmfs_fatfs</text>
<text text-anchor="middle" x="1973" y="-74.5" font-family="Helvetica,sans-Serif" font-size="10.00">/src/main.c</text>
</a>
</g>
</g>
<!-- Node16&#45;&gt;Node23 -->
<g id="edge23" class="edge">
<title>Node16&#45;&gt;Node23</title>
<path fill="none" stroke="midnightblue" d="M2456.92,-145.38C2366.35,-139.72 2182.5,-125.72 2029,-98 2026.23,-97.5 2023.4,-96.94 2020.55,-96.33"/>
<polygon fill="midnightblue" stroke="midnightblue" points="2456.77,-148.87 2466.97,-145.99 2457.2,-141.89 2456.77,-148.87"/>
</g>
<!-- Node24 -->
<g id="node24" class="node">
<title>Node24</title>
<g id="a_node24"><a xlink:href="fs_2bdmfs__vfat_2src_2fat__write_8c_source.html" target="_top" xlink:title=" ">
<polygon fill="white" stroke="black" points="2038.5,-67.5 2038.5,-97.5 2147.5,-97.5 2147.5,-67.5 2038.5,-67.5"/>
<text text-anchor="start" x="2046.5" y="-85.5" font-family="Helvetica,sans-Serif" font-size="10.00">iop/fs/bdmfs_vfat/src</text>
<text text-anchor="middle" x="2093" y="-74.5" font-family="Helvetica,sans-Serif" font-size="10.00">/fat_write.c</text>
</a>
</g>
</g>
<!-- Node16&#45;&gt;Node24 -->
<g id="edge24" class="edge">
<title>Node16&#45;&gt;Node24</title>
<path fill="none" stroke="midnightblue" d="M2456.86,-142.07C2386.34,-133.64 2261.74,-117.61 2156,-98 2153.24,-97.49 2150.42,-96.94 2147.58,-96.36"/>
<polygon fill="midnightblue" stroke="midnightblue" points="2456.52,-145.55 2466.87,-143.26 2457.35,-138.6 2456.52,-145.55"/>
</g>
<!-- Node25 -->
<g id="node25" class="node">
<title>Node25</title>
<g id="a_node25"><a xlink:href="iop_2fs_2bdmfs__vfat_2src_2irx__imports_8h_source.html" target="_top" xlink:title=" ">
<polygon fill="white" stroke="black" points="2165.5,-67.5 2165.5,-97.5 2274.5,-97.5 2274.5,-67.5 2165.5,-67.5"/>
<text text-anchor="start" x="2173.5" y="-85.5" font-family="Helvetica,sans-Serif" font-size="10.00">iop/fs/bdmfs_vfat/src</text>
<text text-anchor="middle" x="2220" y="-74.5" font-family="Helvetica,sans-Serif" font-size="10.00">/irx_imports.h</text>
</a>
</g>
</g>
<!-- Node16&#45;&gt;Node25 -->
<g id="edge25" class="edge">
<title>Node16&#45;&gt;Node25</title>
<path fill="none" stroke="midnightblue" d="M2457.07,-136.26C2410.7,-126.09 2343.04,-111.2 2284,-98 2281,-97.33 2277.92,-96.64 2274.81,-95.94"/>
<polygon fill="midnightblue" stroke="midnightblue" points="2456.41,-139.7 2466.93,-138.42 2457.91,-132.86 2456.41,-139.7"/>
</g>
<!-- Node26 -->
<g id="node26" class="node">
<title>Node26</title>
<g id="a_node26"><a xlink:href="iop_2hdd_2apa_2src_2irx__imports_8h_source.html" target="_top" xlink:title=" ">
<polygon fill="white" stroke="black" points="2293,-67.5 2293,-97.5 2389,-97.5 2389,-67.5 2293,-67.5"/>
<text text-anchor="start" x="2301" y="-85.5" font-family="Helvetica,sans-Serif" font-size="10.00">iop/hdd/apa/src/irx</text>
<text text-anchor="middle" x="2341" y="-74.5" font-family="Helvetica,sans-Serif" font-size="10.00">_imports.h</text>
</a>
</g>
</g>
<!-- Node16&#45;&gt;Node26 -->
<g id="edge26" class="edge">
<title>Node16&#45;&gt;Node26</title>
<path fill="none" stroke="midnightblue" d="M2466.21,-130.82C2438.57,-120.37 2404.04,-107.32 2378.25,-97.58"/>
<polygon fill="midnightblue" stroke="midnightblue" points="2465.09,-134.13 2475.68,-134.4 2467.56,-127.59 2465.09,-134.13"/>
</g>
<!-- Node27 -->
<g id="node27" class="node">
<title>Node27</title>
<g id="a_node27"><a xlink:href="iop_2hdd_2pfs_2src_2irx__imports_8h_source.html" target="_top" xlink:title=" ">
<polygon fill="white" stroke="black" points="2407,-67.5 2407,-97.5 2501,-97.5 2501,-67.5 2407,-67.5"/>
<text text-anchor="start" x="2415" y="-85.5" font-family="Helvetica,sans-Serif" font-size="10.00">iop/hdd/pfs/src/irx</text>
<text text-anchor="middle" x="2454" y="-74.5" font-family="Helvetica,sans-Serif" font-size="10.00">_imports.h</text>
</a>
</g>
</g>
<!-- Node16&#45;&gt;Node27 -->
<g id="edge27" class="edge">
<title>Node16&#45;&gt;Node27</title>
<path fill="none" stroke="midnightblue" d="M2493.25,-126.74C2484.52,-117.12 2474.5,-106.09 2466.78,-97.58"/>
<polygon fill="midnightblue" stroke="midnightblue" points="2490.89,-129.34 2500.2,-134.4 2496.07,-124.64 2490.89,-129.34"/>
</g>
<!-- Node28 -->
<g id="node28" class="node">
<title>Node28</title>
<g id="a_node28"><a xlink:href="iop_2i_link_2_i_e_e_e1394__bd_2src_2irx__imports_8h_source.html" target="_top" xlink:title=" ">
<polygon fill="white" stroke="black" points="2519.5,-67.5 2519.5,-97.5 2626.5,-97.5 2626.5,-67.5 2519.5,-67.5"/>
<text text-anchor="start" x="2527.5" y="-85.5" font-family="Helvetica,sans-Serif" font-size="10.00">iop/iLink/IEEE1394</text>
<text text-anchor="middle" x="2573" y="-74.5" font-family="Helvetica,sans-Serif" font-size="10.00">_bd/src/irx_imports.h</text>
</a>
</g>
</g>
<!-- Node16&#45;&gt;Node28 -->
<g id="edge28" class="edge">
<title>Node16&#45;&gt;Node28</title>
<path fill="none" stroke="midnightblue" d="M2532.82,-127.02C2541.76,-117.34 2552.07,-106.17 2560.01,-97.58"/>
<polygon fill="midnightblue" stroke="midnightblue" points="2530.23,-124.67 2526.02,-134.4 2535.37,-129.42 2530.23,-124.67"/>
</g>
<!-- Node29 -->
<g id="node29" class="node">
<title>Node29</title>
<g id="a_node29"><a xlink:href="i_link_2_i_e_e_e1394__disk_2src_2fat__write_8c_source.html" target="_top" xlink:title=" ">
<polygon fill="white" stroke="black" points="2645,-67.5 2645,-97.5 2749,-97.5 2749,-67.5 2645,-67.5"/>
<text text-anchor="start" x="2653" y="-85.5" font-family="Helvetica,sans-Serif" font-size="10.00">iop/iLink/IEEE1394</text>
<text text-anchor="middle" x="2697" y="-74.5" font-family="Helvetica,sans-Serif" font-size="10.00">_disk/src/fat_write.c</text>
</a>
</g>
</g>
<!-- Node16&#45;&gt;Node29 -->
<g id="edge29" class="edge">
<title>Node16&#45;&gt;Node29</title>
<path fill="none" stroke="midnightblue" d="M2562.67,-130.96C2592.3,-120.48 2629.44,-107.37 2657.15,-97.58"/>
<polygon fill="midnightblue" stroke="midnightblue" points="2561.19,-127.76 2552.93,-134.4 2563.52,-134.37 2561.19,-127.76"/>
</g>
<!-- Node30 -->
<g id="node30" class="node">
<title>Node30</title>
<g id="a_node30"><a xlink:href="iop_2i_link_2_i_e_e_e1394__disk_2src_2irx__imports_8h_source.html" target="_top" xlink:title=" ">
<polygon fill="white" stroke="black" points="2767,-67.5 2767,-97.5 2881,-97.5 2881,-67.5 2767,-67.5"/>
<text text-anchor="start" x="2775" y="-85.5" font-family="Helvetica,sans-Serif" font-size="10.00">iop/iLink/IEEE1394</text>
<text text-anchor="middle" x="2824" y="-74.5" font-family="Helvetica,sans-Serif" font-size="10.00">_disk/src/irx_imports.h</text>
</a>
</g>
</g>
<!-- Node16&#45;&gt;Node30 -->
<g id="edge30" class="edge">
<title>Node16&#45;&gt;Node30</title>
<path fill="none" stroke="midnightblue" d="M2569,-137.17C2618.69,-127.07 2693.23,-111.79 2758,-98 2760.87,-97.39 2763.81,-96.76 2766.77,-96.12"/>
<polygon fill="midnightblue" stroke="midnightblue" points="2568.2,-133.76 2559.1,-139.18 2569.59,-140.62 2568.2,-133.76"/>
</g>
<!-- Node31 -->
<g id="node31" class="node">
<title>Node31</title>
<g id="a_node31"><a xlink:href="i_link__internal_8c_source.html" target="_top" xlink:title=" ">
<polygon fill="white" stroke="black" points="2899.5,-67.5 2899.5,-97.5 3000.5,-97.5 3000.5,-67.5 2899.5,-67.5"/>
<text text-anchor="start" x="2907.5" y="-85.5" font-family="Helvetica,sans-Serif" font-size="10.00">iop/iLink/iLinkman</text>
<text text-anchor="middle" x="2950" y="-74.5" font-family="Helvetica,sans-Serif" font-size="10.00">/src/iLink_internal.c</text>
</a>
</g>
</g>
<!-- Node16&#45;&gt;Node31 -->
<g id="edge31" class="edge">
<title>Node16&#45;&gt;Node31</title>
<path fill="none" stroke="midnightblue" d="M2569.11,-142.83C2643.02,-134.93 2776.87,-119.19 2890,-98 2893.05,-97.43 2896.19,-96.8 2899.34,-96.13"/>
<polygon fill="midnightblue" stroke="midnightblue" points="2568.67,-139.35 2559.09,-143.89 2569.4,-146.32 2568.67,-139.35"/>
</g>
<!-- Node32 -->
<g id="node32" class="node">
<title>Node32</title>
<g id="a_node32"><a xlink:href="iop_2i_link_2i_linkman_2src_2irx__imports_8h_source.html" target="_top" xlink:title=" ">
<polygon fill="white" stroke="black" points="3019,-67.5 3019,-97.5 3115,-97.5 3115,-67.5 3019,-67.5"/>
<text text-anchor="start" x="3027" y="-85.5" font-family="Helvetica,sans-Serif" font-size="10.00">iop/iLink/iLinkman</text>
<text text-anchor="middle" x="3067" y="-74.5" font-family="Helvetica,sans-Serif" font-size="10.00">/src/irx_imports.h</text>
</a>
</g>
</g>
<!-- Node16&#45;&gt;Node32 -->
<g id="edge32" class="edge">
<title>Node16&#45;&gt;Node32</title>
<path fill="none" stroke="midnightblue" d="M2569.36,-145.4C2661.75,-139.74 2850.96,-125.65 3009,-98 3012.17,-97.45 3015.42,-96.81 3018.69,-96.13"/>
<polygon fill="midnightblue" stroke="midnightblue" points="2568.89,-141.92 2559.12,-146.02 2569.31,-148.91 2568.89,-141.92"/>
</g>
<!-- Node33 -->
<g id="node33" class="node">
<title>Node33</title>
<g id="a_node33"><a xlink:href="iop_2memorycard_2mcman_2src_2irx__imports_8h_source.html" target="_top" xlink:title=" ">
<polygon fill="white" stroke="black" points="3133.5,-67.5 3133.5,-97.5 3254.5,-97.5 3254.5,-67.5 3133.5,-67.5"/>
<text text-anchor="start" x="3141.5" y="-85.5" font-family="Helvetica,sans-Serif" font-size="10.00">iop/memorycard/mcman</text>
<text text-anchor="middle" x="3194" y="-74.5" font-family="Helvetica,sans-Serif" font-size="10.00">/src/irx_imports.h</text>
</a>
</g>
</g>
<!-- Node16&#45;&gt;Node33 -->
<g id="edge33" class="edge">
<title>Node16&#45;&gt;Node33</title>
<path fill="none" stroke="midnightblue" d="M2569.22,-146.15C2677.21,-141.12 2920.91,-127.32 3124,-98 3127.07,-97.56 3130.21,-97.06 3133.37,-96.53"/>
<polygon fill="midnightblue" stroke="midnightblue" points="2569.03,-142.65 2559.2,-146.6 2569.35,-149.64 2569.03,-142.65"/>
</g>
<!-- Node34 -->
<g id="node34" class="node">
<title>Node34</title>
<g id="a_node34"><a xlink:href="mcman-internal_8h_source.html" target="_top" xlink:title=" ">
<polygon fill="white" stroke="black" points="3272.5,-67.5 3272.5,-97.5 3393.5,-97.5 3393.5,-67.5 3272.5,-67.5"/>
<text text-anchor="start" x="3280.5" y="-85.5" font-family="Helvetica,sans-Serif" font-size="10.00">iop/memorycard/mcman</text>
<text text-anchor="middle" x="3333" y="-74.5" font-family="Helvetica,sans-Serif" font-size="10.00">/src/mcman&#45;internal.h</text>
</a>
</g>
</g>
<!-- Node16&#45;&gt;Node34 -->
<g id="edge34" class="edge">
<title>Node16&#45;&gt;Node34</title>
<path fill="none" stroke="midnightblue" d="M2569.52,-147.4C2695.01,-144.36 3006.2,-133.58 3264,-98 3266.67,-97.63 3269.39,-97.22 3272.13,-96.77"/>
<polygon fill="midnightblue" stroke="midnightblue" points="2569.29,-143.9 2559.38,-147.64 2569.46,-150.9 2569.29,-143.9"/>
</g>
<!-- Node40 -->
<g id="node40" class="node">
<title>Node40</title>
<g id="a_node40"><a xlink:href="cdrom_8c.html" target="_top" xlink:title=" ">
<polygon fill="white" stroke="black" points="3411.5,-67.5 3411.5,-97.5 3518.5,-97.5 3518.5,-67.5 3411.5,-67.5"/>
<text text-anchor="start" x="3419.5" y="-85.5" font-family="Helvetica,sans-Serif" font-size="10.00">iop/sound/audsrv/src</text>
<text text-anchor="middle" x="3465" y="-74.5" font-family="Helvetica,sans-Serif" font-size="10.00">/cdrom.c</text>
</a>
</g>
</g>
<!-- Node16&#45;&gt;Node40 -->
<g id="edge40" class="edge">
<title>Node16&#45;&gt;Node40</title>
<path fill="none" stroke="midnightblue" d="M2569.27,-148.67C2710.37,-148.38 3090.3,-143.09 3403,-98 3405.74,-97.61 3408.53,-97.15 3411.34,-96.65"/>
<polygon fill="midnightblue" stroke="midnightblue" points="2569.13,-145.17 2559.13,-148.69 2569.14,-152.17 2569.13,-145.17"/>
</g>
<!-- Node41 -->
<g id="node41" class="node">
<title>Node41</title>
<g id="a_node41"><a xlink:href="iop_2sound_2audsrv_2src_2irx__imports_8h_source.html" target="_top" xlink:title=" ">
<polygon fill="white" stroke="black" points="3536.5,-67.5 3536.5,-97.5 3643.5,-97.5 3643.5,-67.5 3536.5,-67.5"/>
<text text-anchor="start" x="3544.5" y="-85.5" font-family="Helvetica,sans-Serif" font-size="10.00">iop/sound/audsrv/src</text>
<text text-anchor="middle" x="3590" y="-74.5" font-family="Helvetica,sans-Serif" font-size="10.00">/irx_imports.h</text>
</a>
</g>
</g>
<!-- Node16&#45;&gt;Node41 -->
<g id="edge41" class="edge">
<title>Node16&#45;&gt;Node41</title>
<path fill="none" stroke="midnightblue" d="M2569.22,-149.24C2723.35,-150.5 3165.29,-149.01 3528,-98 3530.74,-97.62 3533.53,-97.17 3536.34,-96.67"/>
<polygon fill="midnightblue" stroke="midnightblue" points="2569.09,-145.74 2559.05,-149.15 2569.02,-152.74 2569.09,-145.74"/>
</g>
<!-- Node42 -->
<g id="node42" class="node">
<title>Node42</title>
<g id="a_node42"><a xlink:href="api_8c_source.html" target="_top" xlink:title=" ">
<polygon fill="white" stroke="black" points="3661.5,-67.5 3661.5,-97.5 3768.5,-97.5 3768.5,-67.5 3661.5,-67.5"/>
<text text-anchor="start" x="3669.5" y="-85.5" font-family="Helvetica,sans-Serif" font-size="10.00">iop/usb/usbhdfsd/src</text>
<text text-anchor="middle" x="3715" y="-74.5" font-family="Helvetica,sans-Serif" font-size="10.00">/api.c</text>
</a>
</g>
</g>
<!-- Node16&#45;&gt;Node42 -->
<g id="edge42" class="edge">
<title>Node16&#45;&gt;Node42</title>
<path fill="none" stroke="midnightblue" d="M2569.51,-147.38C2769.05,-143.23 3440.07,-127.36 3653,-98 3655.74,-97.62 3658.53,-97.18 3661.35,-96.69"/>
<polygon fill="midnightblue" stroke="midnightblue" points="2569.18,-143.89 2559.25,-147.6 2569.32,-150.89 2569.18,-143.89"/>
</g>
<!-- Node43 -->
<g id="node43" class="node">
<title>Node43</title>
<g id="a_node43"><a xlink:href="usb_2usbhdfsd_2src_2fat__write_8c_source.html" target="_top" xlink:title=" ">
<polygon fill="white" stroke="black" points="3786.5,-67.5 3786.5,-97.5 3893.5,-97.5 3893.5,-67.5 3786.5,-67.5"/>
<text text-anchor="start" x="3794.5" y="-85.5" font-family="Helvetica,sans-Serif" font-size="10.00">iop/usb/usbhdfsd/src</text>
<text text-anchor="middle" x="3840" y="-74.5" font-family="Helvetica,sans-Serif" font-size="10.00">/fat_write.c</text>
</a>
</g>
</g>
<!-- Node16&#45;&gt;Node43 -->
<g id="edge43" class="edge">
<title>Node16&#45;&gt;Node43</title>
<path fill="none" stroke="midnightblue" d="M2569.22,-147.67C2782.19,-144.33 3539.34,-130.37 3778,-98 3780.74,-97.63 3783.53,-97.19 3786.35,-96.7"/>
<polygon fill="midnightblue" stroke="midnightblue" points="2569.14,-144.18 2559.2,-147.83 2569.25,-151.17 2569.14,-144.18"/>
</g>
<!-- Node44 -->
<g id="node44" class="node">
<title>Node44</title>
<g id="a_node44"><a xlink:href="iop_2usb_2usbhdfsd_2src_2irx__imports_8h_source.html" target="_top" xlink:title=" ">
<polygon fill="white" stroke="black" points="3911.5,-67.5 3911.5,-97.5 4018.5,-97.5 4018.5,-67.5 3911.5,-67.5"/>
<text text-anchor="start" x="3919.5" y="-85.5" font-family="Helvetica,sans-Serif" font-size="10.00">iop/usb/usbhdfsd/src</text>
<text text-anchor="middle" x="3965" y="-74.5" font-family="Helvetica,sans-Serif" font-size="10.00">/irx_imports.h</text>
</a>
</g>
</g>
<!-- Node16&#45;&gt;Node44 -->
<g id="edge44" class="edge">
<title>Node16&#45;&gt;Node44</title>
<path fill="none" stroke="midnightblue" d="M2569.41,-147.91C2795.78,-145.3 3638.68,-133.37 3903,-98 3905.74,-97.63 3908.53,-97.2 3911.35,-96.72"/>
<polygon fill="midnightblue" stroke="midnightblue" points="2569.06,-144.41 2559.1,-148.02 2569.14,-151.41 2569.06,-144.41"/>
</g>
<!-- Node35 -->
<g id="node35" class="node">
<title>Node35</title>
<g id="a_node35"><a xlink:href="iop_2memorycard_2mcman_2src_2main_8c_source.html" target="_top" xlink:title=" ">
<polygon fill="white" stroke="black" points="2994.5,-0.5 2994.5,-30.5 3115.5,-30.5 3115.5,-0.5 2994.5,-0.5"/>
<text text-anchor="start" x="3002.5" y="-18.5" font-family="Helvetica,sans-Serif" font-size="10.00">iop/memorycard/mcman</text>
<text text-anchor="middle" x="3055" y="-7.5" font-family="Helvetica,sans-Serif" font-size="10.00">/src/main.c</text>
</a>
</g>
</g>
<!-- Node34&#45;&gt;Node35 -->
<g id="edge35" class="edge">
<title>Node34&#45;&gt;Node35</title>
<path fill="none" stroke="midnightblue" d="M3263.22,-65.19C3217.7,-54.54 3158.86,-40.78 3115.35,-30.61"/>
<polygon fill="midnightblue" stroke="midnightblue" points="3262.49,-68.61 3273.02,-67.48 3264.08,-61.79 3262.49,-68.61"/>
</g>
<!-- Node36 -->
<g id="node36" class="node">
<title>Node36</title>
<g id="a_node36"><a xlink:href="mcdev_8c_source.html" target="_top" xlink:title=" ">
<polygon fill="white" stroke="black" points="3133.5,-0.5 3133.5,-30.5 3254.5,-30.5 3254.5,-0.5 3133.5,-0.5"/>
<text text-anchor="start" x="3141.5" y="-18.5" font-family="Helvetica,sans-Serif" font-size="10.00">iop/memorycard/mcman</text>
<text text-anchor="middle" x="3194" y="-7.5" font-family="Helvetica,sans-Serif" font-size="10.00">/src/mcdev.c</text>
</a>
</g>
</g>
<!-- Node34&#45;&gt;Node36 -->
<g id="edge36" class="edge">
<title>Node34&#45;&gt;Node36</title>
<path fill="none" stroke="midnightblue" d="M3293.72,-63.13C3271.63,-52.8 3244.49,-40.11 3224.1,-30.58"/>
<polygon fill="midnightblue" stroke="midnightblue" points="3292.3,-66.33 3302.84,-67.4 3295.26,-59.99 3292.3,-66.33"/>
</g>
<!-- Node37 -->
<g id="node37" class="node">
<title>Node37</title>
<g id="a_node37"><a xlink:href="mcsio2_8c_source.html" target="_top" xlink:title=" ">
<polygon fill="white" stroke="black" points="3272.5,-0.5 3272.5,-30.5 3393.5,-30.5 3393.5,-0.5 3272.5,-0.5"/>
<text text-anchor="start" x="3280.5" y="-18.5" font-family="Helvetica,sans-Serif" font-size="10.00">iop/memorycard/mcman</text>
<text text-anchor="middle" x="3333" y="-7.5" font-family="Helvetica,sans-Serif" font-size="10.00">/src/mcsio2.c</text>
</a>
</g>
</g>
<!-- Node34&#45;&gt;Node37 -->
<g id="edge37" class="edge">
<title>Node34&#45;&gt;Node37</title>
<path fill="none" stroke="midnightblue" d="M3333,-57.11C3333,-48.15 3333,-38.32 3333,-30.58"/>
<polygon fill="midnightblue" stroke="midnightblue" points="3329.5,-57.4 3333,-67.4 3336.5,-57.4 3329.5,-57.4"/>
</g>
<!-- Node38 -->
<g id="node38" class="node">
<title>Node38</title>
<g id="a_node38"><a xlink:href="ps1mc__fio_8c_source.html" target="_top" xlink:title=" ">
<polygon fill="white" stroke="black" points="3411.5,-0.5 3411.5,-30.5 3532.5,-30.5 3532.5,-0.5 3411.5,-0.5"/>
<text text-anchor="start" x="3419.5" y="-18.5" font-family="Helvetica,sans-Serif" font-size="10.00">iop/memorycard/mcman</text>
<text text-anchor="middle" x="3472" y="-7.5" font-family="Helvetica,sans-Serif" font-size="10.00">/src/ps1mc_fio.c</text>
</a>
</g>
</g>
<!-- Node34&#45;&gt;Node38 -->
<g id="edge38" class="edge">
<title>Node34&#45;&gt;Node38</title>
<path fill="none" stroke="midnightblue" d="M3372.28,-63.13C3394.37,-52.8 3421.51,-40.11 3441.9,-30.58"/>
<polygon fill="midnightblue" stroke="midnightblue" points="3370.74,-59.99 3363.16,-67.4 3373.7,-66.33 3370.74,-59.99"/>
</g>
<!-- Node39 -->
<g id="node39" class="node">
<title>Node39</title>
<g id="a_node39"><a xlink:href="ps2mc__fio_8c_source.html" target="_top" xlink:title=" ">
<polygon fill="white" stroke="black" points="3550.5,-0.5 3550.5,-30.5 3671.5,-30.5 3671.5,-0.5 3550.5,-0.5"/>
<text text-anchor="start" x="3558.5" y="-18.5" font-family="Helvetica,sans-Serif" font-size="10.00">iop/memorycard/mcman</text>
<text text-anchor="middle" x="3611" y="-7.5" font-family="Helvetica,sans-Serif" font-size="10.00">/src/ps2mc_fio.c</text>
</a>
</g>
</g>
<!-- Node34&#45;&gt;Node39 -->
<g id="edge39" class="edge">
<title>Node34&#45;&gt;Node39</title>
<path fill="none" stroke="midnightblue" d="M3402.78,-65.19C3448.3,-54.54 3507.14,-40.78 3550.65,-30.61"/>
<polygon fill="midnightblue" stroke="midnightblue" points="3401.92,-61.79 3392.98,-67.48 3403.51,-68.61 3401.92,-61.79"/>
</g>
</g>
</svg>
        <g id="navigator" transform="translate(0 0)" fill="#404254">
                <rect fill="#f2f5e9" fill-opacity="0.5" stroke="#606060" stroke-width=".5" x="0" y="0" width="60" height="60"/>
                <use id="zoomplus" xlink:href="#zoomPlus" x="17" y="9" onmousedown="handleZoom(evt,'in')"/>
                <use id="zoomminus" xlink:href="#zoomMin" x="42" y="9" onmousedown="handleZoom(evt,'out')"/>
                <use id="reset" xlink:href="#resetDef" x="30" y="36" onmousedown="handleReset()"/>
                <g id="arrowUp" xlink:href="#dirArrow" transform="translate(30 24)" onmousedown="handlePan(0,-1)">
                  <use xlink:href="#rim" fill="#404040">
                        <set attributeName="fill" to="#808080" begin="arrowUp.mouseover" end="arrowUp.mouseout"/>
                  </use>
                  <path fill="none" stroke="white" stroke-width="1.5" d="M0,-3.0v7 M-2.5,-0.5L0,-3.0L2.5,-0.5"/>
                </g>
                <g id="arrowRight" xlink:href="#dirArrow" transform="rotate(90) translate(36 -43)" onmousedown="handlePan(1,0)">
                  <use xlink:href="#rim" fill="#404040">
                        <set attributeName="fill" to="#808080" begin="arrowRight.mouseover" end="arrowRight.mouseout"/>
                  </use>
                  <path fill="none" stroke="white" stroke-width="1.5" d="M0,-3.0v7 M-2.5,-0.5L0,-3.0L2.5,-0.5"/>
                </g>
                <g id="arrowDown" xlink:href="#dirArrow" transform="rotate(180) translate(-30 -48)" onmousedown="handlePan(0,1)">
                  <use xlink:href="#rim" fill="#404040">
                        <set attributeName="fill" to="#808080" begin="arrowDown.mouseover" end="arrowDown.mouseout"/>
                  </use>
                  <path fill="none" stroke="white" stroke-width="1.5" d="M0,-3.0v7 M-2.5,-0.5L0,-3.0L2.5,-0.5"/>
                </g>
                <g id="arrowLeft" xlink:href="#dirArrow" transform="rotate(270) translate(-36 17)" onmousedown="handlePan(-1,0)">
                  <use xlink:href="#rim" fill="#404040">
                        <set attributeName="fill" to="#808080" begin="arrowLeft.mouseover" end="arrowLeft.mouseout"/>
                  </use>
                  <path fill="none" stroke="white" stroke-width="1.5" d="M0,-3.0v7 M-2.5,-0.5L0,-3.0L2.5,-0.5"/>
                </g>
        </g>
        <svg viewBox="0 0 15 15" width="100%" height="30px" preserveAspectRatio="xMaxYMin meet">
         <g id="arrow_out" transform="scale(0.3 0.3)">
          <a xlink:href="libcdvd-common_8h__dep__incl_org.svg" target="_base">
           <rect id="button" ry="5" rx="5" y="6" x="6" height="38" width="38"
                fill="#f2f5e9" fill-opacity="0.5" stroke="#606060" stroke-width="1.0"/>
           <path id="arrow"
             d="M 11.500037,31.436501 C 11.940474,20.09759 22.043105,11.32322 32.158766,21.979434 L 37.068811,17.246167 C 37.068811,17.246167 37.088388,32 37.088388,32 L 22.160133,31.978069 C 22.160133,31.978069 26.997745,27.140456 26.997745,27.140456 C 18.528582,18.264221 13.291696,25.230495 11.500037,31.436501 z"
             style="fill:#404040;"/>
          </a>
         </g>
        </svg>
</svg>
