<?xml version="1.0" encoding="UTF-8" standalone="no"?>
<!DOCTYPE svg PUBLIC "-//W3C//DTD SVG 1.1//EN"
 "http://www.w3.org/Graphics/SVG/1.1/DTD/svg11.dtd">
<!-- Generated by graphviz version 3.0.0 (20220413.0242)
 -->
<!-- Title: ee/rpc/keyboard/src/libkbd.c Pages: 1 -->
<svg width="371pt" height="207pt"
 viewBox="0.00 0.00 370.78 207.00" xmlns="http://www.w3.org/2000/svg" xmlns:xlink="http://www.w3.org/1999/xlink">
<g id="graph0" class="graph" transform="scale(1 1) rotate(0) translate(4 203)">
<title>ee/rpc/keyboard/src/libkbd.c</title>
<polygon fill="white" stroke="transparent" points="-4,4 -4,-203 366.78,-203 366.78,4 -4,4"/>
<!-- Node1 -->
<g id="node1" class="node">
<title>Node1</title>
<g id="a_node1"><a xlink:title=" ">
<polygon fill="#bfbfbf" stroke="black" points="62.78,-168.5 62.78,-198.5 164.78,-198.5 164.78,-168.5 62.78,-168.5"/>
<text text-anchor="start" x="70.78" y="-186.5" font-family="Helvetica,sans-Serif" font-size="10.00">ee/rpc/keyboard/src</text>
<text text-anchor="middle" x="113.78" y="-175.5" font-family="Helvetica,sans-Serif" font-size="10.00">/libkbd.c</text>
</a>
</g>
</g>
<!-- Node2 -->
<g id="node2" class="node">
<title>Node2</title>
<g id="a_node2"><a xlink:href="tamtypes_8h.html" target="_top" xlink:title=" ">
<polygon fill="white" stroke="black" points="233.78,-0.5 233.78,-19.5 297.78,-19.5 297.78,-0.5 233.78,-0.5"/>
<text text-anchor="middle" x="265.78" y="-7.5" font-family="Helvetica,sans-Serif" font-size="10.00">tamtypes.h</text>
</a>
</g>
</g>
<!-- Node1&#45;&gt;Node2 -->
<g id="edge1" class="edge">
<title>Node1&#45;&gt;Node2</title>
<path fill="none" stroke="midnightblue" d="M65.78,-168.45C47.74,-160.67 28.91,-149.02 17.78,-132 -0.72,-103.69 -7.93,-81.93 13.78,-56 40,-24.69 158.43,-15.14 223.18,-12.25"/>
<polygon fill="midnightblue" stroke="midnightblue" points="223.62,-15.73 233.47,-11.82 223.33,-8.74 223.62,-15.73"/>
</g>
<!-- Node3 -->
<g id="node3" class="node">
<title>Node3</title>
<g id="a_node3"><a xlink:href="fcntl_8h_source.html" target="_top" xlink:title=" ">
<polygon fill="white" stroke="black" points="27.28,-112.5 27.28,-131.5 70.28,-131.5 70.28,-112.5 27.28,-112.5"/>
<text text-anchor="middle" x="48.78" y="-119.5" font-family="Helvetica,sans-Serif" font-size="10.00">fcntl.h</text>
</a>
</g>
</g>
<!-- Node1&#45;&gt;Node3 -->
<g id="edge2" class="edge">
<title>Node1&#45;&gt;Node3</title>
<path fill="none" stroke="midnightblue" d="M98.38,-168.4C88.54,-159.4 75.79,-147.72 65.68,-138.47"/>
<polygon fill="midnightblue" stroke="midnightblue" points="67.98,-135.83 58.24,-131.66 63.25,-140.99 67.98,-135.83"/>
</g>
<!-- Node4 -->
<g id="node4" class="node">
<title>Node4</title>
<g id="a_node4"><a xlink:href="unistd_8h_source.html" target="_top" xlink:title=" ">
<polygon fill="white" stroke="black" points="88.78,-112.5 88.78,-131.5 138.78,-131.5 138.78,-112.5 88.78,-112.5"/>
<text text-anchor="middle" x="113.78" y="-119.5" font-family="Helvetica,sans-Serif" font-size="10.00">unistd.h</text>
</a>
</g>
</g>
<!-- Node1&#45;&gt;Node4 -->
<g id="edge3" class="edge">
<title>Node1&#45;&gt;Node4</title>
<path fill="none" stroke="midnightblue" d="M113.78,-168.4C113.78,-160.47 113.78,-150.46 113.78,-141.86"/>
<polygon fill="midnightblue" stroke="midnightblue" points="117.28,-141.66 113.78,-131.66 110.28,-141.66 117.28,-141.66"/>
</g>
<!-- Node5 -->
<g id="node5" class="node">
<title>Node5</title>
<g id="a_node5"><a xlink:href="ps2sdkapi_8h_source.html" target="_top" xlink:title=" ">
<polygon fill="white" stroke="black" points="156.78,-112.5 156.78,-131.5 224.78,-131.5 224.78,-112.5 156.78,-112.5"/>
<text text-anchor="middle" x="190.78" y="-119.5" font-family="Helvetica,sans-Serif" font-size="10.00">ps2sdkapi.h</text>
</a>
</g>
</g>
<!-- Node1&#45;&gt;Node5 -->
<g id="edge4" class="edge">
<title>Node1&#45;&gt;Node5</title>
<path fill="none" stroke="midnightblue" d="M132.03,-168.4C143.91,-159.22 159.39,-147.26 171.48,-137.92"/>
<polygon fill="midnightblue" stroke="midnightblue" points="173.81,-140.54 179.58,-131.66 169.53,-135 173.81,-140.54"/>
</g>
<!-- Node10 -->
<g id="node10" class="node">
<title>Node10</title>
<g id="a_node10"><a xlink:href="libkbd_8h.html" target="_top" xlink:title=" ">
<polygon fill="white" stroke="black" points="275.78,-112.5 275.78,-131.5 325.78,-131.5 325.78,-112.5 275.78,-112.5"/>
<text text-anchor="middle" x="300.78" y="-119.5" font-family="Helvetica,sans-Serif" font-size="10.00">libkbd.h</text>
</a>
</g>
</g>
<!-- Node1&#45;&gt;Node10 -->
<g id="edge10" class="edge">
<title>Node1&#45;&gt;Node10</title>
<path fill="none" stroke="midnightblue" d="M158.1,-168.4C191.09,-157.9 235.5,-143.77 265.97,-134.08"/>
<polygon fill="midnightblue" stroke="midnightblue" points="267.26,-137.34 275.73,-130.97 265.14,-130.67 267.26,-137.34"/>
</g>
<!-- Node6 -->
<g id="node6" class="node">
<title>Node6</title>
<g id="a_node6"><a xlink:title=" ">
<polygon fill="white" stroke="#bfbfbf" points="22.78,-56.5 22.78,-75.5 70.78,-75.5 70.78,-56.5 22.78,-56.5"/>
<text text-anchor="middle" x="46.78" y="-63.5" font-family="Helvetica,sans-Serif" font-size="10.00">dirent.h</text>
</a>
</g>
</g>
<!-- Node5&#45;&gt;Node6 -->
<g id="edge5" class="edge">
<title>Node5&#45;&gt;Node6</title>
<path fill="none" stroke="midnightblue" d="M167.97,-112.44C143.95,-103.44 105.95,-89.19 78.91,-79.05"/>
<polygon fill="midnightblue" stroke="midnightblue" points="80.09,-75.75 69.49,-75.52 77.63,-82.3 80.09,-75.75"/>
</g>
<!-- Node7 -->
<g id="node7" class="node">
<title>Node7</title>
<g id="a_node7"><a xlink:title=" ">
<polygon fill="white" stroke="#bfbfbf" points="88.78,-56.5 88.78,-75.5 146.78,-75.5 146.78,-56.5 88.78,-56.5"/>
<text text-anchor="middle" x="117.78" y="-63.5" font-family="Helvetica,sans-Serif" font-size="10.00">inttypes.h</text>
</a>
</g>
</g>
<!-- Node5&#45;&gt;Node7 -->
<g id="edge6" class="edge">
<title>Node5&#45;&gt;Node7</title>
<path fill="none" stroke="midnightblue" d="M179.05,-112.32C167.95,-104.11 151.04,-91.6 137.8,-81.81"/>
<polygon fill="midnightblue" stroke="midnightblue" points="139.85,-78.97 129.73,-75.83 135.68,-84.59 139.85,-78.97"/>
</g>
<!-- Node8 -->
<g id="node8" class="node">
<title>Node8</title>
<g id="a_node8"><a xlink:title=" ">
<polygon fill="white" stroke="#bfbfbf" points="165.28,-56.5 165.28,-75.5 224.28,-75.5 224.28,-56.5 165.28,-56.5"/>
<text text-anchor="middle" x="194.78" y="-63.5" font-family="Helvetica,sans-Serif" font-size="10.00">sys/stat.h</text>
</a>
</g>
</g>
<!-- Node5&#45;&gt;Node8 -->
<g id="edge7" class="edge">
<title>Node5&#45;&gt;Node8</title>
<path fill="none" stroke="midnightblue" d="M191.44,-112.08C191.97,-105.01 192.72,-94.86 193.38,-85.99"/>
<polygon fill="midnightblue" stroke="midnightblue" points="196.89,-85.98 194.13,-75.75 189.91,-85.47 196.89,-85.98"/>
</g>
<!-- Node9 -->
<g id="node9" class="node">
<title>Node9</title>
<g id="a_node9"><a xlink:href="timer_8h.html" target="_top" xlink:title=" ">
<polygon fill="white" stroke="black" points="242.78,-56.5 242.78,-75.5 288.78,-75.5 288.78,-56.5 242.78,-56.5"/>
<text text-anchor="middle" x="265.78" y="-63.5" font-family="Helvetica,sans-Serif" font-size="10.00">timer.h</text>
</a>
</g>
</g>
<!-- Node5&#45;&gt;Node9 -->
<g id="edge8" class="edge">
<title>Node5&#45;&gt;Node9</title>
<path fill="none" stroke="midnightblue" d="M202.83,-112.32C214.25,-104.11 231.61,-91.6 245.22,-81.81"/>
<polygon fill="midnightblue" stroke="midnightblue" points="247.44,-84.52 253.51,-75.83 243.35,-78.84 247.44,-84.52"/>
</g>
<!-- Node9&#45;&gt;Node2 -->
<g id="edge9" class="edge">
<title>Node9&#45;&gt;Node2</title>
<path fill="none" stroke="midnightblue" d="M265.78,-56.08C265.78,-49.01 265.78,-38.86 265.78,-29.99"/>
<polygon fill="midnightblue" stroke="midnightblue" points="269.28,-29.75 265.78,-19.75 262.28,-29.75 269.28,-29.75"/>
</g>
<!-- Node11 -->
<g id="node11" class="node">
<title>Node11</title>
<g id="a_node11"><a xlink:href="ee_2rpc_2keyboard_2include_2ps2kbd_8h.html" target="_top" xlink:title=" ">
<polygon fill="white" stroke="black" points="306.78,-56.5 306.78,-75.5 362.78,-75.5 362.78,-56.5 306.78,-56.5"/>
<text text-anchor="middle" x="334.78" y="-63.5" font-family="Helvetica,sans-Serif" font-size="10.00">ps2kbd.h</text>
</a>
</g>
</g>
<!-- Node10&#45;&gt;Node11 -->
<g id="edge11" class="edge">
<title>Node10&#45;&gt;Node11</title>
<path fill="none" stroke="midnightblue" d="M306.4,-112.08C311.15,-104.53 318.1,-93.49 323.93,-84.23"/>
<polygon fill="midnightblue" stroke="midnightblue" points="326.91,-86.08 329.27,-75.75 320.98,-82.35 326.91,-86.08"/>
</g>
<!-- Node11&#45;&gt;Node2 -->
<g id="edge12" class="edge">
<title>Node11&#45;&gt;Node2</title>
<path fill="none" stroke="midnightblue" d="M323.7,-56.32C313.3,-48.18 297.52,-35.84 285.06,-26.09"/>
<polygon fill="midnightblue" stroke="midnightblue" points="287.1,-23.24 277.07,-19.83 282.79,-28.75 287.1,-23.24"/>
</g>
</g>
</svg>
