<?xml version="1.0" encoding="UTF-8" standalone="no"?>
<!DOCTYPE svg PUBLIC "-//W3C//DTD SVG 1.1//EN"
 "http://www.w3.org/Graphics/SVG/1.1/DTD/svg11.dtd">
<!-- Generated by graphviz version 3.0.0 (20220413.0242)
 -->
<!-- Title: iop/kernel/include/limits.h Pages: 1 -->
<svg width="1942pt" height="117pt"
 viewBox="0.00 0.00 1941.50 117.00" xmlns="http://www.w3.org/2000/svg" xmlns:xlink="http://www.w3.org/1999/xlink">
<g id="graph0" class="graph" transform="scale(1 1) rotate(0) translate(4 113)">
<title>iop/kernel/include/limits.h</title>
<polygon fill="white" stroke="transparent" points="-4,4 -4,-113 1937.5,-113 1937.5,4 -4,4"/>
<!-- Node1 -->
<g id="node1" class="node">
<title>Node1</title>
<g id="a_node1"><a xlink:title=" ">
<polygon fill="#bfbfbf" stroke="black" points="868,-78.5 868,-108.5 960,-108.5 960,-78.5 868,-78.5"/>
<text text-anchor="start" x="876" y="-96.5" font-family="Helvetica,sans-Serif" font-size="10.00">iop/kernel/include</text>
<text text-anchor="middle" x="914" y="-85.5" font-family="Helvetica,sans-Serif" font-size="10.00">/limits.h</text>
</a>
</g>
</g>
<!-- Node2 -->
<g id="node2" class="node">
<title>Node2</title>
<g id="a_node2"><a xlink:href="libcglue_2src_2glue_8c_source.html" target="_top" xlink:title=" ">
<polygon fill="white" stroke="black" points="0,-11.5 0,-30.5 108,-30.5 108,-11.5 0,-11.5"/>
<text text-anchor="middle" x="54" y="-18.5" font-family="Helvetica,sans-Serif" font-size="10.00">ee/libcglue/src/glue.c</text>
</a>
</g>
</g>
<!-- Node1&#45;&gt;Node2 -->
<g id="edge1" class="edge">
<title>Node1&#45;&gt;Node2</title>
<path fill="none" stroke="midnightblue" d="M857.56,-90.71C700.29,-85.45 259.37,-68.69 117,-42 103.24,-39.42 88.29,-34.76 76.4,-30.58"/>
<polygon fill="midnightblue" stroke="midnightblue" points="857.83,-94.23 867.94,-91.06 858.06,-87.23 857.83,-94.23"/>
</g>
<!-- Node3 -->
<g id="node3" class="node">
<title>Node3</title>
<g id="a_node3"><a xlink:href="ee_2network_2tcpip_2src_2sys__arch_8c_source.html" target="_top" xlink:title=" ">
<polygon fill="white" stroke="black" points="126.5,-6 126.5,-36 231.5,-36 231.5,-6 126.5,-6"/>
<text text-anchor="start" x="134.5" y="-24" font-family="Helvetica,sans-Serif" font-size="10.00">ee/network/tcpip/src</text>
<text text-anchor="middle" x="179" y="-13" font-family="Helvetica,sans-Serif" font-size="10.00">/sys_arch.c</text>
</a>
</g>
</g>
<!-- Node1&#45;&gt;Node3 -->
<g id="edge2" class="edge">
<title>Node1&#45;&gt;Node3</title>
<path fill="none" stroke="midnightblue" d="M857.61,-92.85C741.06,-92.58 465.69,-86.76 240,-42 232.46,-40.5 224.55,-38.36 217.02,-36.03"/>
<polygon fill="midnightblue" stroke="midnightblue" points="857.72,-96.35 867.72,-92.86 857.72,-89.35 857.72,-96.35"/>
</g>
<!-- Node4 -->
<g id="node4" class="node">
<title>Node4</title>
<g id="a_node4"><a xlink:href="fs_2bdmfs__vfat_2src_2fat__driver_8c_source.html" target="_top" xlink:title=" ">
<polygon fill="white" stroke="black" points="249.5,-6 249.5,-36 358.5,-36 358.5,-6 249.5,-6"/>
<text text-anchor="start" x="257.5" y="-24" font-family="Helvetica,sans-Serif" font-size="10.00">iop/fs/bdmfs_vfat/src</text>
<text text-anchor="middle" x="304" y="-13" font-family="Helvetica,sans-Serif" font-size="10.00">/fat_driver.c</text>
</a>
</g>
</g>
<!-- Node1&#45;&gt;Node4 -->
<g id="edge3" class="edge">
<title>Node1&#45;&gt;Node4</title>
<path fill="none" stroke="midnightblue" d="M857.61,-91.28C757.75,-88.25 543.72,-77.77 367,-42 359.35,-40.45 351.32,-38.31 343.65,-36.01"/>
<polygon fill="midnightblue" stroke="midnightblue" points="857.67,-94.79 867.77,-91.58 857.88,-87.79 857.67,-94.79"/>
</g>
<!-- Node5 -->
<g id="node5" class="node">
<title>Node5</title>
<g id="a_node5"><a xlink:href="bitmap_8c_source.html" target="_top" xlink:title=" ">
<polygon fill="white" stroke="black" points="376.5,-6 376.5,-36 467.5,-36 467.5,-6 376.5,-6"/>
<text text-anchor="start" x="384.5" y="-24" font-family="Helvetica,sans-Serif" font-size="10.00">iop/hdd/libpfs/src</text>
<text text-anchor="middle" x="422" y="-13" font-family="Helvetica,sans-Serif" font-size="10.00">/bitmap.c</text>
</a>
</g>
</g>
<!-- Node1&#45;&gt;Node5 -->
<g id="edge4" class="edge">
<title>Node1&#45;&gt;Node5</title>
<path fill="none" stroke="midnightblue" d="M857.7,-90.2C773.77,-85.82 611.32,-73.72 477,-42 470.37,-40.44 463.45,-38.32 456.84,-36.05"/>
<polygon fill="midnightblue" stroke="midnightblue" points="857.62,-93.7 867.78,-90.7 857.97,-86.71 857.62,-93.7"/>
</g>
<!-- Node6 -->
<g id="node6" class="node">
<title>Node6</title>
<g id="a_node6"><a xlink:href="iop_2network_2netman_2src_2rpc__client_8c_source.html" target="_top" xlink:title=" ">
<polygon fill="white" stroke="black" points="486,-6 486,-36 588,-36 588,-6 486,-6"/>
<text text-anchor="start" x="494" y="-24" font-family="Helvetica,sans-Serif" font-size="10.00">iop/network/netman</text>
<text text-anchor="middle" x="537" y="-13" font-family="Helvetica,sans-Serif" font-size="10.00">/src/rpc_client.c</text>
</a>
</g>
</g>
<!-- Node1&#45;&gt;Node6 -->
<g id="edge5" class="edge">
<title>Node1&#45;&gt;Node6</title>
<path fill="none" stroke="midnightblue" d="M857.68,-86.48C793.67,-78.96 686.35,-64.32 596,-42 589.28,-40.34 582.23,-38.26 575.44,-36.07"/>
<polygon fill="midnightblue" stroke="midnightblue" points="857.63,-90 867.96,-87.67 858.43,-83.04 857.63,-90"/>
</g>
<!-- Node7 -->
<g id="node7" class="node">
<title>Node7</title>
<g id="a_node7"><a xlink:href="smb_8c_source.html" target="_top" xlink:title=" ">
<polygon fill="white" stroke="black" points="605.5,-6 605.5,-36 712.5,-36 712.5,-6 605.5,-6"/>
<text text-anchor="start" x="613.5" y="-24" font-family="Helvetica,sans-Serif" font-size="10.00">iop/network/smbman</text>
<text text-anchor="middle" x="659" y="-13" font-family="Helvetica,sans-Serif" font-size="10.00">/src/smb.c</text>
</a>
</g>
</g>
<!-- Node1&#45;&gt;Node7 -->
<g id="edge6" class="edge">
<title>Node1&#45;&gt;Node7</title>
<path fill="none" stroke="midnightblue" d="M857.7,-78.49C819.33,-68.74 767.43,-55.18 722,-42 715.61,-40.15 708.88,-38.11 702.29,-36.06"/>
<polygon fill="midnightblue" stroke="midnightblue" points="857.1,-81.94 867.65,-81 858.82,-75.16 857.1,-81.94"/>
</g>
<!-- Node8 -->
<g id="node8" class="node">
<title>Node8</title>
<g id="a_node8"><a xlink:href="embeddedartistry__libc_2stdlib_2strtol_8c_source.html" target="_top" xlink:title=" ">
<polygon fill="white" stroke="black" points="731,-0.5 731,-41.5 841,-41.5 841,-0.5 731,-0.5"/>
<text text-anchor="start" x="739" y="-29.5" font-family="Helvetica,sans-Serif" font-size="10.00">iop/system/sysclib</text>
<text text-anchor="start" x="739" y="-18.5" font-family="Helvetica,sans-Serif" font-size="10.00">/src/embeddedartistry</text>
<text text-anchor="middle" x="786" y="-7.5" font-family="Helvetica,sans-Serif" font-size="10.00">_libc/stdlib/strtol.c</text>
</a>
</g>
</g>
<!-- Node1&#45;&gt;Node8 -->
<g id="edge7" class="edge">
<title>Node1&#45;&gt;Node8</title>
<path fill="none" stroke="midnightblue" d="M879.45,-73.47C861.58,-63.63 839.78,-51.62 821.73,-41.68"/>
<polygon fill="midnightblue" stroke="midnightblue" points="877.96,-76.64 888.4,-78.4 881.33,-70.51 877.96,-76.64"/>
</g>
<!-- Node9 -->
<g id="node9" class="node">
<title>Node9</title>
<g id="a_node9"><a xlink:href="embeddedartistry__libc_2stdlib_2strtoul_8c_source.html" target="_top" xlink:title=" ">
<polygon fill="white" stroke="black" points="859,-0.5 859,-41.5 969,-41.5 969,-0.5 859,-0.5"/>
<text text-anchor="start" x="867" y="-29.5" font-family="Helvetica,sans-Serif" font-size="10.00">iop/system/sysclib</text>
<text text-anchor="start" x="867" y="-18.5" font-family="Helvetica,sans-Serif" font-size="10.00">/src/embeddedartistry</text>
<text text-anchor="middle" x="914" y="-7.5" font-family="Helvetica,sans-Serif" font-size="10.00">_libc/stdlib/strtoul.c</text>
</a>
</g>
</g>
<!-- Node1&#45;&gt;Node9 -->
<g id="edge8" class="edge">
<title>Node1&#45;&gt;Node9</title>
<path fill="none" stroke="midnightblue" d="M914,-67.98C914,-59.35 914,-49.76 914,-41.59"/>
<polygon fill="midnightblue" stroke="midnightblue" points="910.5,-68.23 914,-78.23 917.5,-68.23 910.5,-68.23"/>
</g>
<!-- Node10 -->
<g id="node10" class="node">
<title>Node10</title>
<g id="a_node10"><a xlink:href="printf_8c_source.html" target="_top" xlink:title=" ">
<polygon fill="white" stroke="black" points="987.5,-0.5 987.5,-41.5 1084.5,-41.5 1084.5,-0.5 987.5,-0.5"/>
<text text-anchor="start" x="995.5" y="-29.5" font-family="Helvetica,sans-Serif" font-size="10.00">iop/system/sysclib</text>
<text text-anchor="start" x="995.5" y="-18.5" font-family="Helvetica,sans-Serif" font-size="10.00">/src/eyalroz_printf</text>
<text text-anchor="middle" x="1036" y="-7.5" font-family="Helvetica,sans-Serif" font-size="10.00">/printf.c</text>
</a>
</g>
</g>
<!-- Node1&#45;&gt;Node10 -->
<g id="edge9" class="edge">
<title>Node1&#45;&gt;Node10</title>
<path fill="none" stroke="midnightblue" d="M947.4,-73.2C964.35,-63.41 984.9,-51.53 1001.94,-41.68"/>
<polygon fill="midnightblue" stroke="midnightblue" points="945.3,-70.37 938.4,-78.4 948.8,-76.43 945.3,-70.37"/>
</g>
<!-- Node11 -->
<g id="node11" class="node">
<title>Node11</title>
<g id="a_node11"><a xlink:href="musl_2string_2memchr_8c_source.html" target="_top" xlink:title=" ">
<polygon fill="white" stroke="black" points="1103,-6 1103,-36 1233,-36 1233,-6 1103,-6"/>
<text text-anchor="start" x="1111" y="-24" font-family="Helvetica,sans-Serif" font-size="10.00">iop/system/sysclib</text>
<text text-anchor="middle" x="1168" y="-13" font-family="Helvetica,sans-Serif" font-size="10.00">/src/musl/string/memchr.c</text>
</a>
</g>
</g>
<!-- Node1&#45;&gt;Node11 -->
<g id="edge10" class="edge">
<title>Node1&#45;&gt;Node11</title>
<path fill="none" stroke="midnightblue" d="M969.97,-76.97C1013.94,-64.76 1074.66,-47.91 1117.23,-36.09"/>
<polygon fill="midnightblue" stroke="midnightblue" points="968.99,-73.6 960.29,-79.65 970.86,-80.35 968.99,-73.6"/>
</g>
<!-- Node12 -->
<g id="node12" class="node">
<title>Node12</title>
<g id="a_node12"><a xlink:href="stpcpy_8c_source.html" target="_top" xlink:title=" ">
<polygon fill="white" stroke="black" points="1251.5,-6 1251.5,-36 1374.5,-36 1374.5,-6 1251.5,-6"/>
<text text-anchor="start" x="1259.5" y="-24" font-family="Helvetica,sans-Serif" font-size="10.00">iop/system/sysclib</text>
<text text-anchor="middle" x="1313" y="-13" font-family="Helvetica,sans-Serif" font-size="10.00">/src/musl/string/stpcpy.c</text>
</a>
</g>
</g>
<!-- Node1&#45;&gt;Node12 -->
<g id="edge11" class="edge">
<title>Node1&#45;&gt;Node12</title>
<path fill="none" stroke="midnightblue" d="M970.36,-85.94C1036.01,-77.82 1147.53,-62.5 1242,-42 1249.88,-40.29 1258.19,-38.21 1266.23,-36.05"/>
<polygon fill="midnightblue" stroke="midnightblue" points="969.73,-82.5 960.23,-87.19 970.58,-89.44 969.73,-82.5"/>
</g>
<!-- Node13 -->
<g id="node13" class="node">
<title>Node13</title>
<g id="a_node13"><a xlink:href="stpncpy_8c_source.html" target="_top" xlink:title=" ">
<polygon fill="white" stroke="black" points="1393,-6 1393,-36 1521,-36 1521,-6 1393,-6"/>
<text text-anchor="start" x="1401" y="-24" font-family="Helvetica,sans-Serif" font-size="10.00">iop/system/sysclib</text>
<text text-anchor="middle" x="1457" y="-13" font-family="Helvetica,sans-Serif" font-size="10.00">/src/musl/string/stpncpy.c</text>
</a>
</g>
</g>
<!-- Node1&#45;&gt;Node13 -->
<g id="edge12" class="edge">
<title>Node1&#45;&gt;Node13</title>
<path fill="none" stroke="midnightblue" d="M970.16,-89.39C1058.74,-83.82 1236.05,-70.03 1384,-42 1392.52,-40.39 1401.5,-38.27 1410.14,-36.03"/>
<polygon fill="midnightblue" stroke="midnightblue" points="969.83,-85.9 960.06,-90.01 970.26,-92.89 969.83,-85.9"/>
</g>
<!-- Node14 -->
<g id="node14" class="node">
<title>Node14</title>
<g id="a_node14"><a xlink:href="strchrnul_8c_source.html" target="_top" xlink:title=" ">
<polygon fill="white" stroke="black" points="1539,-6 1539,-36 1671,-36 1671,-6 1539,-6"/>
<text text-anchor="start" x="1547" y="-24" font-family="Helvetica,sans-Serif" font-size="10.00">iop/system/sysclib</text>
<text text-anchor="middle" x="1605" y="-13" font-family="Helvetica,sans-Serif" font-size="10.00">/src/musl/string/strchrnul.c</text>
</a>
</g>
</g>
<!-- Node1&#45;&gt;Node14 -->
<g id="edge13" class="edge">
<title>Node1&#45;&gt;Node14</title>
<path fill="none" stroke="midnightblue" d="M970.44,-91.24C1079.38,-88.07 1325.91,-77.29 1530,-42 1538.9,-40.46 1548.27,-38.36 1557.27,-36.09"/>
<polygon fill="midnightblue" stroke="midnightblue" points="970.23,-87.75 960.33,-91.53 970.43,-94.74 970.23,-87.75"/>
</g>
<!-- Node15 -->
<g id="node15" class="node">
<title>Node15</title>
<g id="a_node15"><a xlink:href="musl_2string_2strlen_8c_source.html" target="_top" xlink:title=" ">
<polygon fill="white" stroke="black" points="1689.5,-6 1689.5,-36 1808.5,-36 1808.5,-6 1689.5,-6"/>
<text text-anchor="start" x="1697.5" y="-24" font-family="Helvetica,sans-Serif" font-size="10.00">iop/system/sysclib</text>
<text text-anchor="middle" x="1749" y="-13" font-family="Helvetica,sans-Serif" font-size="10.00">/src/musl/string/strlen.c</text>
</a>
</g>
</g>
<!-- Node1&#45;&gt;Node15 -->
<g id="edge14" class="edge">
<title>Node1&#45;&gt;Node15</title>
<path fill="none" stroke="midnightblue" d="M970.47,-92.93C1098,-93 1417.63,-88.11 1680,-42 1688.48,-40.51 1697.4,-38.37 1705.9,-36.04"/>
<polygon fill="midnightblue" stroke="midnightblue" points="970.18,-89.43 960.17,-92.91 970.17,-96.43 970.18,-89.43"/>
</g>
<!-- Node16 -->
<g id="node16" class="node">
<title>Node16</title>
<g id="a_node16"><a xlink:href="usb_2usbhdfsd_2src_2fat__driver_8c_source.html" target="_top" xlink:title=" ">
<polygon fill="white" stroke="black" points="1826.5,-6 1826.5,-36 1933.5,-36 1933.5,-6 1826.5,-6"/>
<text text-anchor="start" x="1834.5" y="-24" font-family="Helvetica,sans-Serif" font-size="10.00">iop/usb/usbhdfsd/src</text>
<text text-anchor="middle" x="1880" y="-13" font-family="Helvetica,sans-Serif" font-size="10.00">/fat_driver.c</text>
</a>
</g>
</g>
<!-- Node1&#45;&gt;Node16 -->
<g id="edge15" class="edge">
<title>Node1&#45;&gt;Node16</title>
<path fill="none" stroke="midnightblue" d="M970.31,-91.24C1141.53,-87.11 1654.16,-72.48 1818,-42 1825.78,-40.55 1833.95,-38.4 1841.7,-36.04"/>
<polygon fill="midnightblue" stroke="midnightblue" points="970.17,-87.74 960.25,-91.48 970.33,-94.74 970.17,-87.74"/>
</g>
</g>
</svg>
