<?xml version="1.0" encoding="UTF-8" standalone="no"?>
<!DOCTYPE svg PUBLIC "-//W3C//DTD SVG 1.1//EN"
 "http://www.w3.org/Graphics/SVG/1.1/DTD/svg11.dtd">
<!-- Generated by graphviz version 3.0.0 (20220413.0242)
 -->
<!-- Title: ee/kernel/src/osd_config.c Pages: 1 -->
<svg width="688pt" height="308pt"
 viewBox="0.00 0.00 687.50 308.00" xmlns="http://www.w3.org/2000/svg" xmlns:xlink="http://www.w3.org/1999/xlink">
<g id="graph0" class="graph" transform="scale(1 1) rotate(0) translate(4 304)">
<title>ee/kernel/src/osd_config.c</title>
<polygon fill="white" stroke="transparent" points="-4,4 -4,-304 683.5,-304 683.5,4 -4,4"/>
<!-- Node1 -->
<g id="node1" class="node">
<title>Node1</title>
<g id="a_node1"><a xlink:title=" ">
<polygon fill="#bfbfbf" stroke="black" points="329,-280.5 329,-299.5 459,-299.5 459,-280.5 329,-280.5"/>
<text text-anchor="middle" x="394" y="-287.5" font-family="Helvetica,sans-Serif" font-size="10.00">ee/kernel/src/osd_config.c</text>
</a>
</g>
</g>
<!-- Node2 -->
<g id="node2" class="node">
<title>Node2</title>
<g id="a_node2"><a xlink:href="tamtypes_8h.html" target="_top" xlink:title=" ">
<polygon fill="white" stroke="black" points="349,-0.5 349,-19.5 413,-19.5 413,-0.5 349,-0.5"/>
<text text-anchor="middle" x="381" y="-7.5" font-family="Helvetica,sans-Serif" font-size="10.00">tamtypes.h</text>
</a>
</g>
</g>
<!-- Node1&#45;&gt;Node2 -->
<g id="edge1" class="edge">
<title>Node1&#45;&gt;Node2</title>
<path fill="none" stroke="midnightblue" d="M451.52,-280.48C507.44,-268.57 584,-240.94 584,-179 584,-179 584,-179 584,-121 584,-48.59 482.91,-23.6 423.4,-15.16"/>
<polygon fill="midnightblue" stroke="midnightblue" points="423.54,-11.65 413.17,-13.81 422.62,-18.59 423.54,-11.65"/>
</g>
<!-- Node3 -->
<g id="node3" class="node">
<title>Node3</title>
<g id="a_node3"><a xlink:href="kernel_8h.html" target="_top" xlink:title=" ">
<polygon fill="white" stroke="black" points="0,-168.5 0,-187.5 50,-187.5 50,-168.5 0,-168.5"/>
<text text-anchor="middle" x="25" y="-175.5" font-family="Helvetica,sans-Serif" font-size="10.00">kernel.h</text>
</a>
</g>
</g>
<!-- Node1&#45;&gt;Node3 -->
<g id="edge2" class="edge">
<title>Node1&#45;&gt;Node3</title>
<path fill="none" stroke="midnightblue" d="M328.93,-281.46C280.62,-274.72 213.6,-262.92 157,-244 117.04,-230.64 73.78,-207.52 48.06,-192.75"/>
<polygon fill="midnightblue" stroke="midnightblue" points="49.51,-189.55 39.1,-187.54 45.99,-195.6 49.51,-189.55"/>
</g>
<!-- Node7 -->
<g id="node7" class="node">
<title>Node7</title>
<g id="a_node7"><a xlink:href="ps2sdkapi_8h_source.html" target="_top" xlink:title=" ">
<polygon fill="white" stroke="black" points="211,-224.5 211,-243.5 279,-243.5 279,-224.5 211,-224.5"/>
<text text-anchor="middle" x="245" y="-231.5" font-family="Helvetica,sans-Serif" font-size="10.00">ps2sdkapi.h</text>
</a>
</g>
</g>
<!-- Node1&#45;&gt;Node7 -->
<g id="edge7" class="edge">
<title>Node1&#45;&gt;Node7</title>
<path fill="none" stroke="midnightblue" d="M370.39,-280.44C345.54,-271.44 306.23,-257.19 278.25,-247.05"/>
<polygon fill="midnightblue" stroke="midnightblue" points="279.09,-243.63 268.5,-243.52 276.71,-250.21 279.09,-243.63"/>
</g>
<!-- Node12 -->
<g id="node12" class="node">
<title>Node12</title>
<g id="a_node12"><a xlink:href="stdio_8h.html" target="_top" xlink:title=" ">
<polygon fill="white" stroke="black" points="68.5,-168.5 68.5,-187.5 113.5,-187.5 113.5,-168.5 68.5,-168.5"/>
<text text-anchor="middle" x="91" y="-175.5" font-family="Helvetica,sans-Serif" font-size="10.00">stdio.h</text>
</a>
</g>
</g>
<!-- Node1&#45;&gt;Node12 -->
<g id="edge13" class="edge">
<title>Node1&#45;&gt;Node12</title>
<path fill="none" stroke="midnightblue" d="M338.04,-280.45C299,-273.4 246.19,-261.65 202,-244 168.43,-230.59 132.93,-208.15 111.37,-193.46"/>
<polygon fill="midnightblue" stroke="midnightblue" points="113.24,-190.5 103.02,-187.69 109.26,-196.26 113.24,-190.5"/>
</g>
<!-- Node15 -->
<g id="node15" class="node">
<title>Node15</title>
<g id="a_node15"><a xlink:href="fcntl_8h_source.html" target="_top" xlink:title=" ">
<polygon fill="white" stroke="black" points="363.5,-224.5 363.5,-243.5 424.5,-243.5 424.5,-224.5 363.5,-224.5"/>
<text text-anchor="middle" x="394" y="-231.5" font-family="Helvetica,sans-Serif" font-size="10.00">sys/fcntl.h</text>
</a>
</g>
</g>
<!-- Node1&#45;&gt;Node15 -->
<g id="edge19" class="edge">
<title>Node1&#45;&gt;Node15</title>
<path fill="none" stroke="midnightblue" d="M394,-280.08C394,-273.01 394,-262.86 394,-253.99"/>
<polygon fill="midnightblue" stroke="midnightblue" points="397.5,-253.75 394,-243.75 390.5,-253.75 397.5,-253.75"/>
</g>
<!-- Node16 -->
<g id="node16" class="node">
<title>Node16</title>
<g id="a_node16"><a xlink:href="unistd_8h_source.html" target="_top" xlink:title=" ">
<polygon fill="white" stroke="black" points="443,-224.5 443,-243.5 511,-243.5 511,-224.5 443,-224.5"/>
<text text-anchor="middle" x="477" y="-231.5" font-family="Helvetica,sans-Serif" font-size="10.00">sys/unistd.h</text>
</a>
</g>
</g>
<!-- Node1&#45;&gt;Node16 -->
<g id="edge20" class="edge">
<title>Node1&#45;&gt;Node16</title>
<path fill="none" stroke="midnightblue" d="M407.34,-280.32C420.16,-271.98 439.78,-259.21 454.94,-249.35"/>
<polygon fill="midnightblue" stroke="midnightblue" points="457.22,-252.04 463.7,-243.65 453.41,-246.17 457.22,-252.04"/>
</g>
<!-- Node17 -->
<g id="node17" class="node">
<title>Node17</title>
<g id="a_node17"><a xlink:href="string_8h_source.html" target="_top" xlink:title=" ">
<polygon fill="white" stroke="black" points="297,-224.5 297,-243.5 345,-243.5 345,-224.5 297,-224.5"/>
<text text-anchor="middle" x="321" y="-231.5" font-family="Helvetica,sans-Serif" font-size="10.00">string.h</text>
</a>
</g>
</g>
<!-- Node1&#45;&gt;Node17 -->
<g id="edge21" class="edge">
<title>Node1&#45;&gt;Node17</title>
<path fill="none" stroke="midnightblue" d="M382.27,-280.32C371.16,-272.11 354.26,-259.6 341.02,-249.81"/>
<polygon fill="midnightblue" stroke="midnightblue" points="343.06,-246.97 332.94,-243.83 338.9,-252.59 343.06,-246.97"/>
</g>
<!-- Node21 -->
<g id="node21" class="node">
<title>Node21</title>
<g id="a_node21"><a xlink:href="osd__config_8h.html" target="_top" xlink:title=" ">
<polygon fill="white" stroke="black" points="484.5,-168.5 484.5,-187.5 555.5,-187.5 555.5,-168.5 484.5,-168.5"/>
<text text-anchor="middle" x="520" y="-175.5" font-family="Helvetica,sans-Serif" font-size="10.00">osd_config.h</text>
</a>
</g>
</g>
<!-- Node1&#45;&gt;Node21 -->
<g id="edge29" class="edge">
<title>Node1&#45;&gt;Node21</title>
<path fill="none" stroke="midnightblue" d="M459.13,-281.31C482.23,-275.09 505.95,-263.94 520,-244 529.44,-230.61 528.17,-211.5 525.31,-197.47"/>
<polygon fill="midnightblue" stroke="midnightblue" points="528.64,-196.37 522.84,-187.5 521.85,-198.05 528.64,-196.37"/>
</g>
<!-- Node24 -->
<g id="node24" class="node">
<title>Node24</title>
<g id="a_node24"><a xlink:href="rom0__info_8h.html" target="_top" xlink:title=" ">
<polygon fill="white" stroke="black" points="612.5,-224.5 612.5,-243.5 679.5,-243.5 679.5,-224.5 612.5,-224.5"/>
<text text-anchor="middle" x="646" y="-231.5" font-family="Helvetica,sans-Serif" font-size="10.00">rom0_info.h</text>
</a>
</g>
</g>
<!-- Node1&#45;&gt;Node24 -->
<g id="edge34" class="edge">
<title>Node1&#45;&gt;Node24</title>
<path fill="none" stroke="midnightblue" d="M433.93,-280.44C479.83,-270.61 554.92,-254.52 602.34,-244.36"/>
<polygon fill="midnightblue" stroke="midnightblue" points="603.26,-247.74 612.31,-242.22 601.79,-240.89 603.26,-247.74"/>
</g>
<!-- Node4 -->
<g id="node4" class="node">
<title>Node4</title>
<g id="a_node4"><a xlink:title=" ">
<polygon fill="white" stroke="#bfbfbf" points="109.5,-0.5 109.5,-19.5 160.5,-19.5 160.5,-0.5 109.5,-0.5"/>
<text text-anchor="middle" x="135" y="-7.5" font-family="Helvetica,sans-Serif" font-size="10.00">stddef.h</text>
</a>
</g>
</g>
<!-- Node3&#45;&gt;Node4 -->
<g id="edge3" class="edge">
<title>Node3&#45;&gt;Node4</title>
<path fill="none" stroke="midnightblue" d="M28.85,-168.34C38.16,-147.82 63.26,-95.07 92,-56 99.67,-45.58 109.57,-35.06 117.94,-26.82"/>
<polygon fill="midnightblue" stroke="midnightblue" points="120.57,-29.14 125.37,-19.69 115.73,-24.09 120.57,-29.14"/>
</g>
<!-- Node5 -->
<g id="node5" class="node">
<title>Node5</title>
<g id="a_node5"><a xlink:title=" ">
<polygon fill="white" stroke="#bfbfbf" points="91.5,-112.5 91.5,-131.5 142.5,-131.5 142.5,-112.5 91.5,-112.5"/>
<text text-anchor="middle" x="117" y="-119.5" font-family="Helvetica,sans-Serif" font-size="10.00">stdarg.h</text>
</a>
</g>
</g>
<!-- Node3&#45;&gt;Node5 -->
<g id="edge4" class="edge">
<title>Node3&#45;&gt;Node5</title>
<path fill="none" stroke="midnightblue" d="M39.78,-168.32C54.27,-159.82 76.57,-146.73 93.49,-136.8"/>
<polygon fill="midnightblue" stroke="midnightblue" points="95.4,-139.74 102.26,-131.65 91.86,-133.7 95.4,-139.74"/>
</g>
<!-- Node6 -->
<g id="node6" class="node">
<title>Node6</title>
<g id="a_node6"><a xlink:href="sifdma_8h.html" target="_top" xlink:title=" ">
<polygon fill="white" stroke="black" points="101.5,-56.5 101.5,-75.5 154.5,-75.5 154.5,-56.5 101.5,-56.5"/>
<text text-anchor="middle" x="128" y="-63.5" font-family="Helvetica,sans-Serif" font-size="10.00">sifdma.h</text>
</a>
</g>
</g>
<!-- Node3&#45;&gt;Node6 -->
<g id="edge5" class="edge">
<title>Node3&#45;&gt;Node6</title>
<path fill="none" stroke="midnightblue" d="M32.18,-168.4C42.79,-155.78 63.42,-131.62 82,-112 91.41,-102.06 102.35,-91.33 111.2,-82.84"/>
<polygon fill="midnightblue" stroke="midnightblue" points="113.8,-85.19 118.63,-75.76 108.97,-80.12 113.8,-85.19"/>
</g>
<!-- Node6&#45;&gt;Node2 -->
<g id="edge6" class="edge">
<title>Node6&#45;&gt;Node2</title>
<path fill="none" stroke="midnightblue" d="M154.6,-59.32C198.49,-49.96 286.42,-31.19 338.85,-20"/>
<polygon fill="midnightblue" stroke="midnightblue" points="339.79,-23.37 348.84,-17.86 338.33,-16.53 339.79,-23.37"/>
</g>
<!-- Node8 -->
<g id="node8" class="node">
<title>Node8</title>
<g id="a_node8"><a xlink:title=" ">
<polygon fill="white" stroke="#bfbfbf" points="286,-168.5 286,-187.5 334,-187.5 334,-168.5 286,-168.5"/>
<text text-anchor="middle" x="310" y="-175.5" font-family="Helvetica,sans-Serif" font-size="10.00">dirent.h</text>
</a>
</g>
</g>
<!-- Node7&#45;&gt;Node8 -->
<g id="edge8" class="edge">
<title>Node7&#45;&gt;Node8</title>
<path fill="none" stroke="midnightblue" d="M255.44,-224.32C265.15,-216.26 279.82,-204.08 291.5,-194.37"/>
<polygon fill="midnightblue" stroke="midnightblue" points="293.91,-196.92 299.37,-187.83 289.44,-191.53 293.91,-196.92"/>
</g>
<!-- Node9 -->
<g id="node9" class="node">
<title>Node9</title>
<g id="a_node9"><a xlink:title=" ">
<polygon fill="white" stroke="#bfbfbf" points="132,-168.5 132,-187.5 190,-187.5 190,-168.5 132,-168.5"/>
<text text-anchor="middle" x="161" y="-175.5" font-family="Helvetica,sans-Serif" font-size="10.00">inttypes.h</text>
</a>
</g>
</g>
<!-- Node7&#45;&gt;Node9 -->
<g id="edge9" class="edge">
<title>Node7&#45;&gt;Node9</title>
<path fill="none" stroke="midnightblue" d="M231.5,-224.32C218.4,-215.9 198.29,-202.97 182.89,-193.07"/>
<polygon fill="midnightblue" stroke="midnightblue" points="184.77,-190.12 174.46,-187.65 180.98,-196.01 184.77,-190.12"/>
</g>
<!-- Node10 -->
<g id="node10" class="node">
<title>Node10</title>
<g id="a_node10"><a xlink:title=" ">
<polygon fill="white" stroke="#bfbfbf" points="208.5,-168.5 208.5,-187.5 267.5,-187.5 267.5,-168.5 208.5,-168.5"/>
<text text-anchor="middle" x="238" y="-175.5" font-family="Helvetica,sans-Serif" font-size="10.00">sys/stat.h</text>
</a>
</g>
</g>
<!-- Node7&#45;&gt;Node10 -->
<g id="edge10" class="edge">
<title>Node7&#45;&gt;Node10</title>
<path fill="none" stroke="midnightblue" d="M243.84,-224.08C242.92,-216.93 241.58,-206.64 240.42,-197.69"/>
<polygon fill="midnightblue" stroke="midnightblue" points="243.89,-197.22 239.13,-187.75 236.95,-198.12 243.89,-197.22"/>
</g>
<!-- Node11 -->
<g id="node11" class="node">
<title>Node11</title>
<g id="a_node11"><a xlink:href="timer_8h.html" target="_top" xlink:title=" ">
<polygon fill="white" stroke="black" points="358,-56.5 358,-75.5 404,-75.5 404,-56.5 358,-56.5"/>
<text text-anchor="middle" x="381" y="-63.5" font-family="Helvetica,sans-Serif" font-size="10.00">timer.h</text>
</a>
</g>
</g>
<!-- Node7&#45;&gt;Node11 -->
<g id="edge11" class="edge">
<title>Node7&#45;&gt;Node11</title>
<path fill="none" stroke="midnightblue" d="M279.14,-225.09C327.55,-213.7 410.79,-193.47 415,-188 421.25,-179.87 425.06,-150.34 412,-112 408.49,-101.71 401.92,-91.62 395.72,-83.61"/>
<polygon fill="midnightblue" stroke="midnightblue" points="398.37,-81.32 389.31,-75.82 392.96,-85.77 398.37,-81.32"/>
</g>
<!-- Node11&#45;&gt;Node2 -->
<g id="edge12" class="edge">
<title>Node11&#45;&gt;Node2</title>
<path fill="none" stroke="midnightblue" d="M381,-56.08C381,-49.01 381,-38.86 381,-29.99"/>
<polygon fill="midnightblue" stroke="midnightblue" points="384.5,-29.75 381,-19.75 377.5,-29.75 384.5,-29.75"/>
</g>
<!-- Node12&#45;&gt;Node5 -->
<g id="edge14" class="edge">
<title>Node12&#45;&gt;Node5</title>
<path fill="none" stroke="midnightblue" d="M95.29,-168.08C98.85,-160.69 104.02,-149.95 108.42,-140.81"/>
<polygon fill="midnightblue" stroke="midnightblue" points="111.6,-142.28 112.79,-131.75 105.29,-139.24 111.6,-142.28"/>
</g>
<!-- Node13 -->
<g id="node13" class="node">
<title>Node13</title>
<g id="a_node13"><a xlink:href="irx_8h.html" target="_top" xlink:title=" ">
<polygon fill="white" stroke="black" points="227,-112.5 227,-131.5 261,-131.5 261,-112.5 227,-112.5"/>
<text text-anchor="middle" x="244" y="-119.5" font-family="Helvetica,sans-Serif" font-size="10.00">irx.h</text>
</a>
</g>
</g>
<!-- Node12&#45;&gt;Node13 -->
<g id="edge15" class="edge">
<title>Node12&#45;&gt;Node13</title>
<path fill="none" stroke="midnightblue" d="M113.58,-169.03C141.09,-159.32 187.53,-142.93 216.93,-132.55"/>
<polygon fill="midnightblue" stroke="midnightblue" points="218.3,-135.78 226.57,-129.15 215.97,-129.18 218.3,-135.78"/>
</g>
<!-- Node14 -->
<g id="node14" class="node">
<title>Node14</title>
<g id="a_node14"><a xlink:href="types_8h_source.html" target="_top" xlink:title=" ">
<polygon fill="white" stroke="black" points="220.5,-56.5 220.5,-75.5 267.5,-75.5 267.5,-56.5 220.5,-56.5"/>
<text text-anchor="middle" x="244" y="-63.5" font-family="Helvetica,sans-Serif" font-size="10.00">types.h</text>
</a>
</g>
</g>
<!-- Node13&#45;&gt;Node14 -->
<g id="edge16" class="edge">
<title>Node13&#45;&gt;Node14</title>
<path fill="none" stroke="midnightblue" d="M244,-112.08C244,-105.01 244,-94.86 244,-85.99"/>
<polygon fill="midnightblue" stroke="midnightblue" points="247.5,-85.75 244,-75.75 240.5,-85.75 247.5,-85.75"/>
</g>
<!-- Node14&#45;&gt;Node2 -->
<g id="edge18" class="edge">
<title>Node14&#45;&gt;Node2</title>
<path fill="none" stroke="midnightblue" d="M265.71,-56.44C288.35,-47.52 324.07,-33.44 349.75,-23.32"/>
<polygon fill="midnightblue" stroke="midnightblue" points="351.37,-26.44 359.39,-19.52 348.81,-19.93 351.37,-26.44"/>
</g>
<!-- Node14&#45;&gt;Node4 -->
<g id="edge17" class="edge">
<title>Node14&#45;&gt;Node4</title>
<path fill="none" stroke="midnightblue" d="M226.49,-56.32C208.93,-47.62 181.67,-34.12 161.47,-24.11"/>
<polygon fill="midnightblue" stroke="midnightblue" points="162.98,-20.96 152.47,-19.65 159.88,-27.23 162.98,-20.96"/>
</g>
<!-- Node18 -->
<g id="node18" class="node">
<title>Node18</title>
<g id="a_node18"><a xlink:href="sysclib_8h.html" target="_top" xlink:title=" ">
<polygon fill="white" stroke="black" points="352,-168.5 352,-187.5 406,-187.5 406,-168.5 352,-168.5"/>
<text text-anchor="middle" x="379" y="-175.5" font-family="Helvetica,sans-Serif" font-size="10.00">sysclib.h</text>
</a>
</g>
</g>
<!-- Node17&#45;&gt;Node18 -->
<g id="edge22" class="edge">
<title>Node17&#45;&gt;Node18</title>
<path fill="none" stroke="midnightblue" d="M330.32,-224.32C338.89,-216.34 351.81,-204.31 362.19,-194.65"/>
<polygon fill="midnightblue" stroke="midnightblue" points="364.58,-197.21 369.51,-187.83 359.81,-192.09 364.58,-197.21"/>
</g>
<!-- Node18&#45;&gt;Node5 -->
<g id="edge25" class="edge">
<title>Node18&#45;&gt;Node5</title>
<path fill="none" stroke="midnightblue" d="M351.91,-170.08C348.91,-169.36 345.89,-168.65 343,-168 275.96,-152.96 197.16,-137.85 152.55,-129.53"/>
<polygon fill="midnightblue" stroke="midnightblue" points="152.98,-126.05 142.5,-127.66 151.7,-132.93 152.98,-126.05"/>
</g>
<!-- Node18&#45;&gt;Node13 -->
<g id="edge24" class="edge">
<title>Node18&#45;&gt;Node13</title>
<path fill="none" stroke="midnightblue" d="M357.61,-168.44C333.98,-158.99 295.91,-143.76 270.43,-133.57"/>
<polygon fill="midnightblue" stroke="midnightblue" points="271.6,-130.27 261.02,-129.81 269,-136.77 271.6,-130.27"/>
</g>
<!-- Node18&#45;&gt;Node14 -->
<g id="edge23" class="edge">
<title>Node18&#45;&gt;Node14</title>
<path fill="none" stroke="midnightblue" d="M368.41,-168.37C345.54,-149.73 291.29,-105.53 262.57,-82.13"/>
<polygon fill="midnightblue" stroke="midnightblue" points="264.51,-79.19 254.54,-75.59 260.09,-84.62 264.51,-79.19"/>
</g>
<!-- Node19 -->
<g id="node19" class="node">
<title>Node19</title>
<g id="a_node19"><a xlink:href="setjmp_8h.html" target="_top" xlink:title=" ">
<polygon fill="white" stroke="black" points="286.5,-56.5 286.5,-75.5 339.5,-75.5 339.5,-56.5 286.5,-56.5"/>
<text text-anchor="middle" x="313" y="-63.5" font-family="Helvetica,sans-Serif" font-size="10.00">setjmp.h</text>
</a>
</g>
</g>
<!-- Node18&#45;&gt;Node19 -->
<g id="edge26" class="edge">
<title>Node18&#45;&gt;Node19</title>
<path fill="none" stroke="midnightblue" d="M372.26,-168.28C365.51,-159.39 355.02,-145.08 347,-132 337.54,-116.58 328.12,-98.26 321.59,-85.01"/>
<polygon fill="midnightblue" stroke="midnightblue" points="324.55,-83.09 317.04,-75.62 318.25,-86.14 324.55,-83.09"/>
</g>
<!-- Node20 -->
<g id="node20" class="node">
<title>Node20</title>
<g id="a_node20"><a xlink:href="ctype_8h.html" target="_top" xlink:title=" ">
<polygon fill="white" stroke="black" points="355.5,-112.5 355.5,-131.5 402.5,-131.5 402.5,-112.5 355.5,-112.5"/>
<text text-anchor="middle" x="379" y="-119.5" font-family="Helvetica,sans-Serif" font-size="10.00">ctype.h</text>
</a>
</g>
</g>
<!-- Node18&#45;&gt;Node20 -->
<g id="edge28" class="edge">
<title>Node18&#45;&gt;Node20</title>
<path fill="none" stroke="midnightblue" d="M379,-168.08C379,-161.01 379,-150.86 379,-141.99"/>
<polygon fill="midnightblue" stroke="midnightblue" points="382.5,-141.75 379,-131.75 375.5,-141.75 382.5,-141.75"/>
</g>
<!-- Node19&#45;&gt;Node2 -->
<g id="edge27" class="edge">
<title>Node19&#45;&gt;Node2</title>
<path fill="none" stroke="midnightblue" d="M323.93,-56.32C334.17,-48.18 349.72,-35.84 362,-26.09"/>
<polygon fill="midnightblue" stroke="midnightblue" points="364.22,-28.79 369.88,-19.83 359.87,-23.31 364.22,-28.79"/>
</g>
<!-- Node21&#45;&gt;Node2 -->
<g id="edge30" class="edge">
<title>Node21&#45;&gt;Node2</title>
<path fill="none" stroke="midnightblue" d="M523.9,-168.33C532.91,-146.87 552.49,-90.54 527,-56 503.37,-23.99 457.32,-14.05 423.22,-11.29"/>
<polygon fill="midnightblue" stroke="midnightblue" points="423.26,-7.79 413.06,-10.65 422.82,-14.78 423.26,-7.79"/>
</g>
<!-- Node22 -->
<g id="node22" class="node">
<title>Node22</title>
<g id="a_node22"><a xlink:href="libcdvd_8h.html" target="_top" xlink:title=" ">
<polygon fill="white" stroke="black" points="462.5,-112.5 462.5,-131.5 517.5,-131.5 517.5,-112.5 462.5,-112.5"/>
<text text-anchor="middle" x="490" y="-119.5" font-family="Helvetica,sans-Serif" font-size="10.00">libcdvd.h</text>
</a>
</g>
</g>
<!-- Node21&#45;&gt;Node22 -->
<g id="edge31" class="edge">
<title>Node21&#45;&gt;Node22</title>
<path fill="none" stroke="midnightblue" d="M515.05,-168.08C510.9,-160.61 504.85,-149.72 499.73,-140.52"/>
<polygon fill="midnightblue" stroke="midnightblue" points="502.78,-138.79 494.86,-131.75 496.66,-142.19 502.78,-138.79"/>
</g>
<!-- Node23 -->
<g id="node23" class="node">
<title>Node23</title>
<g id="a_node23"><a xlink:href="libcdvd-common_8h.html" target="_top" xlink:title=" ">
<polygon fill="white" stroke="black" points="422.5,-56.5 422.5,-75.5 517.5,-75.5 517.5,-56.5 422.5,-56.5"/>
<text text-anchor="middle" x="470" y="-63.5" font-family="Helvetica,sans-Serif" font-size="10.00">libcdvd&#45;common.h</text>
</a>
</g>
</g>
<!-- Node22&#45;&gt;Node23 -->
<g id="edge32" class="edge">
<title>Node22&#45;&gt;Node23</title>
<path fill="none" stroke="midnightblue" d="M486.7,-112.08C484.02,-104.85 480.15,-94.41 476.81,-85.4"/>
<polygon fill="midnightblue" stroke="midnightblue" points="480,-83.91 473.24,-75.75 473.43,-86.34 480,-83.91"/>
</g>
<!-- Node23&#45;&gt;Node2 -->
<g id="edge33" class="edge">
<title>Node23&#45;&gt;Node2</title>
<path fill="none" stroke="midnightblue" d="M455.7,-56.32C441.82,-47.9 420.51,-34.97 404.2,-25.07"/>
<polygon fill="midnightblue" stroke="midnightblue" points="405.63,-21.85 395.26,-19.65 402,-27.83 405.63,-21.85"/>
</g>
</g>
</svg>
