<?xml version="1.0" encoding="UTF-8" standalone="no"?>
<!DOCTYPE svg PUBLIC "-//W3C//DTD SVG 1.1//EN"
 "http://www.w3.org/Graphics/SVG/1.1/DTD/svg11.dtd">
<!-- Generated by graphviz version 3.0.0 (20220413.0242)
 -->
<!-- Title: ee/libcglue/src/sleep.c Pages: 1 -->
<svg width="445pt" height="196pt"
 viewBox="0.00 0.00 445.00 196.00" xmlns="http://www.w3.org/2000/svg" xmlns:xlink="http://www.w3.org/1999/xlink">
<g id="graph0" class="graph" transform="scale(1 1) rotate(0) translate(4 192)">
<title>ee/libcglue/src/sleep.c</title>
<polygon fill="white" stroke="transparent" points="-4,4 -4,-192 441,-192 441,4 -4,4"/>
<!-- Node1 -->
<g id="node1" class="node">
<title>Node1</title>
<g id="a_node1"><a xlink:title=" ">
<polygon fill="#bfbfbf" stroke="black" points="170,-168.5 170,-187.5 283,-187.5 283,-168.5 170,-168.5"/>
<text text-anchor="middle" x="226.5" y="-175.5" font-family="Helvetica,sans-Serif" font-size="10.00">ee/libcglue/src/sleep.c</text>
</a>
</g>
</g>
<!-- Node2 -->
<g id="node2" class="node">
<title>Node2</title>
<g id="a_node2"><a xlink:href="kernel_8h.html" target="_top" xlink:title=" ">
<polygon fill="white" stroke="black" points="34.5,-112.5 34.5,-131.5 84.5,-131.5 84.5,-112.5 34.5,-112.5"/>
<text text-anchor="middle" x="59.5" y="-119.5" font-family="Helvetica,sans-Serif" font-size="10.00">kernel.h</text>
</a>
</g>
</g>
<!-- Node1&#45;&gt;Node2 -->
<g id="edge1" class="edge">
<title>Node1&#45;&gt;Node2</title>
<path fill="none" stroke="midnightblue" d="M200.04,-168.44C171.49,-159.21 125.9,-144.47 94.43,-134.29"/>
<polygon fill="midnightblue" stroke="midnightblue" points="95.34,-130.91 84.74,-131.16 93.18,-137.57 95.34,-130.91"/>
</g>
<!-- Node7 -->
<g id="node7" class="node">
<title>Node7</title>
<g id="a_node7"><a xlink:href="unistd_8h_source.html" target="_top" xlink:title=" ">
<polygon fill="white" stroke="black" points="102.5,-112.5 102.5,-131.5 152.5,-131.5 152.5,-112.5 102.5,-112.5"/>
<text text-anchor="middle" x="127.5" y="-119.5" font-family="Helvetica,sans-Serif" font-size="10.00">unistd.h</text>
</a>
</g>
</g>
<!-- Node1&#45;&gt;Node7 -->
<g id="edge6" class="edge">
<title>Node1&#45;&gt;Node7</title>
<path fill="none" stroke="midnightblue" d="M210.59,-168.32C194.86,-159.74 170.56,-146.49 152.29,-136.52"/>
<polygon fill="midnightblue" stroke="midnightblue" points="153.82,-133.37 143.37,-131.65 150.47,-139.52 153.82,-133.37"/>
</g>
<!-- Node8 -->
<g id="node8" class="node">
<title>Node8</title>
<g id="a_node8"><a xlink:href="stdint_8h.html" target="_top" xlink:title=" ">
<polygon fill="white" stroke="black" points="170.5,-112.5 170.5,-131.5 218.5,-131.5 218.5,-112.5 170.5,-112.5"/>
<text text-anchor="middle" x="194.5" y="-119.5" font-family="Helvetica,sans-Serif" font-size="10.00">stdint.h</text>
</a>
</g>
</g>
<!-- Node1&#45;&gt;Node8 -->
<g id="edge7" class="edge">
<title>Node1&#45;&gt;Node8</title>
<path fill="none" stroke="midnightblue" d="M221.22,-168.08C216.79,-160.61 210.34,-149.72 204.88,-140.52"/>
<polygon fill="midnightblue" stroke="midnightblue" points="207.79,-138.57 199.69,-131.75 201.77,-142.14 207.79,-138.57"/>
</g>
<!-- Node9 -->
<g id="node9" class="node">
<title>Node9</title>
<g id="a_node9"><a xlink:href="errno_8h.html" target="_top" xlink:title=" ">
<polygon fill="white" stroke="black" points="236.5,-112.5 236.5,-131.5 282.5,-131.5 282.5,-112.5 236.5,-112.5"/>
<text text-anchor="middle" x="259.5" y="-119.5" font-family="Helvetica,sans-Serif" font-size="10.00">errno.h</text>
</a>
</g>
</g>
<!-- Node1&#45;&gt;Node9 -->
<g id="edge8" class="edge">
<title>Node1&#45;&gt;Node9</title>
<path fill="none" stroke="midnightblue" d="M231.95,-168.08C236.51,-160.61 243.17,-149.72 248.79,-140.52"/>
<polygon fill="midnightblue" stroke="midnightblue" points="251.92,-142.11 254.15,-131.75 245.95,-138.46 251.92,-142.11"/>
</g>
<!-- Node10 -->
<g id="node10" class="node">
<title>Node10</title>
<g id="a_node10"><a xlink:href="time_8h.html" target="_top" xlink:title=" ">
<polygon fill="white" stroke="black" points="301,-112.5 301,-131.5 344,-131.5 344,-112.5 301,-112.5"/>
<text text-anchor="middle" x="322.5" y="-119.5" font-family="Helvetica,sans-Serif" font-size="10.00">time.h</text>
</a>
</g>
</g>
<!-- Node1&#45;&gt;Node10 -->
<g id="edge9" class="edge">
<title>Node1&#45;&gt;Node10</title>
<path fill="none" stroke="midnightblue" d="M241.92,-168.32C257.04,-159.82 280.32,-146.73 297.97,-136.8"/>
<polygon fill="midnightblue" stroke="midnightblue" points="300.11,-139.61 307.11,-131.65 296.68,-133.51 300.11,-139.61"/>
</g>
<!-- Node11 -->
<g id="node11" class="node">
<title>Node11</title>
<g id="a_node11"><a xlink:href="timer__alarm_8h_source.html" target="_top" xlink:title=" ">
<polygon fill="white" stroke="black" points="362,-112.5 362,-131.5 437,-131.5 437,-112.5 362,-112.5"/>
<text text-anchor="middle" x="399.5" y="-119.5" font-family="Helvetica,sans-Serif" font-size="10.00">timer_alarm.h</text>
</a>
</g>
</g>
<!-- Node1&#45;&gt;Node11 -->
<g id="edge10" class="edge">
<title>Node1&#45;&gt;Node11</title>
<path fill="none" stroke="midnightblue" d="M253.91,-168.44C283.27,-159.28 330.02,-144.69 362.6,-134.52"/>
<polygon fill="midnightblue" stroke="midnightblue" points="363.71,-137.84 372.22,-131.52 361.63,-131.16 363.71,-137.84"/>
</g>
<!-- Node3 -->
<g id="node3" class="node">
<title>Node3</title>
<g id="a_node3"><a xlink:title=" ">
<polygon fill="white" stroke="#bfbfbf" points="0,-56.5 0,-75.5 51,-75.5 51,-56.5 0,-56.5"/>
<text text-anchor="middle" x="25.5" y="-63.5" font-family="Helvetica,sans-Serif" font-size="10.00">stddef.h</text>
</a>
</g>
</g>
<!-- Node2&#45;&gt;Node3 -->
<g id="edge2" class="edge">
<title>Node2&#45;&gt;Node3</title>
<path fill="none" stroke="midnightblue" d="M53.89,-112.08C49.13,-104.53 42.18,-93.49 36.35,-84.23"/>
<polygon fill="midnightblue" stroke="midnightblue" points="39.3,-82.35 31.01,-75.75 33.38,-86.08 39.3,-82.35"/>
</g>
<!-- Node4 -->
<g id="node4" class="node">
<title>Node4</title>
<g id="a_node4"><a xlink:title=" ">
<polygon fill="white" stroke="#bfbfbf" points="69,-56.5 69,-75.5 120,-75.5 120,-56.5 69,-56.5"/>
<text text-anchor="middle" x="94.5" y="-63.5" font-family="Helvetica,sans-Serif" font-size="10.00">stdarg.h</text>
</a>
</g>
</g>
<!-- Node2&#45;&gt;Node4 -->
<g id="edge3" class="edge">
<title>Node2&#45;&gt;Node4</title>
<path fill="none" stroke="midnightblue" d="M65.28,-112.08C70.17,-104.53 77.33,-93.49 83.33,-84.23"/>
<polygon fill="midnightblue" stroke="midnightblue" points="86.33,-86.05 88.83,-75.75 80.45,-82.24 86.33,-86.05"/>
</g>
<!-- Node5 -->
<g id="node5" class="node">
<title>Node5</title>
<g id="a_node5"><a xlink:href="sifdma_8h.html" target="_top" xlink:title=" ">
<polygon fill="white" stroke="black" points="203,-56.5 203,-75.5 256,-75.5 256,-56.5 203,-56.5"/>
<text text-anchor="middle" x="229.5" y="-63.5" font-family="Helvetica,sans-Serif" font-size="10.00">sifdma.h</text>
</a>
</g>
</g>
<!-- Node2&#45;&gt;Node5 -->
<g id="edge4" class="edge">
<title>Node2&#45;&gt;Node5</title>
<path fill="none" stroke="midnightblue" d="M84.58,-113.03C113.29,-103.91 160.56,-88.9 193.26,-78.51"/>
<polygon fill="midnightblue" stroke="midnightblue" points="194.44,-81.81 202.91,-75.45 192.32,-75.14 194.44,-81.81"/>
</g>
<!-- Node6 -->
<g id="node6" class="node">
<title>Node6</title>
<g id="a_node6"><a xlink:href="tamtypes_8h.html" target="_top" xlink:title=" ">
<polygon fill="white" stroke="black" points="316.5,-0.5 316.5,-19.5 380.5,-19.5 380.5,-0.5 316.5,-0.5"/>
<text text-anchor="middle" x="348.5" y="-7.5" font-family="Helvetica,sans-Serif" font-size="10.00">tamtypes.h</text>
</a>
</g>
</g>
<!-- Node5&#45;&gt;Node6 -->
<g id="edge5" class="edge">
<title>Node5&#45;&gt;Node6</title>
<path fill="none" stroke="midnightblue" d="M248.36,-56.44C267.77,-47.64 298.23,-33.81 320.46,-23.72"/>
<polygon fill="midnightblue" stroke="midnightblue" points="322.07,-26.84 329.73,-19.52 319.18,-20.46 322.07,-26.84"/>
</g>
<!-- Node11&#45;&gt;Node6 -->
<g id="edge11" class="edge">
<title>Node11&#45;&gt;Node6</title>
<path fill="none" stroke="midnightblue" d="M391.93,-112.26C384.75,-103.58 374.11,-89.63 367.5,-76 360.29,-61.12 355.27,-42.98 352.21,-29.64"/>
<polygon fill="midnightblue" stroke="midnightblue" points="355.6,-28.8 350.09,-19.75 348.76,-30.26 355.6,-28.8"/>
</g>
<!-- Node12 -->
<g id="node12" class="node">
<title>Node12</title>
<g id="a_node12"><a xlink:href="timer_8h.html" target="_top" xlink:title=" ">
<polygon fill="white" stroke="black" points="376.5,-56.5 376.5,-75.5 422.5,-75.5 422.5,-56.5 376.5,-56.5"/>
<text text-anchor="middle" x="399.5" y="-63.5" font-family="Helvetica,sans-Serif" font-size="10.00">timer.h</text>
</a>
</g>
</g>
<!-- Node11&#45;&gt;Node12 -->
<g id="edge12" class="edge">
<title>Node11&#45;&gt;Node12</title>
<path fill="none" stroke="midnightblue" d="M399.5,-112.08C399.5,-105.01 399.5,-94.86 399.5,-85.99"/>
<polygon fill="midnightblue" stroke="midnightblue" points="403,-85.75 399.5,-75.75 396,-85.75 403,-85.75"/>
</g>
<!-- Node12&#45;&gt;Node6 -->
<g id="edge13" class="edge">
<title>Node12&#45;&gt;Node6</title>
<path fill="none" stroke="midnightblue" d="M391.08,-56.08C383.65,-48.22 372.65,-36.57 363.69,-27.08"/>
<polygon fill="midnightblue" stroke="midnightblue" points="366.18,-24.62 356.76,-19.75 361.09,-29.42 366.18,-24.62"/>
</g>
</g>
</svg>
