<?xml version="1.0" encoding="UTF-8" standalone="no"?>
<!DOCTYPE svg PUBLIC "-//W3C//DTD SVG 1.1//EN"
 "http://www.w3.org/Graphics/SVG/1.1/DTD/svg11.dtd">
<!-- Generated by graphviz version 3.0.0 (20220413.0242)
 -->
<!-- Title: iop/kernel/include/stdint.h Pages: 1 -->
<!--zoomable 184 -->
<svg id="main" version="1.1" xmlns="http://www.w3.org/2000/svg" xmlns:xlink="http://www.w3.org/1999/xlink" xml:space="preserve" onload="init(evt)">
<style type="text/css"><![CDATA[
.edge:hover path { stroke: red; }
.edge:hover polygon { stroke: red; fill: red; }
]]></style>
<script type="text/javascript"><![CDATA[
var edges = document.getElementsByTagName('g');
if (edges && edges.length) {
  for (var i=0;i<edges.length;i++) {
    if (edges[i].id.substr(0,4)=='edge') {
      edges[i].setAttribute('class','edge');
    }
  }
}
]]></script>
        <defs>
                <circle id="rim" cx="0" cy="0" r="7"/>
                <circle id="rim2" cx="0" cy="0" r="3.5"/>
                <g id="zoomPlus">
                        <use xlink:href="#rim" fill="#404040">
                                <set attributeName="fill" to="#808080" begin="zoomplus.mouseover" end="zoomplus.mouseout"/>
                        </use>
                        <path d="M-4,0h8M0,-4v8" fill="none" stroke="white" stroke-width="1.5" pointer-events="none"/>
                </g>
                <g id="zoomMin">
                        <use xlink:href="#rim" fill="#404040">
                                <set attributeName="fill" to="#808080" begin="zoomminus.mouseover" end="zoomminus.mouseout"/>
                        </use>
                        <path d="M-4,0h8" fill="none" stroke="white" stroke-width="1.5" pointer-events="none"/>
                </g>
                <g id="dirArrow">
                        <path fill="none" stroke="white" stroke-width="1.5" d="M0,-3.0v7 M-2.5,-0.5L0,-3.0L2.5,-0.5"/>
                </g>
               <g id="resetDef">
                       <use xlink:href="#rim2" fill="#404040">
                               <set attributeName="fill" to="#808080" begin="reset.mouseover" end="reset.mouseout"/>
                       </use>
               </g>
        </defs>

<script type="text/javascript">
var viewWidth = 2595;
var viewHeight = 184;
var sectionId = 'dynsection-0';
</script>
<script xlink:href="svgpan.js"/>
<svg id="graph" class="graph">
<g id="viewport">
<title>iop/kernel/include/stdint.h</title>
<polygon fill="white" stroke="transparent" points="-4,4 -4,-180 2591,-180 2591,4 -4,4"/>
<!-- Node1 -->
<g id="node1" class="node">
<title>Node1</title>
<g id="a_node1"><a xlink:title=" ">
<polygon fill="#bfbfbf" stroke="black" points="1232,-145.5 1232,-175.5 1324,-175.5 1324,-145.5 1232,-145.5"/>
<text text-anchor="start" x="1240" y="-163.5" font-family="Helvetica,sans-Serif" font-size="10.00">iop/kernel/include</text>
<text text-anchor="middle" x="1278" y="-152.5" font-family="Helvetica,sans-Serif" font-size="10.00">/stdint.h</text>
</a>
</g>
</g>
<!-- Node2 -->
<g id="node2" class="node">
<title>Node2</title>
<g id="a_node2"><a xlink:href="libcglue_2src_2glue_8c_source.html" target="_top" xlink:title=" ">
<polygon fill="white" stroke="black" points="0,-78.5 0,-97.5 108,-97.5 108,-78.5 0,-78.5"/>
<text text-anchor="middle" x="54" y="-85.5" font-family="Helvetica,sans-Serif" font-size="10.00">ee/libcglue/src/glue.c</text>
</a>
</g>
</g>
<!-- Node1&#45;&gt;Node2 -->
<g id="edge1" class="edge">
<title>Node1&#45;&gt;Node2</title>
<path fill="none" stroke="midnightblue" d="M1221.69,-159.01C1019.84,-156.97 333.01,-147.29 117,-109 103.1,-106.54 88.02,-101.82 76.09,-97.59"/>
<polygon fill="midnightblue" stroke="midnightblue" points="1221.74,-162.52 1231.78,-159.11 1221.81,-155.52 1221.74,-162.52"/>
</g>
<!-- Node3 -->
<g id="node3" class="node">
<title>Node3</title>
<g id="a_node3"><a xlink:href="sleep_8c.html" target="_top" xlink:title=" ">
<polygon fill="white" stroke="black" points="126.5,-78.5 126.5,-97.5 239.5,-97.5 239.5,-78.5 126.5,-78.5"/>
<text text-anchor="middle" x="183" y="-85.5" font-family="Helvetica,sans-Serif" font-size="10.00">ee/libcglue/src/sleep.c</text>
</a>
</g>
</g>
<!-- Node1&#45;&gt;Node3 -->
<g id="edge2" class="edge">
<title>Node1&#45;&gt;Node3</title>
<path fill="none" stroke="midnightblue" d="M1221.69,-158.55C1035.12,-155.13 438.39,-141.83 249,-109 234.49,-106.48 218.69,-101.77 206.18,-97.55"/>
<polygon fill="midnightblue" stroke="midnightblue" points="1221.76,-162.05 1231.82,-158.74 1221.89,-155.06 1221.76,-162.05"/>
</g>
<!-- Node4 -->
<g id="node4" class="node">
<title>Node4</title>
<g id="a_node4"><a xlink:href="byteorder_8h.html" target="_top" xlink:title=" ">
<polygon fill="white" stroke="black" points="258,-78.5 258,-97.5 390,-97.5 390,-78.5 258,-78.5"/>
<text text-anchor="middle" x="324" y="-85.5" font-family="Helvetica,sans-Serif" font-size="10.00">iop/fs/netfs/src/byteorder.h</text>
</a>
</g>
</g>
<!-- Node1&#45;&gt;Node4 -->
<g id="edge3" class="edge">
<title>Node1&#45;&gt;Node4</title>
<path fill="none" stroke="midnightblue" d="M1221.91,-160.14C1082.13,-160.9 707.47,-157.8 400,-109 383.56,-106.39 365.53,-101.73 351.16,-97.56"/>
<polygon fill="midnightblue" stroke="midnightblue" points="1221.97,-163.64 1231.95,-160.08 1221.93,-156.64 1221.97,-163.64"/>
</g>
<!-- Node6 -->
<g id="node6" class="node">
<title>Node6</title>
<g id="a_node6"><a xlink:href="crc16_8h_source.html" target="_top" xlink:title=" ">
<polygon fill="white" stroke="black" points="408.5,-73 408.5,-103 519.5,-103 519.5,-73 408.5,-73"/>
<text text-anchor="start" x="416.5" y="-91" font-family="Helvetica,sans-Serif" font-size="10.00">iop/sio/mx4sio_bd/src</text>
<text text-anchor="middle" x="464" y="-80" font-family="Helvetica,sans-Serif" font-size="10.00">/crc16.h</text>
</a>
</g>
</g>
<!-- Node1&#45;&gt;Node6 -->
<g id="edge5" class="edge">
<title>Node1&#45;&gt;Node6</title>
<path fill="none" stroke="midnightblue" d="M1221.82,-160.12C1096.4,-160.54 784.54,-156.27 529,-109 520.99,-107.52 512.57,-105.38 504.56,-103.05"/>
<polygon fill="midnightblue" stroke="midnightblue" points="1221.96,-163.62 1231.95,-160.07 1221.93,-156.62 1221.96,-163.62"/>
</g>
<!-- Node9 -->
<g id="node9" class="node">
<title>Node9</title>
<g id="a_node9"><a xlink:href="embeddedartistry__libc_2stdlib_2strtol_8c_source.html" target="_top" xlink:title=" ">
<polygon fill="white" stroke="black" points="538,-67.5 538,-108.5 648,-108.5 648,-67.5 538,-67.5"/>
<text text-anchor="start" x="546" y="-96.5" font-family="Helvetica,sans-Serif" font-size="10.00">iop/system/sysclib</text>
<text text-anchor="start" x="546" y="-85.5" font-family="Helvetica,sans-Serif" font-size="10.00">/src/embeddedartistry</text>
<text text-anchor="middle" x="593" y="-74.5" font-family="Helvetica,sans-Serif" font-size="10.00">_libc/stdlib/strtol.c</text>
</a>
</g>
</g>
<!-- Node1&#45;&gt;Node9 -->
<g id="edge8" class="edge">
<title>Node1&#45;&gt;Node9</title>
<path fill="none" stroke="midnightblue" d="M1221.78,-159.08C1112.13,-157.36 862.47,-148.94 657,-109 654.14,-108.44 651.23,-107.81 648.31,-107.11"/>
<polygon fill="midnightblue" stroke="midnightblue" points="1221.9,-162.58 1231.95,-159.23 1222,-155.58 1221.9,-162.58"/>
</g>
<!-- Node10 -->
<g id="node10" class="node">
<title>Node10</title>
<g id="a_node10"><a xlink:href="embeddedartistry__libc_2stdlib_2strtoul_8c_source.html" target="_top" xlink:title=" ">
<polygon fill="white" stroke="black" points="666,-67.5 666,-108.5 776,-108.5 776,-67.5 666,-67.5"/>
<text text-anchor="start" x="674" y="-96.5" font-family="Helvetica,sans-Serif" font-size="10.00">iop/system/sysclib</text>
<text text-anchor="start" x="674" y="-85.5" font-family="Helvetica,sans-Serif" font-size="10.00">/src/embeddedartistry</text>
<text text-anchor="middle" x="721" y="-74.5" font-family="Helvetica,sans-Serif" font-size="10.00">_libc/stdlib/strtoul.c</text>
</a>
</g>
</g>
<!-- Node1&#45;&gt;Node10 -->
<g id="edge9" class="edge">
<title>Node1&#45;&gt;Node10</title>
<path fill="none" stroke="midnightblue" d="M1221.55,-157.31C1129.52,-152.93 941.77,-140.64 786,-109 782.76,-108.34 779.45,-107.59 776.13,-106.77"/>
<polygon fill="midnightblue" stroke="midnightblue" points="1221.61,-160.81 1231.76,-157.78 1221.93,-153.82 1221.61,-160.81"/>
</g>
<!-- Node11 -->
<g id="node11" class="node">
<title>Node11</title>
<g id="a_node11"><a xlink:href="printf_8c_source.html" target="_top" xlink:title=" ">
<polygon fill="white" stroke="black" points="794.5,-67.5 794.5,-108.5 891.5,-108.5 891.5,-67.5 794.5,-67.5"/>
<text text-anchor="start" x="802.5" y="-96.5" font-family="Helvetica,sans-Serif" font-size="10.00">iop/system/sysclib</text>
<text text-anchor="start" x="802.5" y="-85.5" font-family="Helvetica,sans-Serif" font-size="10.00">/src/eyalroz_printf</text>
<text text-anchor="middle" x="843" y="-74.5" font-family="Helvetica,sans-Serif" font-size="10.00">/printf.c</text>
</a>
</g>
</g>
<!-- Node1&#45;&gt;Node11 -->
<g id="edge10" class="edge">
<title>Node1&#45;&gt;Node11</title>
<path fill="none" stroke="midnightblue" d="M1221.84,-155.48C1147.62,-149.38 1013.16,-135.57 901,-109 897.89,-108.26 894.71,-107.42 891.53,-106.52"/>
<polygon fill="midnightblue" stroke="midnightblue" points="1221.66,-158.98 1231.91,-156.3 1222.22,-152 1221.66,-158.98"/>
</g>
<!-- Node12 -->
<g id="node12" class="node">
<title>Node12</title>
<g id="a_node12"><a xlink:href="musl_2string_2memchr_8c_source.html" target="_top" xlink:title=" ">
<polygon fill="white" stroke="black" points="910,-73 910,-103 1040,-103 1040,-73 910,-73"/>
<text text-anchor="start" x="918" y="-91" font-family="Helvetica,sans-Serif" font-size="10.00">iop/system/sysclib</text>
<text text-anchor="middle" x="975" y="-80" font-family="Helvetica,sans-Serif" font-size="10.00">/src/musl/string/memchr.c</text>
</a>
</g>
</g>
<!-- Node1&#45;&gt;Node12 -->
<g id="edge11" class="edge">
<title>Node1&#45;&gt;Node12</title>
<path fill="none" stroke="midnightblue" d="M1221.75,-147.74C1175.51,-137.9 1108.35,-123.23 1050,-109 1042.41,-107.15 1034.4,-105.11 1026.57,-103.06"/>
<polygon fill="midnightblue" stroke="midnightblue" points="1221.07,-151.17 1231.58,-149.82 1222.52,-144.33 1221.07,-151.17"/>
</g>
<!-- Node13 -->
<g id="node13" class="node">
<title>Node13</title>
<g id="a_node13"><a xlink:href="musl_2string_2memcpy_8c_source.html" target="_top" xlink:title=" ">
<polygon fill="white" stroke="black" points="1058.5,-73 1058.5,-103 1189.5,-103 1189.5,-73 1058.5,-73"/>
<text text-anchor="start" x="1066.5" y="-91" font-family="Helvetica,sans-Serif" font-size="10.00">iop/system/sysclib</text>
<text text-anchor="middle" x="1124" y="-80" font-family="Helvetica,sans-Serif" font-size="10.00">/src/musl/string/memcpy.c</text>
</a>
</g>
</g>
<!-- Node1&#45;&gt;Node13 -->
<g id="edge12" class="edge">
<title>Node1&#45;&gt;Node13</title>
<path fill="none" stroke="midnightblue" d="M1238,-141.19C1212.01,-129.29 1178.65,-114.02 1154.74,-103.07"/>
<polygon fill="midnightblue" stroke="midnightblue" points="1236.66,-144.42 1247.21,-145.4 1239.57,-138.06 1236.66,-144.42"/>
</g>
<!-- Node14 -->
<g id="node14" class="node">
<title>Node14</title>
<g id="a_node14"><a xlink:href="musl_2string_2memmove_8c_source.html" target="_top" xlink:title=" ">
<polygon fill="white" stroke="black" points="1208,-73 1208,-103 1348,-103 1348,-73 1208,-73"/>
<text text-anchor="start" x="1216" y="-91" font-family="Helvetica,sans-Serif" font-size="10.00">iop/system/sysclib</text>
<text text-anchor="middle" x="1278" y="-80" font-family="Helvetica,sans-Serif" font-size="10.00">/src/musl/string/memmove.c</text>
</a>
</g>
</g>
<!-- Node1&#45;&gt;Node14 -->
<g id="edge13" class="edge">
<title>Node1&#45;&gt;Node14</title>
<path fill="none" stroke="midnightblue" d="M1278,-135.23C1278,-124.57 1278,-112.41 1278,-103.25"/>
<polygon fill="midnightblue" stroke="midnightblue" points="1274.5,-135.23 1278,-145.23 1281.5,-135.23 1274.5,-135.23"/>
</g>
<!-- Node15 -->
<g id="node15" class="node">
<title>Node15</title>
<g id="a_node15"><a xlink:href="musl_2string_2memset_8c_source.html" target="_top" xlink:title=" ">
<polygon fill="white" stroke="black" points="1366,-73 1366,-103 1496,-103 1496,-73 1366,-73"/>
<text text-anchor="start" x="1374" y="-91" font-family="Helvetica,sans-Serif" font-size="10.00">iop/system/sysclib</text>
<text text-anchor="middle" x="1431" y="-80" font-family="Helvetica,sans-Serif" font-size="10.00">/src/musl/string/memset.c</text>
</a>
</g>
</g>
<!-- Node1&#45;&gt;Node15 -->
<g id="edge14" class="edge">
<title>Node1&#45;&gt;Node15</title>
<path fill="none" stroke="midnightblue" d="M1317.74,-141.19C1343.56,-129.29 1376.71,-114.02 1400.46,-103.07"/>
<polygon fill="midnightblue" stroke="midnightblue" points="1316.21,-138.04 1308.59,-145.4 1319.14,-144.4 1316.21,-138.04"/>
</g>
<!-- Node16 -->
<g id="node16" class="node">
<title>Node16</title>
<g id="a_node16"><a xlink:href="stpcpy_8c_source.html" target="_top" xlink:title=" ">
<polygon fill="white" stroke="black" points="1514.5,-73 1514.5,-103 1637.5,-103 1637.5,-73 1514.5,-73"/>
<text text-anchor="start" x="1522.5" y="-91" font-family="Helvetica,sans-Serif" font-size="10.00">iop/system/sysclib</text>
<text text-anchor="middle" x="1576" y="-80" font-family="Helvetica,sans-Serif" font-size="10.00">/src/musl/string/stpcpy.c</text>
</a>
</g>
</g>
<!-- Node1&#45;&gt;Node16 -->
<g id="edge15" class="edge">
<title>Node1&#45;&gt;Node16</title>
<path fill="none" stroke="midnightblue" d="M1334.06,-147.94C1380.12,-138.22 1447.01,-123.61 1505,-109 1512.33,-107.15 1520.05,-105.1 1527.59,-103.02"/>
<polygon fill="midnightblue" stroke="midnightblue" points="1333.33,-144.51 1324.26,-150 1334.77,-151.36 1333.33,-144.51"/>
</g>
<!-- Node17 -->
<g id="node17" class="node">
<title>Node17</title>
<g id="a_node17"><a xlink:href="stpncpy_8c_source.html" target="_top" xlink:title=" ">
<polygon fill="white" stroke="black" points="1656,-73 1656,-103 1784,-103 1784,-73 1656,-73"/>
<text text-anchor="start" x="1664" y="-91" font-family="Helvetica,sans-Serif" font-size="10.00">iop/system/sysclib</text>
<text text-anchor="middle" x="1720" y="-80" font-family="Helvetica,sans-Serif" font-size="10.00">/src/musl/string/stpncpy.c</text>
</a>
</g>
</g>
<!-- Node1&#45;&gt;Node17 -->
<g id="edge16" class="edge">
<title>Node1&#45;&gt;Node17</title>
<path fill="none" stroke="midnightblue" d="M1334.36,-154.11C1407.07,-146.63 1537.26,-131.44 1647,-109 1655.24,-107.32 1663.92,-105.22 1672.31,-103.03"/>
<polygon fill="midnightblue" stroke="midnightblue" points="1333.66,-150.67 1324.06,-155.16 1334.36,-157.63 1333.66,-150.67"/>
</g>
<!-- Node18 -->
<g id="node18" class="node">
<title>Node18</title>
<g id="a_node18"><a xlink:href="strchrnul_8c_source.html" target="_top" xlink:title=" ">
<polygon fill="white" stroke="black" points="1802,-73 1802,-103 1934,-103 1934,-73 1802,-73"/>
<text text-anchor="start" x="1810" y="-91" font-family="Helvetica,sans-Serif" font-size="10.00">iop/system/sysclib</text>
<text text-anchor="middle" x="1868" y="-80" font-family="Helvetica,sans-Serif" font-size="10.00">/src/musl/string/strchrnul.c</text>
</a>
</g>
</g>
<!-- Node1&#45;&gt;Node18 -->
<g id="edge17" class="edge">
<title>Node1&#45;&gt;Node18</title>
<path fill="none" stroke="midnightblue" d="M1334.43,-156.98C1429.62,-152.05 1627.91,-138.9 1793,-109 1801.75,-107.41 1810.98,-105.32 1819.85,-103.08"/>
<polygon fill="midnightblue" stroke="midnightblue" points="1333.97,-153.5 1324.16,-157.5 1334.33,-160.49 1333.97,-153.5"/>
</g>
<!-- Node19 -->
<g id="node19" class="node">
<title>Node19</title>
<g id="a_node19"><a xlink:href="musl_2string_2strlen_8c_source.html" target="_top" xlink:title=" ">
<polygon fill="white" stroke="black" points="1952.5,-73 1952.5,-103 2071.5,-103 2071.5,-73 1952.5,-73"/>
<text text-anchor="start" x="1960.5" y="-91" font-family="Helvetica,sans-Serif" font-size="10.00">iop/system/sysclib</text>
<text text-anchor="middle" x="2012" y="-80" font-family="Helvetica,sans-Serif" font-size="10.00">/src/musl/string/strlen.c</text>
</a>
</g>
</g>
<!-- Node1&#45;&gt;Node19 -->
<g id="edge18" class="edge">
<title>Node1&#45;&gt;Node19</title>
<path fill="none" stroke="midnightblue" d="M1334.38,-159.13C1449.63,-157.5 1720.15,-149.31 1943,-109 1951.35,-107.49 1960.13,-105.37 1968.52,-103.07"/>
<polygon fill="midnightblue" stroke="midnightblue" points="1334.32,-155.63 1324.37,-159.25 1334.41,-162.62 1334.32,-155.63"/>
</g>
<!-- Node20 -->
<g id="node20" class="node">
<title>Node20</title>
<g id="a_node20"><a xlink:href="musl_2string_2strstr_8c_source.html" target="_top" xlink:title=" ">
<polygon fill="white" stroke="black" points="2089.5,-73 2089.5,-103 2206.5,-103 2206.5,-73 2089.5,-73"/>
<text text-anchor="start" x="2097.5" y="-91" font-family="Helvetica,sans-Serif" font-size="10.00">iop/system/sysclib</text>
<text text-anchor="middle" x="2148" y="-80" font-family="Helvetica,sans-Serif" font-size="10.00">/src/musl/string/strstr.c</text>
</a>
</g>
</g>
<!-- Node1&#45;&gt;Node20 -->
<g id="edge19" class="edge">
<title>Node1&#45;&gt;Node20</title>
<path fill="none" stroke="midnightblue" d="M1334.4,-160.33C1466.2,-161.32 1804.18,-158.36 2081,-109 2089.25,-107.53 2097.91,-105.4 2106.18,-103.07"/>
<polygon fill="midnightblue" stroke="midnightblue" points="1334.19,-156.83 1324.16,-160.24 1334.13,-163.83 1334.19,-156.83"/>
</g>
<!-- Node21 -->
<g id="node21" class="node">
<title>Node21</title>
<g id="a_node21"><a xlink:href="newlib_2libc_2machine_2mips_2strncpy_8c_source.html" target="_top" xlink:title=" ">
<polygon fill="white" stroke="black" points="2225,-67.5 2225,-108.5 2347,-108.5 2347,-67.5 2225,-67.5"/>
<text text-anchor="start" x="2233" y="-96.5" font-family="Helvetica,sans-Serif" font-size="10.00">iop/system/sysclib</text>
<text text-anchor="start" x="2233" y="-85.5" font-family="Helvetica,sans-Serif" font-size="10.00">/src/newlib/libc/machine</text>
<text text-anchor="middle" x="2286" y="-74.5" font-family="Helvetica,sans-Serif" font-size="10.00">/mips/strncpy.c</text>
</a>
</g>
</g>
<!-- Node1&#45;&gt;Node21 -->
<g id="edge20" class="edge">
<title>Node1&#45;&gt;Node21</title>
<path fill="none" stroke="midnightblue" d="M1334.29,-158.13C1509.68,-153.59 2044.8,-137.69 2216,-109 2218.87,-108.52 2221.78,-107.96 2224.72,-107.35"/>
<polygon fill="midnightblue" stroke="midnightblue" points="1334.15,-154.63 1324.24,-158.38 1334.33,-161.63 1334.15,-154.63"/>
</g>
<!-- Node22 -->
<g id="node22" class="node">
<title>Node22</title>
<g id="a_node22"><a xlink:href="tools_2ps2adpcm_2src_2adpcm_8c_source.html" target="_top" xlink:title=" ">
<polygon fill="white" stroke="black" points="2365,-73 2365,-103 2467,-103 2467,-73 2365,-73"/>
<text text-anchor="start" x="2373" y="-91" font-family="Helvetica,sans-Serif" font-size="10.00">tools/ps2adpcm/src</text>
<text text-anchor="middle" x="2416" y="-80" font-family="Helvetica,sans-Serif" font-size="10.00">/adpcm.c</text>
</a>
</g>
</g>
<!-- Node1&#45;&gt;Node22 -->
<g id="edge21" class="edge">
<title>Node1&#45;&gt;Node22</title>
<path fill="none" stroke="midnightblue" d="M1334.42,-158.9C1526.96,-156.53 2157.17,-146.06 2356,-109 2363.66,-107.57 2371.69,-105.4 2379.29,-103"/>
<polygon fill="midnightblue" stroke="midnightblue" points="1334.2,-155.4 1324.24,-159.02 1334.29,-162.4 1334.2,-155.4"/>
</g>
<!-- Node23 -->
<g id="node23" class="node">
<title>Node23</title>
<g id="a_node23"><a xlink:href="tools_2ps2adpcm_2src_2main_8c_source.html" target="_top" xlink:title=" ">
<polygon fill="white" stroke="black" points="2485,-73 2485,-103 2587,-103 2587,-73 2485,-73"/>
<text text-anchor="start" x="2493" y="-91" font-family="Helvetica,sans-Serif" font-size="10.00">tools/ps2adpcm/src</text>
<text text-anchor="middle" x="2536" y="-80" font-family="Helvetica,sans-Serif" font-size="10.00">/main.c</text>
</a>
</g>
</g>
<!-- Node1&#45;&gt;Node23 -->
<g id="edge22" class="edge">
<title>Node1&#45;&gt;Node23</title>
<path fill="none" stroke="midnightblue" d="M1334.37,-159.21C1540.47,-157.81 2252.75,-150.07 2476,-109 2483.67,-107.59 2491.7,-105.42 2499.3,-103.03"/>
<polygon fill="midnightblue" stroke="midnightblue" points="1334.06,-155.71 1324.08,-159.27 1334.1,-162.71 1334.06,-155.71"/>
</g>
<!-- Node5 -->
<g id="node5" class="node">
<title>Node5</title>
<g id="a_node5"><a xlink:href="ps2__fio_8c.html" target="_top" xlink:title=" ">
<polygon fill="white" stroke="black" points="273.5,-0.5 273.5,-30.5 374.5,-30.5 374.5,-0.5 273.5,-0.5"/>
<text text-anchor="start" x="281.5" y="-18.5" font-family="Helvetica,sans-Serif" font-size="10.00">iop/fs/netfs/src/ps2</text>
<text text-anchor="middle" x="324" y="-7.5" font-family="Helvetica,sans-Serif" font-size="10.00">_fio.c</text>
</a>
</g>
</g>
<!-- Node4&#45;&gt;Node5 -->
<g id="edge4" class="edge">
<title>Node4&#45;&gt;Node5</title>
<path fill="none" stroke="midnightblue" d="M324,-68.24C324,-56.41 324,-41.38 324,-30.58"/>
<polygon fill="midnightblue" stroke="midnightblue" points="320.5,-68.36 324,-78.36 327.5,-68.36 320.5,-68.36"/>
</g>
<!-- Node7 -->
<g id="node7" class="node">
<title>Node7</title>
<g id="a_node7"><a xlink:href="crc16_8c_source.html" target="_top" xlink:title=" ">
<polygon fill="white" stroke="black" points="400.5,-0.5 400.5,-30.5 511.5,-30.5 511.5,-0.5 400.5,-0.5"/>
<text text-anchor="start" x="408.5" y="-18.5" font-family="Helvetica,sans-Serif" font-size="10.00">iop/sio/mx4sio_bd/src</text>
<text text-anchor="middle" x="456" y="-7.5" font-family="Helvetica,sans-Serif" font-size="10.00">/crc16.c</text>
</a>
</g>
</g>
<!-- Node6&#45;&gt;Node7 -->
<g id="edge6" class="edge">
<title>Node6&#45;&gt;Node7</title>
<path fill="none" stroke="midnightblue" d="M461.25,-62.73C460.04,-52.07 458.66,-39.91 457.62,-30.75"/>
<polygon fill="midnightblue" stroke="midnightblue" points="457.78,-63.19 462.38,-72.73 464.73,-62.4 457.78,-63.19"/>
</g>
<!-- Node8 -->
<g id="node8" class="node">
<title>Node8</title>
<g id="a_node8"><a xlink:href="mx4sio_8c_source.html" target="_top" xlink:title=" ">
<polygon fill="white" stroke="black" points="529.5,-0.5 529.5,-30.5 640.5,-30.5 640.5,-0.5 529.5,-0.5"/>
<text text-anchor="start" x="537.5" y="-18.5" font-family="Helvetica,sans-Serif" font-size="10.00">iop/sio/mx4sio_bd/src</text>
<text text-anchor="middle" x="585" y="-7.5" font-family="Helvetica,sans-Serif" font-size="10.00">/mx4sio.c</text>
</a>
</g>
</g>
<!-- Node6&#45;&gt;Node8 -->
<g id="edge7" class="edge">
<title>Node6&#45;&gt;Node8</title>
<path fill="none" stroke="midnightblue" d="M497.05,-67.74C517.22,-55.99 542.56,-41.23 560.85,-30.57"/>
<polygon fill="midnightblue" stroke="midnightblue" points="495.07,-64.84 488.2,-72.9 498.6,-70.89 495.07,-64.84"/>
</g>
</g>
</svg>
        <g id="navigator" transform="translate(0 0)" fill="#404254">
                <rect fill="#f2f5e9" fill-opacity="0.5" stroke="#606060" stroke-width=".5" x="0" y="0" width="60" height="60"/>
                <use id="zoomplus" xlink:href="#zoomPlus" x="17" y="9" onmousedown="handleZoom(evt,'in')"/>
                <use id="zoomminus" xlink:href="#zoomMin" x="42" y="9" onmousedown="handleZoom(evt,'out')"/>
                <use id="reset" xlink:href="#resetDef" x="30" y="36" onmousedown="handleReset()"/>
                <g id="arrowUp" xlink:href="#dirArrow" transform="translate(30 24)" onmousedown="handlePan(0,-1)">
                  <use xlink:href="#rim" fill="#404040">
                        <set attributeName="fill" to="#808080" begin="arrowUp.mouseover" end="arrowUp.mouseout"/>
                  </use>
                  <path fill="none" stroke="white" stroke-width="1.5" d="M0,-3.0v7 M-2.5,-0.5L0,-3.0L2.5,-0.5"/>
                </g>
                <g id="arrowRight" xlink:href="#dirArrow" transform="rotate(90) translate(36 -43)" onmousedown="handlePan(1,0)">
                  <use xlink:href="#rim" fill="#404040">
                        <set attributeName="fill" to="#808080" begin="arrowRight.mouseover" end="arrowRight.mouseout"/>
                  </use>
                  <path fill="none" stroke="white" stroke-width="1.5" d="M0,-3.0v7 M-2.5,-0.5L0,-3.0L2.5,-0.5"/>
                </g>
                <g id="arrowDown" xlink:href="#dirArrow" transform="rotate(180) translate(-30 -48)" onmousedown="handlePan(0,1)">
                  <use xlink:href="#rim" fill="#404040">
                        <set attributeName="fill" to="#808080" begin="arrowDown.mouseover" end="arrowDown.mouseout"/>
                  </use>
                  <path fill="none" stroke="white" stroke-width="1.5" d="M0,-3.0v7 M-2.5,-0.5L0,-3.0L2.5,-0.5"/>
                </g>
                <g id="arrowLeft" xlink:href="#dirArrow" transform="rotate(270) translate(-36 17)" onmousedown="handlePan(-1,0)">
                  <use xlink:href="#rim" fill="#404040">
                        <set attributeName="fill" to="#808080" begin="arrowLeft.mouseover" end="arrowLeft.mouseout"/>
                  </use>
                  <path fill="none" stroke="white" stroke-width="1.5" d="M0,-3.0v7 M-2.5,-0.5L0,-3.0L2.5,-0.5"/>
                </g>
        </g>
        <svg viewBox="0 0 15 15" width="100%" height="30px" preserveAspectRatio="xMaxYMin meet">
         <g id="arrow_out" transform="scale(0.3 0.3)">
          <a xlink:href="stdint_8h__dep__incl_org.svg" target="_base">
           <rect id="button" ry="5" rx="5" y="6" x="6" height="38" width="38"
                fill="#f2f5e9" fill-opacity="0.5" stroke="#606060" stroke-width="1.0"/>
           <path id="arrow"
             d="M 11.500037,31.436501 C 11.940474,20.09759 22.043105,11.32322 32.158766,21.979434 L 37.068811,17.246167 C 37.068811,17.246167 37.088388,32 37.088388,32 L 22.160133,31.978069 C 22.160133,31.978069 26.997745,27.140456 26.997745,27.140456 C 18.528582,18.264221 13.291696,25.230495 11.500037,31.436501 z"
             style="fill:#404040;"/>
          </a>
         </g>
        </svg>
</svg>
