<?xml version="1.0" encoding="UTF-8" standalone="no"?>
<!DOCTYPE svg PUBLIC "-//W3C//DTD SVG 1.1//EN"
 "http://www.w3.org/Graphics/SVG/1.1/DTD/svg11.dtd">
<!-- Generated by graphviz version 3.0.0 (20220413.0242)
 -->
<!-- Title: DIR Pages: 1 -->
<svg width="128pt" height="162pt"
 viewBox="0.00 0.00 128.00 162.00" xmlns="http://www.w3.org/2000/svg" xmlns:xlink="http://www.w3.org/1999/xlink">
<g id="graph0" class="graph" transform="scale(1 1) rotate(0) translate(4 158)">
<title>DIR</title>
<polygon fill="white" stroke="transparent" points="-4,4 -4,-158 124,-158 124,4 -4,4"/>
<!-- Node1 -->
<g id="node1" class="node">
<title>Node1</title>
<g id="a_node1"><a xlink:title=" ">
<polygon fill="#bfbfbf" stroke="black" points="41.5,-0.5 41.5,-19.5 74.5,-19.5 74.5,-0.5 41.5,-0.5"/>
<text text-anchor="middle" x="58" y="-7.5" font-family="Helvetica,sans-Serif" font-size="10.00">DIR</text>
</a>
</g>
</g>
<!-- Node2 -->
<g id="node2" class="node">
<title>Node2</title>
<g id="a_node2"><a xlink:href="struct_f_f_o_b_j_i_d.html" target="_top" xlink:title=" ">
<polygon fill="white" stroke="#bfbfbf" points="29,-67.5 29,-86.5 87,-86.5 87,-67.5 29,-67.5"/>
<text text-anchor="middle" x="58" y="-74.5" font-family="Helvetica,sans-Serif" font-size="10.00">FFOBJID</text>
</a>
</g>
</g>
<!-- Node2&#45;&gt;Node1 -->
<g id="edge1" class="edge">
<title>Node2&#45;&gt;Node1</title>
<path fill="none" stroke="#9a32cd" stroke-dasharray="5,2" d="M58,-57.04C58,-44.67 58,-29.12 58,-19.63"/>
<polygon fill="#9a32cd" stroke="#9a32cd" points="54.5,-57.23 58,-67.23 61.5,-57.23 54.5,-57.23"/>
<text text-anchor="middle" x="66" y="-41" font-family="Helvetica,sans-Serif" font-size="10.00"> obj</text>
</g>
<!-- Node3 -->
<g id="node3" class="node">
<title>Node3</title>
<g id="a_node3"><a xlink:href="struct_f_a_t_f_s.html" target="_top" xlink:title=" ">
<polygon fill="white" stroke="#bfbfbf" points="0,-134.5 0,-153.5 48,-153.5 48,-134.5 0,-134.5"/>
<text text-anchor="middle" x="24" y="-141.5" font-family="Helvetica,sans-Serif" font-size="10.00">FATFS</text>
</a>
</g>
</g>
<!-- Node3&#45;&gt;Node2 -->
<g id="edge2" class="edge">
<title>Node3&#45;&gt;Node2</title>
<path fill="none" stroke="#9a32cd" stroke-dasharray="5,2" d="M33.33,-125.16C39.89,-112.63 48.37,-96.41 53.49,-86.63"/>
<polygon fill="#9a32cd" stroke="#9a32cd" points="30.12,-123.75 28.59,-134.23 36.32,-127 30.12,-123.75"/>
<text text-anchor="middle" x="49.5" y="-108" font-family="Helvetica,sans-Serif" font-size="10.00"> fs</text>
</g>
<!-- Node4 -->
<g id="node4" class="node">
<title>Node4</title>
<g id="a_node4"><a xlink:href="libgs_8h.html#struct_q_w_o_r_d" target="_top" xlink:title=" ">
<polygon fill="white" stroke="#bfbfbf" points="66,-134.5 66,-153.5 120,-153.5 120,-134.5 66,-134.5"/>
<text text-anchor="middle" x="93" y="-141.5" font-family="Helvetica,sans-Serif" font-size="10.00">QWORD</text>
</a>
</g>
</g>
<!-- Node4&#45;&gt;Node2 -->
<g id="edge3" class="edge">
<title>Node4&#45;&gt;Node2</title>
<path fill="none" stroke="#9a32cd" stroke-dasharray="5,2" d="M83.4,-125.16C76.65,-112.63 67.91,-96.41 62.65,-86.63"/>
<polygon fill="#9a32cd" stroke="#9a32cd" points="80.46,-127.09 88.28,-134.23 86.62,-123.77 80.46,-127.09"/>
<text text-anchor="middle" x="93.5" y="-108" font-family="Helvetica,sans-Serif" font-size="10.00"> objsize</text>
</g>
</g>
</svg>
