<?xml version="1.0" encoding="UTF-8" standalone="no"?>
<!DOCTYPE svg PUBLIC "-//W3C//DTD SVG 1.1//EN"
 "http://www.w3.org/Graphics/SVG/1.1/DTD/svg11.dtd">
<!-- Generated by graphviz version 3.0.0 (20220413.0242)
 -->
<!-- Title: FFOBJID Pages: 1 -->
<svg width="128pt" height="95pt"
 viewBox="0.00 0.00 128.00 95.00" xmlns="http://www.w3.org/2000/svg" xmlns:xlink="http://www.w3.org/1999/xlink">
<g id="graph0" class="graph" transform="scale(1 1) rotate(0) translate(4 91)">
<title>FFOBJID</title>
<polygon fill="white" stroke="transparent" points="-4,4 -4,-91 124,-91 124,4 -4,4"/>
<!-- Node1 -->
<g id="node1" class="node">
<title>Node1</title>
<g id="a_node1"><a xlink:title=" ">
<polygon fill="#bfbfbf" stroke="black" points="29,-0.5 29,-19.5 87,-19.5 87,-0.5 29,-0.5"/>
<text text-anchor="middle" x="58" y="-7.5" font-family="Helvetica,sans-Serif" font-size="10.00">FFOBJID</text>
</a>
</g>
</g>
<!-- Node2 -->
<g id="node2" class="node">
<title>Node2</title>
<g id="a_node2"><a xlink:href="struct_f_a_t_f_s.html" target="_top" xlink:title=" ">
<polygon fill="white" stroke="#bfbfbf" points="0,-67.5 0,-86.5 48,-86.5 48,-67.5 0,-67.5"/>
<text text-anchor="middle" x="24" y="-74.5" font-family="Helvetica,sans-Serif" font-size="10.00">FATFS</text>
</a>
</g>
</g>
<!-- Node2&#45;&gt;Node1 -->
<g id="edge1" class="edge">
<title>Node2&#45;&gt;Node1</title>
<path fill="none" stroke="#9a32cd" stroke-dasharray="5,2" d="M33.33,-58.16C39.89,-45.63 48.37,-29.41 53.49,-19.63"/>
<polygon fill="#9a32cd" stroke="#9a32cd" points="30.12,-56.75 28.59,-67.23 36.32,-60 30.12,-56.75"/>
<text text-anchor="middle" x="49.5" y="-41" font-family="Helvetica,sans-Serif" font-size="10.00"> fs</text>
</g>
<!-- Node3 -->
<g id="node3" class="node">
<title>Node3</title>
<g id="a_node3"><a xlink:href="libgs_8h.html#struct_q_w_o_r_d" target="_top" xlink:title=" ">
<polygon fill="white" stroke="#bfbfbf" points="66,-67.5 66,-86.5 120,-86.5 120,-67.5 66,-67.5"/>
<text text-anchor="middle" x="93" y="-74.5" font-family="Helvetica,sans-Serif" font-size="10.00">QWORD</text>
</a>
</g>
</g>
<!-- Node3&#45;&gt;Node1 -->
<g id="edge2" class="edge">
<title>Node3&#45;&gt;Node1</title>
<path fill="none" stroke="#9a32cd" stroke-dasharray="5,2" d="M83.4,-58.16C76.65,-45.63 67.91,-29.41 62.65,-19.63"/>
<polygon fill="#9a32cd" stroke="#9a32cd" points="80.46,-60.09 88.28,-67.23 86.62,-56.77 80.46,-60.09"/>
<text text-anchor="middle" x="93.5" y="-41" font-family="Helvetica,sans-Serif" font-size="10.00"> objsize</text>
</g>
</g>
</svg>
