<?xml version="1.0" encoding="UTF-8" standalone="no"?>
<!DOCTYPE svg PUBLIC "-//W3C//DTD SVG 1.1//EN"
 "http://www.w3.org/Graphics/SVG/1.1/DTD/svg11.dtd">
<!-- Generated by graphviz version 3.0.0 (20220413.0242)
 -->
<!-- Title: FIL Pages: 1 -->
<svg width="134pt" height="162pt"
 viewBox="0.00 0.00 134.00 162.00" xmlns="http://www.w3.org/2000/svg" xmlns:xlink="http://www.w3.org/1999/xlink">
<g id="graph0" class="graph" transform="scale(1 1) rotate(0) translate(4 158)">
<title>FIL</title>
<polygon fill="white" stroke="transparent" points="-4,4 -4,-158 130,-158 130,4 -4,4"/>
<!-- Node1 -->
<g id="node1" class="node">
<title>Node1</title>
<g id="a_node1"><a xlink:title=" ">
<polygon fill="#bfbfbf" stroke="black" points="57,-0.5 57,-19.5 89,-19.5 89,-0.5 57,-0.5"/>
<text text-anchor="middle" x="73" y="-7.5" font-family="Helvetica,sans-Serif" font-size="10.00">FIL</text>
</a>
</g>
</g>
<!-- Node2 -->
<g id="node2" class="node">
<title>Node2</title>
<g id="a_node2"><a xlink:href="struct_f_f_o_b_j_i_d.html" target="_top" xlink:title=" ">
<polygon fill="white" stroke="#bfbfbf" points="12,-67.5 12,-86.5 70,-86.5 70,-67.5 12,-67.5"/>
<text text-anchor="middle" x="41" y="-74.5" font-family="Helvetica,sans-Serif" font-size="10.00">FFOBJID</text>
</a>
</g>
</g>
<!-- Node2&#45;&gt;Node1 -->
<g id="edge1" class="edge">
<title>Node2&#45;&gt;Node1</title>
<path fill="none" stroke="#9a32cd" stroke-dasharray="5,2" d="M49.78,-58.16C55.95,-45.63 63.94,-29.41 68.75,-19.63"/>
<polygon fill="#9a32cd" stroke="#9a32cd" points="46.59,-56.72 45.32,-67.23 52.87,-59.81 46.59,-56.72"/>
<text text-anchor="middle" x="67" y="-41" font-family="Helvetica,sans-Serif" font-size="10.00"> obj</text>
</g>
<!-- Node3 -->
<g id="node3" class="node">
<title>Node3</title>
<g id="a_node3"><a xlink:href="struct_f_a_t_f_s.html" target="_top" xlink:title=" ">
<polygon fill="white" stroke="#bfbfbf" points="0,-134.5 0,-153.5 48,-153.5 48,-134.5 0,-134.5"/>
<text text-anchor="middle" x="24" y="-141.5" font-family="Helvetica,sans-Serif" font-size="10.00">FATFS</text>
</a>
</g>
</g>
<!-- Node3&#45;&gt;Node2 -->
<g id="edge2" class="edge">
<title>Node3&#45;&gt;Node2</title>
<path fill="none" stroke="#9a32cd" stroke-dasharray="5,2" d="M22.63,-124.21C22.66,-117.99 23.24,-111.1 25,-105 26.87,-98.51 30.68,-91.97 34.12,-86.95"/>
<polygon fill="#9a32cd" stroke="#9a32cd" points="19.14,-124.5 23.01,-134.36 26.13,-124.24 19.14,-124.5"/>
<text text-anchor="middle" x="30.5" y="-108" font-family="Helvetica,sans-Serif" font-size="10.00"> fs</text>
</g>
<!-- Node4 -->
<g id="node4" class="node">
<title>Node4</title>
<g id="a_node4"><a xlink:href="libgs_8h.html#struct_q_w_o_r_d" target="_top" xlink:title=" ">
<polygon fill="white" stroke="#bfbfbf" points="72,-134.5 72,-153.5 126,-153.5 126,-134.5 72,-134.5"/>
<text text-anchor="middle" x="99" y="-141.5" font-family="Helvetica,sans-Serif" font-size="10.00">QWORD</text>
</a>
</g>
</g>
<!-- Node4&#45;&gt;Node1 -->
<g id="edge4" class="edge">
<title>Node4&#45;&gt;Node1</title>
<path fill="none" stroke="#9a32cd" stroke-dasharray="5,2" d="M95.66,-124.43C91.83,-103.41 85.28,-68.18 79,-38 77.75,-31.98 76.25,-25.23 75.06,-19.99"/>
<polygon fill="#9a32cd" stroke="#9a32cd" points="92.21,-125.05 97.44,-134.27 99.1,-123.8 92.21,-125.05"/>
<text text-anchor="middle" x="96.5" y="-74.5" font-family="Helvetica,sans-Serif" font-size="10.00"> fptr</text>
</g>
<!-- Node4&#45;&gt;Node2 -->
<g id="edge3" class="edge">
<title>Node4&#45;&gt;Node2</title>
<path fill="none" stroke="#9a32cd" stroke-dasharray="5,2" d="M73.55,-128.83C68.3,-125.13 63.13,-120.8 59,-116 51.48,-107.25 46.39,-94.83 43.59,-86.6"/>
<polygon fill="#9a32cd" stroke="#9a32cd" points="71.98,-131.98 82.28,-134.46 75.77,-126.1 71.98,-131.98"/>
<text text-anchor="middle" x="75.5" y="-108" font-family="Helvetica,sans-Serif" font-size="10.00"> objsize</text>
</g>
</g>
</svg>
