<?xml version="1.0" encoding="UTF-8" standalone="no"?>
<!DOCTYPE svg PUBLIC "-//W3C//DTD SVG 1.1//EN"
 "http://www.w3.org/Graphics/SVG/1.1/DTD/svg11.dtd">
<!-- Generated by graphviz version 3.0.0 (20220413.0242)
 -->
<!-- Title: ee/kernel/src/timer.c Pages: 1 -->
<svg width="223pt" height="196pt"
 viewBox="0.00 0.00 222.50 196.00" xmlns="http://www.w3.org/2000/svg" xmlns:xlink="http://www.w3.org/1999/xlink">
<g id="graph0" class="graph" transform="scale(1 1) rotate(0) translate(4 192)">
<title>ee/kernel/src/timer.c</title>
<polygon fill="white" stroke="transparent" points="-4,4 -4,-192 218.5,-192 218.5,4 -4,4"/>
<!-- Node1 -->
<g id="node1" class="node">
<title>Node1</title>
<g id="a_node1"><a xlink:title=" ">
<polygon fill="#bfbfbf" stroke="black" points="3.5,-168.5 3.5,-187.5 108.5,-187.5 108.5,-168.5 3.5,-168.5"/>
<text text-anchor="middle" x="56" y="-175.5" font-family="Helvetica,sans-Serif" font-size="10.00">ee/kernel/src/timer.c</text>
</a>
</g>
</g>
<!-- Node2 -->
<g id="node2" class="node">
<title>Node2</title>
<g id="a_node2"><a xlink:href="timer_8h.html" target="_top" xlink:title=" ">
<polygon fill="white" stroke="black" points="0,-112.5 0,-131.5 46,-131.5 46,-112.5 0,-112.5"/>
<text text-anchor="middle" x="23" y="-119.5" font-family="Helvetica,sans-Serif" font-size="10.00">timer.h</text>
</a>
</g>
</g>
<!-- Node1&#45;&gt;Node2 -->
<g id="edge1" class="edge">
<title>Node1&#45;&gt;Node2</title>
<path fill="none" stroke="midnightblue" d="M50.55,-168.08C45.99,-160.61 39.33,-149.72 33.71,-140.52"/>
<polygon fill="midnightblue" stroke="midnightblue" points="36.55,-138.46 28.35,-131.75 30.58,-142.11 36.55,-138.46"/>
</g>
<!-- Node4 -->
<g id="node4" class="node">
<title>Node4</title>
<g id="a_node4"><a xlink:href="kernel_8h.html" target="_top" xlink:title=" ">
<polygon fill="white" stroke="black" points="78,-112.5 78,-131.5 128,-131.5 128,-112.5 78,-112.5"/>
<text text-anchor="middle" x="103" y="-119.5" font-family="Helvetica,sans-Serif" font-size="10.00">kernel.h</text>
</a>
</g>
</g>
<!-- Node1&#45;&gt;Node4 -->
<g id="edge3" class="edge">
<title>Node1&#45;&gt;Node4</title>
<path fill="none" stroke="midnightblue" d="M63.76,-168.08C70.54,-160.3 80.54,-148.8 88.76,-139.37"/>
<polygon fill="midnightblue" stroke="midnightblue" points="91.46,-141.59 95.38,-131.75 86.18,-137 91.46,-141.59"/>
</g>
<!-- Node3 -->
<g id="node3" class="node">
<title>Node3</title>
<g id="a_node3"><a xlink:href="tamtypes_8h.html" target="_top" xlink:title=" ">
<polygon fill="white" stroke="black" points="59,-0.5 59,-19.5 123,-19.5 123,-0.5 59,-0.5"/>
<text text-anchor="middle" x="91" y="-7.5" font-family="Helvetica,sans-Serif" font-size="10.00">tamtypes.h</text>
</a>
</g>
</g>
<!-- Node2&#45;&gt;Node3 -->
<g id="edge2" class="edge">
<title>Node2&#45;&gt;Node3</title>
<path fill="none" stroke="midnightblue" d="M18.59,-112.35C12.58,-99.25 3.68,-73.98 14,-56 22.62,-40.99 38.39,-30.5 53.43,-23.46"/>
<polygon fill="midnightblue" stroke="midnightblue" points="54.82,-26.67 62.63,-19.51 52.06,-20.24 54.82,-26.67"/>
</g>
<!-- Node5 -->
<g id="node5" class="node">
<title>Node5</title>
<g id="a_node5"><a xlink:title=" ">
<polygon fill="white" stroke="#bfbfbf" points="23.5,-56.5 23.5,-75.5 74.5,-75.5 74.5,-56.5 23.5,-56.5"/>
<text text-anchor="middle" x="49" y="-63.5" font-family="Helvetica,sans-Serif" font-size="10.00">stddef.h</text>
</a>
</g>
</g>
<!-- Node4&#45;&gt;Node5 -->
<g id="edge4" class="edge">
<title>Node4&#45;&gt;Node5</title>
<path fill="none" stroke="midnightblue" d="M94.08,-112.08C86.22,-104.22 74.57,-92.57 65.08,-83.08"/>
<polygon fill="midnightblue" stroke="midnightblue" points="67.3,-80.35 57.75,-75.75 62.35,-85.3 67.3,-80.35"/>
</g>
<!-- Node6 -->
<g id="node6" class="node">
<title>Node6</title>
<g id="a_node6"><a xlink:title=" ">
<polygon fill="white" stroke="#bfbfbf" points="92.5,-56.5 92.5,-75.5 143.5,-75.5 143.5,-56.5 92.5,-56.5"/>
<text text-anchor="middle" x="118" y="-63.5" font-family="Helvetica,sans-Serif" font-size="10.00">stdarg.h</text>
</a>
</g>
</g>
<!-- Node4&#45;&gt;Node6 -->
<g id="edge5" class="edge">
<title>Node4&#45;&gt;Node6</title>
<path fill="none" stroke="midnightblue" d="M105.48,-112.08C107.49,-104.85 110.39,-94.41 112.89,-85.4"/>
<polygon fill="midnightblue" stroke="midnightblue" points="116.26,-86.32 115.57,-75.75 109.52,-84.45 116.26,-86.32"/>
</g>
<!-- Node7 -->
<g id="node7" class="node">
<title>Node7</title>
<g id="a_node7"><a xlink:href="sifdma_8h.html" target="_top" xlink:title=" ">
<polygon fill="white" stroke="black" points="161.5,-56.5 161.5,-75.5 214.5,-75.5 214.5,-56.5 161.5,-56.5"/>
<text text-anchor="middle" x="188" y="-63.5" font-family="Helvetica,sans-Serif" font-size="10.00">sifdma.h</text>
</a>
</g>
</g>
<!-- Node4&#45;&gt;Node7 -->
<g id="edge6" class="edge">
<title>Node4&#45;&gt;Node7</title>
<path fill="none" stroke="midnightblue" d="M116.66,-112.32C129.92,-103.9 150.27,-90.97 165.85,-81.07"/>
<polygon fill="midnightblue" stroke="midnightblue" points="167.81,-83.97 174.38,-75.65 164.06,-78.06 167.81,-83.97"/>
</g>
<!-- Node7&#45;&gt;Node3 -->
<g id="edge7" class="edge">
<title>Node7&#45;&gt;Node3</title>
<path fill="none" stroke="midnightblue" d="M172.42,-56.32C157,-47.74 133.19,-34.49 115.29,-24.52"/>
<polygon fill="midnightblue" stroke="midnightblue" points="116.99,-21.46 106.55,-19.65 113.58,-27.58 116.99,-21.46"/>
</g>
</g>
</svg>
