<?xml version="1.0" encoding="UTF-8" standalone="no"?>
<!DOCTYPE svg PUBLIC "-//W3C//DTD SVG 1.1//EN"
 "http://www.w3.org/Graphics/SVG/1.1/DTD/svg11.dtd">
<!-- Generated by graphviz version 3.0.0 (20220413.0242)
 -->
<!-- Title: ee/kernel/include/timer.h Pages: 1 -->
<svg width="884pt" height="162pt"
 viewBox="0.00 0.00 883.50 162.00" xmlns="http://www.w3.org/2000/svg" xmlns:xlink="http://www.w3.org/1999/xlink">
<g id="graph0" class="graph" transform="scale(1 1) rotate(0) translate(4 158)">
<title>ee/kernel/include/timer.h</title>
<polygon fill="white" stroke="transparent" points="-4,4 -4,-158 879.5,-158 879.5,4 -4,4"/>
<!-- Node1 -->
<g id="node1" class="node">
<title>Node1</title>
<g id="a_node1"><a xlink:title=" ">
<polygon fill="#bfbfbf" stroke="black" points="336.5,-134.5 336.5,-153.5 458.5,-153.5 458.5,-134.5 336.5,-134.5"/>
<text text-anchor="middle" x="397.5" y="-141.5" font-family="Helvetica,sans-Serif" font-size="10.00">ee/kernel/include/timer.h</text>
</a>
</g>
</g>
<!-- Node2 -->
<g id="node2" class="node">
<title>Node2</title>
<g id="a_node2"><a xlink:href="timer__alarm_8h_source.html" target="_top" xlink:title=" ">
<polygon fill="white" stroke="black" points="111,-67.5 111,-97.5 226,-97.5 226,-67.5 111,-67.5"/>
<text text-anchor="start" x="119" y="-85.5" font-family="Helvetica,sans-Serif" font-size="10.00">ee/kernel/include/timer</text>
<text text-anchor="middle" x="168.5" y="-74.5" font-family="Helvetica,sans-Serif" font-size="10.00">_alarm.h</text>
</a>
</g>
</g>
<!-- Node1&#45;&gt;Node2 -->
<g id="edge1" class="edge">
<title>Node1&#45;&gt;Node2</title>
<path fill="none" stroke="midnightblue" d="M354.62,-131.86C317.23,-122.14 262.82,-108.01 222.47,-97.52"/>
<polygon fill="midnightblue" stroke="midnightblue" points="354.13,-135.35 364.69,-134.48 355.89,-128.57 354.13,-135.35"/>
</g>
<!-- Node3 -->
<g id="node3" class="node">
<title>Node3</title>
<g id="a_node3"><a xlink:href="initsys_8c.html" target="_top" xlink:title=" ">
<polygon fill="white" stroke="black" points="0,-6 0,-25 111,-25 111,-6 0,-6"/>
<text text-anchor="middle" x="55.5" y="-13" font-family="Helvetica,sans-Serif" font-size="10.00">ee/kernel/src/initsys.c</text>
</a>
</g>
</g>
<!-- Node1&#45;&gt;Node3 -->
<g id="edge6" class="edge">
<title>Node1&#45;&gt;Node3</title>
<path fill="none" stroke="midnightblue" d="M325.91,-139.26C250.2,-134.07 136.9,-122.42 101.5,-98 75.42,-80.01 62.38,-42.14 57.65,-25.11"/>
<polygon fill="midnightblue" stroke="midnightblue" points="326.12,-142.78 336.33,-139.95 326.58,-135.8 326.12,-142.78"/>
</g>
<!-- Node4 -->
<g id="node4" class="node">
<title>Node4</title>
<g id="a_node4"><a xlink:href="timer__alarm_8c_source.html" target="_top" xlink:title=" ">
<polygon fill="white" stroke="black" points="260.5,-0.5 260.5,-30.5 358.5,-30.5 358.5,-0.5 260.5,-0.5"/>
<text text-anchor="start" x="268.5" y="-18.5" font-family="Helvetica,sans-Serif" font-size="10.00">ee/kernel/src/timer</text>
<text text-anchor="middle" x="309.5" y="-7.5" font-family="Helvetica,sans-Serif" font-size="10.00">_alarm.c</text>
</a>
</g>
</g>
<!-- Node1&#45;&gt;Node4 -->
<g id="edge9" class="edge">
<title>Node1&#45;&gt;Node4</title>
<path fill="none" stroke="midnightblue" d="M326.57,-133.03C306.08,-126.5 285.93,-115.73 273.5,-98 258.41,-76.47 279.23,-47.59 294.93,-30.62"/>
<polygon fill="midnightblue" stroke="midnightblue" points="325.72,-136.43 336.29,-135.83 327.65,-129.7 325.72,-136.43"/>
</g>
<!-- Node6 -->
<g id="node6" class="node">
<title>Node6</title>
<g id="a_node6"><a xlink:href="alarm_8c.html" target="_top" xlink:title=" ">
<polygon fill="white" stroke="black" points="283,-73 283,-92 390,-92 390,-73 283,-73"/>
<text text-anchor="middle" x="336.5" y="-80" font-family="Helvetica,sans-Serif" font-size="10.00">ee/kernel/src/alarm.c</text>
</a>
</g>
</g>
<!-- Node1&#45;&gt;Node6 -->
<g id="edge5" class="edge">
<title>Node1&#45;&gt;Node6</title>
<path fill="none" stroke="midnightblue" d="M381.43,-127.32C369.84,-116.02 354.64,-101.19 345.22,-92.01"/>
<polygon fill="midnightblue" stroke="midnightblue" points="379.16,-130 388.76,-134.48 384.05,-124.99 379.16,-130"/>
</g>
<!-- Node7 -->
<g id="node7" class="node">
<title>Node7</title>
<g id="a_node7"><a xlink:href="srcfile_2src_2alarm_8c_source.html" target="_top" xlink:title=" ">
<polygon fill="white" stroke="black" points="408,-67.5 408,-97.5 509,-97.5 509,-67.5 408,-67.5"/>
<text text-anchor="start" x="416" y="-85.5" font-family="Helvetica,sans-Serif" font-size="10.00">ee/kernel/src/srcfile</text>
<text text-anchor="middle" x="458.5" y="-74.5" font-family="Helvetica,sans-Serif" font-size="10.00">/src/alarm.c</text>
</a>
</g>
</g>
<!-- Node1&#45;&gt;Node7 -->
<g id="edge7" class="edge">
<title>Node1&#45;&gt;Node7</title>
<path fill="none" stroke="midnightblue" d="M413.53,-127.37C423.01,-118.11 434.94,-106.48 444.12,-97.52"/>
<polygon fill="midnightblue" stroke="midnightblue" points="410.95,-124.99 406.24,-134.48 415.84,-130 410.95,-124.99"/>
</g>
<!-- Node8 -->
<g id="node8" class="node">
<title>Node8</title>
<g id="a_node8"><a xlink:href="timer_8c.html" target="_top" xlink:title=" ">
<polygon fill="white" stroke="black" points="527,-73 527,-92 632,-92 632,-73 527,-73"/>
<text text-anchor="middle" x="579.5" y="-80" font-family="Helvetica,sans-Serif" font-size="10.00">ee/kernel/src/timer.c</text>
</a>
</g>
</g>
<!-- Node1&#45;&gt;Node8 -->
<g id="edge8" class="edge">
<title>Node1&#45;&gt;Node8</title>
<path fill="none" stroke="midnightblue" d="M433.5,-131.23C468.87,-119.67 522,-102.3 553.47,-92.01"/>
<polygon fill="midnightblue" stroke="midnightblue" points="431.99,-128.04 423.58,-134.48 434.17,-134.69 431.99,-128.04"/>
</g>
<!-- Node9 -->
<g id="node9" class="node">
<title>Node9</title>
<g id="a_node9"><a xlink:href="ps2sdkapi_8h_source.html" target="_top" xlink:title=" ">
<polygon fill="white" stroke="black" points="650,-67.5 650,-97.5 747,-97.5 747,-67.5 650,-67.5"/>
<text text-anchor="start" x="658" y="-85.5" font-family="Helvetica,sans-Serif" font-size="10.00">ee/libcglue/include</text>
<text text-anchor="middle" x="698.5" y="-74.5" font-family="Helvetica,sans-Serif" font-size="10.00">/ps2sdkapi.h</text>
</a>
</g>
</g>
<!-- Node1&#45;&gt;Node9 -->
<g id="edge10" class="edge">
<title>Node1&#45;&gt;Node9</title>
<path fill="none" stroke="midnightblue" d="M458.75,-132.74C508.01,-124.23 578.92,-111.39 640.5,-98 643.54,-97.34 646.67,-96.63 649.82,-95.9"/>
<polygon fill="midnightblue" stroke="midnightblue" points="458.15,-129.29 448.88,-134.44 459.33,-136.19 458.15,-129.29"/>
</g>
<!-- Node11 -->
<g id="node11" class="node">
<title>Node11</title>
<g id="a_node11"><a xlink:href="libcglue_2src_2glue_8c_source.html" target="_top" xlink:title=" ">
<polygon fill="white" stroke="black" points="767.5,-6 767.5,-25 875.5,-25 875.5,-6 767.5,-6"/>
<text text-anchor="middle" x="821.5" y="-13" font-family="Helvetica,sans-Serif" font-size="10.00">ee/libcglue/src/glue.c</text>
</a>
</g>
</g>
<!-- Node1&#45;&gt;Node11 -->
<g id="edge16" class="edge">
<title>Node1&#45;&gt;Node11</title>
<path fill="none" stroke="midnightblue" d="M468.69,-140.3C558.71,-135.83 707.73,-124.57 755.5,-98 786.53,-80.74 808.58,-42.49 817.33,-25.24"/>
<polygon fill="midnightblue" stroke="midnightblue" points="468.37,-136.81 458.55,-140.79 468.71,-143.8 468.37,-136.81"/>
</g>
<!-- Node2&#45;&gt;Node3 -->
<g id="edge2" class="edge">
<title>Node2&#45;&gt;Node3</title>
<path fill="none" stroke="midnightblue" d="M135.13,-62.31C113.61,-49.93 86.67,-34.43 70.29,-25.01"/>
<polygon fill="midnightblue" stroke="midnightblue" points="133.57,-65.44 143.98,-67.4 137.06,-59.38 133.57,-65.44"/>
</g>
<!-- Node2&#45;&gt;Node4 -->
<g id="edge3" class="edge">
<title>Node2&#45;&gt;Node4</title>
<path fill="none" stroke="midnightblue" d="M208.35,-63.13C230.75,-52.8 258.28,-40.11 278.96,-30.58"/>
<polygon fill="midnightblue" stroke="midnightblue" points="206.71,-60.03 199.09,-67.4 209.64,-66.39 206.71,-60.03"/>
</g>
<!-- Node5 -->
<g id="node5" class="node">
<title>Node5</title>
<g id="a_node5"><a xlink:href="sleep_8c.html" target="_top" xlink:title=" ">
<polygon fill="white" stroke="black" points="129,-6 129,-25 242,-25 242,-6 129,-6"/>
<text text-anchor="middle" x="185.5" y="-13" font-family="Helvetica,sans-Serif" font-size="10.00">ee/libcglue/src/sleep.c</text>
</a>
</g>
</g>
<!-- Node2&#45;&gt;Node5 -->
<g id="edge4" class="edge">
<title>Node2&#45;&gt;Node5</title>
<path fill="none" stroke="midnightblue" d="M174.75,-57.6C177.71,-46.28 181.06,-33.46 183.23,-25.19"/>
<polygon fill="midnightblue" stroke="midnightblue" points="171.33,-56.84 172.19,-67.4 178.11,-58.61 171.33,-56.84"/>
</g>
<!-- Node9&#45;&gt;Node4 -->
<g id="edge12" class="edge">
<title>Node9&#45;&gt;Node4</title>
<path fill="none" stroke="midnightblue" d="M639.69,-66.98C525.96,-45.29 494.62,-49.38 384.5,-31 376.13,-29.6 367.25,-28 358.65,-26.38"/>
<polygon fill="midnightblue" stroke="midnightblue" points="639.37,-70.48 649.85,-68.94 640.69,-63.61 639.37,-70.48"/>
</g>
<!-- Node10 -->
<g id="node10" class="node">
<title>Node10</title>
<g id="a_node10"><a xlink:href="osd__config_8c.html" target="_top" xlink:title=" ">
<polygon fill="white" stroke="black" points="393.5,-6 393.5,-25 523.5,-25 523.5,-6 393.5,-6"/>
<text text-anchor="middle" x="458.5" y="-13" font-family="Helvetica,sans-Serif" font-size="10.00">ee/kernel/src/osd_config.c</text>
</a>
</g>
</g>
<!-- Node9&#45;&gt;Node10 -->
<g id="edge11" class="edge">
<title>Node9&#45;&gt;Node10</title>
<path fill="none" stroke="midnightblue" d="M640.14,-65.69C592.93,-52.91 528.25,-35.39 490.17,-25.08"/>
<polygon fill="midnightblue" stroke="midnightblue" points="639.37,-69.11 649.93,-68.35 641.2,-62.35 639.37,-69.11"/>
</g>
<!-- Node9&#45;&gt;Node11 -->
<g id="edge13" class="edge">
<title>Node9&#45;&gt;Node11</title>
<path fill="none" stroke="midnightblue" d="M734.19,-62.64C757.72,-50.2 787.41,-34.51 805.4,-25.01"/>
<polygon fill="midnightblue" stroke="midnightblue" points="732.4,-59.63 725.19,-67.4 735.67,-65.82 732.4,-59.63"/>
</g>
<!-- Node12 -->
<g id="node12" class="node">
<title>Node12</title>
<g id="a_node12"><a xlink:href="file_xio__rpc_8c.html" target="_top" xlink:title=" ">
<polygon fill="white" stroke="black" points="542,-0.5 542,-30.5 629,-30.5 629,-0.5 542,-0.5"/>
<text text-anchor="start" x="550" y="-18.5" font-family="Helvetica,sans-Serif" font-size="10.00">ee/rpc/filexio/src</text>
<text text-anchor="middle" x="585.5" y="-7.5" font-family="Helvetica,sans-Serif" font-size="10.00">/fileXio_rpc.c</text>
</a>
</g>
</g>
<!-- Node9&#45;&gt;Node12 -->
<g id="edge14" class="edge">
<title>Node9&#45;&gt;Node12</title>
<path fill="none" stroke="midnightblue" d="M665.11,-62.3C647.43,-52.12 626.1,-39.85 609.97,-30.58"/>
<polygon fill="midnightblue" stroke="midnightblue" points="663.57,-65.44 673.98,-67.4 667.06,-59.38 663.57,-65.44"/>
</g>
<!-- Node13 -->
<g id="node13" class="node">
<title>Node13</title>
<g id="a_node13"><a xlink:href="libkbd_8c.html" target="_top" xlink:title=" ">
<polygon fill="white" stroke="black" points="647.5,-0.5 647.5,-30.5 749.5,-30.5 749.5,-0.5 647.5,-0.5"/>
<text text-anchor="start" x="655.5" y="-18.5" font-family="Helvetica,sans-Serif" font-size="10.00">ee/rpc/keyboard/src</text>
<text text-anchor="middle" x="698.5" y="-7.5" font-family="Helvetica,sans-Serif" font-size="10.00">/libkbd.c</text>
</a>
</g>
</g>
<!-- Node9&#45;&gt;Node13 -->
<g id="edge15" class="edge">
<title>Node9&#45;&gt;Node13</title>
<path fill="none" stroke="midnightblue" d="M698.5,-57.11C698.5,-48.15 698.5,-38.32 698.5,-30.58"/>
<polygon fill="midnightblue" stroke="midnightblue" points="695,-57.4 698.5,-67.4 702,-57.4 695,-57.4"/>
</g>
</g>
</svg>
