<?xml version="1.0" encoding="UTF-8" standalone="no"?>
<!DOCTYPE svg PUBLIC "-//W3C//DTD SVG 1.1//EN"
 "http://www.w3.org/Graphics/SVG/1.1/DTD/svg11.dtd">
<!-- Generated by graphviz version 3.0.0 (20220413.0242)
 -->
<!-- Title: iop/usb/usbhdfsd/include/usbhdfsd.h Pages: 1 -->
<svg width="224pt" height="207pt"
 viewBox="0.00 0.00 223.50 207.00" xmlns="http://www.w3.org/2000/svg" xmlns:xlink="http://www.w3.org/1999/xlink">
<g id="graph0" class="graph" transform="scale(1 1) rotate(0) translate(4 203)">
<title>iop/usb/usbhdfsd/include/usbhdfsd.h</title>
<polygon fill="white" stroke="transparent" points="-4,4 -4,-203 219.5,-203 219.5,4 -4,4"/>
<!-- Node1 -->
<g id="node1" class="node">
<title>Node1</title>
<g id="a_node1"><a xlink:title=" ">
<polygon fill="#bfbfbf" stroke="black" points="20,-168.5 20,-198.5 145,-198.5 145,-168.5 20,-168.5"/>
<text text-anchor="start" x="28" y="-186.5" font-family="Helvetica,sans-Serif" font-size="10.00">iop/usb/usbhdfsd/include</text>
<text text-anchor="middle" x="82.5" y="-175.5" font-family="Helvetica,sans-Serif" font-size="10.00">/usbhdfsd.h</text>
</a>
</g>
</g>
<!-- Node2 -->
<g id="node2" class="node">
<title>Node2</title>
<g id="a_node2"><a xlink:title=" ">
<polygon fill="white" stroke="#bfbfbf" points="0,-112.5 0,-131.5 47,-131.5 47,-112.5 0,-112.5"/>
<text text-anchor="middle" x="23.5" y="-119.5" font-family="Helvetica,sans-Serif" font-size="10.00">types.h</text>
</a>
</g>
</g>
<!-- Node1&#45;&gt;Node2 -->
<g id="edge1" class="edge">
<title>Node1&#45;&gt;Node2</title>
<path fill="none" stroke="midnightblue" d="M68.52,-168.4C59.77,-159.58 48.47,-148.18 39.38,-139.02"/>
<polygon fill="midnightblue" stroke="midnightblue" points="41.61,-136.29 32.09,-131.66 36.64,-141.22 41.61,-136.29"/>
</g>
<!-- Node3 -->
<g id="node3" class="node">
<title>Node3</title>
<g id="a_node3"><a xlink:href="irx_8h.html" target="_top" xlink:title=" ">
<polygon fill="white" stroke="black" points="65.5,-112.5 65.5,-131.5 99.5,-131.5 99.5,-112.5 65.5,-112.5"/>
<text text-anchor="middle" x="82.5" y="-119.5" font-family="Helvetica,sans-Serif" font-size="10.00">irx.h</text>
</a>
</g>
</g>
<!-- Node1&#45;&gt;Node3 -->
<g id="edge2" class="edge">
<title>Node1&#45;&gt;Node3</title>
<path fill="none" stroke="midnightblue" d="M82.5,-168.4C82.5,-160.47 82.5,-150.46 82.5,-141.86"/>
<polygon fill="midnightblue" stroke="midnightblue" points="86,-141.66 82.5,-131.66 79,-141.66 86,-141.66"/>
</g>
<!-- Node7 -->
<g id="node7" class="node">
<title>Node7</title>
<g id="a_node7"><a xlink:href="usbhdfsd-common_8h.html" target="_top" xlink:title=" ">
<polygon fill="white" stroke="black" points="111.5,-56.5 111.5,-75.5 215.5,-75.5 215.5,-56.5 111.5,-56.5"/>
<text text-anchor="middle" x="163.5" y="-63.5" font-family="Helvetica,sans-Serif" font-size="10.00">usbhdfsd&#45;common.h</text>
</a>
</g>
</g>
<!-- Node1&#45;&gt;Node7 -->
<g id="edge6" class="edge">
<title>Node1&#45;&gt;Node7</title>
<path fill="none" stroke="midnightblue" d="M92.43,-168.34C107.36,-147.05 135.53,-106.89 151.55,-84.03"/>
<polygon fill="midnightblue" stroke="midnightblue" points="154.54,-85.87 157.42,-75.67 148.81,-81.85 154.54,-85.87"/>
</g>
<!-- Node4 -->
<g id="node4" class="node">
<title>Node4</title>
<g id="a_node4"><a xlink:href="types_8h_source.html" target="_top" xlink:title=" ">
<polygon fill="white" stroke="black" points="46,-56.5 46,-75.5 93,-75.5 93,-56.5 46,-56.5"/>
<text text-anchor="middle" x="69.5" y="-63.5" font-family="Helvetica,sans-Serif" font-size="10.00">types.h</text>
</a>
</g>
</g>
<!-- Node3&#45;&gt;Node4 -->
<g id="edge3" class="edge">
<title>Node3&#45;&gt;Node4</title>
<path fill="none" stroke="midnightblue" d="M80.35,-112.08C78.63,-104.93 76.15,-94.64 74,-85.69"/>
<polygon fill="midnightblue" stroke="midnightblue" points="77.35,-84.65 71.61,-75.75 70.54,-86.29 77.35,-84.65"/>
</g>
<!-- Node5 -->
<g id="node5" class="node">
<title>Node5</title>
<g id="a_node5"><a xlink:title=" ">
<polygon fill="white" stroke="#bfbfbf" points="44,-0.5 44,-19.5 95,-19.5 95,-0.5 44,-0.5"/>
<text text-anchor="middle" x="69.5" y="-7.5" font-family="Helvetica,sans-Serif" font-size="10.00">stddef.h</text>
</a>
</g>
</g>
<!-- Node4&#45;&gt;Node5 -->
<g id="edge4" class="edge">
<title>Node4&#45;&gt;Node5</title>
<path fill="none" stroke="midnightblue" d="M69.5,-56.08C69.5,-49.01 69.5,-38.86 69.5,-29.99"/>
<polygon fill="midnightblue" stroke="midnightblue" points="73,-29.75 69.5,-19.75 66,-29.75 73,-29.75"/>
</g>
<!-- Node6 -->
<g id="node6" class="node">
<title>Node6</title>
<g id="a_node6"><a xlink:href="tamtypes_8h.html" target="_top" xlink:title=" ">
<polygon fill="white" stroke="black" points="122.5,-0.5 122.5,-19.5 186.5,-19.5 186.5,-0.5 122.5,-0.5"/>
<text text-anchor="middle" x="154.5" y="-7.5" font-family="Helvetica,sans-Serif" font-size="10.00">tamtypes.h</text>
</a>
</g>
</g>
<!-- Node4&#45;&gt;Node6 -->
<g id="edge5" class="edge">
<title>Node4&#45;&gt;Node6</title>
<path fill="none" stroke="midnightblue" d="M83.16,-56.32C96.42,-47.9 116.77,-34.97 132.35,-25.07"/>
<polygon fill="midnightblue" stroke="midnightblue" points="134.31,-27.97 140.88,-19.65 130.56,-22.06 134.31,-27.97"/>
</g>
<!-- Node7&#45;&gt;Node6 -->
<g id="edge7" class="edge">
<title>Node7&#45;&gt;Node6</title>
<path fill="none" stroke="midnightblue" d="M162.01,-56.08C160.82,-48.93 159.11,-38.64 157.62,-29.69"/>
<polygon fill="midnightblue" stroke="midnightblue" points="161.05,-29.04 155.96,-19.75 154.15,-30.19 161.05,-29.04"/>
</g>
</g>
</svg>
