<?xml version="1.0" encoding="UTF-8" standalone="no"?>
<!DOCTYPE svg PUBLIC "-//W3C//DTD SVG 1.1//EN"
 "http://www.w3.org/Graphics/SVG/1.1/DTD/svg11.dtd">
<!-- Generated by graphviz version 3.0.0 (20220413.0242)
 -->
<!-- Title: common/include/usbhdfsd&#45;common.h Pages: 1 -->
<svg width="1356pt" height="173pt"
 viewBox="0.00 0.00 1356.00 173.00" xmlns="http://www.w3.org/2000/svg" xmlns:xlink="http://www.w3.org/1999/xlink">
<g id="graph0" class="graph" transform="scale(1 1) rotate(0) translate(4 169)">
<title>common/include/usbhdfsd&#45;common.h</title>
<polygon fill="white" stroke="transparent" points="-4,4 -4,-169 1352,-169 1352,4 -4,4"/>
<!-- Node1 -->
<g id="node1" class="node">
<title>Node1</title>
<g id="a_node1"><a xlink:title=" ">
<polygon fill="#bfbfbf" stroke="black" points="416,-134.5 416,-164.5 547,-164.5 547,-134.5 416,-134.5"/>
<text text-anchor="start" x="424" y="-152.5" font-family="Helvetica,sans-Serif" font-size="10.00">common/include/usbhdfsd</text>
<text text-anchor="middle" x="481.5" y="-141.5" font-family="Helvetica,sans-Serif" font-size="10.00">&#45;common.h</text>
</a>
</g>
</g>
<!-- Node2 -->
<g id="node2" class="node">
<title>Node2</title>
<g id="a_node2"><a xlink:href="fs_2bdmfs__fatfs_2src_2fs__driver_8c_source.html" target="_top" xlink:title=" ">
<polygon fill="white" stroke="black" points="0,-67.5 0,-97.5 95,-97.5 95,-67.5 0,-67.5"/>
<text text-anchor="start" x="8" y="-85.5" font-family="Helvetica,sans-Serif" font-size="10.00">iop/fs/bdmfs_fatfs</text>
<text text-anchor="middle" x="47.5" y="-74.5" font-family="Helvetica,sans-Serif" font-size="10.00">/src/fs_driver.c</text>
</a>
</g>
</g>
<!-- Node1&#45;&gt;Node2 -->
<g id="edge1" class="edge">
<title>Node1&#45;&gt;Node2</title>
<path fill="none" stroke="midnightblue" d="M405.85,-141.11C329.23,-132.98 207.51,-118.34 103.5,-98 100.74,-97.46 97.91,-96.87 95.07,-96.23"/>
<polygon fill="midnightblue" stroke="midnightblue" points="405.58,-144.6 415.89,-142.16 406.31,-137.64 405.58,-144.6"/>
</g>
<!-- Node3 -->
<g id="node3" class="node">
<title>Node3</title>
<g id="a_node3"><a xlink:href="fs_2bdmfs__vfat_2src_2fs__driver_8c_source.html" target="_top" xlink:title=" ">
<polygon fill="white" stroke="black" points="113,-67.5 113,-97.5 222,-97.5 222,-67.5 113,-67.5"/>
<text text-anchor="start" x="121" y="-85.5" font-family="Helvetica,sans-Serif" font-size="10.00">iop/fs/bdmfs_vfat/src</text>
<text text-anchor="middle" x="167.5" y="-74.5" font-family="Helvetica,sans-Serif" font-size="10.00">/fs_driver.c</text>
</a>
</g>
</g>
<!-- Node1&#45;&gt;Node3 -->
<g id="edge2" class="edge">
<title>Node1&#45;&gt;Node3</title>
<path fill="none" stroke="midnightblue" d="M405.87,-133.7C356.23,-123.87 289.93,-110.52 231.5,-98 228.49,-97.36 225.41,-96.69 222.29,-96"/>
<polygon fill="midnightblue" stroke="midnightblue" points="405.39,-137.18 415.88,-135.68 406.75,-130.31 405.39,-137.18"/>
</g>
<!-- Node4 -->
<g id="node4" class="node">
<title>Node4</title>
<g id="a_node4"><a xlink:href="bd__defrag_8h.html" target="_top" xlink:title=" ">
<polygon fill="white" stroke="black" points="240.5,-67.5 240.5,-97.5 346.5,-97.5 346.5,-67.5 240.5,-67.5"/>
<text text-anchor="start" x="248.5" y="-85.5" font-family="Helvetica,sans-Serif" font-size="10.00">iop/fs/libbdm/include</text>
<text text-anchor="middle" x="293.5" y="-74.5" font-family="Helvetica,sans-Serif" font-size="10.00">/bd_defrag.h</text>
</a>
</g>
</g>
<!-- Node1&#45;&gt;Node4 -->
<g id="edge3" class="edge">
<title>Node1&#45;&gt;Node4</title>
<path fill="none" stroke="midnightblue" d="M431.15,-131.09C400.8,-120.6 362.65,-107.41 334.21,-97.58"/>
<polygon fill="midnightblue" stroke="midnightblue" points="430.11,-134.44 440.71,-134.4 432.4,-127.82 430.11,-134.44"/>
</g>
<!-- Node6 -->
<g id="node6" class="node">
<title>Node6</title>
<g id="a_node6"><a xlink:href="_i_e_e_e1394__bd_2src_2sbp2__driver_8c_source.html" target="_top" xlink:title=" ">
<polygon fill="white" stroke="black" points="364.5,-67.5 364.5,-97.5 474.5,-97.5 474.5,-67.5 364.5,-67.5"/>
<text text-anchor="start" x="372.5" y="-85.5" font-family="Helvetica,sans-Serif" font-size="10.00">iop/iLink/IEEE1394</text>
<text text-anchor="middle" x="419.5" y="-74.5" font-family="Helvetica,sans-Serif" font-size="10.00">_bd/src/sbp2_driver.c</text>
</a>
</g>
</g>
<!-- Node1&#45;&gt;Node6 -->
<g id="edge5" class="edge">
<title>Node1&#45;&gt;Node6</title>
<path fill="none" stroke="midnightblue" d="M461.02,-127.02C451.78,-117.34 441.13,-106.17 432.93,-97.58"/>
<polygon fill="midnightblue" stroke="midnightblue" points="458.61,-129.58 468.05,-134.4 463.68,-124.74 458.61,-129.58"/>
</g>
<!-- Node7 -->
<g id="node7" class="node">
<title>Node7</title>
<g id="a_node7"><a xlink:href="i_link_2_i_e_e_e1394__disk_2src_2fat__write_8c_source.html" target="_top" xlink:title=" ">
<polygon fill="white" stroke="black" points="492.5,-67.5 492.5,-97.5 596.5,-97.5 596.5,-67.5 492.5,-67.5"/>
<text text-anchor="start" x="500.5" y="-85.5" font-family="Helvetica,sans-Serif" font-size="10.00">iop/iLink/IEEE1394</text>
<text text-anchor="middle" x="544.5" y="-74.5" font-family="Helvetica,sans-Serif" font-size="10.00">_disk/src/fat_write.c</text>
</a>
</g>
</g>
<!-- Node1&#45;&gt;Node7 -->
<g id="edge6" class="edge">
<title>Node1&#45;&gt;Node7</title>
<path fill="none" stroke="midnightblue" d="M502.31,-127.02C511.7,-117.34 522.52,-106.17 530.86,-97.58"/>
<polygon fill="midnightblue" stroke="midnightblue" points="499.62,-124.78 495.17,-134.4 504.64,-129.65 499.62,-124.78"/>
</g>
<!-- Node8 -->
<g id="node8" class="node">
<title>Node8</title>
<g id="a_node8"><a xlink:href="i_link_2_i_e_e_e1394__disk_2src_2fs__driver_8c_source.html" target="_top" xlink:title=" ">
<polygon fill="white" stroke="black" points="614.5,-67.5 614.5,-97.5 718.5,-97.5 718.5,-67.5 614.5,-67.5"/>
<text text-anchor="start" x="622.5" y="-85.5" font-family="Helvetica,sans-Serif" font-size="10.00">iop/iLink/IEEE1394</text>
<text text-anchor="middle" x="666.5" y="-74.5" font-family="Helvetica,sans-Serif" font-size="10.00">_disk/src/fs_driver.c</text>
</a>
</g>
</g>
<!-- Node1&#45;&gt;Node8 -->
<g id="edge7" class="edge">
<title>Node1&#45;&gt;Node8</title>
<path fill="none" stroke="midnightblue" d="M531.44,-130.96C561.24,-120.48 598.57,-107.37 626.44,-97.58"/>
<polygon fill="midnightblue" stroke="midnightblue" points="529.92,-127.78 521.64,-134.4 532.24,-134.38 529.92,-127.78"/>
</g>
<!-- Node9 -->
<g id="node9" class="node">
<title>Node9</title>
<g id="a_node9"><a xlink:href="usbhdfsd_8h.html" target="_top" xlink:title=" ">
<polygon fill="white" stroke="black" points="737,-67.5 737,-97.5 862,-97.5 862,-67.5 737,-67.5"/>
<text text-anchor="start" x="745" y="-85.5" font-family="Helvetica,sans-Serif" font-size="10.00">iop/usb/usbhdfsd/include</text>
<text text-anchor="middle" x="799.5" y="-74.5" font-family="Helvetica,sans-Serif" font-size="10.00">/usbhdfsd.h</text>
</a>
</g>
</g>
<!-- Node1&#45;&gt;Node9 -->
<g id="edge8" class="edge">
<title>Node1&#45;&gt;Node9</title>
<path fill="none" stroke="midnightblue" d="M557.02,-133.06C611.85,-121.86 685.18,-106.87 736.79,-96.32"/>
<polygon fill="midnightblue" stroke="midnightblue" points="556.1,-129.68 547,-135.11 557.5,-136.54 556.1,-129.68"/>
</g>
<!-- Node18 -->
<g id="node18" class="node">
<title>Node18</title>
<g id="a_node18"><a xlink:href="usb__mass_8c_source.html" target="_top" xlink:title=" ">
<polygon fill="white" stroke="black" points="880,-67.5 880,-97.5 987,-97.5 987,-67.5 880,-67.5"/>
<text text-anchor="start" x="888" y="-85.5" font-family="Helvetica,sans-Serif" font-size="10.00">iop/usb/usbmass_bd</text>
<text text-anchor="middle" x="933.5" y="-74.5" font-family="Helvetica,sans-Serif" font-size="10.00">/src/usb_mass.c</text>
</a>
</g>
</g>
<!-- Node1&#45;&gt;Node18 -->
<g id="edge17" class="edge">
<title>Node1&#45;&gt;Node18</title>
<path fill="none" stroke="midnightblue" d="M557.34,-140.97C636.19,-132.61 763.01,-117.66 871.5,-98 874.22,-97.51 877,-96.97 879.8,-96.41"/>
<polygon fill="midnightblue" stroke="midnightblue" points="556.6,-137.53 547.02,-142.06 557.33,-144.49 556.6,-137.53"/>
</g>
<!-- Node5 -->
<g id="node5" class="node">
<title>Node5</title>
<g id="a_node5"><a xlink:href="bd__defrag_8c_source.html" target="_top" xlink:title=" ">
<polygon fill="white" stroke="black" points="242.5,-0.5 242.5,-30.5 344.5,-30.5 344.5,-0.5 242.5,-0.5"/>
<text text-anchor="start" x="250.5" y="-18.5" font-family="Helvetica,sans-Serif" font-size="10.00">iop/fs/libbdm/src/bd</text>
<text text-anchor="middle" x="293.5" y="-7.5" font-family="Helvetica,sans-Serif" font-size="10.00">_defrag.c</text>
</a>
</g>
</g>
<!-- Node4&#45;&gt;Node5 -->
<g id="edge4" class="edge">
<title>Node4&#45;&gt;Node5</title>
<path fill="none" stroke="midnightblue" d="M293.5,-57.11C293.5,-48.15 293.5,-38.32 293.5,-30.58"/>
<polygon fill="midnightblue" stroke="midnightblue" points="290,-57.4 293.5,-67.4 297,-57.4 290,-57.4"/>
</g>
<!-- Node10 -->
<g id="node10" class="node">
<title>Node10</title>
<g id="a_node10"><a xlink:href="api_8c_source.html" target="_top" xlink:title=" ">
<polygon fill="white" stroke="black" points="366,-0.5 366,-30.5 473,-30.5 473,-0.5 366,-0.5"/>
<text text-anchor="start" x="374" y="-18.5" font-family="Helvetica,sans-Serif" font-size="10.00">iop/usb/usbhdfsd/src</text>
<text text-anchor="middle" x="419.5" y="-7.5" font-family="Helvetica,sans-Serif" font-size="10.00">/api.c</text>
</a>
</g>
</g>
<!-- Node9&#45;&gt;Node10 -->
<g id="edge9" class="edge">
<title>Node9&#45;&gt;Node10</title>
<path fill="none" stroke="midnightblue" d="M726.56,-66.9C616.89,-48.27 586.88,-51 481.5,-31 478.78,-30.48 476.01,-29.93 473.21,-29.35"/>
<polygon fill="midnightblue" stroke="midnightblue" points="726.26,-70.4 736.71,-68.65 727.45,-63.5 726.26,-70.4"/>
</g>
<!-- Node11 -->
<g id="node11" class="node">
<title>Node11</title>
<g id="a_node11"><a xlink:href="usb_2usbhdfsd_2src_2fat__driver_8c_source.html" target="_top" xlink:title=" ">
<polygon fill="white" stroke="black" points="491,-0.5 491,-30.5 598,-30.5 598,-0.5 491,-0.5"/>
<text text-anchor="start" x="499" y="-18.5" font-family="Helvetica,sans-Serif" font-size="10.00">iop/usb/usbhdfsd/src</text>
<text text-anchor="middle" x="544.5" y="-7.5" font-family="Helvetica,sans-Serif" font-size="10.00">/fat_driver.c</text>
</a>
</g>
</g>
<!-- Node9&#45;&gt;Node11 -->
<g id="edge10" class="edge">
<title>Node9&#45;&gt;Node11</title>
<path fill="none" stroke="midnightblue" d="M734.57,-64.95C692.32,-54.18 637.89,-40.3 598.11,-30.16"/>
<polygon fill="midnightblue" stroke="midnightblue" points="733.93,-68.4 744.48,-67.48 735.66,-61.61 733.93,-68.4"/>
</g>
<!-- Node12 -->
<g id="node12" class="node">
<title>Node12</title>
<g id="a_node12"><a xlink:href="usb_2usbhdfsd_2src_2fat__write_8c_source.html" target="_top" xlink:title=" ">
<polygon fill="white" stroke="black" points="616,-0.5 616,-30.5 723,-30.5 723,-0.5 616,-0.5"/>
<text text-anchor="start" x="624" y="-18.5" font-family="Helvetica,sans-Serif" font-size="10.00">iop/usb/usbhdfsd/src</text>
<text text-anchor="middle" x="669.5" y="-7.5" font-family="Helvetica,sans-Serif" font-size="10.00">/fat_write.c</text>
</a>
</g>
</g>
<!-- Node9&#45;&gt;Node12 -->
<g id="edge11" class="edge">
<title>Node9&#45;&gt;Node12</title>
<path fill="none" stroke="midnightblue" d="M762.21,-62.85C741.65,-52.58 716.55,-40.03 697.65,-30.58"/>
<polygon fill="midnightblue" stroke="midnightblue" points="760.78,-66.05 771.29,-67.4 763.91,-59.79 760.78,-66.05"/>
</g>
<!-- Node13 -->
<g id="node13" class="node">
<title>Node13</title>
<g id="a_node13"><a xlink:href="usb_2usbhdfsd_2src_2fs__driver_8c_source.html" target="_top" xlink:title=" ">
<polygon fill="white" stroke="black" points="741,-0.5 741,-30.5 848,-30.5 848,-0.5 741,-0.5"/>
<text text-anchor="start" x="749" y="-18.5" font-family="Helvetica,sans-Serif" font-size="10.00">iop/usb/usbhdfsd/src</text>
<text text-anchor="middle" x="794.5" y="-7.5" font-family="Helvetica,sans-Serif" font-size="10.00">/fs_driver.c</text>
</a>
</g>
</g>
<!-- Node9&#45;&gt;Node13 -->
<g id="edge12" class="edge">
<title>Node9&#45;&gt;Node13</title>
<path fill="none" stroke="midnightblue" d="M797.65,-57.4C796.95,-48.37 796.19,-38.41 795.58,-30.58"/>
<polygon fill="midnightblue" stroke="midnightblue" points="794.16,-57.69 798.42,-67.4 801.14,-57.16 794.16,-57.69"/>
</g>
<!-- Node14 -->
<g id="node14" class="node">
<title>Node14</title>
<g id="a_node14"><a xlink:href="usb_2usbhdfsd_2src_2part__driver_8c_source.html" target="_top" xlink:title=" ">
<polygon fill="white" stroke="black" points="866,-0.5 866,-30.5 973,-30.5 973,-0.5 866,-0.5"/>
<text text-anchor="start" x="874" y="-18.5" font-family="Helvetica,sans-Serif" font-size="10.00">iop/usb/usbhdfsd/src</text>
<text text-anchor="middle" x="919.5" y="-7.5" font-family="Helvetica,sans-Serif" font-size="10.00">/part_driver.c</text>
</a>
</g>
</g>
<!-- Node9&#45;&gt;Node14 -->
<g id="edge13" class="edge">
<title>Node9&#45;&gt;Node14</title>
<path fill="none" stroke="midnightblue" d="M834.44,-62.57C853.32,-52.35 876.23,-39.94 893.51,-30.58"/>
<polygon fill="midnightblue" stroke="midnightblue" points="832.66,-59.56 825.54,-67.4 836,-65.71 832.66,-59.56"/>
</g>
<!-- Node15 -->
<g id="node15" class="node">
<title>Node15</title>
<g id="a_node15"><a xlink:href="usb_2usbhdfsd_2src_2scache_8c_source.html" target="_top" xlink:title=" ">
<polygon fill="white" stroke="black" points="991,-0.5 991,-30.5 1098,-30.5 1098,-0.5 991,-0.5"/>
<text text-anchor="start" x="999" y="-18.5" font-family="Helvetica,sans-Serif" font-size="10.00">iop/usb/usbhdfsd/src</text>
<text text-anchor="middle" x="1044.5" y="-7.5" font-family="Helvetica,sans-Serif" font-size="10.00">/scache.c</text>
</a>
</g>
</g>
<!-- Node9&#45;&gt;Node15 -->
<g id="edge14" class="edge">
<title>Node9&#45;&gt;Node15</title>
<path fill="none" stroke="midnightblue" d="M862.26,-64.85C902.2,-54.25 953.37,-40.68 991.31,-30.61"/>
<polygon fill="midnightblue" stroke="midnightblue" points="861.13,-61.53 852.36,-67.48 862.92,-68.29 861.13,-61.53"/>
</g>
<!-- Node16 -->
<g id="node16" class="node">
<title>Node16</title>
<g id="a_node16"><a xlink:href="usb__driver_8c_source.html" target="_top" xlink:title=" ">
<polygon fill="white" stroke="black" points="1116,-0.5 1116,-30.5 1223,-30.5 1223,-0.5 1116,-0.5"/>
<text text-anchor="start" x="1124" y="-18.5" font-family="Helvetica,sans-Serif" font-size="10.00">iop/usb/usbhdfsd/src</text>
<text text-anchor="middle" x="1169.5" y="-7.5" font-family="Helvetica,sans-Serif" font-size="10.00">/usb_driver.c</text>
</a>
</g>
</g>
<!-- Node9&#45;&gt;Node16 -->
<g id="edge15" class="edge">
<title>Node9&#45;&gt;Node16</title>
<path fill="none" stroke="midnightblue" d="M872.39,-66.9C977.71,-48.66 1006.47,-50.49 1107.5,-31 1110.21,-30.48 1112.99,-29.92 1115.79,-29.33"/>
<polygon fill="midnightblue" stroke="midnightblue" points="871.54,-63.5 862.3,-68.67 872.75,-70.39 871.54,-63.5"/>
</g>
<!-- Node17 -->
<g id="node17" class="node">
<title>Node17</title>
<g id="a_node17"><a xlink:href="usbhdfsd_8c_source.html" target="_top" xlink:title=" ">
<polygon fill="white" stroke="black" points="1241,-0.5 1241,-30.5 1348,-30.5 1348,-0.5 1241,-0.5"/>
<text text-anchor="start" x="1249" y="-18.5" font-family="Helvetica,sans-Serif" font-size="10.00">iop/usb/usbhdfsd/src</text>
<text text-anchor="middle" x="1294.5" y="-7.5" font-family="Helvetica,sans-Serif" font-size="10.00">/usbhdfsd.c</text>
</a>
</g>
</g>
<!-- Node9&#45;&gt;Node17 -->
<g id="edge16" class="edge">
<title>Node9&#45;&gt;Node17</title>
<path fill="none" stroke="midnightblue" d="M872.48,-66.96C1032.74,-43.63 1076.7,-56.87 1232.5,-31 1235.23,-30.55 1238.01,-30.04 1240.82,-29.51"/>
<polygon fill="midnightblue" stroke="midnightblue" points="871.64,-63.55 862.26,-68.48 872.67,-70.47 871.64,-63.55"/>
</g>
</g>
</svg>
